<svg width="32" height="24" viewBox="0 0 32 24" fill="none" xmlns="http://www.w3.org/2000/svg">
<path d="M30.932 2H1V22H30.932V2Z" fill="white"/>
<path d="M1 7.9485V13.02H30.932V11.5665H12.9728V10.1145H30.932V8.68956H12.9728V7.20744H30.932V5.78254H12.9728V4.33046H30.932V2.87695H1V7.9485ZM1 15.186V15.8985H30.932V14.4736H1V15.186ZM1 18.0916V18.804H30.932V17.3791H1V18.0916ZM1 20.9829V21.7096H30.932V20.2561H1V20.9829Z" fill="#B31C31"/>
<path d="M1 13.02H15.3062V2.29041H1" fill="#39386E"/>
<path d="M1 7.94846V18.0915V7.94846ZM2.26037 3.51929L2.32475 3.71528H2.74392L2.58512 3.83259C2.49785 3.89697 2.42632 3.96421 2.42632 3.98137C2.42632 4.0014 2.45207 4.08724 2.48212 4.17737C2.51216 4.2675 2.53791 4.34475 2.53791 4.35047C2.53791 4.35619 2.46495 4.31185 2.37625 4.25033C2.28755 4.18595 2.20315 4.13588 2.18884 4.13588C2.1774 4.13588 2.10014 4.18595 2.01574 4.24747C1.85122 4.37622 1.83977 4.36192 1.92418 4.12157C1.95422 4.03288 1.97139 3.95133 1.95708 3.94275C1.94564 3.93416 1.87268 3.88123 1.79828 3.8283L1.65808 3.73102L1.8598 3.72243L2.06152 3.71385L2.12589 3.52072C2.1588 3.41199 2.19027 3.32472 2.19313 3.32472C2.19599 3.32472 2.22604 3.41056 2.26037 3.51929ZM7.29471 3.721L7.49642 3.72959L7.34335 3.83831C7.25894 3.89983 7.18741 3.9499 7.18455 3.95276C7.17883 3.95562 7.20458 4.03717 7.23462 4.13159C7.26752 4.22601 7.28755 4.31328 7.27897 4.32186C7.26752 4.33044 7.20029 4.29182 7.12589 4.23459C7.0515 4.17737 6.97568 4.13445 6.96137 4.13445C6.94707 4.13445 6.86981 4.18452 6.78541 4.24604C6.70386 4.30755 6.63233 4.3519 6.62661 4.34904C6.62089 4.34332 6.64378 4.26464 6.67382 4.17594C6.70386 4.08724 6.72961 3.99711 6.72961 3.97708C6.72961 3.95705 6.65665 3.88982 6.57082 3.8283L6.40916 3.71385H6.83119L6.89843 3.50927L6.9628 3.30756L7.03004 3.50927L7.09728 3.71099L7.29471 3.721ZM9.41345 3.51929L9.47782 3.71528H9.897L9.7382 3.83259C9.65093 3.89697 9.5794 3.96421 9.5794 3.98137C9.5794 4.0014 9.60515 4.08724 9.63519 4.17737C9.66523 4.2675 9.69099 4.34475 9.69099 4.35047C9.69099 4.35619 9.61802 4.31185 9.52933 4.25033C9.44063 4.18595 9.35622 4.13588 9.34192 4.13588C9.33047 4.13588 9.25322 4.18595 9.16881 4.24747C9.00429 4.37622 8.99285 4.36192 9.07725 4.12157C9.1073 4.03288 9.12446 3.95133 9.11016 3.94275C9.09871 3.93416 9.02575 3.88123 8.95136 3.8283L8.81116 3.73102L9.01287 3.72243L9.21459 3.71385L9.27897 3.52072C9.31187 3.41199 9.34335 3.32472 9.34621 3.32472C9.34907 3.32472 9.37911 3.41056 9.41345 3.51929ZM14.4478 3.721L14.6495 3.72959L14.4964 3.83831C14.412 3.89983 14.3405 3.9499 14.3376 3.95276C14.3319 3.95562 14.3577 4.03717 14.3877 4.13159C14.4206 4.22601 14.4406 4.31328 14.432 4.32186C14.4206 4.33044 14.3534 4.29182 14.279 4.23459C14.2031 4.1788 14.1288 4.13445 14.1144 4.13445C14.1001 4.13445 14.0229 4.18452 13.9385 4.24604C13.8569 4.30755 13.7854 4.3519 13.7797 4.34904C13.774 4.34332 13.7969 4.26464 13.8269 4.17594C13.8569 4.08724 13.8827 3.99711 13.8827 3.97708C13.8827 3.95705 13.8097 3.88982 13.7239 3.8283L13.5622 3.71385H13.9843L14.0515 3.50927L14.1159 3.30756L14.1831 3.50927L14.2504 3.71099L14.4478 3.721ZM4.6495 3.52501L4.70529 3.70097L4.90987 3.71528L5.11445 3.72959L4.97997 3.82687C4.90701 3.8798 4.83405 3.93273 4.82117 3.94132C4.80401 3.95276 4.82117 4.0386 4.85694 4.14589C4.88984 4.2489 4.91273 4.33903 4.90701 4.34475C4.90129 4.35047 4.83119 4.30612 4.75393 4.24461C4.67239 4.18595 4.59514 4.13588 4.57797 4.13588C4.5608 4.13588 4.48069 4.18595 4.402 4.24747C4.32046 4.30612 4.25322 4.34761 4.24893 4.33617C4.24607 4.32186 4.26896 4.24175 4.299 4.14876C4.32904 4.05863 4.35479 3.97851 4.35479 3.96707C4.35479 3.95562 4.28183 3.89983 4.19599 3.83831L4.0372 3.72959L4.24463 3.71528L4.45207 3.70097L4.50787 3.52501C4.53791 3.43059 4.57225 3.35191 4.58083 3.35191C4.58941 3.35191 4.61803 3.43059 4.6495 3.52501ZM11.8026 3.52501L11.8584 3.70097L12.0629 3.71528L12.2675 3.72959L12.133 3.82687C12.0601 3.8798 11.9871 3.93273 11.9742 3.94132C11.9571 3.95276 11.9742 4.0386 12.01 4.14589C12.0429 4.2489 12.0658 4.33903 12.0601 4.34475C12.0544 4.35047 11.9843 4.30612 11.907 4.24461C11.8255 4.18595 11.7482 4.13588 11.731 4.13588C11.7139 4.13588 11.6338 4.18595 11.5551 4.24747C11.4735 4.30612 11.4063 4.34761 11.402 4.33617C11.3991 4.32186 11.422 4.24175 11.4521 4.14876C11.4821 4.05863 11.5079 3.97851 11.5079 3.96707C11.5079 3.95562 11.4349 3.89983 11.3491 3.83831L11.1903 3.72959L11.3977 3.71528L11.6051 3.70097L11.6609 3.52501C11.691 3.43059 11.7253 3.35191 11.7339 3.35191C11.7425 3.35191 11.7711 3.43059 11.8026 3.52501ZM3.73247 4.721H3.94421L3.77396 4.84976L3.60086 4.97565L3.64235 5.10727C3.73104 5.39482 3.73391 5.38624 3.58655 5.27751C3.51645 5.22458 3.43777 5.17164 3.41917 5.15734C3.39056 5.13731 3.33476 5.16306 3.22318 5.24604C3.13877 5.31041 3.06438 5.36335 3.05579 5.36335C3.04721 5.36335 3.06724 5.29325 3.09728 5.20455C3.12589 5.11728 3.15021 5.02572 3.15021 4.99997C3.15021 4.97422 3.07725 4.90555 2.99142 4.84403L2.83262 4.73531L3.04149 4.72672L3.25036 4.71814L3.3176 4.51642L3.38197 4.31471L3.44921 4.51642L3.51931 4.721H3.73247ZM5.83691 4.52501L5.90129 4.71814L6.10873 4.72672L6.31617 4.73531L6.16023 4.84689C6.07582 4.90841 6.00429 4.97851 6.00429 5.00283C6.00429 5.02715 6.03004 5.11728 6.05722 5.20455C6.08727 5.29325 6.1073 5.36335 6.09871 5.36335C6.09013 5.36335 6.01431 5.31041 5.93133 5.24604L5.77825 5.13159L5.60801 5.25176C5.41774 5.38337 5.42632 5.39482 5.51359 5.10584L5.55508 4.97422L5.38197 4.84833L5.21173 4.71957H5.63519L5.69671 4.52358C5.73247 4.41485 5.76395 4.32758 5.76681 4.32758C5.77253 4.33044 5.80257 4.41628 5.83691 4.52501ZM10.8855 4.721H11.0973L10.927 4.84976L10.7539 4.97565L10.7954 5.10727C10.8856 5.39482 10.887 5.38624 10.7396 5.27751C10.6695 5.22458 10.5908 5.17164 10.5722 5.15734C10.5436 5.13731 10.4878 5.16306 10.3763 5.24604C10.2918 5.31041 10.2175 5.36335 10.2089 5.36335C10.2003 5.36335 10.2203 5.29325 10.2504 5.20455C10.279 5.11728 10.3033 5.02572 10.3033 4.99997C10.3033 4.97422 10.2303 4.90555 10.1445 4.84403L9.98569 4.73531L10.1946 4.72672L10.4034 4.71814L10.4707 4.51642L10.535 4.31471L10.6023 4.51642L10.6724 4.721H10.8855ZM12.99 4.52501L13.0544 4.71814L13.2618 4.72672L13.4692 4.73531L13.3133 4.84689C13.2289 4.90841 13.1574 4.97851 13.1574 5.00283C13.1574 5.02715 13.1831 5.11728 13.2103 5.20455C13.2403 5.29325 13.2604 5.36335 13.2518 5.36335C13.2432 5.36335 13.1674 5.31041 13.0844 5.24604L12.9313 5.13159L12.7611 5.25176C12.5708 5.38337 12.5794 5.39482 12.6667 5.10584L12.7082 4.97422L12.535 4.84833L12.3648 4.71957H12.7883L12.8498 4.52358C12.8855 4.41485 12.917 4.32758 12.9199 4.32758C12.9256 4.33044 12.9556 4.41628 12.99 4.52501ZM8.22604 4.53073L8.28183 4.70669L8.48927 4.721L8.69671 4.73531L8.53791 4.85548C8.45064 4.91986 8.37911 4.98423 8.37911 4.99854C8.37911 5.00998 8.40486 5.09296 8.43491 5.18309C8.46495 5.27322 8.48784 5.35047 8.48212 5.35619C8.47639 5.35905 8.40343 5.3147 8.32332 5.25319C8.23891 5.19167 8.16738 5.1416 8.1588 5.1416C8.15021 5.1416 8.07153 5.19167 7.99142 5.25319C7.90701 5.3147 7.83548 5.35905 7.82976 5.35333C7.82403 5.35047 7.84692 5.27179 7.87697 5.18309C7.90701 5.09439 7.93276 5.00712 7.93276 4.98996C7.9299 4.97279 7.8598 4.90841 7.7711 4.84689L7.6123 4.73531L7.81974 4.721L8.02861 4.70669L8.08441 4.53073C8.11445 4.43631 8.14878 4.35763 8.15737 4.35763C8.16166 4.35763 8.19456 4.43631 8.22604 4.53073ZM2.27182 5.55934L2.32189 5.72672H2.53362L2.74535 5.72958L2.65093 5.8054C2.598 5.84689 2.52217 5.90841 2.48355 5.94274L2.41059 6.0014L2.4721 6.18595C2.50501 6.28609 2.52504 6.3705 2.51645 6.3705C2.51073 6.3705 2.43205 6.32043 2.34907 6.25891L2.19313 6.14732L2.04006 6.25891C1.95279 6.32043 1.8784 6.36477 1.87268 6.35619C1.86409 6.34761 1.91416 6.16878 1.96996 6.01857C1.97568 6.00426 1.90272 5.93416 1.8083 5.86549L1.63805 5.74246L1.84692 5.73387L2.05866 5.72529L2.11731 5.54646C2.15021 5.44632 2.18741 5.3705 2.19886 5.37622C2.2103 5.38337 2.2432 5.46492 2.27182 5.55934ZM4.6495 5.53645L4.70529 5.71242L4.90701 5.721C5.0186 5.72672 5.10873 5.73817 5.10873 5.74961C5.10587 5.76106 5.03863 5.81685 4.95565 5.8755C4.87267 5.93416 4.80257 5.98995 4.80257 6.00426C4.80257 6.0157 4.82833 6.09868 4.85837 6.18881C4.88841 6.27894 4.90844 6.35619 4.90272 6.36477C4.89413 6.3705 4.82117 6.32329 4.73534 6.25891L4.58226 6.1416L4.42632 6.25891C4.33906 6.32329 4.26466 6.3705 4.25608 6.36477C4.25036 6.35619 4.27039 6.27751 4.30043 6.18881C4.33047 6.10011 4.35622 6.01857 4.35622 6.00712C4.35622 5.99568 4.28326 5.9313 4.19742 5.86406L4.03577 5.74103L4.2432 5.72672L4.45207 5.71242L4.50787 5.53645C4.53791 5.44203 4.57225 5.36335 4.58083 5.36335C4.58941 5.36335 4.61803 5.44203 4.6495 5.53645ZM7.03576 5.54503L7.09442 5.72386L7.30901 5.73244L7.5236 5.74103L7.34764 5.86406C7.25036 5.93416 7.1774 6.0014 7.18312 6.01714C7.23891 6.16735 7.28898 6.34618 7.2804 6.35476C7.27468 6.36334 7.19885 6.31899 7.11588 6.25748L6.95994 6.14875L6.80973 6.25748C6.72532 6.31899 6.65093 6.36907 6.63948 6.36907C6.6309 6.36907 6.64807 6.28466 6.68097 6.18452L6.74249 5.99997L6.66953 5.94131C6.6309 5.90841 6.55508 5.84689 6.50215 5.80397L6.40772 5.72815L6.61946 5.72529H6.83119L6.86409 5.60798C6.91416 5.44918 6.9485 5.36192 6.96137 5.36192C6.96853 5.36335 7.00143 5.44489 7.03576 5.54503ZM9.42489 5.55934L9.47496 5.72672H9.6867L9.89843 5.72958L9.80401 5.8054C9.75107 5.84689 9.67525 5.90841 9.63662 5.94274L9.56366 6.0014L9.62518 6.18595C9.65808 6.28609 9.67811 6.3705 9.66953 6.3705C9.66381 6.3705 9.58512 6.32043 9.50214 6.25891L9.34621 6.14732L9.19313 6.25891C9.10586 6.32043 9.03147 6.36477 9.02575 6.35619C9.01717 6.34761 9.06724 6.16878 9.12303 6.01857C9.12875 6.00426 9.05579 5.93416 8.96137 5.86549L8.79113 5.74246L9 5.73387L9.21173 5.72529L9.27038 5.54646C9.30329 5.44632 9.34049 5.3705 9.35193 5.37622C9.36338 5.38337 9.39628 5.46492 9.42489 5.55934ZM11.8026 5.53645L11.8584 5.71242L12.0601 5.721C12.1717 5.72672 12.2618 5.73817 12.2618 5.74961C12.2589 5.76106 12.1917 5.81685 12.1087 5.8755C12.0258 5.93416 11.9556 5.98995 11.9556 6.00426C11.9556 6.0157 11.9814 6.09868 12.0114 6.18881C12.0415 6.27894 12.0615 6.35619 12.0558 6.36477C12.0472 6.3705 11.9742 6.32329 11.8884 6.25891L11.7353 6.1416L11.5794 6.25891C11.4921 6.32329 11.4177 6.3705 11.4092 6.36477C11.4034 6.35619 11.4235 6.27751 11.4535 6.18881C11.4835 6.10011 11.5093 6.01857 11.5093 6.00712C11.5093 5.99568 11.4363 5.9313 11.3505 5.86406L11.1888 5.74103L11.3963 5.72672L11.6051 5.71242L11.6609 5.53645C11.691 5.44203 11.7253 5.36335 11.7339 5.36335C11.7425 5.36335 11.7711 5.44203 11.8026 5.53645ZM14.1888 5.54503L14.2475 5.72386L14.4621 5.73244L14.6767 5.74103L14.5007 5.86406C14.4034 5.93416 14.3305 6.0014 14.3362 6.01714C14.392 6.16735 14.4421 6.34618 14.4335 6.35476C14.4278 6.36334 14.3519 6.31899 14.269 6.25748L14.113 6.14875L13.9628 6.25748C13.8784 6.31899 13.804 6.36907 13.7926 6.36907C13.784 6.36907 13.8011 6.28466 13.834 6.18452L13.8956 5.99997L13.8226 5.94131C13.784 5.90841 13.7082 5.84689 13.6552 5.80397L13.5608 5.72815L13.7725 5.72529H13.9843L14.0172 5.60798C14.0672 5.44918 14.1016 5.36192 14.1144 5.36192C14.1216 5.36335 14.1545 5.44489 14.1888 5.54503ZM3.71817 6.76678L3.91989 6.77536L3.77969 6.87264C3.70386 6.92557 3.6309 6.97851 3.62089 6.98709C3.60944 6.99567 3.62661 7.07865 3.65665 7.17736C3.68956 7.27178 3.70958 7.35905 3.701 7.36477C3.69242 7.37336 3.6166 7.33187 3.53648 7.27035L3.38627 7.16162L3.22175 7.2818C3.13019 7.34617 3.0515 7.39625 3.04864 7.39338C3.04292 7.38766 3.06581 7.31184 3.09585 7.22314C3.12589 7.13444 3.15164 7.04432 3.15164 7.02429C3.15164 7.00426 3.08154 6.93702 2.99571 6.8755L2.83977 6.76392L3.04721 6.75533L3.25179 6.74675L3.3133 6.56506C3.34621 6.46492 3.37768 6.37765 3.37768 6.36907C3.38054 6.36048 3.41345 6.44489 3.45064 6.55648L3.52074 6.75819L3.71817 6.76678ZM5.84549 6.57078L5.90415 6.74675L6.11159 6.75533L6.32046 6.76392L6.16166 6.8755C6.07439 6.93702 6.00286 7.00426 6.00286 7.02429C6.00286 7.04432 6.02861 7.13301 6.05865 7.22314C6.0887 7.31327 6.11445 7.39052 6.11445 7.39625C6.11445 7.40197 6.03576 7.3519 5.94134 7.28466L5.76824 7.15876L5.61803 7.27035C5.53648 7.33187 5.46209 7.37336 5.4535 7.36477C5.44492 7.35905 5.46495 7.27321 5.49785 7.17736C5.5279 7.08008 5.54506 6.99567 5.53362 6.98709C5.51931 6.97851 5.44921 6.92557 5.37768 6.87264L5.2432 6.77536L5.4392 6.76678L5.63805 6.75819L5.69957 6.56506C5.73534 6.45919 5.76967 6.37765 5.77539 6.38337C5.78112 6.39196 5.81116 6.47636 5.84549 6.57078ZM8.22318 6.55934L8.27897 6.74675L8.48641 6.76105L8.69385 6.77536L8.53505 6.88409C8.44778 6.94274 8.37911 7.0014 8.37911 7.01284C8.37911 7.02429 8.40486 7.1044 8.43491 7.19453C8.46495 7.28466 8.4907 7.36763 8.4907 7.38194C8.4907 7.39625 8.42346 7.35619 8.34192 7.29324C8.25751 7.23173 8.1774 7.18165 8.15737 7.18165C8.1402 7.18165 8.05722 7.23173 7.97282 7.29324C7.88841 7.35476 7.81974 7.39625 7.81974 7.38194C7.81974 7.36763 7.84549 7.28466 7.87554 7.19453C7.90558 7.1044 7.93133 7.02429 7.93133 7.01284C7.93133 7.0014 7.86123 6.94274 7.77539 6.88409L7.61659 6.77536L7.82403 6.76105L8.03147 6.74675L8.08727 6.55934C8.11731 6.45347 8.14878 6.36907 8.15737 6.36907C8.16595 6.36907 8.1917 6.45347 8.22318 6.55934ZM10.8712 6.76678L11.073 6.77536L10.9328 6.87264C10.8569 6.92557 10.784 6.97851 10.774 6.98709C10.7625 6.99567 10.7797 7.07865 10.8097 7.17736C10.8426 7.27178 10.8627 7.35905 10.8541 7.36477C10.8455 7.37336 10.7697 7.33187 10.6896 7.27035L10.5393 7.16162L10.3748 7.2818C10.2833 7.34617 10.2046 7.39625 10.2017 7.39338C10.196 7.38766 10.2189 7.31184 10.2489 7.22314C10.279 7.13444 10.3047 7.04432 10.3047 7.02429C10.3047 7.00426 10.2346 6.93702 10.1488 6.8755L9.99285 6.76392L10.2003 6.75533L10.4049 6.74675L10.4664 6.56506C10.4993 6.46492 10.5308 6.37765 10.5308 6.36907C10.5336 6.36048 10.5665 6.44489 10.6037 6.55648L10.6738 6.75819L10.8712 6.76678ZM12.9986 6.57078L13.0572 6.74675L13.2647 6.75533L13.4735 6.76392L13.3147 6.8755C13.2275 6.93702 13.1559 7.00426 13.1559 7.02429C13.1559 7.04432 13.1817 7.13301 13.2117 7.22314C13.2418 7.31327 13.2675 7.39052 13.2675 7.39625C13.2675 7.40197 13.1888 7.3519 13.0944 7.28466L12.9213 7.15876L12.7711 7.27035C12.6896 7.33187 12.6152 7.37336 12.6066 7.36477C12.598 7.35905 12.618 7.27321 12.6509 7.17736C12.681 7.08008 12.6981 6.99567 12.6867 6.98709C12.6724 6.97851 12.6023 6.92557 12.5308 6.87264L12.3963 6.77536L12.5923 6.76678L12.7911 6.75819L12.8526 6.56506C12.8884 6.45919 12.9227 6.37765 12.9285 6.38337C12.9342 6.39196 12.9642 6.47636 12.9986 6.57078ZM2.26037 7.57078L2.32475 7.76391L2.53362 7.7725L2.74249 7.78108L2.58369 7.88981C2.49642 7.95132 2.42489 8.01284 2.42489 8.03001C2.42489 8.04717 2.45064 8.13873 2.47783 8.23745C2.51073 8.34617 2.51931 8.40197 2.50072 8.39052C2.48069 8.37908 2.40629 8.32614 2.33047 8.27321C2.23605 8.20597 2.18455 8.18451 2.15737 8.20311C2.13734 8.21742 2.06295 8.27035 1.99285 8.32042C1.92275 8.37049 1.86695 8.40483 1.86695 8.39052C1.86695 8.37908 1.8927 8.29038 1.91989 8.19167L1.97568 8.0157L1.80544 7.88981L1.63805 7.76677H2.05866L2.12017 7.57078C2.15594 7.46205 2.18741 7.37479 2.19027 7.37479C2.19599 7.37622 2.22604 7.46205 2.26037 7.57078ZM7.30901 7.76677H7.52074L7.3505 7.89267L7.18026 8.0157L7.23319 8.19167C7.2618 8.28895 7.28612 8.37908 7.28612 8.39052C7.28612 8.40197 7.21602 8.36048 7.13305 8.29896C7.05007 8.23745 6.97425 8.18737 6.9628 8.18737C6.95422 8.18737 6.88698 8.22886 6.81402 8.27893C6.6123 8.42486 6.61516 8.42486 6.67382 8.23745C6.70243 8.14016 6.72675 8.04717 6.72675 8.03001C6.72675 8.01284 6.65665 7.94846 6.57082 7.88981L6.41202 7.78108L6.62089 7.7725L6.82833 7.76391L6.89556 7.5622L6.95994 7.36048L7.02718 7.5622L7.09728 7.76677H7.30901ZM9.41345 7.57078L9.47782 7.76391L9.6867 7.7725L9.89556 7.78108L9.73677 7.88981C9.6495 7.95132 9.57797 8.01284 9.57797 8.03001C9.57797 8.04717 9.60372 8.13873 9.6309 8.23745C9.6638 8.34617 9.67239 8.40197 9.65379 8.39052C9.63376 8.37908 9.55937 8.32614 9.48355 8.27321C9.38913 8.20597 9.33762 8.18451 9.31044 8.20311C9.29041 8.21742 9.21602 8.27035 9.14592 8.32042C9.07582 8.37049 9.02003 8.40483 9.02003 8.39052C9.02003 8.37908 9.04578 8.29038 9.07296 8.19167L9.12875 8.0157L8.95851 7.88981L8.79113 7.76677H9.21173L9.27325 7.57078C9.30901 7.46205 9.34049 7.37479 9.34335 7.37479C9.34907 7.37622 9.37911 7.46205 9.41345 7.57078ZM14.4621 7.76677H14.6738L14.5036 7.89267L14.3333 8.0157L14.3863 8.19167C14.4149 8.28895 14.4392 8.37908 14.4392 8.39052C14.4392 8.40197 14.3691 8.36048 14.2861 8.29896C14.2031 8.23745 14.1273 8.18737 14.1159 8.18737C14.1073 8.18737 14.0401 8.22886 13.9671 8.27893C13.7654 8.42486 13.7682 8.42486 13.8269 8.23745C13.8555 8.14016 13.8798 8.04717 13.8798 8.03001C13.8798 8.01284 13.8097 7.94846 13.7239 7.88981L13.5651 7.78108L13.774 7.7725L13.9814 7.76391L14.0486 7.5622L14.113 7.36048L14.1803 7.5622L14.2504 7.76677H14.4621ZM4.6495 7.5765L4.70529 7.75247L4.91416 7.76677L5.1216 7.78108L4.9814 7.87836C4.90558 7.93129 4.83262 7.98423 4.81974 7.99281C4.79971 8.00712 4.84979 8.22743 4.90701 8.37908C4.91559 8.40197 4.84549 8.36477 4.75107 8.29753L4.57797 8.17736L4.40486 8.29753C4.31044 8.36477 4.24034 8.40054 4.24893 8.37908C4.30472 8.22886 4.35479 8.00712 4.33619 7.99281C4.32189 7.98423 4.24893 7.93129 4.17453 7.87836L4.03433 7.78108L4.24177 7.76677L4.45064 7.75247L4.50644 7.5765C4.53648 7.48208 4.57082 7.4034 4.5794 7.4034C4.58798 7.4034 4.61803 7.48208 4.6495 7.5765ZM11.8026 7.5765L11.8584 7.75247L12.0672 7.76677L12.2747 7.78108L12.1345 7.87836C12.0587 7.93129 11.9857 7.98423 11.9728 7.99281C11.9528 8.00712 12.0029 8.22743 12.0601 8.37908C12.0687 8.40197 11.9986 8.36477 11.9041 8.29753L11.731 8.17736L11.5579 8.29753C11.4635 8.36477 11.3934 8.40054 11.402 8.37908C11.4578 8.22886 11.5079 8.00712 11.4893 7.99281C11.475 7.98423 11.402 7.93129 11.3276 7.87836L11.1874 7.78108L11.3948 7.76677L11.6037 7.75247L11.6595 7.5765C11.6896 7.48208 11.7239 7.4034 11.7325 7.4034C11.7411 7.4034 11.7711 7.48208 11.8026 7.5765ZM3.45923 8.59081L3.51788 8.76963L3.72961 8.77822L3.94134 8.7868L3.7711 8.90697C3.67668 8.97421 3.598 9.03287 3.598 9.03573C3.598 9.04145 3.62375 9.11727 3.65379 9.20597C3.68383 9.29467 3.70958 9.37907 3.70958 9.39338C3.70958 9.40769 3.63376 9.36763 3.54506 9.30468L3.38054 9.18737L3.22747 9.30182C3.14592 9.3662 3.06867 9.41627 3.06009 9.41627C3.0515 9.41627 3.07439 9.329 3.11016 9.22314L3.17453 9.03L3.00429 8.90697L2.83119 8.7868L3.04292 8.77822L3.25465 8.76963L3.29041 8.65518C3.33763 8.49639 3.37196 8.40912 3.38484 8.40912C3.39199 8.40912 3.42489 8.49066 3.45923 8.59081ZM5.84835 8.60225L5.89843 8.76963L6.11016 8.77822L6.32189 8.7868L6.15164 8.90983L5.97854 9.03L6.04292 9.22314C6.07868 9.329 6.10443 9.41627 6.09585 9.41627C6.08727 9.41627 6.01431 9.3662 5.93133 9.30468C5.84692 9.24317 5.77539 9.19309 5.76967 9.19309C5.76395 9.19309 5.69385 9.24317 5.61087 9.30468C5.52933 9.3662 5.4578 9.41055 5.44921 9.40482C5.44063 9.39338 5.4907 9.21455 5.54649 9.06434C5.55222 9.04431 5.47926 8.97707 5.38484 8.91126L5.21173 8.78823L5.42346 8.77965L5.63519 8.77106L5.69385 8.59224C5.72675 8.49209 5.76395 8.41627 5.77539 8.42199C5.78684 8.42915 5.81974 8.51069 5.84835 8.60225ZM8.22604 8.58222L8.28183 8.75819L8.4907 8.77249L8.69814 8.7868L8.53934 8.90983C8.44921 8.97707 8.37768 9.04145 8.37768 9.05289C8.37768 9.06434 8.40343 9.14445 8.43348 9.23458C8.46352 9.32471 8.48641 9.40196 8.48069 9.40769C8.47496 9.41341 8.39914 9.3662 8.31044 9.30182L8.15164 9.18737L7.99857 9.30468C7.9113 9.36906 7.83977 9.41627 7.83119 9.41055C7.82546 9.40196 7.84549 9.32328 7.87554 9.23458C7.90558 9.14588 7.93133 9.06148 7.93133 9.05003C7.93133 9.03573 7.85837 8.97135 7.77253 8.90697L7.61087 8.7868L7.81831 8.77249L8.02718 8.75819L8.08297 8.58222C8.11302 8.4878 8.14735 8.40912 8.15594 8.40912C8.16452 8.40912 8.19456 8.4878 8.22604 8.58222ZM10.6123 8.59081L10.671 8.76963L10.8827 8.77822L11.0944 8.7868L10.9242 8.90697C10.8298 8.97421 10.7511 9.03287 10.7511 9.03573C10.7511 9.04145 10.7768 9.11727 10.8069 9.20597C10.8369 9.29467 10.8627 9.37907 10.8627 9.39338C10.8627 9.40769 10.7868 9.36763 10.6981 9.30468L10.5336 9.18737L10.3805 9.30182C10.299 9.3662 10.2217 9.41627 10.2132 9.41627C10.2046 9.41627 10.2275 9.329 10.2632 9.22314L10.3276 9.03L10.1574 8.90697L9.98426 8.7868L10.196 8.77822L10.4077 8.76963L10.4435 8.65518C10.4907 8.49639 10.525 8.40912 10.5379 8.40912C10.5451 8.40912 10.578 8.49066 10.6123 8.59081ZM13.0014 8.60225L13.0515 8.76963L13.2632 8.77822L13.475 8.7868L13.3047 8.90983L13.1316 9.03L13.196 9.22314C13.2318 9.329 13.2575 9.41627 13.2489 9.41627C13.2403 9.41627 13.1674 9.3662 13.0844 9.30468C13 9.24317 12.9285 9.19309 12.9227 9.19309C12.917 9.19309 12.8469 9.24317 12.7639 9.30468C12.6824 9.3662 12.6109 9.41055 12.6023 9.40482C12.5937 9.39338 12.6438 9.21455 12.6996 9.06434C12.7053 9.04431 12.6323 8.97707 12.5379 8.91126L12.3648 8.78823L12.5765 8.77965L12.7883 8.77106L12.8469 8.59224C12.8798 8.49209 12.917 8.41627 12.9285 8.42199C12.9399 8.42915 12.9728 8.51069 13.0014 8.60225ZM2.27182 9.61942L2.32761 9.79252L2.5236 9.80683L2.7196 9.82113L2.57082 9.927C2.49213 9.98565 2.42489 10.05 2.42489 10.0701C2.42489 10.0901 2.45064 10.1759 2.47783 10.2632C2.50787 10.3519 2.52217 10.422 2.51073 10.422C2.49928 10.422 2.42346 10.3719 2.34049 10.3104C2.25322 10.246 2.17883 10.2103 2.16166 10.2217C2.14449 10.236 2.07725 10.2861 2.01144 10.3362C1.94421 10.3891 1.88555 10.4234 1.87697 10.4148C1.86266 10.4005 1.90701 10.2417 1.96853 10.0715C1.97425 10.0572 1.90701 9.99281 1.81831 9.93129L1.65951 9.82256L1.86123 9.81398L2.06009 9.8054L2.11874 9.6094C2.15165 9.50068 2.18598 9.41913 2.19742 9.43058C2.20744 9.44059 2.24034 9.525 2.27182 9.61942ZM4.6495 9.60225L4.70243 9.79252L4.90415 9.80683L5.10587 9.82113L4.95279 9.92986C4.86838 9.99138 4.80257 10.05 4.80257 10.0586C4.80257 10.0701 4.82833 10.1502 4.85837 10.2403C4.88841 10.3304 4.90844 10.4077 4.89986 10.4163C4.89413 10.4249 4.81831 10.3776 4.73534 10.3161L4.58512 10.2017L4.42632 10.3133C4.33906 10.3776 4.26466 10.422 4.25608 10.4163C4.25036 10.4077 4.27039 10.329 4.30043 10.2403C4.33047 10.1516 4.35622 10.0672 4.35622 10.0558C4.35622 10.0443 4.28326 9.98279 4.19742 9.92128L4.03863 9.80969L4.24607 9.8011L4.4535 9.79252L4.5093 9.60225C4.53791 9.49925 4.57082 9.41484 4.58226 9.41484C4.58512 9.41484 4.61803 9.49925 4.6495 9.60225ZM7.03576 9.61083L7.09442 9.80397L7.29328 9.81255L7.49499 9.82113L7.33619 9.92986C7.2475 9.99138 7.18026 10.0558 7.18598 10.0701C7.24177 10.226 7.29185 10.3991 7.28326 10.4105C7.27468 10.4163 7.19885 10.3719 7.11588 10.3104L6.9628 10.2017L6.81259 10.3104C6.73104 10.3719 6.65665 10.422 6.64521 10.422C6.63376 10.422 6.64807 10.3519 6.67811 10.2632C6.70672 10.1759 6.73104 10.0901 6.73104 10.0672C6.73104 10.0472 6.66381 9.98279 6.58512 9.92414L6.43634 9.82113L6.63233 9.80683L6.82833 9.79252L6.87554 9.65232C6.90129 9.57364 6.92847 9.49066 6.93419 9.46205C6.95422 9.38193 6.97425 9.40912 7.03576 9.61083ZM9.42489 9.61942L9.48069 9.79252L9.67668 9.80683L9.87267 9.82113L9.72389 9.927C9.64521 9.98565 9.57797 10.05 9.57797 10.0701C9.57797 10.0901 9.60372 10.1759 9.6309 10.2632C9.66094 10.3519 9.67525 10.422 9.6638 10.422C9.65236 10.422 9.57654 10.3719 9.49356 10.3104C9.40629 10.246 9.3319 10.2103 9.31473 10.2217C9.29757 10.236 9.23033 10.2861 9.16452 10.3362C9.09728 10.3891 9.03863 10.4234 9.03004 10.4148C9.01574 10.4005 9.06009 10.2417 9.1216 10.0715C9.12732 10.0572 9.06009 9.99281 8.97139 9.93129L8.81259 9.82256L9.01431 9.81398L9.21316 9.8054L9.27182 9.6094C9.30472 9.50068 9.33906 9.41913 9.3505 9.43058C9.36051 9.44059 9.39342 9.525 9.42489 9.61942ZM11.8026 9.60225L11.8555 9.79252L12.0572 9.80683L12.2589 9.82113L12.1059 9.92986C12.0215 9.99138 11.9556 10.05 11.9556 10.0586C11.9556 10.0701 11.9814 10.1502 12.0114 10.2403C12.0415 10.3304 12.0615 10.4077 12.0529 10.4163C12.0472 10.4249 11.9714 10.3776 11.8884 10.3161L11.7382 10.2017L11.5794 10.3133C11.4921 10.3776 11.4177 10.422 11.4092 10.4163C11.4034 10.4077 11.4235 10.329 11.4535 10.2403C11.4835 10.1516 11.5093 10.0672 11.5093 10.0558C11.5093 10.0443 11.4363 9.98279 11.3505 9.92128L11.1917 9.80969L11.3991 9.8011L11.6066 9.79252L11.6624 9.60225C11.691 9.49925 11.7239 9.41484 11.7353 9.41484C11.7382 9.41484 11.7711 9.49925 11.8026 9.60225ZM14.1888 9.61083L14.2475 9.80397L14.4464 9.81255L14.6481 9.82113L14.4893 9.92986C14.4006 9.99138 14.3333 10.0558 14.3391 10.0701C14.3948 10.226 14.4449 10.3991 14.4363 10.4105C14.4278 10.4163 14.3519 10.3719 14.269 10.3104L14.1159 10.2017L13.9657 10.3104C13.8841 10.3719 13.8097 10.422 13.7983 10.422C13.7868 10.422 13.8011 10.3519 13.8312 10.2632C13.8598 10.1759 13.8841 10.0901 13.8841 10.0672C13.8841 10.0472 13.8169 9.98279 13.7382 9.92414L13.5894 9.82113L13.7854 9.80683L13.9814 9.79252L14.0286 9.65232C14.0544 9.57364 14.0815 9.49066 14.0873 9.46205C14.1073 9.38193 14.1273 9.40912 14.1888 9.61083ZM3.72961 10.8125H3.94134L3.77682 10.9299C3.68813 10.9942 3.60944 11.0472 3.60372 11.05C3.60086 11.0529 3.62375 11.1287 3.65379 11.2174C3.7382 11.4578 3.72675 11.4692 3.56223 11.3433C3.47783 11.2818 3.40343 11.2317 3.38913 11.2317C3.37768 11.2317 3.31044 11.2732 3.23891 11.3233C3.03147 11.4721 3.0372 11.4721 3.08584 11.3233C3.17024 11.05 3.1731 11.06 2.99714 10.9299L2.83548 10.8125H3.25465L3.32189 10.608L3.38627 10.4063L3.4535 10.608L3.5236 10.8125H3.72961ZM5.83691 10.6166L5.90129 10.8125H6.32046L6.1588 10.9299C5.98283 11.0615 5.98569 11.05 6.0701 11.3204C6.09299 11.3962 6.10873 11.4549 6.103 11.4549C6.10014 11.4549 6.02718 11.4048 5.94707 11.3433C5.86695 11.2818 5.78541 11.2317 5.7711 11.2317C5.75393 11.2317 5.67668 11.2818 5.59227 11.3433C5.42775 11.4692 5.41631 11.4578 5.50071 11.2174C5.53076 11.1287 5.55365 11.0529 5.55079 11.05C5.54506 11.0472 5.4721 10.9971 5.38913 10.9356L5.23605 10.8269L5.43777 10.8183L5.63948 10.8097L5.70386 10.6166C5.73677 10.5078 5.76824 10.4206 5.7711 10.4206C5.77253 10.4206 5.80257 10.5078 5.83691 10.6166ZM10.8827 10.8125H11.0944L10.9299 10.9299C10.8398 10.9942 10.7625 11.0472 10.7568 11.05C10.7539 11.0529 10.7768 11.1287 10.8069 11.2174C10.8913 11.4578 10.8798 11.4692 10.7153 11.3433C10.6309 11.2818 10.5565 11.2317 10.5422 11.2317C10.5308 11.2317 10.4635 11.2732 10.392 11.3233C10.1845 11.4721 10.1903 11.4721 10.2389 11.3233C10.3233 11.05 10.3262 11.06 10.1502 10.9299L9.98855 10.8125H10.4077L10.475 10.608L10.5393 10.4063L10.6066 10.608L10.6767 10.8125H10.8827ZM12.99 10.6166L13.0544 10.8125H13.4735L13.3119 10.9299C13.1359 11.0615 13.1388 11.05 13.2232 11.3204C13.2461 11.3962 13.2618 11.4549 13.2561 11.4549C13.2532 11.4549 13.1803 11.4048 13.1001 11.3433C13.02 11.2818 12.9385 11.2317 12.9242 11.2317C12.907 11.2317 12.8298 11.2818 12.7453 11.3433C12.5808 11.4692 12.5694 11.4578 12.6538 11.2174C12.6838 11.1287 12.7067 11.0529 12.7039 11.05C12.6981 11.0472 12.6252 10.9971 12.5422 10.9356L12.3891 10.8269L12.5908 10.8183L12.7926 10.8097L12.8569 10.6166C12.8898 10.5078 12.9213 10.4206 12.9242 10.4206C12.9256 10.4206 12.9556 10.5078 12.99 10.6166ZM8.22604 10.6223L8.28183 10.7982L8.48641 10.8125L8.69099 10.8269L8.55651 10.9241C8.48355 10.9771 8.41059 11.03 8.39771 11.0386C8.3834 11.0472 8.40057 11.1387 8.43061 11.246C8.46352 11.349 8.48641 11.4392 8.48069 11.4449C8.47783 11.4506 8.40772 11.4034 8.33047 11.3419C8.24893 11.2832 8.17453 11.2331 8.16023 11.2331C8.14592 11.2331 8.06581 11.2832 7.97854 11.3476C7.88984 11.4091 7.81974 11.4477 7.81974 11.4349C7.81974 11.422 7.84549 11.3376 7.87554 11.2475C7.90558 11.1573 7.93133 11.0772 7.93133 11.0658C7.93133 11.0543 7.85837 10.9985 7.77253 10.937L7.61373 10.8283L7.82117 10.814L8.02861 10.7997L8.08441 10.6237C8.11445 10.5293 8.14878 10.4506 8.15737 10.4506C8.16595 10.4506 8.19456 10.5279 8.22604 10.6223ZM2.26037 11.6223L2.32475 11.8154L2.53362 11.824L2.74535 11.8326L2.58655 11.9442C2.49785 12.0057 2.42489 12.0758 2.42489 12.1001C2.42489 12.1244 2.45064 12.2145 2.47783 12.3018C2.50787 12.3905 2.5279 12.4606 2.51931 12.4606C2.51073 12.4606 2.43777 12.4077 2.35193 12.3462L2.20172 12.2289L2.03433 12.3462C1.94278 12.4105 1.86695 12.452 1.86695 12.4377C1.86695 12.4234 1.8927 12.3404 1.92275 12.2503C1.95279 12.1616 1.97854 12.0858 1.97854 12.0801C1.97854 12.0772 1.89986 12.0157 1.80544 11.9456L1.63233 11.8168H2.05866L2.12017 11.6208C2.15737 11.5135 2.18741 11.4277 2.19027 11.4277C2.19599 11.4277 2.22604 11.5135 2.26037 11.6223ZM7.30615 11.824L7.51788 11.8326L7.35908 11.9413C7.27182 12 7.19456 12.0586 7.18884 12.0701C7.18026 12.0815 7.20029 12.1645 7.23033 12.2517C7.26037 12.3404 7.28612 12.4248 7.28612 12.4392C7.28612 12.4535 7.21316 12.4105 7.1216 12.3476L6.95708 12.2331L6.80401 12.3476C6.71674 12.4091 6.64235 12.462 6.63376 12.462C6.62518 12.462 6.64521 12.3919 6.67525 12.3032C6.70386 12.216 6.72818 12.1273 6.72818 12.1015C6.72818 12.0758 6.65522 12.0071 6.57225 11.9456L6.41631 11.834L6.62375 11.8254L6.83119 11.8168L6.89843 11.6151L6.9628 11.4134L7.03004 11.6151L7.09728 11.8168L7.30615 11.824ZM9.41345 11.6223L9.47782 11.8154L9.6867 11.824L9.89843 11.8326L9.73963 11.9442C9.6495 12.0057 9.57797 12.0758 9.57797 12.1001C9.57797 12.1244 9.60372 12.2145 9.6309 12.3018C9.66094 12.3905 9.68097 12.4606 9.67239 12.4606C9.66381 12.4606 9.59084 12.4077 9.50501 12.3462L9.35479 12.2289L9.18741 12.3462C9.09585 12.4105 9.02003 12.452 9.02003 12.4377C9.02003 12.4234 9.04578 12.3404 9.07582 12.2503C9.10586 12.1602 9.13162 12.0858 9.13162 12.0801C9.13162 12.0772 9.05293 12.0157 8.95851 11.9456L8.78541 11.8168H9.21173L9.27325 11.6208C9.30901 11.5121 9.34049 11.4248 9.34335 11.4248C9.34907 11.4277 9.37911 11.5135 9.41345 11.6223ZM14.4592 11.824L14.671 11.8326L14.5122 11.9413C14.4249 12 14.3476 12.0586 14.3419 12.0701C14.3333 12.0815 14.3534 12.1645 14.3834 12.2517C14.4134 12.3404 14.4392 12.4248 14.4392 12.4392C14.4392 12.4535 14.3662 12.4105 14.2747 12.3476L14.1102 12.2331L13.9571 12.3476C13.8698 12.4091 13.7954 12.462 13.7868 12.462C13.7783 12.462 13.7983 12.3919 13.8283 12.3032C13.8569 12.216 13.8813 12.1273 13.8813 12.1015C13.8813 12.0758 13.8083 12.0071 13.7253 11.9456L13.5694 11.834L13.7768 11.8254L13.9843 11.8168L14.0515 11.6151L14.1159 11.4134L14.1831 11.6151L14.2504 11.8168L14.4592 11.824ZM4.6495 11.628L4.70529 11.804L4.91273 11.8183L5.12017 11.8326L4.96137 11.9527C4.87411 12.0171 4.80257 12.0815 4.80257 12.0958C4.80257 12.1073 4.82833 12.1902 4.85837 12.2804C4.88841 12.3705 4.9113 12.4477 4.90558 12.4535C4.89986 12.4563 4.8269 12.412 4.74678 12.3505C4.66237 12.2889 4.59084 12.2389 4.58226 12.2389C4.57368 12.2389 4.49499 12.2889 4.41488 12.3505C4.33047 12.412 4.25894 12.4563 4.25322 12.4506C4.2475 12.4477 4.27039 12.3691 4.30043 12.2804C4.33047 12.1917 4.35622 12.1073 4.35622 12.0958C4.35622 12.0815 4.28326 12.0171 4.19742 11.9527L4.03863 11.8326L4.24607 11.8183L4.4535 11.804L4.5093 11.628C4.53934 11.5336 4.57368 11.4549 4.58226 11.4549C4.59084 11.4549 4.61803 11.5336 4.6495 11.628ZM11.8026 11.628L11.8584 11.804L12.0658 11.8183L12.2732 11.8326L12.1144 11.9527C12.0272 12.0171 11.9556 12.0815 11.9556 12.0958C11.9556 12.1073 11.9814 12.1902 12.0114 12.2804C12.0415 12.3705 12.0644 12.4477 12.0587 12.4535C12.0529 12.4563 11.98 12.412 11.8999 12.3505C11.8154 12.2889 11.7439 12.2389 11.7353 12.2389C11.7268 12.2389 11.6481 12.2889 11.568 12.3505C11.4835 12.412 11.412 12.4563 11.4063 12.4506C11.4006 12.4477 11.4235 12.3691 11.4535 12.2804C11.4835 12.1917 11.5093 12.1073 11.5093 12.0958C11.5093 12.0815 11.4363 12.0171 11.3505 11.9527L11.1917 11.8326L11.3991 11.8183L11.6066 11.804L11.6624 11.628C11.6924 11.5336 11.7268 11.4549 11.7353 11.4549C11.7439 11.4549 11.7711 11.5336 11.8026 11.628Z" fill="white"/>
</svg>
