<svg width="32" height="24" viewBox="0 0 32 24" fill="none" xmlns="http://www.w3.org/2000/svg">
<path fill-rule="evenodd" clip-rule="evenodd" d="M1 2H30.8427V22H1V2Z" fill="#CC2229"/>
<path fill-rule="evenodd" clip-rule="evenodd" d="M4.62083 8.97327L5.07842 7.55077L3.91455 6.65562H5.347L5.78469 5.36244L6.21244 6.65562H7.69463L6.52081 7.55077L6.95851 8.92367L5.78469 8.08807L4.62083 8.97327ZM8.10248 4.61623L8.45078 4.06912L8.05288 3.55184L8.66963 3.72095L8.9979 3.23352L9.02774 3.82043L9.65444 3.97959L9.05758 4.22828L9.08743 4.85497L8.68952 4.37749L8.10248 4.61623ZM10.1716 6.73507L10.0522 6.09842L9.42551 5.99895L9.97262 5.70052L9.88309 5.11361L10.3009 5.52146L10.8679 5.22303L10.6192 5.80994L11.0569 6.24763L10.4402 6.16805L10.1716 6.73507ZM10.1716 9.26175L10.0522 8.61516L9.42551 8.51568L9.97262 8.21725L9.88309 7.6403L10.3009 8.0382L10.8679 7.74972L10.6192 8.32668L11.0569 8.77432L10.4402 8.69474L10.1716 9.26175ZM8.78886 11.112L8.66949 10.4654L8.03285 10.3659L8.58991 10.0675L8.50038 9.49054L8.91818 9.88845L9.47524 9.59997L9.22655 10.1769L9.67419 10.6246L9.05745 10.545L8.78886 11.112Z" fill="#FFF22D"/>
</svg>
