<svg width="32" height="24" viewBox="0 0 32 24" fill="none" xmlns="http://www.w3.org/2000/svg">
<path fill-rule="evenodd" clip-rule="evenodd" d="M1 2H31V21H1V2Z" fill="#DE2110"/>
<path fill-rule="evenodd" clip-rule="evenodd" d="M1 2H14.5594V11.5H1V2Z" fill="#08399C"/>
<path fill-rule="evenodd" clip-rule="evenodd" d="M10.9176 8.626L9.25363 8.26481L9.60811 10.0186L8.33781 8.82784L7.81384 10.5338L7.27791 8.83166L6.0163 10.0328L6.35847 8.27632L4.69699 8.65012L5.82508 7.30962L4.20898 6.75654L5.82107 6.19084L4.68356 4.85899L6.34757 5.22006L5.99345 3.4662L7.26339 4.65715L7.78736 2.95123L8.32329 4.65303L9.5849 3.45217L9.24273 5.20874L10.9042 4.83468L9.77612 6.17552L11.3923 6.72819L9.78013 7.29388L10.9176 8.626Z" fill="white"/>
<path fill-rule="evenodd" clip-rule="evenodd" d="M9.38366 8.49128L8.8586 8.78563L8.34638 9.10507L7.7516 9.08344L7.1568 9.09078L6.65195 8.75899L6.13308 8.45191L5.85348 7.89876L5.55005 7.35993L5.57023 6.73375L5.56362 6.10723L5.87879 5.57582L6.17052 5.02972L6.69558 4.73529L7.20781 4.41589L7.80262 4.43742L8.39774 4.43025L8.90265 4.76201L9.4211 5.06909L9.7007 5.62206L10.0042 6.16089L9.98399 6.78707L9.99056 7.41359L9.67539 7.94511L9.38366 8.49128Z" fill="#005387"/>
<path fill-rule="evenodd" clip-rule="evenodd" d="M9.60048 6.76037C9.60048 7.82341 8.78408 8.68512 7.77706 8.68512C6.77005 8.68512 5.95361 7.82341 5.95361 6.76041C5.95361 5.69741 6.77001 4.83569 7.77706 4.83569C8.78411 4.83569 9.60048 5.69741 9.60048 6.76041V6.76037Z" fill="white"/>
</svg>
