<svg width="49" height="48" viewBox="0 0 49 48" fill="none" xmlns="http://www.w3.org/2000/svg">
<path d="M39.5044 47.1782C29.2384 48.2739 18.9413 48.2739 8.67529 47.1782C4.58179 46.7413 1.34851 43.5081 0.911621 39.4142C-0.184082 29.1482 -0.184082 18.8514 0.911621 8.58545C1.34851 4.49194 4.58179 1.25867 8.67529 0.821777C18.9413 -0.273926 29.238 -0.273926 39.504 0.821777C43.5979 1.25867 46.8312 4.49194 47.2681 8.58545C48.3638 18.8514 48.3638 29.1482 47.2681 39.4142C46.8312 43.5081 43.5983 46.7413 39.5044 47.1782Z" fill="#1E599B"/>
<path d="M30.6459 20.7537H26.8234V18.2978C26.8234 17.3756 27.4474 17.1605 27.8869 17.1605C28.3254 17.1605 30.5844 17.1605 30.5844 17.1605V13.106L26.8694 13.0918C22.7454 13.0918 21.8069 16.1158 21.8069 18.051V20.7537H19.4219V24.9316H21.8069C21.8069 30.2934 21.8069 36.7538 21.8069 36.7538H26.8234C26.8234 36.7538 26.8234 30.2298 26.8234 24.9316H30.2084L30.6459 20.7537Z" fill="white"/>
</svg>
