<svg width="74" height="24" viewBox="0 0 74 24" fill="none" xmlns="http://www.w3.org/2000/svg">
<path d="M21.9744 12.2304C21.9744 11.3777 21.9051 10.7555 21.7552 10.1102H12.0098V13.9587H17.7301C17.6149 14.9152 16.9921 16.3555 15.6081 17.3233L15.5887 17.4522L18.67 19.8371L18.8835 19.8584C20.8441 18.0493 21.9744 15.3876 21.9744 12.2304Z" fill="#4285F4"/>
<path d="M12.009 22.3701C14.8115 22.3701 17.1642 21.4483 18.8827 19.8582L15.6073 17.3232C14.7308 17.9339 13.5544 18.3602 12.009 18.3602C9.26411 18.3602 6.93444 16.5512 6.10398 14.0508L5.98225 14.0611L2.77823 16.5385L2.73633 16.6549C4.44321 20.0425 7.94929 22.3701 12.009 22.3701Z" fill="#34A853"/>
<path d="M6.10371 14.051C5.88458 13.4057 5.75777 12.7143 5.75777 11.9999C5.75777 11.2855 5.88458 10.5942 6.09218 9.94891L6.08637 9.81148L2.8422 7.29431L2.73606 7.34475C2.03257 8.75053 1.62891 10.3292 1.62891 11.9999C1.62891 13.6707 2.03257 15.2493 2.73606 16.6551L6.10371 14.051Z" fill="#FBBC05"/>
<path d="M12.009 5.63949C13.958 5.63949 15.2728 6.48064 16.0225 7.18357L18.9519 4.32594C17.1528 2.65516 14.8115 1.62964 12.009 1.62964C7.94928 1.62964 4.44321 3.95719 2.73633 7.34482L6.09245 9.94897C6.93444 7.44857 9.26411 5.63949 12.009 5.63949Z" fill="#EB4335"/>
<path d="M36.75 17H37.856V12.142H33.11V13.374H36.554C36.498 14.396 35.7 15.964 33.488 15.964C31.71 15.964 30.03 14.662 30.03 12.03C30.03 9.398 31.766 8.124 33.544 8.124C35.084 8.124 36.246 8.964 36.694 10.392L37.94 9.86C37.366 8.068 35.7 6.864 33.544 6.864C31.094 6.864 28.63 8.67 28.63 12.03C28.63 15.39 30.954 17.21 33.446 17.21C35.112 17.21 36.19 16.384 36.624 15.6L36.75 17ZM42.7091 10.056C40.6931 10.056 39.2651 11.582 39.2651 13.626C39.2651 15.684 40.6931 17.21 42.7091 17.21C44.7251 17.21 46.1531 15.684 46.1531 13.626C46.1531 11.582 44.7251 10.056 42.7091 10.056ZM42.7091 16.034C41.5891 16.034 40.6091 15.194 40.6091 13.626C40.6091 12.072 41.5891 11.232 42.7091 11.232C43.8291 11.232 44.8091 12.072 44.8091 13.626C44.8091 15.194 43.8291 16.034 42.7091 16.034ZM50.7208 10.056C48.7048 10.056 47.2768 11.582 47.2768 13.626C47.2768 15.684 48.7048 17.21 50.7208 17.21C52.7368 17.21 54.1648 15.684 54.1648 13.626C54.1648 11.582 52.7368 10.056 50.7208 10.056ZM50.7208 16.034C49.6008 16.034 48.6208 15.194 48.6208 13.626C48.6208 12.072 49.6008 11.232 50.7208 11.232C51.8408 11.232 52.8208 12.072 52.8208 13.626C52.8208 15.194 51.8408 16.034 50.7208 16.034ZM56.6325 17.07L55.3585 17.364C55.5265 18.806 56.7865 19.87 58.4665 19.87C61.0005 19.87 61.8405 18.204 61.8405 16.496V10.266H60.5385V11.204C60.2025 10.532 59.5025 10.14 58.4665 10.14C56.6185 10.14 55.3725 11.596 55.3725 13.416C55.3725 15.32 56.6745 16.678 58.4665 16.678C59.4745 16.678 60.2025 16.188 60.5245 15.572V16.538C60.5245 17.994 59.8805 18.722 58.4665 18.722C57.4445 18.722 56.7305 18.008 56.6325 17.07ZM58.6625 15.572C57.4725 15.572 56.7165 14.732 56.7165 13.416C56.7165 12.114 57.5005 11.26 58.6625 11.26C59.7965 11.26 60.5805 12.114 60.5805 13.416C60.5805 14.718 59.7965 15.572 58.6625 15.572ZM63.9423 17H65.2583V6.864H63.9423V17ZM73.363 15.082L72.229 14.69C71.977 15.446 71.431 16.048 70.339 16.048C69.205 16.048 68.337 15.208 68.309 14.004H73.377C73.391 13.92 73.405 13.752 73.405 13.584C73.405 11.484 72.243 10.056 70.171 10.056C68.477 10.056 66.951 11.498 66.951 13.612C66.951 15.894 68.533 17.21 70.339 17.21C71.907 17.21 72.985 16.272 73.363 15.082ZM72.033 12.94H68.351C68.407 12.072 69.079 11.218 70.185 11.218C71.375 11.218 72.005 11.974 72.033 12.94Z" fill="#4285F4"/>
</svg>
