<svg width="110" height="24" viewBox="0 0 110 24" fill="none" xmlns="http://www.w3.org/2000/svg">
<path d="M21.0103 3L13.1973 8.78108L14.6502 5.3741L21.0103 3Z" fill="#E17726" stroke="#E17726" stroke-width="0.25" stroke-linecap="round" stroke-linejoin="round"/>
<path d="M2.98828 3L10.7317 8.83503L9.34844 5.37409L2.98828 3Z" fill="#E27625" stroke="#E27625" stroke-width="0.25" stroke-linecap="round" stroke-linejoin="round"/>
<path d="M18.198 16.4043L16.1191 19.58L20.5705 20.8056L21.8456 16.4737L18.198 16.4043Z" fill="#E27625" stroke="#E27625" stroke-width="0.25" stroke-linecap="round" stroke-linejoin="round"/>
<path d="M2.16211 16.4737L3.42949 20.8056L7.87311 19.58L5.80199 16.4043L2.16211 16.4737Z" fill="#E27625" stroke="#E27625" stroke-width="0.25" stroke-linecap="round" stroke-linejoin="round"/>
<path d="M7.63294 11.0396L6.39648 12.9049L10.8014 13.1053L10.6546 8.36487L7.63294 11.0396Z" fill="#E27625" stroke="#E27625" stroke-width="0.25" stroke-linecap="round" stroke-linejoin="round"/>
<path d="M16.3657 11.0396L13.2977 8.31091L13.1973 13.1054L17.6022 12.9049L16.3657 11.0396Z" fill="#E27625" stroke="#E27625" stroke-width="0.25" stroke-linecap="round" stroke-linejoin="round"/>
<path d="M7.87305 19.58L10.5392 18.2928L8.244 16.5045L7.87305 19.58Z" fill="#E27625" stroke="#E27625" stroke-width="0.25" stroke-linecap="round" stroke-linejoin="round"/>
<path d="M13.4609 18.2928L16.1193 19.58L15.7561 16.5045L13.4609 18.2928Z" fill="#E27625" stroke="#E27625" stroke-width="0.25" stroke-linecap="round" stroke-linejoin="round"/>
<path d="M16.1193 19.5802L13.4609 18.293L13.6773 20.0196L13.6541 20.7518L16.1193 19.5802Z" fill="#D5BFB2" stroke="#D5BFB2" stroke-width="0.25" stroke-linecap="round" stroke-linejoin="round"/>
<path d="M7.87305 19.5802L10.346 20.7518L10.3306 20.0196L10.5392 18.293L7.87305 19.5802Z" fill="#D5BFB2" stroke="#D5BFB2" stroke-width="0.25" stroke-linecap="round" stroke-linejoin="round"/>
<path d="M10.3919 15.3638L8.18164 14.7164L9.74269 13.9995L10.3919 15.3638Z" fill="#233447" stroke="#233447" stroke-width="0.25" stroke-linecap="round" stroke-linejoin="round"/>
<path d="M13.6074 15.3638L14.2566 13.9995L15.8254 14.7164L13.6074 15.3638Z" fill="#233447" stroke="#233447" stroke-width="0.25" stroke-linecap="round" stroke-linejoin="round"/>
<path d="M7.87382 19.58L8.26024 16.4043L5.80273 16.4737L7.87382 19.58Z" fill="#CC6228" stroke="#CC6228" stroke-width="0.25" stroke-linecap="round" stroke-linejoin="round"/>
<path d="M15.7402 16.4043L16.1189 19.58L18.1977 16.4737L15.7402 16.4043Z" fill="#CC6228" stroke="#CC6228" stroke-width="0.25" stroke-linecap="round" stroke-linejoin="round"/>
<path d="M17.6022 12.9049L13.1973 13.1053L13.6068 15.3638L14.256 13.9995L15.8248 14.7163L17.6022 12.9049Z" fill="#CC6228" stroke="#CC6228" stroke-width="0.25" stroke-linecap="round" stroke-linejoin="round"/>
<path d="M8.18164 14.7163L9.74269 13.9995L10.3919 15.3638L10.8014 13.1053L6.39648 12.9049L8.18164 14.7163Z" fill="#CC6228" stroke="#CC6228" stroke-width="0.25" stroke-linecap="round" stroke-linejoin="round"/>
<path d="M6.39648 12.9049L8.24349 16.5046L8.18162 14.7163L6.39648 12.9049Z" fill="#E27525" stroke="#E27525" stroke-width="0.25" stroke-linecap="round" stroke-linejoin="round"/>
<path d="M15.8254 14.7163L15.7559 16.5046L17.6029 12.9049L15.8254 14.7163Z" fill="#E27525" stroke="#E27525" stroke-width="0.25" stroke-linecap="round" stroke-linejoin="round"/>
<path d="M10.8022 13.1052L10.3926 15.3637L10.9103 18.0307L11.0263 14.5158L10.8022 13.1052Z" fill="#E27525" stroke="#E27525" stroke-width="0.25" stroke-linecap="round" stroke-linejoin="round"/>
<path d="M13.1969 13.1052L12.9805 14.5082L13.0887 18.0307L13.6064 15.3637L13.1969 13.1052Z" fill="#E27525" stroke="#E27525" stroke-width="0.25" stroke-linecap="round" stroke-linejoin="round"/>
<path d="M13.6076 15.3638L13.0898 18.0308L13.4608 18.2929L15.756 16.5046L15.8256 14.7163L13.6076 15.3638Z" fill="#F5841F" stroke="#F5841F" stroke-width="0.25" stroke-linecap="round" stroke-linejoin="round"/>
<path d="M8.18164 14.7163L8.24351 16.5046L10.5387 18.2929L10.9096 18.0308L10.3919 15.3638L8.18164 14.7163Z" fill="#F5841F" stroke="#F5841F" stroke-width="0.25" stroke-linecap="round" stroke-linejoin="round"/>
<path d="M13.6536 20.7517L13.6767 20.0194L13.4758 19.8498H10.5238L10.3306 20.0194L10.346 20.7517L7.87305 19.5801L8.73858 20.2892L10.4928 21.4994H13.499L15.261 20.2892L16.1188 19.5801L13.6536 20.7517Z" fill="#C0AC9D" stroke="#C0AC9D" stroke-width="0.25" stroke-linecap="round" stroke-linejoin="round"/>
<path d="M13.4599 18.2928L13.0889 18.0308H10.9097L10.5388 18.2928L10.3301 20.0195L10.5233 19.8499H13.4754L13.6763 20.0195L13.4599 18.2928Z" fill="#161616" stroke="#161616" stroke-width="0.25" stroke-linecap="round" stroke-linejoin="round"/>
<path d="M21.3434 9.15876L22.0003 5.96762L21.0111 3L13.4609 8.5884L16.3666 11.0395L20.4702 12.2343L21.3744 11.1783L20.9803 10.8931L21.6062 10.3227L21.1271 9.95272L21.7531 9.47481L21.3434 9.15876Z" fill="#763E1A" stroke="#763E1A" stroke-width="0.25" stroke-linecap="round" stroke-linejoin="round"/>
<path d="M2 5.96762L2.66461 9.15876L2.23957 9.47481L2.87326 9.95272L2.39413 10.3227L3.02009 10.8931L2.62596 11.1783L3.53014 12.2343L7.63373 11.0395L10.5394 8.5884L2.98918 3L2 5.96762Z" fill="#763E1A" stroke="#763E1A" stroke-width="0.25" stroke-linecap="round" stroke-linejoin="round"/>
<path d="M20.4699 12.2343L16.3664 11.0396L17.6029 12.9049L15.7559 16.5046L18.1979 16.4738H21.8455L20.4699 12.2343Z" fill="#F5841F" stroke="#F5841F" stroke-width="0.25" stroke-linecap="round" stroke-linejoin="round"/>
<path d="M7.63349 11.0396L3.52996 12.2343L2.16211 16.4738H5.80199L8.244 16.5046L6.39704 12.9049L7.63349 11.0396Z" fill="#F5841F" stroke="#F5841F" stroke-width="0.25" stroke-linecap="round" stroke-linejoin="round"/>
<path d="M13.1981 13.1053L13.4609 8.58828L14.651 5.37402H9.34961L10.5397 8.58828L10.8024 13.1053L10.9029 14.5235L10.9107 18.0307H13.0899L13.0977 14.5235L13.1981 13.1053Z" fill="#F5841F" stroke="#F5841F" stroke-width="0.25" stroke-linecap="round" stroke-linejoin="round"/>
<path d="M97.1237 12.0751C96.5503 11.6995 95.9185 11.4324 95.3204 11.0985C94.9325 10.8815 94.5193 10.6895 94.1826 10.414C93.6091 9.94657 93.7272 9.02841 94.3259 8.62773C95.1855 8.06013 96.6093 8.37726 96.7611 9.53758C96.7611 9.56257 96.7864 9.57932 96.8117 9.57932H98.1098C98.1435 9.57932 98.1688 9.55426 98.1604 9.52089C98.0929 8.71952 97.7809 8.05176 97.2081 7.62604C96.6599 7.21703 96.0365 7 95.3703 7C91.9407 7 91.6287 10.5977 93.4742 11.7329C93.685 11.8665 95.4968 12.7679 96.1377 13.1602C96.778 13.5526 96.9804 14.2704 96.7021 14.838C96.4491 15.3556 95.792 15.7145 95.1349 15.6728C94.4181 15.631 93.8621 15.2471 93.6682 14.6461C93.6344 14.5376 93.6176 14.3289 93.6176 14.2371C93.6176 14.212 93.5923 14.187 93.567 14.187H92.16C92.1347 14.187 92.1094 14.212 92.1094 14.2371C92.1094 15.2471 92.3624 15.8063 93.0532 16.3155C93.7019 16.7997 94.4096 17 95.1433 17C97.0647 17 98.0592 15.9232 98.2609 14.8047C98.438 13.7112 98.1097 12.7262 97.1237 12.0751Z" fill="#161616"/>
<path d="M36.0171 7.18372H35.3935H34.7109C34.6856 7.18372 34.6687 7.20041 34.6603 7.2171L33.5058 10.9901C33.4889 11.0402 33.4215 11.0402 33.4047 10.9901L32.2501 7.2171C32.2417 7.19206 32.2248 7.18372 32.1995 7.18372H31.517H30.8933H30.0506C30.0253 7.18372 30 7.20876 30 7.2338V16.8665C30 16.8915 30.0253 16.9166 30.0506 16.9166H31.4579C31.4832 16.9166 31.5085 16.8915 31.5085 16.8665V9.54597C31.5085 9.48754 31.5928 9.47923 31.6097 9.52929L32.7726 13.3273L32.8568 13.5944C32.8653 13.6194 32.8821 13.6278 32.9074 13.6278H33.9861C34.0114 13.6278 34.0282 13.6111 34.0367 13.5944L34.1209 13.3273L35.2839 9.52929C35.3008 9.47086 35.385 9.48754 35.385 9.54597V16.8665C35.385 16.8915 35.4103 16.9166 35.4356 16.9166H36.843C36.8682 16.9166 36.8935 16.8915 36.8935 16.8665V7.2338C36.8935 7.20876 36.8682 7.18372 36.843 7.18372H36.0171Z" fill="#161616"/>
<path d="M75.5774 7.18372C75.5521 7.18372 75.5352 7.20041 75.5268 7.2171L74.3727 10.9901C74.3559 11.0402 74.2884 11.0402 74.2715 10.9901L73.1169 7.2171C73.1084 7.19206 73.0916 7.18372 73.0663 7.18372H70.9256C70.9003 7.18372 70.875 7.20876 70.875 7.2338V16.8665C70.875 16.8915 70.9003 16.9166 70.9256 16.9166H72.3333C72.3586 16.9166 72.3839 16.8915 72.3839 16.8665V9.54597C72.3839 9.48754 72.4682 9.47923 72.485 9.52929L73.6475 13.3273L73.7318 13.5944C73.7403 13.6194 73.7571 13.6278 73.7824 13.6278H74.8612C74.8865 13.6278 74.9034 13.6111 74.9118 13.5944L74.9961 13.3273L76.1592 9.52929C76.1761 9.47086 76.2604 9.48754 76.2604 9.54597V16.8665C76.2604 16.8915 76.2857 16.9166 76.311 16.9166H77.718C77.7433 16.9166 77.7686 16.8915 77.7686 16.8665V7.2338C77.7686 7.20876 77.7433 7.18372 77.718 7.18372H75.5774Z" fill="#161616"/>
<path d="M57.4223 7.18372H54.8014H53.3941H50.7733C50.748 7.18372 50.7227 7.20876 50.7227 7.2338V8.43578C50.7227 8.46084 50.748 8.48589 50.7733 8.48589H53.3436V16.8665C53.3436 16.8915 53.3688 16.9166 53.3941 16.9166H54.8014C54.8267 16.9166 54.852 16.8915 54.852 16.8665V8.48589H57.4223C57.4476 8.48589 57.4729 8.46084 57.4729 8.43578V7.2338C57.4729 7.20876 57.4561 7.18372 57.4223 7.18372Z" fill="#161616"/>
<path d="M65.7251 16.9164H67.0056C67.0394 16.9164 67.0647 16.883 67.0562 16.8497L64.4102 7.18353C64.4018 7.15849 64.3849 7.15015 64.3596 7.15015H63.871H63.0114H62.5226C62.4973 7.15015 62.4804 7.16684 62.472 7.18353L59.8259 16.8497C59.8174 16.883 59.8427 16.9164 59.8765 16.9164H61.1574C61.1827 16.9164 61.1995 16.8997 61.208 16.883L61.9748 14.07C61.9832 14.045 62.0001 14.0366 62.0254 14.0366H64.8572C64.8825 14.0366 64.8993 14.0533 64.9078 14.07L65.6745 16.883C65.6829 16.8997 65.7082 16.9164 65.7251 16.9164ZM62.3624 12.6593L63.3906 8.8947C63.4074 8.84464 63.4749 8.84464 63.4917 8.8947L64.5198 12.6593C64.5283 12.6927 64.503 12.7261 64.4692 12.7261H62.413C62.3793 12.7261 62.3541 12.6927 62.3624 12.6593Z" fill="#161616"/>
<path d="M87.5668 16.9164H88.8474C88.8811 16.9164 88.9064 16.883 88.898 16.8497L86.2519 7.18353C86.2435 7.15849 86.2267 7.15015 86.2014 7.15015H85.7129H84.8534H84.3643C84.339 7.15015 84.3221 7.16684 84.3137 7.18353L81.6676 16.8497C81.6592 16.883 81.6845 16.9164 81.7182 16.9164H82.9994C83.0247 16.9164 83.0416 16.8997 83.05 16.883L83.8168 14.07C83.8252 14.045 83.8421 14.0366 83.8674 14.0366H86.6989C86.7242 14.0366 86.7411 14.0533 86.7495 14.07L87.5162 16.883C87.5247 16.8997 87.5415 16.9164 87.5668 16.9164ZM84.204 12.6593L85.2322 8.8947C85.2491 8.84464 85.3165 8.84464 85.3334 8.8947L86.3616 12.6593C86.37 12.6927 86.3447 12.7261 86.311 12.7261H84.2546C84.2209 12.7261 84.1956 12.6927 84.204 12.6593Z" fill="#161616"/>
<path d="M42.6081 15.4892V12.5008C42.6081 12.4758 42.6334 12.4508 42.6587 12.4508H46.4087C46.434 12.4508 46.4593 12.4257 46.4593 12.4007V11.1987C46.4593 11.1737 46.434 11.1486 46.4087 11.1486H42.6587C42.6334 11.1486 42.6081 11.1236 42.6081 11.0985V8.54429C42.6081 8.51923 42.6334 8.49417 42.6587 8.49417H46.9228C46.9481 8.49417 46.9734 8.46912 46.9734 8.44412V7.2421C46.9734 7.21706 46.9481 7.19202 46.9228 7.19202H42.6081H41.1502C41.1249 7.19202 41.0996 7.21706 41.0996 7.2421V8.49417V11.1569V12.4592V15.5476V16.8664C41.0996 16.8915 41.1249 16.9166 41.1502 16.9166H42.6081H47.0998C47.1251 16.9166 47.1504 16.8915 47.1504 16.8664V15.5977C47.1504 15.5727 47.1251 15.5476 47.0998 15.5476H42.6502C42.6249 15.5393 42.6081 15.5225 42.6081 15.4892Z" fill="#161616"/>
<path d="M109.985 16.8331L105.114 11.8498C105.097 11.8331 105.097 11.7997 105.114 11.783L109.496 7.27549C109.53 7.2421 109.505 7.19202 109.462 7.19202H107.667C107.651 7.19202 107.642 7.20037 107.634 7.20871L103.917 11.0318C103.884 11.0651 103.833 11.0401 103.833 10.9983V7.2421C103.833 7.21706 103.808 7.19202 103.782 7.19202H102.375C102.35 7.19202 102.324 7.21706 102.324 7.2421V16.8748C102.324 16.8999 102.35 16.9249 102.375 16.9249H103.782C103.808 16.9249 103.833 16.8999 103.833 16.8748V12.6344C103.833 12.5927 103.892 12.5676 103.917 12.601L108.131 16.9082C108.139 16.9166 108.156 16.9249 108.164 16.9249H109.959C109.993 16.9166 110.018 16.8581 109.985 16.8331Z" fill="#161616"/>
</svg>
