<svg width="80" height="24" viewBox="0 0 80 24" fill="none" xmlns="http://www.w3.org/2000/svg">
<g clip-path="url(#clip0)">
<path d="M22.228 8.02519C21.2416 7.15957 19.8771 5.83771 18.7657 4.90023L18.7 4.85648C18.5905 4.77297 18.4672 4.70748 18.335 4.66273C15.6553 4.18774 3.1839 1.97214 2.94059 2.00027C2.87241 2.00934 2.80725 2.03283 2.74989 2.06901L2.68742 2.11589C2.61049 2.19014 2.55207 2.27984 2.51644 2.37839L2.5 2.41901V2.64088V2.67526C3.90397 6.39083 9.44754 18.5625 10.5392 21.4188C10.6049 21.6125 10.7299 21.9812 10.9633 22H11.0159C11.1409 22 11.6735 21.3313 11.6735 21.3313C11.6735 21.3313 21.1955 10.3564 22.1589 9.18767C22.2836 9.04371 22.3937 8.88885 22.4877 8.72518C22.5117 8.59711 22.5004 8.46533 22.4549 8.34266C22.4094 8.21998 22.3312 8.11061 22.228 8.02519ZM14.1165 9.30329L18.1805 6.10021L20.5642 8.18768L14.1165 9.30329ZM12.5383 9.09392L5.5414 3.64399L16.862 5.62834L12.5383 9.09392ZM13.1695 10.522L20.3308 9.42517L12.1437 18.8L13.1695 10.522ZM4.59117 4.18774L11.953 10.1252L10.8877 18.8063L4.59117 4.18774Z" fill="#FF060A"/>
<path d="M29.33 8.348H32.648V7.074H24.64V8.348H27.958V17H29.33V8.348ZM36.8092 11.596V10.196C36.7392 10.182 36.5572 10.154 36.3752 10.154C35.6892 10.154 34.8492 10.406 34.3592 11.442V10.266H33.0712V17H34.3872V13.626C34.3872 12.142 35.1292 11.554 36.2352 11.554C36.4172 11.554 36.6132 11.568 36.8092 11.596ZM41.0274 10.056C39.0114 10.056 37.5834 11.582 37.5834 13.626C37.5834 15.684 39.0114 17.21 41.0274 17.21C43.0434 17.21 44.4714 15.684 44.4714 13.626C44.4714 11.582 43.0434 10.056 41.0274 10.056ZM41.0274 16.034C39.9074 16.034 38.9274 15.194 38.9274 13.626C38.9274 12.072 39.9074 11.232 41.0274 11.232C42.1474 11.232 43.1274 12.072 43.1274 13.626C43.1274 15.194 42.1474 16.034 41.0274 16.034ZM47.4712 17V13.108C47.4712 12.086 48.0032 11.26 49.0392 11.26C50.2152 11.26 50.6072 12.016 50.6072 12.954V17H51.9232V12.73C51.9232 11.232 51.1252 10.07 49.5152 10.07C48.7312 10.07 47.9332 10.392 47.4432 11.232V10.266H46.1552V17H47.4712ZM54.1565 17H60.2185V15.712H55.5285V7.074H54.1565V17ZM61.3924 7.718C61.3924 8.236 61.8124 8.656 62.3304 8.656C62.8624 8.656 63.2824 8.236 63.2824 7.718C63.2824 7.186 62.8624 6.766 62.3304 6.766C61.8124 6.766 61.3924 7.186 61.3924 7.718ZM61.6864 17H62.9884V10.266H61.6864V17ZM66.5434 17V13.108C66.5434 12.086 67.0754 11.26 68.1114 11.26C69.2874 11.26 69.6794 12.016 69.6794 12.954V17H70.9954V12.73C70.9954 11.232 70.1974 10.07 68.5874 10.07C67.8034 10.07 67.0054 10.392 66.5154 11.232V10.266H65.2274V17H66.5434ZM76.2528 13.108L79.1228 10.266H77.3028L74.3908 13.248V6.864H73.0888V17H74.3908V14.97L75.3288 14.032L77.5268 17H79.1788L76.2528 13.108Z" fill="#FF060A"/>
</g>
<defs>
<clipPath id="clip0">
<rect width="79" height="24" fill="white" transform="translate(0.5)"/>
</clipPath>
</defs>
</svg>
