<svg width="48" height="48" viewBox="0 0 48 48" fill="none" xmlns="http://www.w3.org/2000/svg">
<path d="M39.4146 47.1782C29.1486 48.2739 18.8514 48.2739 8.58545 47.1782C4.49194 46.7413 1.25867 43.5081 0.821777 39.4142C-0.273926 29.1482 -0.273926 18.8514 0.821777 8.58545C1.25867 4.49194 4.49194 1.25867 8.58545 0.821777C18.8514 -0.273926 29.1482 -0.273926 39.4142 0.821777C43.5081 1.25867 46.7413 4.49194 47.1782 8.58545C48.2739 18.8514 48.2739 29.1482 47.1782 39.4142C46.7413 43.5081 43.5084 46.7413 39.4146 47.1782Z" fill="#00ACF5"/>
<path d="M35.6462 16.4356C34.777 16.8184 33.8414 17.0767 32.8598 17.1922C33.862 16.5977 34.6306 15.656 34.993 14.5326C34.0556 15.0839 33.0178 15.4839 31.9123 15.6998C31.0277 14.7657 29.7667 14.1816 28.3714 14.1816C25.6925 14.1816 23.5205 16.3338 23.5205 18.9886C23.5205 19.3648 23.5632 19.7315 23.6462 20.084C19.6142 19.8833 16.0392 17.9699 13.6464 15.0615C13.2288 15.7711 12.9898 16.5968 12.9898 17.4786C12.9898 19.1461 13.8461 20.6176 15.1478 21.4794C14.353 21.4542 13.6046 21.2378 12.9504 20.8778C12.9499 20.8977 12.9499 20.9182 12.9499 20.9386C12.9499 23.2672 14.6222 25.2096 16.8418 25.6519C16.4347 25.7613 16.0061 25.8203 15.5635 25.8203C15.2506 25.8203 14.9467 25.7903 14.6506 25.7337C15.2683 27.6433 17.0597 29.0335 19.1822 29.072C17.5219 30.3614 15.4306 31.13 13.1573 31.13C12.7661 31.13 12.3797 31.1072 12 31.0625C14.1475 32.427 16.6973 33.2222 19.4366 33.2222C28.3603 33.2222 33.2396 25.8978 33.2396 19.5456C33.2396 19.3372 33.2352 19.1294 33.226 18.923C34.1736 18.2467 34.9964 17.3996 35.6462 16.4356Z" fill="white"/>
</svg>
