<svg width="49" height="48" viewBox="0 0 49 48" fill="none" xmlns="http://www.w3.org/2000/svg">
<path d="M39.5981 47.1782C29.3322 48.2739 19.035 48.2739 8.76904 47.1782C4.67554 46.7413 1.44226 43.5081 1.00537 39.4142C-0.090332 29.1482 -0.090332 18.8514 1.00537 8.58545C1.44226 4.49194 4.67554 1.25867 8.76904 0.821777C19.035 -0.273926 29.3318 -0.273926 39.5978 0.821777C43.6917 1.25867 46.9249 4.49194 47.3618 8.58545C48.4575 18.8514 48.4575 29.1482 47.3618 39.4142C46.9249 43.5081 43.692 46.7413 39.5981 47.1782Z" fill="#F4291D"/>
<path d="M16.1876 32.6487L16.1836 14.666L33.4769 23.6887L16.1876 32.6487Z" fill="white"/>
</svg>
