<svg width="652" height="189" viewBox="0 0 652 189" fill="none" xmlns="http://www.w3.org/2000/svg">
<mask id="mask0" mask-type="alpha" maskUnits="userSpaceOnUse" x="0" y="0" width="652" height="189">
<rect width="652" height="189" fill="#161F2C"/>
</mask>
<g mask="url(#mask0)">
<path opacity="0.24" d="M253 62.9836C253 52.8559 258.668 43.5799 267.68 38.9585L317.68 13.318C325.414 9.35156 334.586 9.35156 342.32 13.318L392.32 38.9585C401.332 43.5799 407 52.8559 407 62.9837V125.728C407 135.821 401.371 145.07 392.408 149.708L342.408 175.58C334.626 179.606 325.374 179.606 317.592 175.58L267.592 149.708C258.629 145.07 253 135.82 253 125.728V62.9836Z" fill="url(#paint0_linear)"/>
<path opacity="0.24" d="M79.0164 52C89.1441 52 98.4201 57.6678 103.042 66.6797L128.682 116.68C132.648 124.414 132.648 133.586 128.682 141.32L103.042 191.32C98.4201 200.332 89.1441 206 79.0163 206L16.2718 206C6.17949 206 -3.07025 200.371 -7.70822 191.408L-33.5797 141.408C-37.6064 133.626 -37.6064 124.374 -33.5797 116.592L-7.7082 66.592C-3.07023 57.6285 6.17951 52 16.2718 52L79.0164 52Z" fill="url(#paint1_linear)"/>
<path opacity="0.24" d="M652.934 250.556C643.151 253.178 632.724 250.104 625.928 242.595L588.22 200.935C582.387 194.49 580.013 185.632 581.843 177.134L593.669 122.201C595.8 112.3 603.293 104.425 613.076 101.804L673.682 85.5642C683.431 82.9521 693.822 85.9949 700.622 93.4525L738.553 135.053C744.456 141.527 746.851 150.464 744.976 159.023L732.927 214.016C730.767 223.874 723.289 231.705 713.541 234.317L652.934 250.556Z" fill="url(#paint2_linear)"/>
<path opacity="0.24" d="M259.934 294.556C250.151 297.178 239.724 294.104 232.928 286.595L195.22 244.935C189.387 238.49 187.013 229.632 188.843 221.134L200.669 166.201C202.8 156.3 210.293 148.425 220.076 145.804L280.682 129.564C290.431 126.952 300.822 129.995 307.622 137.453L345.553 179.053C351.456 185.527 353.851 194.464 351.976 203.023L339.927 258.016C337.767 267.874 330.289 275.705 320.541 278.317L259.934 294.556Z" fill="url(#paint3_linear)"/>
<path opacity="0.24" d="M483.483 79.8761C474.712 84.94 463.845 84.6696 455.337 79.1757L408.132 48.6947C400.829 43.9795 396.244 36.0369 395.811 27.3552L393.017 -28.7663C392.513 -38.8815 397.712 -48.4279 406.483 -53.4918L460.822 -84.8641C469.562 -89.9102 480.387 -89.6607 488.885 -84.2171L536.29 -53.8515C543.668 -49.1255 548.294 -41.113 548.698 -32.3603L551.293 23.8768C551.758 33.9584 546.562 43.4577 537.822 48.5038L483.483 79.8761Z" fill="url(#paint4_linear)"/>
<path opacity="0.24" d="M71.297 64C81.4442 64 90.7346 69.6893 95.3468 78.7278L114.738 116.728C118.671 124.436 118.671 133.564 114.738 141.272L95.3468 179.272C90.7346 188.311 81.4442 194 71.297 194L23.9343 194C13.8225 194 4.55824 188.35 -0.0706338 179.36L-19.6362 141.36C-23.6296 133.604 -23.6296 124.396 -19.6362 116.64L-0.0706329 78.6403C4.55824 69.6501 13.8225 64 23.9343 64L71.297 64Z" fill="url(#paint5_linear)"/>
<path opacity="0.24" d="M657.284 236.967C647.483 239.594 637.036 236.503 630.242 228.966L601.677 197.279C595.882 190.852 593.52 182.035 595.324 173.571L604.219 131.847C606.335 121.923 613.836 114.023 623.638 111.397L669.387 99.1386C679.154 96.5214 689.565 99.5813 696.363 107.067L725.097 138.708C730.962 145.166 733.345 154.06 731.495 162.585L722.431 204.355C720.287 214.236 712.8 222.092 703.033 224.709L657.284 236.967Z" fill="url(#paint6_linear)"/>
<path opacity="0.24" d="M264.284 280.967C254.483 283.594 244.036 280.503 237.242 272.966L208.677 241.279C202.882 234.852 200.52 226.035 202.324 217.571L211.219 175.847C213.335 165.923 220.836 158.023 230.638 155.397L276.387 143.139C286.154 140.521 296.565 143.581 303.363 151.067L332.097 182.708C337.962 189.166 340.345 198.06 338.495 206.585L329.431 248.355C327.287 258.236 319.8 266.092 310.033 268.709L264.284 280.967Z" fill="url(#paint7_linear)"/>
<path opacity="0.24" d="M216.934 47.5563C207.151 50.1775 196.724 47.1037 189.928 39.595L152.22 -2.06505C146.387 -8.50961 144.013 -17.3684 145.843 -25.8661L157.669 -80.7987C159.8 -90.6996 167.293 -98.575 177.076 -101.196L237.682 -117.436C247.431 -120.048 257.822 -117.005 264.622 -109.547L302.553 -67.9472C308.456 -61.4726 310.851 -52.5358 308.976 -43.9768L296.927 11.0155C294.767 20.874 287.289 28.7047 277.541 31.3168L216.934 47.5563Z" fill="url(#paint8_linear)"/>
<path opacity="0.24" d="M221.284 33.9673C211.483 36.5936 201.036 33.5027 194.242 25.9659L165.677 -5.72054C159.882 -12.1485 157.52 -20.9646 159.324 -29.4287L168.219 -71.1526C170.335 -81.0768 177.836 -88.9768 187.638 -91.6031L233.387 -103.861C243.154 -106.479 253.565 -103.419 260.363 -95.933L289.097 -64.2917C294.962 -57.8336 297.345 -48.9398 295.495 -40.4145L286.431 1.35456C284.287 11.2364 276.8 19.0918 267.033 21.7089L221.284 33.9673Z" fill="url(#paint9_linear)"/>
<path opacity="0.24" d="M484.169 65.6242C475.381 70.6978 464.49 70.4159 455.977 64.8945L420.184 41.681C412.923 36.9719 408.359 29.0675 407.912 20.4248L405.705 -22.1796C405.18 -32.3132 410.381 -41.8855 419.169 -46.9591L460.186 -70.6404C468.943 -75.6964 479.791 -75.4353 488.295 -69.9641L524.239 -46.8379C531.576 -42.1177 536.179 -34.1438 536.599 -25.4302L538.655 17.2615C539.141 27.3617 533.943 36.8869 525.186 41.9429L484.169 65.6242Z" fill="url(#paint10_linear)"/>
<g opacity="0.71" filter="url(#filter0_f)">
<path d="M-2.49182 -47.5168C2.57206 -56.2876 12.1185 -61.487 22.2337 -60.9833L78.3552 -58.1886C87.0369 -57.7563 94.9795 -53.1707 99.6947 -45.8683L130.176 1.33702C135.67 9.8452 135.94 20.7124 130.876 29.4833L99.5038 83.8216C94.4577 92.5618 84.9583 97.7581 74.8768 97.2929L18.6397 94.6983C9.88701 94.2945 1.87453 89.6685 -2.85155 82.2903L-33.2171 34.8849C-38.6607 26.3866 -38.9102 15.5618 -33.8641 6.82162L-2.49182 -47.5168Z" fill="url(#paint11_linear)"/>
</g>
<path opacity="0.62" d="M262.458 74.8486C261.747 64.7194 266.779 55.0478 275.482 49.8167L312.995 27.2683C320.401 22.8168 329.49 22.1788 337.446 25.5521L377.741 42.6387C387.089 46.6027 393.423 55.4765 394.134 65.6056L397.525 113.917C398.234 124.01 393.239 133.653 384.585 138.898L347.085 161.625C339.636 166.139 330.467 166.783 322.46 163.353L282.152 146.088C272.851 142.104 266.558 133.253 265.849 123.159L262.458 74.8486Z" fill="url(#paint12_linear)"/>
</g>
<defs>
<filter id="filter0_f" x="-114.481" y="-138.017" width="325.975" height="312.339" filterUnits="userSpaceOnUse" color-interpolation-filters="sRGB">
<feFlood flood-opacity="0" result="BackgroundImageFix"/>
<feBlend mode="normal" in="SourceGraphic" in2="BackgroundImageFix" result="shape"/>
<feGaussianBlur stdDeviation="38.5" result="effect1_foregroundBlur"/>
</filter>
<linearGradient id="paint0_linear" x1="293.5" y1="13" x2="316.702" y2="117.955" gradientUnits="userSpaceOnUse">
<stop stop-color="#1F3149"/>
<stop offset="1" stop-color="#1F3149" stop-opacity="0"/>
</linearGradient>
<linearGradient id="paint1_linear" x1="129" y1="92.5" x2="24.0447" y2="115.702" gradientUnits="userSpaceOnUse">
<stop stop-color="#1F3149"/>
<stop offset="1" stop-color="#1F3149" stop-opacity="0"/>
</linearGradient>
<linearGradient id="paint2_linear" x1="594.171" y1="224.373" x2="689.545" y2="174.797" gradientUnits="userSpaceOnUse">
<stop stop-color="#1F3149"/>
<stop offset="1" stop-color="#1F3149" stop-opacity="0"/>
</linearGradient>
<linearGradient id="paint3_linear" x1="201.171" y1="268.373" x2="296.545" y2="218.797" gradientUnits="userSpaceOnUse">
<stop stop-color="#1F3149"/>
<stop offset="1" stop-color="#1F3149" stop-opacity="0"/>
</linearGradient>
<linearGradient id="paint4_linear" x1="419.946" y1="69.7939" x2="499.239" y2="-2.77736" gradientUnits="userSpaceOnUse">
<stop stop-color="#1F3149"/>
<stop offset="1" stop-color="#1F3149" stop-opacity="0"/>
</linearGradient>
<linearGradient id="paint5_linear" x1="115.96" y1="98.1883" x2="27.7572" y2="117.591" gradientUnits="userSpaceOnUse">
<stop stop-color="#1F3149"/>
<stop offset="1" stop-color="#1F3149" stop-opacity="0"/>
</linearGradient>
<linearGradient id="paint6_linear" x1="605.295" y1="215.504" x2="685.47" y2="173.933" gradientUnits="userSpaceOnUse">
<stop stop-color="#1F3149"/>
<stop offset="1" stop-color="#1F3149" stop-opacity="0"/>
</linearGradient>
<linearGradient id="paint7_linear" x1="212.295" y1="259.504" x2="292.47" y2="217.933" gradientUnits="userSpaceOnUse">
<stop stop-color="#1F3149"/>
<stop offset="1" stop-color="#1F3149" stop-opacity="0"/>
</linearGradient>
<linearGradient id="paint8_linear" x1="158.171" y1="21.373" x2="253.545" y2="-28.2029" gradientUnits="userSpaceOnUse">
<stop stop-color="#1F3149"/>
<stop offset="1" stop-color="#1F3149" stop-opacity="0"/>
</linearGradient>
<linearGradient id="paint9_linear" x1="169.295" y1="12.5036" x2="249.47" y2="-29.0666" gradientUnits="userSpaceOnUse">
<stop stop-color="#1F3149"/>
<stop offset="1" stop-color="#1F3149" stop-opacity="0"/>
</linearGradient>
<linearGradient id="paint10_linear" x1="428.395" y1="58.3478" x2="495.08" y2="-2.55687" gradientUnits="userSpaceOnUse">
<stop stop-color="#1F3149"/>
<stop offset="1" stop-color="#1F3149" stop-opacity="0"/>
</linearGradient>
<linearGradient id="paint11_linear" x1="92.184" y1="-57.5" x2="4.68395" y2="94.0544" gradientUnits="userSpaceOnUse">
<stop stop-color="#F9A43F"/>
<stop offset="1" stop-color="#F9A43F" stop-opacity="0"/>
</linearGradient>
<linearGradient id="paint12_linear" x1="293.932" y1="27.4696" x2="319.78" y2="115.293" gradientUnits="userSpaceOnUse">
<stop stop-color="#1F3149"/>
<stop offset="1" stop-color="#1F3149" stop-opacity="0"/>
</linearGradient>
</defs>
</svg>
