<svg width="24" height="24" viewBox="0 0 24 24" fill="none" xmlns="http://www.w3.org/2000/svg">
<path d="M13.5226 1.205C13.5057 1.16718 13.4721 1.14197 13.4322 1.13567L12.4906 1.0012C12.4486 0.994892 12.4065 1.0138 12.3813 1.04742L12.23 1.37519V1.3941C12.6861 1.40461 13.1337 1.44033 13.573 1.50546L13.5226 1.205Z" fill="#DD3333"/>
<path d="M12.0996 1.3941L12.005 1.09785C11.984 1.06213 11.9461 1.04112 11.9062 1.04112L10.9562 1.03902C10.9142 1.03902 10.8742 1.06213 10.8553 1.09995L10.7502 1.44663L10.7523 1.46554C11.1622 1.41722 11.5762 1.3899 11.9987 1.3899C12.0323 1.3899 12.0659 1.392 12.0996 1.3941Z" fill="#DD3333"/>
<path d="M2.1959 7.20368C2.15597 7.20788 2.12024 7.23099 2.10132 7.26671L1.68307 8.11976C1.66415 8.15758 1.66836 8.2038 1.69358 8.23742L1.9584 8.48325L1.97942 8.48956C2.12865 8.06303 2.3052 7.64701 2.50697 7.2457L2.1959 7.20368Z" fill="#DD3333"/>
<path d="M3.40449 18.8081C3.37927 18.7745 3.37297 18.7325 3.38768 18.6947L3.56423 18.4383C3.83746 18.7976 4.13381 19.138 4.44908 19.4574L4.43647 19.47L4.10018 19.6002C4.05604 19.6086 4.01401 19.5918 3.98879 19.5582L3.40449 18.8081Z" fill="#DD3333"/>
<path d="M14.2392 22.6616C14.2665 22.691 14.3085 22.7036 14.3464 22.6973L15.2753 22.5019C15.3174 22.4935 15.3489 22.462 15.3615 22.422L15.3909 22.0606L15.3888 22.0543C14.9664 22.1972 14.5334 22.3149 14.0878 22.4052L14.2392 22.6616Z" fill="#DD3333"/>
<path d="M22.642 14.5681C22.6336 14.608 22.6042 14.6374 22.5642 14.65L22.2742 14.6689C22.3856 14.2382 22.4675 13.797 22.5243 13.3473H22.5285L22.8396 13.5322C22.8711 13.5616 22.8837 13.6058 22.8732 13.6457L22.642 14.5681Z" fill="#DD3333"/>
<path d="M19.0101 3.65701C19.0164 3.61708 19.0017 3.57716 18.9702 3.54985L18.243 2.93843C18.2115 2.91111 18.1652 2.90481 18.1253 2.91952L17.8226 3.11702L17.8163 3.12753C18.1925 3.37546 18.552 3.6465 18.8945 3.93855L19.0101 3.65701Z" fill="#DD3333"/>
<path d="M7.45465 2.02233C7.49249 2.00552 7.53452 2.00973 7.56815 2.03284L7.77623 2.26606C7.36218 2.44676 6.96074 2.65267 6.57611 2.88169L6.5656 2.86278L6.51936 2.50349C6.52147 2.46146 6.54879 2.42364 6.58662 2.40684L7.45465 2.02233Z" fill="#DD3333"/>
<path d="M6.85561 21.6131C6.85771 21.653 6.88083 21.6908 6.91656 21.7098L7.75517 22.1573C7.793 22.1762 7.83714 22.1741 7.87287 22.151L8.12719 21.8947L8.13139 21.882C7.71103 21.7182 7.30119 21.5291 6.90816 21.3126L6.85561 21.6131Z" fill="#DD3333"/>
<path d="M18.4973 20.8126C18.4636 20.8357 18.4216 20.842 18.3838 20.8252L18.1421 20.6487C18.5078 20.3881 18.8588 20.1066 19.1887 19.8019L19.1929 19.8061L19.3127 20.1465C19.3191 20.1885 19.3001 20.2306 19.2665 20.2558L18.4973 20.8126Z" fill="#DD3333"/>
<path d="M22.7304 10.12C22.7619 10.0927 22.7766 10.0528 22.7682 10.0129L22.6043 9.07786C22.598 9.03584 22.5665 9.00222 22.5265 8.98751L22.1671 8.94549L22.1629 8.94759C22.2911 9.37412 22.392 9.81115 22.4656 10.2587L22.7304 10.12Z" fill="#DD3333"/>
<path d="M14.9307 1.44243C14.9707 1.45504 15.0001 1.48445 15.0106 1.52437L15.0211 1.83113C14.5944 1.70507 14.1552 1.60211 13.7075 1.53068L13.7096 1.51597L13.9051 1.21131C13.9345 1.17979 13.9786 1.16718 14.0186 1.17979L14.9307 1.44243Z" fill="#DD3333"/>
<path d="M3.89623 4.69285C3.85629 4.68445 3.81426 4.69916 3.78904 4.72857L3.1522 5.43455C3.12487 5.46606 3.11437 5.51019 3.12908 5.55011L3.31614 5.85897L3.33715 5.87368C3.59777 5.50598 3.88151 5.1551 4.18417 4.82312L3.89623 4.69285Z" fill="#DD3333"/>
<path d="M1.85977 16.1796C1.84505 16.1418 1.84926 16.0977 1.87448 16.0662L2.11408 15.8687C2.28012 16.2889 2.46928 16.6986 2.68366 17.0915L2.66895 17.0999L2.30955 17.1335C2.26751 17.1293 2.22968 17.102 2.21497 17.0621L1.85977 16.1796Z" fill="#DD3333"/>
<path d="M11.1391 22.5733L11.2126 22.8696C11.2315 22.9053 11.2673 22.9305 11.3072 22.9326L12.2551 22.9998C12.2971 23.0019 12.3371 22.983 12.3602 22.9452L12.4884 22.6069V22.5964C12.3266 22.6048 12.1626 22.609 11.9987 22.609C11.7087 22.6111 11.4228 22.5964 11.1391 22.5733Z" fill="#DD3333"/>
<path d="M21.5219 17.4046C21.5009 17.4382 21.463 17.4613 21.4231 17.4613L21.1351 17.4025C21.3621 17.018 21.5681 16.6167 21.7468 16.2027H21.7489L21.9969 16.4654C22.02 16.5011 22.02 16.5473 21.999 16.583L21.5219 17.4046Z" fill="#DD3333"/>
<path d="M21.0363 5.9157C21.0531 5.87788 21.051 5.83585 21.0279 5.80224L20.4983 5.01432C20.4751 4.9786 20.4331 4.95969 20.3911 4.96389L20.0464 5.07105L20.038 5.07735C20.3301 5.41773 20.6034 5.77492 20.8514 6.15102L21.0363 5.9157Z" fill="#DD3333"/>
<path d="M10.3825 1.15877C10.4224 1.15247 10.4623 1.16928 10.4875 1.20079L10.6242 1.48024C10.1723 1.53907 9.72881 1.62312 9.29794 1.73658L9.29374 1.71977L9.34839 1.36258C9.3631 1.32266 9.39883 1.29534 9.44086 1.28904L10.3825 1.15877Z" fill="#DD3333"/>
<path d="M1.62439 8.61352C1.58445 8.62192 1.55293 8.65134 1.54032 8.68916L1.24607 9.59264C1.23346 9.63256 1.24396 9.67668 1.27339 9.7082L1.56974 9.91411L1.59076 9.91831C1.67903 9.47287 1.79883 9.03794 1.93965 8.61352H1.62439Z" fill="#DD3333"/>
<path d="M4.43435 19.9364C4.40493 19.9091 4.39442 19.8671 4.40282 19.8272L4.53944 19.5519C4.86101 19.8671 5.2015 20.1633 5.5588 20.4365L5.54829 20.4491L5.23302 20.6256C5.19099 20.6382 5.14685 20.6277 5.11743 20.5983L4.43435 19.9364Z" fill="#DD3333"/>
<path d="M15.702 22.2455C15.7335 22.2707 15.7755 22.2791 15.8134 22.2644L16.7066 21.9409C16.7465 21.9262 16.7739 21.8904 16.7802 21.8484L16.7592 21.487L16.757 21.4828C16.3577 21.6845 15.9437 21.861 15.517 22.0102L15.702 22.2455Z" fill="#DD3333"/>
<path d="M22.6148 11.8702L22.949 12.0089C22.9847 12.032 23.0036 12.0741 22.9994 12.1161L22.8986 13.0616C22.8944 13.1015 22.8691 13.1372 22.8313 13.154L22.5413 13.215C22.5875 12.8178 22.6127 12.4123 22.6127 12.0026C22.6127 11.9806 22.6117 11.9585 22.6106 11.9364C22.6096 11.9144 22.6085 11.8923 22.6085 11.8702H22.6148Z" fill="#DD3333"/>
<path d="M17.7806 2.76192C17.7806 2.722 17.7617 2.68418 17.726 2.66107L16.921 2.1568C16.8853 2.13369 16.839 2.13369 16.8033 2.1547L16.5322 2.39423L16.528 2.40473C16.9357 2.59804 17.3288 2.81655 17.7071 3.05818L17.7806 2.76192Z" fill="#DD3333"/>
<path d="M6.11169 2.74932C6.14532 2.72831 6.18946 2.72621 6.22519 2.74512L6.46269 2.94683C6.07806 3.18215 5.71025 3.44269 5.35925 3.72424L5.34454 3.70533L5.24996 3.35654C5.24786 3.31452 5.26888 3.2746 5.30461 3.25149L6.11169 2.74932Z" fill="#DD3333"/>
<path d="M1.14308 13.1204C1.10945 13.1456 1.09263 13.1834 1.09684 13.2234L1.19562 14.1689C1.19982 14.2109 1.22715 14.2466 1.26708 14.2634L1.62228 14.3307L1.6433 14.3265C1.54662 13.8915 1.47516 13.4461 1.43312 12.9922L1.14308 13.1204Z" fill="#DD3333"/>
<path d="M8.31849 22.3212C8.28066 22.3086 8.25333 22.2749 8.24493 22.235L8.25543 21.9283C8.67369 22.0858 9.10455 22.2161 9.54593 22.3212L9.54382 22.3338L9.32734 22.6237C9.29581 22.6531 9.25168 22.6616 9.21174 22.6468L8.31849 22.3212Z" fill="#DD3333"/>
<path d="M19.2876 19.7095L19.5503 19.8503C19.5902 19.8608 19.6323 19.8503 19.6596 19.823L20.3448 19.1632C20.3742 19.1338 20.3868 19.0897 20.3763 19.0498L20.2103 18.7283L20.2082 18.7262C19.9244 19.0729 19.6155 19.4006 19.2876 19.7095Z" fill="#DD3333"/>
<path d="M22.3877 8.53368C22.4003 8.5715 22.3919 8.61352 22.3645 8.64504L22.1291 8.81733C21.9925 8.3866 21.8286 7.96848 21.6415 7.56297L21.6457 7.56087L22.0072 7.55246C22.0493 7.56087 22.0829 7.59028 22.0955 7.6302L22.3877 8.53368Z" fill="#DD3333"/>
<path d="M2.8559 5.9388C2.87902 5.90519 2.91896 5.88628 2.95889 5.88838L3.26365 5.97662C3.00723 6.34642 2.77604 6.73303 2.56796 7.13434L2.54694 7.12383L2.31785 6.84438C2.29893 6.80656 2.30103 6.76244 2.32415 6.72672L2.8559 5.9388Z" fill="#DD3333"/>
<path d="M2.53866 17.434C2.51974 17.4697 2.51974 17.5117 2.53866 17.5474L3.01156 18.3711C3.03257 18.4068 3.07251 18.4299 3.11454 18.4278L3.46764 18.3438L3.48235 18.3333C3.21333 17.974 2.96952 17.5937 2.74883 17.2008L2.53866 17.434Z" fill="#DD3333"/>
<path d="M12.8373 22.9221C12.7974 22.9242 12.7575 22.9053 12.7343 22.8717L12.6208 22.5922C13.0769 22.567 13.5225 22.5103 13.9597 22.4283L13.9618 22.4367L13.8819 22.7897C13.8651 22.8275 13.8273 22.8549 13.7852 22.857L12.8373 22.9221Z" fill="#DD3333"/>
<path d="M22.0915 16.0956C22.1314 16.0893 22.1651 16.062 22.1798 16.0262L22.5371 15.1459C22.5539 15.106 22.5455 15.0618 22.5182 15.0282L22.2365 14.8013H22.2344C22.1146 15.2383 21.9696 15.6628 21.7994 16.0746L22.0915 16.0956Z" fill="#DD3333"/>
<path d="M20.1031 4.71596L19.9517 4.9765C19.6533 4.64032 19.3338 4.32305 18.9954 4.02469L19.0038 4.01629L19.3317 3.86081C19.3738 3.8524 19.4179 3.86501 19.4452 3.89652L20.08 4.6046C20.1052 4.63401 20.1157 4.67604 20.1031 4.71596Z" fill="#DD3333"/>
<path d="M8.99939 1.51597C8.96996 1.48866 8.92793 1.47815 8.88799 1.48866L7.97372 1.7492C7.93379 1.7618 7.90226 1.79332 7.89385 1.83534L7.88965 2.19673L7.89596 2.21354C8.3079 2.04125 8.73456 1.89417 9.17173 1.77441L8.99939 1.51597Z" fill="#DD3333"/>
<path d="M1.18088 10.1768C1.18929 10.1368 1.21661 10.1032 1.25444 10.0885L1.56761 10.0465C1.48564 10.4856 1.42889 10.931 1.40367 11.387L1.38055 11.3849L1.05688 11.2231C1.02325 11.1958 1.00643 11.1538 1.01484 11.1117L1.18088 10.1768Z" fill="#DD3333"/>
<path d="M1.39941 11.5152L1.09465 11.6013C1.05892 11.6202 1.0358 11.658 1.0358 11.6979L1.00007 12.6477C0.997969 12.6897 1.02109 12.7296 1.05682 12.7506L1.39941 12.8662L1.42463 12.8641C1.40151 12.5783 1.3868 12.2926 1.3868 12.0005C1.3868 11.8387 1.391 11.6769 1.39941 11.5152Z" fill="#DD3333"/>
<path d="M5.61341 20.9092C5.58188 20.8861 5.56297 20.8462 5.56717 20.8063L5.66175 20.5142C6.02115 20.7811 6.39947 21.0269 6.79251 21.2475L6.7862 21.2601L6.49826 21.4786C6.46042 21.4975 6.41419 21.4933 6.38056 21.4681L5.61341 20.9092Z" fill="#DD3333"/>
<path d="M17.0933 21.6299C17.129 21.6509 17.1711 21.653 17.2068 21.6341L18.0475 21.1887C18.0853 21.1698 18.1085 21.1299 18.1085 21.0878L18.037 20.7327L18.0349 20.7285C17.6671 20.9828 17.2804 21.216 16.881 21.4219L17.0933 21.6299Z" fill="#DD3333"/>
<path d="M22.9383 11.532C22.9404 11.5719 22.9194 11.6097 22.8858 11.6328L22.6063 11.7337C22.5936 11.2777 22.5579 10.8302 22.4907 10.3911H22.4928L22.8417 10.4835C22.8816 10.5024 22.9047 10.5402 22.9068 10.5823L22.9383 11.532Z" fill="#DD3333"/>
<path d="M16.4377 2.04544C16.4335 2.00552 16.4082 1.9698 16.3704 1.95299L15.5024 1.56429C15.4645 1.54748 15.4183 1.55168 15.3847 1.579L15.1493 1.85214L15.1472 1.86265C15.5801 1.99712 15.9984 2.161 16.4061 2.3459L16.4377 2.04544Z" fill="#DD3333"/>
<path d="M4.99345 3.63808L5.25828 3.80407C4.91148 4.08982 4.58361 4.40079 4.27675 4.72646L4.25783 4.70965L4.11491 4.37768C4.1065 4.33565 4.12121 4.29363 4.15274 4.26632L4.88206 3.65909C4.91148 3.63178 4.95562 3.62548 4.99345 3.63808Z" fill="#DD3333"/>
<path d="M1.40566 14.6185C1.37624 14.6479 1.36573 14.6878 1.37414 14.7278L1.60323 15.6501C1.61374 15.6901 1.64526 15.7237 1.6873 15.7342L2.04881 15.751L2.06772 15.7447C1.91009 15.3266 1.77978 14.8958 1.67469 14.4525L1.40566 14.6185Z" fill="#DD3333"/>
<path d="M9.78977 22.7309C9.75194 22.7225 9.71831 22.6931 9.7057 22.6553L9.67207 22.3548C10.1071 22.4514 10.5527 22.5229 11.0046 22.5649V22.5754L10.8302 22.8927C10.8028 22.9242 10.7608 22.9389 10.7188 22.9305L9.78977 22.7309Z" fill="#DD3333"/>
<path d="M20.5718 18.7199C20.6118 18.7241 20.6517 18.7094 20.6769 18.6779L21.2633 17.9299C21.2885 17.8962 21.2948 17.8521 21.278 17.8122L21.0699 17.5159H21.0678C20.8324 17.9004 20.5739 18.2681 20.2923 18.6169L20.5718 18.7199Z" fill="#DD3333"/>
<path d="M21.8035 7.11964C21.8203 7.15535 21.8182 7.19948 21.7951 7.23309L21.5828 7.439C21.3894 7.03139 21.1666 6.64058 20.9249 6.26448L20.9312 6.26028L21.2885 6.20145C21.3306 6.20355 21.3684 6.22876 21.3873 6.26658L21.8035 7.11964Z" fill="#DD3333"/>
<path d="M11.9984 1.38989C6.13652 1.38989 1.3844 6.14051 1.3844 12.0005C1.3844 17.8605 6.13652 22.6111 11.9984 22.6111C17.8602 22.6111 22.6123 17.8605 22.6123 12.0005C22.6123 6.14051 17.8602 1.38989 11.9984 1.38989Z" fill="url(#paint0_radial)"/>
<g opacity="0.1">
<path d="M4.76634 9.93931C4.79996 10.0002 4.86512 10.0444 4.94078 10.0444C5.01645 10.0444 5.0816 10.0023 5.11523 9.93931H5.23293C5.26656 10.0002 5.33171 10.0444 5.40738 10.0444C5.51667 10.0444 5.60494 9.95612 5.60494 9.84686C5.60494 9.80064 5.59023 9.76072 5.56291 9.725C6.24809 7.85291 7.74876 6.35272 9.62144 5.66775C9.65507 5.69297 9.695 5.70767 9.74124 5.70767C9.85053 5.70767 9.93881 5.61943 9.93881 5.51017C9.93881 5.43453 9.89677 5.36939 9.83372 5.33578V5.21811C9.89467 5.1845 9.93881 5.11936 9.93881 5.04372C9.93881 4.96808 9.89677 4.90295 9.83372 4.86933V4.49113L9.71392 4.52685C8.46756 4.89665 7.3221 5.58161 6.39731 6.504C5.47253 7.42848 4.78945 8.57569 4.41954 9.81955L4.38381 9.93931H4.76634ZM7.01313 7.11962C6.29853 7.834 5.74156 8.70596 5.39266 9.65146C5.32331 9.65566 5.26446 9.69769 5.23293 9.75442H5.11523C5.11103 9.74601 5.10472 9.73971 5.10052 9.7313C5.82353 7.60498 7.50075 5.93039 9.62564 5.20551C9.63195 5.20971 9.64035 5.21601 9.64876 5.22022V5.33788C9.58991 5.3694 9.54998 5.43033 9.54577 5.49966C8.59997 5.84635 7.72774 6.40314 7.01313 7.11962ZM9.64876 4.74116V4.87143C9.58991 4.90295 9.54788 4.96598 9.54577 5.03742C7.38094 5.78121 5.6764 7.48732 4.93238 9.65146C4.86091 9.65566 4.79996 9.69558 4.76844 9.75442H4.63602C5.38846 7.35705 7.25063 5.49546 9.64876 4.74116Z" fill="black" fill-opacity="0.4"/>
<path d="M4.4006 10.3427H5.5839C5.61753 10.4037 5.68269 10.4478 5.75835 10.4478C5.86764 10.4478 5.95592 10.3595 5.95592 10.2503C5.95592 10.1935 5.9307 10.141 5.89286 10.1053C6.2838 8.89716 7.03833 7.8361 8.01986 7.06079C8.04508 7.0713 8.07241 7.0776 8.09973 7.0776C8.20902 7.0776 8.2973 6.98935 8.2973 6.88009C8.2973 6.87169 8.2973 6.86329 8.29519 6.85278C8.81433 6.48719 9.38812 6.19513 9.99974 5.99763C10.0355 6.03545 10.0859 6.06066 10.1448 6.06066C10.254 6.06066 10.3423 5.97241 10.3423 5.86316C10.3423 5.78752 10.3003 5.72238 10.2372 5.68876V4.50584C10.2372 4.45541 10.1952 4.41339 10.1448 4.41339C10.0943 4.41339 10.0523 4.45541 10.0523 4.50584V5.68876C10.0039 5.71608 9.96611 5.7623 9.9535 5.81903C9.32296 6.02074 8.72606 6.3191 8.1859 6.7015C8.16068 6.68889 8.13336 6.68259 8.10183 6.68259C7.99254 6.68259 7.90426 6.77084 7.90426 6.88009C7.90426 6.8906 7.90426 6.899 7.90637 6.90741C7.70249 7.06709 7.50703 7.24149 7.32207 7.42638C6.58435 8.16387 6.03158 9.07155 5.71421 10.0591C5.65957 10.0717 5.61333 10.1095 5.58601 10.1578H4.4006C4.35016 10.1578 4.30813 10.1999 4.30813 10.2503C4.30813 10.3007 4.35016 10.3427 4.4006 10.3427Z" fill="black" fill-opacity="0.4"/>
<path d="M4.31445 10.7461H5.89709C5.93071 10.8071 5.99587 10.8512 6.07153 10.8512C6.18083 10.8512 6.2691 10.7629 6.2691 10.6537C6.2691 10.6054 6.25019 10.5591 6.22076 10.5255C6.24808 10.4205 6.27961 10.3154 6.31534 10.2104C6.71888 8.98541 7.52806 7.90544 8.59577 7.17005C9.15484 6.78554 9.76856 6.50189 10.4201 6.3275C10.4537 6.35692 10.5 6.37373 10.5483 6.37373C10.6576 6.37373 10.7459 6.28548 10.7459 6.17622C10.7459 6.10058 10.7038 6.03545 10.6408 6.00183V4.41969C10.6408 4.36926 10.5988 4.32724 10.5483 4.32724C10.4979 4.32724 10.4558 4.36926 10.4558 4.41969V6.00183C10.4012 6.03124 10.3613 6.08797 10.3529 6.15311C9.68869 6.3338 9.06236 6.62376 8.49278 7.01667C7.39145 7.77517 6.55704 8.88876 6.14089 10.1515C6.10726 10.2524 6.07784 10.3553 6.04841 10.4583C5.98326 10.4667 5.92861 10.5066 5.89919 10.5612H4.31445C4.26401 10.5612 4.22197 10.6033 4.22197 10.6537C4.22197 10.7062 4.26401 10.7461 4.31445 10.7461Z" fill="black" fill-opacity="0.4"/>
<path d="M4.25141 11.1496H6.2439C6.27752 11.2105 6.34268 11.2546 6.41834 11.2546C6.52764 11.2546 6.61591 11.1664 6.61591 11.0571C6.61591 11.0109 6.5991 10.9668 6.57177 10.9331C6.72941 10.1788 7.04467 9.48127 7.47764 8.87195C7.49025 8.87405 7.50286 8.87615 7.51547 8.87615C7.62476 8.87615 7.71304 8.7879 7.71304 8.67865C7.71304 8.66184 7.71094 8.64503 7.70673 8.63032C7.81602 8.63032 7.9022 8.54207 7.9022 8.43282C7.9022 8.4076 7.89799 8.38449 7.88959 8.36348C8.65463 7.52303 9.6782 6.91791 10.8279 6.67839C10.8615 6.7057 10.9035 6.72041 10.9498 6.72041C11.0591 6.72041 11.1473 6.63216 11.1473 6.52291C11.1473 6.44727 11.1053 6.38213 11.0422 6.34851V4.35876C11.0422 4.30833 11.0002 4.26631 10.9498 4.26631C10.8993 4.26631 10.8573 4.30833 10.8573 4.35876V6.34851C10.8005 6.37793 10.7606 6.43466 10.7543 6.50189C9.6866 6.73302 8.71348 7.2604 7.93583 8.03991C7.87067 8.10504 7.80762 8.17018 7.74667 8.23741C7.73405 8.23531 7.71934 8.23321 7.70673 8.23321C7.59744 8.23321 7.50916 8.32146 7.50916 8.43072C7.50916 8.44752 7.51127 8.46433 7.51547 8.47904C7.40618 8.47904 7.32 8.56729 7.32 8.67654C7.32 8.70176 7.32421 8.72487 7.33262 8.74798C6.87863 9.37832 6.56126 10.0927 6.39733 10.8575C6.33217 10.8638 6.27542 10.9058 6.2439 10.9605H4.25351C4.20307 10.9605 4.16104 11.0025 4.16104 11.0529C4.15893 11.1075 4.20097 11.1496 4.25141 11.1496Z" fill="black" fill-opacity="0.4"/>
<path d="M4.20942 11.553H6.65379C6.68742 11.6139 6.75257 11.658 6.82824 11.658C6.93753 11.658 7.0258 11.5698 7.0258 11.4605C7.0258 11.3954 6.99428 11.3387 6.94594 11.3029C6.97536 11.1138 7.01319 10.9268 7.06153 10.7461C7.15821 10.7335 7.23388 10.6516 7.23388 10.5507C7.23388 10.4919 7.20866 10.4394 7.16662 10.4016C7.77193 8.64293 9.30413 7.33814 11.1978 7.05449C11.2336 7.10281 11.2903 7.13223 11.3555 7.13223C11.4648 7.13223 11.553 7.04398 11.553 6.93472C11.553 6.85908 11.511 6.79395 11.4479 6.76033V4.29573C11.4479 4.2453 11.4059 4.20328 11.3555 4.20328C11.305 4.20328 11.263 4.2453 11.263 4.29573V6.76033C11.2188 6.78344 11.1873 6.82126 11.1705 6.86959C10.0692 7.03768 9.0372 7.55875 8.24483 8.34877C7.67735 8.91607 7.24859 9.60734 6.99007 10.3574C6.906 10.3805 6.84295 10.4562 6.84295 10.5486C6.84295 10.5991 6.86186 10.6432 6.89129 10.6789C6.83664 10.8743 6.79461 11.0739 6.76518 11.2756C6.71894 11.2924 6.68111 11.326 6.65799 11.3681H4.20942C4.15898 11.3681 4.11694 11.4101 4.11694 11.4605C4.11694 11.5109 4.15898 11.553 4.20942 11.553Z" fill="black" fill-opacity="0.4"/>
<path d="M15.4538 14.7151C15.4623 14.7172 15.4728 14.7172 15.4812 14.7172C15.5905 14.7172 15.6787 14.629 15.6787 14.5197C15.6787 14.4861 15.6703 14.4546 15.6556 14.4273C16.0928 13.7444 16.3471 12.9355 16.3471 12.0677C16.3471 9.64936 14.3798 7.68062 11.9607 7.68062C11.0948 7.68062 10.2856 7.93275 9.60461 8.36768C9.57518 8.35087 9.54155 8.34247 9.50582 8.34247C9.39653 8.34247 9.30826 8.43072 9.30826 8.53997C9.30826 8.55258 9.30826 8.56309 9.31036 8.57359C8.25527 9.37621 7.57219 10.6432 7.57219 12.0698C7.57219 12.9376 7.8244 13.7444 8.25947 14.4252C8.24266 14.4546 8.23425 14.4861 8.23425 14.5218C8.23425 14.6311 8.32252 14.7193 8.43182 14.7193C8.44233 14.7193 8.45283 14.7193 8.46334 14.7172C8.70505 15.0366 8.99089 15.3224 9.31036 15.564C9.31036 15.5724 9.30826 15.5808 9.30826 15.5913C9.30826 15.7006 9.39653 15.7888 9.50582 15.7888C9.53945 15.7888 9.57098 15.7804 9.5983 15.7657C10.2814 16.2027 11.0906 16.457 11.9607 16.457C13.3857 16.4528 14.6531 15.7699 15.4538 14.7151ZM11.9607 16.2658C11.1305 16.2658 10.3549 16.0241 9.70339 15.606C9.70339 15.5997 9.70339 15.5934 9.70339 15.585C9.70339 15.4757 9.61512 15.3875 9.50582 15.3875C9.4743 15.3875 9.44487 15.3959 9.41965 15.4085C9.11489 15.1774 8.84376 14.9042 8.61047 14.5996C8.62098 14.5744 8.62728 14.5471 8.62728 14.5176C8.62728 14.4084 8.53901 14.3201 8.42971 14.3201C8.42551 14.3201 8.41921 14.3201 8.415 14.3201C7.99885 13.6688 7.75504 12.8935 7.75504 12.0635C7.75504 10.6978 8.4108 9.48337 9.42175 8.71437C9.44697 8.72487 9.4743 8.73117 9.50162 8.73117C9.61091 8.73117 9.69919 8.64293 9.69919 8.53367C9.69919 8.52947 9.69919 8.52526 9.69919 8.52106C10.3507 8.10504 11.1263 7.86131 11.9565 7.86131C14.2727 7.86131 16.1579 9.74601 16.1579 12.0614C16.1579 12.8914 15.9162 13.6667 15.498 14.318C15.4917 14.318 15.4854 14.318 15.4791 14.318C15.3698 14.318 15.2815 14.4063 15.2815 14.5155C15.2815 14.5471 15.2878 14.5744 15.3004 14.6017C14.5375 15.6144 13.3226 16.2658 11.9607 16.2658Z" fill="black" fill-opacity="0.4"/>
<path d="M19.1488 14.192C19.1151 14.131 19.05 14.0869 18.9743 14.0869C18.8987 14.0869 18.8335 14.1289 18.7999 14.192H18.6822C18.6485 14.131 18.5834 14.0869 18.5077 14.0869C18.3984 14.0869 18.3102 14.1752 18.3102 14.2844C18.3102 14.3327 18.327 14.3748 18.3543 14.4105C17.6691 16.2784 16.1727 17.7744 14.3042 18.4614C14.2705 18.4341 14.2264 18.4152 14.1781 18.4152C14.0688 18.4152 13.9805 18.5034 13.9805 18.6127C13.9805 18.6883 14.0225 18.7535 14.0856 18.7871V18.9048C14.0246 18.9384 13.9805 19.0035 13.9805 19.0791C13.9805 19.1548 14.0225 19.2199 14.0856 19.2535V19.6422L14.2054 19.6065C15.4517 19.2367 16.5972 18.5518 17.522 17.6294C18.4468 16.7049 19.1299 15.5577 19.4998 14.3138L19.5355 14.1941H19.4115L19.1488 14.192ZM16.9083 17.0138C17.6229 16.2994 18.1799 15.4253 18.5287 14.4819C18.596 14.4756 18.6528 14.4357 18.6843 14.379H18.802C18.8083 14.3895 18.8125 14.3979 18.8209 14.4063C18.0979 16.5284 16.4249 18.2009 14.3042 18.9237C14.2958 18.9174 14.2853 18.9111 14.2748 18.9048V18.7871C14.3315 18.7577 14.3714 18.7009 14.3777 18.6337C15.3193 18.2849 16.1916 17.7281 16.9083 17.0138ZM14.2726 19.3901V19.2514C14.3294 19.2199 14.3693 19.1632 14.3756 19.0939C16.5405 18.3501 18.2471 16.644 18.989 14.4798C19.0584 14.4735 19.1172 14.4336 19.1467 14.3769H19.2854C18.5308 16.7742 16.6687 18.6358 14.2726 19.3901Z" fill="black" fill-opacity="0.4"/>
<path d="M19.5187 13.7886H18.3291C18.2955 13.7276 18.2303 13.6835 18.1546 13.6835C18.0454 13.6835 17.9571 13.7717 17.9571 13.881C17.9571 13.9398 17.9823 13.9924 18.0243 14.0281C17.8268 14.6395 17.5367 15.211 17.1689 15.7279C17.1584 15.7258 17.1479 15.7258 17.1374 15.7258C17.0281 15.7258 16.9398 15.814 16.9398 15.9233C16.9398 15.9548 16.9461 15.9821 16.9587 16.0094C16.1832 16.9885 15.126 17.7407 13.9217 18.1315C13.8859 18.0895 13.8313 18.0622 13.7724 18.0622C13.6631 18.0622 13.5749 18.1505 13.5749 18.2597C13.5749 18.3354 13.6169 18.4005 13.68 18.4341V19.6233C13.68 19.6738 13.722 19.7158 13.7724 19.7158C13.8229 19.7158 13.8649 19.6738 13.8649 19.6233V18.4341C13.9112 18.4089 13.9469 18.3648 13.9616 18.3122C14.9494 17.995 15.8574 17.4424 16.5951 16.7028C16.7801 16.5179 16.9524 16.3225 17.1122 16.1187C17.1206 16.1187 17.1269 16.1208 17.1353 16.1208C17.2446 16.1208 17.3328 16.0325 17.3328 15.9233C17.3328 15.896 17.3265 15.8687 17.316 15.8455C17.7007 15.3014 17.9991 14.7025 18.203 14.0701C18.2555 14.0554 18.2997 14.0197 18.3249 13.9735H19.5145C19.5649 13.9735 19.607 13.9314 19.607 13.881C19.6133 13.8306 19.5712 13.7886 19.5187 13.7886Z" fill="black" fill-opacity="0.4"/>
<path d="M19.6049 13.3851H18.0159C17.9823 13.3242 17.9172 13.2801 17.8415 13.2801C17.7322 13.2801 17.6439 13.3683 17.6439 13.4776C17.6439 13.528 17.6628 13.5742 17.6965 13.61C17.6692 13.715 17.6376 13.818 17.604 13.9209C17.2005 15.1459 16.3913 16.2258 15.3236 16.9612C14.7666 17.3457 14.155 17.6273 13.5055 17.8017C13.4698 17.7681 13.4236 17.7491 13.371 17.7491C13.2617 17.7491 13.1735 17.8374 13.1735 17.9466C13.1735 18.0223 13.2155 18.0874 13.2785 18.121V19.7095C13.2785 19.7599 13.3206 19.8019 13.371 19.8019C13.4215 19.8019 13.4635 19.7599 13.4635 19.7095V18.121C13.516 18.0916 13.556 18.0412 13.5644 17.9782C14.2306 17.7975 14.8549 17.5075 15.4266 17.1146C16.5279 16.3561 17.3623 15.2425 17.7784 13.9797C17.8121 13.8789 17.8415 13.7759 17.8709 13.673C17.934 13.6625 17.9865 13.6247 18.0138 13.5721H19.6028C19.6532 13.5721 19.6953 13.5301 19.6953 13.4797C19.6995 13.4272 19.6553 13.3851 19.6049 13.3851Z" fill="black" fill-opacity="0.4"/>
<path d="M19.6679 12.9817H17.6712C17.6376 12.9208 17.5724 12.8767 17.4968 12.8767C17.3875 12.8767 17.2992 12.9649 17.2992 13.0742C17.2992 13.1225 17.3181 13.1687 17.3475 13.2023C17.1058 14.3516 16.5005 15.3728 15.6619 16.1355C15.6388 16.125 15.6136 16.1208 15.5884 16.1208C15.4791 16.1208 15.3908 16.209 15.3908 16.3183C15.3908 16.333 15.3929 16.3498 15.3971 16.3645C14.7371 16.8919 13.9532 17.2722 13.0999 17.4529C13.0641 17.4235 13.02 17.4046 12.9717 17.4046C12.8624 17.4046 12.7741 17.4928 12.7741 17.6021C12.7741 17.6777 12.8161 17.7428 12.8792 17.7765V19.7746C12.8792 19.825 12.9212 19.8671 12.9717 19.8671C13.0221 19.8671 13.0641 19.825 13.0641 19.7746V17.7765C13.1188 17.747 13.1566 17.6924 13.1671 17.6294C14.033 17.4424 14.8359 17.06 15.5253 16.5053C15.5463 16.5116 15.5673 16.5158 15.5905 16.5158C15.6998 16.5158 15.788 16.4275 15.788 16.3183C15.788 16.3057 15.7859 16.2931 15.7838 16.2826C15.8532 16.2195 15.9204 16.1544 15.9877 16.0893C16.7675 15.3098 17.2971 14.3369 17.5262 13.2696C17.5893 13.2612 17.6439 13.2212 17.6733 13.1666H19.67C19.7205 13.1666 19.7625 13.1246 19.7625 13.0742C19.7604 13.0237 19.7205 12.9817 19.6679 12.9817Z" fill="black" fill-opacity="0.4"/>
<path d="M19.71 12.5783H17.2593C17.2257 12.5174 17.1605 12.4733 17.0848 12.4733C16.9755 12.4733 16.8873 12.5615 16.8873 12.6708C16.8873 12.738 16.9209 12.7968 16.9713 12.8325C16.6855 14.7235 15.3845 16.2511 13.6274 16.8583C13.5917 16.8142 13.537 16.7847 13.474 16.7847C13.371 16.7847 13.2869 16.8646 13.2785 16.9633C13.0978 17.0117 12.9149 17.0495 12.7258 17.0789C12.69 17.0285 12.6312 16.9927 12.5639 16.9927C12.4546 16.9927 12.3664 17.081 12.3664 17.1903C12.3664 17.2659 12.4084 17.331 12.4714 17.3646V19.8355C12.4714 19.886 12.5135 19.928 12.5639 19.928C12.6144 19.928 12.6564 19.886 12.6564 19.8355V17.3646C12.6963 17.3436 12.73 17.3058 12.7468 17.2638C12.9506 17.2323 13.1524 17.1902 13.35 17.1356C13.3836 17.1629 13.4277 17.1797 13.474 17.1797C13.5623 17.1797 13.64 17.1188 13.6631 17.039C14.4156 16.7805 15.1071 16.3519 15.6745 15.7846C16.4669 14.9925 16.9882 13.9587 17.1563 12.8557C17.2004 12.8388 17.2362 12.8073 17.2593 12.7653H19.71C19.7604 12.7653 19.8024 12.7233 19.8024 12.6729C19.8024 12.6203 19.7604 12.5783 19.71 12.5783Z" fill="black" fill-opacity="0.4"/>
<path d="M11.9607 8.11345C9.78117 8.11345 8.00727 9.88679 8.00727 12.0656C8.00727 14.2445 9.78117 16.0178 11.9607 16.0178C14.1403 16.0178 15.9142 14.2445 15.9142 12.0656C15.9121 9.88679 14.1403 8.11345 11.9607 8.11345ZM11.9607 15.8329C9.88416 15.8329 8.19433 14.1436 8.19433 12.0677C8.19433 9.99184 9.88416 8.30045 11.9607 8.30045C14.0373 8.30045 15.7271 9.98974 15.7271 12.0677C15.7271 14.1436 14.0373 15.8329 11.9607 15.8329Z" fill="black" fill-opacity="0.4"/>
<path d="M11.9607 8.54838C10.7228 8.54838 9.63406 9.18922 9.00773 10.1578C9.00353 10.1578 8.99933 10.1578 8.99512 10.1578C8.88583 10.1578 8.79756 10.2461 8.79756 10.3553C8.79756 10.3953 8.81017 10.4331 8.83118 10.4646C8.58528 10.9457 8.44446 11.4899 8.44446 12.0656C8.44446 12.6392 8.58317 13.1834 8.82908 13.6625C8.81017 13.694 8.79756 13.7297 8.79756 13.7696C8.79756 13.8789 8.88583 13.9671 8.99512 13.9671C8.99723 13.9671 9.00143 13.9671 9.00353 13.9671C9.27466 14.3895 9.63406 14.7488 10.0544 15.0198C10.0544 15.024 10.0544 15.0282 10.0544 15.0324C10.0544 15.1417 10.1427 15.2299 10.252 15.2299C10.2919 15.2299 10.3298 15.2173 10.3613 15.1963C10.8426 15.4421 11.3869 15.5829 11.9628 15.5829C12.5387 15.5829 13.081 15.4442 13.5602 15.1984C13.5917 15.2194 13.6274 15.2299 13.6674 15.2299C13.7767 15.2299 13.8649 15.1417 13.8649 15.0324C13.8649 15.0282 13.8649 15.0261 13.8649 15.0219C14.836 14.3958 15.4812 13.3032 15.4812 12.0635C15.477 10.1263 13.9007 8.54838 11.9607 8.54838ZM13.7662 14.8643C13.7367 14.8475 13.7031 14.837 13.6653 14.837C13.556 14.837 13.4677 14.9253 13.4677 15.0345V15.0366C13.0137 15.2677 12.503 15.398 11.9607 15.398C11.4164 15.398 10.9014 15.2656 10.4475 15.0345C10.4475 14.9253 10.3592 14.837 10.2499 14.837C10.2142 14.837 10.1805 14.8475 10.1511 14.8643C9.75597 14.608 9.41758 14.2697 9.16116 13.8726C9.18008 13.8432 9.19059 13.8075 9.19059 13.7717C9.19059 13.6625 9.10231 13.5742 8.99302 13.5742C8.99302 13.5742 8.99092 13.5742 8.98882 13.5742C8.75762 13.1225 8.62731 12.6098 8.62731 12.0677C8.62731 11.5235 8.75972 11.0088 8.99092 10.5528C9.10021 10.5528 9.18849 10.4646 9.18849 10.3553C9.18849 10.3196 9.17798 10.286 9.16327 10.2587C9.75807 9.3426 10.7879 8.73537 11.9586 8.73537C13.7977 8.73327 15.292 10.2293 15.292 12.0656C15.292 13.2381 14.6825 14.2697 13.7662 14.8643Z" fill="black" fill-opacity="0.4"/>
<path d="M12.1625 7.53354C12.2298 7.53354 12.2907 7.49782 12.3264 7.44529C14.5774 7.62389 16.4018 9.44555 16.5825 11.6958C16.5258 11.7316 16.488 11.7925 16.488 11.8639C16.488 11.9732 16.5762 12.0614 16.6855 12.0614C16.7612 12.0614 16.8263 12.0194 16.86 11.9564H19.7121V11.7715H16.86C16.839 11.7337 16.8074 11.7042 16.7675 11.6853C16.6771 10.5423 16.1853 9.47287 15.3698 8.65763C14.5543 7.8424 13.4866 7.35074 12.3433 7.2604C12.3264 7.21837 12.2949 7.18265 12.255 7.16164V4.29573H12.07V7.16164C12.0091 7.19526 11.9649 7.2604 11.9649 7.33604C11.9649 7.44319 12.0532 7.53354 12.1625 7.53354Z" fill="black" fill-opacity="0.4"/>
<path d="M12.566 7.13223C12.6291 7.13223 12.6879 7.10071 12.7237 7.05449C12.9128 7.0839 13.0999 7.12172 13.2827 7.17005C13.2953 7.2667 13.3773 7.34234 13.4782 7.34234C13.537 7.34234 13.5896 7.31713 13.6253 7.2751C15.0945 7.77937 16.2462 8.93078 16.7528 10.3995C16.7086 10.4352 16.6813 10.4898 16.6813 10.5507C16.6813 10.6537 16.7591 10.7377 16.86 10.7461C16.9083 10.9268 16.9461 11.1117 16.9755 11.2987C16.9251 11.3345 16.8915 11.3933 16.8915 11.4605C16.8915 11.5698 16.9798 11.658 17.089 11.658C17.1647 11.658 17.2299 11.616 17.2635 11.553H19.7142C19.7646 11.553 19.8066 11.5109 19.8066 11.4605C19.8066 11.4101 19.7646 11.3681 19.7142 11.3681H17.2593C17.2362 11.326 17.2004 11.2945 17.1563 11.2777C17.1248 11.0739 17.0827 10.8743 17.0281 10.6768C17.0554 10.6432 17.0743 10.5991 17.0743 10.5507C17.0743 10.4604 17.0134 10.3847 16.9314 10.3616C16.6729 9.60944 16.2441 8.91817 15.6767 8.35087C15.1092 7.78357 14.4177 7.35495 13.6674 7.09651C13.6463 7.01036 13.5686 6.94733 13.4761 6.94733C13.4256 6.94733 13.3794 6.96624 13.3458 6.99776C13.1503 6.94523 12.9528 6.90111 12.751 6.87169C12.7342 6.82546 12.7005 6.78554 12.6585 6.76243V4.29573C12.6585 4.2453 12.6165 4.20328 12.566 4.20328C12.5156 4.20328 12.4735 4.2453 12.4735 4.29573V6.76033C12.4126 6.79395 12.3685 6.85908 12.3685 6.93472C12.3685 7.04188 12.4567 7.13223 12.566 7.13223Z" fill="black" fill-opacity="0.4"/>
<path d="M13.3731 6.37373C13.4215 6.37373 13.4656 6.35692 13.5013 6.3275C14.1529 6.50189 14.7666 6.78344 15.3257 7.17005C16.3934 7.90544 17.2047 8.98541 17.6061 10.2104C17.6397 10.3133 17.6712 10.4184 17.6986 10.5213C17.667 10.557 17.646 10.6033 17.646 10.6537C17.646 10.7629 17.7343 10.8512 17.8436 10.8512C17.9193 10.8512 17.9844 10.8092 18.018 10.7461H19.607C19.6574 10.7461 19.6995 10.7041 19.6995 10.6537C19.6995 10.6033 19.6574 10.5612 19.607 10.5612H18.018C17.9886 10.5087 17.9361 10.4688 17.8751 10.4604C17.8478 10.3574 17.8163 10.2545 17.7826 10.1536C17.3665 8.88876 16.5321 7.77517 15.4308 7.01877C14.8591 6.62586 14.2348 6.33591 13.5707 6.15521C13.5623 6.09008 13.5223 6.03545 13.4677 6.00393V4.42179C13.4677 4.37137 13.4257 4.32934 13.3752 4.32934C13.3248 4.32934 13.2827 4.37137 13.2827 4.42179V6.00393C13.2218 6.03755 13.1776 6.10268 13.1776 6.17832C13.1755 6.28548 13.2638 6.37373 13.3731 6.37373Z" fill="black" fill-opacity="0.4"/>
<path d="M13.9826 5.51227C13.9826 5.62153 14.0709 5.70978 14.1802 5.70978C14.2243 5.70978 14.2663 5.69507 14.3 5.66985C16.1706 6.35482 17.6712 7.85291 18.3564 9.7229C18.3291 9.75652 18.3123 9.80064 18.3123 9.84897C18.3123 9.95822 18.4005 10.0465 18.5098 10.0465C18.5855 10.0465 18.6507 10.0044 18.6843 9.94141H18.802C18.8356 10.0023 18.9008 10.0465 18.9764 10.0465C19.0521 10.0465 19.1172 10.0044 19.1509 9.94141H19.5376L19.5019 9.82165C19.132 8.57569 18.4468 7.42849 17.5241 6.5061C16.5993 5.58161 15.4538 4.89875 14.2075 4.52895L14.0877 4.49323V4.87353C14.0267 4.90715 13.9826 4.97229 13.9826 5.04793C13.9826 5.12357 14.0246 5.1887 14.0877 5.22232V5.33998C14.0246 5.3715 13.9826 5.43663 13.9826 5.51227ZM14.3756 5.49966C14.3714 5.43033 14.3294 5.3694 14.2727 5.33788V5.22022C14.2811 5.21601 14.2874 5.21181 14.2958 5.20551C16.4207 5.92829 18.0958 7.60078 18.8209 9.725C18.8146 9.7334 18.8083 9.74391 18.802 9.75232H18.6843C18.6549 9.69559 18.596 9.65566 18.5287 9.64936C18.1799 8.70596 17.6229 7.8319 16.9083 7.11752C16.1916 6.40314 15.3193 5.84635 14.3756 5.49966ZM19.2854 9.75442H19.1488C19.1172 9.69558 19.0584 9.65566 18.9911 9.65146C18.2471 7.48732 16.5426 5.78121 14.3777 5.03742C14.3756 4.96598 14.3336 4.90505 14.2748 4.87143V4.74116C16.6687 5.49546 18.5309 7.35705 19.2854 9.75442Z" fill="black" fill-opacity="0.4"/>
<path d="M11.5761 7.25829C10.4348 7.34864 9.365 7.8403 8.54951 8.65553C7.73403 9.47077 7.24221 10.5381 7.15183 11.6811C7.1098 11.6979 7.07617 11.7295 7.05515 11.7694H4.20935V11.9543H7.05515C7.08878 12.0152 7.15394 12.0593 7.2296 12.0593C7.33889 12.0593 7.42717 11.9711 7.42717 11.8618C7.42717 11.7925 7.39144 11.7316 7.33889 11.6979C7.51754 9.44555 9.34188 7.62179 11.595 7.44319C11.6307 7.49572 11.6917 7.53144 11.7589 7.53144C11.8682 7.53144 11.9565 7.44319 11.9565 7.33393C11.9565 7.25829 11.9145 7.19316 11.8514 7.15954V4.29573H11.6664V7.16164C11.6244 7.18265 11.5929 7.21837 11.5761 7.25829Z" fill="black" fill-opacity="0.4"/>
<path d="M15.1617 12.1707C15.1617 12.0888 15.1134 12.0194 15.0419 11.99C15.002 10.349 13.6716 9.02323 12.0301 8.98541C12.0006 8.91607 11.9292 8.86565 11.8493 8.86565C11.7631 8.86565 11.6896 8.92027 11.6623 8.99802C10.1196 9.14509 8.90473 10.4352 8.8774 12.011C8.82696 12.0467 8.79333 12.1056 8.79333 12.1707C8.79333 12.2421 8.83117 12.3052 8.88791 12.3388C9.01822 13.8201 10.1994 15.003 11.6791 15.1354C11.7148 15.1921 11.7758 15.2299 11.8472 15.2299C11.9124 15.2299 11.9712 15.1963 12.0069 15.148C13.5854 15.1228 14.8801 13.9041 15.0272 12.3556C15.105 12.3283 15.1617 12.2568 15.1617 12.1707ZM12.0343 14.961C12.0048 14.8874 11.9334 14.8349 11.8514 14.8349C11.7737 14.8349 11.7064 14.8811 11.6728 14.9463C10.3024 14.8097 9.21159 13.7171 9.07707 12.3472C9.14433 12.3157 9.19057 12.2484 9.19057 12.1686C9.19057 12.0845 9.13802 12.0131 9.06446 11.9858C9.1044 10.515 10.2457 9.31318 11.6938 9.18081C11.7295 9.22914 11.7863 9.25855 11.8514 9.25855C11.9208 9.25855 11.9817 9.22283 12.0175 9.16821C13.5686 9.19762 14.8275 10.452 14.8591 12.0026C14.8044 12.0383 14.7687 12.0993 14.7687 12.1686C14.7687 12.2316 14.8002 12.2905 14.8464 12.3262C14.714 13.778 13.5097 14.9253 12.0343 14.961Z" fill="black" fill-opacity="0.4"/>
<path d="M12.9674 6.72041C13.0137 6.72041 13.0557 6.7036 13.0893 6.67839C13.8439 6.83597 14.5438 7.15114 15.1512 7.58397C15.1491 7.59657 15.147 7.60918 15.147 7.62179C15.147 7.73105 15.2353 7.81929 15.3446 7.81929C15.3761 7.81929 15.4055 7.81089 15.4307 7.79828C15.7208 8.0336 15.9856 8.29835 16.221 8.5883C16.2063 8.61561 16.1979 8.64713 16.1979 8.68075C16.1979 8.79 16.2861 8.87825 16.3954 8.87825C16.4102 8.87825 16.4249 8.87615 16.4375 8.87405C16.8725 9.48127 17.1857 10.1788 17.3433 10.931C17.3139 10.9668 17.295 11.0109 17.295 11.0592C17.295 11.1685 17.3833 11.2567 17.4926 11.2567C17.5682 11.2567 17.6334 11.2147 17.667 11.1517H19.6637C19.7141 11.1517 19.7562 11.1096 19.7562 11.0592C19.7562 11.0088 19.7141 10.9668 19.6637 10.9668H17.667C17.6376 10.9121 17.5829 10.8722 17.5199 10.8638C17.356 10.0969 17.0365 9.38042 16.5804 8.74798C16.5888 8.72697 16.593 8.70386 16.593 8.68075C16.593 8.57149 16.5047 8.48324 16.3954 8.48324C16.3891 8.48324 16.3849 8.48324 16.3786 8.48324C16.2546 8.32986 16.1222 8.18278 15.9814 8.04201C15.8406 7.90123 15.6934 7.76886 15.54 7.6428C15.54 7.63439 15.5421 7.62809 15.5421 7.61969C15.5421 7.51043 15.4538 7.42218 15.3446 7.42218C15.3193 7.42218 15.2941 7.42638 15.271 7.43689C14.6405 6.98515 13.9259 6.66578 13.1629 6.50189C13.1566 6.43466 13.1167 6.37793 13.0599 6.34851V4.35876C13.0599 4.30833 13.0179 4.26631 12.9674 4.26631C12.917 4.26631 12.875 4.30833 12.875 4.35876V6.34851C12.814 6.38213 12.7699 6.44727 12.7699 6.52291C12.772 6.63216 12.8603 6.72041 12.9674 6.72041Z" fill="black" fill-opacity="0.4"/>
<path d="M13.7766 6.06066C13.8334 6.06066 13.8838 6.03545 13.9196 5.99763C15.8511 6.62166 17.4001 8.17228 18.0264 10.1011C17.9844 10.1368 17.9592 10.1893 17.9592 10.2482C17.9592 10.3574 18.0474 10.4457 18.1567 10.4457C18.2324 10.4457 18.2976 10.4037 18.3312 10.3406H19.5208C19.5712 10.3406 19.6133 10.2986 19.6133 10.2482C19.6133 10.1977 19.5712 10.1557 19.5208 10.1557H18.3312C18.306 10.1074 18.2618 10.0717 18.2093 10.0591C17.8919 9.07155 17.3391 8.16387 16.6014 7.42638C15.8637 6.68889 14.9578 6.1363 13.97 5.81903C13.9574 5.7623 13.9196 5.71608 13.8712 5.68876V4.50584C13.8712 4.45541 13.8292 4.41339 13.7787 4.41339C13.7283 4.41339 13.6863 4.45541 13.6863 4.50584V5.68876C13.6253 5.72238 13.5812 5.78752 13.5812 5.86316C13.5791 5.97241 13.6673 6.06066 13.7766 6.06066Z" fill="black" fill-opacity="0.4"/>
<path d="M12.3412 16.873C13.4845 16.7826 14.5543 16.291 15.3698 15.4757C16.1853 14.6605 16.6771 13.591 16.7675 12.448C16.8074 12.4291 16.839 12.3997 16.86 12.3619H19.7121V12.177H16.8579C16.8242 12.1161 16.7591 12.0719 16.6834 12.0719C16.5741 12.0719 16.4859 12.1602 16.4859 12.2694C16.4859 12.3409 16.5237 12.4018 16.5804 12.4375C16.4018 14.6878 14.5795 16.5095 12.3306 16.6881C12.2949 16.6314 12.234 16.5935 12.1625 16.5935C12.0532 16.5935 11.9649 16.6818 11.9649 16.791C11.9649 16.8667 12.007 16.9318 12.07 16.9654V19.8377H12.255V16.9633C12.2928 16.9423 12.3222 16.9108 12.3412 16.873Z" fill="black" fill-opacity="0.4"/>
<path d="M10.9518 17.4046C10.9035 17.4046 10.8573 17.4235 10.8236 17.4529C9.96822 17.2722 9.18215 16.8919 8.5222 16.3624C8.5243 16.3498 8.5264 16.3351 8.5264 16.3204C8.5264 16.2111 8.43812 16.1229 8.32883 16.1229C8.30361 16.1229 8.28049 16.1271 8.25737 16.1355C8.12916 16.0178 8.00516 15.896 7.88956 15.7678C7.90007 15.7447 7.90427 15.7195 7.90427 15.6922C7.90427 15.5829 7.816 15.4947 7.70671 15.4947C7.68989 15.4947 7.67518 15.4968 7.66047 15.501C7.13082 14.8412 6.7504 14.0554 6.57175 13.2002C6.59907 13.1666 6.61588 13.1225 6.61588 13.0763C6.61588 12.967 6.52761 12.8788 6.41832 12.8788C6.34265 12.8788 6.2775 12.9208 6.24387 12.9838H4.25139C4.20094 12.9838 4.15891 13.0258 4.15891 13.0763C4.15891 13.1267 4.20094 13.1687 4.25139 13.1687H6.24387C6.27329 13.2255 6.33004 13.2654 6.3973 13.2717C6.58436 14.1373 6.96688 14.94 7.52175 15.627C7.51544 15.648 7.51124 15.669 7.51124 15.6922C7.51124 15.8014 7.59951 15.8897 7.70881 15.8897C7.72142 15.8897 7.73193 15.8897 7.74454 15.8876C7.80759 15.9569 7.87275 16.0262 7.9379 16.0914C8.00306 16.1565 8.07031 16.2195 8.13757 16.2805C8.13547 16.2931 8.13337 16.3078 8.13337 16.3204C8.13337 16.4296 8.22164 16.5179 8.33093 16.5179C8.35615 16.5179 8.37927 16.5137 8.40029 16.5053C9.08967 17.06 9.89255 17.4445 10.7585 17.6294C10.7669 17.6924 10.8068 17.747 10.8615 17.7765V19.7746C10.8615 19.825 10.9035 19.8671 10.954 19.8671C11.0044 19.8671 11.0464 19.825 11.0464 19.7746V17.7765C11.1074 17.7428 11.1515 17.6777 11.1515 17.6021C11.1494 17.4928 11.0611 17.4046 10.9518 17.4046Z" fill="black" fill-opacity="0.4"/>
<path d="M11.7589 16.5914C11.6875 16.5914 11.6265 16.6293 11.5908 16.686C9.33978 16.5053 7.51754 14.6836 7.33889 12.4312C7.39144 12.3955 7.42717 12.3346 7.42717 12.2673C7.42717 12.1581 7.33889 12.0698 7.2296 12.0698C7.15394 12.0698 7.08878 12.1119 7.05515 12.1749H4.20935V12.3598H7.05515C7.07617 12.3997 7.1098 12.4312 7.15183 12.448C7.24221 13.591 7.73403 14.6584 8.54952 15.4736C9.365 16.2889 10.4348 16.7805 11.5782 16.8709C11.5971 16.9087 11.6265 16.9423 11.6643 16.9612V19.8334H11.8493V16.9633C11.9103 16.9297 11.9544 16.8646 11.9544 16.7889C11.9565 16.6797 11.8661 16.5914 11.7589 16.5914Z" fill="black" fill-opacity="0.4"/>
<path d="M10.5483 17.7491C10.4979 17.7491 10.4495 17.7702 10.4159 17.8017C9.76646 17.6273 9.15484 17.3457 8.59787 16.9612C7.53017 16.2258 6.71888 15.1459 6.31744 13.9209C6.28382 13.8159 6.25229 13.7108 6.22286 13.6058C6.25229 13.57 6.2712 13.5259 6.2712 13.4776C6.2712 13.3683 6.18293 13.2801 6.07364 13.2801C5.99797 13.2801 5.93282 13.3221 5.89919 13.3851H4.31655C4.26611 13.3851 4.22407 13.4272 4.22407 13.4776C4.22407 13.528 4.26611 13.57 4.31655 13.57H5.89919C5.92862 13.6247 5.98326 13.6646 6.04842 13.673C6.07574 13.7759 6.10727 13.8789 6.14089 13.9797C6.55705 15.2446 7.39145 16.3582 8.49278 17.1146C9.06447 17.5075 9.69079 17.7975 10.355 17.9782C10.3655 18.0391 10.4033 18.0916 10.4558 18.121V19.7095C10.4558 19.7599 10.4979 19.8019 10.5483 19.8019C10.5988 19.8019 10.6408 19.7599 10.6408 19.7095V18.121C10.7017 18.0874 10.7459 18.0223 10.7459 17.9466C10.7459 17.8374 10.6576 17.7491 10.5483 17.7491Z" fill="black" fill-opacity="0.4"/>
<path d="M10.1448 18.0643C10.0859 18.0643 10.0313 18.0916 9.99553 18.1337C9.38601 17.9361 8.81223 17.6462 8.29519 17.2785C8.29729 17.268 8.29729 17.2575 8.29729 17.2449C8.29729 17.1356 8.20902 17.0474 8.09973 17.0474C8.0682 17.0474 8.03878 17.0558 8.01355 17.0684C7.62052 16.7574 7.26532 16.4002 6.95426 16.0073C6.96477 15.9821 6.97107 15.9548 6.97107 15.9254C6.97107 15.8161 6.8828 15.7279 6.77351 15.7279C6.763 15.7279 6.75459 15.7279 6.74618 15.73C6.38047 15.211 6.08833 14.6374 5.89076 14.026C5.92859 13.9903 5.95381 13.9377 5.95381 13.881C5.95381 13.7717 5.86554 13.6835 5.75625 13.6835C5.68058 13.6835 5.61543 13.7255 5.5818 13.7886H4.3985C4.34806 13.7886 4.30602 13.8306 4.30602 13.881C4.30602 13.9314 4.34806 13.9735 4.3985 13.9735H5.5818C5.60702 14.0218 5.65536 14.0596 5.71001 14.0722C5.91178 14.7025 6.21233 15.2993 6.59275 15.8413C6.58014 15.8666 6.57384 15.8939 6.57384 15.9233C6.57384 16.0325 6.66211 16.1208 6.7714 16.1208C6.77981 16.1208 6.79032 16.1208 6.79873 16.1187C6.95846 16.3225 7.13291 16.5179 7.31787 16.7028C7.50282 16.8877 7.69829 17.06 7.90216 17.2197C7.90216 17.226 7.90216 17.2344 7.90216 17.2407C7.90216 17.3499 7.99043 17.4382 8.09973 17.4382C8.12705 17.4382 8.15227 17.4319 8.17749 17.4235C8.72185 17.808 9.32086 18.1084 9.95349 18.3122C9.96821 18.3648 10.0039 18.4089 10.0502 18.4341V19.6233C10.0502 19.6738 10.0922 19.7158 10.1427 19.7158C10.1931 19.7158 10.2351 19.6738 10.2351 19.6233V18.4341C10.2961 18.4005 10.3402 18.3354 10.3402 18.2597C10.3423 18.1526 10.2519 18.0643 10.1448 18.0643Z" fill="black" fill-opacity="0.4"/>
<path d="M9.93881 18.6127C9.93881 18.5034 9.85053 18.4152 9.74124 18.4152C9.6929 18.4152 9.64876 18.432 9.61513 18.4614C7.74665 17.7744 6.24809 16.2763 5.56291 14.4063C5.58813 14.3727 5.60494 14.3306 5.60494 14.2844C5.60494 14.1752 5.51667 14.0869 5.40738 14.0869C5.33171 14.0869 5.26656 14.1289 5.23293 14.192H5.11523C5.0816 14.131 5.01645 14.0869 4.94078 14.0869C4.86512 14.0869 4.79996 14.1289 4.76634 14.192H4.38381L4.41954 14.3117C4.78945 15.5577 5.47463 16.7049 6.39731 17.6273C7.3221 18.5518 8.46756 19.2346 9.71392 19.6044L9.83372 19.6401V19.2514C9.89467 19.2178 9.93881 19.1527 9.93881 19.077C9.93881 19.0014 9.89677 18.9363 9.83372 18.9027V18.785C9.89677 18.7535 9.93881 18.6883 9.93881 18.6127ZM9.54367 18.6316C9.54998 18.6988 9.58991 18.7556 9.64666 18.785V18.9027C9.63615 18.909 9.62564 18.9153 9.61723 18.9216C7.49444 18.1967 5.82143 16.5221 5.09842 14.4C5.10472 14.3916 5.10892 14.3853 5.11313 14.3769H5.23083C5.26235 14.4357 5.3212 14.4756 5.39056 14.4798C5.73946 15.4232 6.29643 16.2952 7.01103 17.0117C7.72774 17.7281 8.59998 18.2849 9.54367 18.6316ZM4.63392 14.3769H4.76634C4.79786 14.4357 4.85881 14.4777 4.93027 14.4798C5.6743 16.644 7.38094 18.3501 9.54367 19.0939C9.54998 19.1611 9.58991 19.2199 9.64666 19.2514V19.3901C7.25063 18.6358 5.38846 16.7742 4.63392 14.3769Z" fill="black" fill-opacity="0.4"/>
<path d="M11.3554 16.9927C11.2881 16.9927 11.2293 17.0264 11.1936 17.0768C8.9909 16.7448 7.27795 15.0303 6.94797 12.8283C6.99632 12.7926 7.02784 12.7359 7.02784 12.6708C7.02784 12.5615 6.93957 12.4733 6.83027 12.4733C6.75461 12.4733 6.68946 12.5153 6.65583 12.5783H4.20936C4.15892 12.5783 4.11688 12.6203 4.11688 12.6708C4.11688 12.7212 4.15892 12.7632 4.20936 12.7632H6.65373C6.67685 12.8052 6.71468 12.8388 6.76092 12.8557C6.92906 13.9566 7.4503 14.9904 8.24057 15.7825C9.03294 16.5746 10.067 17.0957 11.1683 17.2638C11.1852 17.3079 11.2167 17.3436 11.2587 17.3646V19.8355C11.2587 19.886 11.3008 19.928 11.3512 19.928C11.4016 19.928 11.4437 19.886 11.4437 19.8355V17.3646C11.5046 17.331 11.5488 17.2659 11.5488 17.1903C11.553 17.081 11.4626 16.9927 11.3554 16.9927Z" fill="black" fill-opacity="0.4"/>
</g>
<path opacity="0.5" fill-rule="evenodd" clip-rule="evenodd" d="M3.09202 17.4147C2.20076 15.8147 1.66892 13.9267 2.01913 12.0183L1.84401 12C1.48909 13.934 2.02171 15.8571 2.93254 17.4922C3.84394 19.1284 5.56977 20.8682 8.08227 21.7167L8.15179 21.5664C5.6743 20.7298 3.98273 19.0137 3.09202 17.4147Z" fill="url(#paint1_linear)"/>
<g filter="url(#ic24px_trx)">
<path fill-rule="evenodd" clip-rule="evenodd" d="M13.5958 19.5003C11.7302 19.8448 9.7808 19.4883 7.93797 18.6411L7.87201 18.7918C9.73962 19.6504 11.7248 20.0161 13.6314 19.6641C15.5391 19.3118 17.3607 18.2423 18.9018 16.2437L18.7681 16.1397C17.2484 18.1104 15.4603 19.1561 13.5958 19.5003Z" fill="url(#paint2_linear)"/>
</g>
<g filter="url(#filter1_f)">
<path fill-rule="evenodd" clip-rule="evenodd" d="M5.76063 16.56C4.57671 15.1428 4.00538 13.3301 3.93929 11.3804L3.76867 11.3945C3.83564 13.3704 4.41505 15.2174 5.62496 16.6658C6.83562 18.1151 8.67288 19.1595 11.2435 19.5367L11.2782 19.3755C8.74345 19.0035 6.9438 17.9764 5.76063 16.56Z" fill="url(#paint3_linear)"/>
</g>
<g opacity="0.4" filter="url(#filter2_f)">
<path fill-rule="evenodd" clip-rule="evenodd" d="M13.4043 17.3459C11.7813 17.5017 10.144 17.052 8.63793 16.1907L8.56921 16.3147C10.0956 17.1875 11.7627 17.6477 13.4213 17.4885C15.0809 17.3292 16.7256 16.5503 18.2064 14.9564L18.1006 14.8576C16.6404 16.4292 15.0263 17.1902 13.4043 17.3459Z" fill="url(#paint4_linear)"/>
</g>
<path fill-rule="evenodd" clip-rule="evenodd" d="M21.4272 7.79938C20.4357 5.85518 19.0713 3.95674 16.9506 3.01646L17.0487 2.83333C19.1979 3.78625 20.5965 5.70897 21.6097 7.69586C22.6236 9.68396 22.887 12.1875 22.0586 15.2083L21.8638 15.1752C22.6806 12.1965 22.4181 9.74235 21.4272 7.79938Z" fill="url(#paint5_linear)"/>
<path fill-rule="evenodd" clip-rule="evenodd" d="M19.1104 7.97852C18.1468 6.53837 16.7191 5.04048 14.6579 4.34398L14.7533 4.20833C16.8422 4.9142 18.303 6.43007 19.2878 7.90183C20.2732 9.3745 20.7369 12.0785 19.9318 14.3162L19.7425 14.2917C20.5364 12.0852 20.0734 9.41775 19.1104 7.97852Z" fill="url(#paint6_linear)"/>
<g opacity="0.24" filter="url(#filter3_f)">
<path d="M18.3912 11.0451C18.1537 10.8266 17.8804 10.5597 17.5904 10.2782C17.1763 9.87689 16.7497 9.46087 16.365 9.12259L16.3188 9.08897C16.2368 9.02384 16.1444 8.97131 16.0435 8.93559L15.7597 8.87886C7.11092 7.26521 7.01214 7.27781 6.94068 7.28622C6.86921 7.29672 6.80196 7.32194 6.7284 7.37236L6.67165 7.41859C6.60439 7.48582 6.55395 7.56987 6.52452 7.65181L6.5014 7.71274V7.94597L6.51401 7.97958C6.95959 9.22344 8.09245 11.9297 9.18537 14.5477C10.0807 16.6887 10.9256 18.71 11.2136 19.5042C11.264 19.6597 11.367 19.9832 11.6613 20.0063H11.6928C11.7769 20.0063 11.8693 20.0063 12.2393 19.5189C12.4662 19.2436 17.8153 12.7575 18.3722 12.0494C18.4542 11.9507 18.5257 11.8435 18.5866 11.7322L18.6034 11.7028L18.6097 11.6691C18.6497 11.438 18.5656 11.2006 18.3912 11.0451ZM16.6215 12.3604L12.6449 17.1488L13.143 12.9193L16.6215 12.3604ZM12.0186 12.581L11.5036 16.9997L8.45606 9.55752L12.0186 12.581ZM14.6353 9.85378L12.5797 11.5872L9.25473 8.86205L14.6353 9.85378ZM15.8753 10.2971L16.8232 11.1712L14.257 11.6376L15.8753 10.2971Z" fill="black"/>
</g>
<path d="M17.9906 10.1284C17.7531 9.9099 17.4799 9.64306 17.1899 9.36151C16.7758 8.9602 16.3492 8.54418 15.9645 8.2059L15.9183 8.17228C15.8363 8.10715 15.7438 8.05462 15.643 8.0189L15.3592 7.96217C6.71041 6.34852 6.61162 6.36113 6.54016 6.36953C6.4687 6.38004 6.40145 6.40525 6.32788 6.45568L6.27113 6.5019C6.20388 6.56914 6.15344 6.65318 6.12401 6.73512L6.10089 6.79606V7.02928L6.1135 7.0629C6.55908 8.30676 7.69194 11.013 8.78486 13.631C9.68022 15.772 10.5251 17.7933 10.8131 18.5875C10.8635 18.743 10.9665 19.0665 11.2608 19.0897H11.2923C11.3763 19.0897 11.4688 19.0897 11.8387 18.6022C12.0657 18.327 17.4148 11.8408 17.9717 11.1328C18.0537 11.034 18.1252 10.9268 18.1861 10.8155L18.2029 10.7861L18.2092 10.7524C18.2492 10.5213 18.1651 10.2839 17.9906 10.1284ZM16.2209 11.4437L12.2444 16.2321L12.7425 12.0026L16.2209 11.4437ZM11.6181 11.6643L11.1031 16.083L8.05554 8.64083L11.6181 11.6643ZM14.2348 8.93709L12.1792 10.6705L8.85422 7.94536L14.2348 8.93709ZM15.4748 9.38042L16.4227 10.2545L13.8564 10.7209L15.4748 9.38042Z" fill="white"/>
<defs>
<filter id="ic24px_trx" x="6.87201" y="15.1397" width="13.0298" height="5.6574" filterUnits="userSpaceOnUse" color-interpolation-filters="sRGB">
<feFlood flood-opacity="0" result="BackgroundImageFix"/>
<feBlend mode="normal" in="SourceGraphic" in2="BackgroundImageFix" result="shape"/>
<feGaussianBlur stdDeviation="0.5" result="effect1_foregroundBlur"/>
</filter>
<filter id="filter1_f" x="2.76868" y="10.3804" width="9.50958" height="10.1563" filterUnits="userSpaceOnUse" color-interpolation-filters="sRGB">
<feFlood flood-opacity="0" result="BackgroundImageFix"/>
<feBlend mode="normal" in="SourceGraphic" in2="BackgroundImageFix" result="shape"/>
<feGaussianBlur stdDeviation="0.5" result="effect1_foregroundBlur"/>
</filter>
<filter id="filter2_f" x="7.56921" y="13.8576" width="11.6372" height="4.66208" filterUnits="userSpaceOnUse" color-interpolation-filters="sRGB">
<feFlood flood-opacity="0" result="BackgroundImageFix"/>
<feBlend mode="normal" in="SourceGraphic" in2="BackgroundImageFix" result="shape"/>
<feGaussianBlur stdDeviation="0.5" result="effect1_foregroundBlur"/>
</filter>
<filter id="filter3_f" x="5.5014" y="6.28494" width="14.1181" height="14.7214" filterUnits="userSpaceOnUse" color-interpolation-filters="sRGB">
<feFlood flood-opacity="0" result="BackgroundImageFix"/>
<feBlend mode="normal" in="SourceGraphic" in2="BackgroundImageFix" result="shape"/>
<feGaussianBlur stdDeviation="0.5" result="effect1_foregroundBlur"/>
</filter>
<radialGradient id="paint0_radial" cx="0" cy="0" r="1" gradientUnits="userSpaceOnUse" gradientTransform="translate(11.9982 12.0011) scale(10.614 10.6106)">
<stop offset="0.1358" stop-color="#FD6156"/>
<stop offset="0.7046" stop-color="#E12A28"/>
<stop offset="0.7227" stop-color="#DD2523"/>
<stop offset="0.7453" stop-color="#D01515"/>
<stop offset="0.7623" stop-color="#C20505"/>
<stop offset="0.7778" stop-color="#E31C1C"/>
<stop offset="0.8078" stop-color="#EA2A29"/>
<stop offset="0.8125" stop-color="#EA2A29"/>
<stop offset="0.9109" stop-color="#E32826"/>
<stop offset="0.928" stop-color="#E21F1E"/>
<stop offset="0.949" stop-color="#E21A19"/>
<stop offset="0.9633" stop-color="#EF2927"/>
<stop offset="0.9822" stop-color="#F93634"/>
<stop offset="1" stop-color="#FD3A38"/>
</radialGradient>
<linearGradient id="paint1_linear" x1="7.94706" y1="21.3644" x2="3.03733" y2="12.191" gradientUnits="userSpaceOnUse">
<stop stop-color="white" stop-opacity="0"/>
<stop offset="0.487847" stop-color="white" stop-opacity="0.517361"/>
<stop offset="1" stop-color="white" stop-opacity="0"/>
</linearGradient>
<linearGradient id="paint2_linear" x1="18.9192" y1="16.2867" x2="8.52137" y2="19.0142" gradientUnits="userSpaceOnUse">
<stop stop-opacity="0.39"/>
<stop offset="0.310764" stop-opacity="0.94"/>
<stop offset="0.487847" stop-opacity="0.9"/>
<stop offset="0.670139" stop-opacity="0.71"/>
<stop offset="1" stop-opacity="0.26"/>
</linearGradient>
<linearGradient id="paint3_linear" x1="11.2116" y1="19.5713" x2="4.42754" y2="11.5675" gradientUnits="userSpaceOnUse">
<stop stop-opacity="0.39"/>
<stop offset="0.310764" stop-opacity="0.87"/>
<stop offset="0.487847" stop-opacity="0.71"/>
<stop offset="0.670139"/>
<stop offset="1" stop-opacity="0.26"/>
</linearGradient>
<linearGradient id="paint4_linear" x1="18.2178" y1="14.9945" x2="9.09452" y2="16.4812" gradientUnits="userSpaceOnUse">
<stop stop-opacity="0.79"/>
<stop offset="0.487847" stop-opacity="0.517361"/>
<stop offset="1" stop-opacity="0.72"/>
</linearGradient>
<linearGradient id="paint5_linear" x1="22.1772" y1="16.9585" x2="15.8773" y2="3.67491" gradientUnits="userSpaceOnUse">
<stop stop-color="white" stop-opacity="0"/>
<stop offset="0.487847" stop-color="white" stop-opacity="0.517361"/>
<stop offset="1" stop-color="white" stop-opacity="0"/>
</linearGradient>
<linearGradient id="paint6_linear" x1="19.6547" y1="14.7749" x2="15.8015" y2="4.11478" gradientUnits="userSpaceOnUse">
<stop stop-color="white" stop-opacity="0"/>
<stop offset="0.453125" stop-color="white" stop-opacity="0.57"/>
<stop offset="0.578125" stop-color="white" stop-opacity="0.44"/>
<stop offset="0.703125" stop-color="white" stop-opacity="0.29"/>
<stop offset="1" stop-color="white" stop-opacity="0"/>
</linearGradient>
</defs>
</svg>
