<svg width="24" height="24" viewBox="0 0 24 24" fill="none" xmlns="http://www.w3.org/2000/svg">
<path d="M12.0992 1.3941L12.0046 1.09785C11.9836 1.06213 11.9458 1.04112 11.9059 1.04112L10.9562 1.03902C10.9141 1.03902 10.8742 1.06213 10.8553 1.09995L10.7502 1.44663L10.7523 1.46554C11.1621 1.41722 11.576 1.3899 11.9983 1.3899C12.0319 1.3899 12.0655 1.392 12.0992 1.3941Z" fill="#076AFC"/>
<path d="M2.19575 7.20369C2.15583 7.20789 2.12011 7.231 2.1012 7.26672L1.68308 8.11977C1.66417 8.15759 1.66837 8.20382 1.69358 8.23744L1.95832 8.48327L1.97933 8.48957C2.12851 8.06304 2.30501 7.64702 2.50671 7.24571L2.19575 7.20369Z" fill="#076AFC"/>
<path d="M3.38715 18.6947C3.37244 18.7325 3.37874 18.7745 3.40396 18.8081L3.98807 19.5582C4.01328 19.5918 4.0553 19.6086 4.09942 19.6002L4.4356 19.47L4.44821 19.4574C4.13304 19.138 3.83679 18.7976 3.56364 18.4383L3.38715 18.6947Z" fill="#076AFC"/>
<path d="M14.2393 22.6616C14.2666 22.691 14.3086 22.7036 14.3464 22.6973L15.2751 22.5019C15.3172 22.4935 15.3487 22.462 15.3613 22.422L15.3907 22.0607L15.3886 22.0544C14.9663 22.1972 14.5334 22.3149 14.088 22.4052L14.2393 22.6616Z" fill="#076AFC"/>
<path d="M22.5644 14.65C22.6043 14.6374 22.6337 14.608 22.6421 14.5681L22.8732 13.6457C22.8837 13.6058 22.8711 13.5616 22.8396 13.5322L22.5286 13.3473H22.5244C22.4677 13.797 22.3858 14.2382 22.2744 14.6689L22.5644 14.65Z" fill="#076AFC"/>
<path d="M19.0099 3.65702C19.0162 3.61709 19.0015 3.57717 18.97 3.54986L18.243 2.93844C18.2115 2.91112 18.1653 2.90482 18.1253 2.91953L17.8228 3.11703L17.8165 3.12754C18.1926 3.37547 18.5519 3.64651 18.8943 3.93856L19.0099 3.65702Z" fill="#076AFC"/>
<path d="M7.56792 2.03285C7.53431 2.00973 7.49228 2.00553 7.45446 2.02234L6.58671 2.40684C6.54889 2.42365 6.52157 2.46147 6.51947 2.50349L6.56569 2.86278L6.5762 2.88169C6.9607 2.65267 7.36202 2.44676 7.77594 2.26607L7.56792 2.03285Z" fill="#076AFC"/>
<path d="M6.85571 21.6131C6.85781 21.653 6.88093 21.6909 6.91664 21.7098L7.75499 22.1573C7.79281 22.1762 7.83693 22.1741 7.87265 22.151L8.12689 21.8947L8.13109 21.8821C7.71087 21.7182 7.30115 21.5291 6.90824 21.3127L6.85571 21.6131Z" fill="#076AFC"/>
<path d="M18.3839 20.8252C18.4217 20.842 18.4637 20.8357 18.4974 20.8126L19.2664 20.2558C19.3 20.2306 19.3189 20.1886 19.3126 20.1465L19.1928 19.8062L19.1886 19.802C18.8588 20.1066 18.5079 20.3882 18.1423 20.6487L18.3839 20.8252Z" fill="#076AFC"/>
<path d="M22.7304 10.12C22.7619 10.0927 22.7766 10.0528 22.7682 10.0129L22.6043 9.07788C22.598 9.03586 22.5665 9.00224 22.5266 8.98753L22.1673 8.94551L22.1631 8.94761C22.2913 9.37414 22.3921 9.81117 22.4656 10.2587L22.7304 10.12Z" fill="#076AFC"/>
<path d="M15.0102 1.52439C14.9997 1.48446 14.9703 1.45505 14.9304 1.44244L14.0185 1.1798C13.9786 1.1672 13.9344 1.1798 13.905 1.21132L13.7096 1.51598L13.7075 1.53069C14.1551 1.60213 14.5942 1.70508 15.0207 1.83115L15.0102 1.52439Z" fill="#076AFC"/>
<path d="M3.89558 4.69285C3.85565 4.68445 3.81363 4.69915 3.78842 4.72857L3.15178 5.43454C3.12447 5.46606 3.11396 5.51018 3.12867 5.5501L3.31567 5.85897L3.33668 5.87368C3.59722 5.50598 3.88087 5.1551 4.18343 4.82312L3.89558 4.69285Z" fill="#076AFC"/>
<path d="M1.8743 16.0662C1.84909 16.0977 1.84489 16.1418 1.8596 16.1796L2.21468 17.0621C2.22939 17.102 2.26721 17.1293 2.30923 17.1335L2.66852 17.0999L2.68323 17.0915C2.46892 16.6986 2.27982 16.2889 2.11383 15.8687L1.8743 16.0662Z" fill="#076AFC"/>
<path d="M11.1393 22.5733L11.2129 22.8696C11.2318 22.9053 11.2675 22.9305 11.3074 22.9326L12.255 22.9998C12.2971 23.0019 12.337 22.983 12.3601 22.9452L12.4883 22.6069V22.5964C12.3265 22.6048 12.1626 22.609 11.9987 22.609C11.7087 22.6111 11.423 22.5964 11.1393 22.5733Z" fill="#076AFC"/>
<path d="M21.423 17.4613C21.4629 17.4613 21.5007 17.4382 21.5217 17.4046L21.9987 16.583C22.0197 16.5473 22.0197 16.5011 21.9966 16.4654L21.7487 16.2027H21.7466C21.568 16.6167 21.3621 17.018 21.1351 17.4025L21.423 17.4613Z" fill="#076AFC"/>
<path d="M21.0362 5.9157C21.053 5.87788 21.0509 5.83586 21.0278 5.80224L20.4983 5.01432C20.4752 4.9786 20.4332 4.95969 20.3911 4.9639L20.0466 5.07105L20.0381 5.07736C20.3302 5.41774 20.6033 5.77492 20.8513 6.15102L21.0362 5.9157Z" fill="#076AFC"/>
<path d="M10.4872 1.2008C10.462 1.16929 10.4221 1.15248 10.3821 1.15878L9.44084 1.28905C9.39882 1.29535 9.3631 1.32267 9.34839 1.36259L9.29376 1.71978L9.29796 1.73659C9.72869 1.62313 10.172 1.53908 10.6238 1.48025L10.4872 1.2008Z" fill="#076AFC"/>
<path d="M1.62429 8.61353C1.58437 8.62193 1.55285 8.65135 1.54025 8.68917L1.24609 9.59264C1.23348 9.63256 1.24399 9.67669 1.27341 9.7082L1.56966 9.91411L1.59067 9.91832C1.67892 9.47288 1.79868 9.03795 1.93946 8.61353H1.62429Z" fill="#076AFC"/>
<path d="M4.40197 19.8272C4.39357 19.8671 4.40407 19.9091 4.43349 19.9364L5.11635 20.5983C5.14576 20.6277 5.18989 20.6382 5.23191 20.6256L5.54708 20.4491L5.55758 20.4365C5.20039 20.1633 4.86001 19.8671 4.53854 19.5519L4.40197 19.8272Z" fill="#076AFC"/>
<path d="M15.702 22.2456C15.7336 22.2708 15.7756 22.2792 15.8134 22.2645L16.7064 21.9409C16.7463 21.9262 16.7736 21.8905 16.7799 21.8484L16.7589 21.4871L16.7568 21.4828C16.3576 21.6846 15.9437 21.861 15.5172 22.0102L15.702 22.2456Z" fill="#076AFC"/>
<path d="M22.949 12.0089L22.6149 11.8703H22.6086C22.6086 11.9144 22.6128 11.9585 22.6128 12.0026C22.6128 12.4123 22.5876 12.8179 22.5414 13.215L22.8313 13.154C22.8692 13.1372 22.8944 13.1015 22.8986 13.0616L22.9994 12.1161C23.0036 12.0741 22.9847 12.032 22.949 12.0089Z" fill="#076AFC"/>
<path d="M17.7805 2.76193C17.7805 2.72201 17.7616 2.68419 17.7258 2.66108L16.9211 2.15681C16.8854 2.1337 16.8392 2.1337 16.8034 2.15471L16.5324 2.39424L16.5282 2.40474C16.9358 2.59805 17.3287 2.81656 17.7069 3.05819L17.7805 2.76193Z" fill="#076AFC"/>
<path d="M6.22506 2.74513C6.18934 2.72622 6.14522 2.72832 6.1116 2.74933L5.30477 3.25149C5.26905 3.27461 5.24804 3.31453 5.25014 3.35655L5.34469 3.70533L5.3594 3.72424C5.71029 3.44269 6.07798 3.18216 6.46249 2.94683L6.22506 2.74513Z" fill="#076AFC"/>
<path d="M1.14311 13.1204C1.10949 13.1456 1.09268 13.1834 1.09689 13.2234L1.19564 14.1689C1.19984 14.2109 1.22716 14.2466 1.26708 14.2634L1.62216 14.3307L1.64318 14.3265C1.54652 13.8915 1.47509 13.4461 1.43306 12.9922L1.14311 13.1204Z" fill="#076AFC"/>
<path d="M8.24512 22.235C8.25352 22.275 8.28084 22.3086 8.31866 22.3212L9.21163 22.6469C9.25155 22.6616 9.29567 22.6532 9.32719 22.6238L9.5436 22.3338L9.54571 22.3212C9.10447 22.2161 8.67374 22.0859 8.25562 21.9283L8.24512 22.235Z" fill="#076AFC"/>
<path d="M19.2879 19.7095L19.5505 19.8503C19.5905 19.8608 19.6325 19.8503 19.6598 19.823L20.3448 19.1632C20.3742 19.1338 20.3868 19.0897 20.3763 19.0498L20.2103 18.7283L20.2082 18.7262C19.9245 19.0729 19.6157 19.4006 19.2879 19.7095Z" fill="#076AFC"/>
<path d="M22.3647 8.64505C22.392 8.61354 22.4004 8.57151 22.3878 8.53369L22.0957 7.63022C22.0831 7.59029 22.0495 7.56088 22.0075 7.55247L21.6461 7.56088L21.6419 7.56298C21.8289 7.96849 21.9928 8.38662 22.1294 8.81734L22.3647 8.64505Z" fill="#076AFC"/>
<path d="M13.5222 1.20501C13.5054 1.16719 13.4717 1.14198 13.4318 1.13567L12.4905 1.0012C12.4485 0.9949 12.4065 1.01381 12.3813 1.04743L12.23 1.3752V1.39411C12.6859 1.40462 13.1335 1.44034 13.5726 1.50547L13.5222 1.20501Z" fill="#076AFC"/>
<path d="M2.95853 5.88839C2.91861 5.88629 2.87869 5.9052 2.85558 5.93881L2.324 6.72673C2.30089 6.76245 2.29879 6.80657 2.3177 6.84439L2.54672 7.12384L2.56773 7.13435C2.77574 6.73303 3.00686 6.34643 3.2632 5.97663L2.95853 5.88839Z" fill="#076AFC"/>
<path d="M2.53829 17.434C2.51938 17.4697 2.51938 17.5117 2.53829 17.5475L3.01104 18.3711C3.03205 18.4068 3.07197 18.4299 3.114 18.4278L3.46698 18.3438L3.48169 18.3333C3.21275 17.974 2.96902 17.5937 2.7484 17.2008L2.53829 17.434Z" fill="#076AFC"/>
<path d="M12.7344 22.8717C12.7575 22.9053 12.7975 22.9242 12.8374 22.9221L13.785 22.857C13.827 22.8549 13.8648 22.8276 13.8816 22.7897L13.9615 22.4367L13.9594 22.4283C13.5223 22.5103 13.0769 22.567 12.621 22.5922L12.7344 22.8717Z" fill="#076AFC"/>
<path d="M22.0915 16.0956C22.1314 16.0893 22.165 16.062 22.1797 16.0262L22.5369 15.1459C22.5537 15.106 22.5453 15.0618 22.518 15.0282L22.2365 14.8013H22.2344C22.1146 15.2383 21.9696 15.6628 21.7994 16.0746L22.0915 16.0956Z" fill="#076AFC"/>
<path d="M19.9515 4.97651L20.1028 4.71597C20.1154 4.67605 20.1049 4.63402 20.0797 4.60461L19.4452 3.89653C19.4179 3.86502 19.3737 3.85241 19.3317 3.86081L19.0039 4.0163L18.9955 4.0247C19.3338 4.32306 19.6532 4.64033 19.9515 4.97651Z" fill="#076AFC"/>
<path d="M8.99916 1.51597C8.96974 1.48866 8.92772 1.47815 8.8878 1.48866L7.97382 1.7492C7.93389 1.7618 7.90238 1.79332 7.89397 1.83534L7.88977 2.19673L7.89607 2.21354C8.30789 2.04125 8.73442 1.89417 9.17145 1.77441L8.99916 1.51597Z" fill="#076AFC"/>
<path d="M1.25449 10.0885C1.21667 10.1032 1.18935 10.1368 1.18095 10.1768L1.01496 11.1118C1.00655 11.1538 1.02336 11.1958 1.05698 11.2231L1.38055 11.3849L1.40366 11.387C1.42888 10.9311 1.48561 10.4856 1.56755 10.0465L1.25449 10.0885Z" fill="#076AFC"/>
<path d="M1.39947 11.5152L1.0948 11.6013C1.05909 11.6202 1.03597 11.658 1.03597 11.698L1.00025 12.6477C0.998153 12.6897 1.02127 12.7296 1.05698 12.7506L1.39947 12.8662L1.42468 12.8641C1.40157 12.5783 1.38686 12.2926 1.38686 12.0005C1.38686 11.8387 1.39106 11.677 1.39947 11.5152Z" fill="#076AFC"/>
<path d="M5.56735 20.8063C5.56315 20.8462 5.58206 20.8861 5.61358 20.9092L6.38048 21.4681C6.4141 21.4933 6.46033 21.4975 6.49815 21.4786L6.786 21.2601L6.7923 21.2475C6.39939 21.0269 6.02119 20.7811 5.6619 20.5142L5.56735 20.8063Z" fill="#076AFC"/>
<path d="M17.0936 21.6299C17.1293 21.6509 17.1713 21.653 17.207 21.6341L18.0475 21.1887C18.0853 21.1698 18.1084 21.1299 18.1084 21.0878L18.037 20.7327L18.0349 20.7285C17.6672 20.9828 17.2806 21.216 16.8813 21.4219L17.0936 21.6299Z" fill="#076AFC"/>
<path d="M22.886 11.6328C22.9197 11.6097 22.9407 11.5719 22.9386 11.532L22.907 10.5823C22.9049 10.5402 22.8818 10.5024 22.8419 10.4835L22.4931 10.3911H22.491C22.5583 10.8302 22.594 11.2777 22.6066 11.7337L22.886 11.6328Z" fill="#076AFC"/>
<path d="M16.4372 2.04546C16.433 2.00554 16.4078 1.96982 16.37 1.95301L15.5022 1.56431C15.4644 1.5475 15.4182 1.5517 15.3846 1.57901L15.1493 1.85216L15.1472 1.86266C15.58 1.99714 15.9981 2.16102 16.4057 2.34592L16.4372 2.04546Z" fill="#076AFC"/>
<path d="M5.25709 3.80408L4.99235 3.63809C4.95453 3.62549 4.91041 3.63179 4.88099 3.65911L4.15191 4.26633C4.12039 4.29364 4.10568 4.33566 4.11409 4.37769L4.25696 4.70966L4.27587 4.72647C4.58263 4.4008 4.91041 4.08983 5.25709 3.80408Z" fill="#076AFC"/>
<path d="M1.40578 14.6185C1.37636 14.6479 1.36586 14.6878 1.37426 14.7278L1.60328 15.6501C1.61379 15.6901 1.6453 15.7237 1.68733 15.7342L2.04872 15.751L2.06763 15.7447C1.91004 15.3266 1.77978 14.8958 1.67472 14.4525L1.40578 14.6185Z" fill="#076AFC"/>
<path d="M9.70592 22.6553C9.71853 22.6931 9.75214 22.7225 9.78996 22.7309L10.7187 22.9305C10.7607 22.9389 10.8027 22.9242 10.83 22.8927L11.0044 22.5754V22.5649C10.5527 22.5229 10.1072 22.4514 9.6723 22.3548L9.70592 22.6553Z" fill="#076AFC"/>
<path d="M20.5718 18.7199C20.6117 18.7241 20.6516 18.7094 20.6769 18.6779L21.2631 17.9299C21.2883 17.8962 21.2946 17.8521 21.2778 17.8122L21.0698 17.5159H21.0677C20.8323 17.9004 20.5739 18.2681 20.2924 18.6169L20.5718 18.7199Z" fill="#076AFC"/>
<path d="M21.795 7.23309C21.8181 7.19947 21.8202 7.15535 21.8034 7.11963L21.3874 6.26658C21.3684 6.22876 21.3306 6.20355 21.2886 6.20145L20.9314 6.26028L20.9251 6.26448C21.1667 6.64058 21.3895 7.03139 21.5828 7.439L21.795 7.23309Z" fill="#076AFC"/>
<path d="M11.9987 1.38991C6.13688 1.38991 1.38477 6.14052 1.38477 12.0005C1.38477 17.8605 6.13688 22.6111 11.9987 22.6111C17.8606 22.6111 22.6127 17.8605 22.6127 12.0005C22.6127 6.14052 17.8606 1.38991 11.9987 1.38991Z" fill="url(#paint0_radial)"/>
<g opacity="0.3" filter="url(#ic24px_link)">
<path d="M12.1104 5.7L10.8892 6.40177L7.55792 8.32639L6.33679 9.02816V15.6845L7.55792 16.3863L10.9187 18.3109L12.1398 19.0147L13.3609 18.313L16.6607 16.3884L17.8818 15.6866V9.02816L16.6607 8.32639L13.3315 6.40177L12.1104 5.7ZM8.78116 14.2809V10.4338L12.1104 8.50918L15.4396 10.4338V14.2809L12.1104 16.2056L8.78116 14.2809Z" fill="black"/>
</g>
<path d="M12.1104 5.21184L10.8892 5.91361L7.55792 7.83823L6.33679 8.54V15.1963L7.55792 15.8981L10.9187 17.8227L12.1398 18.5266L13.3609 17.8248L16.6607 15.9002L17.8818 15.1984V8.54L16.6607 7.83823L13.3315 5.91361L12.1104 5.21184ZM8.78116 13.7928V9.94564L12.1104 8.02102L15.4396 9.94564V13.7928L12.1104 15.7174L8.78116 13.7928Z" fill="white"/>
<path opacity="0.5" fill-rule="evenodd" clip-rule="evenodd" d="M3.09221 17.4147C2.20094 15.8147 1.6691 13.9267 2.01931 12.0183L1.84419 12C1.48927 13.934 2.02189 15.8571 2.93273 17.4922C3.84412 19.1284 5.56996 20.8682 8.08245 21.7167L8.15197 21.5664C5.67448 20.7298 3.98291 19.0137 3.09221 17.4147Z" fill="url(#paint1_linear)"/>
<g filter="url(#filter1_f)">
<path fill-rule="evenodd" clip-rule="evenodd" d="M13.596 19.5003C11.7304 19.8448 9.78098 19.4883 7.93816 18.6411L7.87219 18.7918C9.7398 19.6504 11.725 20.0161 13.6315 19.6641C15.5393 19.3118 17.3609 18.2423 18.902 16.2437L18.7682 16.1397C17.2486 18.1104 15.4604 19.1561 13.596 19.5003Z" fill="url(#paint2_linear)"/>
</g>
<g filter="url(#filter2_f)">
<path fill-rule="evenodd" clip-rule="evenodd" d="M5.76081 16.56C4.57689 15.1428 4.00556 13.3301 3.93947 11.3804L3.76885 11.3945C3.83583 13.3704 4.41524 15.2174 5.62515 16.6658C6.8358 18.1151 8.67306 19.1595 11.2437 19.5367L11.2784 19.3755C8.74363 19.0035 6.94398 17.9764 5.76081 16.56Z" fill="url(#paint3_linear)"/>
</g>
<g opacity="0.4" filter="url(#filter3_f)">
<path fill-rule="evenodd" clip-rule="evenodd" d="M13.4045 17.3459C11.7815 17.5017 10.1442 17.052 8.63811 16.1907L8.5694 16.3147C10.0957 17.1875 11.7629 17.6477 13.4215 17.4885C15.0811 17.3292 16.7258 16.5503 18.2066 14.9564L18.1007 14.8576C16.6406 16.4292 15.0265 17.1902 13.4045 17.3459Z" fill="url(#paint4_linear)"/>
</g>
<path fill-rule="evenodd" clip-rule="evenodd" d="M21.4274 7.79938C20.4359 5.85518 19.0715 3.95674 16.9507 3.01646L17.0489 2.83333C19.1981 3.78625 20.5967 5.70897 21.6099 7.69586C22.6238 9.68396 22.8872 12.1875 22.0588 15.2083L21.864 15.1752C22.6808 12.1965 22.4182 9.74235 21.4274 7.79938Z" fill="url(#paint5_linear)"/>
<path fill-rule="evenodd" clip-rule="evenodd" d="M19.1106 7.97852C18.1469 6.53837 16.7193 5.04048 14.6581 4.34398L14.7535 4.20833C16.8424 4.9142 18.3032 6.43007 19.288 7.90183C20.2734 9.3745 20.7371 12.0785 19.932 14.3162L19.7426 14.2917C20.5366 12.0852 20.0736 9.41775 19.1106 7.97852Z" fill="url(#paint6_linear)"/>
<defs>
<filter id="ic24px_link" x="5.33679" y="4.7" width="13.5451" height="15.3147" filterUnits="userSpaceOnUse" color-interpolation-filters="sRGB">
<feFlood flood-opacity="0" result="BackgroundImageFix"/>
<feBlend mode="normal" in="SourceGraphic" in2="BackgroundImageFix" result="shape"/>
<feGaussianBlur stdDeviation="0.5" result="effect1_foregroundBlur"/>
</filter>
<filter id="filter1_f" x="6.87219" y="15.1397" width="13.0298" height="5.6574" filterUnits="userSpaceOnUse" color-interpolation-filters="sRGB">
<feFlood flood-opacity="0" result="BackgroundImageFix"/>
<feBlend mode="normal" in="SourceGraphic" in2="BackgroundImageFix" result="shape"/>
<feGaussianBlur stdDeviation="0.5" result="effect1_foregroundBlur"/>
</filter>
<filter id="filter2_f" x="2.76886" y="10.3804" width="9.50958" height="10.1563" filterUnits="userSpaceOnUse" color-interpolation-filters="sRGB">
<feFlood flood-opacity="0" result="BackgroundImageFix"/>
<feBlend mode="normal" in="SourceGraphic" in2="BackgroundImageFix" result="shape"/>
<feGaussianBlur stdDeviation="0.5" result="effect1_foregroundBlur"/>
</filter>
<filter id="filter3_f" x="7.5694" y="13.8576" width="11.6372" height="4.66208" filterUnits="userSpaceOnUse" color-interpolation-filters="sRGB">
<feFlood flood-opacity="0" result="BackgroundImageFix"/>
<feBlend mode="normal" in="SourceGraphic" in2="BackgroundImageFix" result="shape"/>
<feGaussianBlur stdDeviation="0.5" result="effect1_foregroundBlur"/>
</filter>
<radialGradient id="paint0_radial" cx="0" cy="0" r="1" gradientUnits="userSpaceOnUse" gradientTransform="translate(11.9985 12.0012) scale(10.614 10.6106)">
<stop offset="0.1358" stop-color="#2D90F9"/>
<stop offset="0.7046" stop-color="#0765F5"/>
<stop offset="0.7217" stop-color="#0763F0"/>
<stop offset="0.7429" stop-color="#075CE0"/>
<stop offset="0.7623" stop-color="#0753CC"/>
<stop offset="0.7778" stop-color="#075EE6"/>
<stop offset="0.8078" stop-color="#0768FD"/>
<stop offset="0.8378" stop-color="#0B6BFD"/>
<stop offset="0.9109" stop-color="#1270FC"/>
<stop offset="0.9233" stop-color="#0F70FC"/>
<stop offset="0.9623" stop-color="#0A71FC"/>
<stop offset="0.9725" stop-color="#1878FD"/>
<stop offset="0.9867" stop-color="#257FFF"/>
<stop offset="1" stop-color="#2981FF"/>
</radialGradient>
<linearGradient id="paint1_linear" x1="7.94724" y1="21.3644" x2="3.03751" y2="12.191" gradientUnits="userSpaceOnUse">
<stop stop-color="white" stop-opacity="0"/>
<stop offset="0.487847" stop-color="white" stop-opacity="0.517361"/>
<stop offset="1" stop-color="white" stop-opacity="0"/>
</linearGradient>
<linearGradient id="paint2_linear" x1="18.9194" y1="16.2867" x2="8.52155" y2="19.0142" gradientUnits="userSpaceOnUse">
<stop stop-opacity="0.39"/>
<stop offset="0.310764" stop-opacity="0.94"/>
<stop offset="0.487847" stop-opacity="0.9"/>
<stop offset="0.670139" stop-opacity="0.71"/>
<stop offset="1" stop-opacity="0.26"/>
</linearGradient>
<linearGradient id="paint3_linear" x1="11.2118" y1="19.5713" x2="4.42772" y2="11.5675" gradientUnits="userSpaceOnUse">
<stop stop-opacity="0.39"/>
<stop offset="0.310764" stop-opacity="0.87"/>
<stop offset="0.487847" stop-opacity="0.71"/>
<stop offset="0.670139"/>
<stop offset="1" stop-opacity="0.26"/>
</linearGradient>
<linearGradient id="paint4_linear" x1="18.218" y1="14.9945" x2="9.0947" y2="16.4812" gradientUnits="userSpaceOnUse">
<stop stop-opacity="0.79"/>
<stop offset="0.487847" stop-opacity="0.517361"/>
<stop offset="1" stop-opacity="0.72"/>
</linearGradient>
<linearGradient id="paint5_linear" x1="22.1774" y1="16.9585" x2="15.8775" y2="3.67491" gradientUnits="userSpaceOnUse">
<stop stop-color="white" stop-opacity="0"/>
<stop offset="0.487847" stop-color="white" stop-opacity="0.517361"/>
<stop offset="1" stop-color="white" stop-opacity="0"/>
</linearGradient>
<linearGradient id="paint6_linear" x1="19.6549" y1="14.7749" x2="15.8017" y2="4.11478" gradientUnits="userSpaceOnUse">
<stop stop-color="white" stop-opacity="0"/>
<stop offset="0.453125" stop-color="white" stop-opacity="0.57"/>
<stop offset="0.578125" stop-color="white" stop-opacity="0.44"/>
<stop offset="0.703125" stop-color="white" stop-opacity="0.29"/>
<stop offset="1" stop-color="white" stop-opacity="0"/>
</linearGradient>
</defs>
</svg>
