<svg width="24" height="24" viewBox="0 0 24 24" fill="none" xmlns="http://www.w3.org/2000/svg">
<path d="M12.0994 1.3929L12.0048 1.09666C11.9838 1.06094 11.946 1.03993 11.9061 1.03993L10.9564 1.03783C10.9144 1.03783 10.8745 1.06094 10.8555 1.09876L10.7505 1.44543L10.7526 1.46434C11.1623 1.41601 11.5762 1.3887 11.9985 1.3887C12.0321 1.3887 12.0657 1.3908 12.0994 1.3929Z" fill="#5A5EFC"/>
<path d="M2.19561 7.20229C2.15569 7.20649 2.11997 7.2296 2.10106 7.26532L1.68296 8.11834C1.66405 8.15616 1.66825 8.20238 1.69346 8.236L1.95819 8.48182L1.9792 8.48812C2.12838 8.06161 2.30486 7.64561 2.50656 7.24431L2.19561 7.20229Z" fill="#5A5EFC"/>
<path d="M3.38678 18.6929C3.37207 18.7307 3.37838 18.7727 3.40359 18.8063L3.98768 19.5564C4.01289 19.59 4.05491 19.6068 4.09903 19.5984L4.4352 19.4682L4.44781 19.4556C4.13265 19.1362 3.8364 18.7958 3.56327 18.4366L3.38678 18.6929Z" fill="#5A5EFC"/>
<path d="M14.2394 22.6596C14.2667 22.689 14.3087 22.7017 14.3466 22.6953L15.2752 22.5C15.3172 22.4915 15.3488 22.46 15.3614 22.4201L15.3908 22.0587L15.3887 22.0524C14.9664 22.1953 14.5336 22.313 14.0881 22.4033L14.2394 22.6596Z" fill="#5A5EFC"/>
<path d="M22.5648 14.6484C22.6048 14.6358 22.6342 14.6063 22.6426 14.5664L22.8737 13.6441C22.8842 13.6041 22.8716 13.56 22.8401 13.5306L22.5291 13.3457H22.5249C22.4682 13.7953 22.3863 14.2366 22.2749 14.6673L22.5648 14.6484Z" fill="#5A5EFC"/>
<path d="M19.0102 3.65572C19.0165 3.61581 19.0018 3.57589 18.9703 3.54857L18.2433 2.93717C18.2118 2.90985 18.1656 2.90355 18.1257 2.91826L17.8231 3.11576L17.8168 3.12626C18.1929 3.37419 18.5522 3.64522 18.8947 3.93726L19.0102 3.65572Z" fill="#5A5EFC"/>
<path d="M7.56783 2.03161C7.53421 2.0085 7.49219 2.00429 7.45437 2.0211L6.58664 2.40559C6.54882 2.4224 6.52151 2.46022 6.51941 2.50224L6.56563 2.86152L6.57614 2.88043C6.96063 2.65142 7.36193 2.44551 7.77583 2.26482L7.56783 2.03161Z" fill="#5A5EFC"/>
<path d="M6.85583 21.6112C6.85794 21.6511 6.88105 21.689 6.91676 21.7079L7.75508 22.1554C7.7929 22.1743 7.83702 22.1722 7.87274 22.1491L8.12696 21.8928L8.13117 21.8802C7.71096 21.7163 7.30126 21.5272 6.90836 21.3108L6.85583 21.6112Z" fill="#5A5EFC"/>
<path d="M18.3844 20.8233C18.4222 20.8401 18.4642 20.8338 18.4978 20.8107L19.2668 20.2539C19.3004 20.2287 19.3193 20.1867 19.313 20.1447L19.1933 19.8043L19.1891 19.8001C18.8592 20.1048 18.5083 20.3863 18.1428 20.6468L18.3844 20.8233Z" fill="#5A5EFC"/>
<path d="M22.7308 10.1185C22.7623 10.0912 22.777 10.0513 22.7686 10.0114L22.6047 9.07641C22.5984 9.03439 22.5669 9.00077 22.527 8.98607L22.1677 8.94405L22.1635 8.94615C22.2917 9.37266 22.3925 9.80968 22.4661 10.2572L22.7308 10.1185Z" fill="#5A5EFC"/>
<path d="M15.0104 1.52317C14.9999 1.48325 14.9705 1.45383 14.9306 1.44123L14.0187 1.1786C13.9788 1.16599 13.9347 1.1786 13.9053 1.21011L13.7099 1.51476L13.7078 1.52947C14.1553 1.60091 14.5944 1.70386 15.0209 1.82992L15.0104 1.52317Z" fill="#5A5EFC"/>
<path d="M3.89537 4.69154C3.85545 4.68313 3.81343 4.69784 3.78821 4.72726L3.1516 5.43321C3.12428 5.46472 3.11378 5.50884 3.12849 5.54876L3.31548 5.85762L3.33649 5.87232C3.59702 5.50464 3.88066 5.15377 4.18321 4.8218L3.89537 4.69154Z" fill="#5A5EFC"/>
<path d="M1.87418 16.0645C1.84897 16.096 1.84477 16.1401 1.85947 16.1779L2.21455 17.0604C2.22926 17.1003 2.26707 17.1276 2.3091 17.1318L2.66837 17.0982L2.68308 17.0898C2.46877 16.6969 2.27968 16.2872 2.1137 15.867L1.87418 16.0645Z" fill="#5A5EFC"/>
<path d="M11.1393 22.5714L11.2128 22.8676C11.2317 22.9034 11.2674 22.9286 11.3074 22.9307L12.2549 22.9979C12.297 23 12.3369 22.9811 12.36 22.9433L12.4881 22.605V22.5945C12.3264 22.6029 12.1625 22.6071 11.9986 22.6071C11.7087 22.6092 11.4229 22.5945 11.1393 22.5714Z" fill="#5A5EFC"/>
<path d="M21.4236 17.4596C21.4636 17.4596 21.5014 17.4364 21.5224 17.4028L21.9993 16.5813C22.0203 16.5456 22.0203 16.4994 21.9972 16.4637L21.7493 16.201H21.7472C21.5686 16.6149 21.3627 17.0162 21.1358 17.4007L21.4236 17.4596Z" fill="#5A5EFC"/>
<path d="M21.0366 5.91434C21.0534 5.87652 21.0513 5.8345 21.0282 5.80088L20.4988 5.01299C20.4757 4.97728 20.4336 4.95837 20.3916 4.96257L20.047 5.06972L20.0386 5.07602C20.3307 5.41639 20.6038 5.77357 20.8517 6.14966L21.0366 5.91434Z" fill="#5A5EFC"/>
<path d="M10.4873 1.19961C10.4621 1.1681 10.4221 1.15129 10.3822 1.15759L9.44096 1.28786C9.39894 1.29416 9.36322 1.32147 9.34851 1.36139L9.29388 1.71857L9.29809 1.73538C9.7288 1.62192 10.1721 1.53788 10.6238 1.47905L10.4873 1.19961Z" fill="#5A5EFC"/>
<path d="M1.62403 8.61208C1.58411 8.62048 1.5526 8.64989 1.53999 8.68771L1.24585 9.59116C1.23324 9.63108 1.24375 9.6752 1.27316 9.70672L1.56941 9.91262L1.59042 9.91682C1.67866 9.4714 1.79842 9.03649 1.93919 8.61208H1.62403Z" fill="#5A5EFC"/>
<path d="M4.40301 19.8253C4.3946 19.8653 4.40511 19.9073 4.43452 19.9346L5.11736 20.5964C5.14678 20.6258 5.1909 20.6363 5.23292 20.6237L5.54808 20.4472L5.55858 20.4346C5.20141 20.1615 4.86104 19.8653 4.53958 19.5501L4.40301 19.8253Z" fill="#5A5EFC"/>
<path d="M15.7025 22.2436C15.734 22.2688 15.776 22.2772 15.8138 22.2625L16.7068 21.939C16.7467 21.9243 16.774 21.8886 16.7803 21.8465L16.7593 21.4852L16.7572 21.481C16.358 21.6827 15.9441 21.8591 15.5176 22.0083L15.7025 22.2436Z" fill="#5A5EFC"/>
<path d="M22.9494 12.0074L22.6153 11.8687H22.609C22.609 11.9128 22.6132 11.9569 22.6132 12.001C22.6132 12.4108 22.588 12.8163 22.5418 13.2133L22.8318 13.1524C22.8696 13.1356 22.8948 13.0999 22.899 13.06L22.9998 12.1145C23.004 12.0725 22.9851 12.0305 22.9494 12.0074Z" fill="#5A5EFC"/>
<path d="M17.7807 2.76068C17.7807 2.72076 17.7618 2.68294 17.7261 2.65983L16.9214 2.15558C16.8857 2.13246 16.8395 2.13246 16.8037 2.15347L16.5327 2.39299L16.5285 2.4035C16.9361 2.59679 17.329 2.8153 17.7072 3.05692L17.7807 2.76068Z" fill="#5A5EFC"/>
<path d="M6.22484 2.74387C6.18913 2.72496 6.14501 2.72706 6.11139 2.74808L5.30459 3.25022C5.26887 3.27334 5.24786 3.31326 5.24996 3.35528L5.34451 3.70405L5.35922 3.72296C5.71009 3.44142 6.07777 3.18089 6.46226 2.94557L6.22484 2.74387Z" fill="#5A5EFC"/>
<path d="M1.14299 13.1188C1.10937 13.144 1.09256 13.1818 1.09676 13.2218L1.19551 14.1672C1.19972 14.2093 1.22703 14.245 1.26695 14.2618L1.62203 14.329L1.64304 14.3248C1.54639 13.8899 1.47495 13.4445 1.43293 12.9906L1.14299 13.1188Z" fill="#5A5EFC"/>
<path d="M8.24506 22.2331C8.25346 22.273 8.28077 22.3067 8.31859 22.3193L9.21153 22.6449C9.25145 22.6596 9.29558 22.6512 9.32709 22.6218L9.5435 22.3319L9.5456 22.3193C9.10438 22.2142 8.67367 22.084 8.25556 21.9264L8.24506 22.2331Z" fill="#5A5EFC"/>
<path d="M19.2881 19.7077L19.5508 19.8485C19.5907 19.859 19.6327 19.8485 19.66 19.8211L20.345 19.1614C20.3744 19.132 20.387 19.0879 20.3765 19.048L20.2105 18.7265L20.2084 18.7244C19.9248 19.0711 19.6159 19.3988 19.2881 19.7077Z" fill="#5A5EFC"/>
<path d="M22.365 8.6436C22.3923 8.61208 22.4007 8.57006 22.3881 8.53224L22.096 7.62879C22.0834 7.58887 22.0498 7.55946 22.0078 7.55106L21.6464 7.55946L21.6422 7.56156C21.8292 7.96706 21.9931 8.38517 22.1297 8.81588L22.365 8.6436Z" fill="#5A5EFC"/>
<path d="M13.5223 1.20381C13.5055 1.16599 13.4719 1.14078 13.432 1.13447L12.4907 1.00001C12.4487 0.993702 12.4067 1.01261 12.3814 1.04623L12.2302 1.37399V1.3929C12.6861 1.40341 13.1336 1.43912 13.5727 1.50426L13.5223 1.20381Z" fill="#5A5EFC"/>
<path d="M2.95821 5.88703C2.91829 5.88493 2.87837 5.90384 2.85526 5.93745L2.32369 6.72535C2.30058 6.76106 2.29848 6.80519 2.31739 6.843L2.5464 7.12244L2.56741 7.13295C2.77542 6.73165 3.00653 6.34506 3.26286 5.97527L2.95821 5.88703Z" fill="#5A5EFC"/>
<path d="M2.53799 17.4323C2.51908 17.468 2.51908 17.51 2.53799 17.5457L3.01072 18.3693C3.03173 18.405 3.07165 18.4281 3.11367 18.426L3.46665 18.342L3.48135 18.3315C3.21242 17.9722 2.9687 17.5919 2.74809 17.199L2.53799 17.4323Z" fill="#5A5EFC"/>
<path d="M12.7347 22.8697C12.7578 22.9034 12.7977 22.9223 12.8376 22.9202L13.7852 22.855C13.8272 22.8529 13.865 22.8256 13.8818 22.7878L13.9617 22.4348L13.9596 22.4264C13.5226 22.5084 13.0771 22.5651 12.6212 22.5903L12.7347 22.8697Z" fill="#5A5EFC"/>
<path d="M22.0919 16.0939C22.1318 16.0876 22.1654 16.0603 22.1802 16.0246L22.5373 15.1442C22.5541 15.1043 22.5457 15.0602 22.5184 15.0266L22.2369 14.7997H22.2348C22.115 15.2367 21.9701 15.6611 21.7999 16.0729L22.0919 16.0939Z" fill="#5A5EFC"/>
<path d="M19.9521 4.97517L20.1033 4.71464C20.1159 4.67472 20.1054 4.6327 20.0802 4.60328L19.4457 3.89524C19.4184 3.86372 19.3743 3.85111 19.3323 3.85952L19.0045 4.01499L18.9961 4.0234C19.3344 4.32175 19.6537 4.639 19.9521 4.97517Z" fill="#5A5EFC"/>
<path d="M8.99936 1.51477C8.96995 1.48745 8.92793 1.47695 8.88801 1.48745L7.97406 1.74798C7.93414 1.76059 7.90262 1.7921 7.89422 1.83412L7.89001 2.1955L7.89632 2.21231C8.30812 2.04003 8.73463 1.89295 9.17165 1.77319L8.99936 1.51477Z" fill="#5A5EFC"/>
<path d="M1.25423 10.087C1.21641 10.1017 1.1891 10.1353 1.1807 10.1753L1.01471 11.1102C1.00631 11.1522 1.02312 11.1943 1.05674 11.2216L1.3803 11.3834L1.40341 11.3855C1.42862 10.9295 1.48535 10.4841 1.56729 10.045L1.25423 10.087Z" fill="#5A5EFC"/>
<path d="M1.39927 11.5136L1.09462 11.5998C1.0589 11.6187 1.03579 11.6565 1.03579 11.6964L1.00007 12.6461C0.99797 12.6881 1.02108 12.728 1.0568 12.749L1.39927 12.8646L1.42448 12.8625C1.40137 12.5767 1.38666 12.291 1.38666 11.999C1.38666 11.8372 1.39086 11.6754 1.39927 11.5136Z" fill="#5A5EFC"/>
<path d="M5.56741 20.8044C5.56321 20.8443 5.58212 20.8843 5.61364 20.9074L6.38052 21.4662C6.41413 21.4915 6.46036 21.4957 6.49818 21.4767L6.78602 21.2582L6.79232 21.2456C6.39943 21.025 6.02124 20.7792 5.66196 20.5124L5.56741 20.8044Z" fill="#5A5EFC"/>
<path d="M17.0939 21.628C17.1296 21.649 17.1716 21.6511 17.2073 21.6322L18.0477 21.1868C18.0855 21.1679 18.1087 21.128 18.1087 21.086L18.0372 20.7309L18.0351 20.7267C17.6674 20.9809 17.2809 21.2141 16.8817 21.42L17.0939 21.628Z" fill="#5A5EFC"/>
<path d="M22.8863 11.6313C22.9199 11.6082 22.941 11.5703 22.9389 11.5304L22.9073 10.5808C22.9052 10.5387 22.8821 10.5009 22.8422 10.482L22.4934 10.3896H22.4913C22.5586 10.8287 22.5943 11.2762 22.6069 11.7321L22.8863 11.6313Z" fill="#5A5EFC"/>
<path d="M16.4377 2.04422C16.4335 2.0043 16.4083 1.96859 16.3704 1.95178L15.5027 1.56309C15.4649 1.54628 15.4187 1.55048 15.3851 1.57779L15.1497 1.85093L15.1476 1.86143C15.5805 1.9959 15.9986 2.15978 16.4062 2.34467L16.4377 2.04422Z" fill="#5A5EFC"/>
<path d="M5.25797 3.80279L4.99324 3.63681C4.95542 3.62421 4.9113 3.63051 4.88188 3.65782L4.15282 4.26502C4.12131 4.29234 4.1066 4.33436 4.115 4.37638L4.25787 4.70834L4.27678 4.72515C4.58353 4.39949 4.9113 4.08854 5.25797 3.80279Z" fill="#5A5EFC"/>
<path d="M1.40553 14.6169C1.37612 14.6463 1.36561 14.6862 1.37402 14.7261L1.60303 15.6485C1.61354 15.6884 1.64505 15.722 1.68707 15.7325L2.04845 15.7493L2.06736 15.743C1.90978 15.3249 1.77952 14.8942 1.67447 14.4509L1.40553 14.6169Z" fill="#5A5EFC"/>
<path d="M9.7058 22.6533C9.7184 22.6911 9.75202 22.7206 9.78984 22.729L10.7185 22.9286C10.7605 22.937 10.8025 22.9223 10.8299 22.8907L11.0042 22.5735V22.563C10.5525 22.521 10.1071 22.4495 9.67218 22.3529L9.7058 22.6533Z" fill="#5A5EFC"/>
<path d="M20.5724 18.7181C20.6123 18.7223 20.6522 18.7076 20.6775 18.6761L21.2637 17.9281C21.2889 17.8945 21.2952 17.8504 21.2784 17.8104L21.0704 17.5142H21.0683C20.8329 17.8987 20.5745 18.2664 20.293 18.6151L20.5724 18.7181Z" fill="#5A5EFC"/>
<path d="M21.7954 7.23168C21.8185 7.19807 21.8206 7.15395 21.8038 7.11823L21.3878 6.26521C21.3689 6.22739 21.3311 6.20217 21.2891 6.20007L20.9319 6.2589L20.9256 6.2631C21.1672 6.63919 21.3899 7.02998 21.5832 7.43759L21.7954 7.23168Z" fill="#5A5EFC"/>
<path d="M11.9989 1.3887C6.13685 1.3887 1.38458 6.13916 1.38458 11.999C1.38458 17.8588 6.13685 22.6092 11.9989 22.6092C17.8609 22.6092 22.6132 17.8588 22.6132 11.999C22.6132 6.13916 17.8609 1.3887 11.9989 1.3887Z" fill="url(#paint0_radial)"/>
<g opacity="0.3" filter="url(#ic24px_eth)">
<path d="M12.8901 5.21001L17.43 12.74L12.8901 15.42L8.3501 12.74L12.8901 5.21001Z" fill="black"/>
<path d="M12.8901 19.99L8.3501 13.6L12.8901 16.28L17.4301 13.6L12.8901 19.99Z" fill="black"/>
</g>
<path d="M12.2899 4.50999L12.1899 4.83999V14.62L12.2899 14.72L16.8299 12.04L12.2899 4.50999Z" fill="#E2E2E2"/>
<path d="M12.29 4.50999L7.75 12.04L12.29 14.72V9.96999V4.50999Z" fill="white"/>
<path d="M12.29 15.58L12.23 15.65V19.13L12.29 19.29L16.83 12.9L12.29 15.58Z" fill="#E2E2E2"/>
<path d="M12.29 19.29V15.58L7.75 12.9L12.29 19.29Z" fill="white"/>
<path d="M12.29 14.72L16.83 12.04L12.29 9.97V14.72Z" fill="#D6D6D6"/>
<path d="M7.75 12.04L12.29 14.72V9.97L7.75 12.04Z" fill="#CFCFCF"/>
<path opacity="0.5" fill-rule="evenodd" clip-rule="evenodd" d="M3.09208 17.4147C2.20082 15.8147 1.66898 13.9267 2.01919 12.0183L1.84407 12C1.48915 13.934 2.02177 15.8571 2.9326 17.4922C3.844 19.1284 5.56983 20.8682 8.08233 21.7167L8.15185 21.5664C5.67436 20.7298 3.98279 19.0137 3.09208 17.4147Z" fill="url(#paint1_linear)"/>
<g filter="url(#filter1_f)">
<path fill-rule="evenodd" clip-rule="evenodd" d="M13.5959 19.5003C11.7303 19.8448 9.78086 19.4883 7.93803 18.6411L7.87207 18.7918C9.73968 19.6504 11.7249 20.0161 13.6314 19.6641C15.5392 19.3118 17.3607 18.2423 18.9018 16.2437L18.7681 16.1397C17.2485 18.1104 15.4603 19.1561 13.5959 19.5003Z" fill="url(#paint2_linear)"/>
</g>
<g filter="url(#filter2_f)">
<path fill-rule="evenodd" clip-rule="evenodd" d="M5.76069 16.56C4.57677 15.1428 4.00544 13.3301 3.93935 11.3804L3.76873 11.3945C3.8357 13.3704 4.41511 15.2174 5.62502 16.6658C6.83568 18.1151 8.67294 19.1595 11.2436 19.5367L11.2783 19.3755C8.74351 19.0035 6.94386 17.9764 5.76069 16.56Z" fill="url(#paint3_linear)"/>
</g>
<g opacity="0.4" filter="url(#filter3_f)">
<path fill-rule="evenodd" clip-rule="evenodd" d="M13.4044 17.3459C11.7814 17.5017 10.1441 17.052 8.63799 16.1907L8.56927 16.3147C10.0956 17.1875 11.7628 17.6477 13.4214 17.4885C15.081 17.3292 16.7256 16.5503 18.2064 14.9564L18.1006 14.8576C16.6404 16.4292 15.0263 17.1902 13.4044 17.3459Z" fill="url(#paint4_linear)"/>
</g>
<path fill-rule="evenodd" clip-rule="evenodd" d="M21.4273 7.79938C20.4358 5.85518 19.0713 3.95674 16.9506 3.01646L17.0488 2.83333C19.198 3.78625 20.5965 5.70897 21.6098 7.69586C22.6237 9.68396 22.887 12.1875 22.0586 15.2083L21.8638 15.1752C22.6807 12.1965 22.4181 9.74235 21.4273 7.79938Z" fill="url(#paint5_linear)"/>
<path fill-rule="evenodd" clip-rule="evenodd" d="M19.1105 7.97852C18.1468 6.53837 16.7191 5.04048 14.658 4.34398L14.7533 4.20833C16.8422 4.9142 18.3031 6.43007 19.2879 7.90183C20.2733 9.3745 20.737 12.0785 19.9319 14.3162L19.7425 14.2917C20.5364 12.0852 20.0735 9.41775 19.1105 7.97852Z" fill="url(#paint6_linear)"/>
<defs>
<filter id="ic24px_eth" x="7.3501" y="4.21001" width="11.08" height="16.7799" filterUnits="userSpaceOnUse" color-interpolation-filters="sRGB">
<feFlood flood-opacity="0" result="BackgroundImageFix"/>
<feBlend mode="normal" in="SourceGraphic" in2="BackgroundImageFix" result="shape"/>
<feGaussianBlur stdDeviation="0.5" result="effect1_foregroundBlur"/>
</filter>
<filter id="filter1_f" x="6.87207" y="15.1397" width="13.0298" height="5.6574" filterUnits="userSpaceOnUse" color-interpolation-filters="sRGB">
<feFlood flood-opacity="0" result="BackgroundImageFix"/>
<feBlend mode="normal" in="SourceGraphic" in2="BackgroundImageFix" result="shape"/>
<feGaussianBlur stdDeviation="0.5" result="effect1_foregroundBlur"/>
</filter>
<filter id="filter2_f" x="2.76874" y="10.3804" width="9.50958" height="10.1563" filterUnits="userSpaceOnUse" color-interpolation-filters="sRGB">
<feFlood flood-opacity="0" result="BackgroundImageFix"/>
<feBlend mode="normal" in="SourceGraphic" in2="BackgroundImageFix" result="shape"/>
<feGaussianBlur stdDeviation="0.5" result="effect1_foregroundBlur"/>
</filter>
<filter id="filter3_f" x="7.56927" y="13.8576" width="11.6372" height="4.66208" filterUnits="userSpaceOnUse" color-interpolation-filters="sRGB">
<feFlood flood-opacity="0" result="BackgroundImageFix"/>
<feBlend mode="normal" in="SourceGraphic" in2="BackgroundImageFix" result="shape"/>
<feGaussianBlur stdDeviation="0.5" result="effect1_foregroundBlur"/>
</filter>
<radialGradient id="paint0_radial" cx="0" cy="0" r="1" gradientUnits="userSpaceOnUse" gradientTransform="translate(11.9987 11.9996) scale(10.6143 10.6103)">
<stop offset="0.1358" stop-color="#B1B7FF"/>
<stop offset="0.7046" stop-color="#585BF5"/>
<stop offset="0.7248" stop-color="#5659F0"/>
<stop offset="0.7498" stop-color="#5153E0"/>
<stop offset="0.7623" stop-color="#4244CF"/>
<stop offset="0.7778" stop-color="#4B4EE9"/>
<stop offset="0.8078" stop-color="#5B5EFD"/>
<stop offset="0.8331" stop-color="#6164FF"/>
<stop offset="0.9109" stop-color="#6D70FF"/>
<stop offset="0.9233" stop-color="#6A6EFF"/>
<stop offset="0.9623" stop-color="#6065FA"/>
<stop offset="0.9644" stop-color="#6065FF"/>
<stop offset="0.9828" stop-color="#6D71FF"/>
<stop offset="1" stop-color="#898CFF"/>
</radialGradient>
<linearGradient id="paint1_linear" x1="7.94712" y1="21.3644" x2="3.03739" y2="12.191" gradientUnits="userSpaceOnUse">
<stop stop-color="white" stop-opacity="0"/>
<stop offset="0.487847" stop-color="white" stop-opacity="0.517361"/>
<stop offset="1" stop-color="white" stop-opacity="0"/>
</linearGradient>
<linearGradient id="paint2_linear" x1="18.9193" y1="16.2867" x2="8.52143" y2="19.0142" gradientUnits="userSpaceOnUse">
<stop stop-opacity="0.39"/>
<stop offset="0.310764" stop-opacity="0.94"/>
<stop offset="0.487847" stop-opacity="0.9"/>
<stop offset="0.670139" stop-opacity="0.71"/>
<stop offset="1" stop-opacity="0.26"/>
</linearGradient>
<linearGradient id="paint3_linear" x1="11.2117" y1="19.5713" x2="4.4276" y2="11.5675" gradientUnits="userSpaceOnUse">
<stop stop-opacity="0.39"/>
<stop offset="0.310764" stop-opacity="0.87"/>
<stop offset="0.487847" stop-opacity="0.71"/>
<stop offset="0.670139"/>
<stop offset="1" stop-opacity="0.26"/>
</linearGradient>
<linearGradient id="paint4_linear" x1="18.2179" y1="14.9945" x2="9.09458" y2="16.4812" gradientUnits="userSpaceOnUse">
<stop stop-opacity="0.79"/>
<stop offset="0.487847" stop-opacity="0.517361"/>
<stop offset="1" stop-opacity="0.72"/>
</linearGradient>
<linearGradient id="paint5_linear" x1="22.1773" y1="16.9585" x2="15.8774" y2="3.67491" gradientUnits="userSpaceOnUse">
<stop stop-color="white" stop-opacity="0"/>
<stop offset="0.487847" stop-color="white" stop-opacity="0.517361"/>
<stop offset="1" stop-color="white" stop-opacity="0"/>
</linearGradient>
<linearGradient id="paint6_linear" x1="19.6548" y1="14.7749" x2="15.8016" y2="4.11478" gradientUnits="userSpaceOnUse">
<stop stop-color="white" stop-opacity="0"/>
<stop offset="0.453125" stop-color="white" stop-opacity="0.57"/>
<stop offset="0.578125" stop-color="white" stop-opacity="0.44"/>
<stop offset="0.703125" stop-color="white" stop-opacity="0.29"/>
<stop offset="1" stop-color="white" stop-opacity="0"/>
</linearGradient>
</defs>
</svg>
