<svg width="24" height="24" viewBox="0 0 24 24" fill="none" xmlns="http://www.w3.org/2000/svg">
<path d="M12.0996 1.39411L12.005 1.09786C11.984 1.06214 11.9462 1.04113 11.9062 1.04113L10.9562 1.03902C10.9142 1.03902 10.8743 1.06214 10.8554 1.09996L10.7503 1.44664L10.7524 1.46555C11.1622 1.41722 11.5763 1.38991 11.9987 1.38991C12.0324 1.38991 12.066 1.39201 12.0996 1.39411Z" fill="#33ACDD"/>
<path d="M2.19602 7.20368C2.15608 7.20789 2.12035 7.231 2.10144 7.26672L1.68318 8.11977C1.66427 8.15759 1.66847 8.20381 1.69369 8.23743L1.95852 8.48326L1.97954 8.48956C2.12876 8.06304 2.30531 7.64702 2.50708 7.24571L2.19602 7.20368Z" fill="#33ACDD"/>
<path d="M3.38776 18.6947C3.37305 18.7325 3.37935 18.7745 3.40457 18.8081L3.98887 19.5582C4.01409 19.5918 4.05612 19.6086 4.10026 19.6002L4.43655 19.47L4.44916 19.4574C4.13389 19.138 3.83754 18.7976 3.56431 18.4383L3.38776 18.6947Z" fill="#33ACDD"/>
<path d="M14.2392 22.6616C14.2666 22.691 14.3086 22.7036 14.3464 22.6973L15.2754 22.5019C15.3175 22.4935 15.349 22.462 15.3616 22.422L15.391 22.0606L15.3889 22.0543C14.9665 22.1972 14.5335 22.3149 14.0879 22.4052L14.2392 22.6616Z" fill="#33ACDD"/>
<path d="M22.5644 14.65C22.6043 14.6374 22.6337 14.608 22.6421 14.5681L22.8733 13.6457C22.8838 13.6058 22.8712 13.5617 22.8397 13.5322L22.5286 13.3473H22.5244C22.4677 13.797 22.3857 14.2382 22.2743 14.6689L22.5644 14.65Z" fill="#33ACDD"/>
<path d="M19.0103 3.65701C19.0166 3.61709 19.0019 3.57717 18.9703 3.54985L18.2431 2.93843C18.2116 2.91111 18.1654 2.90481 18.1254 2.91952L17.8228 3.11702L17.8165 3.12753C18.1927 3.37546 18.5521 3.6465 18.8947 3.93856L19.0103 3.65701Z" fill="#33ACDD"/>
<path d="M7.56821 2.03285C7.53458 2.00974 7.49254 2.00554 7.45471 2.02234L6.58668 2.40685C6.54884 2.42366 6.52152 2.46148 6.51942 2.5035L6.56566 2.86279L6.57617 2.8817C6.96079 2.65268 7.36223 2.44677 7.77628 2.26607L7.56821 2.03285Z" fill="#33ACDD"/>
<path d="M6.85567 21.6131C6.85777 21.653 6.88089 21.6909 6.91662 21.7098L7.75523 22.1573C7.79307 22.1762 7.8372 22.1741 7.87293 22.151L8.12725 21.8947L8.13145 21.8821C7.7111 21.7182 7.30125 21.5291 6.90822 21.3127L6.85567 21.6131Z" fill="#33ACDD"/>
<path d="M18.3839 20.8252C18.4217 20.842 18.4638 20.8357 18.4974 20.8126L19.2667 20.2558C19.3003 20.2306 19.3192 20.1886 19.3129 20.1465L19.1931 19.8062L19.1889 19.802C18.8589 20.1066 18.5079 20.3882 18.1422 20.6487L18.3839 20.8252Z" fill="#33ACDD"/>
<path d="M22.7304 10.12C22.7619 10.0927 22.7766 10.0528 22.7682 10.0129L22.6043 9.07787C22.598 9.03585 22.5665 9.00223 22.5265 8.98753L22.1671 8.94551L22.1629 8.94761C22.2911 9.37413 22.392 9.81116 22.4656 10.2587L22.7304 10.12Z" fill="#33ACDD"/>
<path d="M15.0106 1.52438C15.0001 1.48446 14.9707 1.45504 14.9307 1.44244L14.0185 1.1798C13.9786 1.16719 13.9345 1.1798 13.9051 1.21131L13.7096 1.51598L13.7075 1.53068C14.1552 1.60212 14.5944 1.70508 15.0211 1.83114L15.0106 1.52438Z" fill="#33ACDD"/>
<path d="M3.89637 4.69286C3.85643 4.68445 3.8144 4.69916 3.78918 4.72857L3.15234 5.43455C3.12502 5.46606 3.11451 5.51019 3.12922 5.55011L3.31628 5.85897L3.3373 5.87368C3.59792 5.50599 3.88166 5.1551 4.18431 4.82312L3.89637 4.69286Z" fill="#33ACDD"/>
<path d="M1.87446 16.0662C1.84923 16.0977 1.84503 16.1418 1.85974 16.1796L2.21494 17.0621C2.22966 17.102 2.26749 17.1293 2.30952 17.1335L2.66893 17.0999L2.68364 17.0915C2.46926 16.6986 2.2801 16.2889 2.11406 15.8687L1.87446 16.0662Z" fill="#33ACDD"/>
<path d="M11.1391 22.5733L11.2127 22.8696C11.2316 22.9053 11.2673 22.9305 11.3073 22.9326L12.2552 22.9998C12.2972 23.0019 12.3371 22.983 12.3603 22.9452L12.4885 22.6069V22.5964C12.3266 22.6048 12.1627 22.609 11.9987 22.609C11.7087 22.6111 11.4229 22.5964 11.1391 22.5733Z" fill="#33ACDD"/>
<path d="M21.4231 17.4613C21.463 17.4613 21.5008 17.4382 21.5219 17.4046L21.999 16.583C22.02 16.5473 22.02 16.5011 21.9969 16.4654L21.7488 16.2027H21.7467C21.5681 16.6167 21.3621 17.018 21.1351 17.4025L21.4231 17.4613Z" fill="#33ACDD"/>
<path d="M21.0363 5.9157C21.0532 5.87788 21.0511 5.83586 21.0279 5.80224L20.4983 5.01433C20.4752 4.97861 20.4331 4.9597 20.3911 4.9639L20.0464 5.07106L20.038 5.07736C20.3302 5.41774 20.6034 5.77493 20.8514 6.15103L21.0363 5.9157Z" fill="#33ACDD"/>
<path d="M10.4876 1.20081C10.4623 1.16929 10.4224 1.15248 10.3825 1.15879L9.44088 1.28905C9.39884 1.29536 9.36311 1.32267 9.3484 1.36259L9.29375 1.71978L9.29796 1.73659C9.72882 1.62313 10.1723 1.53909 10.6242 1.48026L10.4876 1.20081Z" fill="#33ACDD"/>
<path d="M1.62438 8.61353C1.58444 8.62194 1.55292 8.65135 1.54031 8.68917L1.24606 9.59265C1.23345 9.63257 1.24396 9.67669 1.27338 9.70821L1.56973 9.91412L1.59075 9.91832C1.67902 9.47289 1.79883 9.03796 1.93964 8.61353H1.62438Z" fill="#33ACDD"/>
<path d="M4.4029 19.8272C4.39449 19.8671 4.405 19.9091 4.43442 19.9364L5.1175 20.5983C5.14693 20.6277 5.19106 20.6382 5.2331 20.6256L5.54837 20.4491L5.55887 20.4365C5.20157 20.1633 4.86108 19.8671 4.53951 19.5519L4.4029 19.8272Z" fill="#33ACDD"/>
<path d="M15.702 22.2455C15.7336 22.2708 15.7756 22.2792 15.8134 22.2645L16.7067 21.9409C16.7466 21.9262 16.7739 21.8905 16.7803 21.8484L16.7592 21.487L16.7571 21.4828C16.3578 21.6845 15.9437 21.861 15.5171 22.0102L15.702 22.2455Z" fill="#33ACDD"/>
<path d="M22.949 12.0089L22.6148 11.8703H22.6085C22.6085 11.9144 22.6127 11.9585 22.6127 12.0026C22.6127 12.4123 22.5875 12.8179 22.5413 13.215L22.8313 13.154C22.8691 13.1372 22.8944 13.1015 22.8986 13.0616L22.9994 12.1161C23.0036 12.0741 22.9847 12.032 22.949 12.0089Z" fill="#33ACDD"/>
<path d="M17.7807 2.76194C17.7807 2.72201 17.7618 2.68419 17.7261 2.66108L16.9211 2.15682C16.8854 2.1337 16.8391 2.1337 16.8034 2.15471L16.5323 2.39424L16.5281 2.40475C16.9358 2.59805 17.3288 2.81656 17.7071 3.05819L17.7807 2.76194Z" fill="#33ACDD"/>
<path d="M6.22515 2.74513C6.18942 2.72622 6.14529 2.72832 6.11166 2.74933L5.30457 3.25149C5.26884 3.27461 5.24783 3.31453 5.24993 3.35655L5.34451 3.70533L5.35922 3.72424C5.71022 3.4427 6.07803 3.18216 6.46265 2.94683L6.22515 2.74513Z" fill="#33ACDD"/>
<path d="M1.14303 13.1204C1.10941 13.1456 1.09259 13.1834 1.0968 13.2234L1.19558 14.1689C1.19978 14.2109 1.22711 14.2466 1.26704 14.2634L1.62224 14.3307L1.64326 14.3265C1.54658 13.8915 1.47511 13.4461 1.43308 12.9922L1.14303 13.1204Z" fill="#33ACDD"/>
<path d="M8.24497 22.235C8.25338 22.275 8.2807 22.3086 8.31853 22.3212L9.21179 22.6469C9.25172 22.6616 9.29586 22.6532 9.32738 22.6237L9.54387 22.3338L9.54597 22.3212C9.1046 22.2161 8.67373 22.0859 8.25548 21.9283L8.24497 22.235Z" fill="#33ACDD"/>
<path d="M19.2877 19.7095L19.5504 19.8503C19.5904 19.8608 19.6324 19.8503 19.6597 19.823L20.3449 19.1632C20.3743 19.1338 20.3869 19.0897 20.3764 19.0498L20.2104 18.7283L20.2083 18.7262C19.9245 19.0729 19.6156 19.4006 19.2877 19.7095Z" fill="#33ACDD"/>
<path d="M22.3647 8.64505C22.392 8.61353 22.4004 8.57151 22.3878 8.53369L22.0957 7.63021C22.0831 7.59029 22.0494 7.56087 22.0074 7.55247L21.6459 7.56087L21.6417 7.56298C21.8287 7.96849 21.9927 8.38661 22.1293 8.81734L22.3647 8.64505Z" fill="#33ACDD"/>
<path d="M13.5225 1.20501C13.5057 1.16719 13.4721 1.14198 13.4321 1.13567L12.4905 1.0012C12.4485 0.9949 12.4065 1.01381 12.3813 1.04743L12.2299 1.3752V1.39411C12.686 1.40462 13.1337 1.44034 13.573 1.50547L13.5225 1.20501Z" fill="#33ACDD"/>
<path d="M2.959 5.88839C2.91907 5.88629 2.87914 5.9052 2.85602 5.93881L2.32427 6.72673C2.30115 6.76245 2.29905 6.80657 2.31796 6.84439L2.54706 7.12384L2.56807 7.13435C2.77615 6.73304 3.00735 6.34643 3.26376 5.97663L2.959 5.88839Z" fill="#33ACDD"/>
<path d="M2.53864 17.434C2.51973 17.4697 2.51973 17.5117 2.53864 17.5475L3.01154 18.3711C3.03256 18.4068 3.07249 18.4299 3.11453 18.4278L3.46763 18.3438L3.48234 18.3333C3.21331 17.974 2.96951 17.5937 2.74882 17.2008L2.53864 17.434Z" fill="#33ACDD"/>
<path d="M12.7343 22.8717C12.7574 22.9053 12.7974 22.9242 12.8373 22.9221L13.7852 22.857C13.8272 22.8549 13.8651 22.8276 13.8819 22.7897L13.9618 22.4367L13.9597 22.4283C13.5225 22.5103 13.0769 22.567 12.6208 22.5922L12.7343 22.8717Z" fill="#33ACDD"/>
<path d="M22.0915 16.0956C22.1314 16.0893 22.165 16.062 22.1797 16.0263L22.537 15.1459C22.5539 15.106 22.5455 15.0618 22.5181 15.0282L22.2365 14.8013H22.2344C22.1146 15.2383 21.9696 15.6628 21.7993 16.0746L22.0915 16.0956Z" fill="#33ACDD"/>
<path d="M19.9518 4.97651L20.1032 4.71597C20.1158 4.67605 20.1053 4.63403 20.08 4.60461L19.4453 3.89654C19.418 3.86502 19.3739 3.85241 19.3318 3.86082L19.0039 4.0163L18.9955 4.0247C19.3339 4.32306 19.6534 4.64033 19.9518 4.97651Z" fill="#33ACDD"/>
<path d="M8.99947 1.51597C8.97004 1.48866 8.92801 1.47815 8.88807 1.48866L7.9738 1.7492C7.93387 1.7618 7.90234 1.79332 7.89393 1.83534L7.88973 2.19674L7.89604 2.21354C8.30798 2.04125 8.73464 1.89418 9.17181 1.77441L8.99947 1.51597Z" fill="#33ACDD"/>
<path d="M1.25447 10.0885C1.21664 10.1032 1.18932 10.1368 1.18091 10.1768L1.01487 11.1118C1.00646 11.1538 1.02328 11.1958 1.0569 11.2231L1.38058 11.3849L1.4037 11.387C1.42892 10.9311 1.48567 10.4856 1.56764 10.0465L1.25447 10.0885Z" fill="#33ACDD"/>
<path d="M1.39947 11.5152L1.09471 11.6013C1.05898 11.6202 1.03586 11.658 1.03586 11.698L1.00013 12.6477C0.998031 12.6897 1.02115 12.7296 1.05688 12.7506L1.39947 12.8662L1.42469 12.8641C1.40157 12.5783 1.38686 12.2926 1.38686 12.0005C1.38686 11.8387 1.39106 11.677 1.39947 11.5152Z" fill="#33ACDD"/>
<path d="M5.56727 20.8063C5.56307 20.8462 5.58199 20.8861 5.61351 20.9092L6.38066 21.4681C6.41429 21.4933 6.46053 21.4975 6.49836 21.4786L6.7863 21.2601L6.79261 21.2475C6.39958 21.0269 6.02126 20.7811 5.66185 20.5142L5.56727 20.8063Z" fill="#33ACDD"/>
<path d="M17.0934 21.6299C17.1291 21.6509 17.1712 21.653 17.2069 21.6341L18.0476 21.1887C18.0855 21.1698 18.1086 21.1299 18.1086 21.0878L18.0371 20.7327L18.035 20.7285C17.6672 20.9828 17.2805 21.216 16.8811 21.4219L17.0934 21.6299Z" fill="#33ACDD"/>
<path d="M22.8859 11.6328C22.9196 11.6097 22.9406 11.5719 22.9385 11.532L22.907 10.5823C22.9049 10.5402 22.8817 10.5024 22.8418 10.4835L22.4929 10.3911H22.4908C22.5581 10.8302 22.5938 11.2777 22.6064 11.7337L22.8859 11.6328Z" fill="#33ACDD"/>
<path d="M16.4377 2.04546C16.4335 2.00554 16.4082 1.96982 16.3704 1.95301L15.5024 1.5643C15.4645 1.54749 15.4183 1.5517 15.3847 1.57901L15.1493 1.85215L15.1472 1.86266C15.5801 1.99713 15.9984 2.16102 16.4061 2.34592L16.4377 2.04546Z" fill="#33ACDD"/>
<path d="M5.25834 3.80409L4.99351 3.6381C4.95568 3.62549 4.91155 3.63179 4.88212 3.65911L4.1528 4.26633C4.12128 4.29364 4.10656 4.33567 4.11497 4.37769L4.25789 4.70966L4.27681 4.72647C4.58367 4.4008 4.91155 4.08984 5.25834 3.80409Z" fill="#33ACDD"/>
<path d="M1.40578 14.6185C1.37636 14.6479 1.36585 14.6878 1.37426 14.7278L1.60335 15.6502C1.61386 15.6901 1.64539 15.7237 1.68742 15.7342L2.04893 15.751L2.06784 15.7447C1.91021 15.3266 1.7799 14.8959 1.67481 14.4525L1.40578 14.6185Z" fill="#33ACDD"/>
<path d="M9.70571 22.6553C9.71832 22.6931 9.75195 22.7225 9.78978 22.7309L10.7188 22.9305C10.7608 22.9389 10.8028 22.9242 10.8302 22.8927L11.0046 22.5754V22.5649C10.5527 22.5229 10.1072 22.4515 9.67208 22.3548L9.70571 22.6553Z" fill="#33ACDD"/>
<path d="M20.5718 18.7199C20.6118 18.7241 20.6517 18.7094 20.6769 18.6779L21.2633 17.9299C21.2886 17.8962 21.2949 17.8521 21.278 17.8122L21.07 17.5159H21.0679C20.8325 17.9004 20.5739 18.2681 20.2923 18.6169L20.5718 18.7199Z" fill="#33ACDD"/>
<path d="M21.7951 7.2331C21.8182 7.19948 21.8203 7.15536 21.8035 7.11964L21.3873 6.26659C21.3684 6.22877 21.3306 6.20355 21.2886 6.20145L20.9313 6.26028L20.9249 6.26449C21.1667 6.64059 21.3894 7.03139 21.5828 7.43901L21.7951 7.2331Z" fill="#33ACDD"/>
<path d="M11.9987 1.38991C6.13688 1.38991 1.38477 6.14052 1.38477 12.0005C1.38477 17.8605 6.13688 22.6111 11.9987 22.6111C17.8606 22.6111 22.6127 17.8605 22.6127 12.0005C22.6127 6.14052 17.8606 1.38991 11.9987 1.38991Z" fill="url(#paint0_radial)"/>
<g opacity="0.3">
<path opacity="0.1" d="M4.7657 9.93933C4.79933 10.0003 4.86449 10.0444 4.94015 10.0444C5.01581 10.0444 5.08097 10.0024 5.1146 9.93933H5.2323C5.26592 10.0003 5.33108 10.0444 5.40674 10.0444C5.51604 10.0444 5.60431 9.95614 5.60431 9.84688C5.60431 9.80066 5.5896 9.76074 5.56227 9.72502C6.24745 7.85293 7.74812 6.35273 9.6208 5.66777C9.65443 5.69299 9.69437 5.70769 9.74061 5.70769C9.8499 5.70769 9.93817 5.61945 9.93817 5.51019C9.93817 5.43455 9.89614 5.36941 9.83308 5.3358V5.21813C9.89403 5.18452 9.93817 5.11938 9.93817 5.04374C9.93817 4.9681 9.89614 4.90297 9.83308 4.86935V4.61512V4.49115L9.71328 4.52687C8.46693 4.89666 7.32146 5.58163 6.39668 6.50401C5.4719 7.4285 4.78882 8.57571 4.41891 9.81957L4.38318 9.93933H4.50718H4.7657ZM7.0125 7.11964C6.2979 7.83402 5.74093 8.70598 5.39203 9.65148C5.32267 9.65568 5.26382 9.6977 5.2323 9.75443H5.1146C5.11039 9.74603 5.10409 9.73973 5.09988 9.73132C5.8229 7.605 7.50011 5.93041 9.62501 5.20553C9.63131 5.20973 9.63972 5.21603 9.64813 5.22024V5.3379C9.58928 5.36941 9.54934 5.43035 9.54514 5.49968C8.59934 5.84637 7.7271 6.40316 7.0125 7.11964ZM9.64813 4.74118V4.87145C9.58928 4.90297 9.54724 4.966 9.54514 5.03744C7.38031 5.78123 5.67577 7.48733 4.93174 9.65148C4.86028 9.65568 4.79933 9.6956 4.7678 9.75443H4.63539C5.38783 7.35707 7.25 5.49548 9.64813 4.74118Z" fill="black" fill-opacity="0.7"/>
<path opacity="0.1" d="M4.39997 10.3427H5.58327C5.6169 10.4037 5.68206 10.4478 5.75772 10.4478C5.86701 10.4478 5.95529 10.3596 5.95529 10.2503C5.95529 10.1936 5.93007 10.141 5.89223 10.1053C6.28316 8.89718 7.0377 7.83612 8.01923 7.06081C8.04445 7.07131 8.07178 7.07762 8.0991 7.07762C8.20839 7.07762 8.29667 6.98937 8.29667 6.88011C8.29667 6.87171 8.29667 6.8633 8.29456 6.8528C8.8137 6.4872 9.38749 6.19515 9.9991 5.99764C10.0348 6.03546 10.0853 6.06068 10.1441 6.06068C10.2534 6.06068 10.3417 5.97243 10.3417 5.86317C10.3417 5.78753 10.2997 5.7224 10.2366 5.68878V4.50586C10.2366 4.45543 10.1946 4.41341 10.1441 4.41341C10.0937 4.41341 10.0516 4.45543 10.0516 4.50586V5.68878C10.0033 5.7161 9.96548 5.76232 9.95287 5.81905C9.32233 6.02076 8.72543 6.31911 8.18527 6.70152C8.16005 6.68891 8.13273 6.68261 8.1012 6.68261C7.99191 6.68261 7.90363 6.77085 7.90363 6.88011C7.90363 6.89062 7.90363 6.89902 7.90574 6.90743C7.70186 7.06711 7.5064 7.2415 7.32144 7.4264C6.58372 8.16389 6.03095 9.07157 5.71358 10.0591C5.65894 10.0717 5.6127 10.1095 5.58537 10.1578H4.39997C4.34953 10.1578 4.3075 10.1999 4.3075 10.2503C4.3075 10.3007 4.34953 10.3427 4.39997 10.3427Z" fill="black" fill-opacity="0.7"/>
<path opacity="0.1" d="M4.31495 10.7462H5.89759C5.93122 10.8071 5.99637 10.8512 6.07204 10.8512C6.18133 10.8512 6.2696 10.763 6.2696 10.6537C6.2696 10.6054 6.25069 10.5592 6.22126 10.5255C6.24859 10.4205 6.28011 10.3154 6.31584 10.2104C6.71938 8.98542 7.52857 7.90545 8.59627 7.17006C9.15534 6.78556 9.76906 6.50191 10.4206 6.32751C10.4542 6.35693 10.5005 6.37374 10.5488 6.37374C10.6581 6.37374 10.7464 6.28549 10.7464 6.17623C10.7464 6.10059 10.7044 6.03546 10.6413 6.00184V4.4197C10.6413 4.36928 10.5993 4.32726 10.5488 4.32726C10.4984 4.32726 10.4563 4.36928 10.4563 4.4197V6.00184C10.4017 6.03126 10.3618 6.08799 10.3534 6.15312C9.68919 6.33382 9.06286 6.62377 8.49328 7.01668C7.39195 7.77518 6.55755 8.88877 6.14139 10.1515C6.10777 10.2524 6.07834 10.3553 6.04892 10.4583C5.98376 10.4667 5.92912 10.5066 5.89969 10.5613H4.31495C4.26451 10.5613 4.22247 10.6033 4.22247 10.6537C4.22247 10.7062 4.26451 10.7462 4.31495 10.7462Z" fill="black" fill-opacity="0.7"/>
<path opacity="0.1" d="M4.25183 11.1496H6.24431C6.27794 11.2105 6.3431 11.2546 6.41876 11.2546C6.52805 11.2546 6.61633 11.1664 6.61633 11.0571C6.61633 11.0109 6.59951 10.9668 6.57219 10.9332C6.72982 10.1789 7.04509 9.48129 7.47806 8.87196C7.49067 8.87406 7.50328 8.87617 7.51589 8.87617C7.62518 8.87617 7.71345 8.78792 7.71345 8.67866C7.71345 8.66185 7.71135 8.64504 7.70715 8.63034C7.81644 8.63034 7.90261 8.54209 7.90261 8.43283C7.90261 8.40762 7.89841 8.38451 7.89 8.36349C8.65505 7.52305 9.67861 6.91793 10.8283 6.6784C10.8619 6.70572 10.904 6.72043 10.9502 6.72043C11.0595 6.72043 11.1478 6.63218 11.1478 6.52292C11.1478 6.44728 11.1057 6.38215 11.0427 6.34853V4.35878C11.0427 4.30835 11.0006 4.26633 10.9502 4.26633C10.8997 4.26633 10.8577 4.30835 10.8577 4.35878V6.34853C10.801 6.37794 10.761 6.43467 10.7547 6.50191C9.68702 6.73303 8.7139 7.26041 7.93624 8.03992C7.87109 8.10506 7.80803 8.17019 7.74708 8.23743C7.73447 8.23533 7.71976 8.23323 7.70715 8.23323C7.59786 8.23323 7.50958 8.32147 7.50958 8.43073C7.50958 8.44754 7.51168 8.46435 7.51589 8.47906C7.40659 8.47906 7.32042 8.5673 7.32042 8.67656C7.32042 8.70177 7.32463 8.72489 7.33303 8.748C6.87905 9.37833 6.56168 10.0927 6.39774 10.8575C6.33259 10.8638 6.27584 10.9058 6.24431 10.9605H4.25393C4.20349 10.9605 4.16145 11.0025 4.16145 11.0529C4.15935 11.1075 4.20139 11.1496 4.25183 11.1496Z" fill="black" fill-opacity="0.7"/>
<path opacity="0.1" d="M4.20869 11.553H6.65305C6.68668 11.6139 6.75184 11.658 6.8275 11.658C6.93679 11.658 7.02507 11.5698 7.02507 11.4605C7.02507 11.3954 6.99354 11.3387 6.9452 11.3029C6.97463 11.1138 7.01246 10.9269 7.0608 10.7462C7.15748 10.7335 7.23314 10.6516 7.23314 10.5508C7.23314 10.4919 7.20792 10.4394 7.16589 10.4016C7.7712 8.64294 9.30339 7.33815 11.1971 7.0545C11.2328 7.10283 11.2896 7.13224 11.3547 7.13224C11.464 7.13224 11.5523 7.044 11.5523 6.93474C11.5523 6.8591 11.5103 6.79396 11.4472 6.76035V4.29574C11.4472 4.24532 11.4052 4.20329 11.3547 4.20329C11.3043 4.20329 11.2622 4.24532 11.2622 4.29574V6.76035C11.2181 6.78346 11.1866 6.82128 11.1698 6.8696C10.0684 7.03769 9.03647 7.55877 8.2441 8.34879C7.67662 8.91609 7.24786 9.60735 6.98934 10.3574C6.90527 10.3806 6.84221 10.4562 6.84221 10.5486C6.84221 10.5991 6.86113 10.6432 6.89056 10.6789C6.83591 10.8743 6.79387 11.0739 6.76445 11.2756C6.71821 11.2924 6.68038 11.3261 6.65726 11.3681H4.20869C4.15825 11.3681 4.11621 11.4101 4.11621 11.4605C4.11621 11.511 4.15825 11.553 4.20869 11.553Z" fill="black" fill-opacity="0.7"/>
<path opacity="0.1" d="M15.4543 14.7152C15.4627 14.7173 15.4732 14.7173 15.4816 14.7173C15.5909 14.7173 15.6792 14.629 15.6792 14.5198C15.6792 14.4861 15.6708 14.4546 15.6561 14.4273C16.0932 13.7444 16.3475 12.9355 16.3475 12.0678C16.3475 9.64937 14.3803 7.68063 11.9611 7.68063C11.0952 7.68063 10.286 7.93277 9.60505 8.3677C9.57562 8.35089 9.542 8.34248 9.50627 8.34248C9.39697 8.34248 9.3087 8.43073 9.3087 8.53999C9.3087 8.5526 9.3087 8.5631 9.3108 8.57361C8.25571 9.37623 7.57263 10.6432 7.57263 12.0699C7.57263 12.9376 7.82485 13.7444 8.25991 14.4252C8.2431 14.4546 8.23469 14.4861 8.23469 14.5219C8.23469 14.6311 8.32297 14.7194 8.43226 14.7194C8.44277 14.7194 8.45328 14.7194 8.46378 14.7173C8.70549 15.0366 8.99133 15.3224 9.3108 15.564C9.3108 15.5724 9.3087 15.5808 9.3087 15.5913C9.3087 15.7006 9.39697 15.7888 9.50627 15.7888C9.53989 15.7888 9.57142 15.7804 9.59874 15.7657C10.2818 16.2027 11.091 16.457 11.9611 16.457C13.3861 16.4528 14.6535 15.7699 15.4543 14.7152ZM11.9611 16.2658C11.1309 16.2658 10.3554 16.0241 9.70383 15.606C9.70383 15.5997 9.70383 15.5934 9.70383 15.585C9.70383 15.4758 9.61556 15.3875 9.50627 15.3875C9.47474 15.3875 9.44531 15.3959 9.42009 15.4085C9.11534 15.1774 8.84421 14.9043 8.61091 14.5996C8.62142 14.5744 8.62772 14.5471 8.62772 14.5177C8.62772 14.4084 8.53945 14.3201 8.43016 14.3201C8.42595 14.3201 8.41965 14.3201 8.41544 14.3201C7.99929 13.6688 7.75549 12.8935 7.75549 12.0636C7.75549 10.6978 8.41124 9.48339 9.42219 8.71438C9.44742 8.72489 9.47474 8.73119 9.50206 8.73119C9.61135 8.73119 9.69963 8.64294 9.69963 8.53368C9.69963 8.52948 9.69963 8.52528 9.69963 8.52108C10.3512 8.10506 11.1267 7.86133 11.9569 7.86133C14.2731 7.86133 16.1584 9.74603 16.1584 12.0615C16.1584 12.8914 15.9167 13.6667 15.4984 14.318C15.4921 14.318 15.4858 14.318 15.4795 14.318C15.3702 14.318 15.2819 14.4063 15.2819 14.5156C15.2819 14.5471 15.2883 14.5744 15.3009 14.6017C14.5379 15.6144 13.3231 16.2658 11.9611 16.2658Z" fill="black" fill-opacity="0.7"/>
<path opacity="0.1" d="M19.1492 14.192C19.1155 14.131 19.0504 14.0869 18.9747 14.0869C18.8991 14.0869 18.8339 14.1289 18.8003 14.192H18.6826C18.6489 14.131 18.5838 14.0869 18.5081 14.0869C18.3988 14.0869 18.3106 14.1752 18.3106 14.2844C18.3106 14.3327 18.3274 14.3748 18.3547 14.4105C17.6695 16.2784 16.173 17.7744 14.3046 18.4614C14.2709 18.4341 14.2268 18.4152 14.1785 18.4152C14.0692 18.4152 13.9809 18.5035 13.9809 18.6127C13.9809 18.6883 14.0229 18.7535 14.086 18.7871V18.9048C14.025 18.9384 13.9809 19.0035 13.9809 19.0792C13.9809 19.1548 14.0229 19.2199 14.086 19.2535V19.5183V19.6423L14.2058 19.6065C15.4521 19.2367 16.5976 18.5518 17.5224 17.6294C18.4472 16.7049 19.1302 15.5577 19.5002 14.3138L19.5359 14.1941H19.4119L19.1492 14.192ZM16.9087 17.0138C17.6233 16.2994 18.1802 15.4253 18.5291 14.4819C18.5964 14.4756 18.6531 14.4357 18.6847 14.379H18.8024C18.8087 14.3895 18.8129 14.3979 18.8213 14.4063C18.0983 16.5284 16.4253 18.2009 14.3046 18.9237C14.2962 18.9174 14.2857 18.9111 14.2751 18.9048V18.7871C14.3319 18.7577 14.3718 18.701 14.3781 18.6337C15.3197 18.2849 16.192 17.7281 16.9087 17.0138ZM14.273 19.3901V19.2514C14.3298 19.2199 14.3697 19.1632 14.376 19.0939C16.5409 18.3501 18.2475 16.644 18.9894 14.4798C19.0588 14.4735 19.1176 14.4336 19.1471 14.3769H19.2858C18.5312 16.7742 16.6691 18.6358 14.273 19.3901Z" fill="black" fill-opacity="0.7"/>
<path opacity="0.1" d="M19.5191 13.7886H18.3295C18.2958 13.7276 18.2307 13.6835 18.155 13.6835C18.0457 13.6835 17.9575 13.7717 17.9575 13.881C17.9575 13.9398 17.9827 13.9924 18.0247 14.0281C17.8271 14.6395 17.5371 15.211 17.1693 15.7279C17.1588 15.7258 17.1483 15.7258 17.1378 15.7258C17.0285 15.7258 16.9402 15.814 16.9402 15.9233C16.9402 15.9548 16.9465 15.9821 16.9591 16.0094C16.1836 16.9886 15.1264 17.7407 13.922 18.1316C13.8863 18.0895 13.8317 18.0622 13.7728 18.0622C13.6635 18.0622 13.5753 18.1505 13.5753 18.2597C13.5753 18.3354 13.6173 18.4005 13.6803 18.4341V19.6233C13.6803 19.6738 13.7224 19.7158 13.7728 19.7158C13.8233 19.7158 13.8653 19.6738 13.8653 19.6233V18.4341C13.9115 18.4089 13.9473 18.3648 13.962 18.3123C14.9498 17.995 15.8578 17.4424 16.5955 16.7028C16.7805 16.5179 16.9528 16.3225 17.1125 16.1187C17.121 16.1187 17.1273 16.1208 17.1357 16.1208C17.245 16.1208 17.3332 16.0325 17.3332 15.9233C17.3332 15.896 17.3269 15.8687 17.3164 15.8455C17.701 15.3014 17.9995 14.7025 18.2034 14.0701C18.2559 14.0554 18.3 14.0197 18.3253 13.9735H19.5149C19.5653 13.9735 19.6074 13.9314 19.6074 13.881C19.6137 13.8306 19.5716 13.7886 19.5191 13.7886Z" fill="black" fill-opacity="0.7"/>
<path opacity="0.1" d="M19.6052 13.3851H18.0163C17.9826 13.3242 17.9175 13.2801 17.8418 13.2801C17.7325 13.2801 17.6442 13.3683 17.6442 13.4776C17.6442 13.528 17.6632 13.5742 17.6968 13.61C17.6695 13.715 17.6379 13.818 17.6043 13.9209C17.2008 15.1459 16.3916 16.2258 15.3239 16.9612C14.7669 17.3457 14.1553 17.6273 13.5058 17.8017C13.4701 17.7681 13.4239 17.7492 13.3713 17.7492C13.262 17.7492 13.1738 17.8374 13.1738 17.9467C13.1738 18.0223 13.2158 18.0874 13.2789 18.1211V19.7095C13.2789 19.7599 13.3209 19.8019 13.3713 19.8019C13.4218 19.8019 13.4638 19.7599 13.4638 19.7095V18.1211C13.5164 18.0916 13.5563 18.0412 13.5647 17.9782C14.231 17.7975 14.8552 17.5075 15.4269 17.1146C16.5282 16.3561 17.3626 15.2425 17.7788 13.9798C17.8124 13.8789 17.8418 13.776 17.8712 13.673C17.9343 13.6625 17.9868 13.6247 18.0142 13.5721H19.6031C19.6535 13.5721 19.6956 13.5301 19.6956 13.4797C19.6998 13.4272 19.6556 13.3851 19.6052 13.3851Z" fill="black" fill-opacity="0.7"/>
<path opacity="0.1" d="M19.6683 12.9817H17.6716C17.638 12.9208 17.5728 12.8767 17.4972 12.8767C17.3879 12.8767 17.2996 12.9649 17.2996 13.0742C17.2996 13.1225 17.3185 13.1687 17.3479 13.2024C17.1062 14.3517 16.5009 15.3728 15.6623 16.1355C15.6392 16.125 15.614 16.1208 15.5888 16.1208C15.4795 16.1208 15.3912 16.209 15.3912 16.3183C15.3912 16.333 15.3933 16.3498 15.3975 16.3645C14.7375 16.8919 13.9536 17.2722 13.1003 17.4529C13.0645 17.4235 13.0204 17.4046 12.972 17.4046C12.8627 17.4046 12.7745 17.4928 12.7745 17.6021C12.7745 17.6777 12.8165 17.7429 12.8796 17.7765V19.7746C12.8796 19.8251 12.9216 19.8671 12.972 19.8671C13.0225 19.8671 13.0645 19.8251 13.0645 19.7746V17.7765C13.1192 17.7471 13.157 17.6924 13.1675 17.6294C14.0334 17.4424 14.8363 17.06 15.5257 16.5053C15.5467 16.5116 15.5677 16.5158 15.5909 16.5158C15.7001 16.5158 15.7884 16.4276 15.7884 16.3183C15.7884 16.3057 15.7863 16.2931 15.7842 16.2826C15.8536 16.2195 15.9208 16.1544 15.9881 16.0893C16.7678 15.3098 17.2975 14.337 17.5266 13.2696C17.5896 13.2612 17.6443 13.2213 17.6737 13.1666H19.6704C19.7208 13.1666 19.7629 13.1246 19.7629 13.0742C19.7608 13.0238 19.7208 12.9817 19.6683 12.9817Z" fill="black" fill-opacity="0.7"/>
<path opacity="0.1" d="M19.7105 12.5783H17.2598C17.2262 12.5174 17.161 12.4733 17.0854 12.4733C16.9761 12.4733 16.8878 12.5615 16.8878 12.6708C16.8878 12.738 16.9214 12.7968 16.9719 12.8326C16.686 14.7236 15.385 16.2511 13.6279 16.8583C13.5922 16.8142 13.5376 16.7847 13.4745 16.7847C13.3715 16.7847 13.2875 16.8646 13.2791 16.9633C13.0983 17.0117 12.9154 17.0495 12.7263 17.0789C12.6906 17.0285 12.6317 16.9928 12.5644 16.9928C12.4552 16.9928 12.3669 17.081 12.3669 17.1903C12.3669 17.2659 12.4089 17.331 12.472 17.3647V19.8356C12.472 19.886 12.514 19.928 12.5644 19.928C12.6149 19.928 12.6569 19.886 12.6569 19.8356V17.3647C12.6969 17.3436 12.7305 17.3058 12.7473 17.2638C12.9512 17.2323 13.1529 17.1903 13.3505 17.1356C13.3841 17.1629 13.4283 17.1798 13.4745 17.1798C13.5628 17.1798 13.6406 17.1188 13.6637 17.039C14.4161 16.7805 15.1076 16.3519 15.6751 15.7846C16.4674 14.9925 16.9887 13.9588 17.1568 12.8557C17.201 12.8389 17.2367 12.8073 17.2598 12.7653H19.7105C19.7609 12.7653 19.803 12.7233 19.803 12.6729C19.803 12.6203 19.7609 12.5783 19.7105 12.5783Z" fill="black" fill-opacity="0.7"/>
<path opacity="0.1" d="M11.961 8.11346C9.78147 8.11346 8.00757 9.8868 8.00757 12.0657C8.00757 14.2445 9.78147 16.0178 11.961 16.0178C14.1406 16.0178 15.9145 14.2445 15.9145 12.0657C15.9123 9.8868 14.1406 8.11346 11.961 8.11346ZM11.961 15.8329C9.88445 15.8329 8.19463 14.1437 8.19463 12.0678C8.19463 9.99186 9.88445 8.30046 11.961 8.30046C14.0376 8.30046 15.7274 9.98976 15.7274 12.0678C15.7274 14.1437 14.0376 15.8329 11.961 15.8329Z" fill="black" fill-opacity="0.7"/>
<path opacity="0.1" d="M11.9613 8.54839C10.7233 8.54839 9.63461 9.18923 9.00828 10.1578C9.00408 10.1578 8.99988 10.1578 8.99567 10.1578C8.88638 10.1578 8.79811 10.2461 8.79811 10.3553C8.79811 10.3953 8.81072 10.4331 8.83173 10.4646C8.58583 10.9458 8.44501 11.4899 8.44501 12.0656C8.44501 12.6393 8.58372 13.1834 8.82963 13.6625C8.81072 13.694 8.79811 13.7297 8.79811 13.7696C8.79811 13.8789 8.88638 13.9672 8.99567 13.9672C8.99778 13.9672 9.00198 13.9672 9.00408 13.9672C9.27521 14.3895 9.63461 14.7488 10.055 15.0198C10.055 15.024 10.055 15.0282 10.055 15.0324C10.055 15.1417 10.1432 15.2299 10.2525 15.2299C10.2925 15.2299 10.3303 15.2173 10.3618 15.1963C10.8431 15.4421 11.3875 15.5829 11.9634 15.5829C12.5393 15.5829 13.0815 15.4442 13.5607 15.1984C13.5923 15.2194 13.628 15.2299 13.6679 15.2299C13.7772 15.2299 13.8655 15.1417 13.8655 15.0324C13.8655 15.0282 13.8655 15.0261 13.8655 15.0219C14.8365 14.3958 15.4818 13.3032 15.4818 12.0635C15.4776 10.1263 13.9012 8.54839 11.9613 8.54839ZM13.7667 14.8643C13.7373 14.8475 13.7037 14.837 13.6658 14.837C13.5565 14.837 13.4683 14.9253 13.4683 15.0345V15.0366C13.0143 15.2677 12.5035 15.398 11.9613 15.398C11.4169 15.398 10.902 15.2656 10.448 15.0345C10.448 14.9253 10.3597 14.837 10.2504 14.837C10.2147 14.837 10.1811 14.8475 10.1517 14.8643C9.75652 14.608 9.41813 14.2697 9.16171 13.8726C9.18063 13.8432 9.19114 13.8075 9.19114 13.7717C9.19114 13.6625 9.10286 13.5742 8.99357 13.5742C8.99357 13.5742 8.99147 13.5742 8.98937 13.5742C8.75817 13.1225 8.62786 12.6098 8.62786 12.0677C8.62786 11.5236 8.76027 11.0088 8.99147 10.5528C9.10076 10.5528 9.18904 10.4646 9.18904 10.3553C9.18904 10.3196 9.17853 10.286 9.16382 10.2587C9.75862 9.34261 10.7885 8.73539 11.9592 8.73539C13.7982 8.73328 15.2926 10.2293 15.2926 12.0656C15.2926 13.2381 14.6831 14.2697 13.7667 14.8643Z" fill="black" fill-opacity="0.7"/>
<path opacity="0.1" d="M12.163 7.53356C12.2302 7.53356 12.2912 7.49784 12.3269 7.44531C14.5779 7.62391 16.4022 9.44557 16.583 11.6959C16.5262 11.7316 16.4884 11.7925 16.4884 11.864C16.4884 11.9732 16.5767 12.0615 16.686 12.0615C16.7616 12.0615 16.8268 12.0194 16.8604 11.9564H19.7125V11.7715H16.8604C16.8394 11.7337 16.8079 11.7043 16.768 11.6854C16.6776 10.5424 16.1858 9.47288 15.3703 8.65765C14.5548 7.84242 13.4871 7.35076 12.3437 7.26041C12.3269 7.21839 12.2954 7.18267 12.2554 7.16166V4.29575H12.0705V7.16166C12.0095 7.19528 11.9654 7.26041 11.9654 7.33605C11.9654 7.44321 12.0537 7.53356 12.163 7.53356Z" fill="black" fill-opacity="0.7"/>
<path opacity="0.1" d="M12.5664 7.13224C12.6295 7.13224 12.6883 7.10073 12.724 7.0545C12.9132 7.08392 13.1003 7.12174 13.2831 7.17006C13.2957 7.26671 13.3777 7.34235 13.4786 7.34235C13.5374 7.34235 13.59 7.31714 13.6257 7.27512C15.0948 7.77939 16.2466 8.93079 16.7531 10.3995C16.709 10.4352 16.6817 10.4898 16.6817 10.5508C16.6817 10.6537 16.7594 10.7378 16.8603 10.7462C16.9087 10.9269 16.9465 11.1117 16.9759 11.2987C16.9255 11.3345 16.8919 11.3933 16.8919 11.4605C16.8919 11.5698 16.9801 11.658 17.0894 11.658C17.1651 11.658 17.2302 11.616 17.2639 11.553H19.7145C19.765 11.553 19.807 11.511 19.807 11.4605C19.807 11.4101 19.765 11.3681 19.7145 11.3681H17.2597C17.2365 11.3261 17.2008 11.2945 17.1567 11.2777C17.1252 11.0739 17.0831 10.8743 17.0285 10.6768C17.0558 10.6432 17.0747 10.5991 17.0747 10.5508C17.0747 10.4604 17.0138 10.3848 16.9318 10.3617C16.6733 9.60945 16.2445 8.91819 15.677 8.35089C15.1096 7.78359 14.4181 7.35496 13.6677 7.09652C13.6467 7.01038 13.5689 6.94734 13.4765 6.94734C13.426 6.94734 13.3798 6.96625 13.3462 6.99777C13.1507 6.94524 12.9531 6.90112 12.7514 6.8717C12.7345 6.82548 12.7009 6.78556 12.6589 6.76245V4.29574C12.6589 4.24532 12.6168 4.20329 12.5664 4.20329C12.516 4.20329 12.4739 4.24532 12.4739 4.29574V6.76035C12.413 6.79396 12.3688 6.8591 12.3688 6.93474C12.3688 7.04189 12.4571 7.13224 12.5664 7.13224Z" fill="black" fill-opacity="0.7"/>
<path opacity="0.1" d="M13.3734 6.37374C13.4218 6.37374 13.4659 6.35693 13.5016 6.32752C14.1532 6.50191 14.7669 6.78346 15.326 7.17006C16.3937 7.90545 17.205 8.98542 17.6064 10.2104C17.64 10.3133 17.6716 10.4184 17.6989 10.5213C17.6673 10.5571 17.6463 10.6033 17.6463 10.6537C17.6463 10.763 17.7346 10.8512 17.8439 10.8512C17.9196 10.8512 17.9847 10.8092 18.0183 10.7462H19.6073C19.6577 10.7462 19.6998 10.7041 19.6998 10.6537C19.6998 10.6033 19.6577 10.5613 19.6073 10.5613H18.0183C17.9889 10.5087 17.9364 10.4688 17.8754 10.4604C17.8481 10.3575 17.8166 10.2545 17.7829 10.1536C17.3668 8.88877 16.5324 7.77518 15.4311 7.01878C14.8594 6.62588 14.2351 6.33592 13.571 6.15523C13.5626 6.09009 13.5226 6.03546 13.468 6.00395V4.42181C13.468 4.37138 13.426 4.32936 13.3755 4.32936C13.3251 4.32936 13.283 4.37138 13.283 4.42181V6.00395C13.2221 6.03756 13.178 6.1027 13.178 6.17834C13.1759 6.2855 13.2641 6.37374 13.3734 6.37374Z" fill="black" fill-opacity="0.7"/>
<path opacity="0.1" d="M13.9831 5.51228C13.9831 5.62154 14.0714 5.70978 14.1807 5.70978C14.2248 5.70978 14.2668 5.69508 14.3005 5.66986C16.171 6.35483 17.6717 7.85292 18.3569 9.72291C18.3296 9.75652 18.3128 9.80065 18.3128 9.84897C18.3128 9.95823 18.401 10.0465 18.5103 10.0465C18.586 10.0465 18.6511 10.0045 18.6848 9.94142H18.8025C18.8361 10.0024 18.9012 10.0465 18.9769 10.0465C19.0526 10.0465 19.1177 10.0045 19.1514 9.94142H19.4141H19.5381L19.5024 9.82166C19.1324 8.5757 18.4473 7.42849 17.5246 6.50611C16.5998 5.58162 15.4543 4.89875 14.208 4.52896L14.0882 4.49324V4.61721V4.87354C14.0272 4.90716 13.9831 4.97229 13.9831 5.04793C13.9831 5.12357 14.0251 5.18871 14.0882 5.22233V5.33999C14.0251 5.3715 13.9831 5.43664 13.9831 5.51228ZM14.3761 5.49967C14.3719 5.43034 14.3299 5.3694 14.2731 5.33789V5.22022C14.2815 5.21602 14.2879 5.21182 14.2963 5.20552C16.4212 5.9283 18.0963 7.60078 18.8214 9.72501C18.8151 9.73341 18.8088 9.74392 18.8025 9.75232H18.6848C18.6553 9.69559 18.5965 9.65567 18.5292 9.64937C18.1803 8.70597 17.6234 7.83191 16.9088 7.11753C16.1921 6.40315 15.3198 5.84636 14.3761 5.49967ZM19.2859 9.75442H19.1493C19.1177 9.69559 19.0589 9.65567 18.9916 9.65147C18.2476 7.48732 16.5431 5.78122 14.3782 5.03743C14.3761 4.96599 14.3341 4.90506 14.2752 4.87144V4.74117C16.6692 5.49547 18.5313 7.35706 19.2859 9.75442Z" fill="black" fill-opacity="0.7"/>
<path opacity="0.1" d="M11.5765 7.25831C10.4352 7.34866 9.36543 7.84032 8.54994 8.65555C7.73446 9.47078 7.24264 10.5381 7.15226 11.6812C7.11023 11.698 7.0766 11.7295 7.05558 11.7694H4.20978V11.9543H7.05558C7.08921 12.0152 7.15437 12.0594 7.23003 12.0594C7.33932 12.0594 7.4276 11.9711 7.4276 11.8618C7.4276 11.7925 7.39187 11.7316 7.33932 11.698C7.51797 9.44557 9.34232 7.62181 11.5954 7.44321C11.6311 7.49574 11.6921 7.53146 11.7594 7.53146C11.8686 7.53146 11.9569 7.44321 11.9569 7.33395C11.9569 7.25831 11.9149 7.19318 11.8518 7.15956V4.29575H11.6669V7.16166C11.6248 7.18267 11.5933 7.21839 11.5765 7.25831Z" fill="black" fill-opacity="0.7"/>
<path opacity="0.1" d="M15.1621 12.1707C15.1621 12.0888 15.1137 12.0194 15.0423 11.99C15.0023 10.349 13.6719 9.02324 12.0304 8.98542C12.001 8.91609 11.9296 8.86566 11.8497 8.86566C11.7635 8.86566 11.6899 8.92029 11.6626 8.99803C10.1199 9.14511 8.90509 10.4352 8.87777 12.011C8.82733 12.0467 8.7937 12.1056 8.7937 12.1707C8.7937 12.2421 8.83153 12.3052 8.88828 12.3388C9.01859 13.8201 10.1998 15.003 11.6794 15.1354C11.7152 15.1921 11.7761 15.2299 11.8476 15.2299C11.9127 15.2299 11.9716 15.1963 12.0073 15.148C13.5858 15.1228 14.8804 13.9041 15.0276 12.3556C15.1053 12.3283 15.1621 12.2569 15.1621 12.1707ZM12.0346 14.961C12.0052 14.8874 11.9338 14.8349 11.8518 14.8349C11.774 14.8349 11.7068 14.8811 11.6731 14.9463C10.3028 14.8097 9.21195 13.7171 9.07744 12.3472C9.1447 12.3157 9.19094 12.2485 9.19094 12.1686C9.19094 12.0846 9.13839 12.0131 9.06483 11.9858C9.10476 10.515 10.246 9.3132 11.6942 9.18083C11.7299 9.22915 11.7866 9.25857 11.8518 9.25857C11.9211 9.25857 11.9821 9.22285 12.0178 9.16822C13.5689 9.19764 14.8279 10.452 14.8594 12.0026C14.8048 12.0383 14.7691 12.0993 14.7691 12.1686C14.7691 12.2316 14.8006 12.2905 14.8468 12.3262C14.7144 13.7781 13.5101 14.9253 12.0346 14.961Z" fill="black" fill-opacity="0.7"/>
<path opacity="0.1" d="M12.9679 6.72043C13.0141 6.72043 13.0562 6.70362 13.0898 6.6784C13.8443 6.83599 14.5442 7.15115 15.1516 7.58398C15.1495 7.59659 15.1474 7.6092 15.1474 7.6218C15.1474 7.73106 15.2357 7.81931 15.345 7.81931C15.3765 7.81931 15.406 7.8109 15.4312 7.7983C15.7212 8.03362 15.986 8.29836 16.2214 8.58831C16.2067 8.61563 16.1983 8.64714 16.1983 8.68076C16.1983 8.79002 16.2866 8.87827 16.3959 8.87827C16.4106 8.87827 16.4253 8.87617 16.4379 8.87406C16.873 9.48129 17.1862 10.1789 17.3438 10.9311C17.3144 10.9668 17.2954 11.0109 17.2954 11.0592C17.2954 11.1685 17.3837 11.2567 17.493 11.2567C17.5687 11.2567 17.6338 11.2147 17.6675 11.1517H19.6642C19.7146 11.1517 19.7566 11.1096 19.7566 11.0592C19.7566 11.0088 19.7146 10.9668 19.6642 10.9668H17.6675C17.638 10.9121 17.5834 10.8722 17.5203 10.8638C17.3564 10.0969 17.0369 9.38043 16.5808 8.748C16.5893 8.72699 16.5935 8.70387 16.5935 8.68076C16.5935 8.5715 16.5052 8.48326 16.3959 8.48326C16.3896 8.48326 16.3854 8.48326 16.3791 8.48326C16.2551 8.32988 16.1227 8.1828 15.9818 8.04202C15.841 7.90125 15.6939 7.76888 15.5405 7.64281C15.5405 7.63441 15.5426 7.62811 15.5426 7.6197C15.5426 7.51044 15.4543 7.4222 15.345 7.4222C15.3198 7.4222 15.2946 7.4264 15.2714 7.4369C14.6409 6.98517 13.9263 6.6658 13.1634 6.50191C13.1571 6.43467 13.1171 6.37794 13.0604 6.34853V4.35878C13.0604 4.30835 13.0183 4.26633 12.9679 4.26633C12.9174 4.26633 12.8754 4.30835 12.8754 4.35878V6.34853C12.8145 6.38215 12.7703 6.44728 12.7703 6.52292C12.7724 6.63218 12.8607 6.72043 12.9679 6.72043Z" fill="black" fill-opacity="0.7"/>
<path opacity="0.1" d="M13.7771 6.06068C13.8339 6.06068 13.8843 6.03546 13.92 5.99764C15.8516 6.62168 17.4006 8.1723 18.0269 10.1011C17.9849 10.1368 17.9596 10.1894 17.9596 10.2482C17.9596 10.3575 18.0479 10.4457 18.1572 10.4457C18.2329 10.4457 18.298 10.4037 18.3317 10.3406H19.5213C19.5717 10.3406 19.6137 10.2986 19.6137 10.2482C19.6137 10.1978 19.5717 10.1557 19.5213 10.1557H18.3317C18.3064 10.1074 18.2623 10.0717 18.2098 10.0591C17.8924 9.07157 17.3396 8.16389 16.6019 7.4264C15.8642 6.68891 14.9583 6.13632 13.9705 5.81905C13.9579 5.76232 13.92 5.7161 13.8717 5.68878V4.50586C13.8717 4.45543 13.8297 4.41341 13.7792 4.41341C13.7288 4.41341 13.6867 4.45543 13.6867 4.50586V5.68878C13.6258 5.7224 13.5816 5.78753 13.5816 5.86317C13.5795 5.97243 13.6678 6.06068 13.7771 6.06068Z" fill="black" fill-opacity="0.7"/>
<path opacity="0.1" d="M12.3416 16.873C13.485 16.7827 14.5548 16.291 15.3703 15.4758C16.1858 14.6605 16.6776 13.5911 16.768 12.4481C16.8079 12.4291 16.8394 12.3997 16.8604 12.3619H19.7125V12.177H16.8583C16.8247 12.1161 16.7595 12.072 16.6839 12.072C16.5746 12.072 16.4863 12.1602 16.4863 12.2695C16.4863 12.3409 16.5241 12.4018 16.5809 12.4376C16.4022 14.6878 14.58 16.5095 12.3311 16.6881C12.2954 16.6314 12.2344 16.5936 12.163 16.5936C12.0537 16.5936 11.9654 16.6818 11.9654 16.7911C11.9654 16.8667 12.0074 16.9318 12.0705 16.9655V19.8377H12.2554V16.9633C12.2933 16.9423 12.3227 16.9108 12.3416 16.873Z" fill="black" fill-opacity="0.7"/>
<path opacity="0.1" d="M10.9513 17.4046C10.9029 17.4046 10.8567 17.4235 10.8231 17.4529C9.96763 17.2722 9.18157 16.8919 8.52161 16.3624C8.52371 16.3498 8.52582 16.3351 8.52582 16.3204C8.52582 16.2111 8.43754 16.1229 8.32825 16.1229C8.30303 16.1229 8.27991 16.1271 8.25679 16.1355C8.12858 16.0178 8.00458 15.896 7.88898 15.7678C7.89949 15.7447 7.90369 15.7195 7.90369 15.6922C7.90369 15.5829 7.81542 15.4947 7.70612 15.4947C7.68931 15.4947 7.6746 15.4968 7.65988 15.501C7.13024 14.8412 6.74982 14.0554 6.57116 13.2003C6.59849 13.1666 6.6153 13.1225 6.6153 13.0763C6.6153 12.967 6.52703 12.8788 6.41773 12.8788C6.34207 12.8788 6.27692 12.9208 6.24329 12.9838H4.2508C4.20036 12.9838 4.15833 13.0259 4.15833 13.0763C4.15833 13.1267 4.20036 13.1687 4.2508 13.1687H6.24329C6.27271 13.2255 6.32946 13.2654 6.39672 13.2717C6.58377 14.1374 6.9663 14.94 7.52117 15.627C7.51486 15.648 7.51066 15.6691 7.51066 15.6922C7.51066 15.8014 7.59893 15.8897 7.70822 15.8897C7.72084 15.8897 7.73134 15.8897 7.74396 15.8876C7.80701 15.9569 7.87216 16.0262 7.93732 16.0914C8.00247 16.1565 8.06973 16.2196 8.13699 16.2805C8.13489 16.2931 8.13278 16.3078 8.13278 16.3204C8.13278 16.4297 8.22106 16.5179 8.33035 16.5179C8.35557 16.5179 8.37869 16.5137 8.39971 16.5053C9.08909 17.06 9.89197 17.4445 10.7579 17.6294C10.7663 17.6924 10.8062 17.7471 10.8609 17.7765V19.7746C10.8609 19.8251 10.9029 19.8671 10.9534 19.8671C11.0038 19.8671 11.0458 19.8251 11.0458 19.7746V17.7765C11.1068 17.7429 11.1509 17.6777 11.1509 17.6021C11.1488 17.4928 11.0606 17.4046 10.9513 17.4046Z" fill="black" fill-opacity="0.7"/>
<path opacity="0.1" d="M11.7594 16.5914C11.6879 16.5914 11.6269 16.6293 11.5912 16.686C9.34021 16.5053 7.51797 14.6836 7.33932 12.4312C7.39187 12.3955 7.4276 12.3346 7.4276 12.2674C7.4276 12.1581 7.33932 12.0699 7.23003 12.0699C7.15437 12.0699 7.08921 12.1119 7.05558 12.1749H4.20978V12.3598H7.05558C7.0766 12.3997 7.11023 12.4312 7.15226 12.4481C7.24264 13.5911 7.73446 14.6584 8.54994 15.4737C9.36543 16.2889 10.4352 16.7805 11.5786 16.8709C11.5975 16.9087 11.6269 16.9423 11.6648 16.9612V19.8335H11.8497V16.9633C11.9107 16.9297 11.9548 16.8646 11.9548 16.789C11.9569 16.6797 11.8665 16.5914 11.7594 16.5914Z" fill="black" fill-opacity="0.7"/>
<path opacity="0.1" d="M10.5477 17.7492C10.4973 17.7492 10.4489 17.7702 10.4153 17.8017C9.76583 17.6273 9.15422 17.3457 8.59725 16.9612C7.52954 16.2258 6.71826 15.1459 6.31682 13.9209C6.28319 13.8159 6.25166 13.7108 6.22224 13.6058C6.25166 13.57 6.27058 13.5259 6.27058 13.4776C6.27058 13.3683 6.1823 13.2801 6.07301 13.2801C5.99735 13.2801 5.93219 13.3221 5.89857 13.3851H4.31593C4.26549 13.3851 4.22345 13.4272 4.22345 13.4776C4.22345 13.528 4.26549 13.57 4.31593 13.57H5.89857C5.92799 13.6247 5.98264 13.6646 6.04779 13.673C6.07511 13.776 6.10664 13.8789 6.14027 13.9798C6.55642 15.2446 7.39083 16.3582 8.49216 17.1146C9.06384 17.5075 9.69017 17.7975 10.3543 17.9782C10.3648 18.0391 10.4027 18.0916 10.4552 18.1211V19.7095C10.4552 19.7599 10.4973 19.8019 10.5477 19.8019C10.5981 19.8019 10.6402 19.7599 10.6402 19.7095V18.1211C10.7011 18.0874 10.7453 18.0223 10.7453 17.9467C10.7453 17.8374 10.657 17.7492 10.5477 17.7492Z" fill="black" fill-opacity="0.7"/>
<path opacity="0.1" d="M10.1452 18.0643C10.0863 18.0643 10.0317 18.0916 9.99597 18.1337C9.38645 17.9362 8.81266 17.6462 8.29563 17.2785C8.29773 17.268 8.29773 17.2575 8.29773 17.2449C8.29773 17.1356 8.20946 17.0474 8.10016 17.0474C8.06864 17.0474 8.03921 17.0558 8.01399 17.0684C7.62096 16.7574 7.26576 16.4002 6.9547 16.0073C6.9652 15.9821 6.97151 15.9548 6.97151 15.9254C6.97151 15.8161 6.88323 15.7279 6.77394 15.7279C6.76343 15.7279 6.75503 15.7279 6.74662 15.73C6.38091 15.211 6.08876 14.6374 5.8912 14.026C5.92903 13.9903 5.95425 13.9377 5.95425 13.881C5.95425 13.7717 5.86598 13.6835 5.75668 13.6835C5.68102 13.6835 5.61586 13.7255 5.58224 13.7886H4.39894C4.34849 13.7886 4.30646 13.8306 4.30646 13.881C4.30646 13.9314 4.34849 13.9735 4.39894 13.9735H5.58224C5.60746 14.0218 5.6558 14.0596 5.71044 14.0722C5.91221 14.7025 6.21277 15.2993 6.59319 15.8413C6.58058 15.8666 6.57427 15.8939 6.57427 15.9233C6.57427 16.0325 6.66255 16.1208 6.77184 16.1208C6.78025 16.1208 6.79076 16.1208 6.79916 16.1187C6.9589 16.3225 7.13335 16.5179 7.3183 16.7028C7.50326 16.8877 7.69872 17.06 7.9026 17.2197C7.9026 17.226 7.9026 17.2344 7.9026 17.2407C7.9026 17.3499 7.99087 17.4382 8.10016 17.4382C8.12749 17.4382 8.15271 17.4319 8.17793 17.4235C8.72229 17.808 9.32129 18.1084 9.95393 18.3123C9.96864 18.3648 10.0044 18.4089 10.0506 18.4341V19.6233C10.0506 19.6738 10.0926 19.7158 10.1431 19.7158C10.1935 19.7158 10.2356 19.6738 10.2356 19.6233V18.4341C10.2965 18.4005 10.3407 18.3354 10.3407 18.2597C10.3428 18.1526 10.2524 18.0643 10.1452 18.0643Z" fill="black" fill-opacity="0.7"/>
<path opacity="0.1" d="M9.93817 18.6127C9.93817 18.5035 9.8499 18.4152 9.74061 18.4152C9.69227 18.4152 9.64813 18.432 9.6145 18.4614C7.74602 17.7744 6.24745 16.2763 5.56227 14.4063C5.5875 14.3727 5.60431 14.3306 5.60431 14.2844C5.60431 14.1752 5.51604 14.0869 5.40674 14.0869C5.33108 14.0869 5.26592 14.1289 5.2323 14.192H5.1146C5.08097 14.131 5.01581 14.0869 4.94015 14.0869C4.86449 14.0869 4.79933 14.1289 4.7657 14.192H4.50929H4.38318L4.41891 14.3117C4.78882 15.5577 5.474 16.7049 6.39668 17.6273C7.32146 18.5518 8.46693 19.2346 9.71328 19.6044L9.83308 19.6402V19.5162V19.2514C9.89403 19.2178 9.93817 19.1527 9.93817 19.0771C9.93817 19.0014 9.89614 18.9363 9.83308 18.9027V18.785C9.89614 18.7535 9.93817 18.6883 9.93817 18.6127ZM9.54304 18.6316C9.54934 18.6989 9.58928 18.7556 9.64603 18.785V18.9027C9.63552 18.909 9.62501 18.9153 9.6166 18.9216C7.49381 18.1967 5.82079 16.5221 5.09778 14.4C5.10409 14.3916 5.10829 14.3853 5.11249 14.3769H5.23019C5.26172 14.4357 5.32057 14.4756 5.38993 14.4798C5.73882 15.4232 6.29579 16.2952 7.0104 17.0117C7.7271 17.7281 8.59934 18.2849 9.54304 18.6316ZM4.63329 14.3769H4.7657C4.79723 14.4357 4.85818 14.4777 4.92964 14.4798C5.67367 16.644 7.38031 18.3501 9.54304 19.0939C9.54934 19.1611 9.58928 19.2199 9.64603 19.2514V19.3901C7.25 18.6358 5.38783 16.7742 4.63329 14.3769Z" fill="black" fill-opacity="0.7"/>
<path opacity="0.1" d="M11.3549 16.9928C11.2876 16.9928 11.2287 17.0264 11.193 17.0768C8.99035 16.7448 7.2774 15.0303 6.94743 12.8284C6.99577 12.7926 7.02729 12.7359 7.02729 12.6708C7.02729 12.5615 6.93902 12.4733 6.82973 12.4733C6.75406 12.4733 6.68891 12.5153 6.65528 12.5783H4.20881C4.15837 12.5783 4.11633 12.6203 4.11633 12.6708C4.11633 12.7212 4.15837 12.7632 4.20881 12.7632H6.65318C6.6763 12.8052 6.71413 12.8389 6.76037 12.8557C6.92851 13.9567 7.44975 14.9904 8.24002 15.7825C9.03239 16.5746 10.0665 17.0957 11.1678 17.2638C11.1846 17.3079 11.2161 17.3436 11.2582 17.3647V19.8356C11.2582 19.886 11.3002 19.928 11.3506 19.928C11.4011 19.928 11.4431 19.886 11.4431 19.8356V17.3647C11.5041 17.331 11.5482 17.2659 11.5482 17.1903C11.5524 17.081 11.462 16.9928 11.3549 16.9928Z" fill="black" fill-opacity="0.7"/>
</g>
<g opacity="0.23" filter="url(#ic24px_ht)">
<path d="M12.948 5.0051C13.6362 5.53121 14.5349 7.13587 14.5349 8.99953C14.5349 9.93033 13.8519 10.827 13.1393 11.7626C12.3089 12.8528 11.4384 13.9957 11.5615 15.3068C11.654 16.2834 12.0613 17.0109 12.3133 17.461C12.5793 17.936 12.6722 18.1019 12.0392 17.9253C9.84091 17.3142 7.67911 13.9895 10.0028 10.9502C10.2139 10.6777 10.4601 10.4192 10.7183 10.1483C11.7003 9.11743 12.8545 7.90587 12.8994 5.05366C12.8994 4.97677 12.948 5.0051 12.948 5.0051Z" fill="black"/>
<path d="M15.6907 10.2319C15.7109 10.2217 15.7292 10.2217 15.7393 10.2319C16.2271 10.6244 17.5934 11.9721 17.393 14.1231C17.1906 16.3287 15.3567 17.3041 15.2798 17.3425C14.5997 17.6657 14.5775 17.9849 14.4988 17.9995C14.4637 18.006 14.4173 17.9517 14.2961 17.8099C13.6159 17.0268 12.4116 15.574 14.5248 12.5549C15.1462 11.6665 15.6421 10.6912 15.6806 10.242L15.6907 10.2319Z" fill="black"/>
</g>
<path d="M11.948 5.0051C12.6362 5.53121 13.5349 7.13587 13.5349 8.99953C13.5349 9.93033 12.8519 10.827 12.1393 11.7626C11.3089 12.8528 10.4384 13.9957 10.5615 15.3068C10.654 16.2834 11.0613 17.0109 11.3133 17.461C11.5793 17.936 11.6722 18.1019 11.0392 17.9253C8.84091 17.3142 6.67911 13.9895 9.00285 10.9502C9.21392 10.6777 9.46014 10.4192 9.71827 10.1483C10.7003 9.11743 11.8545 7.90587 11.8994 5.05366C11.8994 4.97677 11.948 5.0051 11.948 5.0051Z" fill="white"/>
<path d="M14.6907 10.2319C14.7109 10.2217 14.7292 10.2217 14.7393 10.2319C15.2271 10.6244 16.5934 11.9721 16.393 14.1231C16.1906 16.3287 14.3567 17.3041 14.2798 17.3425C13.5997 17.6657 13.5775 17.9849 13.4988 17.9995C13.4637 18.006 13.4173 17.9517 13.2961 17.8099C12.6159 17.0268 11.4116 15.574 13.5248 12.5549C14.1462 11.6665 14.6421 10.6912 14.6806 10.242L14.6907 10.2319Z" fill="white"/>
<path opacity="0.5" fill-rule="evenodd" clip-rule="evenodd" d="M3.13763 16.9344C2.19268 15.1749 1.6288 13.0986 2.0001 11L1.81443 10.9799C1.43814 13.1067 2.00284 15.2215 2.96855 17.0196C3.93485 18.8189 5.76465 20.7322 8.4285 21.6652L8.50221 21.5C5.87547 20.5799 4.082 18.6928 3.13763 16.9344Z" fill="url(#paint1_linear)"/>
<g filter="url(#filter1_f)">
<path fill-rule="evenodd" clip-rule="evenodd" d="M13.7409 20.1646C11.7057 20.5403 9.57908 20.1514 7.56872 19.2272L7.49677 19.3916C9.53416 20.3283 11.6998 20.7272 13.7797 20.3431C15.8609 19.9589 17.848 18.7921 19.5293 16.6119L19.3834 16.4984C17.7256 18.6482 15.7748 19.789 13.7409 20.1646Z" fill="url(#paint2_linear)"/>
</g>
<g filter="url(#filter2_f)">
<path fill-rule="evenodd" clip-rule="evenodd" d="M5.1928 16.9577C3.90109 15.4115 3.27784 13.4339 3.20589 11.3068L3.01972 11.3221C3.09264 13.4779 3.7247 15.493 5.04476 17.0732C6.36564 18.6543 8.37026 19.7936 11.1751 20.205L11.2131 20.0291C8.44728 19.6234 6.48369 18.5029 5.1928 16.9577Z" fill="url(#paint3_linear)"/>
</g>
<g opacity="0.4" filter="url(#filter3_f)">
<path fill-rule="evenodd" clip-rule="evenodd" d="M12.7286 18.219C10.9581 18.3889 9.17195 17.8983 7.52894 16.9588L7.45398 17.094C9.11908 18.0462 10.9378 18.5482 12.7472 18.3745C14.5577 18.2008 16.3518 17.3511 17.9672 15.6123L17.8518 15.5044C16.2589 17.219 14.498 18.0491 12.7286 18.219Z" fill="url(#paint4_linear)"/>
</g>
<path fill-rule="evenodd" clip-rule="evenodd" d="M21.3027 7.51686C20.1515 5.47447 18.5673 3.48015 16.1049 2.49238L16.2189 2.3C18.7143 3.30106 20.3382 5.32088 21.5146 7.40811C22.6918 9.49663 22.9976 12.1266 22.0358 15.3L21.8096 15.2652C22.758 12.136 22.4532 9.55796 21.3027 7.51686Z" fill="url(#paint5_linear)"/>
<path fill-rule="evenodd" clip-rule="evenodd" d="M19.0057 8C17.9431 6.42893 16.2771 4.90781 14.0042 4.14798L14.1093 4C16.4128 4.77004 18.1154 6.31079 19.2014 7.91634C20.288 9.5229 20.6025 12.0857 19.7147 14.5268L19.5059 14.5C20.3814 12.0929 20.0677 9.57008 19.0057 8Z" fill="url(#paint6_linear)"/>
<defs>
<filter id="ic24px_ht" x="8.0022" y="4" width="10.4107" height="15" filterUnits="userSpaceOnUse" color-interpolation-filters="sRGB">
<feFlood flood-opacity="0" result="BackgroundImageFix"/>
<feBlend mode="normal" in="SourceGraphic" in2="BackgroundImageFix" result="shape"/>
<feGaussianBlur stdDeviation="0.5" result="effect1_foregroundBlur"/>
</filter>
<filter id="filter1_f" x="6.49677" y="15.4984" width="14.0325" height="5.98989" filterUnits="userSpaceOnUse" color-interpolation-filters="sRGB">
<feFlood flood-opacity="0" result="BackgroundImageFix"/>
<feBlend mode="normal" in="SourceGraphic" in2="BackgroundImageFix" result="shape"/>
<feGaussianBlur stdDeviation="0.5" result="effect1_foregroundBlur"/>
</filter>
<filter id="filter2_f" x="2.01971" y="10.3068" width="10.1934" height="10.8982" filterUnits="userSpaceOnUse" color-interpolation-filters="sRGB">
<feFlood flood-opacity="0" result="BackgroundImageFix"/>
<feBlend mode="normal" in="SourceGraphic" in2="BackgroundImageFix" result="shape"/>
<feGaussianBlur stdDeviation="0.5" result="effect1_foregroundBlur"/>
</filter>
<filter id="filter3_f" x="6.45398" y="14.5044" width="12.5133" height="4.90409" filterUnits="userSpaceOnUse" color-interpolation-filters="sRGB">
<feFlood flood-opacity="0" result="BackgroundImageFix"/>
<feBlend mode="normal" in="SourceGraphic" in2="BackgroundImageFix" result="shape"/>
<feGaussianBlur stdDeviation="0.5" result="effect1_foregroundBlur"/>
</filter>
<radialGradient id="paint0_radial" cx="0" cy="0" r="1" gradientUnits="userSpaceOnUse" gradientTransform="translate(11.9985 12.0012) scale(10.614 10.6106)">
<stop offset="0.1358" stop-color="#56B1FD"/>
<stop offset="0.7046" stop-color="#28A7E1"/>
<stop offset="0.7234" stop-color="#23A3DC"/>
<stop offset="0.7466" stop-color="#1397CF"/>
<stop offset="0.7623" stop-color="#058CC2"/>
<stop offset="0.7778" stop-color="#1CA9E3"/>
<stop offset="0.8078" stop-color="#29B0EA"/>
<stop offset="0.8208" stop-color="#28AFE9"/>
<stop offset="0.9109" stop-color="#26A8E3"/>
<stop offset="0.9271" stop-color="#1EA6E2"/>
<stop offset="0.949" stop-color="#19A5E2"/>
<stop offset="0.9627" stop-color="#27B1EE"/>
<stop offset="0.9819" stop-color="#34BCF9"/>
<stop offset="1" stop-color="#38C0FD"/>
</radialGradient>
<linearGradient id="paint1_linear" x1="8.28515" y1="21.2778" x2="2.77802" y2="11.3573" gradientUnits="userSpaceOnUse">
<stop stop-color="white" stop-opacity="0"/>
<stop offset="0.487847" stop-color="white" stop-opacity="0.517361"/>
<stop offset="1" stop-color="white" stop-opacity="0"/>
</linearGradient>
<linearGradient id="paint2_linear" x1="19.5482" y1="16.6588" x2="8.20516" y2="19.6342" gradientUnits="userSpaceOnUse">
<stop stop-opacity="0.39"/>
<stop offset="0.310764" stop-opacity="0.94"/>
<stop offset="0.487847" stop-opacity="0.9"/>
<stop offset="0.670139" stop-opacity="0.71"/>
<stop offset="1" stop-opacity="0.26"/>
</linearGradient>
<linearGradient id="paint3_linear" x1="11.1404" y1="20.2427" x2="3.7393" y2="11.5103" gradientUnits="userSpaceOnUse">
<stop stop-opacity="0.39"/>
<stop offset="0.310764" stop-opacity="0.87"/>
<stop offset="0.487847" stop-opacity="0.71"/>
<stop offset="0.670139"/>
<stop offset="1" stop-opacity="0.26"/>
</linearGradient>
<linearGradient id="paint4_linear" x1="17.9797" y1="15.6538" x2="8.02704" y2="17.2757" gradientUnits="userSpaceOnUse">
<stop stop-opacity="0.79"/>
<stop offset="0.487847" stop-opacity="0.517361"/>
<stop offset="1" stop-opacity="0.72"/>
</linearGradient>
<linearGradient id="paint5_linear" x1="22.1736" y1="17.1385" x2="15.9794" y2="2.70321" gradientUnits="userSpaceOnUse">
<stop stop-color="white" stop-opacity="0"/>
<stop offset="0.487847" stop-color="white" stop-opacity="0.517361"/>
<stop offset="1" stop-color="white" stop-opacity="0"/>
</linearGradient>
<linearGradient id="paint6_linear" x1="19.606" y1="15.4142" x2="15.4373" y2="3.75627" gradientUnits="userSpaceOnUse">
<stop stop-color="white" stop-opacity="0"/>
<stop offset="0.453125" stop-color="white" stop-opacity="0.57"/>
<stop offset="0.578125" stop-color="white" stop-opacity="0.44"/>
<stop offset="0.703125" stop-color="white" stop-opacity="0.29"/>
<stop offset="1" stop-color="white" stop-opacity="0"/>
</linearGradient>
</defs>
</svg>
