<svg width="24" height="24" viewBox="0 0 24 24" fill="none" xmlns="http://www.w3.org/2000/svg">
<path d="M2.19774 7.20368C2.15782 7.20789 2.1221 7.231 2.10319 7.26672L1.68507 8.11977C1.66616 8.15759 1.67036 8.20381 1.69558 8.23743L1.96032 8.48326L1.98133 8.48956C2.13051 8.06304 2.307 7.64702 2.50871 7.24571L2.19774 7.20368Z" fill="#30D099"/>
<path d="M3.38911 18.6947C3.3744 18.7325 3.3807 18.7745 3.40592 18.8081L3.99003 19.5582C4.01524 19.5918 4.05726 19.6086 4.10139 19.6002L4.43756 19.47L4.45017 19.4574C4.135 19.138 3.83875 18.7976 3.5656 18.4383L3.38911 18.6947Z" fill="#30D099"/>
<path d="M14.2371 22.6616C14.2644 22.691 14.3064 22.7036 14.3443 22.6973L15.273 22.5019C15.315 22.4935 15.3465 22.462 15.3591 22.422L15.3885 22.0606L15.3864 22.0543C14.9641 22.1972 14.5313 22.3149 14.0858 22.4052L14.2371 22.6616Z" fill="#30D099"/>
<path d="M22.5597 14.65C22.5996 14.6374 22.629 14.608 22.6374 14.5681L22.8685 13.6457C22.879 13.6058 22.8664 13.5616 22.8349 13.5322L22.5239 13.3473H22.5197C22.463 13.797 22.3811 14.2382 22.2697 14.6689L22.5597 14.65Z" fill="#30D099"/>
<path d="M19.0066 3.65701C19.0129 3.61709 18.9982 3.57717 18.9667 3.54985L18.2397 2.93843C18.2082 2.91321 18.1641 2.90481 18.1242 2.92162L17.8216 3.11912L17.8153 3.12963C18.1914 3.37756 18.5507 3.6486 18.8932 3.94066L19.0066 3.65701Z" fill="#30D099"/>
<path d="M7.56818 2.03285C7.53457 2.00974 7.49254 2.00554 7.45683 2.02234L6.58907 2.40685C6.55125 2.42366 6.52393 2.46148 6.52183 2.5035L6.56805 2.86279L6.57856 2.8817C6.96306 2.65268 7.36438 2.44677 7.7783 2.26607L7.56818 2.03285Z" fill="#30D099"/>
<path d="M1.39934 11.5152L1.09468 11.6013C1.05896 11.6202 1.03585 11.658 1.03585 11.698L1.00013 12.6477C0.998031 12.6897 1.02114 12.7296 1.05686 12.7506L1.39934 12.8662L1.42456 12.8641C1.40144 12.5783 1.38674 12.2926 1.38674 12.0005C1.38674 11.8387 1.39094 11.677 1.39934 11.5152Z" fill="#30D099"/>
<path d="M6.85593 21.6131C6.85803 21.653 6.88114 21.6908 6.91686 21.7098L7.7552 22.1573C7.79302 22.1762 7.83714 22.1741 7.87286 22.151L8.1271 21.8947L8.1313 21.882C7.71108 21.7182 7.30136 21.5291 6.90845 21.3126L6.85593 21.6131Z" fill="#30D099"/>
<path d="M18.3805 20.8252C18.4183 20.842 18.4604 20.8357 18.494 20.8126L19.263 20.2558C19.2966 20.2306 19.3155 20.1886 19.3092 20.1465L19.1894 19.8062L19.1852 19.802C18.8554 20.1066 18.5045 20.3882 18.1389 20.6487L18.3805 20.8252Z" fill="#30D099"/>
<path d="M22.7256 10.12C22.7572 10.0927 22.7719 10.0528 22.7635 10.0129L22.5996 9.07788C22.5933 9.03585 22.5618 9.00224 22.5218 8.98753L22.1625 8.94551L22.1583 8.94761C22.2865 9.37413 22.3874 9.81116 22.4609 10.2587L22.7256 10.12Z" fill="#30D099"/>
<path d="M15.0083 1.52438C14.9978 1.48446 14.9683 1.45504 14.9284 1.44244L14.0165 1.1798C13.9766 1.16719 13.9325 1.1798 13.9031 1.21131L13.7077 1.51598L13.7056 1.53068C14.1531 1.60212 14.5922 1.70508 15.0188 1.83114L15.0083 1.52438Z" fill="#30D099"/>
<path d="M3.89756 4.69286C3.85763 4.68445 3.81561 4.69916 3.7904 4.72857L3.15376 5.43455C3.12645 5.46606 3.11594 5.51019 3.13065 5.55011L3.31765 5.85897L3.33866 5.87368C3.5992 5.50599 3.88285 5.1551 4.18541 4.82312L3.89756 4.69286Z" fill="#30D099"/>
<path d="M1.87628 16.0662C1.85107 16.0977 1.84687 16.1418 1.86157 16.1796L2.21666 17.0621C2.23137 17.102 2.26919 17.1293 2.31121 17.1335L2.6705 17.0999L2.68521 17.0915C2.4709 16.6986 2.2818 16.2889 2.11581 15.8687L1.87628 16.0662Z" fill="#30D099"/>
<path d="M11.138 22.5733L11.2116 22.8696C11.2305 22.9053 11.2662 22.9305 11.3061 22.9326L12.2537 22.9998C12.2957 23.0019 12.3357 22.983 12.3588 22.9452L12.4869 22.6069V22.5964C12.3251 22.6048 12.1613 22.609 11.9974 22.609C11.7074 22.6111 11.4217 22.5964 11.138 22.5733Z" fill="#30D099"/>
<path d="M21.4187 17.4613C21.4586 17.4613 21.4965 17.4382 21.5175 17.4046L21.9944 16.583C22.0154 16.5473 22.0154 16.5011 21.9923 16.4654L21.7444 16.2027H21.7423C21.5637 16.6167 21.3578 17.018 21.1309 17.4025L21.4187 17.4613Z" fill="#30D099"/>
<path d="M21.0321 5.9157C21.0489 5.87788 21.0468 5.83586 21.0237 5.80224L20.4942 5.01433C20.4711 4.97861 20.4291 4.9597 20.3871 4.9639L20.0425 5.07106L20.0341 5.07736C20.3261 5.41774 20.5993 5.77493 20.8472 6.15103L21.0321 5.9157Z" fill="#30D099"/>
<path d="M10.4867 1.20081C10.4615 1.16929 10.4215 1.15248 10.3816 1.15879L9.44031 1.28905C9.39829 1.29536 9.36257 1.32267 9.34786 1.36259L9.29324 1.71978L9.29744 1.73659C9.72817 1.62313 10.1715 1.53909 10.6232 1.48026L10.4867 1.20081Z" fill="#30D099"/>
<path d="M1.62628 8.61353C1.58636 8.62193 1.55485 8.65135 1.54224 8.68917L1.24808 9.59265C1.23548 9.63257 1.24598 9.67669 1.2754 9.70821L1.57166 9.91412L1.59267 9.91832C1.68091 9.47289 1.80068 9.03796 1.94145 8.61353H1.62628Z" fill="#30D099"/>
<path d="M4.40392 19.8272C4.39552 19.8671 4.40603 19.9091 4.43544 19.9364L5.1183 20.5983C5.14772 20.6277 5.19184 20.6382 5.23386 20.6256L5.54903 20.4491L5.55954 20.4365C5.20235 20.1633 4.86197 19.8671 4.5405 19.5519L4.40392 19.8272Z" fill="#30D099"/>
<path d="M15.6995 22.2455C15.731 22.2708 15.773 22.2792 15.8109 22.2645L16.7038 21.9409C16.7437 21.9262 16.7711 21.8905 16.7774 21.8484L16.7564 21.487L16.7543 21.4828C16.355 21.6845 15.9411 21.861 15.5146 22.0102L15.6995 22.2455Z" fill="#30D099"/>
<path d="M22.9442 12.0089L22.6101 11.8703H22.6038C22.6038 11.9144 22.608 11.9585 22.608 12.0026C22.608 12.4123 22.5828 12.8179 22.5365 13.215L22.8265 13.154C22.8643 13.1372 22.8895 13.1015 22.8937 13.0616L22.9946 12.1161C22.9988 12.0741 22.9799 12.032 22.9442 12.0089Z" fill="#30D099"/>
<path d="M17.7775 2.76194C17.7775 2.72201 17.7586 2.68419 17.7229 2.66108L16.9182 2.15682C16.8824 2.1337 16.8362 2.1337 16.8005 2.15471L16.5294 2.39424L16.5252 2.40475C16.9329 2.59805 17.3258 2.81656 17.704 3.05819L17.7775 2.76194Z" fill="#30D099"/>
<path d="M6.22561 2.74513C6.18989 2.72622 6.14576 2.72832 6.11214 2.74933L5.30532 3.25149C5.2696 3.27461 5.24859 3.31453 5.25069 3.35655L5.34524 3.70533L5.35995 3.72424C5.71083 3.4427 6.07853 3.18216 6.46303 2.94683L6.22561 2.74513Z" fill="#30D099"/>
<path d="M1.14509 13.1204C1.11147 13.1456 1.09467 13.1834 1.09887 13.2234L1.19762 14.1689C1.20182 14.2109 1.22914 14.2466 1.26906 14.2634L1.62415 14.3307L1.64516 14.3265C1.54851 13.8915 1.47707 13.4461 1.43505 12.9922L1.14509 13.1204Z" fill="#30D099"/>
<path d="M8.24478 22.235C8.25319 22.275 8.2805 22.3086 8.31832 22.3212L9.2113 22.6469C9.25122 22.6616 9.29534 22.6532 9.32686 22.6237L9.54327 22.3338L9.54537 22.3212C9.10414 22.2161 8.67341 22.0859 8.25529 21.9283L8.24478 22.235Z" fill="#30D099"/>
<path d="M19.2861 19.7095L19.5487 19.8503C19.5886 19.8608 19.6307 19.8503 19.658 19.823L20.3429 19.1632C20.3724 19.1338 20.385 19.0897 20.3745 19.0498L20.2085 18.7283L20.2064 18.7262C19.9206 19.0729 19.6118 19.4006 19.2861 19.7095Z" fill="#30D099"/>
<path d="M22.36 8.64505C22.3874 8.61353 22.3958 8.57151 22.3832 8.53369L22.0911 7.63021C22.0785 7.59029 22.0449 7.56087 22.0029 7.55247L21.6415 7.56087L21.6373 7.56298C21.8243 7.96849 21.9882 8.38661 22.1247 8.81734L22.36 8.64505Z" fill="#30D099"/>
<path d="M13.5207 1.20501C13.5039 1.16719 13.4702 1.14198 13.4303 1.13567L12.489 1.0012C12.447 0.9949 12.405 1.01381 12.3798 1.04743L12.2285 1.3752V1.39411C12.6844 1.40462 13.132 1.44034 13.5711 1.50547L13.5207 1.20501Z" fill="#30D099"/>
<path d="M2.96049 5.88839C2.92057 5.88629 2.88065 5.9052 2.85753 5.93881L2.32595 6.72463C2.30284 6.76035 2.30074 6.80447 2.31965 6.84229L2.54867 7.12174L2.56968 7.13225C2.77769 6.73093 3.00881 6.34433 3.26515 5.97453L2.96049 5.88839Z" fill="#30D099"/>
<path d="M2.54026 17.434C2.52135 17.4697 2.52135 17.5117 2.54026 17.5475L3.01301 18.3711C3.03402 18.4068 3.07394 18.4299 3.11596 18.4278L3.46895 18.3438L3.48366 18.3333C3.21472 17.974 2.97099 17.5937 2.75037 17.2008L2.54026 17.434Z" fill="#30D099"/>
<path d="M12.7327 22.8717C12.7558 22.9053 12.7958 22.9242 12.8357 22.9221L13.7833 22.857C13.8253 22.8549 13.8631 22.8276 13.8799 22.7897L13.9598 22.4367L13.9577 22.4283C13.5206 22.5103 13.0752 22.567 12.6193 22.5922L12.7327 22.8717Z" fill="#30D099"/>
<path d="M22.0869 16.0956C22.1268 16.0893 22.1604 16.062 22.1752 16.0263L22.5323 15.1459C22.5492 15.106 22.5407 15.0618 22.5134 15.0282L22.2319 14.8013H22.2298C22.11 15.2383 21.965 15.6628 21.7949 16.0746L22.0869 16.0956Z" fill="#30D099"/>
<path d="M19.948 4.97651L20.0992 4.71597C20.1118 4.67605 20.1013 4.63403 20.0761 4.60461L19.4416 3.89654C19.4143 3.86502 19.3702 3.85241 19.3281 3.86082L19.0004 4.0163L18.9919 4.0247C19.3302 4.32306 19.6496 4.64033 19.948 4.97651Z" fill="#30D099"/>
<path d="M8.99904 1.51597C8.96963 1.48866 8.92761 1.47815 8.88768 1.48866L7.9737 1.7492C7.93378 1.7597 7.90226 1.79332 7.89386 1.83534L7.88966 2.19674L7.89596 2.21354C8.30778 2.04125 8.7343 1.89418 9.17133 1.77441L8.99904 1.51597Z" fill="#30D099"/>
<path d="M1.25649 10.0885C1.21867 10.1032 1.19136 10.1368 1.18295 10.1768L1.01697 11.1118C1.00856 11.1538 1.02537 11.1958 1.05899 11.2231L1.38256 11.3849L1.40567 11.387C1.43089 10.9311 1.48762 10.4856 1.56956 10.0465L1.25649 10.0885Z" fill="#30D099"/>
<path d="M5.56793 20.8063C5.56373 20.8462 5.58264 20.8861 5.61416 20.9092L6.38106 21.4681C6.41468 21.4933 6.46091 21.4975 6.49873 21.4786L6.78658 21.2601L6.79288 21.2475C6.39997 21.0269 6.02177 20.7811 5.66248 20.5142L5.56793 20.8063Z" fill="#30D099"/>
<path d="M17.0904 21.6299C17.1262 21.6509 17.1682 21.653 17.2039 21.6341L18.0443 21.1887C18.0822 21.1698 18.1053 21.1299 18.1053 21.0878L18.0338 20.7327L18.0317 20.7285C17.664 20.9828 17.2774 21.216 16.8782 21.4219L17.0904 21.6299Z" fill="#30D099"/>
<path d="M22.8811 11.6328C22.9147 11.6097 22.9358 11.5719 22.9337 11.532L22.9021 10.5823C22.9 10.5402 22.8769 10.5024 22.837 10.4835L22.4882 10.3911H22.4861C22.5534 10.8302 22.5891 11.2777 22.6017 11.7337L22.8811 11.6328Z" fill="#30D099"/>
<path d="M16.4349 2.04546C16.4307 2.00554 16.4055 1.96982 16.3676 1.95301L15.4999 1.5643C15.4621 1.54749 15.4158 1.5517 15.3822 1.57901L15.1469 1.85215L15.1448 1.86266C15.5776 1.99713 15.9958 2.16102 16.4034 2.34592L16.4349 2.04546Z" fill="#30D099"/>
<path d="M5.25909 3.80409L4.99225 3.636C4.95443 3.62339 4.91031 3.62969 4.88089 3.65701L4.15181 4.26633C4.12029 4.29365 4.10558 4.33567 4.11399 4.37769L4.25686 4.70967L4.27577 4.72648C4.58464 4.4008 4.91241 4.08984 5.25909 3.80409Z" fill="#30D099"/>
<path d="M1.40776 14.6185C1.37834 14.6479 1.36784 14.6878 1.37624 14.7278L1.60526 15.6502C1.61577 15.6901 1.64728 15.7237 1.68931 15.7342L2.0507 15.751L2.06961 15.7447C1.91202 15.3266 1.78176 14.8959 1.6767 14.4525L1.40776 14.6185Z" fill="#30D099"/>
<path d="M9.70501 22.6553C9.71762 22.6931 9.75124 22.7225 9.78906 22.7309L10.7177 22.9305C10.7598 22.9389 10.8018 22.9242 10.8291 22.8927L11.0035 22.5754V22.5649C10.5518 22.5229 10.1063 22.4515 9.67139 22.3548L9.70501 22.6553Z" fill="#30D099"/>
<path d="M20.5678 18.7199C20.6077 18.7241 20.6476 18.7094 20.6728 18.6779L21.259 17.9299C21.2842 17.8962 21.2905 17.8521 21.2737 17.8122L21.0657 17.5159H21.0636C20.8283 17.9004 20.5699 18.2681 20.2883 18.6169L20.5678 18.7199Z" fill="#30D099"/>
<path d="M21.7906 7.2331C21.8137 7.19948 21.8158 7.15536 21.799 7.11964L21.383 6.26449C21.3641 6.22667 21.3263 6.20145 21.2842 6.19935L20.9271 6.25818L20.9208 6.26239C21.1624 6.63849 21.3851 7.02929 21.5784 7.43691L21.7906 7.2331Z" fill="#30D099"/>
<path d="M12.0982 1.39411L12.0037 1.09786C11.9826 1.06214 11.9448 1.04113 11.9049 1.04113L10.9552 1.03902C10.9132 1.03902 10.8733 1.06214 10.8543 1.09996L10.7493 1.44664L10.7514 1.46555C11.1611 1.41722 11.575 1.38991 11.9974 1.38991C12.031 1.38991 12.0646 1.39201 12.0982 1.39411Z" fill="#30D099"/>
<path d="M11.9973 1.38991C6.13733 1.38991 1.38672 6.14052 1.38672 12.0005C1.38672 17.8605 6.13733 22.6111 11.9973 22.6111C17.8573 22.6111 22.6079 17.8605 22.6079 12.0005C22.6079 6.14052 17.8573 1.38991 11.9973 1.38991Z" fill="url(#paint0_radial)"/>
<path opacity="0.5" fill-rule="evenodd" clip-rule="evenodd" d="M3.13718 16.9344C2.19252 15.1749 1.62882 13.0986 2.00001 11L1.8144 10.9799C1.43822 13.1067 2.00275 15.2215 2.96814 17.0196C3.93414 18.8189 5.76336 20.7322 8.42638 21.6652L8.50006 21.5C5.87415 20.5799 4.08124 18.6928 3.13718 16.9344Z" fill="url(#paint1_linear)"/>
<g filter="url(#ic24px_usdt)">
<path fill-rule="evenodd" clip-rule="evenodd" d="M13.7368 20.1646C11.7023 20.5403 9.57629 20.1514 7.56657 19.2272L7.49463 19.3916C9.53138 20.3283 11.6963 20.7272 13.7756 20.3431C15.8561 19.9589 17.8426 18.7921 19.5233 16.6119L19.3775 16.4984C17.7202 18.6482 15.7701 19.789 13.7368 20.1646Z" fill="url(#paint2_linear)"/>
</g>
<g filter="url(#filter1_f)">
<path fill-rule="evenodd" clip-rule="evenodd" d="M5.19144 16.9577C3.90014 15.4115 3.27709 13.4339 3.20516 11.3068L3.01904 11.3221C3.09194 13.4779 3.7238 15.493 5.04344 17.0732C6.3639 18.6543 8.3679 19.7936 11.1719 20.205L11.2098 20.0291C8.44489 19.6234 6.48192 18.5029 5.19144 16.9577Z" fill="url(#paint3_linear)"/>
</g>
<g opacity="0.4" filter="url(#filter2_f)">
<path fill-rule="evenodd" clip-rule="evenodd" d="M12.7249 18.219C10.9549 18.3889 9.16933 17.8983 7.52684 16.9588L7.4519 17.094C9.11648 18.0462 10.9346 18.5482 12.7434 18.3745C14.5534 18.2008 16.3469 17.3511 17.9619 15.6123L17.8465 15.5044C16.254 17.219 14.4937 18.0491 12.7249 18.219Z" fill="url(#paint4_linear)"/>
</g>
<path fill-rule="evenodd" clip-rule="evenodd" d="M21.4742 7.80458C20.3929 5.68364 18.9049 3.61261 16.5922 2.58685L16.6992 2.38707C19.0431 3.42663 20.5683 5.52414 21.6733 7.69164C22.779 9.86049 23.0662 12.5916 22.1628 15.8871L21.9503 15.851C22.8412 12.6014 22.5548 9.92418 21.4742 7.80458Z" fill="url(#paint5_linear)"/>
<path fill-rule="evenodd" clip-rule="evenodd" d="M19.0001 8C17.9378 6.42893 16.2723 4.90781 14.0001 4.14798L14.1053 4C16.408 4.77004 18.1101 6.31079 19.1957 7.91634C20.282 9.5229 20.5964 12.0857 19.7088 14.5268L19.5001 14.5C20.3753 12.0929 20.0618 9.57008 19.0001 8Z" fill="url(#paint6_linear)"/>
<g opacity="0.23" filter="url(#filter3_f)">
<path fill-rule="evenodd" clip-rule="evenodd" d="M14.0039 12.5866C13.9282 12.5916 13.5374 12.6143 12.6674 12.6143C11.9739 12.6143 11.4822 12.5941 11.3107 12.5866C8.63273 12.4681 6.63558 12.0015 6.63558 11.4443C6.63558 10.887 8.63273 10.4205 11.3107 10.302V12.1226C11.4847 12.1352 11.9865 12.1655 12.68 12.1655C13.5121 12.1655 13.9282 12.1302 14.0039 12.1251V10.3045C16.6743 10.423 18.6689 10.8895 18.6689 11.4468C18.6664 12.0015 16.6743 12.4681 14.0039 12.5866ZM14.0039 10.1128V8.48383H17.7334V6H7.5812V8.48383H11.3082V10.1128C8.27718 10.2515 6.00012 10.8517 6.00012 11.5703C6.00012 12.289 8.2797 12.8892 11.3082 13.0279V18.2502H14.0013V13.0279C17.0248 12.8892 19.2994 12.289 19.2994 11.5703C19.2994 10.8517 17.0273 10.254 14.0039 10.1128Z" fill="black"/>
</g>
<path fill-rule="evenodd" clip-rule="evenodd" d="M13.4524 12.462C13.3767 12.467 12.9858 12.4897 12.1159 12.4897C11.4224 12.4897 10.9307 12.4695 10.7592 12.462C8.08122 12.3435 6.08407 11.8769 6.08407 11.3197C6.08407 10.7825 7.92992 10.3337 10.4516 10.1925C10.618 10.1824 10.7617 10.3186 10.7617 10.485V11.7206C10.7617 11.8769 10.8828 12.0056 11.0391 12.0131C11.2913 12.0257 11.6695 12.0383 12.131 12.0383C12.6152 12.0383 12.9581 12.0257 13.175 12.0156C13.3313 12.0081 13.4549 11.8795 13.4549 11.7231V10.485C13.4549 10.316 13.5961 10.1824 13.765 10.1925C16.2791 10.3337 18.1225 10.7825 18.1225 11.3197C18.1149 11.8769 16.1228 12.3435 13.4524 12.462ZM13.4524 9.98822V8.65174C13.4524 8.49036 13.5835 8.35923 13.7449 8.35923H16.8869C17.0482 8.35923 17.1794 8.2281 17.1794 8.06672V6.16791C17.1794 6.00652 17.0482 5.8754 16.8869 5.8754H7.3222C7.16082 5.8754 7.02969 6.00652 7.02969 6.16791V8.06672C7.02969 8.2281 7.16082 8.35923 7.3222 8.35923H10.4642C10.6256 8.35923 10.7567 8.49036 10.7567 8.65174V9.71084C10.7567 9.86718 10.6331 9.99327 10.4793 10.0034C7.5895 10.1647 5.44861 10.7498 5.44861 11.4483C5.44861 12.1442 7.5895 12.7293 10.4793 12.8932C10.6357 12.9007 10.7567 13.0293 10.7567 13.1857V17.8356C10.7567 17.997 10.8878 18.1281 11.0492 18.1281H13.1573C13.3187 18.1281 13.4498 17.997 13.4498 17.8356V13.1806C13.4498 13.0243 13.5734 12.8982 13.7272 12.8881C16.6095 12.7267 18.7478 12.1417 18.7478 11.4457C18.7504 10.7271 16.4758 10.1294 13.4524 9.98822Z" fill="white"/>
<defs>
<filter id="ic24px_usdt" x="6.49463" y="15.4984" width="14.0287" height="5.98989" filterUnits="userSpaceOnUse" color-interpolation-filters="sRGB">
<feFlood flood-opacity="0" result="BackgroundImageFix"/>
<feBlend mode="normal" in="SourceGraphic" in2="BackgroundImageFix" result="shape"/>
<feGaussianBlur stdDeviation="0.5" result="effect1_foregroundBlur"/>
</filter>
<filter id="filter1_f" x="2.01904" y="10.3068" width="10.1908" height="10.8982" filterUnits="userSpaceOnUse" color-interpolation-filters="sRGB">
<feFlood flood-opacity="0" result="BackgroundImageFix"/>
<feBlend mode="normal" in="SourceGraphic" in2="BackgroundImageFix" result="shape"/>
<feGaussianBlur stdDeviation="0.5" result="effect1_foregroundBlur"/>
</filter>
<filter id="filter2_f" x="6.4519" y="14.5044" width="12.5099" height="4.90409" filterUnits="userSpaceOnUse" color-interpolation-filters="sRGB">
<feFlood flood-opacity="0" result="BackgroundImageFix"/>
<feBlend mode="normal" in="SourceGraphic" in2="BackgroundImageFix" result="shape"/>
<feGaussianBlur stdDeviation="0.5" result="effect1_foregroundBlur"/>
</filter>
<filter id="filter3_f" x="5.00012" y="5" width="15.2992" height="14.2502" filterUnits="userSpaceOnUse" color-interpolation-filters="sRGB">
<feFlood flood-opacity="0" result="BackgroundImageFix"/>
<feBlend mode="normal" in="SourceGraphic" in2="BackgroundImageFix" result="shape"/>
<feGaussianBlur stdDeviation="0.5" result="effect1_foregroundBlur"/>
</filter>
<radialGradient id="paint0_radial" cx="0" cy="0" r="1" gradientUnits="userSpaceOnUse" gradientTransform="translate(11.9971 12.0012) scale(10.6106)">
<stop offset="0.1358" stop-color="#52F0D4"/>
<stop offset="0.7046" stop-color="#26D49D"/>
<stop offset="0.7227" stop-color="#21D098"/>
<stop offset="0.7453" stop-color="#14C388"/>
<stop offset="0.7623" stop-color="#05B578"/>
<stop offset="0.7778" stop-color="#1AD696"/>
<stop offset="0.8078" stop-color="#27DDA1"/>
<stop offset="0.8125" stop-color="#27DDA1"/>
<stop offset="0.9109" stop-color="#24D69D"/>
<stop offset="0.9261" stop-color="#1DD599"/>
<stop offset="0.949" stop-color="#18D597"/>
<stop offset="0.9614" stop-color="#24E0A3"/>
<stop offset="0.9813" stop-color="#31ECB0"/>
<stop offset="1" stop-color="#35F0B4"/>
</radialGradient>
<linearGradient id="paint1_linear" x1="8.28306" y1="21.2778" x2="2.77501" y2="11.3588" gradientUnits="userSpaceOnUse">
<stop stop-color="white" stop-opacity="0"/>
<stop offset="0.487847" stop-color="white" stop-opacity="0.517361"/>
<stop offset="1" stop-color="white" stop-opacity="0"/>
</linearGradient>
<linearGradient id="paint2_linear" x1="19.5423" y1="16.6588" x2="8.20233" y2="19.6324" gradientUnits="userSpaceOnUse">
<stop stop-opacity="0.39"/>
<stop offset="0.310764" stop-opacity="0.94"/>
<stop offset="0.487847" stop-opacity="0.9"/>
<stop offset="0.670139" stop-opacity="0.71"/>
<stop offset="1" stop-opacity="0.26"/>
</linearGradient>
<linearGradient id="paint3_linear" x1="11.1371" y1="20.2427" x2="3.73568" y2="11.5126" gradientUnits="userSpaceOnUse">
<stop stop-opacity="0.39"/>
<stop offset="0.310764" stop-opacity="0.87"/>
<stop offset="0.487847" stop-opacity="0.71"/>
<stop offset="0.670139"/>
<stop offset="1" stop-opacity="0.26"/>
</linearGradient>
<linearGradient id="paint4_linear" x1="17.9743" y1="15.6538" x2="8.02462" y2="17.2747" gradientUnits="userSpaceOnUse">
<stop stop-opacity="0.79"/>
<stop offset="0.487847" stop-opacity="0.517361"/>
<stop offset="1" stop-opacity="0.72"/>
</linearGradient>
<linearGradient id="paint5_linear" x1="22.2922" y1="17.7963" x2="15.4181" y2="3.30684" gradientUnits="userSpaceOnUse">
<stop stop-color="white" stop-opacity="0"/>
<stop offset="0.487847" stop-color="white" stop-opacity="0.517361"/>
<stop offset="1" stop-color="white" stop-opacity="0"/>
</linearGradient>
<linearGradient id="paint6_linear" x1="19.6002" y1="15.4142" x2="15.4305" y2="3.75711" gradientUnits="userSpaceOnUse">
<stop stop-color="white" stop-opacity="0"/>
<stop offset="0.453125" stop-color="white" stop-opacity="0.57"/>
<stop offset="0.578125" stop-color="white" stop-opacity="0.44"/>
<stop offset="0.703125" stop-color="white" stop-opacity="0.29"/>
<stop offset="1" stop-color="white" stop-opacity="0"/>
</linearGradient>
</defs>
</svg>
