<svg width="24" height="24" viewBox="0 0 24 24" fill="none" xmlns="http://www.w3.org/2000/svg">
<path d="M12.1 1.39L12 1.09C11.98 1.05 11.94 1.03 11.9 1.03H10.95C10.91 1.03 10.87 1.05 10.85 1.09L10.75 1.44V1.46C11.16 1.41 11.57 1.38 12 1.38C12.03 1.39 12.07 1.39 12.1 1.39Z" fill="#444444"/>
<path d="M2.2 7.2C2.16 7.2 2.12 7.23 2.11 7.26L1.68 8.12C1.67 8.16 1.67 8.2 1.69 8.24L1.96 8.49L1.98 8.5C2.13 8.07 2.31 7.66 2.51 7.26L2.2 7.2Z" fill="#444444"/>
<path d="M3.39 18.69C3.38 18.73 3.38 18.77 3.41 18.8L3.99 19.55C4.02 19.58 4.06 19.6 4.1 19.59L4.44 19.46L4.45 19.45C4.13 19.13 3.84 18.79 3.56 18.43L3.39 18.69Z" fill="#444444"/>
<path d="M14.24 22.66C14.27 22.69 14.31 22.7 14.35 22.69L15.28 22.49C15.32 22.48 15.35 22.45 15.37 22.41L15.4 22.05V22.04C14.98 22.18 14.54 22.3 14.1 22.39L14.24 22.66Z" fill="#444444"/>
<path d="M22.57 14.65C22.61 14.64 22.64 14.61 22.65 14.57L22.88 13.65C22.89 13.61 22.88 13.57 22.85 13.54L22.54 13.36C22.48 13.81 22.4 14.25 22.29 14.68L22.57 14.65Z" fill="#444444"/>
<path d="M19.01 3.66C19.02 3.62 19 3.58 18.97 3.55L18.24 2.94C18.21 2.91 18.16 2.91 18.12 2.92L17.82 3.12L17.81 3.13C18.19 3.38 18.55 3.65 18.89 3.94L19.01 3.66Z" fill="#444444"/>
<path d="M7.57 2.03C7.54 2.01 7.49 2 7.46 2.02L6.59 2.41C6.55 2.42 6.52 2.46 6.52 2.5L6.57 2.86L6.58 2.88C6.97 2.65 7.37 2.45 7.78 2.27L7.57 2.03Z" fill="#444444"/>
<path d="M6.86 21.61C6.86 21.65 6.89 21.69 6.92 21.71L7.76 22.16C7.8 22.18 7.84 22.18 7.88 22.15L8.13 21.89V21.88C7.71 21.72 7.3 21.53 6.91 21.31L6.86 21.61Z" fill="#444444"/>
<path d="M18.39 20.82C18.43 20.84 18.47 20.83 18.5 20.81L19.27 20.25C19.3 20.23 19.32 20.18 19.32 20.14L19.2 19.8C18.87 20.1 18.52 20.39 18.15 20.65L18.39 20.82Z" fill="#444444"/>
<path d="M22.73 10.12C22.76 10.09 22.78 10.05 22.77 10.01L22.61 9.07C22.6 9.04 22.57 9 22.53 8.99L22.17 8.95C22.3 9.38 22.4 9.81 22.47 10.26L22.73 10.12Z" fill="#444444"/>
<path d="M15.01 1.52C15 1.48 14.97 1.45 14.93 1.44L14.02 1.18C13.98 1.17 13.94 1.18 13.91 1.21L13.71 1.51V1.52C14.16 1.59 14.6 1.69 15.02 1.82L15.01 1.52Z" fill="#444444"/>
<path d="M3.9 4.69C3.86 4.68 3.82 4.7 3.79 4.73L3.15 5.43C3.12 5.46 3.11 5.51 3.13 5.55L3.32 5.86L3.34 5.87C3.6 5.5 3.88 5.15 4.19 4.82L3.9 4.69Z" fill="#444444"/>
<path d="M1.87 16.06C1.85 16.09 1.84 16.14 1.85 16.17L2.2 17.05C2.22 17.09 2.25 17.12 2.29 17.12L2.65 17.09L2.67 17.08C2.45 16.69 2.27 16.28 2.1 15.86L1.87 16.06Z" fill="#444444"/>
<path d="M11.14 22.57L11.21 22.87C11.23 22.91 11.26 22.93 11.3 22.93L12.26 23C12.3 23 12.34 22.98 12.37 22.95L12.5 22.61V22.6C12.34 22.61 12.17 22.61 12.01 22.61C11.71 22.61 11.42 22.6 11.14 22.57Z" fill="#444444"/>
<path d="M21.42 17.46C21.46 17.46 21.5 17.44 21.52 17.4L22 16.58C22.02 16.54 22.02 16.5 22 16.46L21.75 16.2C21.57 16.61 21.37 17.01 21.14 17.4L21.42 17.46Z" fill="#444444"/>
<path d="M21.04 5.91C21.06 5.87 21.05 5.83 21.03 5.8L20.5 5.01C20.48 4.97 20.44 4.96 20.39 4.96L20.04 5.07L20.03 5.08C20.32 5.42 20.6 5.78 20.84 6.15L21.04 5.91Z" fill="#444444"/>
<path d="M10.49 1.2C10.46 1.17 10.42 1.15 10.38 1.16L9.44 1.29C9.4 1.29 9.36 1.32 9.35 1.36L9.29 1.72V1.74C9.72 1.63 10.16 1.54 10.62 1.48L10.49 1.2Z" fill="#444444"/>
<path d="M1.62 8.61C1.58 8.62 1.55 8.65 1.54 8.69L1.24 9.59C1.23 9.63 1.24 9.67 1.27 9.71L1.57 9.92H1.59C1.68 9.47 1.8 9.04 1.94 8.62L1.62 8.61Z" fill="#444444"/>
<path d="M4.4 19.83C4.39 19.87 4.4 19.91 4.43 19.94L5.11 20.6C5.14 20.63 5.18 20.64 5.23 20.63L5.55 20.45L5.56 20.44C5.2 20.17 4.86 19.87 4.54 19.56L4.4 19.83Z" fill="#444444"/>
<path d="M15.7 22.24C15.73 22.27 15.77 22.27 15.81 22.26L16.7 21.94C16.74 21.93 16.77 21.89 16.77 21.85L16.75 21.49C16.35 21.69 15.94 21.87 15.51 22.02L15.7 22.24Z" fill="#444444"/>
<path d="M22.95 12.01L22.62 11.87H22.61C22.61 11.91 22.61 11.96 22.61 12C22.61 12.41 22.58 12.81 22.54 13.21L22.83 13.15C22.87 13.13 22.89 13.1 22.9 13.06L23 12.12C23 12.07 22.98 12.03 22.95 12.01Z" fill="#444444"/>
<path d="M17.78 2.76C17.78 2.72 17.76 2.68 17.73 2.66L16.92 2.16C16.88 2.14 16.84 2.14 16.8 2.16L16.53 2.4V2.41C16.94 2.6 17.33 2.82 17.71 3.06L17.78 2.76Z" fill="#444444"/>
<path d="M6.22 2.74C6.18 2.72 6.14 2.72 6.11 2.74L5.3 3.25C5.27 3.27 5.25 3.31 5.25 3.36L5.35 3.71L5.36 3.73C5.71 3.45 6.08 3.19 6.46 2.95L6.22 2.74Z" fill="#444444"/>
<path d="M1.14 13.12C1.11 13.14 1.09 13.18 1.09 13.22L1.19 14.16C1.19 14.2 1.22 14.24 1.26 14.25L1.62 14.32H1.64C1.54 13.88 1.47 13.44 1.43 12.99L1.14 13.12Z" fill="#444444"/>
<path d="M8.24 22.23C8.25 22.27 8.28 22.3 8.31 22.32L9.2 22.65C9.24 22.66 9.28 22.66 9.32 22.63L9.54 22.34V22.33C9.1 22.23 8.67 22.09 8.25 21.94L8.24 22.23Z" fill="#444444"/>
<path d="M19.29 19.71L19.55 19.85C19.59 19.86 19.63 19.85 19.66 19.82L20.34 19.16C20.37 19.13 20.38 19.09 20.37 19.05L20.2 18.73C19.92 19.07 19.62 19.4 19.29 19.71Z" fill="#444444"/>
<path d="M22.36 8.64C22.39 8.61 22.4 8.57 22.38 8.53L22.09 7.63C22.08 7.59 22.04 7.56 22 7.55L21.64 7.56H21.63C21.82 7.97 21.98 8.38 22.12 8.81L22.36 8.64Z" fill="#444444"/>
<path d="M13.52 1.2C13.5 1.16 13.47 1.14 13.43 1.13L12.49 1C12.45 1 12.41 1.01 12.38 1.05L12.23 1.38V1.4C12.69 1.41 13.13 1.45 13.57 1.51L13.52 1.2Z" fill="#444444"/>
<path d="M2.96 5.89C2.92 5.89 2.88 5.91 2.86 5.94L2.32 6.72C2.3 6.76 2.3 6.8 2.32 6.84L2.55 7.12L2.57 7.13C2.78 6.73 3.01 6.34 3.26 5.97L2.96 5.89Z" fill="#444444"/>
<path d="M2.54 17.43C2.52 17.47 2.52 17.51 2.54 17.54L3.01 18.36C3.03 18.4 3.07 18.42 3.11 18.42L3.46 18.34L3.47 18.33C3.2 17.97 2.96 17.59 2.74 17.2L2.54 17.43Z" fill="#444444"/>
<path d="M12.73 22.87C12.75 22.9 12.79 22.92 12.83 22.92L13.78 22.86C13.82 22.86 13.86 22.83 13.88 22.79L13.96 22.44V22.43C13.52 22.51 13.08 22.57 12.62 22.59L12.73 22.87Z" fill="#444444"/>
<path d="M22.09 16.09C22.13 16.08 22.16 16.06 22.18 16.02L22.54 15.14C22.56 15.1 22.55 15.06 22.52 15.02L22.24 14.79C22.12 15.23 21.98 15.65 21.8 16.06L22.09 16.09Z" fill="#444444"/>
<path d="M19.95 4.98L20.1 4.72C20.11 4.68 20.1 4.64 20.08 4.61L19.44 3.9C19.41 3.87 19.37 3.86 19.33 3.87L19 4.02V4.03C19.33 4.32 19.65 4.64 19.95 4.98Z" fill="#444444"/>
<path d="M9 1.51C8.97 1.49 8.93 1.48 8.89 1.49L7.97 1.75C7.93 1.76 7.9 1.79 7.89 1.83V2.19L7.9 2.21C8.31 2.04 8.74 1.89 9.18 1.77L9 1.51Z" fill="#444444"/>
<path d="M1.25 10.09C1.22 10.1 1.19 10.14 1.18 10.17L1.01 11.11C1 11.15 1.02 11.19 1.05 11.22L1.37 11.38H1.39C1.42 10.92 1.47 10.48 1.55 10.04L1.25 10.09Z" fill="#444444"/>
<path d="M1.4 11.51L1.1 11.6C1.06 11.62 1.04 11.66 1.04 11.7L1 12.65C1 12.69 1.02 12.73 1.06 12.75L1.4 12.87H1.42C1.4 12.58 1.39 12.29 1.39 12C1.39 11.84 1.39 11.67 1.4 11.51Z" fill="#444444"/>
<path d="M5.57 20.81C5.57 20.85 5.58 20.89 5.62 20.91L6.39 21.47C6.42 21.49 6.47 21.5 6.51 21.48L6.8 21.26L6.81 21.25C6.42 21.03 6.04 20.78 5.68 20.52L5.57 20.81Z" fill="#444444"/>
<path d="M17.09 21.63C17.12 21.65 17.17 21.65 17.2 21.63L18.04 21.19C18.08 21.17 18.1 21.13 18.1 21.09L18.03 20.74C17.66 21 17.28 21.23 16.88 21.43L17.09 21.63Z" fill="#444444"/>
<path d="M22.89 11.63C22.92 11.61 22.94 11.57 22.94 11.53L22.91 10.58C22.91 10.54 22.88 10.5 22.85 10.48L22.5 10.39C22.57 10.83 22.6 11.28 22.61 11.73L22.89 11.63Z" fill="#444444"/>
<path d="M16.44 2.05C16.44 2.01 16.41 1.97 16.37 1.96L15.5 1.57C15.46 1.55 15.42 1.56 15.38 1.58L15.14 1.85V1.86C15.58 2 16 2.16 16.41 2.35L16.44 2.05Z" fill="#444444"/>
<path d="M5.26 3.8L4.99 3.64C4.95 3.62 4.91 3.63 4.88 3.66L4.15 4.27C4.12 4.29 4.1 4.34 4.11 4.38L4.25 4.71L4.27 4.73C4.58 4.4 4.91 4.09 5.26 3.8Z" fill="#444444"/>
<path d="M1.41 14.62C1.38 14.65 1.37 14.69 1.38 14.73L1.61 15.65C1.62 15.69 1.65 15.72 1.69 15.73L2.05 15.75L2.07 15.74C1.91 15.32 1.78 14.89 1.68 14.45L1.41 14.62Z" fill="#444444"/>
<path d="M9.71 22.65C9.72 22.69 9.76 22.72 9.79 22.73L10.72 22.93C10.76 22.94 10.8 22.92 10.83 22.89L11 22.57V22.56C10.55 22.52 10.1 22.45 9.67 22.35L9.71 22.65Z" fill="#444444"/>
<path d="M20.57 18.72C20.61 18.73 20.65 18.71 20.68 18.68L21.27 17.93C21.3 17.9 21.3 17.85 21.28 17.81L21.07 17.51C20.84 17.89 20.58 18.26 20.3 18.61L20.57 18.72Z" fill="#444444"/>
<path d="M21.8 7.23C21.82 7.2 21.83 7.15 21.81 7.12L21.39 6.27C21.37 6.23 21.33 6.21 21.29 6.21L20.93 6.27H20.92C21.16 6.65 21.38 7.04 21.58 7.44L21.8 7.23Z" fill="#444444"/>
<path d="M12 1.39C6.14 1.39 1.38 6.14 1.38 12C1.38 17.86 6.14 22.61 12 22.61C17.86 22.61 22.61 17.86 22.61 12C22.61 6.14 17.86 1.39 12 1.39Z" fill="url(#paint0_radial)"/>
<g opacity="0.3" filter="url(#ic24px_bnb)">
<path d="M12.65 9.06001L10.11 11.6L8.62998 10.13L12.65 6.10001L16.67 10.12L15.19 11.6L12.65 9.06001Z" fill="black"/>
<path d="M7.57998 11.17L6.09998 12.65L7.57998 14.13L9.05998 12.65L7.57998 11.17Z" fill="black"/>
<path d="M12.65 16.23L10.11 13.69L8.62998 15.17L12.65 19.19L16.67 15.17L15.19 13.69L12.65 16.23Z" fill="black"/>
<path d="M17.72 11.17L16.24 12.65L17.72 14.13L19.2 12.65L17.72 11.17Z" fill="black"/>
<path d="M12.65 11.15L14.15 12.65L12.65 14.14L11.15 12.64L11.41 12.38L11.54 12.26L12.65 11.15Z" fill="black"/>
</g>
<path d="M12.1799 8.28001L9.63988 10.82L8.15988 9.35001L12.1799 5.32001L16.1999 9.34001L14.7199 10.82L12.1799 8.28001Z" fill="#FFC532"/>
<path d="M7.10988 10.39L5.62988 11.87L7.10988 13.35L8.58988 11.87L7.10988 10.39Z" fill="#FFC532"/>
<path d="M12.1799 15.45L9.63988 12.91L8.15988 14.39L12.1799 18.41L16.1999 14.39L14.7199 12.91L12.1799 15.45Z" fill="#FFC532"/>
<path d="M17.2499 10.39L15.7699 11.87L17.2499 13.35L18.7299 11.87L17.2499 10.39Z" fill="#FFC532"/>
<path d="M12.1799 10.37L13.6799 11.87L12.1799 13.36L10.6799 11.86L10.9399 11.6L11.0699 11.48L12.1799 10.37Z" fill="#FFC532"/>
<path opacity="0.5" fill-rule="evenodd" clip-rule="evenodd" d="M3.09208 17.4147C2.20082 15.8147 1.66898 13.9267 2.01919 12.0183L1.84407 12C1.48915 13.934 2.02177 15.8571 2.9326 17.4922C3.844 19.1284 5.56983 20.8682 8.08233 21.7167L8.15185 21.5664C5.67436 20.7298 3.98279 19.0137 3.09208 17.4147Z" fill="url(#paint1_linear)"/>
<g filter="url(#filter1_f)">
<path fill-rule="evenodd" clip-rule="evenodd" d="M13.5959 19.5003C11.7303 19.8448 9.78086 19.4883 7.93803 18.6411L7.87207 18.7918C9.73968 19.6504 11.7249 20.0161 13.6314 19.6641C15.5392 19.3118 17.3607 18.2423 18.9018 16.2437L18.7681 16.1397C17.2485 18.1104 15.4603 19.1561 13.5959 19.5003Z" fill="url(#paint2_linear)"/>
</g>
<g filter="url(#filter2_f)">
<path fill-rule="evenodd" clip-rule="evenodd" d="M5.76069 16.56C4.57677 15.1428 4.00544 13.3301 3.93935 11.3804L3.76873 11.3945C3.8357 13.3704 4.41511 15.2174 5.62502 16.6658C6.83568 18.1151 8.67294 19.1595 11.2436 19.5367L11.2783 19.3755C8.74351 19.0035 6.94386 17.9764 5.76069 16.56Z" fill="url(#paint3_linear)"/>
</g>
<g opacity="0.4" filter="url(#filter3_f)">
<path fill-rule="evenodd" clip-rule="evenodd" d="M13.4044 17.3459C11.7814 17.5017 10.1441 17.052 8.63799 16.1907L8.56927 16.3147C10.0956 17.1875 11.7628 17.6477 13.4214 17.4885C15.081 17.3292 16.7256 16.5503 18.2064 14.9564L18.1006 14.8576C16.6404 16.4292 15.0263 17.1902 13.4044 17.3459Z" fill="url(#paint4_linear)"/>
</g>
<path fill-rule="evenodd" clip-rule="evenodd" d="M21.4273 7.79938C20.4358 5.85518 19.0713 3.95674 16.9506 3.01646L17.0488 2.83333C19.198 3.78625 20.5965 5.70897 21.6098 7.69586C22.6237 9.68396 22.887 12.1875 22.0586 15.2083L21.8638 15.1752C22.6807 12.1965 22.4181 9.74235 21.4273 7.79938Z" fill="url(#paint5_linear)"/>
<path fill-rule="evenodd" clip-rule="evenodd" d="M19.1105 7.97852C18.1468 6.53837 16.7191 5.04048 14.658 4.34398L14.7533 4.20833C16.8422 4.9142 18.3031 6.43007 19.2879 7.90183C20.2733 9.3745 20.737 12.0785 19.9319 14.3162L19.7425 14.2917C20.5364 12.0852 20.0735 9.41775 19.1105 7.97852Z" fill="url(#paint6_linear)"/>
<defs>
<filter id="ic24px_bnb" x="5.09998" y="5.10001" width="15.1" height="15.09" filterUnits="userSpaceOnUse" color-interpolation-filters="sRGB">
<feFlood flood-opacity="0" result="BackgroundImageFix"/>
<feBlend mode="normal" in="SourceGraphic" in2="BackgroundImageFix" result="shape"/>
<feGaussianBlur stdDeviation="0.5" result="effect1_foregroundBlur"/>
</filter>
<filter id="filter1_f" x="6.87207" y="15.1397" width="13.0298" height="5.6574" filterUnits="userSpaceOnUse" color-interpolation-filters="sRGB">
<feFlood flood-opacity="0" result="BackgroundImageFix"/>
<feBlend mode="normal" in="SourceGraphic" in2="BackgroundImageFix" result="shape"/>
<feGaussianBlur stdDeviation="0.5" result="effect1_foregroundBlur"/>
</filter>
<filter id="filter2_f" x="2.76874" y="10.3804" width="9.50958" height="10.1563" filterUnits="userSpaceOnUse" color-interpolation-filters="sRGB">
<feFlood flood-opacity="0" result="BackgroundImageFix"/>
<feBlend mode="normal" in="SourceGraphic" in2="BackgroundImageFix" result="shape"/>
<feGaussianBlur stdDeviation="0.5" result="effect1_foregroundBlur"/>
</filter>
<filter id="filter3_f" x="7.56927" y="13.8576" width="11.6372" height="4.66208" filterUnits="userSpaceOnUse" color-interpolation-filters="sRGB">
<feFlood flood-opacity="0" result="BackgroundImageFix"/>
<feBlend mode="normal" in="SourceGraphic" in2="BackgroundImageFix" result="shape"/>
<feGaussianBlur stdDeviation="0.5" result="effect1_foregroundBlur"/>
</filter>
<radialGradient id="paint0_radial" cx="0" cy="0" r="1" gradientUnits="userSpaceOnUse" gradientTransform="translate(11.9991 11.9999) scale(10.6151 10.6101)">
<stop offset="0.1358" stop-color="#646464"/>
<stop offset="0.7046" stop-color="#484848"/>
<stop offset="0.7248" stop-color="#434343"/>
<stop offset="0.7498" stop-color="#333333"/>
<stop offset="0.7623" stop-color="#292929"/>
<stop offset="0.7778" stop-color="#4A4A4A"/>
<stop offset="0.8078" stop-color="#515151"/>
<stop offset="0.8125" stop-color="#515151"/>
<stop offset="0.9109" stop-color="#4A4A4A"/>
<stop offset="0.949" stop-color="#494949"/>
<stop offset="0.9599" stop-color="#535353"/>
<stop offset="0.9806" stop-color="#606060"/>
<stop offset="1" stop-color="#646464"/>
</radialGradient>
<linearGradient id="paint1_linear" x1="7.94712" y1="21.3644" x2="3.03739" y2="12.191" gradientUnits="userSpaceOnUse">
<stop stop-color="white" stop-opacity="0"/>
<stop offset="0.487847" stop-color="white" stop-opacity="0.517361"/>
<stop offset="1" stop-color="white" stop-opacity="0"/>
</linearGradient>
<linearGradient id="paint2_linear" x1="18.9193" y1="16.2867" x2="8.52143" y2="19.0142" gradientUnits="userSpaceOnUse">
<stop stop-opacity="0.39"/>
<stop offset="0.310764" stop-opacity="0.94"/>
<stop offset="0.487847" stop-opacity="0.9"/>
<stop offset="0.670139" stop-opacity="0.71"/>
<stop offset="1" stop-opacity="0.26"/>
</linearGradient>
<linearGradient id="paint3_linear" x1="11.2117" y1="19.5713" x2="4.4276" y2="11.5675" gradientUnits="userSpaceOnUse">
<stop stop-opacity="0.39"/>
<stop offset="0.310764" stop-opacity="0.87"/>
<stop offset="0.487847" stop-opacity="0.71"/>
<stop offset="0.670139"/>
<stop offset="1" stop-opacity="0.26"/>
</linearGradient>
<linearGradient id="paint4_linear" x1="18.2179" y1="14.9945" x2="9.09458" y2="16.4812" gradientUnits="userSpaceOnUse">
<stop stop-opacity="0.79"/>
<stop offset="0.487847" stop-opacity="0.517361"/>
<stop offset="1" stop-opacity="0.72"/>
</linearGradient>
<linearGradient id="paint5_linear" x1="22.1773" y1="16.9585" x2="15.8774" y2="3.67491" gradientUnits="userSpaceOnUse">
<stop stop-color="white" stop-opacity="0"/>
<stop offset="0.487847" stop-color="white" stop-opacity="0.517361"/>
<stop offset="1" stop-color="white" stop-opacity="0"/>
</linearGradient>
<linearGradient id="paint6_linear" x1="19.6548" y1="14.7749" x2="15.8016" y2="4.11478" gradientUnits="userSpaceOnUse">
<stop stop-color="white" stop-opacity="0"/>
<stop offset="0.453125" stop-color="white" stop-opacity="0.57"/>
<stop offset="0.578125" stop-color="white" stop-opacity="0.44"/>
<stop offset="0.703125" stop-color="white" stop-opacity="0.29"/>
<stop offset="1" stop-color="white" stop-opacity="0"/>
</linearGradient>
</defs>
</svg>