<svg width="24" height="24" viewBox="0 0 24 24" fill="none" xmlns="http://www.w3.org/2000/svg">
<path d="M2.19774 7.20368C2.15782 7.20789 2.1221 7.231 2.10319 7.26672L1.68507 8.11977C1.66616 8.15759 1.67036 8.20381 1.69558 8.23743L1.96032 8.48326L1.98133 8.48956C2.13051 8.06304 2.307 7.64702 2.50871 7.24571L2.19774 7.20368Z" fill="#C1C1C1"/>
<path d="M3.38911 18.6947C3.3744 18.7325 3.3807 18.7745 3.40592 18.8081L3.99003 19.5582C4.01524 19.5918 4.05726 19.6086 4.10139 19.6002L4.43756 19.47L4.45017 19.4574C4.135 19.138 3.83875 18.7976 3.5656 18.4383L3.38911 18.6947Z" fill="#C1C1C1"/>
<path d="M14.2371 22.6616C14.2644 22.691 14.3064 22.7036 14.3443 22.6973L15.273 22.5019C15.315 22.4935 15.3465 22.462 15.3591 22.422L15.3885 22.0606L15.3864 22.0543C14.9641 22.1972 14.5313 22.3149 14.0858 22.4052L14.2371 22.6616Z" fill="#C1C1C1"/>
<path d="M22.5597 14.65C22.5996 14.6374 22.629 14.608 22.6374 14.5681L22.8685 13.6457C22.879 13.6058 22.8664 13.5617 22.8349 13.5322L22.5239 13.3473H22.5197C22.463 13.797 22.3811 14.2382 22.2697 14.6689L22.5597 14.65Z" fill="#C1C1C1"/>
<path d="M19.0066 3.65701C19.0129 3.61709 18.9982 3.57717 18.9667 3.54985L18.2397 2.93843C18.2082 2.91321 18.1641 2.90481 18.1242 2.92162L17.8216 3.11912L17.8153 3.12963C18.1914 3.37756 18.5507 3.6486 18.8932 3.94066L19.0066 3.65701Z" fill="#C1C1C1"/>
<path d="M7.56818 2.03285C7.53457 2.00974 7.49254 2.00554 7.45683 2.02234L6.58907 2.40685C6.55125 2.42366 6.52393 2.46148 6.52183 2.5035L6.56805 2.86279L6.57856 2.8817C6.96306 2.65268 7.36438 2.44677 7.7783 2.26607L7.56818 2.03285Z" fill="#C1C1C1"/>
<path d="M1.39934 11.5152L1.09468 11.6013C1.05896 11.6202 1.03585 11.658 1.03585 11.698L1.00013 12.6477C0.998031 12.6897 1.02114 12.7296 1.05686 12.7506L1.39934 12.8662L1.42456 12.8641C1.40144 12.5783 1.38674 12.2926 1.38674 12.0005C1.38674 11.8387 1.39094 11.677 1.39934 11.5152Z" fill="#C1C1C1"/>
<path d="M6.85593 21.6131C6.85803 21.653 6.88114 21.6909 6.91686 21.7098L7.7552 22.1573C7.79302 22.1762 7.83714 22.1741 7.87286 22.151L8.1271 21.8947L8.1313 21.8821C7.71108 21.7182 7.30136 21.5291 6.90845 21.3127L6.85593 21.6131Z" fill="#C1C1C1"/>
<path d="M18.3805 20.8252C18.4183 20.842 18.4604 20.8357 18.494 20.8126L19.263 20.2558C19.2966 20.2306 19.3155 20.1886 19.3092 20.1465L19.1894 19.8062L19.1852 19.802C18.8554 20.1066 18.5045 20.3882 18.1389 20.6487L18.3805 20.8252Z" fill="#C1C1C1"/>
<path d="M22.7256 10.12C22.7572 10.0927 22.7719 10.0528 22.7635 10.0129L22.5996 9.07787C22.5933 9.03585 22.5618 9.00223 22.5218 8.98753L22.1625 8.94551L22.1583 8.94761C22.2865 9.37413 22.3874 9.81116 22.4609 10.2587L22.7256 10.12Z" fill="#C1C1C1"/>
<path d="M15.0083 1.52438C14.9978 1.48446 14.9683 1.45504 14.9284 1.44244L14.0165 1.1798C13.9766 1.16719 13.9325 1.1798 13.9031 1.21131L13.7077 1.51598L13.7056 1.53068C14.1531 1.60212 14.5922 1.70508 15.0188 1.83114L15.0083 1.52438Z" fill="#C1C1C1"/>
<path d="M3.89756 4.69286C3.85763 4.68445 3.81561 4.69916 3.7904 4.72857L3.15376 5.43455C3.12645 5.46606 3.11594 5.51019 3.13065 5.55011L3.31765 5.85897L3.33866 5.87368C3.5992 5.50599 3.88285 5.1551 4.18541 4.82312L3.89756 4.69286Z" fill="#C1C1C1"/>
<path d="M1.87628 16.0662C1.85107 16.0977 1.84687 16.1418 1.86157 16.1796L2.21666 17.0621C2.23137 17.102 2.26919 17.1293 2.31121 17.1335L2.6705 17.0999L2.68521 17.0915C2.4709 16.6986 2.2818 16.2889 2.11581 15.8687L1.87628 16.0662Z" fill="#C1C1C1"/>
<path d="M11.138 22.5733L11.2116 22.8696C11.2305 22.9053 11.2662 22.9305 11.3061 22.9326L12.2537 22.9998C12.2957 23.0019 12.3357 22.983 12.3588 22.9452L12.4869 22.6069V22.5964C12.3251 22.6048 12.1613 22.609 11.9974 22.609C11.7074 22.6111 11.4217 22.5964 11.138 22.5733Z" fill="#C1C1C1"/>
<path d="M21.4187 17.4613C21.4586 17.4613 21.4965 17.4382 21.5175 17.4046L21.9944 16.583C22.0154 16.5473 22.0154 16.5011 21.9923 16.4654L21.7444 16.2027H21.7423C21.5637 16.6167 21.3578 17.018 21.1309 17.4025L21.4187 17.4613Z" fill="#C1C1C1"/>
<path d="M21.0321 5.9157C21.0489 5.87788 21.0468 5.83586 21.0237 5.80224L20.4942 5.01433C20.4711 4.97861 20.4291 4.9597 20.3871 4.9639L20.0425 5.07106L20.0341 5.07736C20.3261 5.41774 20.5993 5.77493 20.8472 6.15103L21.0321 5.9157Z" fill="#C1C1C1"/>
<path d="M10.4867 1.20081C10.4615 1.16929 10.4215 1.15248 10.3816 1.15879L9.44031 1.28905C9.39829 1.29536 9.36257 1.32267 9.34786 1.36259L9.29324 1.71978L9.29744 1.73659C9.72817 1.62313 10.1715 1.53909 10.6232 1.48026L10.4867 1.20081Z" fill="#C1C1C1"/>
<path d="M1.62628 8.61353C1.58636 8.62194 1.55485 8.65135 1.54224 8.68917L1.24808 9.59265C1.23548 9.63257 1.24598 9.67669 1.2754 9.70821L1.57166 9.91412L1.59267 9.91832C1.68091 9.47289 1.80068 9.03796 1.94145 8.61353H1.62628Z" fill="#C1C1C1"/>
<path d="M4.40392 19.8272C4.39552 19.8671 4.40603 19.9091 4.43544 19.9364L5.1183 20.5983C5.14772 20.6277 5.19184 20.6382 5.23386 20.6256L5.54903 20.4491L5.55954 20.4365C5.20235 20.1633 4.86197 19.8671 4.5405 19.5519L4.40392 19.8272Z" fill="#C1C1C1"/>
<path d="M15.6995 22.2455C15.731 22.2708 15.773 22.2792 15.8109 22.2645L16.7038 21.9409C16.7437 21.9262 16.7711 21.8905 16.7774 21.8484L16.7564 21.487L16.7543 21.4828C16.355 21.6845 15.9411 21.861 15.5146 22.0102L15.6995 22.2455Z" fill="#C1C1C1"/>
<path d="M22.9442 12.0089L22.6101 11.8703H22.6038C22.6038 11.9144 22.608 11.9585 22.608 12.0026C22.608 12.4123 22.5828 12.8179 22.5365 13.215L22.8265 13.154C22.8643 13.1372 22.8895 13.1015 22.8937 13.0616L22.9946 12.1161C22.9988 12.0741 22.9799 12.032 22.9442 12.0089Z" fill="#C1C1C1"/>
<path d="M17.7775 2.76194C17.7775 2.72201 17.7586 2.68419 17.7229 2.66108L16.9182 2.15682C16.8824 2.1337 16.8362 2.1337 16.8005 2.15471L16.5294 2.39424L16.5252 2.40475C16.9329 2.59805 17.3258 2.81656 17.704 3.05819L17.7775 2.76194Z" fill="#C1C1C1"/>
<path d="M6.22561 2.74513C6.18989 2.72622 6.14576 2.72832 6.11214 2.74933L5.30532 3.25149C5.2696 3.27461 5.24859 3.31453 5.25069 3.35655L5.34524 3.70533L5.35995 3.72424C5.71083 3.4427 6.07853 3.18216 6.46303 2.94683L6.22561 2.74513Z" fill="#C1C1C1"/>
<path d="M1.14509 13.1204C1.11147 13.1456 1.09467 13.1834 1.09887 13.2234L1.19762 14.1689C1.20182 14.2109 1.22914 14.2466 1.26906 14.2634L1.62415 14.3307L1.64516 14.3265C1.54851 13.8915 1.47707 13.4461 1.43505 12.9922L1.14509 13.1204Z" fill="#C1C1C1"/>
<path d="M8.24478 22.235C8.25319 22.275 8.2805 22.3086 8.31832 22.3212L9.2113 22.6469C9.25122 22.6616 9.29534 22.6532 9.32686 22.6237L9.54327 22.3338L9.54537 22.3212C9.10414 22.2161 8.67341 22.0859 8.25529 21.9283L8.24478 22.235Z" fill="#C1C1C1"/>
<path d="M19.2861 19.7095L19.5487 19.8503C19.5886 19.8608 19.6307 19.8503 19.658 19.823L20.3429 19.1632C20.3724 19.1338 20.385 19.0897 20.3745 19.0498L20.2085 18.7283L20.2064 18.7262C19.9206 19.0729 19.6118 19.4006 19.2861 19.7095Z" fill="#C1C1C1"/>
<path d="M22.36 8.64505C22.3874 8.61353 22.3958 8.57151 22.3832 8.53369L22.0911 7.63021C22.0785 7.59029 22.0449 7.56087 22.0029 7.55247L21.6415 7.56087L21.6373 7.56298C21.8243 7.96849 21.9882 8.38661 22.1247 8.81734L22.36 8.64505Z" fill="#C1C1C1"/>
<path d="M13.5207 1.20501C13.5039 1.16719 13.4702 1.14198 13.4303 1.13567L12.489 1.0012C12.447 0.9949 12.405 1.01381 12.3798 1.04743L12.2285 1.3752V1.39411C12.6844 1.40462 13.132 1.44034 13.5711 1.50547L13.5207 1.20501Z" fill="#C1C1C1"/>
<path d="M2.96049 5.88839C2.92057 5.88629 2.88065 5.9052 2.85753 5.93881L2.32595 6.72463C2.30284 6.76035 2.30074 6.80447 2.31965 6.84229L2.54867 7.12174L2.56968 7.13225C2.77769 6.73093 3.00881 6.34433 3.26515 5.97453L2.96049 5.88839Z" fill="#C1C1C1"/>
<path d="M2.54026 17.434C2.52135 17.4697 2.52135 17.5117 2.54026 17.5475L3.01301 18.3711C3.03402 18.4068 3.07394 18.4299 3.11596 18.4278L3.46895 18.3438L3.48366 18.3333C3.21472 17.974 2.97099 17.5937 2.75037 17.2008L2.54026 17.434Z" fill="#C1C1C1"/>
<path d="M12.7327 22.8717C12.7558 22.9053 12.7958 22.9242 12.8357 22.9221L13.7833 22.857C13.8253 22.8549 13.8631 22.8276 13.8799 22.7897L13.9598 22.4367L13.9577 22.4283C13.5206 22.5103 13.0752 22.567 12.6193 22.5922L12.7327 22.8717Z" fill="#C1C1C1"/>
<path d="M22.0869 16.0956C22.1268 16.0893 22.1604 16.062 22.1752 16.0263L22.5323 15.1459C22.5492 15.106 22.5407 15.0618 22.5134 15.0282L22.2319 14.8013H22.2298C22.11 15.2383 21.965 15.6628 21.7949 16.0746L22.0869 16.0956Z" fill="#C1C1C1"/>
<path d="M19.948 4.97651L20.0992 4.71597C20.1118 4.67605 20.1013 4.63403 20.0761 4.60461L19.4416 3.89654C19.4143 3.86502 19.3702 3.85241 19.3281 3.86082L19.0004 4.0163L18.9919 4.0247C19.3302 4.32306 19.6496 4.64033 19.948 4.97651Z" fill="#C1C1C1"/>
<path d="M8.99904 1.51597C8.96963 1.48866 8.92761 1.47815 8.88768 1.48866L7.9737 1.7492C7.93378 1.7597 7.90226 1.79332 7.89386 1.83534L7.88966 2.19674L7.89596 2.21354C8.30778 2.04125 8.7343 1.89418 9.17133 1.77441L8.99904 1.51597Z" fill="#C1C1C1"/>
<path d="M1.25649 10.0885C1.21867 10.1032 1.19136 10.1368 1.18295 10.1768L1.01697 11.1118C1.00856 11.1538 1.02537 11.1958 1.05899 11.2231L1.38256 11.3849L1.40567 11.387C1.43089 10.9311 1.48762 10.4856 1.56956 10.0465L1.25649 10.0885Z" fill="#C1C1C1"/>
<path d="M5.56793 20.8063C5.56373 20.8462 5.58264 20.8861 5.61416 20.9092L6.38106 21.4681C6.41468 21.4933 6.46091 21.4975 6.49873 21.4786L6.78658 21.2601L6.79288 21.2475C6.39997 21.0269 6.02177 20.7811 5.66248 20.5142L5.56793 20.8063Z" fill="#C1C1C1"/>
<path d="M17.0904 21.6299C17.1262 21.6509 17.1682 21.653 17.2039 21.6341L18.0443 21.1887C18.0822 21.1698 18.1053 21.1299 18.1053 21.0878L18.0338 20.7327L18.0317 20.7285C17.664 20.9828 17.2774 21.216 16.8782 21.4219L17.0904 21.6299Z" fill="#C1C1C1"/>
<path d="M22.8811 11.6328C22.9147 11.6097 22.9358 11.5719 22.9337 11.532L22.9021 10.5823C22.9 10.5402 22.8769 10.5024 22.837 10.4835L22.4882 10.3911H22.4861C22.5534 10.8302 22.5891 11.2777 22.6017 11.7337L22.8811 11.6328Z" fill="#C1C1C1"/>
<path d="M16.4349 2.04546C16.4307 2.00554 16.4055 1.96982 16.3676 1.95301L15.4999 1.5643C15.4621 1.54749 15.4158 1.5517 15.3822 1.57901L15.1469 1.85215L15.1448 1.86266C15.5776 1.99713 15.9958 2.16102 16.4034 2.34592L16.4349 2.04546Z" fill="#C1C1C1"/>
<path d="M5.25909 3.80409L4.99225 3.636C4.95443 3.62339 4.91031 3.62969 4.88089 3.65701L4.15181 4.26633C4.12029 4.29365 4.10558 4.33567 4.11399 4.37769L4.25686 4.70967L4.27577 4.72648C4.58464 4.4008 4.91241 4.08984 5.25909 3.80409Z" fill="#C1C1C1"/>
<path d="M1.40776 14.6185C1.37834 14.6479 1.36784 14.6878 1.37624 14.7278L1.60526 15.6502C1.61577 15.6901 1.64728 15.7237 1.68931 15.7342L2.0507 15.751L2.06961 15.7447C1.91202 15.3266 1.78176 14.8959 1.6767 14.4525L1.40776 14.6185Z" fill="#C1C1C1"/>
<path d="M9.70506 22.6553C9.71767 22.6931 9.75129 22.7225 9.78911 22.7309L10.7178 22.9305C10.7598 22.9389 10.8018 22.9242 10.8292 22.8927L11.0036 22.5754V22.5649C10.5518 22.5229 10.1064 22.4515 9.67145 22.3548L9.70506 22.6553Z" fill="#C1C1C1"/>
<path d="M20.5678 18.7199C20.6077 18.7241 20.6476 18.7094 20.6728 18.6779L21.259 17.9299C21.2842 17.8962 21.2905 17.8521 21.2737 17.8122L21.0657 17.5159H21.0636C20.8283 17.9004 20.5699 18.2681 20.2883 18.6169L20.5678 18.7199Z" fill="#C1C1C1"/>
<path d="M21.7906 7.2331C21.8137 7.19948 21.8158 7.15536 21.799 7.11964L21.383 6.26449C21.3641 6.22667 21.3263 6.20145 21.2842 6.19935L20.9271 6.25818L20.9208 6.26239C21.1624 6.63849 21.3851 7.02929 21.5784 7.43691L21.7906 7.2331Z" fill="#C1C1C1"/>
<path d="M12.0982 1.39411L12.0037 1.09786C11.9826 1.06214 11.9448 1.04113 11.9049 1.04113L10.9552 1.03902C10.9132 1.03902 10.8733 1.06214 10.8543 1.09996L10.7493 1.44664L10.7514 1.46555C11.1611 1.41722 11.575 1.38991 11.9974 1.38991C12.031 1.38991 12.0646 1.39201 12.0982 1.39411Z" fill="#C1C1C1"/>
<path d="M11.9974 1.38991C6.13739 1.38991 1.38678 6.14052 1.38678 12.0005C1.38678 17.8605 6.13739 22.6111 11.9974 22.6111C17.8574 22.6111 22.608 17.8605 22.608 12.0005C22.608 6.14052 17.8574 1.38991 11.9974 1.38991Z" fill="url(#paint0_radial)"/>
<path d="M10.9195 13.7508C10.9195 12.8579 11.5712 11.9958 12.1921 11.5109C12.813 11.0106 13.4647 10.2999 13.4647 9.63278C13.4647 8.92206 12.949 8.52694 12.0869 8.52694C11.2402 8.52694 10.6347 8.98108 10.2858 9.87396L8.5 8.84509C9.10552 7.3467 10.5295 6.5 12.1639 6.5C13.0876 6.5 13.8752 6.77197 14.5398 7.30308C15.2197 7.83162 15.5532 8.5603 15.5532 9.48396C15.5532 11.7393 13.0106 12.4346 13.0106 13.7534H10.9195V13.7508ZM11.0555 17.1248C10.5552 16.6244 10.5552 15.8085 11.0555 15.3082C11.5558 14.8079 12.3717 14.8079 12.872 15.3082C13.3724 15.8085 13.3724 16.6244 12.872 17.1248C12.3717 17.6251 11.5558 17.6251 11.0555 17.1248Z" fill="#3D3D3D"/>
<defs>
<radialGradient id="paint0_radial" cx="0" cy="0" r="1" gradientUnits="userSpaceOnUse" gradientTransform="translate(11.9972 12.0012) scale(10.6106)">
<stop offset="0.1952" stop-color="#FAFAFA"/>
<stop offset="0.7046" stop-color="#C5C5C5"/>
<stop offset="0.7248" stop-color="#C0C0C0"/>
<stop offset="0.7498" stop-color="#B0B0B0"/>
<stop offset="0.7623" stop-color="#A6A6A6"/>
<stop offset="0.7778" stop-color="#C7C7C7"/>
<stop offset="0.8078" stop-color="#CECECE"/>
<stop offset="0.8125" stop-color="#CECECE"/>
<stop offset="0.9109" stop-color="#C7C7C7"/>
<stop offset="0.949" stop-color="#C6C6C6"/>
<stop offset="0.9599" stop-color="#D0D0D0"/>
<stop offset="0.9806" stop-color="#DDDDDD"/>
<stop offset="1" stop-color="#E1E1E1"/>
</radialGradient>
</defs>
</svg>
