<svg width="36" height="36" viewBox="0 0 36 36" fill="none" xmlns="http://www.w3.org/2000/svg">
<g opacity="0.3">
<path d="M18.8169 23.7311C18.7897 23.734 18.7653 23.7497 18.7524 23.7741L18.4672 24.3559C18.4543 24.3817 18.4572 24.4132 18.4744 24.4361L18.655 24.6038L18.6693 24.6081C18.771 24.3172 18.8914 24.0335 19.029 23.7597L18.8169 23.7311Z" fill="#FA5C51"/>
<path d="M19.6294 31.5683C19.6194 31.594 19.6237 31.6227 19.6409 31.6456L20.0393 32.1572C20.0565 32.1802 20.0851 32.1916 20.1152 32.1859L20.3445 32.097L20.3531 32.0884C20.1382 31.8706 19.9361 31.6385 19.7498 31.3934L19.6294 31.5683Z" fill="#FA5C51"/>
<path d="M27.0281 34.2738C27.0467 34.2939 27.0754 34.3024 27.1012 34.2982L27.7346 34.1649C27.7632 34.1591 27.7847 34.1377 27.7933 34.1104L27.8134 33.8639L27.8119 33.8596C27.5239 33.9571 27.2287 34.0373 26.9249 34.099L27.0281 34.2738Z" fill="#FA5C51"/>
<path d="M32.7043 28.8097C32.7315 28.8011 32.7516 28.781 32.7573 28.7538L32.9149 28.1247C32.9221 28.0975 32.9135 28.0674 32.892 28.0473L32.6799 27.9212H32.6771C32.6384 28.2279 32.5825 28.5288 32.5065 28.8226L32.7043 28.8097Z" fill="#FA5C51"/>
<path d="M30.281 21.3122C30.2853 21.2849 30.2753 21.2577 30.2538 21.2391L29.758 20.8221C29.7365 20.8049 29.7064 20.7991 29.6792 20.8106L29.4728 20.9453L29.4685 20.9525C29.725 21.1216 29.9701 21.3064 30.2036 21.5056L30.281 21.3122Z" fill="#FA5C51"/>
<path d="M22.4797 20.2044C22.4568 20.1887 22.4281 20.1858 22.4037 20.1973L21.8119 20.4595C21.7861 20.471 21.7675 20.4968 21.766 20.5254L21.7976 20.7705L21.8047 20.7834C22.067 20.6272 22.3407 20.4867 22.623 20.3635L22.4797 20.2044Z" fill="#FA5C51"/>
<path d="M18.2724 26.6716L18.0646 26.7304C18.0402 26.7433 18.0245 26.7691 18.0245 26.7963L18.0001 27.444C17.9987 27.4727 18.0144 27.4999 18.0388 27.5142L18.2724 27.5931L18.2896 27.5916C18.2738 27.3967 18.2638 27.2019 18.2638 27.0027C18.2638 26.8923 18.2666 26.782 18.2724 26.6716Z" fill="#FA5C51"/>
<path d="M21.9939 33.5587C21.9953 33.5859 22.0111 33.6117 22.0355 33.6246L22.6072 33.9299C22.633 33.9428 22.6631 33.9413 22.6875 33.9256L22.8609 33.7507L22.8637 33.7421C22.5771 33.6304 22.2977 33.5014 22.0297 33.3538L21.9939 33.5587Z" fill="#FA5C51"/>
<path d="M29.854 33.0213C29.8798 33.0328 29.9085 33.0285 29.9314 33.0127L30.4559 32.633C30.4788 32.6158 30.4917 32.5871 30.4874 32.5585L30.4057 32.3263L30.4028 32.3235C30.1779 32.5312 29.9385 32.7233 29.6892 32.901L29.854 33.0213Z" fill="#FA5C51"/>
<path d="M32.8175 25.7201C32.839 25.7015 32.849 25.6743 32.8433 25.647L32.7315 25.0093C32.7272 24.9807 32.7057 24.9577 32.6785 24.9477L32.4334 24.9191L32.4306 24.9205C32.518 25.2114 32.5868 25.5095 32.6369 25.8147L32.8175 25.7201Z" fill="#FA5C51"/>
<path d="M27.554 19.8576C27.5469 19.8304 27.5268 19.8104 27.4996 19.8018L26.8776 19.6226C26.8504 19.614 26.8203 19.6226 26.8003 19.6441L26.667 19.8519L26.6656 19.8619C26.9708 19.9107 27.2703 19.9809 27.5612 20.0669L27.554 19.8576Z" fill="#FA5C51"/>
<path d="M19.9762 22.0186C19.949 22.0129 19.9203 22.0229 19.9031 22.043L19.4689 22.5245C19.4503 22.546 19.4431 22.5761 19.4532 22.6033L19.5807 22.814L19.595 22.824C19.7727 22.5732 19.9662 22.3339 20.1725 22.1075L19.9762 22.0186Z" fill="#FA5C51"/>
<path d="M18.5976 29.7755C18.5805 29.797 18.5776 29.8271 18.5876 29.8529L18.8298 30.4548C18.8398 30.482 18.8656 30.5007 18.8943 30.5035L19.1393 30.4806L19.1494 30.4749C19.0032 30.2069 18.8742 29.9274 18.761 29.6408L18.5976 29.7755Z" fill="#FA5C51"/>
<path d="M24.9144 34.2136L24.9646 34.4157C24.9775 34.44 25.0018 34.4572 25.0291 34.4586L25.6753 34.5045C25.704 34.5059 25.7312 34.493 25.747 34.4672L25.8344 34.2365V34.2294C25.7241 34.2351 25.6123 34.238 25.5005 34.238C25.3028 34.2394 25.1079 34.2294 24.9144 34.2136Z" fill="#FA5C51"/>
<path d="M31.9261 30.7271C31.9534 30.7271 31.9792 30.7113 31.9935 30.6884L32.3188 30.1281C32.3331 30.1037 32.3331 30.0722 32.3174 30.0478L32.1483 29.8687H32.1468C32.025 30.151 31.8846 30.4247 31.7298 30.6869L31.9261 30.7271Z" fill="#FA5C51"/>
<path d="M31.6625 22.8526C31.6739 22.8269 31.6725 22.7982 31.6567 22.7753L31.2956 22.2379C31.2799 22.2135 31.2512 22.2006 31.2225 22.2035L30.9875 22.2766L30.9818 22.2809C31.181 22.513 31.3673 22.7566 31.5364 23.0131L31.6625 22.8526Z" fill="#FA5C51"/>
<path d="M24.4702 19.637C24.453 19.6155 24.4257 19.604 24.3985 19.6083L23.7565 19.6971C23.7279 19.7014 23.7035 19.7201 23.6935 19.7473L23.6562 19.9909L23.6591 20.0024C23.9529 19.925 24.2552 19.8677 24.5633 19.8275L24.4702 19.637Z" fill="#FA5C51"/>
<path d="M18.4271 24.6926C18.3999 24.6984 18.3784 24.7184 18.3698 24.7442L18.1692 25.3604C18.1606 25.3877 18.1678 25.4177 18.1878 25.4392L18.3899 25.5797L18.4042 25.5825C18.4644 25.2787 18.5461 24.9821 18.6421 24.6926H18.4271Z" fill="#FA5C51"/>
<path d="M20.3216 32.3406C20.3158 32.3679 20.323 32.3965 20.3431 32.4152L20.8088 32.8666C20.8289 32.8866 20.859 32.8938 20.8876 32.8852L21.1026 32.7648L21.1097 32.7562C20.8661 32.5699 20.634 32.3679 20.4147 32.1529L20.3216 32.3406Z" fill="#FA5C51"/>
<path d="M28.0255 33.9901C28.047 34.0072 28.0756 34.013 28.1014 34.0029L28.7104 33.7823C28.7377 33.7722 28.7563 33.7479 28.7606 33.7192L28.7463 33.4727L28.7448 33.4699C28.4726 33.6074 28.1903 33.7278 27.8994 33.8296L28.0255 33.9901Z" fill="#FA5C51"/>
<path d="M32.9665 27.0084L32.7387 26.9138H32.7344C32.7344 26.9439 32.7373 26.974 32.7373 27.0041C32.7373 27.2835 32.7201 27.5601 32.6885 27.8309L32.8863 27.7894C32.9121 27.7779 32.9293 27.7536 32.9321 27.7263L33.0009 27.0815C33.0038 27.0528 32.9909 27.0242 32.9665 27.0084Z" fill="#FA5C51"/>
<path d="M29.4427 20.7017C29.4427 20.6745 29.4298 20.6487 29.4055 20.6329L28.8566 20.289C28.8323 20.2732 28.8007 20.2732 28.7764 20.2875L28.5915 20.4509L28.5887 20.4581C28.8667 20.5899 29.1346 20.7389 29.3926 20.9037L29.4427 20.7017Z" fill="#FA5C51"/>
<path d="M21.564 20.6902C21.5396 20.6773 21.5096 20.6788 21.4866 20.6931L20.9363 21.0356C20.912 21.0513 20.8977 21.0786 20.8991 21.1072L20.9636 21.3451L20.9736 21.358C21.2129 21.166 21.4637 20.9883 21.7259 20.8278L21.564 20.6902Z" fill="#FA5C51"/>
<path d="M18.099 27.7665C18.076 27.7837 18.0646 27.8095 18.0674 27.8367L18.1348 28.4815C18.1376 28.5102 18.1563 28.5346 18.1835 28.546L18.4257 28.5919L18.44 28.589C18.3741 28.2924 18.3254 27.9886 18.2967 27.679L18.099 27.7665Z" fill="#FA5C51"/>
<path d="M22.9411 33.9829C22.9469 34.0101 22.9655 34.033 22.9913 34.0416L23.6003 34.2638C23.6276 34.2738 23.6577 34.2681 23.6791 34.248L23.8267 34.0502L23.8282 34.0416C23.5272 33.97 23.2335 33.8811 22.9483 33.7737L22.9411 33.9829Z" fill="#FA5C51"/>
<path d="M30.4716 32.2604L30.6507 32.3564C30.678 32.3636 30.7066 32.3564 30.7253 32.3378L31.1924 31.8878C31.2125 31.8678 31.2211 31.8377 31.2139 31.8104L31.1007 31.5912L31.0993 31.5898C30.9044 31.8262 30.6937 32.0497 30.4716 32.2604Z" fill="#FA5C51"/>
<path d="M32.5681 24.7141C32.5868 24.6926 32.5925 24.664 32.5839 24.6382L32.3847 24.022C32.3761 23.9948 32.3532 23.9747 32.3245 23.969L32.0781 23.9747L32.0752 23.9761C32.2027 24.2527 32.3145 24.5379 32.4077 24.8316L32.5681 24.7141Z" fill="#FA5C51"/>
<path d="M26.5394 19.6398C26.528 19.614 26.5051 19.5968 26.4778 19.5925L25.8358 19.5008C25.8072 19.4965 25.7785 19.5094 25.7613 19.5323L25.6581 19.7559V19.7688C25.9691 19.776 26.2743 19.8003 26.5738 19.8447L26.5394 19.6398Z" fill="#FA5C51"/>
<path d="M19.3371 22.834C19.3099 22.8326 19.2827 22.8455 19.2669 22.8684L18.9043 23.4044C18.8886 23.4287 18.8871 23.4588 18.9 23.4846L19.0562 23.6752L19.0706 23.6824C19.2124 23.4087 19.3701 23.145 19.5449 22.8928L19.3371 22.834Z" fill="#FA5C51"/>
<path d="M19.0505 30.7084C19.0376 30.7328 19.0376 30.7615 19.0505 30.7858L19.3729 31.3476C19.3873 31.3719 19.4145 31.3877 19.4431 31.3863L19.6839 31.3289L19.6939 31.3218C19.5105 31.0767 19.3443 30.8174 19.1938 30.5494L19.0505 30.7084Z" fill="#FA5C51"/>
<path d="M26.002 34.4171C26.0178 34.44 26.045 34.4529 26.0723 34.4515L26.7186 34.4071C26.7472 34.4056 26.773 34.387 26.7845 34.3612L26.8389 34.1205L26.8375 34.1147C26.5394 34.1706 26.2356 34.2093 25.9247 34.2265L26.002 34.4171Z" fill="#FA5C51"/>
<path d="M32.3819 29.7956C32.4091 29.7913 32.432 29.7727 32.442 29.7483L32.6857 29.1479C32.6971 29.1207 32.6914 29.0906 32.6728 29.0676L32.4807 28.9129H32.4793C32.3976 29.2109 32.2987 29.5004 32.1827 29.7813L32.3819 29.7956Z" fill="#FA5C51"/>
<path d="M30.923 22.2121L31.0262 22.0344C31.0348 22.0072 31.0276 21.9785 31.0104 21.9584L30.5777 21.4755C30.559 21.454 30.529 21.4454 30.5003 21.4512L30.2767 21.5572L30.271 21.5629C30.5017 21.7664 30.7195 21.9828 30.923 22.2121Z" fill="#FA5C51"/>
<path d="M23.4556 19.8519C23.4355 19.8333 23.4068 19.8261 23.3796 19.8333L22.7563 20.011C22.729 20.0181 22.7075 20.0411 22.7018 20.0697L22.6989 20.3162L22.7032 20.3277C22.9841 20.2102 23.275 20.1099 23.5731 20.0282L23.4556 19.8519Z" fill="#FA5C51"/>
<path d="M18.1749 25.6986C18.1491 25.7086 18.1305 25.7316 18.1248 25.7588L18.0116 26.3965C18.0058 26.4252 18.0173 26.4538 18.0402 26.4724L18.2609 26.5828L18.2767 26.5842C18.2939 26.2733 18.3326 25.9695 18.3885 25.67L18.1749 25.6986Z" fill="#FA5C51"/>
<path d="M21.1155 33.0084C21.1126 33.0357 21.1255 33.0629 21.147 33.0787L21.67 33.4598C21.693 33.477 21.7245 33.4799 21.7503 33.467L21.9466 33.318L21.9509 33.3094C21.6829 33.1589 21.425 32.9912 21.1799 32.8092L21.1155 33.0084Z" fill="#FA5C51"/>
<path d="M28.9741 33.5702C28.9985 33.5845 29.0271 33.5859 29.0515 33.573L29.6247 33.2692C29.6505 33.2563 29.6663 33.2291 29.6663 33.2005L29.6175 32.9583L29.6161 32.9554C29.3653 33.1288 29.1017 33.2879 28.8294 33.4283L28.9741 33.5702Z" fill="#FA5C51"/>
<path d="M32.9235 26.7519C32.9465 26.7361 32.9608 26.7103 32.9594 26.6831L32.9379 26.0354C32.9364 26.0067 32.9207 25.9809 32.8935 25.968L32.6556 25.905H32.6541C32.7 26.2045 32.7244 26.5097 32.733 26.8207L32.9235 26.7519Z" fill="#FA5C51"/>
<path d="M28.527 20.213C28.5242 20.1858 28.507 20.1614 28.4812 20.15L27.8893 19.8849C27.8635 19.8734 27.832 19.8763 27.8091 19.8949L27.6486 20.0812L27.6471 20.0884C27.9424 20.1801 28.2275 20.2918 28.5055 20.418L28.527 20.213Z" fill="#FA5C51"/>
<path d="M20.9048 21.4125L20.7228 21.2978C20.697 21.2892 20.6669 21.2935 20.6469 21.3122L20.1496 21.7277C20.1281 21.7464 20.1181 21.775 20.1238 21.8037L20.2213 22.0301L20.2342 22.0416C20.4448 21.8194 20.6684 21.6074 20.9048 21.4125Z" fill="#FA5C51"/>
<path d="M18.2781 28.7882C18.258 28.8083 18.2509 28.8355 18.2566 28.8627L18.4128 29.4918C18.42 29.519 18.4415 29.542 18.4701 29.5491L18.7166 29.5606L18.7295 29.5563C18.622 29.2711 18.5332 28.9774 18.4615 28.675L18.2781 28.7882Z" fill="#FA5C51"/>
<path d="M23.9371 34.2695C23.9457 34.2953 23.9686 34.3153 23.9944 34.3211L24.6278 34.4572C24.6565 34.4629 24.6851 34.4529 24.7038 34.4314L24.8227 34.215V34.2079C24.5146 34.1792 24.2108 34.1305 23.9142 34.0646L23.9371 34.2695Z" fill="#FA5C51"/>
<path d="M31.3458 31.5854C31.373 31.5883 31.4002 31.5783 31.4174 31.5568L31.8172 31.0466C31.8344 31.0237 31.8387 30.9936 31.8273 30.9664L31.6854 30.7643H31.684C31.5235 31.0266 31.3472 31.2774 31.1552 31.5152L31.3458 31.5854Z" fill="#FA5C51"/>
<path d="M32.1798 23.7511C32.1955 23.7282 32.197 23.6981 32.1855 23.6738L31.9018 23.0905C31.8889 23.0647 31.8631 23.0475 31.8344 23.0461L31.5908 23.0862L31.5865 23.0891C31.7513 23.3456 31.9032 23.6121 32.035 23.8902L32.1798 23.7511Z" fill="#FA5C51"/>
<path d="M25.5693 19.7688L25.5048 19.5667C25.4905 19.5424 25.4647 19.528 25.4374 19.528L24.7897 19.5266C24.7611 19.5266 24.7338 19.5424 24.7209 19.5682L24.6493 19.8046L24.6507 19.8175C24.9302 19.7846 25.2125 19.7659 25.5005 19.7659C25.5234 19.7659 25.5464 19.7674 25.5693 19.7688Z" fill="#FA5C51"/>
<path d="M25.4989 19.7661C21.5023 19.7661 18.2622 23.0062 18.2622 27.0028C18.2622 30.9995 21.5023 34.2396 25.4989 34.2396C29.4956 34.2396 32.7357 30.9995 32.7357 27.0028C32.7357 23.0062 29.4956 19.7661 25.4989 19.7661Z" fill="url(#paint0_radial)"/>
</g>
<g opacity="0.3">
<path d="M2.15346 9.38457C2.13168 9.38686 2.11219 9.39947 2.10187 9.41896L1.87376 9.88436C1.86344 9.905 1.86573 9.93022 1.87949 9.94856L2.02392 10.0827L2.03539 10.0861C2.11678 9.85341 2.21307 9.62644 2.32311 9.4075L2.15346 9.38457Z" fill="#45E8C4"/>
<path d="M2.80344 15.6538C2.79541 15.6744 2.79885 15.6973 2.81261 15.7157L3.13128 16.1249C3.14504 16.1432 3.16796 16.1524 3.19204 16.1478L3.37545 16.0767L3.38232 16.0699C3.21038 15.8956 3.04875 15.7099 2.89973 15.5139L2.80344 15.6538Z" fill="#45E8C4"/>
<path d="M8.72183 17.818C8.73673 17.834 8.75966 17.8409 8.78029 17.8375L9.28696 17.7309C9.30989 17.7263 9.32708 17.7091 9.33396 17.6873L9.35001 17.4901L9.34886 17.4867C9.11845 17.5647 8.88231 17.6289 8.63929 17.6781L8.72183 17.818Z" fill="#45E8C4"/>
<path d="M13.2624 13.4471C13.2842 13.4402 13.3002 13.4242 13.3048 13.4024L13.4309 12.8992C13.4366 12.8774 13.4298 12.8533 13.4126 12.8373L13.2429 12.7364H13.2406C13.2097 12.9817 13.165 13.2224 13.1042 13.4574L13.2624 13.4471Z" fill="#45E8C4"/>
<path d="M11.324 7.4496C11.3274 7.42782 11.3194 7.40604 11.3022 7.39113L10.9056 7.05756C10.8884 7.0438 10.8643 7.03922 10.8425 7.04839L10.6774 7.15614L10.674 7.16187C10.8792 7.29714 11.0752 7.44501 11.2621 7.60435L11.324 7.4496Z" fill="#45E8C4"/>
<path d="M5.08343 6.5635C5.06509 6.55089 5.04217 6.54859 5.02268 6.55776L4.54925 6.76754C4.52862 6.77671 4.51372 6.79734 4.51257 6.82027L4.53779 7.01629L4.54352 7.02661C4.75329 6.90166 4.97224 6.78932 5.19806 6.69074L5.08343 6.5635Z" fill="#45E8C4"/>
<path d="M1.71787 11.7368L1.55166 11.7838C1.53217 11.7941 1.51956 11.8148 1.51956 11.8365L1.50007 12.3547C1.49893 12.3776 1.51154 12.3994 1.53102 12.4108L1.71787 12.4739L1.73163 12.4727C1.71902 12.3168 1.71099 12.1609 1.71099 12.0016C1.71099 11.9133 1.71329 11.8251 1.71787 11.7368Z" fill="#45E8C4"/>
<path d="M4.69484 17.246C4.69599 17.2678 4.7086 17.2884 4.72809 17.2987L5.18546 17.5429C5.2061 17.5532 5.23017 17.552 5.24966 17.5394L5.38836 17.3996L5.39065 17.3927C5.16139 17.3033 4.93786 17.2001 4.7235 17.0821L4.69484 17.246Z" fill="#45E8C4"/>
<path d="M10.9824 16.8161C11.003 16.8253 11.0259 16.8218 11.0443 16.8092L11.4638 16.5055C11.4822 16.4917 11.4925 16.4688 11.489 16.4459L11.4237 16.2602L11.4214 16.2579C11.2414 16.4241 11.05 16.5777 10.8505 16.7198L10.9824 16.8161Z" fill="#45E8C4"/>
<path d="M13.353 10.9757C13.3701 10.9608 13.3782 10.939 13.3736 10.9172L13.2842 10.4071C13.2807 10.3842 13.2635 10.3658 13.2418 10.3578L13.0457 10.3349L13.0434 10.336C13.1134 10.5687 13.1684 10.8071 13.2085 11.0513L13.353 10.9757Z" fill="#45E8C4"/>
<path d="M9.14255 6.28609C9.13682 6.26431 9.12077 6.24826 9.09899 6.24138L8.60149 6.09809C8.57971 6.09122 8.55563 6.09809 8.53959 6.11529L8.43298 6.2815L8.43183 6.28953C8.676 6.3285 8.91558 6.38467 9.14828 6.45345L9.14255 6.28609Z" fill="#45E8C4"/>
<path d="M3.08083 8.01473C3.05905 8.01014 3.03613 8.01817 3.02237 8.03421L2.67504 8.41938C2.66014 8.43657 2.6544 8.46064 2.66243 8.48242L2.76445 8.65093L2.77591 8.65895C2.91806 8.45835 3.07281 8.26692 3.23788 8.0858L3.08083 8.01473Z" fill="#45E8C4"/>
<path d="M1.97808 14.2197C1.96432 14.2369 1.96203 14.261 1.97005 14.2816L2.16378 14.7631C2.1718 14.7849 2.19244 14.7998 2.21536 14.802L2.41138 14.7837L2.41941 14.7791C2.30248 14.5648 2.19932 14.3412 2.10876 14.112L1.97808 14.2197Z" fill="#45E8C4"/>
<path d="M7.03104 17.7698L7.07116 17.9315C7.08148 17.951 7.10097 17.9647 7.12275 17.9659L7.63973 18.0025C7.66266 18.0037 7.68444 17.9934 7.69705 17.9727L7.76697 17.7882V17.7825C7.67871 17.787 7.5893 17.7893 7.49988 17.7893C7.34169 17.7905 7.18579 17.7825 7.03104 17.7698Z" fill="#45E8C4"/>
<path d="M12.6399 14.9809C12.6617 14.9809 12.6823 14.9683 12.6938 14.9499L12.954 14.5017C12.9655 14.4822 12.9655 14.457 12.9529 14.4375L12.8176 14.2942H12.8165C12.719 14.5201 12.6067 14.739 12.4829 14.9488L12.6399 14.9809Z" fill="#45E8C4"/>
<path d="M12.429 8.68188C12.4382 8.66125 12.437 8.63832 12.4244 8.61998L12.1356 8.19011C12.1229 8.17063 12.1 8.16031 12.0771 8.1626L11.8891 8.22106L11.8845 8.2245C12.0438 8.41021 12.1929 8.60508 12.3281 8.81027L12.429 8.68188Z" fill="#45E8C4"/>
<path d="M6.67568 6.10956C6.66193 6.09236 6.64015 6.08319 6.61837 6.08663L6.10482 6.1577C6.08189 6.16114 6.06241 6.17604 6.05438 6.19782L6.02458 6.39269L6.02687 6.40187C6.26186 6.33996 6.50374 6.29411 6.75019 6.26202L6.67568 6.10956Z" fill="#45E8C4"/>
<path d="M1.84168 10.1537C1.8199 10.1583 1.80271 10.1744 1.79583 10.195L1.63535 10.6879C1.62847 10.7097 1.6342 10.7338 1.65025 10.751L1.81188 10.8633L1.82334 10.8656C1.87149 10.6226 1.93683 10.3853 2.01363 10.1537H1.84168Z" fill="#45E8C4"/>
<path d="M3.35709 16.2716C3.35251 16.2934 3.35824 16.3163 3.37429 16.3312L3.74684 16.6923C3.76289 16.7084 3.78696 16.7141 3.80989 16.7072L3.98183 16.6109L3.98757 16.604C3.79269 16.455 3.60699 16.2934 3.4316 16.1215L3.35709 16.2716Z" fill="#45E8C4"/>
<path d="M9.51967 17.591C9.53686 17.6048 9.55979 17.6094 9.58042 17.6013L10.0676 17.4248C10.0894 17.4168 10.1043 17.3973 10.1077 17.3744L10.0963 17.1772L10.0951 17.1749C9.87732 17.285 9.65149 17.3812 9.41879 17.4626L9.51967 17.591Z" fill="#45E8C4"/>
<path d="M13.4722 12.0062L13.2899 11.9305H13.2865C13.2865 11.9546 13.2888 11.9787 13.2888 12.0027C13.2888 12.2263 13.275 12.4475 13.2498 12.6642L13.408 12.6309C13.4286 12.6218 13.4424 12.6023 13.4447 12.5805L13.4997 12.0647C13.502 12.0417 13.4917 12.0188 13.4722 12.0062Z" fill="#45E8C4"/>
<path d="M10.6534 6.96127C10.6534 6.93949 10.6431 6.91885 10.6236 6.90624L10.1845 6.63113C10.165 6.61852 10.1398 6.61852 10.1203 6.62998L9.97247 6.76066L9.97018 6.76639C10.1926 6.87185 10.4069 6.99107 10.6133 7.1229L10.6534 6.96127Z" fill="#45E8C4"/>
<path d="M4.35096 6.9521C4.33147 6.94178 4.3074 6.94293 4.28906 6.95439L3.84887 7.22836C3.82938 7.24097 3.81792 7.26275 3.81907 7.28567L3.87065 7.47596L3.87868 7.48628C4.07011 7.33267 4.27071 7.19053 4.48049 7.06214L4.35096 6.9521Z" fill="#45E8C4"/>
<path d="M1.57916 12.6126C1.56082 12.6263 1.55165 12.647 1.55394 12.6688L1.60782 13.1846C1.61011 13.2075 1.62501 13.227 1.64679 13.2362L1.84052 13.2729L1.85198 13.2706C1.79925 13.0333 1.76028 12.7903 1.73735 12.5427L1.57916 12.6126Z" fill="#45E8C4"/>
<path d="M5.45257 17.5853C5.45715 17.6071 5.47206 17.6254 5.49269 17.6323L5.97987 17.81C6.00165 17.818 6.02572 17.8134 6.04292 17.7974L6.16099 17.6392L6.16214 17.6323C5.92141 17.575 5.68642 17.5039 5.4583 17.4179L5.45257 17.5853Z" fill="#45E8C4"/>
<path d="M11.4764 16.2074L11.6197 16.2842C11.6415 16.29 11.6644 16.2842 11.6793 16.2693L12.053 15.9094C12.0691 15.8933 12.0759 15.8693 12.0702 15.8475L11.9796 15.6721L11.9785 15.671C11.8226 15.8601 11.6541 16.0389 11.4764 16.2074Z" fill="#45E8C4"/>
<path d="M13.1535 10.1709C13.1684 10.1537 13.173 10.1308 13.1661 10.1102L13.0068 9.61727C12.9999 9.59549 12.9815 9.57944 12.9586 9.57486L12.7615 9.57944L12.7592 9.58059C12.8612 9.80183 12.9506 10.0299 13.0251 10.2649L13.1535 10.1709Z" fill="#45E8C4"/>
<path d="M8.33095 6.11185C8.32178 6.09122 8.30344 6.07746 8.28166 6.07402L7.76812 6.00066C7.74519 5.99722 7.72226 6.00753 7.70851 6.02588L7.62597 6.2047V6.21502C7.87472 6.22075 8.11889 6.24024 8.35847 6.27577L8.33095 6.11185Z" fill="#45E8C4"/>
<path d="M2.56959 8.66698C2.54781 8.66583 2.52603 8.67615 2.51342 8.69449L2.22341 9.12321C2.2108 9.1427 2.20965 9.16677 2.21997 9.1874L2.34492 9.33986L2.35638 9.3456C2.46986 9.12665 2.59596 8.91573 2.73581 8.71398L2.56959 8.66698Z" fill="#45E8C4"/>
<path d="M2.34033 14.966C2.33001 14.9855 2.33001 15.0084 2.34033 15.0279L2.59825 15.4772C2.60971 15.4967 2.63149 15.5093 2.65442 15.5082L2.847 15.4623L2.85502 15.4566C2.70829 15.2606 2.57532 15.0531 2.45496 14.8387L2.34033 14.966Z" fill="#45E8C4"/>
<path d="M7.90107 17.9326C7.91368 17.951 7.93546 17.9613 7.95724 17.9601L8.47423 17.9246C8.49715 17.9235 8.51779 17.9086 8.52696 17.8879L8.57052 17.6953L8.56937 17.6908C8.33094 17.7355 8.08792 17.7664 7.83917 17.7802L7.90107 17.9326Z" fill="#45E8C4"/>
<path d="M13.0045 14.2358C13.0263 14.2323 13.0446 14.2174 13.0526 14.1979L13.2475 13.7176C13.2567 13.6959 13.2521 13.6718 13.2372 13.6534L13.0836 13.5296H13.0824C13.0171 13.7681 12.938 13.9996 12.8451 14.2243L13.0045 14.2358Z" fill="#45E8C4"/>
<path d="M11.8375 8.16948L11.9201 8.02734C11.9269 8.00556 11.9212 7.98263 11.9074 7.96658L11.5613 7.58028C11.5464 7.56308 11.5223 7.5562 11.4994 7.56079L11.3205 7.64561L11.3159 7.6502C11.5005 7.81298 11.6747 7.98607 11.8375 8.16948Z" fill="#45E8C4"/>
<path d="M5.86407 6.2815C5.84802 6.2666 5.8251 6.26087 5.80332 6.2666L5.30467 6.40874C5.28289 6.41447 5.2657 6.43282 5.26111 6.45574L5.25882 6.65291L5.26226 6.66208C5.48694 6.56808 5.71964 6.48784 5.95807 6.4225L5.86407 6.2815Z" fill="#45E8C4"/>
<path d="M1.63994 10.9585C1.6193 10.9665 1.6044 10.9848 1.59982 11.0066L1.50926 11.5167C1.50467 11.5396 1.51384 11.5626 1.53218 11.5775L1.70871 11.6657L1.72132 11.6669C1.73508 11.4181 1.76603 11.1751 1.81074 10.9355L1.63994 10.9585Z" fill="#45E8C4"/>
<path d="M3.99215 16.8058C3.98986 16.8276 4.00017 16.8494 4.01737 16.862L4.43577 17.1669C4.45411 17.1806 4.47933 17.1829 4.49996 17.1726L4.65701 17.0534L4.66045 17.0465C4.44609 16.9262 4.23975 16.792 4.04373 16.6465L3.99215 16.8058Z" fill="#45E8C4"/>
<path d="M10.2785 17.2552C10.298 17.2666 10.3209 17.2678 10.3404 17.2574L10.799 17.0144C10.8196 17.0041 10.8322 16.9823 10.8322 16.9594L10.7932 16.7657L10.7921 16.7634C10.5915 16.9021 10.3805 17.0293 10.1627 17.1417L10.2785 17.2552Z" fill="#45E8C4"/>
<path d="M13.4378 11.801C13.4561 11.7884 13.4676 11.7678 13.4664 11.746L13.4492 11.2278C13.4481 11.2049 13.4355 11.1843 13.4137 11.174L13.2234 11.1235H13.2223C13.259 11.3631 13.2784 11.6073 13.2853 11.856L13.4378 11.801Z" fill="#45E8C4"/>
<path d="M9.92088 6.57037C9.91858 6.54859 9.90483 6.52911 9.8842 6.51994L9.41077 6.30787C9.39013 6.2987 9.36491 6.30099 9.34657 6.31589L9.21819 6.46491L9.21704 6.47064C9.45318 6.54401 9.6813 6.63342 9.90368 6.7343L9.92088 6.57037Z" fill="#45E8C4"/>
<path d="M3.82365 7.52984L3.67807 7.43813C3.65744 7.43125 3.63336 7.43469 3.61732 7.4496L3.21955 7.78203C3.20235 7.79693 3.19433 7.81985 3.19891 7.84278L3.27686 8.0239L3.28718 8.03307C3.45569 7.85539 3.63451 7.68574 3.82365 7.52984Z" fill="#45E8C4"/>
<path d="M1.72246 13.4299C1.70641 13.446 1.70068 13.4677 1.70527 13.4895L1.83022 13.9927C1.83595 14.0145 1.85314 14.0329 1.87607 14.0386L2.07323 14.0478L2.08355 14.0443C1.99758 13.8162 1.92651 13.5812 1.86919 13.3393L1.72246 13.4299Z" fill="#45E8C4"/>
<path d="M6.24926 17.8146C6.25614 17.8352 6.27448 17.8512 6.29511 17.8558L6.80178 17.9647C6.82471 17.9693 6.84763 17.9613 6.86254 17.9441L6.95768 17.771V17.7653C6.71122 17.7423 6.46821 17.7034 6.23092 17.6506L6.24926 17.8146Z" fill="#45E8C4"/>
<path d="M12.1757 15.6675C12.1975 15.6698 12.2192 15.6618 12.233 15.6446L12.5528 15.2365C12.5666 15.2182 12.57 15.1941 12.5608 15.1723L12.4473 15.0107H12.4462C12.3178 15.2204 12.1768 15.4211 12.0232 15.6113L12.1757 15.6675Z" fill="#45E8C4"/>
<path d="M12.8428 9.40062C12.8554 9.38228 12.8566 9.35821 12.8474 9.33872L12.6204 8.87217C12.6101 8.85154 12.5895 8.83778 12.5666 8.83663L12.3717 8.86873L12.3683 8.87102C12.5001 9.07621 12.6216 9.28943 12.727 9.51181L12.8428 9.40062Z" fill="#45E8C4"/>
<path d="M7.5549 6.21502L7.50331 6.05339C7.49185 6.0339 7.47122 6.02244 7.44944 6.02244L6.9313 6.02129C6.90838 6.02129 6.8866 6.0339 6.87628 6.05453L6.81896 6.24368L6.82011 6.25399C7.04364 6.22763 7.26946 6.21272 7.49987 6.21272C7.51821 6.21272 7.53655 6.21387 7.5549 6.21502Z" fill="#45E8C4"/>
<path d="M7.49982 6.21289C4.30275 6.21289 1.71094 8.8047 1.71094 12.0018C1.71094 15.1988 4.30275 17.7906 7.49982 17.7906C10.6969 17.7906 13.2887 15.1988 13.2887 12.0018C13.2887 8.8047 10.6969 6.21289 7.49982 6.21289Z" fill="url(#paint1_radial)"/>
</g>
<path d="M11.8069 8.26915C11.7634 8.27374 11.7244 8.29896 11.7037 8.33793L11.2475 9.26874C11.2269 9.31001 11.2315 9.36044 11.259 9.39713L11.5479 9.66536L11.5708 9.67224C11.7336 9.20684 11.9261 8.7529 12.1462 8.31501L11.8069 8.26915Z" fill="#ECCF60"/>
<path d="M13.1069 20.8075C13.0908 20.8488 13.0977 20.8947 13.1252 20.9313L13.7626 21.7498C13.7901 21.7865 13.8359 21.8048 13.8841 21.7957L14.2509 21.6535L14.2647 21.6398C13.9208 21.2913 13.5975 20.9199 13.2995 20.5278L13.1069 20.8075Z" fill="#ECCF60"/>
<path d="M24.9437 25.136C24.9735 25.1681 25.0193 25.1819 25.0606 25.175L26.0739 24.9618C26.1198 24.9526 26.1542 24.9182 26.1679 24.8747L26.2 24.4803L26.1977 24.4735C25.7369 24.6294 25.2646 24.7577 24.7786 24.8563L24.9437 25.136Z" fill="#ECCF60"/>
<path d="M34.0248 16.3942C34.0684 16.3805 34.1005 16.3484 34.1097 16.3048L34.3618 15.2984C34.3733 15.2548 34.3596 15.2066 34.3252 15.1746L33.9859 14.9728H33.9813C33.9194 15.4634 33.83 15.9449 33.7084 16.4149L34.0248 16.3942Z" fill="#ECCF60"/>
<path d="M30.1479 4.39919C30.1548 4.35564 30.1388 4.31208 30.1044 4.28227L29.3111 3.61512C29.2768 3.5876 29.2286 3.57843 29.185 3.59678L28.8549 3.81228L28.848 3.82375C29.2584 4.09428 29.6504 4.39002 30.0241 4.7087L30.1479 4.39919Z" fill="#ECCF60"/>
<path d="M17.6669 2.62699C17.6302 2.60178 17.5843 2.59719 17.5454 2.61553L16.5985 3.03508C16.5572 3.05342 16.5274 3.09469 16.5251 3.14054L16.5756 3.53258L16.587 3.55322C17.0066 3.30332 17.4445 3.07864 17.8961 2.88148L17.6669 2.62699Z" fill="#ECCF60"/>
<path d="M10.9357 12.9736L10.6033 13.0676C10.5643 13.0883 10.5391 13.1295 10.5391 13.1731L10.5001 14.2094C10.4979 14.2552 10.5231 14.2988 10.562 14.3217L10.9357 14.4478L10.9633 14.4455C10.938 14.1337 10.922 13.8219 10.922 13.5032C10.922 13.3267 10.9266 13.1502 10.9357 12.9736Z" fill="#ECCF60"/>
<path d="M16.8897 23.992C16.892 24.0356 16.9172 24.0768 16.9562 24.0975L17.8709 24.5858C17.9122 24.6064 17.9604 24.6041 17.9993 24.5789L18.2767 24.2992L18.2813 24.2855C17.8228 24.1066 17.3757 23.9003 16.947 23.6642L16.8897 23.992Z" fill="#ECCF60"/>
<path d="M29.4648 23.1323C29.506 23.1506 29.5519 23.1437 29.5886 23.1185L30.4277 22.511C30.4643 22.4835 30.485 22.4376 30.4781 22.3917L30.3474 22.0203L30.3428 22.0158C29.9829 22.3482 29.6 22.6554 29.2011 22.9397L29.4648 23.1323Z" fill="#ECCF60"/>
<path d="M34.2059 11.4513C34.2403 11.4215 34.2564 11.378 34.2472 11.3344L34.0684 10.3142C34.0615 10.2683 34.0271 10.2316 33.9836 10.2156L33.5915 10.1697L33.5869 10.172C33.7268 10.6374 33.8368 11.1143 33.9171 11.6026L34.2059 11.4513Z" fill="#ECCF60"/>
<path d="M25.7851 2.07218C25.7737 2.02862 25.7416 1.99652 25.698 1.98276L24.703 1.69619C24.6594 1.68243 24.6113 1.69619 24.5792 1.73058L24.366 2.06301L24.3637 2.07906C24.852 2.157 25.3312 2.26934 25.7966 2.4069L25.7851 2.07218Z" fill="#ECCF60"/>
<path d="M13.6617 5.52946C13.6181 5.52029 13.5723 5.53634 13.5447 5.56844L12.8501 6.33876C12.8203 6.37315 12.8088 6.42129 12.8249 6.46485L13.0289 6.80187L13.0518 6.81792C13.3361 6.41671 13.6456 6.03384 13.9758 5.6716L13.6617 5.52946Z" fill="#ECCF60"/>
<path d="M11.4562 17.9395C11.4286 17.9739 11.4241 18.022 11.4401 18.0633L11.8276 19.0262C11.8436 19.0697 11.8849 19.0995 11.9307 19.1041L12.3228 19.0674L12.3388 19.0583C12.105 18.6295 11.8986 18.1825 11.7175 17.724L11.4562 17.9395Z" fill="#ECCF60"/>
<path d="M21.5621 25.0397L21.6423 25.363C21.663 25.402 21.702 25.4295 21.7455 25.4318L22.7795 25.5051C22.8253 25.5074 22.8689 25.4868 22.8941 25.4455L23.034 25.0764V25.065C22.8574 25.0741 22.6786 25.0787 22.4998 25.0787C22.1834 25.081 21.8716 25.065 21.5621 25.0397Z" fill="#ECCF60"/>
<path d="M32.7799 19.4618C32.8235 19.4618 32.8647 19.4366 32.8876 19.3999L33.4081 18.5035C33.431 18.4645 33.431 18.414 33.4058 18.3751L33.1353 18.0885H33.133C32.9381 18.5401 32.7134 18.978 32.4658 19.3976L32.7799 19.4618Z" fill="#ECCF60"/>
<path d="M32.3581 6.86377C32.3764 6.8225 32.3741 6.77665 32.3489 6.73997L31.7711 5.88023C31.7459 5.84126 31.7001 5.82063 31.6542 5.82521L31.2782 5.94213L31.2691 5.94901C31.5877 6.32042 31.8858 6.71017 32.1563 7.12055L32.3581 6.86377Z" fill="#ECCF60"/>
<path d="M20.8514 1.71911C20.8239 1.68472 20.7803 1.66638 20.7367 1.67326L19.7097 1.8154C19.6638 1.82228 19.6248 1.85208 19.6088 1.89564L19.5492 2.28539L19.5538 2.30373C20.0237 2.17993 20.5075 2.08823 21.0004 2.02403L20.8514 1.71911Z" fill="#ECCF60"/>
<path d="M11.1834 9.80751C11.1398 9.81668 11.1054 9.84878 11.0917 9.89004L10.7707 10.8759C10.7569 10.9194 10.7684 10.9676 10.8005 11.002L11.1238 11.2266L11.1467 11.2312C11.243 10.7452 11.3737 10.2706 11.5273 9.80751H11.1834Z" fill="#ECCF60"/>
<path d="M14.2142 22.0433C14.205 22.0868 14.2165 22.1327 14.2486 22.1625L14.9937 22.8847C15.0258 22.9168 15.0739 22.9282 15.1198 22.9145L15.4637 22.7219L15.4751 22.7081C15.0854 22.4101 14.714 22.0868 14.3632 21.7429L14.2142 22.0433Z" fill="#ECCF60"/>
<path d="M26.5394 24.6821C26.5738 24.7096 26.6196 24.7188 26.6609 24.7027L27.6352 24.3497C27.6788 24.3336 27.7086 24.2946 27.7155 24.2488L27.6926 23.8544L27.6903 23.8499C27.2547 24.07 26.803 24.2625 26.3376 24.4253L26.5394 24.6821Z" fill="#ECCF60"/>
<path d="M34.4444 13.5124L34.0799 13.3611H34.073C34.073 13.4092 34.0776 13.4574 34.0776 13.5055C34.0776 13.9526 34.0501 14.3951 33.9996 14.8284L34.316 14.7619C34.3573 14.7435 34.3848 14.7046 34.3894 14.661L34.4994 13.6293C34.504 13.5835 34.4834 13.5376 34.4444 13.5124Z" fill="#ECCF60"/>
<path d="M28.8068 3.42254C28.8068 3.37898 28.7862 3.33771 28.7472 3.31249L27.8691 2.76226C27.8301 2.73704 27.7797 2.73704 27.7407 2.75997L27.445 3.02133L27.4404 3.03279C27.8851 3.24371 28.3139 3.48215 28.7265 3.7458L28.8068 3.42254Z" fill="#ECCF60"/>
<path d="M16.2019 3.4042C16.1629 3.38356 16.1148 3.38585 16.0781 3.40878L15.1977 3.95672C15.1588 3.98194 15.1358 4.0255 15.1381 4.07135L15.2413 4.45193L15.2574 4.47256C15.6402 4.16535 16.0414 3.88106 16.461 3.62429L16.2019 3.4042Z" fill="#ECCF60"/>
<path d="M10.6583 14.7252C10.6216 14.7527 10.6033 14.794 10.6079 14.8375L10.7156 15.8692C10.7202 15.9151 10.75 15.954 10.7936 15.9724L11.181 16.0458L11.204 16.0412C11.0985 15.5666 11.0206 15.0806 10.9747 14.5853L10.6583 14.7252Z" fill="#ECCF60"/>
<path d="M18.4051 24.6706C18.4143 24.7142 18.4441 24.7509 18.4854 24.7646L19.4598 25.12C19.5033 25.136 19.5515 25.1269 19.5859 25.0948L19.822 24.7784L19.8243 24.7646C19.3428 24.65 18.8728 24.5078 18.4166 24.3359L18.4051 24.6706Z" fill="#ECCF60"/>
<path d="M30.4529 21.9149L30.7394 22.0685C30.783 22.08 30.8289 22.0685 30.8587 22.0387L31.6061 21.3188C31.6382 21.2867 31.6519 21.2386 31.6404 21.195L31.4593 20.8442L31.457 20.8419C31.1452 21.2202 30.8082 21.5779 30.4529 21.9149Z" fill="#ECCF60"/>
<path d="M33.807 9.8419C33.8368 9.80751 33.846 9.76165 33.8322 9.72039L33.5136 8.73456C33.4998 8.691 33.4631 8.6589 33.4173 8.64973L33.0229 8.6589L33.0184 8.66119C33.2224 9.10367 33.4012 9.5599 33.5503 10.0299L33.807 9.8419Z" fill="#ECCF60"/>
<path d="M24.1619 1.7237C24.1436 1.68243 24.1069 1.65492 24.0633 1.64804L23.0362 1.50131C22.9904 1.49444 22.9445 1.51507 22.917 1.55175L22.752 1.9094V1.93003C23.2495 1.9415 23.7378 1.98047 24.217 2.05154L24.1619 1.7237Z" fill="#ECCF60"/>
<path d="M12.6392 6.83397C12.5956 6.83167 12.5521 6.85231 12.5268 6.88899L11.9468 7.74643C11.9216 7.78541 11.9193 7.83355 11.9399 7.87482L12.1898 8.17974L12.2128 8.1912C12.4397 7.75331 12.6919 7.33147 12.9716 6.92796L12.6392 6.83397Z" fill="#ECCF60"/>
<path d="M12.1807 19.432C12.16 19.4709 12.16 19.5168 12.1807 19.5558L12.6965 20.4545C12.7194 20.4935 12.763 20.5187 12.8088 20.5164L13.194 20.4247L13.21 20.4132C12.9166 20.0212 12.6506 19.6062 12.4099 19.1775L12.1807 19.432Z" fill="#ECCF60"/>
<path d="M23.3022 25.3653C23.3274 25.402 23.3709 25.4226 23.4145 25.4203L24.4485 25.3492C24.4943 25.3469 24.5356 25.3171 24.5539 25.2759L24.6411 24.8907L24.6388 24.8815C24.1619 24.971 23.6759 25.0329 23.1784 25.0604L23.3022 25.3653Z" fill="#ECCF60"/>
<path d="M33.509 17.9716C33.5525 17.9647 33.5892 17.9349 33.6053 17.8959L33.995 16.9353C34.0134 16.8917 34.0042 16.8436 33.9744 16.8069L33.6672 16.5593H33.6649C33.5342 17.0362 33.376 17.4993 33.1903 17.9486L33.509 17.9716Z" fill="#ECCF60"/>
<path d="M31.1751 5.83897L31.3401 5.55468C31.3539 5.51112 31.3424 5.46527 31.3149 5.43317L30.6225 4.66056C30.5927 4.62617 30.5446 4.61241 30.4987 4.62158L30.1411 4.79124L30.1319 4.80041C30.501 5.12596 30.8495 5.47215 31.1751 5.83897Z" fill="#ECCF60"/>
<path d="M19.2282 2.06301C19.1961 2.0332 19.1502 2.02174 19.1067 2.0332L18.1094 2.31749C18.0658 2.32895 18.0314 2.36563 18.0222 2.41149L18.0177 2.80582L18.0245 2.82416C18.4739 2.63616 18.9393 2.47568 19.4162 2.345L19.2282 2.06301Z" fill="#ECCF60"/>
<path d="M10.7799 11.4169C10.7386 11.433 10.7088 11.4697 10.6996 11.5132L10.5185 12.5334C10.5093 12.5793 10.5277 12.6251 10.5644 12.655L10.9174 12.8315L10.9426 12.8338C10.9702 12.3363 11.0321 11.8502 11.1215 11.3711L10.7799 11.4169Z" fill="#ECCF60"/>
<path d="M15.4843 23.1116C15.4797 23.1552 15.5004 23.1988 15.5347 23.224L16.3716 23.8338C16.4082 23.8613 16.4587 23.8659 16.4999 23.8453L16.814 23.6068L16.8209 23.5931C16.3922 23.3524 15.9795 23.0841 15.5875 22.793L15.4843 23.1116Z" fill="#ECCF60"/>
<path d="M28.0571 24.0103C28.0961 24.0333 28.1419 24.0356 28.1809 24.0149L29.0979 23.5289C29.1392 23.5083 29.1644 23.4647 29.1644 23.4188L29.0865 23.0314L29.0842 23.0268C28.683 23.3042 28.2611 23.5587 27.8255 23.7834L28.0571 24.0103Z" fill="#ECCF60"/>
<path d="M34.3756 13.102C34.4123 13.0768 34.4352 13.0355 34.4329 12.992L34.3985 11.9557C34.3962 11.9098 34.371 11.8686 34.3275 11.8479L33.9469 11.7471H33.9446C34.018 12.2262 34.0569 12.7146 34.0707 13.2121L34.3756 13.102Z" fill="#ECCF60"/>
<path d="M27.3418 2.64075C27.3372 2.59719 27.3097 2.55822 27.2684 2.53987L26.3216 2.11574C26.2803 2.0974 26.2299 2.10198 26.1932 2.13179L25.9364 2.42983L25.9341 2.44129C26.4064 2.58802 26.8626 2.76684 27.3074 2.9686L27.3418 2.64075Z" fill="#ECCF60"/>
<path d="M15.1473 4.55968L14.8561 4.37627C14.8149 4.36251 14.7667 4.36939 14.7346 4.3992L13.9391 5.06406C13.9047 5.09386 13.8887 5.13972 13.8978 5.18557L14.0537 5.5478L14.0744 5.56614C14.4114 5.21079 14.769 4.87148 15.1473 4.55968Z" fill="#ECCF60"/>
<path d="M10.9449 16.3598C10.9128 16.3919 10.9014 16.4355 10.9105 16.4791L11.1604 17.4855C11.1719 17.5291 11.2063 17.5658 11.2521 17.5772L11.6465 17.5956L11.6671 17.5887C11.4952 17.1325 11.353 16.6625 11.2384 16.1787L10.9449 16.3598Z" fill="#ECCF60"/>
<path d="M19.9985 25.1291C20.0123 25.1704 20.049 25.2025 20.0902 25.2117L21.1036 25.4295C21.1494 25.4387 21.1953 25.4226 21.2251 25.3882L21.4154 25.042V25.0306C20.9225 24.9847 20.4364 24.9068 19.9619 24.8013L19.9985 25.1291Z" fill="#ECCF60"/>
<path d="M31.8514 20.8351C31.8949 20.8396 31.9385 20.8236 31.966 20.7892L32.6056 19.973C32.6332 19.9363 32.64 19.8882 32.6217 19.8446L32.3947 19.5214H32.3924C32.1357 19.9409 31.8537 20.3421 31.5465 20.7227L31.8514 20.8351Z" fill="#ECCF60"/>
<path d="M33.1857 8.30125C33.2109 8.26457 33.2132 8.21642 33.1949 8.17745L32.7409 7.24435C32.7203 7.20308 32.679 7.17557 32.6332 7.17328L32.2434 7.23747L32.2365 7.24206C32.5002 7.65244 32.7432 8.07887 32.9541 8.52363L33.1857 8.30125Z" fill="#ECCF60"/>
<path d="M22.6098 1.93004L22.5066 1.60677C22.4837 1.5678 22.4424 1.54487 22.3989 1.54487L21.3626 1.54258C21.3168 1.54258 21.2732 1.5678 21.2526 1.60907L21.1379 1.98735L21.1402 2.00798C21.5873 1.95525 22.0389 1.92545 22.4998 1.92545C22.5364 1.92545 22.5731 1.92774 22.6098 1.93004Z" fill="#ECCF60"/>
<path d="M22.4997 1.92529C16.1055 1.92529 10.9219 7.10893 10.9219 13.5031C10.9219 19.8972 16.1055 25.0808 22.4997 25.0808C28.8938 25.0808 34.0774 19.8972 34.0774 13.5031C34.0774 7.10893 28.8938 1.92529 22.4997 1.92529Z" fill="url(#paint2_radial)"/>
<path d="M2.6433 19.4217C2.60519 19.4257 2.5711 19.4478 2.55305 19.4819L2.15393 20.2961C2.13588 20.3322 2.13989 20.3764 2.16396 20.4085L2.41667 20.6431L2.43672 20.6491C2.57912 20.242 2.74759 19.8449 2.94013 19.4618L2.6433 19.4217Z" fill="#B2B7FF"/>
<path d="M3.78051 30.3904C3.76647 30.4265 3.77249 30.4666 3.79656 30.4987L4.35412 31.2147C4.37818 31.2468 4.4183 31.2628 4.46041 31.2548L4.78131 31.1304L4.79334 31.1184C4.4925 30.8135 4.20971 30.4886 3.94898 30.1457L3.78051 30.3904Z" fill="#B2B7FF"/>
<path d="M14.1354 34.1769C14.1615 34.205 14.2016 34.2171 14.2377 34.211L15.1242 34.0245C15.1643 34.0165 15.1944 33.9864 15.2064 33.9483L15.2345 33.6033L15.2325 33.5973C14.8294 33.7337 14.4162 33.846 13.991 33.9323L14.1354 34.1769Z" fill="#B2B7FF"/>
<path d="M22.0797 26.5296C22.1178 26.5175 22.1459 26.4895 22.1539 26.4514L22.3745 25.5709C22.3845 25.5328 22.3725 25.4907 22.3424 25.4626L22.0456 25.2861H22.0416C21.9874 25.7153 21.9092 26.1365 21.8029 26.5476L22.0797 26.5296Z" fill="#B2B7FF"/>
<path d="M18.6882 16.0362C18.6942 15.9981 18.6801 15.96 18.65 15.9339L17.9561 15.3503C17.926 15.3262 17.8839 15.3182 17.8458 15.3343L17.557 15.5228L17.551 15.5328C17.91 15.7695 18.2529 16.0282 18.5799 16.307L18.6882 16.0362Z" fill="#B2B7FF"/>
<path d="M7.76963 14.4859C7.73754 14.4638 7.69743 14.4598 7.66333 14.4759L6.83502 14.8429C6.79892 14.8589 6.77284 14.895 6.77084 14.9352L6.81496 15.2781L6.82499 15.2962C7.19202 15.0776 7.57509 14.881 7.97019 14.7085L7.76963 14.4859Z" fill="#B2B7FF"/>
<path d="M1.88119 23.5372L1.59038 23.6194C1.55628 23.6375 1.53422 23.6736 1.53422 23.7117L1.50013 24.6182C1.49812 24.6583 1.52018 24.6964 1.55428 24.7165L1.88119 24.8268L1.90526 24.8248C1.8832 24.552 1.86916 24.2793 1.86916 24.0005C1.86916 23.8461 1.87317 23.6916 1.88119 23.5372Z" fill="#B2B7FF"/>
<path d="M7.08975 33.1761C7.09175 33.2143 7.11381 33.2504 7.14791 33.2684L7.94815 33.6956C7.98425 33.7137 8.02636 33.7116 8.06046 33.6896L8.30314 33.4449L8.30715 33.4329C7.90603 33.2764 7.51494 33.0959 7.13989 32.8893L7.08975 33.1761Z" fill="#B2B7FF"/>
<path d="M18.0905 32.424C18.1266 32.4401 18.1667 32.4341 18.1988 32.412L18.9328 31.8805C18.9649 31.8565 18.983 31.8163 18.977 31.7762L18.8626 31.4513L18.8586 31.4473C18.5438 31.7381 18.2088 32.0069 17.8598 32.2556L18.0905 32.424Z" fill="#B2B7FF"/>
<path d="M22.2381 22.2055C22.2682 22.1794 22.2822 22.1413 22.2742 22.1032L22.1178 21.2107C22.1118 21.1706 22.0817 21.1385 22.0436 21.1245L21.7006 21.0843L21.6966 21.0864C21.8189 21.4935 21.9152 21.9107 21.9854 22.3378L22.2381 22.2055Z" fill="#B2B7FF"/>
<path d="M14.8715 14.0005C14.8615 13.9624 14.8334 13.9344 14.7953 13.9223L13.9249 13.6716C13.8868 13.6596 13.8446 13.6716 13.8166 13.7017L13.63 13.9925L13.628 14.0066C14.0552 14.0748 14.4744 14.173 14.8815 14.2934L14.8715 14.0005Z" fill="#B2B7FF"/>
<path d="M4.26585 17.025C4.22774 17.017 4.18763 17.031 4.16356 17.0591L3.55586 17.733C3.52979 17.7631 3.51976 17.8052 3.5338 17.8433L3.7123 18.1381L3.73236 18.1521C3.98105 17.8012 4.25181 17.4662 4.54062 17.1493L4.26585 17.025Z" fill="#B2B7FF"/>
<path d="M2.33645 27.8813C2.31238 27.9114 2.30837 27.9535 2.32241 27.9896L2.66136 28.832C2.6754 28.8701 2.7115 28.8962 2.75161 28.9002L3.09457 28.8681L3.10861 28.8601C2.90404 28.485 2.72353 28.0939 2.56509 27.6928L2.33645 27.8813Z" fill="#B2B7FF"/>
<path d="M11.1772 34.0927L11.2474 34.3755C11.2654 34.4096 11.2995 34.4337 11.3376 34.4357L12.2422 34.4998C12.2823 34.5019 12.3204 34.4838 12.3425 34.4477L12.4648 34.1248V34.1148C12.3104 34.1228 12.1539 34.1268 11.9975 34.1268C11.7207 34.1288 11.448 34.1148 11.1772 34.0927Z" fill="#B2B7FF"/>
<path d="M20.9906 29.2131C21.0287 29.2131 21.0648 29.191 21.0849 29.1589L21.5401 28.3747C21.5602 28.3406 21.5602 28.2965 21.5381 28.2624L21.3015 28.0117H21.2995C21.129 28.4068 20.9324 28.7899 20.7158 29.1569L20.9906 29.2131Z" fill="#B2B7FF"/>
<path d="M20.6216 18.1923C20.6376 18.1562 20.6356 18.116 20.6135 18.084L20.1081 17.3319C20.0861 17.2978 20.046 17.2797 20.0058 17.2837L19.6769 17.386L19.6689 17.392C19.9477 17.7169 20.2084 18.0579 20.4451 18.4169L20.6216 18.1923Z" fill="#B2B7FF"/>
<path d="M10.5555 13.6917C10.5314 13.6616 10.4933 13.6456 10.4552 13.6516L9.55666 13.7759C9.51655 13.7819 9.48245 13.808 9.46842 13.8461L9.41627 14.1871L9.42028 14.2031C9.83143 14.0948 10.2546 14.0146 10.6858 13.9584L10.5555 13.6917Z" fill="#B2B7FF"/>
<path d="M2.09782 20.7675C2.05971 20.7755 2.02963 20.8036 2.01759 20.8397L1.73681 21.7021C1.72477 21.7402 1.7348 21.7823 1.76288 21.8124L2.04567 22.0089L2.06573 22.0129C2.14996 21.5878 2.26428 21.1726 2.39866 20.7675H2.09782Z" fill="#B2B7FF"/>
<path d="M4.7492 31.4714C4.74118 31.5095 4.75121 31.5496 4.77928 31.5757L5.43111 32.2074C5.45919 32.2355 5.5013 32.2455 5.54142 32.2335L5.84226 32.065L5.85228 32.053C5.51133 31.7923 5.18642 31.5095 4.87957 31.2086L4.7492 31.4714Z" fill="#B2B7FF"/>
<path d="M15.5313 33.7798C15.5614 33.8039 15.6015 33.8119 15.6376 33.7979L16.49 33.489C16.5281 33.475 16.5542 33.4409 16.5602 33.4008L16.5402 33.0558L16.5382 33.0518C16.1571 33.2443 15.762 33.4128 15.3548 33.5552L15.5313 33.7798Z" fill="#B2B7FF"/>
<path d="M22.4467 24.0085L22.1278 23.8762H22.1218C22.1218 23.9183 22.1258 23.9604 22.1258 24.0025C22.1258 24.3936 22.1017 24.7807 22.0576 25.1597L22.3344 25.1016C22.3705 25.0855 22.3946 25.0514 22.3986 25.0133L22.4948 24.1108C22.4988 24.0707 22.4808 24.0306 22.4467 24.0085Z" fill="#B2B7FF"/>
<path d="M17.5149 15.1818C17.5149 15.1437 17.4968 15.1076 17.4627 15.0856L16.6946 14.6042C16.6605 14.5822 16.6164 14.5822 16.5823 14.6022L16.3236 14.8309L16.3196 14.8409C16.7086 15.0254 17.0837 15.234 17.4447 15.4646L17.5149 15.1818Z" fill="#B2B7FF"/>
<path d="M6.48808 15.1658C6.45398 15.1478 6.41186 15.1498 6.37977 15.1698L5.60962 15.6492C5.57553 15.6712 5.55547 15.7093 5.55748 15.7494L5.64773 16.0824L5.66177 16.1004C5.9967 15.8317 6.34769 15.583 6.71471 15.3583L6.48808 15.1658Z" fill="#B2B7FF"/>
<path d="M1.6385 25.0695C1.60641 25.0936 1.59036 25.1297 1.59437 25.1678L1.68864 26.0703C1.69265 26.1104 1.71872 26.1445 1.75683 26.1605L2.09578 26.2247L2.11583 26.2207C2.02357 25.8055 1.95538 25.3804 1.91527 24.9471L1.6385 25.0695Z" fill="#B2B7FF"/>
<path d="M8.41547 33.7698C8.4235 33.8079 8.44957 33.84 8.48567 33.852L9.33805 34.1629C9.37616 34.1769 9.41828 34.1689 9.44836 34.1408L9.65494 33.8641L9.65695 33.852C9.23577 33.7518 8.82462 33.6274 8.4255 33.477L8.41547 33.7698Z" fill="#B2B7FF"/>
<path d="M18.9549 31.3591L19.2056 31.4934C19.2437 31.5035 19.2838 31.4934 19.3099 31.4674L19.9637 30.8376C19.9918 30.8095 20.0038 30.7674 19.9938 30.7293L19.8354 30.4225L19.8334 30.4204C19.5606 30.7514 19.2658 31.0642 18.9549 31.3591Z" fill="#B2B7FF"/>
<path d="M21.8891 20.7975C21.9152 20.7675 21.9232 20.7273 21.9112 20.6912L21.6324 19.8288C21.6204 19.7907 21.5883 19.7627 21.5482 19.7546L21.2032 19.7627L21.1992 19.7647C21.3777 20.1517 21.5341 20.5509 21.6645 20.962L21.8891 20.7975Z" fill="#B2B7FF"/>
<path d="M13.4515 13.6957C13.4355 13.6596 13.4034 13.6355 13.3653 13.6295L12.4668 13.5011C12.4267 13.4951 12.3866 13.5132 12.3625 13.5453L12.2181 13.8581V13.8762C12.6533 13.8862 13.0805 13.9203 13.4997 13.9825L13.4515 13.6957Z" fill="#B2B7FF"/>
<path d="M3.37138 18.1662C3.33327 18.1642 3.29516 18.1822 3.2731 18.2143L2.76568 18.9644C2.74362 18.9985 2.74162 19.0406 2.75967 19.0767L2.97828 19.3435L2.99833 19.3535C3.19689 18.9704 3.4175 18.6014 3.66219 18.2484L3.37138 18.1662Z" fill="#B2B7FF"/>
<path d="M2.97025 29.187C2.9522 29.2211 2.9522 29.2612 2.97025 29.2953L3.42151 30.0815C3.44156 30.1156 3.47967 30.1377 3.51978 30.1357L3.85672 30.0554L3.87076 30.0454C3.61405 29.7024 3.3814 29.3394 3.17081 28.9644L2.97025 29.187Z" fill="#B2B7FF"/>
<path d="M12.6994 34.3775C12.7215 34.4096 12.7596 34.4276 12.7977 34.4256L13.7022 34.3635C13.7423 34.3615 13.7784 34.3354 13.7945 34.2993L13.8707 33.9623L13.8687 33.9543C13.4515 34.0325 13.0263 34.0867 12.5911 34.1108L12.6994 34.3775Z" fill="#B2B7FF"/>
<path d="M21.6284 27.9094C21.6665 27.9034 21.6986 27.8773 21.7126 27.8432L22.0536 27.0029C22.0696 26.9648 22.0616 26.9227 22.0355 26.8906L21.7668 26.674H21.7648C21.6505 27.0911 21.5121 27.4963 21.3496 27.8894L21.6284 27.9094Z" fill="#B2B7FF"/>
<path d="M19.5867 17.2958L19.7311 17.0471C19.7431 17.009 19.7331 16.9688 19.709 16.9408L19.1033 16.2649C19.0773 16.2348 19.0351 16.2228 18.995 16.2308L18.6822 16.3792L18.6741 16.3872C18.997 16.672 19.3019 16.9749 19.5867 17.2958Z" fill="#B2B7FF"/>
<path d="M9.13545 13.9925C9.10737 13.9664 9.06726 13.9564 9.02915 13.9664L8.15671 14.2151C8.11861 14.2252 8.08852 14.2573 8.0805 14.2974L8.07649 14.6423L8.08251 14.6584C8.47561 14.4939 8.88274 14.3535 9.29991 14.2392L9.13545 13.9925Z" fill="#B2B7FF"/>
<path d="M1.74483 22.1754C1.70873 22.1894 1.68266 22.2215 1.67464 22.2596L1.5162 23.1521C1.50817 23.1922 1.52422 23.2324 1.55631 23.2584L1.86517 23.4129L1.88723 23.4149C1.9113 22.9796 1.96545 22.5545 2.04367 22.1353L1.74483 22.1754Z" fill="#B2B7FF"/>
<path d="M5.8603 32.406C5.85629 32.4441 5.87434 32.4822 5.90442 32.5043L6.63647 33.0378C6.66856 33.0618 6.71268 33.0658 6.74878 33.0478L7.02355 32.8392L7.02957 32.8272C6.65452 32.6166 6.29351 32.3819 5.95055 32.1272L5.8603 32.406Z" fill="#B2B7FF"/>
<path d="M16.859 33.1922C16.8931 33.2122 16.9333 33.2143 16.9674 33.1962L17.7696 32.771C17.8057 32.753 17.8278 32.7149 17.8278 32.6747L17.7596 32.3358L17.7576 32.3318C17.4066 32.5745 17.0375 32.7971 16.6565 32.9936L16.859 33.1922Z" fill="#B2B7FF"/>
<path d="M22.3865 23.6495C22.4186 23.6275 22.4387 23.5914 22.4367 23.5532L22.4066 22.6467C22.4046 22.6066 22.3825 22.5705 22.3444 22.5525L22.0115 22.4642H22.0095C22.0737 22.8834 22.1078 23.3106 22.1198 23.7458L22.3865 23.6495Z" fill="#B2B7FF"/>
<path d="M16.2333 14.4979C16.2293 14.4598 16.2052 14.4257 16.1691 14.4097L15.3408 14.0387C15.3047 14.0226 15.2606 14.0266 15.2285 14.0527L15.0039 14.3134L15.0019 14.3234C15.415 14.4518 15.8141 14.6082 16.2032 14.7847L16.2333 14.4979Z" fill="#B2B7FF"/>
<path d="M5.5655 16.1766L5.31079 16.0162C5.27469 16.0041 5.23257 16.0102 5.20449 16.0362L4.50854 16.6179C4.47846 16.6439 4.46442 16.684 4.47244 16.7242L4.60882 17.041L4.62687 17.0571C4.9217 16.7462 5.23457 16.4494 5.5655 16.1766Z" fill="#B2B7FF"/>
<path d="M1.88922 26.4995C1.86115 26.5276 1.85112 26.5657 1.85914 26.6038L2.07775 27.4842C2.08778 27.5223 2.11786 27.5544 2.15797 27.5645L2.50294 27.5805L2.52099 27.5745C2.37057 27.1754 2.24622 26.7642 2.14594 26.341L1.88922 26.4995Z" fill="#B2B7FF"/>
<path d="M9.80938 34.1709C9.82141 34.207 9.8535 34.2351 9.8896 34.2431L10.7761 34.4337C10.8162 34.4417 10.8563 34.4276 10.8824 34.3976L11.0488 34.0947V34.0847C10.6176 34.0446 10.1924 33.9764 9.77729 33.8841L9.80938 34.1709Z" fill="#B2B7FF"/>
<path d="M20.1783 30.4144C20.2164 30.4184 20.2545 30.4044 20.2786 30.3743L20.8382 29.6603C20.8622 29.6282 20.8682 29.5861 20.8522 29.548L20.6537 29.2652H20.6516C20.427 29.6322 20.1803 29.9832 19.9116 30.3162L20.1783 30.4144Z" fill="#B2B7FF"/>
<path d="M21.3456 19.4498C21.3676 19.4177 21.3697 19.3756 21.3536 19.3415L20.9565 18.5252C20.9384 18.4891 20.9023 18.465 20.8622 18.463L20.5213 18.5192L20.5153 18.5232C20.7459 18.8822 20.9585 19.2552 21.143 19.6443L21.3456 19.4498Z" fill="#B2B7FF"/>
<path d="M12.0937 13.8762L12.0035 13.5934C11.9834 13.5593 11.9473 13.5393 11.9092 13.5393L11.0027 13.5373C10.9626 13.5373 10.9245 13.5593 10.9064 13.5954L10.8061 13.9263L10.8081 13.9444C11.1992 13.8983 11.5943 13.8722 11.9975 13.8722C12.0296 13.8722 12.0617 13.8742 12.0937 13.8762Z" fill="#B2B7FF"/>
<path d="M11.9975 13.8721C6.40382 13.8721 1.86914 18.4067 1.86914 24.0004C1.86914 29.594 6.40382 34.1287 11.9975 34.1287C17.5911 34.1287 22.1258 29.594 22.1258 24.0004C22.1258 18.4067 17.5911 13.8721 11.9975 13.8721Z" fill="url(#paint3_radial)"/>
<defs>
<radialGradient id="paint0_radial" cx="0" cy="0" r="1" gradientUnits="userSpaceOnUse" gradientTransform="translate(25.4988 27.0033) scale(7.23673)">
<stop offset="0.1358" stop-color="#FD6156"/>
<stop offset="0.7046" stop-color="#E12A28"/>
<stop offset="0.7227" stop-color="#DD2523"/>
<stop offset="0.7453" stop-color="#D01515"/>
<stop offset="0.7623" stop-color="#C20505"/>
<stop offset="0.7778" stop-color="#E31C1C"/>
<stop offset="0.8078" stop-color="#EA2A29"/>
<stop offset="0.8125" stop-color="#EA2A29"/>
<stop offset="0.9109" stop-color="#E32826"/>
<stop offset="0.928" stop-color="#E21F1E"/>
<stop offset="0.949" stop-color="#E21A19"/>
<stop offset="0.9633" stop-color="#EF2927"/>
<stop offset="0.9822" stop-color="#F93634"/>
<stop offset="1" stop-color="#FD3A38"/>
</radialGradient>
<radialGradient id="paint1_radial" cx="0" cy="0" r="1" gradientUnits="userSpaceOnUse" gradientTransform="translate(7.49971 12.0021) scale(5.78888)">
<stop offset="0.1358" stop-color="#52F0D4"/>
<stop offset="0.7046" stop-color="#26D49D"/>
<stop offset="0.7227" stop-color="#21D098"/>
<stop offset="0.7453" stop-color="#14C388"/>
<stop offset="0.7623" stop-color="#05B578"/>
<stop offset="0.7778" stop-color="#1AD696"/>
<stop offset="0.8078" stop-color="#27DDA1"/>
<stop offset="0.8125" stop-color="#27DDA1"/>
<stop offset="0.9109" stop-color="#24D69D"/>
<stop offset="0.9261" stop-color="#1DD599"/>
<stop offset="0.949" stop-color="#18D597"/>
<stop offset="0.9614" stop-color="#24E0A3"/>
<stop offset="0.9813" stop-color="#31ECB0"/>
<stop offset="1" stop-color="#35F0B4"/>
</radialGradient>
<radialGradient id="paint2_radial" cx="0" cy="0" r="1" gradientUnits="userSpaceOnUse" gradientTransform="translate(22.4994 13.5038) scale(11.5778)">
<stop offset="0.097222" stop-color="#FFEDA8"/>
<stop offset="0.7046" stop-color="#E3C141"/>
<stop offset="0.7225" stop-color="#DFBC3C"/>
<stop offset="0.7446" stop-color="#D2AF2C"/>
<stop offset="0.7623" stop-color="#C49F1B"/>
<stop offset="0.7778" stop-color="#E5BF35"/>
<stop offset="0.8078" stop-color="#ECC843"/>
<stop offset="0.8125" stop-color="#ECC843"/>
<stop offset="0.9109" stop-color="#E5C23F"/>
<stop offset="0.9271" stop-color="#E4C037"/>
<stop offset="0.949" stop-color="#E4BE32"/>
<stop offset="0.9645" stop-color="#F1CC43"/>
<stop offset="0.9828" stop-color="#FCD750"/>
<stop offset="1" stop-color="#C89E00"/>
</radialGradient>
<radialGradient id="paint3_radial" cx="0" cy="0" r="1" gradientUnits="userSpaceOnUse" gradientTransform="translate(11.9973 24.001) scale(10.1283)">
<stop offset="0.1358" stop-color="#B1B7FF"/>
<stop offset="0.7046" stop-color="#585BF5"/>
<stop offset="0.7248" stop-color="#5659F0"/>
<stop offset="0.7498" stop-color="#5153E0"/>
<stop offset="0.7623" stop-color="#4244CF"/>
<stop offset="0.7778" stop-color="#4B4EE9"/>
<stop offset="0.8078" stop-color="#5B5EFD"/>
<stop offset="0.8331" stop-color="#6164FF"/>
<stop offset="0.9109" stop-color="#6D70FF"/>
<stop offset="0.9233" stop-color="#6A6EFF"/>
<stop offset="0.9623" stop-color="#6065FA"/>
<stop offset="0.9644" stop-color="#6065FF"/>
<stop offset="0.9828" stop-color="#6D71FF"/>
<stop offset="1" stop-color="#898CFF"/>
</radialGradient>
</defs>
</svg>
