<svg width="24" height="24" viewBox="0 0 24 24" fill="none" xmlns="http://www.w3.org/2000/svg">
<path d="M13.5234 1.20506C13.5066 1.16723 13.473 1.14201 13.4331 1.1357L12.4916 1.0012C12.4495 0.994899 12.4075 1.01381 12.3823 1.04744L12.231 1.37528V1.3942C12.687 1.40471 13.1346 1.44043 13.5739 1.50558L13.5234 1.20506Z" fill="#DFBF4C"/>
<path d="M10.3835 1.15881C10.4235 1.15251 10.4634 1.16932 10.4886 1.20084L10.6252 1.48035C10.1734 1.5392 9.72995 1.62326 9.29912 1.73675L9.29492 1.71993L9.34956 1.36267C9.36427 1.32274 9.4 1.29542 9.44203 1.28911L10.3835 1.15881Z" fill="#DFBF4C"/>
<path d="M14.9314 1.44253C14.9713 1.45514 15.0007 1.48456 15.0112 1.52449L15.0217 1.83132C14.5951 1.70523 14.1559 1.60225 13.7083 1.5308L13.7104 1.51609L13.9058 1.21136C13.9352 1.17984 13.9794 1.16723 14.0193 1.17984L14.9314 1.44253Z" fill="#DFBF4C"/>
<path d="M7.56978 2.03308C7.53615 2.00996 7.49412 2.00576 7.45839 2.02257L6.59044 2.40716C6.55262 2.42397 6.52529 2.4618 6.52319 2.50383L6.56943 2.8632L6.57994 2.88211C6.96452 2.65304 7.36592 2.44709 7.77993 2.26635L7.56978 2.03308Z" fill="#DFBF4C"/>
<path d="M18.9708 3.55042C19.0023 3.57774 19.017 3.61767 19.0107 3.6576L18.8972 3.94131C18.5546 3.64919 18.1953 3.37809 17.8191 3.1301L17.8254 3.11959L18.128 2.92205C18.168 2.90523 18.2121 2.91364 18.2436 2.93886L18.9708 3.55042Z" fill="#DFBF4C"/>
<path d="M2.19812 7.20505C2.15819 7.20925 2.12247 7.23237 2.10355 7.26809L1.68534 8.12133C1.66642 8.15916 1.67063 8.2054 1.69585 8.23902L1.96064 8.48491L1.98166 8.49121C2.13087 8.06459 2.3074 7.64848 2.50916 7.24708L2.19812 7.20505Z" fill="#DFBF4C"/>
<path d="M3.38941 18.6986C3.3747 18.7364 3.381 18.7784 3.40622 18.8121L3.99046 19.5623C4.01568 19.5959 4.05771 19.6128 4.10184 19.6044L4.43809 19.4741L4.4507 19.4614C4.13547 19.142 3.83914 18.8016 3.56594 18.4422L3.38941 18.6986Z" fill="#DFBF4C"/>
<path d="M14.3471 22.7021C14.3093 22.7084 14.2673 22.6958 14.2399 22.6663L14.0886 22.41C14.5342 22.3196 14.9671 22.2019 15.3895 22.059L15.3916 22.0653L15.3622 22.4268C15.3496 22.4667 15.318 22.4982 15.276 22.5066L14.3471 22.7021Z" fill="#DFBF4C"/>
<path d="M22.5644 14.653C22.6044 14.6404 22.6338 14.611 22.6422 14.5711L22.8734 13.6485C22.8839 13.6085 22.8713 13.5644 22.8397 13.535L22.5287 13.3501H22.5245C22.4678 13.7998 22.3858 14.2411 22.2744 14.6719L22.5644 14.653Z" fill="#DFBF4C"/>
<path d="M1.0947 11.6037L1.39943 11.5175C1.39103 11.6793 1.38682 11.8411 1.38682 12.0029C1.38682 12.2951 1.40153 12.5809 1.42465 12.8667L1.39943 12.8688L1.05687 12.7532C1.02115 12.7322 0.998031 12.6923 1.00013 12.6502L1.03586 11.7003C1.03586 11.6604 1.05898 11.6226 1.0947 11.6037Z" fill="#DFBF4C"/>
<path d="M6.85718 21.6177C6.85928 21.6576 6.8824 21.6954 6.91812 21.7143L7.75665 22.162C7.79448 22.1809 7.83861 22.1788 7.87434 22.1557L8.12863 21.8993L8.13283 21.8867C7.71252 21.7227 7.30271 21.5336 6.90972 21.3171L6.85718 21.6177Z" fill="#DFBF4C"/>
<path d="M18.498 20.8169C18.4644 20.8401 18.4223 20.8464 18.3845 20.8296L18.1428 20.653C18.5085 20.3924 18.8595 20.1108 19.1894 19.8061L19.1936 19.8103L19.3134 20.1507C19.3197 20.1928 19.3008 20.2348 19.2672 20.26L18.498 20.8169Z" fill="#DFBF4C"/>
<path d="M22.7305 10.122C22.762 10.0947 22.7767 10.0548 22.7683 10.0149L22.6044 9.07965C22.5981 9.03762 22.5666 9.00399 22.5267 8.98928L22.1673 8.94725L22.1631 8.94935C22.2913 9.37597 22.3922 9.8131 22.4657 10.2607L22.7305 10.122Z" fill="#DFBF4C"/>
<path d="M3.89825 4.69368C3.85832 4.68527 3.81629 4.69998 3.79107 4.7294L3.15429 5.43553C3.12697 5.46706 3.11646 5.51119 3.13117 5.55112L3.31821 5.86005L3.33923 5.87476C3.59982 5.50699 3.88354 5.15602 4.18616 4.82397L3.89825 4.69368Z" fill="#DFBF4C"/>
<path d="M1.86173 16.183C1.84702 16.1452 1.85123 16.101 1.87644 16.0695L2.11602 15.8719C2.28205 16.2923 2.47119 16.7021 2.68555 17.0951L2.67084 17.1035L2.31147 17.1371C2.26944 17.1329 2.23161 17.1056 2.2169 17.0656L1.86173 16.183Z" fill="#DFBF4C"/>
<path d="M11.1401 22.5781L11.2137 22.8744C11.2326 22.9101 11.2683 22.9353 11.3083 22.9374L12.2561 23.0047C12.2981 23.0068 12.338 22.9879 12.3612 22.9501L12.4893 22.6117V22.6012C12.3275 22.6096 12.1636 22.6138 11.9997 22.6138C11.7097 22.6159 11.4238 22.6012 11.1401 22.5781Z" fill="#DFBF4C"/>
<path d="M21.5219 17.4082C21.5009 17.4418 21.4631 17.4649 21.4232 17.4649L21.1353 17.4061C21.3622 17.0215 21.5682 16.6201 21.7468 16.2061H21.7489L21.9969 16.4688C22.02 16.5045 22.02 16.5508 21.999 16.5865L21.5219 17.4082Z" fill="#DFBF4C"/>
<path d="M21.0366 5.91679C21.0534 5.87897 21.0513 5.83693 21.0282 5.80331L20.4986 5.01522C20.4755 4.97949 20.4334 4.96058 20.3914 4.96478L20.0467 5.07196L20.0383 5.07827C20.3304 5.41872 20.6037 5.77599 20.8516 6.15217L21.0366 5.91679Z" fill="#DFBF4C"/>
<path d="M1.62645 8.6152C1.58652 8.62361 1.555 8.65303 1.54239 8.69086L1.24817 9.59454C1.23556 9.63447 1.24607 9.6786 1.27549 9.71012L1.57181 9.91608L1.59283 9.92028C1.68109 9.47475 1.80088 9.03972 1.94169 8.6152H1.62645Z" fill="#DFBF4C"/>
<path d="M4.43618 19.9406C4.40676 19.9133 4.39625 19.8713 4.40466 19.8313L4.54126 19.556C4.8628 19.8713 5.20326 20.1676 5.56052 20.4408L5.55002 20.4534L5.23478 20.6299C5.19275 20.6425 5.14861 20.632 5.11919 20.6026L4.43618 19.9406Z" fill="#DFBF4C"/>
<path d="M15.7028 22.2502C15.7343 22.2754 15.7763 22.2838 15.8141 22.2691L16.7073 21.9455C16.7472 21.9308 16.7746 21.8951 16.7809 21.853L16.7599 21.4916L16.7578 21.4874C16.3585 21.6891 15.9444 21.8656 15.5178 22.0148L15.7028 22.2502Z" fill="#DFBF4C"/>
<path d="M22.6148 11.8727L22.949 12.0114C22.9847 12.0345 23.0036 12.0765 22.9994 12.1185L22.8985 13.0642C22.8943 13.1042 22.8691 13.1399 22.8313 13.1567L22.5413 13.2177C22.5875 12.8205 22.6127 12.4149 22.6127 12.005C22.6127 11.983 22.6117 11.9609 22.6106 11.9389C22.6096 11.9168 22.6085 11.8947 22.6085 11.8727H22.6148Z" fill="#DFBF4C"/>
<path d="M17.7811 2.76231C17.7811 2.72238 17.7622 2.68456 17.7265 2.66144L16.9216 2.15706C16.8858 2.13394 16.8396 2.13394 16.8039 2.15496L16.5328 2.39454L16.5286 2.40505C16.9363 2.59839 17.3293 2.81695 17.7075 3.05864L17.7811 2.76231Z" fill="#DFBF4C"/>
<path d="M6.11326 2.74971C6.14688 2.7287 6.19101 2.7266 6.22674 2.74551L6.46422 2.94726C6.07963 3.18264 5.71185 3.44323 5.36089 3.72484L5.34618 3.70593L5.25161 3.35707C5.24951 3.31504 5.27052 3.27511 5.30625 3.25199L6.11326 2.74971Z" fill="#DFBF4C"/>
<path d="M1.14526 13.1231C1.11163 13.1483 1.09482 13.1861 1.09902 13.2261L1.1978 14.1718C1.202 14.2138 1.22932 14.2495 1.26925 14.2664L1.62442 14.3336L1.64543 14.3294C1.54876 13.8944 1.47731 13.4488 1.43528 12.9949L1.14526 13.1231Z" fill="#DFBF4C"/>
<path d="M8.31989 22.3259C8.28206 22.3133 8.25474 22.2797 8.24634 22.2397L8.25685 21.9329C8.67506 22.0905 9.10588 22.2208 9.54721 22.3259L9.54511 22.3385L9.32865 22.6285C9.29713 22.6579 9.25299 22.6663 9.21306 22.6516L8.31989 22.3259Z" fill="#DFBF4C"/>
<path d="M19.29 19.7136L19.5527 19.8544C19.5927 19.865 19.6347 19.8544 19.662 19.8271L20.3471 19.1672C20.3766 19.1378 20.3892 19.0937 20.3787 19.0537L20.2126 18.7322L20.2105 18.7301C19.9247 19.0769 19.6158 19.4047 19.29 19.7136Z" fill="#DFBF4C"/>
<path d="M22.3879 8.53534C22.4005 8.57317 22.3921 8.6152 22.3648 8.64673L22.1294 8.81906C21.9928 8.38823 21.8289 7.97002 21.6418 7.56442L21.646 7.56232L22.0075 7.55391C22.0496 7.56232 22.0832 7.59174 22.0958 7.63167L22.3879 8.53534Z" fill="#DFBF4C"/>
<path d="M2.85814 5.93991C2.88126 5.90628 2.92119 5.88737 2.96112 5.88947L3.26585 5.97564C3.00946 6.34551 2.77828 6.7322 2.57023 7.1336L2.54921 7.1231L2.32014 6.84359C2.30123 6.80576 2.30333 6.76162 2.32644 6.7259L2.85814 5.93991Z" fill="#DFBF4C"/>
<path d="M2.54055 17.4376C2.52164 17.4733 2.52164 17.5154 2.54055 17.5511L3.01341 18.3749C3.03442 18.4107 3.07435 18.4338 3.11638 18.4317L3.46945 18.3476L3.48416 18.3371C3.21516 17.9777 2.97138 17.5973 2.75071 17.2043L2.54055 17.4376Z" fill="#DFBF4C"/>
<path d="M12.8383 22.9269C12.7984 22.929 12.7584 22.9101 12.7353 22.8765L12.6218 22.597C13.0779 22.5718 13.5234 22.515 13.9605 22.4331L13.9626 22.4415L13.8828 22.7945C13.866 22.8324 13.8281 22.8597 13.7861 22.8618L12.8383 22.9269Z" fill="#DFBF4C"/>
<path d="M22.0917 16.0989C22.1316 16.0926 22.1652 16.0653 22.1799 16.0296L22.5372 15.149C22.554 15.1091 22.5456 15.0649 22.5183 15.0313L22.2367 14.8044H22.2346C22.1148 15.2415 21.9698 15.666 21.7996 16.0779L22.0917 16.0989Z" fill="#DFBF4C"/>
<path d="M20.1036 4.71678L19.9523 4.97738C19.6539 4.64113 19.3344 4.32379 18.9961 4.02536L19.0045 4.01696L19.3323 3.86144C19.3744 3.85303 19.4185 3.86564 19.4458 3.89717L20.0805 4.6054C20.1057 4.63482 20.1162 4.67685 20.1036 4.71678Z" fill="#DFBF4C"/>
<path d="M9.00074 1.5161C8.97132 1.48878 8.92929 1.47827 8.88936 1.48878L7.97518 1.74938C7.93525 1.75988 7.90372 1.79351 7.89532 1.83554L7.89111 2.19701L7.89742 2.21382C8.30933 2.04149 8.73595 1.89438 9.17307 1.77459L9.00074 1.5161Z" fill="#DFBF4C"/>
<path d="M1.18306 10.1788C1.19147 10.1388 1.21879 10.1052 1.25661 10.0905L1.56975 10.0485C1.48779 10.4877 1.43105 10.9332 1.40583 11.3893L1.38271 11.3872L1.05907 11.2254C1.02544 11.198 1.00863 11.156 1.01703 11.114L1.18306 10.1788Z" fill="#DFBF4C"/>
<path d="M5.56894 20.8107C5.56474 20.8506 5.58365 20.8905 5.61518 20.9136L6.38225 21.4727C6.41588 21.4979 6.46211 21.5021 6.49994 21.4832L6.78785 21.2646L6.79416 21.252C6.40116 21.0313 6.02288 20.7854 5.66351 20.5185L5.56894 20.8107Z" fill="#DFBF4C"/>
<path d="M17.2076 21.6387C17.1719 21.6576 17.1298 21.6555 17.0941 21.6345L16.8818 21.4264C17.2811 21.2205 17.6678 20.9872 18.0356 20.7329L18.0377 20.7371L18.1092 21.0923C18.1092 21.1343 18.086 21.1742 18.0482 21.1931L17.2076 21.6387Z" fill="#DFBF4C"/>
<path d="M22.8861 11.6352C22.9197 11.6121 22.9407 11.5742 22.9386 11.5343L22.9071 10.5844C22.905 10.5424 22.8819 10.5045 22.8419 10.4856L22.4931 10.3931H22.491C22.5582 10.8324 22.5939 11.28 22.6066 11.736L22.8861 11.6352Z" fill="#DFBF4C"/>
<path d="M16.3711 1.95321C16.4089 1.97002 16.4341 2.00575 16.4383 2.04568L16.4068 2.3462C15.9991 2.16126 15.5809 1.99734 15.1479 1.86284L15.1501 1.85233L15.3854 1.57913C15.4191 1.55181 15.4653 1.5476 15.5031 1.56442L16.3711 1.95321Z" fill="#DFBF4C"/>
<path d="M5.26 3.8047L4.9931 3.63657C4.95527 3.62396 4.91113 3.63026 4.88171 3.65759L4.15247 4.26704C4.12094 4.29436 4.10623 4.33639 4.11464 4.37843L4.25754 4.71047L4.27646 4.72729C4.58539 4.40154 4.91324 4.09051 5.26 3.8047Z" fill="#DFBF4C"/>
<path d="M1.37634 14.7308C1.36793 14.6909 1.37844 14.6509 1.40786 14.6215L1.67686 14.4555C1.78194 14.8989 1.91224 15.3297 2.06986 15.748L2.05094 15.7543L1.68947 15.7375C1.64744 15.7269 1.61592 15.6933 1.60541 15.6534L1.37634 14.7308Z" fill="#DFBF4C"/>
<path d="M9.70697 22.66C9.71957 22.6979 9.7532 22.7273 9.79103 22.7357L10.7199 22.9353C10.762 22.9438 10.804 22.929 10.8313 22.8975L11.0057 22.5802V22.5697C10.5539 22.5276 10.1084 22.4562 9.67334 22.3595L9.70697 22.66Z" fill="#DFBF4C"/>
<path d="M20.6771 18.6818C20.6518 18.7133 20.6119 18.728 20.572 18.7238L20.2925 18.6208C20.5741 18.272 20.8326 17.9042 21.068 17.5196H21.0701L21.2781 17.8159C21.2949 17.8558 21.2886 17.9 21.2634 17.9336L20.6771 18.6818Z" fill="#DFBF4C"/>
<path d="M21.7951 7.23448C21.8182 7.20085 21.8203 7.15672 21.8035 7.12099L21.3874 6.26565C21.3685 6.22782 21.3307 6.2026 21.2886 6.2005L20.9314 6.25934L20.925 6.26355C21.1667 6.63973 21.3895 7.03062 21.5828 7.43833L21.7951 7.23448Z" fill="#DFBF4C"/>
<path d="M12.0061 1.09788L12.1007 1.3942C12.0671 1.3921 12.0334 1.39 11.9998 1.39C11.5774 1.39 11.1634 1.41732 10.7536 1.46565L10.7515 1.44674L10.8565 1.09998C10.8755 1.06215 10.9154 1.03903 10.9574 1.03903L11.9073 1.04113C11.9473 1.04113 11.9851 1.06215 12.0061 1.09788Z" fill="#DFBF4C"/>
<path d="M11.9997 1.39C6.13844 1.39 1.38678 6.14166 1.38678 12.003C1.38678 17.8642 6.13844 22.6159 11.9997 22.6159C17.861 22.6159 22.6127 17.8642 22.6127 12.003C22.6127 6.14166 17.861 1.39 11.9997 1.39Z" fill="url(#paint0_radial)"/>
<path opacity="0.5" fill-rule="evenodd" clip-rule="evenodd" d="M3.13718 16.9344C2.19252 15.1749 1.62882 13.0986 2.00001 11L1.8144 10.9799C1.43822 13.1067 2.00275 15.2215 2.96814 17.0196C3.93414 18.8189 5.76336 20.7322 8.42638 21.6652L8.50006 21.5C5.87415 20.5799 4.08124 18.6928 3.13718 16.9344Z" fill="url(#paint1_linear)"/>
<g filter="url(#ic24px_busd)">
<path fill-rule="evenodd" clip-rule="evenodd" d="M13.7368 20.1646C11.7023 20.5403 9.57629 20.1514 7.56657 19.2272L7.49463 19.3916C9.53138 20.3283 11.6963 20.7272 13.7756 20.3431C15.8561 19.9589 17.8426 18.7921 19.5233 16.6119L19.3775 16.4984C17.7202 18.6482 15.7701 19.789 13.7368 20.1646Z" fill="url(#paint2_linear)"/>
</g>
<g filter="url(#filter1_f)">
<path fill-rule="evenodd" clip-rule="evenodd" d="M5.19144 16.9577C3.90014 15.4115 3.27709 13.4339 3.20516 11.3068L3.01904 11.3221C3.09194 13.4779 3.7238 15.493 5.04344 17.0732C6.3639 18.6543 8.3679 19.7936 11.1719 20.205L11.2098 20.0291C8.44489 19.6234 6.48192 18.5029 5.19144 16.9577Z" fill="url(#paint3_linear)"/>
</g>
<g opacity="0.4" filter="url(#filter2_f)">
<path fill-rule="evenodd" clip-rule="evenodd" d="M12.7249 18.219C10.9549 18.3889 9.16933 17.8983 7.52684 16.9588L7.4519 17.094C9.11648 18.0462 10.9346 18.5482 12.7434 18.3745C14.5534 18.2008 16.3469 17.3511 17.9619 15.6123L17.8465 15.5044C16.254 17.219 14.4937 18.0491 12.7249 18.219Z" fill="url(#paint4_linear)"/>
</g>
<path fill-rule="evenodd" clip-rule="evenodd" d="M21.4742 7.80458C20.3929 5.68364 18.9049 3.61261 16.5922 2.58685L16.6992 2.38707C19.0431 3.42663 20.5683 5.52414 21.6733 7.69164C22.779 9.86049 23.0662 12.5916 22.1628 15.8871L21.9503 15.851C22.8412 12.6014 22.5548 9.92418 21.4742 7.80458Z" fill="url(#paint5_linear)"/>
<path fill-rule="evenodd" clip-rule="evenodd" d="M19.0001 8C17.9378 6.42893 16.2723 4.90781 14.0001 4.14798L14.1053 4C16.408 4.77004 18.1101 6.31079 19.1957 7.91634C20.282 9.5229 20.5964 12.0857 19.7088 14.5268L19.5001 14.5C20.3753 12.0929 20.0618 9.57008 19.0001 8Z" fill="url(#paint6_linear)"/>
<g filter="url(#filter3_d)">
<path d="M12 6L13.4865 7.51786L9.74323 11.25L8.25665 9.76786L12 6Z" fill="#131A32"/>
<path d="M14.2567 8.25002L15.7433 9.76787L9.74323 15.75L8.25665 14.2679L14.2567 8.25002Z" fill="#131A32"/>
<path d="M7.48658 10.5L8.97315 12.0179L7.48658 13.5L6 12.0179L7.48658 10.5Z" fill="#131A32"/>
<path d="M16.5133 10.5L17.9999 12.0179L11.9999 18L10.5133 16.5179L16.5133 10.5Z" fill="#131A32"/>
</g>
<defs>
<filter id="ic24px_busd" x="6.49463" y="15.4984" width="14.0287" height="5.98989" filterUnits="userSpaceOnUse" color-interpolation-filters="sRGB">
<feFlood flood-opacity="0" result="BackgroundImageFix"/>
<feBlend mode="normal" in="SourceGraphic" in2="BackgroundImageFix" result="shape"/>
<feGaussianBlur stdDeviation="0.5" result="effect1_foregroundBlur"/>
</filter>
<filter id="filter1_f" x="2.01904" y="10.3068" width="10.1908" height="10.8982" filterUnits="userSpaceOnUse" color-interpolation-filters="sRGB">
<feFlood flood-opacity="0" result="BackgroundImageFix"/>
<feBlend mode="normal" in="SourceGraphic" in2="BackgroundImageFix" result="shape"/>
<feGaussianBlur stdDeviation="0.5" result="effect1_foregroundBlur"/>
</filter>
<filter id="filter2_f" x="6.4519" y="14.5044" width="12.5099" height="4.90409" filterUnits="userSpaceOnUse" color-interpolation-filters="sRGB">
<feFlood flood-opacity="0" result="BackgroundImageFix"/>
<feBlend mode="normal" in="SourceGraphic" in2="BackgroundImageFix" result="shape"/>
<feGaussianBlur stdDeviation="0.5" result="effect1_foregroundBlur"/>
</filter>
<filter id="filter3_d" x="5.3" y="5.4" width="13.9999" height="14" filterUnits="userSpaceOnUse" color-interpolation-filters="sRGB">
<feFlood flood-opacity="0" result="BackgroundImageFix"/>
<feColorMatrix in="SourceAlpha" type="matrix" values="0 0 0 0 0 0 0 0 0 0 0 0 0 0 0 0 0 0 127 0"/>
<feOffset dx="0.3" dy="0.4"/>
<feGaussianBlur stdDeviation="0.5"/>
<feColorMatrix type="matrix" values="0 0 0 0 0 0 0 0 0 0 0 0 0 0 0 0 0 0 0.24 0"/>
<feBlend mode="normal" in2="BackgroundImageFix" result="effect1_dropShadow"/>
<feBlend mode="normal" in="SourceGraphic" in2="effect1_dropShadow" result="shape"/>
</filter>
<radialGradient id="paint0_radial" cx="0" cy="0" r="1" gradientUnits="userSpaceOnUse" gradientTransform="translate(11.9995 12.0036) scale(10.613)">
<stop offset="0.097222" stop-color="#FFEDA8"/>
<stop offset="0.7046" stop-color="#E3C141"/>
<stop offset="0.7225" stop-color="#DFBC3C"/>
<stop offset="0.7446" stop-color="#D2AF2C"/>
<stop offset="0.7623" stop-color="#C49F1B"/>
<stop offset="0.7778" stop-color="#E5BF35"/>
<stop offset="0.8078" stop-color="#ECC843"/>
<stop offset="0.8125" stop-color="#ECC843"/>
<stop offset="0.9109" stop-color="#E5C23F"/>
<stop offset="0.9271" stop-color="#E4C037"/>
<stop offset="0.949" stop-color="#E4BE32"/>
<stop offset="0.9645" stop-color="#F1CC43"/>
<stop offset="0.9828" stop-color="#FCD750"/>
<stop offset="1" stop-color="#C89E00"/>
</radialGradient>
<linearGradient id="paint1_linear" x1="8.28306" y1="21.2778" x2="2.77501" y2="11.3588" gradientUnits="userSpaceOnUse">
<stop stop-color="white" stop-opacity="0"/>
<stop offset="0.487847" stop-color="white" stop-opacity="0.517361"/>
<stop offset="1" stop-color="white" stop-opacity="0"/>
</linearGradient>
<linearGradient id="paint2_linear" x1="19.5423" y1="16.6588" x2="8.20233" y2="19.6324" gradientUnits="userSpaceOnUse">
<stop stop-opacity="0.39"/>
<stop offset="0.310764" stop-opacity="0.94"/>
<stop offset="0.487847" stop-opacity="0.9"/>
<stop offset="0.670139" stop-opacity="0.71"/>
<stop offset="1" stop-opacity="0.26"/>
</linearGradient>
<linearGradient id="paint3_linear" x1="11.1371" y1="20.2427" x2="3.73568" y2="11.5126" gradientUnits="userSpaceOnUse">
<stop stop-opacity="0.39"/>
<stop offset="0.310764" stop-opacity="0.87"/>
<stop offset="0.487847" stop-opacity="0.71"/>
<stop offset="0.670139"/>
<stop offset="1" stop-opacity="0.26"/>
</linearGradient>
<linearGradient id="paint4_linear" x1="17.9743" y1="15.6538" x2="8.02462" y2="17.2747" gradientUnits="userSpaceOnUse">
<stop stop-opacity="0.79"/>
<stop offset="0.487847" stop-opacity="0.517361"/>
<stop offset="1" stop-opacity="0.72"/>
</linearGradient>
<linearGradient id="paint5_linear" x1="22.2922" y1="17.7963" x2="15.4181" y2="3.30684" gradientUnits="userSpaceOnUse">
<stop stop-color="white" stop-opacity="0"/>
<stop offset="0.487847" stop-color="white" stop-opacity="0.517361"/>
<stop offset="1" stop-color="white" stop-opacity="0"/>
</linearGradient>
<linearGradient id="paint6_linear" x1="19.6002" y1="15.4142" x2="15.4305" y2="3.75711" gradientUnits="userSpaceOnUse">
<stop stop-color="white" stop-opacity="0"/>
<stop offset="0.453125" stop-color="white" stop-opacity="0.57"/>
<stop offset="0.578125" stop-color="white" stop-opacity="0.44"/>
<stop offset="0.703125" stop-color="white" stop-opacity="0.29"/>
<stop offset="1" stop-color="white" stop-opacity="0"/>
</linearGradient>
</defs>
</svg>
