<svg width="109" height="36" viewBox="0 0 109 36" fill="none" xmlns="http://www.w3.org/2000/svg">
<path d="M52 29.5213H60.1323C66.6253 29.5213 71.4147 25.3723 71.4147 18.2234C71.4147 11.0745 66.6574 6.89362 60.1645 6.89362H52V29.5213ZM59.9716 25.4362H56.4358V10.9787H60.0037C63.7324 10.9787 66.8182 13.3085 66.8182 18.2234C66.8182 23.1383 63.7002 25.4362 59.9716 25.4362Z" fill="#291D41"/>
<path d="M89.2081 25.0213L85.6402 23.9681C85.1259 25.3723 84.033 26.3617 82.0401 26.3617C79.9187 26.3617 78.1508 24.8617 78.0543 22.7872H89.3688C89.3688 22.7234 89.4331 22.0851 89.4331 21.4787C89.4331 16.4362 86.5081 13.3404 81.6223 13.3404C77.5722 13.3404 73.8435 16.5957 73.8435 21.6064C73.8435 26.9043 77.6686 30 82.008 30C85.8973 30 88.4045 27.734 89.2081 25.0213ZM85.2223 19.883H78.1508C78.2472 18.4468 79.4686 16.7872 81.6865 16.7872C84.1295 16.7872 85.158 18.3191 85.2223 19.883Z" fill="#291D41"/>
<path d="M103.728 8.64894C103.728 10.0851 104.918 11.234 106.364 11.234C107.811 11.234 109 10.0851 109 8.64894C109 7.18085 107.811 6 106.364 6C104.918 6 103.728 7.18085 103.728 8.64894ZM97.9105 17.4574H104.243V29.5213H108.486V13.8192H97.9105V12.0957C97.9105 10.3404 99.1962 9.92553 100.128 9.92553C100.836 9.92553 101.253 10.0213 101.478 10.0851V6.51064C101.125 6.35107 100.257 6.19149 99.3569 6.19149C95.8533 6.19149 93.6033 8.48936 93.6033 12.0319V13.8192H90.9675V17.4574H93.6033V29.5213H97.9105V17.4574Z" fill="#291D41"/>
<path d="M0 0H36L26.5 30L0 36V0Z" fill="#291D41"/>
<path d="M26.5 30L36 0L11 12L0 36L26.5 30Z" fill="url(#paint0_linear_3831_50739)"/>
<defs>
<linearGradient id="paint0_linear_3831_50739" x1="0" y1="18" x2="36" y2="18" gradientUnits="userSpaceOnUse">
<stop stop-color="#FF7F49"/>
<stop offset="1" stop-color="#D30000"/>
</linearGradient>
</defs>
</svg>
