<svg width="300" height="300" viewBox="0 0 300 300" fill="none" xmlns="http://www.w3.org/2000/svg">
<g opacity="0.3" filter="url(#filter0_f_4321_15395)">
<ellipse cx="150.5" cy="237.5" rx="125.5" ry="35.5" fill="black"/>
</g>
<path d="M55.6531 109.254C55.6531 109.254 53.502 108.273 53.502 110.75C53.502 130.774 53.502 220.777 53.502 220.984C53.502 224.338 66.3574 226.609 68.5085 227.332C76.191 229.964 125.103 244.156 141.595 249.265C145.283 250.4 148.868 250.916 152.555 252L152.709 132.219L58.5212 108.118L55.6531 109.254Z" fill="url(#paint0_linear_4321_15395)"/>
<path d="M244.798 111.989L243.568 225.113L152.556 252V131.651L244.798 111.989Z" fill="url(#paint1_linear_4321_15395)"/>
<path opacity="0.6" d="M158.855 136.451L195.271 148.578L239.471 115.911L197.371 155.236L158.855 136.451Z" fill="#AA1F49"/>
<path opacity="0.3" d="M198.6 201.218L155.833 250.658L198.6 215.72L240.085 226.3L198.6 201.218Z" fill="#5B0922"/>
<path opacity="0.6" d="M223.799 219.642L215.45 222.171L212.121 231.822L207.819 222.945L199.061 222.223L205.105 214.585L203.312 204.779L211.199 208.805L218.831 203.437L217.55 213.398L223.799 219.642Z" fill="url(#paint2_linear_4321_15395)"/>
<path d="M237.371 108.118C228.971 105.951 220.469 103.886 212.07 101.616C197.832 97.7967 183.44 94.3907 169.15 90.6749C158.138 87.8365 148.561 85.8754 137.344 88.7654C130.072 90.6233 122.594 91.9651 115.219 93.6165C98.6757 97.3323 82.0815 100.842 65.4872 104.454C61.646 105.28 57.8559 106.106 54.0146 106.931L152.3 132.993L222.979 115.601L242.544 111.318L237.371 108.118Z" fill="#DD3668"/>
<path d="M244.593 112.866L185.027 163.7V206.637L243.415 225.835L244.593 112.866Z" fill="#D33766"/>
<path d="M193.12 178.459C203.004 173.144 237.115 155.907 244.183 152.398L244.336 135.832C237.832 138.515 199.778 155.907 195.732 156.991L185.027 163.7V182.485C187.793 181.195 190.456 179.853 193.12 178.459Z" fill="url(#paint3_linear_4321_15395)"/>
<path opacity="0.6" d="M220.879 206.895L211.814 202.353L201.366 207.875L204.695 196.935L197.883 189.297L208.997 187.645L215.245 177.943L218.728 187.645L229.432 189.194L220.469 196.573L220.879 206.895Z" fill="url(#paint4_linear_4321_15395)"/>
<path opacity="0.4" d="M199.47 150.694C199.47 150.694 207.614 153.12 209.099 161.274C210.584 169.428 220.213 202.715 201.877 212.675L193.734 208.753L191.327 158.539L199.47 150.694Z" fill="#AA1F49"/>
<path d="M151.685 132.683L214.528 155.545L215.142 193.322L155.475 250.09L151.633 249.884L151.685 132.683Z" fill="url(#paint5_linear_4321_15395)"/>
<path opacity="0.6" d="M183.798 177.376L174.066 174.589L164.796 181.917L166.128 170.563L157.984 164.319L168.637 160.655L172.991 149.92L178.215 158.848L189.022 158.384L181.544 167.312L183.798 177.376Z" fill="url(#paint6_linear_4321_15395)"/>
<path opacity="0.3" d="M63.8999 150.798L73.6311 147.804L82.9014 155.7L81.621 143.469L89.7644 136.76L79.1113 132.787L74.7579 121.278L69.5338 130.877L58.7271 130.361L66.1535 139.96L63.8999 150.798Z" fill="url(#paint7_linear_4321_15395)"/>
<path opacity="0.6" d="M202.851 193.684L196.756 195.232L193.99 202.096L191.173 195.49L184.822 194.613L189.483 189.349L188.561 182.175L194.144 185.375L199.829 181.762L198.548 188.936L202.851 193.684Z" fill="url(#paint8_linear_4321_15395)"/>
<path opacity="0.3" d="M63.3364 211.643L70.6092 213.449L73.8871 221.552L77.2162 213.81L84.6938 212.778L79.2136 206.482L80.2892 198.019L73.6822 201.786L66.9216 197.554L68.4581 206.018L63.3364 211.643Z" fill="url(#paint9_linear_4321_15395)"/>
<path opacity="0.6" d="M120.494 178.407L125.513 182.484L125.104 189.968L130.533 185.168L136.832 187.077L134.835 180.214L138.779 174.072L132.223 174.588L128.484 168.808L126.589 175.93L120.494 178.407Z" fill="url(#paint10_linear_4321_15395)"/>
<path opacity="0.6" d="M119.931 217.681L127.203 219.487L130.43 227.641L133.759 219.848L141.237 218.816L135.757 212.52L136.883 204.057L130.276 207.876L123.516 203.592L125.052 212.056L119.931 217.681Z" fill="url(#paint11_linear_4321_15395)"/>
<path opacity="0.6" d="M102.363 154.72L113.119 157.403L117.984 169.479L122.901 157.919L134.015 156.371L125.872 147.082L127.511 134.541L117.677 140.166L107.69 133.819L109.943 146.359L102.363 154.72Z" fill="url(#paint12_linear_4321_15395)"/>
<path opacity="0.4" d="M84.5915 192.806L94.7836 192.084L102.466 201.27L103.542 189.71L112.863 185.22L103.03 179.388L100.93 167.88L93.9129 175.621L83.311 172.937L88.8425 183.31L84.5915 192.806Z" fill="url(#paint13_linear_4321_15395)"/>
<path opacity="0.6" d="M221.237 165.248L215.091 166.744L212.326 173.608L209.56 167.054L203.209 166.177L207.87 160.861L206.948 153.688L212.53 156.939L218.216 153.326L216.935 160.448L221.237 165.248Z" fill="url(#paint14_linear_4321_15395)"/>
<path opacity="0.6" d="M202.39 134.593L196.244 136.09L193.478 142.953L190.712 136.399L184.361 135.522L189.022 130.206L188.049 123.084L193.683 126.284L199.368 122.672L198.087 129.793L202.39 134.593Z" fill="url(#paint15_linear_4321_15395)"/>
<path d="M141.134 134.335C141.134 134.335 148.356 138.876 147.126 155.184C145.897 171.544 150.609 250.761 140.366 248.955L148.663 251.381L151.377 147.908C151.326 147.959 153.119 136.141 141.134 134.335Z" fill="#FF4A80"/>
<path d="M194.349 155.7C193.427 155.649 192.71 155.391 192.146 154.926C178.42 160.758 164.489 166.177 150.456 171.286C150.405 180.937 150.097 191.723 149.739 202.096C165.718 193.735 181.647 185.426 197.934 177.737C201.007 176.292 204.08 174.898 207.153 173.453C206.436 165.093 203.773 156.062 194.349 155.7Z" fill="url(#paint16_linear_4321_15395)"/>
<path d="M161.98 132.632C184.669 122.826 244.951 114.363 244.951 114.363C245.873 108.325 233.529 107.396 233.529 107.396C233.529 107.396 159.828 128.865 151.992 130.361C144.156 131.858 59.0337 106.157 59.0337 106.157C50.3269 106.467 53.6048 110.389 53.6048 110.389C62.6189 107.654 141.442 133.354 147.793 137.638C154.092 141.87 147.485 250.762 147.485 250.762C151.378 253.187 156.038 250.916 155.834 250.607C155.834 250.607 155.834 250.607 155.885 250.658L204.541 207.308C207.972 204.521 212.274 200.702 214.579 197.193C218.881 190.742 216.577 159.571 214.17 155.649C211.762 151.727 167.921 141.612 158.907 136.502C158.855 136.451 158.497 134.954 161.98 132.632ZM161.877 142.541C170.891 148.011 211.096 153.533 211.711 159.881C212.377 167.106 213.043 178.614 213.299 185.891C213.606 193.89 203.312 203.953 197.678 209.837C190.866 216.959 183.491 221.19 176.269 227.951C171.557 232.389 167.05 236.879 161.775 240.75C153.478 246.788 153.119 237.756 152.965 231.099C152.761 222.223 152.607 213.398 152.556 204.521C152.453 190.948 152.556 177.376 152.761 163.803C152.812 160.655 152.863 157.558 152.965 154.41C153.017 152.656 153.939 148.475 153.17 146.927C153.324 147.237 153.426 147.392 153.426 147.392C153.426 147.392 152.863 137.07 161.877 142.541Z" fill="#FF4A80"/>
<path opacity="0.6" d="M162.595 188.058L155.424 192.6L150.149 189.555C149.995 194.716 149.842 199.928 149.637 205.037L151.685 205.295L155.219 213.553L158.702 204.882L166.436 202.973L161.007 196.987L162.595 188.058Z" fill="url(#paint17_linear_4321_15395)"/>
<path opacity="0.6" d="M192.914 214.688L182.62 215.101L177.396 206.173L173.042 216.907L162.389 220.571L170.533 226.816L169.303 237.602L192.914 214.688Z" fill="url(#paint18_linear_4321_15395)"/>
<path d="M236.193 115.601C236.193 115.601 243.722 111.679 243.107 128.916C242.493 146.153 241.929 215.41 241.929 215.41C241.929 215.41 242.236 224.493 240.137 226.299L243.466 225.835C243.466 225.835 245.873 114.982 244.644 112.866C243.414 110.75 236.193 115.601 236.193 115.601Z" fill="#FF4A80"/>
<path d="M244.029 117.717C244.029 117.717 246.129 112.247 232.915 114.105C219.701 115.911 164.182 127.729 157.677 131.961C152.299 135.47 158.599 137.431 175.449 146.462C175.449 146.462 155.116 135.573 152.299 137.07C149.79 138.412 150.814 160.345 150.814 160.345C150.814 160.345 149.892 137.638 143.285 133.715L107.792 121.02C107.792 121.02 139.393 131.445 151.121 131.599C156.397 131.651 209.201 116.169 232.044 112.247C235.219 111.731 244.285 108.634 244.029 117.717Z" fill="url(#paint19_linear_4321_15395)"/>
<path d="M198.6 210.869C198.6 210.869 212.735 199.876 214.221 194.819C217.806 182.743 213.913 168.499 213.913 168.499C213.913 168.499 215.091 187.233 212.121 195.128C210.021 200.65 198.6 210.869 198.6 210.869Z" fill="url(#paint20_linear_4321_15395)"/>
<path opacity="0.6" d="M189.124 232.699L185.949 227.074L183.132 233.731L176.474 235.898L181.493 239.924L180.981 243.691L191.685 240.543L191.173 238.014L195.885 232.492L189.124 232.699Z" fill="url(#paint21_linear_4321_15395)"/>
<path opacity="0.6" d="M241.417 131.445L232.198 124.994L231.993 135.264L222.108 140.992L233.53 144.14L237.064 153.636L243.773 145.843H244.234L244.388 130.671L241.417 131.445Z" fill="url(#paint22_linear_4321_15395)"/>
<path opacity="0.6" d="M244.03 168.654L242.698 169.48L237.115 166.28L238.037 173.453L233.376 178.769L239.727 179.646L242.544 186.2L243.876 182.846L244.03 168.654Z" fill="url(#paint23_linear_4321_15395)"/>
<path opacity="0.6" d="M243.415 225.835L243.517 214.688L234.606 208.495L234.401 218.765L229.894 221.397L243.415 225.835Z" fill="url(#paint24_linear_4321_15395)"/>
<path opacity="0.3" d="M59.8528 169.531L55.4994 158.023L53.502 161.635C53.502 169.48 53.502 177.427 53.502 184.807L54.3726 184.549L63.6429 192.445L62.3625 180.214L70.5059 173.505L59.8528 169.531Z" fill="url(#paint25_linear_4321_15395)"/>
<path opacity="0.4" d="M102.465 231.306L92.4268 224.958L94.2706 235.125C100.16 236.879 106.511 238.737 112.709 240.595L110.609 238.221L112.248 225.629L102.465 231.306Z" fill="url(#paint26_linear_4321_15395)"/>
<path opacity="0.6" d="M150.148 190.174L144.719 189.091L148.151 196.78L143.131 204.005L149.636 205.089L150.148 190.174Z" fill="url(#paint27_linear_4321_15395)"/>
<path d="M147.895 248.697C146.819 242.195 147.127 235.382 150.763 211.179C150.763 211.179 147.946 251.226 156.499 248.542C156.448 248.542 148.458 252.31 147.895 248.697Z" fill="url(#paint28_linear_4321_15395)"/>
<path opacity="0.4" d="M91.2998 102.132L106.665 104.97L124.591 104.093L119.059 107.809L131.249 111.37L111.479 110.905L100.007 114.053L94.5264 109.925L76.5493 108.222L91.9144 106.261L91.2998 102.132Z" fill="url(#paint29_linear_4321_15395)"/>
<path d="M144.208 111.421L159.624 114.26L177.55 113.382L172.018 117.098L184.208 120.607L164.387 120.143L152.966 123.291L147.485 119.214L129.508 117.511L144.822 115.498L144.208 111.421Z" fill="url(#paint30_linear_4321_15395)"/>
<path opacity="0.4" d="M132.171 92.7906L143.593 94.9065L156.909 94.2872L152.812 97.0224L161.826 99.6544L147.127 99.2932L138.625 101.616L134.579 98.5707L121.211 97.3321L132.632 95.8355L132.171 92.7906Z" fill="url(#paint31_linear_4321_15395)"/>
<path d="M189.125 102.906L200.546 104.97L213.862 104.351L209.765 107.086L218.779 109.718L204.08 109.357L195.578 111.731L191.532 108.686L178.215 107.396L189.585 105.951L189.125 102.906Z" fill="url(#paint32_linear_4321_15395)"/>
<path opacity="0.3" d="M186.615 95.1647C183.747 94.3906 180.879 94.0294 178.164 93.3069L178.267 94.1326L170.635 95.1131L179.547 95.9388L182.261 98.0031L187.947 96.4549L191.532 96.5581C189.944 96.0937 188.254 95.6292 186.615 95.1647Z" fill="url(#paint33_linear_4321_15395)"/>
<path opacity="0.5" d="M107.126 237.808L110.302 238.789V128.297C110.302 128.297 109.841 121.33 119.47 119.214L108.919 121.64C108.919 121.64 104.105 121.64 105.026 130.413C105.897 139.186 107.126 237.808 107.126 237.808Z" fill="#5B0909"/>
<path d="M106.409 239.098L107.024 125.974C107.024 125.974 106.614 121.536 110.609 120.71C114.604 119.885 203.26 97.7451 203.26 97.7451L176.166 90.8813L88.5343 113.898C88.5343 113.898 85.3076 114.311 85.3076 120.349C85.3076 125.2 85.3076 232.699 85.3076 232.699L106.409 239.098Z" fill="url(#paint34_linear_4321_15395)"/>
<path d="M165.156 106.467C140.828 112.453 113.324 119.266 110.405 120.143C105.027 121.794 105.693 127.368 105.744 128.039V239.098H106.973V127.987V127.884C106.922 127.678 106.103 122.723 110.763 121.33C113.58 120.453 140.828 113.692 165.104 107.757C165.053 107.293 165.104 106.88 165.156 106.467Z" fill="#FFC969"/>
<path opacity="0.5" d="M189.688 240.233L186.513 241.213V130.722C186.513 130.722 186.974 123.755 177.345 121.639L187.896 124.064C187.896 124.064 192.71 124.064 191.788 132.838C190.918 141.611 189.688 240.233 189.688 240.233Z" fill="#5B0909"/>
<path d="M190.405 241.523L189.79 128.4C189.79 128.4 190.2 123.961 186.154 123.136C182.159 122.31 91.6587 97.7448 91.6587 97.7448L118.752 92.1196L208.228 116.324C208.228 116.324 211.455 116.736 211.455 122.774C211.455 127.626 211.455 235.124 211.455 235.124L190.405 241.523Z" fill="url(#paint35_linear_4321_15395)"/>
<path d="M189.791 241.523H190.969V130.464C191.071 129.793 191.686 124.219 186.308 122.568C181.135 120.968 95.9618 98.622 92.3766 97.7446L92.0693 98.9316C92.94 99.138 180.777 122.155 185.899 123.703C190.559 125.148 189.74 130.051 189.689 130.257V130.361V241.523H189.791Z" fill="#E55C00"/>
<path opacity="0.3" d="M109.227 115.601L135.398 109.563L119.163 105.641C119.163 105.589 110.712 109.253 109.227 115.601Z" fill="#5B0909"/>
<path opacity="0.3" d="M92.6837 112.557C92.6837 112.557 90.2765 124.375 107.741 124.942L92.6837 112.557Z" fill="#5B0909"/>
<path opacity="0.3" d="M135.962 98.3644C128.177 96.2485 104.412 98.3644 104.412 98.3644C104.412 98.3644 114.348 92.636 121.877 92.0167L138.42 95.9389C138.42 95.9389 136.781 98.5709 135.962 98.3644Z" fill="#5B0909"/>
<path opacity="0.3" d="M195.271 117.717L192.556 111.989L162.748 103.835C162.748 103.835 150.302 101.512 144.156 102.648L136.013 99.6029C136.013 99.6029 126.64 98.674 120.34 105.641L135.398 109.563C135.398 109.563 152.556 112.298 161.109 108.892C162.082 109.047 163.055 109.77 163.977 109.873L195.271 117.717Z" fill="#5B0909"/>
<path d="M212.942 27.4557C200.137 20.2822 181.238 29.8296 173.966 39.1706C162.186 54.3432 151.584 77.6698 151.379 97.229C154.862 98.416 158.6 99.4997 162.186 100.325C166.334 94.2874 166.642 85.4625 170.073 78.9084C174.17 71.064 179.497 63.8906 186.155 58.0589C191.072 53.7755 195.63 49.3889 202.545 50.9371C207.308 52.0208 213.812 58.6266 209.561 63.6325C209.612 63.6325 222.109 32.6164 212.942 27.4557Z" fill="url(#paint36_linear_4321_15395)"/>
<path d="M204.593 24.4625C205.362 24.6689 206.13 24.8753 206.898 25.0818C206.181 24.8237 205.413 24.6173 204.593 24.4625Z" fill="#FFE655"/>
<path d="M225.08 73.0766C225.183 65.7999 226.207 58.42 225.49 51.195C224.773 44.3828 223.39 34.3193 218.012 29.5198C215.093 26.9395 210.893 26.0105 206.95 25.03C220.42 29.6747 213.864 49.9048 207.513 57.9556C194.453 74.3152 154.145 75.0893 150.765 98.9836L152.455 102.39C153.735 102.648 155.016 103.112 156.194 103.68C162.391 100.171 173.556 101.203 179.651 100.79C193.787 99.8093 205.772 94.9582 216.988 85.9785C222.775 81.3854 224.978 80.4565 225.08 73.0766Z" fill="url(#paint37_linear_4321_15395)"/>
<path d="M156.756 87.8878L155.937 87.0105C156.244 86.7008 164.234 79.1661 182.621 72.1475C201.724 64.8708 212.429 57.491 214.324 39.5831C214.938 34.0095 213.658 29.9842 210.483 27.7134C205.105 23.7912 195.886 25.8039 192.505 27.3006C192.147 27.4554 191.788 27.6102 191.327 27.8166C184.311 30.7067 165.668 38.3962 152.915 86.0299L151.737 85.7203C164.643 37.5189 183.696 29.6745 190.866 26.7329C191.276 26.5781 191.686 26.4232 191.993 26.2684C195.578 24.6686 205.412 22.5527 211.2 26.7845C214.682 29.3649 216.168 33.7515 215.502 39.7896C213.504 58.3167 202.544 65.903 183.03 73.3861C164.9 80.2499 156.859 87.8362 156.756 87.8878Z" fill="url(#paint38_linear_4321_15395)"/>
<path d="M210.789 52.5369C209.765 54.6012 208.587 56.459 207.46 57.904C205.258 60.6908 202.287 63.0132 198.856 65.0259C202.339 67.1934 205.77 69.4125 209.253 71.3736C214.067 74.0572 218.882 76.9988 223.542 79.9921C224.567 78.3406 225.028 76.3279 225.079 73.025C225.13 68.6384 225.54 64.2518 225.694 59.8651C221.494 57.904 211.609 52.9497 210.789 52.5369Z" fill="url(#paint39_linear_4321_15395)"/>
<path d="M142.056 92.8937C135.346 90.0553 129.661 83.0367 122.849 79.2177C116.038 75.3471 108.918 72.0959 102.824 67.0383C94.6289 60.2261 84.5392 51.4529 92.4778 40.3572C87.5098 40.0476 66.767 51.9689 69.5327 53.9816L68.0986 67.5028C71.3253 71.7346 72.5033 75.9664 77.3177 79.4757C83.6173 84.0172 91.5047 86.9072 98.9824 88.5587C113.374 91.8099 129.2 94.5967 142.363 98.8802C141.595 96.8159 141.492 94.8548 142.056 92.8937Z" fill="url(#paint40_linear_4321_15395)"/>
<path d="M137.6 62.0326C132.581 45.8794 123.208 29.4683 107.639 21.3143C102.005 18.3726 93.093 13.986 87.8689 17.0309C81.1082 20.953 75.8329 30.1392 71.6331 36.5385C66.6651 44.0216 61.7995 49.8532 64.053 59.1942C65.231 64.2001 68.2528 70.4446 71.5307 74.0572C70.4551 68.1223 69.0211 61.0521 73.1696 55.9945C77.8304 50.3177 88.8932 48.9243 95.7563 50.1113C107.126 52.0724 116.653 63.7873 123.362 72.3541C126.64 76.4827 138.676 97.2805 141.288 97.487L145.232 95.8355C145.129 95.4227 145.027 95.0614 144.924 94.6485C141.647 84.3787 140.981 72.767 137.6 62.0326Z" fill="url(#paint41_linear_4321_15395)"/>
<path d="M107.638 21.3143C107.638 21.2627 107.638 21.2627 107.638 21.3143C105.948 27.8685 101.544 48.1502 100.775 51.6596C106.153 53.9819 111.019 58.2137 115.321 62.7552C118.701 54.8076 122.952 47.2729 127.357 39.8414C122.338 32.2035 115.884 25.5978 107.638 21.3143Z" fill="url(#paint42_linear_4321_15395)"/>
<path d="M136.882 97.2289C136.78 97.2289 123.771 95.2162 95.1916 88.0427C83.2068 85.0495 75.3194 80.3532 71.683 74.1603C69.0198 69.5673 69.7368 65.7999 69.8904 65.1806C69.9417 50.008 86.2286 48.9759 87.3042 48.9242C97.8548 46.9116 109.737 54.1882 122.695 70.5478C132.273 82.6756 138.265 94.4937 138.316 94.5969L137.702 95.6807C137.445 95.1646 111.632 45.4149 87.4578 50.1112H87.3554C86.6896 50.1112 71.0684 50.6789 71.0684 65.2322V65.387C71.0684 65.4387 70.1465 69.1028 72.7586 73.541C75.1146 77.5664 81.0045 83.14 95.4989 86.8042C124.027 93.9776 137.138 96.2483 137.292 96.2483L136.882 97.2289Z" fill="url(#paint43_linear_4321_15395)"/>
<path d="M97.1391 105.022C92.5295 110.699 91.3003 113.64 96.422 117.872C100.161 120.968 104.873 123.033 108.612 125.974C110.199 106.828 129.508 93.3584 145.897 101.358L144.105 94.0809C129.201 89.333 107.639 92.1198 97.1391 105.022Z" fill="url(#paint44_linear_4321_15395)"/>
<path d="M109.226 126.388L108.048 125.304C108.099 125.046 112.248 99.2937 135.961 98.3647L136.012 99.5517C113.323 100.429 109.277 126.13 109.226 126.388Z" fill="url(#paint45_linear_4321_15395)"/>
<path d="M154.963 94.1325L151.941 103.835C154.399 100.222 168.125 103.164 172.53 103.835C180.878 105.073 191.173 108.737 194.656 116.943C196.653 111.679 195.373 103.37 200.034 98.932C191.941 85.2044 166.896 88.1461 154.963 94.1325Z" fill="url(#paint46_linear_4321_15395)"/>
<path d="M194.092 117.15C188.867 104.351 163.771 103.009 163.515 103.009L163.566 101.822C164.642 101.874 189.687 103.267 195.167 116.737L194.092 117.15Z" fill="url(#paint47_linear_4321_15395)"/>
<path d="M141.595 81.7467C142.568 88.1976 135.757 99.5513 134.988 99.7577C137.703 107.705 149.534 105.435 156.448 104.918C162.184 104.506 163.055 104.609 164.387 99.6029C165.411 95.7839 165.309 93.8229 165.974 90.0039C157.37 83.553 148.817 87.6816 141.595 81.7467Z" fill="url(#paint48_linear_4321_15395)"/>
<path d="M165.41 93.8743C165.512 92.9454 165.666 91.9648 165.82 90.8811C163.771 90.2102 147.33 87.4234 141.082 87.2686C140.621 89.0232 139.955 90.8295 139.187 92.5325C147.945 92.5325 156.754 92.7906 165.41 93.8743Z" fill="url(#paint49_linear_4321_15395)"/>
<path d="M211.455 141.25V129.587C204.9 133.096 198.19 136.347 191.481 139.547C190.917 139.805 190.969 159.674 191.583 159.158C197.78 153.533 209.868 142.644 211.455 141.25Z" fill="url(#paint50_linear_4321_15395)"/>
<defs>
<filter id="filter0_f_4321_15395" x="5" y="182" width="291" height="111" filterUnits="userSpaceOnUse" color-interpolation-filters="sRGB">
<feFlood flood-opacity="0" result="BackgroundImageFix"/>
<feBlend mode="normal" in="SourceGraphic" in2="BackgroundImageFix" result="shape"/>
<feGaussianBlur stdDeviation="10" result="effect1_foregroundBlur_4321_15395"/>
</filter>
<linearGradient id="paint0_linear_4321_15395" x1="52.5346" y1="112.125" x2="139.875" y2="222.28" gradientUnits="userSpaceOnUse">
<stop stop-color="#CE2E5E"/>
<stop offset="0.9949" stop-color="#AA1F49"/>
</linearGradient>
<linearGradient id="paint1_linear_4321_15395" x1="198.195" y1="124.968" x2="199.109" y2="234.167" gradientUnits="userSpaceOnUse">
<stop stop-color="#CE2E5E"/>
<stop offset="0.9949" stop-color="#AA1F49"/>
</linearGradient>
<linearGradient id="paint2_linear_4321_15395" x1="199.807" y1="223.393" x2="222.404" y2="209.065" gradientUnits="userSpaceOnUse">
<stop stop-color="#CE2E5E"/>
<stop offset="0.9949" stop-color="#AA1F49"/>
</linearGradient>
<linearGradient id="paint3_linear_4321_15395" x1="180.312" y1="172.339" x2="255.334" y2="143.933" gradientUnits="userSpaceOnUse">
<stop stop-color="white" stop-opacity="0.2"/>
<stop offset="1" stop-color="white" stop-opacity="0"/>
</linearGradient>
<linearGradient id="paint4_linear_4321_15395" x1="197.565" y1="190.899" x2="228.073" y2="196.557" gradientUnits="userSpaceOnUse">
<stop stop-color="#CE2E5E"/>
<stop offset="0.9949" stop-color="#AA1F49"/>
</linearGradient>
<linearGradient id="paint5_linear_4321_15395" x1="183.959" y1="149.88" x2="180.91" y2="221.894" gradientUnits="userSpaceOnUse">
<stop offset="0.00510204" stop-color="#FF4A80"/>
<stop offset="1" stop-color="#E24775"/>
</linearGradient>
<linearGradient id="paint6_linear_4321_15395" x1="157.985" y1="165.938" x2="189.005" y2="165.938" gradientUnits="userSpaceOnUse">
<stop stop-color="#CE2E5E"/>
<stop offset="0.9949" stop-color="#AA1F49"/>
</linearGradient>
<linearGradient id="paint7_linear_4321_15395" x1="89.7434" y1="138.512" x2="58.723" y2="138.512" gradientUnits="userSpaceOnUse">
<stop stop-color="#CE2E5E"/>
<stop offset="0.9949" stop-color="#AA1F49"/>
</linearGradient>
<linearGradient id="paint8_linear_4321_15395" x1="185.337" y1="195.529" x2="202.227" y2="185.97" gradientUnits="userSpaceOnUse">
<stop stop-color="#CE2E5E"/>
<stop offset="0.9949" stop-color="#AA1F49"/>
</linearGradient>
<linearGradient id="paint9_linear_4321_15395" x1="84.0979" y1="213.814" x2="64.1236" y2="202.509" gradientUnits="userSpaceOnUse">
<stop stop-color="#CE2E5E"/>
<stop offset="0.9949" stop-color="#AA1F49"/>
</linearGradient>
<linearGradient id="paint10_linear_4321_15395" x1="135.959" y1="187.695" x2="124.631" y2="171.496" gradientUnits="userSpaceOnUse">
<stop stop-color="#CE2E5E"/>
<stop offset="0.9949" stop-color="#AA1F49"/>
</linearGradient>
<linearGradient id="paint11_linear_4321_15395" x1="140.662" y1="219.863" x2="120.688" y2="208.559" gradientUnits="userSpaceOnUse">
<stop stop-color="#CE2E5E"/>
<stop offset="0.9949" stop-color="#AA1F49"/>
</linearGradient>
<linearGradient id="paint12_linear_4321_15395" x1="133.117" y1="157.954" x2="103.49" y2="141.187" gradientUnits="userSpaceOnUse">
<stop stop-color="#CE2E5E"/>
<stop offset="0.9949" stop-color="#AA1F49"/>
</linearGradient>
<linearGradient id="paint13_linear_4321_15395" x1="112.513" y1="186.826" x2="81.7455" y2="180.506" gradientUnits="userSpaceOnUse">
<stop stop-color="#CE2E5E"/>
<stop offset="0.9949" stop-color="#AA1F49"/>
</linearGradient>
<linearGradient id="paint14_linear_4321_15395" x1="203.717" y1="167.072" x2="220.608" y2="157.513" gradientUnits="userSpaceOnUse">
<stop stop-color="#CE2E5E"/>
<stop offset="0.9949" stop-color="#AA1F49"/>
</linearGradient>
<linearGradient id="paint15_linear_4321_15395" x1="184.863" y1="136.419" x2="201.753" y2="126.86" gradientUnits="userSpaceOnUse">
<stop stop-color="#CE2E5E"/>
<stop offset="0.9949" stop-color="#AA1F49"/>
</linearGradient>
<linearGradient id="paint16_linear_4321_15395" x1="178.185" y1="157.71" x2="178.49" y2="192.496" gradientUnits="userSpaceOnUse">
<stop stop-color="white" stop-opacity="0.2"/>
<stop offset="1" stop-color="white" stop-opacity="0"/>
</linearGradient>
<linearGradient id="paint17_linear_4321_15395" x1="149.632" y1="200.855" x2="166.409" y2="200.855" gradientUnits="userSpaceOnUse">
<stop stop-color="#CE2E5E"/>
<stop offset="0.9949" stop-color="#AA1F49"/>
</linearGradient>
<linearGradient id="paint18_linear_4321_15395" x1="162.399" y1="221.894" x2="192.897" y2="221.894" gradientUnits="userSpaceOnUse">
<stop stop-color="#CE2E5E"/>
<stop offset="0.9949" stop-color="#AA1F49"/>
</linearGradient>
<linearGradient id="paint19_linear_4321_15395" x1="121.054" y1="140.477" x2="226.366" y2="133.907" gradientUnits="userSpaceOnUse">
<stop offset="0.0969388" stop-color="white" stop-opacity="0.3964"/>
<stop offset="0.3367" stop-color="white" stop-opacity="0.6"/>
<stop offset="1" stop-color="white" stop-opacity="0.1"/>
</linearGradient>
<linearGradient id="paint20_linear_4321_15395" x1="217.648" y1="172.386" x2="199.999" y2="217.683" gradientUnits="userSpaceOnUse">
<stop offset="0.0969388" stop-color="white" stop-opacity="0.1"/>
<stop offset="0.5102" stop-color="white" stop-opacity="0.4"/>
<stop offset="0.9949" stop-color="white" stop-opacity="0.1"/>
</linearGradient>
<linearGradient id="paint21_linear_4321_15395" x1="176.454" y1="235.378" x2="195.89" y2="235.378" gradientUnits="userSpaceOnUse">
<stop stop-color="#CE2E5E"/>
<stop offset="0.9949" stop-color="#AA1F49"/>
</linearGradient>
<linearGradient id="paint22_linear_4321_15395" x1="222.122" y1="139.317" x2="244.371" y2="139.317" gradientUnits="userSpaceOnUse">
<stop stop-color="#CE2E5E"/>
<stop offset="0.9949" stop-color="#AA1F49"/>
</linearGradient>
<linearGradient id="paint23_linear_4321_15395" x1="233.391" y1="176.247" x2="244.019" y2="176.247" gradientUnits="userSpaceOnUse">
<stop stop-color="#CE2E5E"/>
<stop offset="0.9949" stop-color="#AA1F49"/>
</linearGradient>
<linearGradient id="paint24_linear_4321_15395" x1="229.882" y1="217.156" x2="243.532" y2="217.156" gradientUnits="userSpaceOnUse">
<stop stop-color="#CE2E5E"/>
<stop offset="0.9949" stop-color="#AA1F49"/>
</linearGradient>
<linearGradient id="paint25_linear_4321_15395" x1="53.5136" y1="175.214" x2="70.4861" y2="175.214" gradientUnits="userSpaceOnUse">
<stop stop-color="#CE2E5E"/>
<stop offset="0.9949" stop-color="#AA1F49"/>
</linearGradient>
<linearGradient id="paint26_linear_4321_15395" x1="92.4209" y1="232.785" x2="112.684" y2="232.785" gradientUnits="userSpaceOnUse">
<stop stop-color="#CE2E5E"/>
<stop offset="0.9949" stop-color="#AA1F49"/>
</linearGradient>
<linearGradient id="paint27_linear_4321_15395" x1="143.115" y1="197.089" x2="150.127" y2="197.089" gradientUnits="userSpaceOnUse">
<stop stop-color="#CE2E5E"/>
<stop offset="0.9949" stop-color="#AA1F49"/>
</linearGradient>
<linearGradient id="paint28_linear_4321_15395" x1="153.536" y1="210.118" x2="150.722" y2="268.355" gradientUnits="userSpaceOnUse">
<stop offset="0.0969388" stop-color="white" stop-opacity="0.3964"/>
<stop offset="0.3367" stop-color="white" stop-opacity="0.6"/>
<stop offset="1" stop-color="white" stop-opacity="0.1"/>
</linearGradient>
<linearGradient id="paint29_linear_4321_15395" x1="76.6629" y1="109.709" x2="130.704" y2="105.14" gradientUnits="userSpaceOnUse">
<stop stop-color="#CE2E5E"/>
<stop offset="0.9949" stop-color="#AA1F49"/>
</linearGradient>
<linearGradient id="paint30_linear_4321_15395" x1="129.618" y1="118.986" x2="183.659" y2="114.416" gradientUnits="userSpaceOnUse">
<stop stop-color="#CE2E5E"/>
<stop offset="0.9949" stop-color="#AA1F49"/>
</linearGradient>
<linearGradient id="paint31_linear_4321_15395" x1="121.33" y1="98.4228" x2="161.412" y2="95.0334" gradientUnits="userSpaceOnUse">
<stop stop-color="#CE2E5E"/>
<stop offset="0.9949" stop-color="#AA1F49"/>
</linearGradient>
<linearGradient id="paint32_linear_4321_15395" x1="178.295" y1="108.506" x2="218.376" y2="105.117" gradientUnits="userSpaceOnUse">
<stop stop-color="#CE2E5E"/>
<stop offset="0.9949" stop-color="#AA1F49"/>
</linearGradient>
<linearGradient id="paint33_linear_4321_15395" x1="170.785" y1="96.4828" x2="197.62" y2="94.2136" gradientUnits="userSpaceOnUse">
<stop stop-color="#CE2E5E"/>
<stop offset="0.9949" stop-color="#AA1F49"/>
</linearGradient>
<linearGradient id="paint34_linear_4321_15395" x1="148.059" y1="92.8321" x2="111.398" y2="241.467" gradientUnits="userSpaceOnUse">
<stop offset="0.0561224" stop-color="#B42F1B"/>
<stop offset="0.1582" stop-color="#F17600"/>
<stop offset="0.2653" stop-color="#FFC82A"/>
<stop offset="0.3078" stop-color="#FABD29"/>
<stop offset="0.5397" stop-color="#E18821"/>
<stop offset="0.7407" stop-color="#CE611C"/>
<stop offset="0.9008" stop-color="#C34A18"/>
<stop offset="1" stop-color="#BF4117"/>
</linearGradient>
<linearGradient id="paint35_linear_4321_15395" x1="147.586" y1="92.9938" x2="184.843" y2="244.043" gradientUnits="userSpaceOnUse">
<stop offset="0.0561224" stop-color="#B42F1B"/>
<stop offset="0.1582" stop-color="#F17600"/>
<stop offset="0.2857" stop-color="#FFE655"/>
<stop offset="0.602" stop-color="#FFAA00"/>
<stop offset="1" stop-color="#CC5712"/>
</linearGradient>
<linearGradient id="paint36_linear_4321_15395" x1="151.549" y1="82.8943" x2="224.509" y2="25.6883" gradientUnits="userSpaceOnUse">
<stop offset="0.0561224" stop-color="#B42F1B"/>
<stop offset="0.3265" stop-color="#F17600"/>
<stop offset="0.648" stop-color="#F1AB26"/>
<stop offset="0.7376" stop-color="#E08821"/>
<stop offset="0.8517" stop-color="#CE611C"/>
<stop offset="0.9433" stop-color="#C34A18"/>
<stop offset="1" stop-color="#BF4117"/>
</linearGradient>
<linearGradient id="paint37_linear_4321_15395" x1="154.689" y1="89.5214" x2="233.334" y2="44.1875" gradientUnits="userSpaceOnUse">
<stop offset="0.199" stop-color="#E96640"/>
<stop offset="0.5102" stop-color="#FFC82A"/>
<stop offset="0.5182" stop-color="#FFC92C"/>
<stop offset="0.6545" stop-color="#FFDE4A"/>
<stop offset="0.7317" stop-color="#FFE655"/>
<stop offset="0.8517" stop-color="#F3BF3F"/>
<stop offset="0.9801" stop-color="#D36A1E"/>
</linearGradient>
<linearGradient id="paint38_linear_4321_15395" x1="151.761" y1="56.0735" x2="215.672" y2="56.0735" gradientUnits="userSpaceOnUse">
<stop stop-color="#F17600"/>
<stop offset="0.3827" stop-color="#FFC82A"/>
<stop offset="0.3954" stop-color="#FFC92C"/>
<stop offset="0.612" stop-color="#FFDE4A"/>
<stop offset="0.7347" stop-color="#FFE655"/>
<stop offset="1" stop-color="#FFD394"/>
</linearGradient>
<linearGradient id="paint39_linear_4321_15395" x1="160.421" y1="99.5147" x2="239.113" y2="54.1538" gradientUnits="userSpaceOnUse">
<stop offset="0.0969388" stop-color="white" stop-opacity="0.3964"/>
<stop offset="0.3367" stop-color="white" stop-opacity="0.6"/>
<stop offset="1" stop-color="white" stop-opacity="0.1"/>
</linearGradient>
<linearGradient id="paint40_linear_4321_15395" x1="75.5949" y1="53.093" x2="137.654" y2="97.8855" gradientUnits="userSpaceOnUse">
<stop offset="0.0561224" stop-color="#B42F1B"/>
<stop offset="0.3265" stop-color="#F17600"/>
<stop offset="0.648" stop-color="#F1AB26"/>
<stop offset="0.7376" stop-color="#E08821"/>
<stop offset="0.8517" stop-color="#CE611C"/>
<stop offset="0.9433" stop-color="#C34A18"/>
<stop offset="1" stop-color="#BF4117"/>
</linearGradient>
<linearGradient id="paint41_linear_4321_15395" x1="50.0638" y1="21.3823" x2="149.873" y2="86.386" gradientUnits="userSpaceOnUse">
<stop offset="0.1224" stop-color="#F8A116"/>
<stop offset="0.2755" stop-color="#D56F1F"/>
<stop offset="0.4206" stop-color="#EEA526"/>
<stop offset="0.5102" stop-color="#FFC82A"/>
<stop offset="0.5182" stop-color="#FFC92C"/>
<stop offset="0.6545" stop-color="#FFDE4A"/>
<stop offset="0.7317" stop-color="#FFE655"/>
<stop offset="0.8517" stop-color="#F3BF3F"/>
<stop offset="1" stop-color="#D36A1E"/>
</linearGradient>
<linearGradient id="paint42_linear_4321_15395" x1="59.297" y1="7.37206" x2="159.001" y2="72.3074" gradientUnits="userSpaceOnUse">
<stop offset="0.0969388" stop-color="white" stop-opacity="0.3964"/>
<stop offset="0.3367" stop-color="white" stop-opacity="0.6"/>
<stop offset="1" stop-color="white" stop-opacity="0.1"/>
</linearGradient>
<linearGradient id="paint43_linear_4321_15395" x1="69.7079" y1="72.9287" x2="138.3" y2="72.9287" gradientUnits="userSpaceOnUse">
<stop stop-color="#F17600"/>
<stop offset="0.3827" stop-color="#FFC82A"/>
<stop offset="0.3954" stop-color="#FFC92C"/>
<stop offset="0.612" stop-color="#FFDE4A"/>
<stop offset="0.7347" stop-color="#FFE655"/>
<stop offset="1" stop-color="#FFD394"/>
</linearGradient>
<linearGradient id="paint44_linear_4321_15395" x1="138.575" y1="90.6924" x2="93.2477" y2="121.582" gradientUnits="userSpaceOnUse">
<stop offset="0.0561224" stop-color="#B42F1B"/>
<stop offset="0.3469" stop-color="#F17600"/>
<stop offset="0.7143" stop-color="#FFC82A"/>
<stop offset="0.7245" stop-color="#FFC92C"/>
<stop offset="0.8971" stop-color="#FFDE4A"/>
<stop offset="0.9949" stop-color="#FFE655"/>
</linearGradient>
<linearGradient id="paint45_linear_4321_15395" x1="136.93" y1="99.7607" x2="105.344" y2="121.286" gradientUnits="userSpaceOnUse">
<stop stop-color="#F17600"/>
<stop offset="0.3827" stop-color="#FFC82A"/>
<stop offset="0.3954" stop-color="#FFC92C"/>
<stop offset="0.612" stop-color="#FFDE4A"/>
<stop offset="0.7347" stop-color="#FFE655"/>
<stop offset="1" stop-color="#FFD394"/>
</linearGradient>
<linearGradient id="paint46_linear_4321_15395" x1="151.94" y1="103.02" x2="200.021" y2="103.02" gradientUnits="userSpaceOnUse">
<stop offset="0.0561224" stop-color="#B42F1B"/>
<stop offset="0.3469" stop-color="#F17600"/>
<stop offset="0.7143" stop-color="#FFC82A"/>
<stop offset="0.7245" stop-color="#FFC92C"/>
<stop offset="0.8971" stop-color="#FFDE4A"/>
<stop offset="0.9949" stop-color="#FFE655"/>
</linearGradient>
<linearGradient id="paint47_linear_4321_15395" x1="163.544" y1="109.468" x2="195.218" y2="109.468" gradientUnits="userSpaceOnUse">
<stop stop-color="#F17600"/>
<stop offset="0.3827" stop-color="#FFC82A"/>
<stop offset="0.3954" stop-color="#FFC92C"/>
<stop offset="0.612" stop-color="#FFDE4A"/>
<stop offset="0.7347" stop-color="#FFE655"/>
<stop offset="1" stop-color="#FFD394"/>
</linearGradient>
<linearGradient id="paint48_linear_4321_15395" x1="145.822" y1="114.81" x2="155.16" y2="78.9484" gradientUnits="userSpaceOnUse">
<stop stop-color="#F89D14"/>
<stop offset="0.0365837" stop-color="#E78117"/>
<stop offset="0.0853153" stop-color="#D46219"/>
<stop offset="0.1329" stop-color="#C64C1B"/>
<stop offset="0.1784" stop-color="#BE3F1D"/>
<stop offset="0.2194" stop-color="#BB3A1D"/>
<stop offset="0.263" stop-color="#C0401B"/>
<stop offset="0.322" stop-color="#CD5116"/>
<stop offset="0.3894" stop-color="#E36D0E"/>
<stop offset="0.4337" stop-color="#F48408"/>
<stop offset="0.6531" stop-color="#FFC82A"/>
<stop offset="0.6654" stop-color="#FFC92C"/>
<stop offset="0.8758" stop-color="#FFDE4A"/>
<stop offset="0.9949" stop-color="#FFE655"/>
</linearGradient>
<linearGradient id="paint49_linear_4321_15395" x1="153.216" y1="87.8097" x2="149.719" y2="108.633" gradientUnits="userSpaceOnUse">
<stop offset="0.0969388" stop-color="white" stop-opacity="0.3964"/>
<stop offset="0.3367" stop-color="white" stop-opacity="0.6"/>
<stop offset="1" stop-color="white" stop-opacity="0.1"/>
</linearGradient>
<linearGradient id="paint50_linear_4321_15395" x1="187.157" y1="85.4629" x2="222.86" y2="230.214" gradientUnits="userSpaceOnUse">
<stop offset="0.0969388" stop-color="white" stop-opacity="0.3964"/>
<stop offset="0.3367" stop-color="white" stop-opacity="0.6"/>
<stop offset="1" stop-color="white" stop-opacity="0.1"/>
</linearGradient>
</defs>
</svg>
