<svg width="42" height="48" viewBox="0 0 42 48" fill="none" xmlns="http://www.w3.org/2000/svg">
<path d="M1.92076 44.6515C1.09346 44.6947 0.457844 45.4004 0.50107 46.2277C0.544296 47.055 1.25 47.6906 2.0773 47.6474L1.92076 44.6515ZM34.0867 1.17435C33.6308 0.482662 32.7005 0.291529 32.0088 0.747444L20.7371 8.17701C20.0454 8.63292 19.8543 9.56324 20.3102 10.2549C20.7661 10.9466 21.6964 11.1377 22.3881 10.6818L32.4074 4.07778L39.0115 14.0971C39.4674 14.7888 40.3977 14.9799 41.0894 14.524C41.7811 14.0681 41.9722 13.1378 41.5163 12.4461L34.0867 1.17435ZM2.0773 47.6474C8.09489 47.333 13.1115 44.1553 17.1941 39.7908C21.2718 35.4316 24.519 29.7863 27.0322 24.265C29.5511 18.7313 31.3663 13.2469 32.551 9.15361C33.1441 7.10462 33.5808 5.39857 33.8698 4.20193C34.0143 3.6035 34.122 3.13211 34.194 2.80856C34.2299 2.64677 34.257 2.52192 34.2752 2.43659C34.2843 2.39392 34.2912 2.36114 34.296 2.33855C34.2983 2.32726 34.3001 2.31852 34.3014 2.31237C34.3021 2.30929 34.3026 2.30686 34.3029 2.30509C34.3031 2.3042 34.3033 2.30336 34.3034 2.30292C34.3035 2.30224 34.3036 2.30173 32.8343 1.99986C31.365 1.69799 31.365 1.6978 31.365 1.69778C31.365 1.69799 31.365 1.69813 31.3649 1.69855C31.3647 1.69939 31.3644 1.70088 31.364 1.70301C31.3631 1.70728 31.3616 1.71412 31.3597 1.7235C31.3557 1.74226 31.3497 1.77117 31.3414 1.8099C31.3248 1.88736 31.2996 2.0041 31.2655 2.15754C31.1972 2.46443 31.0937 2.918 30.9537 3.49759C30.6736 4.65701 30.2482 6.31931 29.6693 8.31954C28.5101 12.3247 26.7416 17.6621 24.3018 23.0221C21.8564 28.3945 18.7698 33.7148 15.0033 37.7414C11.2417 41.7627 6.90365 44.3911 1.92076 44.6515L2.0773 47.6474Z" fill="#FF3131"/>
</svg>
