<svg width="144" height="200" fill="none" xmlns="http://www.w3.org/2000/svg"><path fill="#fff" d="M0 0h144v200H0z"/><path d="M136 184.127c0 4.279-3.514 7.873-7.697 7.873H15.697C11.514 192 8 188.406 8 184.127V15.873C8 11.595 11.514 8 15.697 8h112.606c4.183 0 7.697 3.594 7.697 7.873v168.254z" fill="#EB3E4E"/><path d="M140 187.784c0 4.465-3.733 8.216-8.178 8.216H12.178C7.733 196 4 192.249 4 187.784V12.216C4 7.75 7.733 4 12.178 4h119.644C136.267 4 140 7.75 140 12.216v175.568z" fill="#F04051"/><circle opacity=".7" cx="16.5" cy="16.5" r="3.5" fill="#F3F4F5"/><circle opacity=".7" cx="127.5" cy="16.5" r="3.5" fill="#F3F4F5"/><circle opacity=".7" cx="16.5" cy="182.5" r="3.5" fill="#F3F4F5"/><circle opacity=".7" cx="127.5" cy="182.5" r="3.5" fill="#F3F4F5"/><path fill-rule="evenodd" clip-rule="evenodd" d="M66.31 135.045c.303 0 .604-.102.848-.3l1.608-1.304c10.438-8.464 17.42-8.99 22.04-9.338 3.215-.242 6.532-.491 7.93-4.242 2.555-.561 5.527-2.513 7.178-6.559 1.341-.942 3.825-3.093 4.882-6.651l.149-.5a1.348 1.348 0 00-.265-1.253l-.338-.397c-1.346-1.583-4.471-3.113-6.642-4.044-.089-1.209-.293-2.87-.762-4.442.681-.84 1.669-2.207 2.726-4.168l.289-.537a1.344 1.344 0 00-.101-1.433l-.361-.491c-3.827-5.202-8.492-9.265-13.868-12.078-1.615-2.421-4.994-6.728-10.544-10.412l-.46-.305a1.343 1.343 0 00-1.332-.09l-.495.242c-2.733 1.328-5.147 3.88-6.804 5.97-.103 0-.205 0-.308.002-2.3-2.247-6.599-5.859-11.949-7.639l-3.028-1.007a1.34 1.34 0 00-1.367.316l-.42.412c-.235.23-5.611 5.59-5.918 13.773-2.96 1.88-10.15 6.91-13.416 13.236l-.744 1.442a1.344 1.344 0 001.195 1.96l1.689-.037a11.265 11.265 0 00-2.53 2.61l-.875 1.257a1.345 1.345 0 00.89 2.095l1.51.245c14.184 2.294 19.989 18.57 23.108 27.314l.496 1.392a1.346 1.346 0 002.191.525l1.074-1.014c.385-.364.748-.81 1.087-1.335.24 1.355.344 2.536.33 3.348l-.037 2.068a1.344 1.344 0 001.345 1.369z" fill="#FFFFFE"/><path fill-rule="evenodd" clip-rule="evenodd" d="M42.36 95.39s-2.94-2.578-5.499-2.52c3.83-7.425 13.92-13.25 13.92-13.25-.268-8.19 5.327-13.68 5.327-13.68l2.515.836c5.367 1.788 9.614 5.52 11.89 7.862.09.02.18.043.267.06.627-.017 1.257-.02 1.89-.012h.056l.277.004c1.224-1.66 3.872-4.905 6.803-6.332 5.761 3.829 9.071 8.357 10.409 10.463 5.043 2.536 9.8 6.375 13.859 11.897-1.847 3.43-3.396 4.841-3.396 4.841 1.193 2.674 1.181 6.656 1.181 6.656s5.689 2.193 7.258 4.039c-1.182 3.983-4.646 5.895-4.646 5.895-1.594 4.656-5.077 6.176-7.229 6.062-1.531 8.599-10.4-1.841-30.157 14.194.048-2.674-.887-7.519-2.562-10.902-.38 2.014-1.241 5.581-2.847 7.099-3.494-9.804-9.82-26.857-25.372-29.376 2.38-3.42 6.055-3.837 6.055-3.837z" fill="url(#paint0_linear)"/><path fill-rule="evenodd" clip-rule="evenodd" d="M81.873 100.826s-3.19-3.924-9.208-4.974c-3.384-.206-5.076.465-5.076.465s-3.439 4.281-3.033 9.25c.57-1.074 1.755-1.948 1.755-1.948s-2.258 10.77 3.391 15.322c9.785 1.132 16.347-1.049 16.347-1.049s-1.098-1.233-2.262-1.301c2.714-1.43 7.457 1.077 8.16 2.091.686-.869.811-3.476.811-3.476s6.198 2.926 8.239-4.736c1.559-1.221 2.591-3.252 2.591-3.252s-3.12-3.539-7.97-4.466c-1.47.663-2.097 3.179-2.097 3.179s-3.096-7.084-9.854-10.321c-1.127.817-2.284.97-2.284.97s1.016 2.012.49 4.246z" fill="#FFFFFE"/><path fill-rule="evenodd" clip-rule="evenodd" d="M65.885 109.454c.407 1.401 1.03 3.01 1.885 3.748-.105-2.833 1.019-5.482 1.019-5.482 1.01 8.213 4.923 9.418 12.099 7.671 5.649-1.291 9.508 1.795 10.68 2.908-1.35-1.135-5.365-2.98-7.781-1.707 1.164.067 2.262 1.3 2.262 1.3s-6.562 2.182-16.347 1.05c-2.859-2.304-3.691-6.2-3.817-9.488z" fill="#94958D"/><path fill-rule="evenodd" clip-rule="evenodd" d="M71.14 97.993c5.19-1.35 8.167 1.49 15.09 9.391 3.89 4.438 6.148 6.877 9.632 8.351-1.696.134-3.105-.529-3.105-.529s-.01.188-.035.476c-2.923-1.52-6.062-3.635-6.062-3.635l-15.105-2.85s-5.477-9.889-.415-11.204z" fill="#94958D"/><path fill-rule="evenodd" clip-rule="evenodd" d="M94.813 110.358c-1.105-2.064.437-4.519.437-4.519s.45 2.879 1.271 2.204c.508-.416 3.407.569 5.555 1.384a7.85 7.85 0 01-1.08 1.043c-.053.199-.111.387-.169.572-2.47.339-5.398.467-6.014-.684z" fill="#5B5B57"/><path fill-rule="evenodd" clip-rule="evenodd" d="M96.914 94.453s-1.825.068-3.624 2.295c.752.858 1.44 1.497 1.44 1.497s1.666-1.336 2.184-3.792zM80.28 93.572s-2.02.665-3.703.591c-1.691-1.527-2.951-4.887-2.951-4.887s4.016 1.76 6.653 4.296z" fill="#FFFFFE"/><path fill-rule="evenodd" clip-rule="evenodd" d="M75.526 99.373c6.001.893 11.04 12.452 17.231 15.833 0 0-.037.759-.178 1.594-2.025-.568-4.187-2.859-4.187-2.859s-3.532-1.033-8.56-.507c-5.027.526-7.77-.158-9.319-5.294-1.55-5.136-.99-9.661 5.013-8.767z" fill="#2D3137"/><path fill-rule="evenodd" clip-rule="evenodd" d="M86.661 112.047c-4-3.677-7.584-10.518-12.03-10.353-4.174.155-2.92 6.434-.726 9.074 2.195 2.641 7.022-.255 12.756 1.279z" fill="#FFFFFE"/><path fill-rule="evenodd" clip-rule="evenodd" d="M74.197 105.608c.132-2.045 1.173-2.843 1.173-2.843s1.028 4.42 3.65 6.154c-2.494-1.082-3.547-2.46-3.547-2.46s-.437 1.26.085 2.313c-1.432-.272-2.87-1.965-3.636-3.248-.126-1.424.096-2.754.834-3.57.044 1.805 1.022 3.029 1.441 3.654zM80.888 115.391c-6.178.516-10.04.659-12.1-7.671-.23 5.432 2.724 9.262 3.576 10.053 4.765.083 8.523-2.382 8.523-2.382zM100.997 110.47a10.619 10.619 0 01-.808 2.144c-3.684.794-5.376-2.256-5.376-2.256s1.392 1.38 2.71.465c1.316-.915.323-2.425-.686-1.882 1.78.667-1.15 2.377-1.901.07-.5-1.536.314-3.172.314-3.172s2.775.113 5.754 2.264c1.509-.176 2.584-.885 2.584-.885s-1.032 2.032-2.591 3.252z" fill="#2D3137"/><path fill-rule="evenodd" clip-rule="evenodd" d="M100.996 110.47c.273-.213.529-.452.767-.7-.015.58-.19 1.492-1.088 1.718a11.9 11.9 0 00.321-1.018zM51.438 97.303c-3.73-3.91-7.814-4.87-7.814-4.87s4.82-8.673 16.347-12.69c-1.892-.567-4.169-.392-4.169-.392s.01-6.262 1.624-9.553c5.764 1.869 10.208 6.38 11.718 8.064a39.32 39.32 0 011.56-.092c19.34-.718 27.5 13.577 27.5 13.577s-2.935.279-4.907 2.734c.225-2.47-.703-3.944-.703-3.944s-.49 1.766-1.018 2.5c-.975-2.743-2.93-4.1-2.93-4.1s-.822 1.38-2.672 2.879c-.306-1.815-2.093-2.94-2.093-2.94s.311 1.973-.81 3.841c-4.686-4.352-13.477-8.074-13.477-8.074s-4.595.25-7.207 4.714c2.912-.664 4.75-.335 4.75-.335s2.926 1.638 3.78 3.353c-5.46-1.544-9.872-.666-9.872-.666s-6.778 4.063-7.265 12.021c-3.444-3.286-9.49-5.761-9.49-5.761s4.279-.953 7.148-.266z" fill="#5B5B57"/><path fill-rule="evenodd" clip-rule="evenodd" d="M84.762 78.396s-1.683-.74-2.825-1.043c-.838-3.022-2.61-5.057-2.61-5.057s3.604 2.452 5.435 6.1z" fill="#595955"/><path fill-rule="evenodd" clip-rule="evenodd" d="M98.203 91.347s-.88.086-2 .565c-2.092-3.568-9.5-13.572-27.059-14.05a39.32 39.32 0 011.56-.092c19.34-.718 27.5 13.577 27.5 13.577z" fill="#94958D"/><path fill-rule="evenodd" clip-rule="evenodd" d="M91.801 89.444s.818-1.9 2.002-3.356c3.002 2.815 4.4 5.258 4.4 5.258s-2.934.28-4.907 2.735c.226-2.47-.702-3.944-.702-3.944s-.49 1.765-1.018 2.499a9.286 9.286 0 00-1.562-2.762c.18-1.193.528-2.87 1.116-3.553.14 1.684.671 3.123.671 3.123zM51.438 97.303c-.464-5.68 2.693-8.763 2.693-8.763s.097 2.607 1.386 3.917c.892-3.206 4.877-10.985 13.262-12.602 5.736 1.477 11.043 5.81 11.043 5.81s.01-1.766-.408-2.672c4.99 1.784 7.187 5.21 8.043 7.038-.393.422-.877.894-1.483 1.384-.306-1.815-2.094-2.94-2.094-2.94s.312 1.974-.81 3.842c-4.686-4.352-13.476-8.075-13.476-8.075s-4.595.25-7.207 4.715c2.912-.665 4.75-.336 4.75-.336s2.926 1.638 3.78 3.354c-5.46-1.545-9.872-.666-9.872-.666s-6.778 4.063-7.265 12.021c-3.444-3.286-9.49-5.761-9.49-5.761s4.279-.953 7.148-.266z" fill="#FFFFFE"/><path fill-rule="evenodd" clip-rule="evenodd" d="M57.265 78.448s3.502-1.383 7.284-.675c-1.893-4.211-6.5-6.464-6.5-6.464s-.979 1.895-.882 4.517c.43-1.47 1.794-2.814 1.794-2.814s1.23 1.57 1.886 3.485c-1.984.397-3.582 1.95-3.582 1.95z" fill="#2D3137"/><path fill-rule="evenodd" clip-rule="evenodd" d="M57.167 75.826c.43-1.47 1.793-2.813 1.793-2.813s1.23 1.57 1.887 3.484c-1.985.397-3.583 1.95-3.583 1.95s-.257-1.381-.097-2.62z" fill="#FFFFFE"/><path fill-rule="evenodd" clip-rule="evenodd" d="M59.972 79.743c-6.298 3.037-11.815 10.06-13.57 13.797-1.63-.832-2.778-1.107-2.778-1.107s4.82-8.672 16.348-12.69z" fill="#94958D"/><defs><linearGradient id="paint0_linear" x1="72.71" y1="65.939" x2="72.71" y2="132.405" gradientUnits="userSpaceOnUse"><stop stop-color="#3C4149"/><stop offset=".906" stop-color="#1B1E22"/><stop offset="1" stop-color="#2D3137"/><stop offset="1" stop-color="#2D3137"/></linearGradient></defs></svg>