<?xml version="1.0" standalone="no"?>
<!DOCTYPE svg PUBLIC "-//W3C//DTD SVG 1.1//EN" "http://www.w3.org/Graphics/SVG/1.1/DTD/svg11.dtd" >
<svg xmlns="http://www.w3.org/2000/svg" xmlns:xlink="http://www.w3.org/1999/xlink" version="1.1">
<metadata>
Created by FontForge 20190801 at Fri Sep  7 15:43:17 2018
 By Jimmy Wärting
Copyright 2018 Bai Jamjuree (https://github.com/cadsondemak/Bai-Jamjuree)
</metadata>
<defs>
<font id="BaiJamjuree-BoldItalic" horiz-adv-x="0" >
  <font-face 
    font-family="Bai Jamjuree"
    font-weight="700"
    font-style="italic"
    font-stretch="normal"
    units-per-em="1000"
    panose-1="0 0 8 0 0 0 0 0 0 0"
    ascent="800"
    descent="-200"
    x-height="499"
    cap-height="700"
    bbox="-619 -561 1453 1225"
    underline-thickness="50"
    underline-position="-100"
    slope="-10"
    unicode-range="U+000D-FB02"
  />
<missing-glyph horiz-adv-x="491" 
d="M60 712h409v-712h-409v712zM402 66v580h-274v-580h274z" />
    <glyph glyph-name="fi" unicode="fi" horiz-adv-x="594" 
d="M492 0h-136l68 383h-160l-68 -383h-136l68 383h-86l20 116h86l6 33q15 81 74.5 126.5t151.5 45.5h154l-21 -116h-152q-28 0 -46.5 -12.5t-24.5 -45.5l-6 -31h296z" />
    <glyph glyph-name="fl" unicode="fl" horiz-adv-x="649" 
d="M531 148q0 -17 9.5 -24.5t29.5 -7.5h53l-20 -116h-64q-72 0 -110 25t-38 86q0 22 4 43l40 229h-171l-68 -383h-136l68 383h-86l20 116h86l6 33q15 81 74.5 126.5t151.5 45.5h62l-21 -116h-60q-31 0 -48.5 -14t-22.5 -44l-6 -33h171l36 203h136l-95 -538q-1 -5 -1 -14z
" />
    <glyph glyph-name="uni0E240E45" unicode="&#xe24;&#xe45;" horiz-adv-x="968" 
d="M888 518.5q43 -39.5 43 -105.5q0 -17 -3 -37l-101 -576h-136l101 576q1 5 1 15q0 23 -12 36t-32 13h-74q-30 0 -52 -25t-29 -65l-97 -550h-136l101 570q1 5 1 15q0 25 -15 40t-42 15h-107q-27 0 -56 -19.5t-48 -52.5q23 -14 36 -40t13 -56q0 -7 -2 -23l-5 -28
q44 -1 69 -26.5t25 -66.5q0 -60 -40.5 -99t-102.5 -39q-50 0 -79 25.5t-29 69.5q0 7 2 23l24 141q1 5 1 14q0 27 -17 45.5t-47 23.5q37 106 106.5 166t156.5 60h125q42 0 76 -16t51 -43q25 27 63.5 43t76.5 16h72q75 0 118 -39.5zM240.5 142.5q-10.5 9.5 -27.5 9.5
q-23 0 -38.5 -15.5t-15.5 -38.5q0 -16 10.5 -25.5t27.5 -9.5q23 0 38.5 16t15.5 38q0 16 -10.5 25.5z" />
    <glyph glyph-name="uni0E260E45" unicode="&#xe26;&#xe45;" horiz-adv-x="980" 
d="M900 518.5q43 -39.5 43 -105.5q0 -17 -3 -37l-101 -576h-136l101 576q2 12 2 16q0 22 -12 35t-32 13h-75q-29 0 -51.5 -24.5t-29.5 -65.5l-97 -550h-136l100 570q1 5 1 15q0 25 -15 40t-42 15h-91q-27 0 -56 -19.5t-48 -52.5q27 -17 44.5 -40.5t17.5 -52.5q0 -10 -1 -16
l-27 -152q-9 -53 -46.5 -85t-93.5 -32q-50 0 -80 27t-30 70q0 58 36.5 95t93.5 37h4l7 40q1 3 1 10q0 25 -22 41t-56 22q37 106 106.5 166t156.5 60h109q43 0 77.5 -15.5t51.5 -41.5q26 26 62.5 41.5t75.5 15.5h73q75 0 118 -39.5zM160.5 78q15.5 16 15.5 38
q0 16 -10.5 25.5t-27.5 9.5q-22 0 -38 -15.5t-16 -38.5q0 -16 10.5 -25.5t27.5 -9.5q23 0 38.5 16z" />
    <glyph glyph-name=".notdef" horiz-adv-x="491" 
d="M60 712h409v-712h-409v712zM402 66v580h-274v-580h274z" />
    <glyph glyph-name="NULL" 
 />
    <glyph glyph-name="NULL" 
 />
    <glyph glyph-name="nonmarkingreturn" unicode="&#xd;" horiz-adv-x="288" 
 />
    <glyph glyph-name="space" unicode=" " horiz-adv-x="288" 
 />
    <glyph glyph-name="A" unicode="A" horiz-adv-x="681" 
d="M462 163h-263l-90 -163h-149l397 700h62q65 0 78 -60l136 -640h-139zM257 279h188l-48 252h-1z" />
    <glyph glyph-name="Aacute" unicode="&#xc1;" horiz-adv-x="681" 
d="M462 163h-263l-90 -163h-149l397 700h62q65 0 78 -60l136 -640h-139zM257 279h188l-48 252h-1zM493 949h154l-150 -180h-134z" />
    <glyph glyph-name="Abreve" unicode="&#x102;" horiz-adv-x="681" 
d="M462 163h-263l-90 -163h-149l397 700h62q65 0 78 -60l136 -640h-139zM257 279h188l-48 252h-1zM318.5 793.5q-41.5 32.5 -41.5 87.5q0 15 3 31l4 20h106l-4 -20q-1 -5 -1 -13q0 -22 14.5 -35t40.5 -13h12q29 0 50 16.5t26 44.5l4 20h106l-4 -20q-14 -71 -64 -111
t-126 -40h-12q-72 0 -113.5 32.5z" />
    <glyph glyph-name="uni1EAE" unicode="&#x1eae;" horiz-adv-x="681" 
d="M462 163h-263l-90 -163h-149l397 700h62q65 0 78 -60l136 -640h-139zM257 279h188l-48 252h-1zM520 1129h130l-126 -150h-112zM318.5 793.5q-41.5 32.5 -41.5 87.5q0 15 3 31l4 20h106l-4 -20q-1 -5 -1 -13q0 -22 14.5 -35t40.5 -13h12q29 0 50 16.5t26 44.5l4 20h106
l-4 -20q-14 -71 -64 -111t-126 -40h-12q-72 0 -113.5 32.5z" />
    <glyph glyph-name="uni1EB6" unicode="&#x1eb6;" horiz-adv-x="681" 
d="M462 163h-263l-90 -163h-149l397 700h62q65 0 78 -60l136 -640h-139zM257 279h188l-48 252h-1zM210 -211q-19 18 -19 47q0 45 27.5 72.5t71.5 27.5q31 0 50.5 -18t19.5 -47q0 -45 -27.5 -72.5t-71.5 -27.5q-32 0 -51 18zM318.5 793.5q-41.5 32.5 -41.5 87.5q0 15 3 31
l4 20h106l-4 -20q-1 -5 -1 -13q0 -22 14.5 -35t40.5 -13h12q29 0 50 16.5t26 44.5l4 20h106l-4 -20q-14 -71 -64 -111t-126 -40h-12q-72 0 -113.5 32.5z" />
    <glyph glyph-name="uni1EB0" unicode="&#x1eb0;" horiz-adv-x="681" 
d="M462 163h-263l-90 -163h-149l397 700h62q65 0 78 -60l136 -640h-139zM257 279h188l-48 252h-1zM348 1129h122l56 -150h-104zM318.5 793.5q-41.5 32.5 -41.5 87.5q0 15 3 31l4 20h106l-4 -20q-1 -5 -1 -13q0 -22 14.5 -35t40.5 -13h12q29 0 50 16.5t26 44.5l4 20h106
l-4 -20q-14 -71 -64 -111t-126 -40h-12q-72 0 -113.5 32.5z" />
    <glyph glyph-name="uni1EB2" unicode="&#x1eb2;" horiz-adv-x="681" 
d="M462 163h-263l-90 -163h-149l397 700h62q65 0 78 -60l136 -640h-139zM257 279h188l-48 252h-1zM422 987q3 18 16 28.5t39 22.5q21 11 32 19t13 20l2 13v5q0 18 -21 18h-17q-29 0 -33 -31h-84q16 107 119 107h17q53 0 81 -20t28 -59q0 -6 -2 -20l-2 -13q-4 -26 -19 -40.5
t-42 -29.5q-16 -9 -24.5 -15t-9.5 -15l-2 -10h-94zM318.5 793.5q-41.5 32.5 -41.5 87.5q0 15 3 31l4 20h106l-4 -20q-1 -5 -1 -13q0 -22 14.5 -35t40.5 -13h12q29 0 50 16.5t26 44.5l4 20h106l-4 -20q-14 -71 -64 -111t-126 -40h-12q-72 0 -113.5 32.5z" />
    <glyph glyph-name="uni1EB4" unicode="&#x1eb4;" horiz-adv-x="681" 
d="M462 163h-263l-90 -163h-149l397 700h62q65 0 78 -60l136 -640h-139zM257 279h188l-48 252h-1zM509.5 1004.5q-14.5 7.5 -32.5 22.5q-14 11 -22.5 16t-19.5 5h-5q-14 0 -23.5 -11.5t-12.5 -30.5h-90q11 59 44 92.5t82 33.5h6q22 0 37.5 -8t33.5 -23q14 -11 22 -15.5
t17 -4.5h5q12 0 21 11.5t13 30.5h90q-11 -59 -43.5 -92.5t-78.5 -33.5h-6q-23 0 -37.5 7.5zM318.5 793.5q-41.5 32.5 -41.5 87.5q0 15 3 31l4 20h106l-4 -20q-1 -5 -1 -13q0 -22 14.5 -35t40.5 -13h12q29 0 50 16.5t26 44.5l4 20h106l-4 -20q-14 -71 -64 -111t-126 -40h-12
q-72 0 -113.5 32.5z" />
    <glyph glyph-name="uni01CD" unicode="&#x1cd;" horiz-adv-x="681" 
d="M462 163h-263l-90 -163h-149l397 700h62q65 0 78 -60l136 -640h-139zM257 279h188l-48 252h-1zM270 955h117l58 -97l91 97h124l-184 -186h-89z" />
    <glyph glyph-name="Acircumflex" unicode="&#xc2;" horiz-adv-x="681" 
d="M462 163h-263l-90 -163h-149l397 700h62q65 0 78 -60l136 -640h-139zM257 279h188l-48 252h-1zM420 955h89l118 -186h-118l-57 97l-92 -97h-123z" />
    <glyph glyph-name="uni1EA4" unicode="&#x1ea4;" horiz-adv-x="681" 
d="M462 163h-263l-90 -163h-149l397 700h62q65 0 78 -60l136 -640h-139zM257 279h188l-48 252h-1zM678 1087h130l-126 -150h-112zM420 955h89l118 -186h-118l-57 97l-92 -97h-123z" />
    <glyph glyph-name="uni1EAC" unicode="&#x1eac;" horiz-adv-x="681" 
d="M462 163h-263l-90 -163h-149l397 700h62q65 0 78 -60l136 -640h-139zM257 279h188l-48 252h-1zM210 -211q-19 18 -19 47q0 45 27.5 72.5t71.5 27.5q31 0 50.5 -18t19.5 -47q0 -45 -27.5 -72.5t-71.5 -27.5q-32 0 -51 18zM420 955h89l118 -186h-118l-57 97l-92 -97h-123z
" />
    <glyph glyph-name="uni1EA6" unicode="&#x1ea6;" horiz-adv-x="681" 
d="M462 163h-263l-90 -163h-149l397 700h62q65 0 78 -60l136 -640h-139zM257 279h188l-48 252h-1zM540 1087h122l56 -150h-104zM420 955h89l118 -186h-118l-57 97l-92 -97h-123z" />
    <glyph glyph-name="uni1EA8" unicode="&#x1ea8;" horiz-adv-x="681" 
d="M462 163h-263l-90 -163h-149l397 700h62q65 0 78 -60l136 -640h-139zM257 279h188l-48 252h-1zM598 925q3 18 16 28.5t39 22.5q22 11 32.5 19t12.5 20l2 13v5q0 18 -21 18h-17q-29 0 -33 -31h-84q16 107 119 107h17q53 0 81 -20t28 -59q0 -6 -2 -20l-2 -13
q-4 -26 -19 -40.5t-42 -29.5q-16 -9 -24.5 -15t-9.5 -15l-2 -10h-94zM420 955h89l118 -186h-118l-57 97l-92 -97h-123z" />
    <glyph glyph-name="uni1EAA" unicode="&#x1eaa;" horiz-adv-x="681" 
d="M462 163h-263l-90 -163h-149l397 700h62q65 0 78 -60l136 -640h-139zM257 279h188l-48 252h-1zM504.5 992.5q-14.5 7.5 -32.5 22.5q-14 11 -22.5 16t-19.5 5h-5q-14 0 -23.5 -11.5t-12.5 -30.5h-90q11 59 44 92.5t82 33.5h6q22 0 37.5 -8t33.5 -23q14 -11 22 -15.5
t17 -4.5h5q12 0 21 11.5t13 30.5h90q-11 -59 -43.5 -92.5t-78.5 -33.5h-6q-23 0 -37.5 7.5zM420 955h89l118 -186h-118l-57 97l-92 -97h-123z" />
    <glyph glyph-name="Adieresis" unicode="&#xc4;" horiz-adv-x="681" 
d="M462 163h-263l-90 -163h-149l397 700h62q65 0 78 -60l136 -640h-139zM257 279h188l-48 252h-1zM264.5 786.5q-16.5 15.5 -16.5 40.5q0 39 23.5 62.5t62.5 23.5q27 0 43.5 -15.5t16.5 -40.5q0 -39 -23.5 -62.5t-61.5 -23.5q-28 0 -44.5 15.5zM513.5 786.5
q-16.5 15.5 -16.5 40.5q0 39 23.5 62.5t61.5 23.5q28 0 44.5 -15.5t16.5 -40.5q0 -39 -23.5 -62.5t-62.5 -23.5q-27 0 -43.5 15.5z" />
    <glyph glyph-name="uni1EA0" unicode="&#x1ea0;" horiz-adv-x="681" 
d="M462 163h-263l-90 -163h-149l397 700h62q65 0 78 -60l136 -640h-139zM257 279h188l-48 252h-1zM210 -211q-19 18 -19 47q0 45 27.5 72.5t71.5 27.5q31 0 50.5 -18t19.5 -47q0 -45 -27.5 -72.5t-71.5 -27.5q-32 0 -51 18z" />
    <glyph glyph-name="Agrave" unicode="&#xc0;" horiz-adv-x="681" 
d="M462 163h-263l-90 -163h-149l397 700h62q65 0 78 -60l136 -640h-139zM257 279h188l-48 252h-1zM282 949h146l66 -180h-126z" />
    <glyph glyph-name="uni1EA2" unicode="&#x1ea2;" horiz-adv-x="681" 
d="M462 163h-263l-90 -163h-149l397 700h62q65 0 78 -60l136 -640h-139zM257 279h188l-48 252h-1zM377 781q4 21 20 33.5t45 26.5q24 13 36.5 22.5t15.5 23.5l2 12q5 29 -27 29h-19q-37 0 -44 -39h-92q11 63 46.5 93t96.5 30h19q118 0 118 -89q0 -6 -2 -24l-2 -12
q-5 -30 -22.5 -46.5t-47.5 -33.5q-19 -10 -28.5 -18t-10.5 -18l-2 -12h-106z" />
    <glyph glyph-name="Amacron" unicode="&#x100;" horiz-adv-x="681" 
d="M462 163h-263l-90 -163h-149l397 700h62q65 0 78 -60l136 -640h-139zM257 279h188l-48 252h-1zM294 890h320l-19 -106h-320z" />
    <glyph glyph-name="Aogonek" unicode="&#x104;" horiz-adv-x="681" 
d="M462 163h-263l-90 -163h-149l397 700h62q65 0 78 -60l136 -640h-139zM257 279h188l-48 252h-1zM461.5 -207q-32.5 24 -32.5 64q0 10 1 15l2 14q5 32 30.5 63.5t60.5 50.5h110q-34 -17 -57.5 -43t-29.5 -52l-2 -9q-1 -3 -1 -9q0 -14 10 -22t29 -8h15q17 0 36 5.5t32 14.5
l-15 -84q-16 -11 -39 -17.5t-47 -6.5h-15q-55 0 -87.5 24z" />
    <glyph glyph-name="Aring" unicode="&#xc5;" horiz-adv-x="681" 
d="M462 163h-263l-90 -163h-149l397 700h62q65 0 78 -60l136 -640h-139zM257 279h188l-48 252h-1zM353 775.5q-29 27.5 -29 73.5q0 62 40 100.5t104 38.5q48 0 77.5 -27.5t29.5 -73.5q0 -62 -40 -100.5t-105 -38.5q-48 0 -77 27.5zM479.5 838.5q14.5 14.5 14.5 38.5
q0 16 -10 25.5t-27 9.5q-24 0 -38.5 -14.5t-14.5 -38.5q0 -16 10.5 -25.5t27.5 -9.5q23 0 37.5 14.5z" />
    <glyph glyph-name="Aringacute" unicode="&#x1fa;" horiz-adv-x="681" 
d="M462 163h-263l-90 -163h-149l397 700h62q65 0 78 -60l136 -640h-139zM257 279h188l-48 252h-1zM353 775.5q-29 27.5 -29 73.5q0 62 40 100.5t104 38.5q48 0 77.5 -27.5t29.5 -73.5q0 -62 -40 -100.5t-105 -38.5q-48 0 -77 27.5zM479.5 838.5q14.5 14.5 14.5 38.5
q0 16 -10 25.5t-27 9.5q-24 0 -38.5 -14.5t-14.5 -38.5q0 -16 10.5 -25.5t27.5 -9.5q23 0 37.5 14.5zM541 1223h154l-150 -180h-134z" />
    <glyph glyph-name="Atilde" unicode="&#xc3;" horiz-adv-x="681" 
d="M462 163h-263l-90 -163h-149l397 700h62q65 0 78 -60l136 -640h-139zM257 279h188l-48 252h-1zM464 771q-18 10 -39 28q-25 23 -39 23h-6q-13 0 -23 -14t-15 -39h-99q12 70 48 109.5t89 39.5h6q24 0 42 -10.5t42 -29.5q23 -21 34 -21h6q12 0 22 14t14 39h99
q-13 -70 -48.5 -109.5t-85.5 -39.5h-6q-23 0 -41 10z" />
    <glyph glyph-name="AE" unicode="&#xc6;" horiz-adv-x="961" 
d="M601 580l-28 -162h346l-21 -120h-346l-32 -178h386l-21 -120h-421q-38 0 -60.5 20t-22.5 54q0 6 2 20l13 72h-189l-120 -166h-141l509 700h553l-21 -120h-386zM477 554l-191 -270h143z" />
    <glyph glyph-name="AEacute" unicode="&#x1fc;" horiz-adv-x="961" 
d="M601 580l-28 -162h346l-21 -120h-346l-32 -178h386l-21 -120h-421q-38 0 -60.5 20t-22.5 54q0 6 2 20l13 72h-189l-120 -166h-141l509 700h553l-21 -120h-386zM477 554l-191 -270h143zM671 949h154l-150 -180h-134z" />
    <glyph glyph-name="B" unicode="B" horiz-adv-x="690" 
d="M55 20.5q-22 20.5 -22 54.5q0 5 2 19l107 606h332q92 0 146 -37.5t54 -101.5q0 -13 -3 -27l-9 -50q-7 -34 -29 -64t-54 -48v-1q39 -15 61.5 -46t22.5 -71q0 -7 -2 -23l-9 -52q-14 -85 -75.5 -132t-160.5 -47h-301q-38 0 -60 20.5zM439 410q32 0 55.5 20.5t29.5 54.5l6 34
q1 4 1 12q0 23 -18 36t-49 13h-205l-30 -170h210zM412 120q43 0 70 17.5t33 49.5l8 44q1 4 1 12q0 24 -18 38.5t-48 14.5h-249l-31 -176h234z" />
    <glyph glyph-name="C" unicode="C" horiz-adv-x="688" 
d="M101.5 49q-62.5 57 -62.5 154q0 23 5 55l32 184q22 125 99.5 195.5t194.5 70.5h105q105 0 166 -55t61 -148q0 -22 -5 -52h-136q3 17 3 33q0 46 -25 73t-70 27h-105q-59 0 -99 -40t-52 -110l-30 -172q-4 -28 -4 -39q0 -51 26 -81t72 -30h107q56 0 94.5 39.5t51.5 109.5
h136q-23 -128 -99 -199.5t-189 -71.5h-107q-107 0 -169.5 57z" />
    <glyph glyph-name="Cacute" unicode="&#x106;" horiz-adv-x="688" 
d="M101.5 49q-62.5 57 -62.5 154q0 23 5 55l32 184q22 125 99.5 195.5t194.5 70.5h105q105 0 166 -55t61 -148q0 -22 -5 -52h-136q3 17 3 33q0 46 -25 73t-70 27h-105q-59 0 -99 -40t-52 -110l-30 -172q-4 -28 -4 -39q0 -51 26 -81t72 -30h107q56 0 94.5 39.5t51.5 109.5
h136q-23 -128 -99 -199.5t-189 -71.5h-107q-107 0 -169.5 57zM503 949h154l-150 -180h-134z" />
    <glyph glyph-name="Ccaron" unicode="&#x10c;" horiz-adv-x="688" 
d="M101.5 49q-62.5 57 -62.5 154q0 23 5 55l32 184q22 125 99.5 195.5t194.5 70.5h105q105 0 166 -55t61 -148q0 -22 -5 -52h-136q3 17 3 33q0 46 -25 73t-70 27h-105q-59 0 -99 -40t-52 -110l-30 -172q-4 -28 -4 -39q0 -51 26 -81t72 -30h107q56 0 94.5 39.5t51.5 109.5
h136q-23 -128 -99 -199.5t-189 -71.5h-107q-107 0 -169.5 57zM280 955h117l58 -97l91 97h124l-184 -186h-89z" />
    <glyph glyph-name="Ccedilla" unicode="&#xc7;" horiz-adv-x="688" 
d="M561 453q3 17 3 33q0 46 -25 73t-70 27h-105q-59 0 -99 -40t-52 -110l-30 -172q-4 -28 -4 -39q0 -51 26 -81t72 -30h107q56 0 94.5 39.5t51.5 109.5h136q-23 -128 -99 -199.5t-189 -71.5h-22l-24 -38h10q34 0 54 -17.5t20 -49.5q0 -10 -1 -16l-3 -20q-7 -47 -44 -74
t-95 -27h-107l14 82h86q18 0 30 6t14 17l3 15q2 9 -6 14.5t-23 5.5h-66l9 52l30 50q-101 4 -159.5 61.5t-58.5 150.5q0 22 5 54l32 184q22 125 99.5 195.5t194.5 70.5h105q105 0 166 -55t61 -148q0 -22 -5 -52h-136z" />
    <glyph glyph-name="Ccircumflex" unicode="&#x108;" horiz-adv-x="688" 
d="M101.5 49q-62.5 57 -62.5 154q0 23 5 55l32 184q22 125 99.5 195.5t194.5 70.5h105q105 0 166 -55t61 -148q0 -22 -5 -52h-136q3 17 3 33q0 46 -25 73t-70 27h-105q-59 0 -99 -40t-52 -110l-30 -172q-4 -28 -4 -39q0 -51 26 -81t72 -30h107q56 0 94.5 39.5t51.5 109.5
h136q-23 -128 -99 -199.5t-189 -71.5h-107q-107 0 -169.5 57zM430 955h89l118 -186h-118l-57 97l-92 -97h-123z" />
    <glyph glyph-name="Cdotaccent" unicode="&#x10a;" horiz-adv-x="688" 
d="M101.5 49q-62.5 57 -62.5 154q0 23 5 55l32 184q22 125 99.5 195.5t194.5 70.5h105q105 0 166 -55t61 -148q0 -22 -5 -52h-136q3 17 3 33q0 46 -25 73t-70 27h-105q-59 0 -99 -40t-52 -110l-30 -172q-4 -28 -4 -39q0 -51 26 -81t72 -30h107q56 0 94.5 39.5t51.5 109.5
h136q-23 -128 -99 -199.5t-189 -71.5h-107q-107 0 -169.5 57zM390 779q-19 18 -19 47q0 45 27.5 72.5t71.5 27.5q32 0 51 -18t19 -47q0 -45 -27.5 -72.5t-71.5 -27.5q-32 0 -51 18z" />
    <glyph glyph-name="D" unicode="D" horiz-adv-x="702" 
d="M55 20.5q-22 20.5 -22 54.5q0 5 2 19l107 606h317q113 0 178.5 -54t65.5 -145q0 -13 -4 -43l-33 -196q-22 -129 -97 -195.5t-198 -66.5h-256q-38 0 -60 20.5zM373 122q129 0 155 146l33 184q2 9 2 26q0 46 -31 73t-83 27h-191l-80 -456h195z" />
    <glyph glyph-name="Eth" unicode="&#xd0;" horiz-adv-x="753" 
d="M688.5 646q65.5 -54 65.5 -145q0 -13 -4 -43l-33 -196q-22 -129 -97 -195.5t-198 -66.5h-256q-38 0 -60 20.5t-22 54.5q0 5 2 19l35 198h-91l21 120h91l51 288h317q113 0 178.5 -54zM614 478q0 46 -31 73t-83 27h-191l-29 -166h215l-21 -120h-215l-30 -170h195
q129 0 155 146l33 184q2 9 2 26z" />
    <glyph glyph-name="Dcaron" unicode="&#x10e;" horiz-adv-x="702" 
d="M55 20.5q-22 20.5 -22 54.5q0 5 2 19l107 606h317q113 0 178.5 -54t65.5 -145q0 -13 -4 -43l-33 -196q-22 -129 -97 -195.5t-198 -66.5h-256q-38 0 -60 20.5zM373 122q129 0 155 146l33 184q2 9 2 26q0 46 -31 73t-83 27h-191l-80 -456h195zM269 955h117l58 -97l91 97
h124l-184 -186h-89z" />
    <glyph glyph-name="Dcroat" unicode="&#x110;" horiz-adv-x="753" 
d="M688.5 646q65.5 -54 65.5 -145q0 -13 -4 -43l-33 -196q-22 -129 -97 -195.5t-198 -66.5h-256q-38 0 -60 20.5t-22 54.5q0 5 2 19l35 198h-91l21 120h91l51 288h317q113 0 178.5 -54zM614 478q0 46 -31 73t-83 27h-191l-29 -166h215l-21 -120h-215l-30 -170h195
q129 0 155 146l33 184q2 9 2 26z" />
    <glyph glyph-name="uni1E0C" unicode="&#x1e0c;" horiz-adv-x="702" 
d="M55 20.5q-22 20.5 -22 54.5q0 5 2 19l107 606h317q113 0 178.5 -54t65.5 -145q0 -13 -4 -43l-33 -196q-22 -129 -97 -195.5t-198 -66.5h-256q-38 0 -60 20.5zM373 122q129 0 155 146l33 184q2 9 2 26q0 46 -31 73t-83 27h-191l-80 -456h195zM208 -211q-19 18 -19 47
q0 45 27.5 72.5t71.5 27.5q31 0 50.5 -18t19.5 -47q0 -45 -27.5 -72.5t-71.5 -27.5q-32 0 -51 18z" />
    <glyph glyph-name="uni1E0E" unicode="&#x1e0e;" horiz-adv-x="702" 
d="M55 20.5q-22 20.5 -22 54.5q0 5 2 19l107 606h317q113 0 178.5 -54t65.5 -145q0 -13 -4 -43l-33 -196q-22 -129 -97 -195.5t-198 -66.5h-256q-38 0 -60 20.5zM373 122q129 0 155 146l33 184q2 9 2 26q0 46 -31 73t-83 27h-191l-80 -456h195zM125 -82h320l-19 -108h-320z
" />
    <glyph glyph-name="E" unicode="E" horiz-adv-x="628" 
d="M55 20.5q-22 20.5 -22 54.5q0 5 2 19l107 606h533l-21 -120h-395l-29 -162h365l-21 -120h-365l-31 -178h395l-22 -120h-436q-38 0 -60 20.5z" />
    <glyph glyph-name="Eacute" unicode="&#xc9;" horiz-adv-x="628" 
d="M55 20.5q-22 20.5 -22 54.5q0 5 2 19l107 606h533l-21 -120h-395l-29 -162h365l-21 -120h-365l-31 -178h395l-22 -120h-436q-38 0 -60 20.5zM486 949h154l-150 -180h-134z" />
    <glyph glyph-name="Ebreve" unicode="&#x114;" horiz-adv-x="628" 
d="M55 20.5q-22 20.5 -22 54.5q0 5 2 19l107 606h533l-21 -120h-395l-29 -162h365l-21 -120h-365l-31 -178h395l-22 -120h-436q-38 0 -60 20.5zM311.5 793.5q-41.5 32.5 -41.5 87.5q0 15 3 31l4 20h106l-4 -20q-1 -5 -1 -13q0 -22 14.5 -35t40.5 -13h12q29 0 50 16.5
t26 44.5l4 20h106l-4 -20q-14 -71 -64 -111t-126 -40h-12q-72 0 -113.5 32.5z" />
    <glyph glyph-name="Ecaron" unicode="&#x11a;" horiz-adv-x="628" 
d="M55 20.5q-22 20.5 -22 54.5q0 5 2 19l107 606h533l-21 -120h-395l-29 -162h365l-21 -120h-365l-31 -178h395l-22 -120h-436q-38 0 -60 20.5zM263 955h117l58 -97l91 97h124l-184 -186h-89z" />
    <glyph glyph-name="Ecircumflex" unicode="&#xca;" horiz-adv-x="628" 
d="M55 20.5q-22 20.5 -22 54.5q0 5 2 19l107 606h533l-21 -120h-395l-29 -162h365l-21 -120h-365l-31 -178h395l-22 -120h-436q-38 0 -60 20.5zM413 955h89l118 -186h-118l-57 97l-92 -97h-123z" />
    <glyph glyph-name="uni1EBE" unicode="&#x1ebe;" horiz-adv-x="628" 
d="M55 20.5q-22 20.5 -22 54.5q0 5 2 19l107 606h533l-21 -120h-395l-29 -162h365l-21 -120h-365l-31 -178h395l-22 -120h-436q-38 0 -60 20.5zM671 1087h130l-126 -150h-112zM413 955h89l118 -186h-118l-57 97l-92 -97h-123z" />
    <glyph glyph-name="uni1EC6" unicode="&#x1ec6;" horiz-adv-x="628" 
d="M55 20.5q-22 20.5 -22 54.5q0 5 2 19l107 606h533l-21 -120h-395l-29 -162h365l-21 -120h-365l-31 -178h395l-22 -120h-436q-38 0 -60 20.5zM201 -211q-19 18 -19 47q0 45 27.5 72.5t71.5 27.5q31 0 50.5 -18t19.5 -47q0 -45 -27.5 -72.5t-71.5 -27.5q-32 0 -51 18z
M413 955h89l118 -186h-118l-57 97l-92 -97h-123z" />
    <glyph glyph-name="uni1EC0" unicode="&#x1ec0;" horiz-adv-x="628" 
d="M55 20.5q-22 20.5 -22 54.5q0 5 2 19l107 606h533l-21 -120h-395l-29 -162h365l-21 -120h-365l-31 -178h395l-22 -120h-436q-38 0 -60 20.5zM533 1087h122l56 -150h-104zM413 955h89l118 -186h-118l-57 97l-92 -97h-123z" />
    <glyph glyph-name="uni1EC2" unicode="&#x1ec2;" horiz-adv-x="628" 
d="M55 20.5q-22 20.5 -22 54.5q0 5 2 19l107 606h533l-21 -120h-395l-29 -162h365l-21 -120h-365l-31 -178h395l-22 -120h-436q-38 0 -60 20.5zM591 925q3 18 16 28.5t39 22.5q22 11 32.5 19t12.5 20l2 13v5q0 18 -21 18h-17q-29 0 -33 -31h-84q16 107 119 107h17
q53 0 81 -20t28 -59q0 -6 -2 -20l-2 -13q-4 -26 -19 -40.5t-42 -29.5q-16 -9 -24.5 -15t-9.5 -15l-2 -10h-94zM413 955h89l118 -186h-118l-57 97l-92 -97h-123z" />
    <glyph glyph-name="uni1EC4" unicode="&#x1ec4;" horiz-adv-x="628" 
d="M55 20.5q-22 20.5 -22 54.5q0 5 2 19l107 606h533l-21 -120h-395l-29 -162h365l-21 -120h-365l-31 -178h395l-22 -120h-436q-38 0 -60 20.5zM497.5 992.5q-14.5 7.5 -32.5 22.5q-14 11 -22.5 16t-19.5 5h-5q-14 0 -23.5 -11.5t-12.5 -30.5h-90q11 59 44 92.5t82 33.5h6
q22 0 37.5 -8t33.5 -23q14 -11 22 -15.5t17 -4.5h5q12 0 21 11.5t13 30.5h90q-11 -59 -43.5 -92.5t-78.5 -33.5h-6q-23 0 -37.5 7.5zM413 955h89l118 -186h-118l-57 97l-92 -97h-123z" />
    <glyph glyph-name="Edieresis" unicode="&#xcb;" horiz-adv-x="628" 
d="M55 20.5q-22 20.5 -22 54.5q0 5 2 19l107 606h533l-21 -120h-395l-29 -162h365l-21 -120h-365l-31 -178h395l-22 -120h-436q-38 0 -60 20.5zM257.5 786.5q-16.5 15.5 -16.5 40.5q0 39 23.5 62.5t62.5 23.5q27 0 43.5 -15.5t16.5 -40.5q0 -39 -23.5 -62.5t-61.5 -23.5
q-28 0 -44.5 15.5zM506.5 786.5q-16.5 15.5 -16.5 40.5q0 39 23.5 62.5t61.5 23.5q28 0 44.5 -15.5t16.5 -40.5q0 -39 -23.5 -62.5t-62.5 -23.5q-27 0 -43.5 15.5z" />
    <glyph glyph-name="Edotaccent" unicode="&#x116;" horiz-adv-x="628" 
d="M55 20.5q-22 20.5 -22 54.5q0 5 2 19l107 606h533l-21 -120h-395l-29 -162h365l-21 -120h-365l-31 -178h395l-22 -120h-436q-38 0 -60 20.5zM373 779q-19 18 -19 47q0 45 27.5 72.5t71.5 27.5q32 0 51 -18t19 -47q0 -45 -27.5 -72.5t-71.5 -27.5q-32 0 -51 18z" />
    <glyph glyph-name="uni1EB8" unicode="&#x1eb8;" horiz-adv-x="628" 
d="M55 20.5q-22 20.5 -22 54.5q0 5 2 19l107 606h533l-21 -120h-395l-29 -162h365l-21 -120h-365l-31 -178h395l-22 -120h-436q-38 0 -60 20.5zM201 -211q-19 18 -19 47q0 45 27.5 72.5t71.5 27.5q31 0 50.5 -18t19.5 -47q0 -45 -27.5 -72.5t-71.5 -27.5q-32 0 -51 18z" />
    <glyph glyph-name="Egrave" unicode="&#xc8;" horiz-adv-x="628" 
d="M55 20.5q-22 20.5 -22 54.5q0 5 2 19l107 606h533l-21 -120h-395l-29 -162h365l-21 -120h-365l-31 -178h395l-22 -120h-436q-38 0 -60 20.5zM275 949h146l66 -180h-126z" />
    <glyph glyph-name="uni1EBA" unicode="&#x1eba;" horiz-adv-x="628" 
d="M55 20.5q-22 20.5 -22 54.5q0 5 2 19l107 606h533l-21 -120h-395l-29 -162h365l-21 -120h-365l-31 -178h395l-22 -120h-436q-38 0 -60 20.5zM370 781q4 21 20 33.5t45 26.5q24 13 36.5 22.5t15.5 23.5l2 12q5 29 -27 29h-19q-37 0 -44 -39h-92q11 63 46.5 93t96.5 30h19
q118 0 118 -89q0 -6 -2 -24l-2 -12q-5 -30 -22.5 -46.5t-47.5 -33.5q-19 -10 -28.5 -18t-10.5 -18l-2 -12h-106z" />
    <glyph glyph-name="Emacron" unicode="&#x112;" horiz-adv-x="628" 
d="M55 20.5q-22 20.5 -22 54.5q0 5 2 19l107 606h533l-21 -120h-395l-29 -162h365l-21 -120h-365l-31 -178h395l-22 -120h-436q-38 0 -60 20.5zM287 890h320l-19 -106h-320z" />
    <glyph glyph-name="Eogonek" unicode="&#x118;" horiz-adv-x="628" 
d="M55 20.5q-22 20.5 -22 54.5q0 5 2 19l107 606h533l-21 -120h-395l-29 -162h365l-21 -120h-365l-31 -178h395l-22 -120h-436q-38 0 -60 20.5zM380.5 -207q-32.5 24 -32.5 64q0 10 1 15l2 14q5 32 30.5 63.5t60.5 50.5h110q-34 -17 -57.5 -43t-29.5 -52l-2 -9q-1 -3 -1 -9
q0 -14 10 -22t29 -8h15q17 0 36 5.5t32 14.5l-15 -84q-16 -11 -39 -17.5t-47 -6.5h-15q-55 0 -87.5 24z" />
    <glyph glyph-name="uni1EBC" unicode="&#x1ebc;" horiz-adv-x="628" 
d="M55 20.5q-22 20.5 -22 54.5q0 5 2 19l107 606h533l-21 -120h-395l-29 -162h365l-21 -120h-365l-31 -178h395l-22 -120h-436q-38 0 -60 20.5zM457 771q-18 10 -39 28q-25 23 -39 23h-6q-13 0 -23 -14t-15 -39h-99q12 70 48 109.5t89 39.5h6q24 0 42 -10.5t42 -29.5
q23 -21 34 -21h6q12 0 22 14t14 39h99q-13 -70 -48.5 -109.5t-85.5 -39.5h-6q-23 0 -41 10z" />
    <glyph glyph-name="F" unicode="F" horiz-adv-x="604" 
d="M141 700h524l-21 -120h-386l-33 -188h349l-21 -120h-349l-48 -272h-138z" />
    <glyph glyph-name="G" unicode="G" horiz-adv-x="712" 
d="M102 49q-63 57 -63 154q0 23 5 55l32 184q22 125 99.5 195.5t194.5 70.5h111q70 0 121.5 -24.5t79.5 -69.5t28 -104q0 -24 -4 -44h-136q2 18 2 25q0 44 -26 69.5t-71 25.5h-111q-59 0 -99 -40t-52 -110l-30 -172q-4 -28 -4 -39q0 -51 26.5 -81t73.5 -30h118q55 0 92 34
t48 95l4 22h-194l21 120h330l-25 -142q-21 -118 -95.5 -184.5t-186.5 -66.5h-118q-108 0 -171 57z" />
    <glyph glyph-name="Gbreve" unicode="&#x11e;" horiz-adv-x="712" 
d="M102 49q-63 57 -63 154q0 23 5 55l32 184q22 125 99.5 195.5t194.5 70.5h111q70 0 121.5 -24.5t79.5 -69.5t28 -104q0 -24 -4 -44h-136q2 18 2 25q0 44 -26 69.5t-71 25.5h-111q-59 0 -99 -40t-52 -110l-30 -172q-4 -28 -4 -39q0 -51 26.5 -81t73.5 -30h118q55 0 92 34
t48 95l4 22h-194l21 120h330l-25 -142q-21 -118 -95.5 -184.5t-186.5 -66.5h-118q-108 0 -171 57zM334.5 793.5q-41.5 32.5 -41.5 87.5q0 15 3 31l4 20h106l-4 -20q-1 -5 -1 -13q0 -22 14.5 -35t40.5 -13h12q29 0 50 16.5t26 44.5l4 20h106l-4 -20q-14 -71 -64 -111
t-126 -40h-12q-72 0 -113.5 32.5z" />
    <glyph glyph-name="Gcaron" unicode="&#x1e6;" horiz-adv-x="712" 
d="M102 49q-63 57 -63 154q0 23 5 55l32 184q22 125 99.5 195.5t194.5 70.5h111q70 0 121.5 -24.5t79.5 -69.5t28 -104q0 -24 -4 -44h-136q2 18 2 25q0 44 -26 69.5t-71 25.5h-111q-59 0 -99 -40t-52 -110l-30 -172q-4 -28 -4 -39q0 -51 26.5 -81t73.5 -30h118q55 0 92 34
t48 95l4 22h-194l21 120h330l-25 -142q-21 -118 -95.5 -184.5t-186.5 -66.5h-118q-108 0 -171 57zM286 955h117l58 -97l91 97h124l-184 -186h-89z" />
    <glyph glyph-name="Gcircumflex" unicode="&#x11c;" horiz-adv-x="712" 
d="M102 49q-63 57 -63 154q0 23 5 55l32 184q22 125 99.5 195.5t194.5 70.5h111q70 0 121.5 -24.5t79.5 -69.5t28 -104q0 -24 -4 -44h-136q2 18 2 25q0 44 -26 69.5t-71 25.5h-111q-59 0 -99 -40t-52 -110l-30 -172q-4 -28 -4 -39q0 -51 26.5 -81t73.5 -30h118q55 0 92 34
t48 95l4 22h-194l21 120h330l-25 -142q-21 -118 -95.5 -184.5t-186.5 -66.5h-118q-108 0 -171 57zM436 955h89l118 -186h-118l-57 97l-92 -97h-123z" />
    <glyph glyph-name="uni0122" unicode="&#x122;" horiz-adv-x="712" 
d="M102 49q-63 57 -63 154q0 23 5 55l32 184q22 125 99.5 195.5t194.5 70.5h111q70 0 121.5 -24.5t79.5 -69.5t28 -104q0 -24 -4 -44h-136q2 18 2 25q0 44 -26 69.5t-71 25.5h-111q-59 0 -99 -40t-52 -110l-30 -172q-4 -28 -4 -39q0 -51 26.5 -81t73.5 -30h118q55 0 92 34
t48 95l4 22h-194l21 120h330l-25 -142q-21 -118 -95.5 -184.5t-186.5 -66.5h-118q-108 0 -171 57zM122 -240l35 27q31 25 48.5 52t23.5 60l7 39h136l-7 -39q-13 -70 -45 -121t-88 -90l-38 -27z" />
    <glyph glyph-name="Gdotaccent" unicode="&#x120;" horiz-adv-x="712" 
d="M102 49q-63 57 -63 154q0 23 5 55l32 184q22 125 99.5 195.5t194.5 70.5h111q70 0 121.5 -24.5t79.5 -69.5t28 -104q0 -24 -4 -44h-136q2 18 2 25q0 44 -26 69.5t-71 25.5h-111q-59 0 -99 -40t-52 -110l-30 -172q-4 -28 -4 -39q0 -51 26.5 -81t73.5 -30h118q55 0 92 34
t48 95l4 22h-194l21 120h330l-25 -142q-21 -118 -95.5 -184.5t-186.5 -66.5h-118q-108 0 -171 57zM396 779q-19 18 -19 47q0 45 27.5 72.5t71.5 27.5q32 0 51 -18t19 -47q0 -45 -27.5 -72.5t-71.5 -27.5q-32 0 -51 18z" />
    <glyph glyph-name="uni1E20" unicode="&#x1e20;" horiz-adv-x="712" 
d="M102 49q-63 57 -63 154q0 23 5 55l32 184q22 125 99.5 195.5t194.5 70.5h111q70 0 121.5 -24.5t79.5 -69.5t28 -104q0 -24 -4 -44h-136q2 18 2 25q0 44 -26 69.5t-71 25.5h-111q-59 0 -99 -40t-52 -110l-30 -172q-4 -28 -4 -39q0 -51 26.5 -81t73.5 -30h118q55 0 92 34
t48 95l4 22h-194l21 120h330l-25 -142q-21 -118 -95.5 -184.5t-186.5 -66.5h-118q-108 0 -171 57zM310 890h320l-19 -106h-320z" />
    <glyph glyph-name="H" unicode="H" horiz-adv-x="726" 
d="M141 700h138l-51 -289h326l51 289h138l-123 -700h-138l51 291h-326l-51 -291h-138z" />
    <glyph glyph-name="Hbar" unicode="&#x126;" horiz-adv-x="778" 
d="M815 506h-80l-89 -506h-138l51 291h-326l-51 -291h-138l89 506h-80l16 92h80l18 102h138l-18 -102h326l18 102h138l-18 -102h80zM597 506h-326l-17 -95h326z" />
    <glyph glyph-name="uni1E2A" unicode="&#x1e2a;" horiz-adv-x="726" 
d="M141 700h138l-51 -289h326l51 289h138l-123 -700h-138l51 291h-326l-51 -291h-138zM161.5 -202.5q-41.5 32.5 -41.5 87.5q0 14 3 31l4 20h106l-4 -20q-1 -5 -1 -13q0 -22 14.5 -35t40.5 -13h12q29 0 50 16.5t26 44.5l4 20h106l-4 -20q-14 -71 -64 -111t-126 -40h-12
q-72 0 -113.5 32.5z" />
    <glyph glyph-name="Hcircumflex" unicode="&#x124;" horiz-adv-x="726" 
d="M141 700h138l-51 -289h326l51 289h138l-123 -700h-138l51 291h-326l-51 -291h-138zM438 955h89l118 -186h-118l-57 97l-92 -97h-123z" />
    <glyph glyph-name="uni1E24" unicode="&#x1e24;" horiz-adv-x="726" 
d="M141 700h138l-51 -289h326l51 289h138l-123 -700h-138l51 291h-326l-51 -291h-138zM223 -211q-19 18 -19 47q0 45 27.5 72.5t71.5 27.5q31 0 50.5 -18t19.5 -47q0 -45 -27.5 -72.5t-71.5 -27.5q-32 0 -51 18z" />
    <glyph glyph-name="I" unicode="I" horiz-adv-x="282" 
d="M151 700h138l-123 -700h-138z" />
    <glyph glyph-name="IJ" unicode="&#x132;" horiz-adv-x="887" 
d="M151 700h138l-123 -700h-138zM347 45.5q-55 53.5 -55 144.5q0 23 5 55h136q-4 -28 -4 -38q0 -43 19.5 -68t53.5 -25h77q43 0 74 36t42 100l79 450h138l-80 -456q-21 -119 -88 -185.5t-166 -66.5h-83q-93 0 -148 53.5z" />
    <glyph glyph-name="Iacute" unicode="&#xcd;" horiz-adv-x="282" 
d="M151 700h138l-123 -700h-138zM293 949h154l-150 -180h-134z" />
    <glyph glyph-name="Ibreve" unicode="&#x12c;" horiz-adv-x="282" 
d="M151 700h138l-123 -700h-138zM118.5 793.5q-41.5 32.5 -41.5 87.5q0 15 3 31l4 20h106l-4 -20q-1 -5 -1 -13q0 -22 14.5 -35t40.5 -13h12q29 0 50 16.5t26 44.5l4 20h106l-4 -20q-14 -71 -64 -111t-126 -40h-12q-72 0 -113.5 32.5z" />
    <glyph glyph-name="uni01CF" unicode="&#x1cf;" horiz-adv-x="282" 
d="M151 700h138l-123 -700h-138zM70 955h117l58 -97l91 97h124l-184 -186h-89z" />
    <glyph glyph-name="Icircumflex" unicode="&#xce;" horiz-adv-x="282" 
d="M151 700h138l-123 -700h-138zM220 955h89l118 -186h-118l-57 97l-92 -97h-123z" />
    <glyph glyph-name="Idieresis" unicode="&#xcf;" horiz-adv-x="282" 
d="M151 700h138l-123 -700h-138zM64.5 786.5q-16.5 15.5 -16.5 40.5q0 39 23.5 62.5t62.5 23.5q27 0 43.5 -15.5t16.5 -40.5q0 -39 -23.5 -62.5t-61.5 -23.5q-28 0 -44.5 15.5zM313.5 786.5q-16.5 15.5 -16.5 40.5q0 39 23.5 62.5t61.5 23.5q28 0 44.5 -15.5t16.5 -40.5
q0 -39 -23.5 -62.5t-62.5 -23.5q-27 0 -43.5 15.5z" />
    <glyph glyph-name="Idotaccent" unicode="&#x130;" horiz-adv-x="282" 
d="M151 700h138l-123 -700h-138zM180 779q-19 18 -19 47q0 45 27.5 72.5t71.5 27.5q32 0 51 -18t19 -47q0 -45 -27.5 -72.5t-71.5 -27.5q-32 0 -51 18z" />
    <glyph glyph-name="uni1ECA" unicode="&#x1eca;" horiz-adv-x="282" 
d="M151 700h138l-123 -700h-138zM5 -211q-19 18 -19 47q0 45 27.5 72.5t71.5 27.5q31 0 50.5 -18t19.5 -47q0 -45 -27.5 -72.5t-71.5 -27.5q-32 0 -51 18z" />
    <glyph glyph-name="Igrave" unicode="&#xcc;" horiz-adv-x="282" 
d="M151 700h138l-123 -700h-138zM82 949h146l66 -180h-126z" />
    <glyph glyph-name="uni1EC8" unicode="&#x1ec8;" horiz-adv-x="282" 
d="M151 700h138l-123 -700h-138zM177 781q4 21 20 33.5t45 26.5q24 13 36.5 22.5t15.5 23.5l2 12q5 29 -27 29h-19q-37 0 -44 -39h-92q11 63 46.5 93t96.5 30h19q118 0 118 -89q0 -6 -2 -24l-2 -12q-5 -30 -22.5 -46.5t-47.5 -33.5q-19 -10 -28.5 -18t-10.5 -18l-2 -12h-106
z" />
    <glyph glyph-name="Imacron" unicode="&#x12a;" horiz-adv-x="282" 
d="M151 700h138l-123 -700h-138zM94 890h320l-19 -106h-320z" />
    <glyph glyph-name="Iogonek" unicode="&#x12e;" horiz-adv-x="282" 
d="M151 700h138l-123 -700h-138zM-5.5 -207q-32.5 24 -32.5 64q0 10 1 15l2 14q5 32 30.5 63.5t60.5 50.5h110q-34 -17 -57.5 -43t-29.5 -52l-2 -9q-1 -3 -1 -9q0 -14 10 -22t29 -8h15q17 0 36 5.5t32 14.5l-15 -84q-16 -11 -39 -17.5t-47 -6.5h-15q-55 0 -87.5 24z" />
    <glyph glyph-name="Itilde" unicode="&#x128;" horiz-adv-x="282" 
d="M151 700h138l-123 -700h-138zM264 771q-18 10 -39 28q-25 23 -39 23h-6q-13 0 -23 -14t-15 -39h-99q12 70 48 109.5t89 39.5h6q24 0 42 -10.5t42 -29.5q23 -21 34 -21h6q12 0 22 14t14 39h99q-13 -70 -48.5 -109.5t-85.5 -39.5h-6q-23 0 -41 10z" />
    <glyph glyph-name="J" unicode="J" horiz-adv-x="605" 
d="M65 45.5q-55 53.5 -55 144.5q0 23 5 55h136q-4 -28 -4 -38q0 -43 19.5 -68t53.5 -25h77q43 0 74 36t42 100l79 450h138l-80 -456q-21 -119 -88 -185.5t-166 -66.5h-83q-93 0 -148 53.5z" />
    <glyph glyph-name="Jcircumflex" unicode="&#x134;" horiz-adv-x="605" 
d="M65 45.5q-55 53.5 -55 144.5q0 23 5 55h136q-4 -28 -4 -38q0 -43 19.5 -68t53.5 -25h77q43 0 74 36t42 100l79 450h138l-80 -456q-21 -119 -88 -185.5t-166 -66.5h-83q-93 0 -148 53.5zM559 955h89l118 -186h-118l-57 97l-92 -97h-123z" />
    <glyph glyph-name="K" unicode="K" horiz-adv-x="674" 
d="M385 393l237 -393h-158l-183 299l-86 -77l-39 -222h-138l123 700h138l-52 -295l323 295h177z" />
    <glyph glyph-name="uni0136" unicode="&#x136;" horiz-adv-x="674" 
d="M385 393l237 -393h-158l-183 299l-86 -77l-39 -222h-138l123 700h138l-52 -295l323 295h177zM102 -240l35 27q31 25 48.5 52t23.5 60l7 39h136l-7 -39q-13 -70 -45 -121t-88 -90l-38 -27z" />
    <glyph glyph-name="L" unicode="L" horiz-adv-x="588" 
d="M54 19.5q-22 19.5 -22 53.5q0 6 2 20l107 607h138l-102 -580h380l-21 -120h-421q-39 0 -61 19.5z" />
    <glyph glyph-name="Lacute" unicode="&#x139;" horiz-adv-x="588" 
d="M54 19.5q-22 19.5 -22 53.5q0 6 2 20l107 607h138l-102 -580h380l-21 -120h-421q-39 0 -61 19.5zM283 949h154l-150 -180h-134z" />
    <glyph glyph-name="Lcaron" unicode="&#x13d;" horiz-adv-x="605" 
d="M54 19.5q-22 19.5 -22 53.5q0 6 2 20l107 607h138l-102 -580h380l-21 -120h-421q-39 0 -61 19.5zM426 512l35 27q31 25 48.5 52t23.5 60l9 49h136l-9 -49q-12 -68 -44.5 -119t-88.5 -92l-38 -27z" />
    <glyph glyph-name="uni013B" unicode="&#x13b;" horiz-adv-x="588" 
d="M54 19.5q-22 19.5 -22 53.5q0 6 2 20l107 607h138l-102 -580h380l-21 -120h-421q-39 0 -61 19.5zM91 -240l35 27q31 25 48.5 52t23.5 60l7 39h136l-7 -39q-13 -70 -45 -121t-88 -90l-38 -27z" />
    <glyph glyph-name="Ldot" unicode="&#x13f;" horiz-adv-x="588" 
d="M54 19.5q-22 19.5 -22 53.5q0 6 2 20l107 607h138l-102 -580h380l-21 -120h-421q-39 0 -61 19.5zM372 250q-19 18 -19 47q0 44 26.5 71.5t70.5 27.5q31 0 50 -18t19 -47q0 -44 -26.5 -71.5t-70.5 -27.5q-31 0 -50 18z" />
    <glyph glyph-name="uni1E36" unicode="&#x1e36;" horiz-adv-x="588" 
d="M54 19.5q-22 19.5 -22 53.5q0 6 2 20l107 607h138l-102 -580h380l-21 -120h-421q-39 0 -61 19.5zM190 -211q-19 18 -19 47q0 45 27.5 72.5t71.5 27.5q31 0 50.5 -18t19.5 -47q0 -45 -27.5 -72.5t-71.5 -27.5q-32 0 -51 18z" />
    <glyph glyph-name="uni1E38" unicode="&#x1e38;" horiz-adv-x="588" 
d="M54 19.5q-22 19.5 -22 53.5q0 6 2 20l107 607h138l-102 -580h380l-21 -120h-421q-39 0 -61 19.5zM190 -211q-19 18 -19 47q0 45 27.5 72.5t71.5 27.5q31 0 50.5 -18t19.5 -47q0 -45 -27.5 -72.5t-71.5 -27.5q-32 0 -51 18zM84 890h320l-19 -106h-320z" />
    <glyph glyph-name="uni1E3A" unicode="&#x1e3a;" horiz-adv-x="588" 
d="M54 19.5q-22 19.5 -22 53.5q0 6 2 20l107 607h138l-102 -580h380l-21 -120h-421q-39 0 -61 19.5zM107 -82h320l-19 -108h-320z" />
    <glyph glyph-name="Lslash" unicode="&#x141;" horiz-adv-x="608" 
d="M577 120l-21 -120h-421q-39 0 -61 19.5t-22 53.5q0 6 2 20l21 120l-81 -43l24 136l81 43l62 351h138l-48 -270l146 77l-24 -136l-145 -77l-31 -174h380z" />
    <glyph glyph-name="M" unicode="M" horiz-adv-x="823" 
d="M141 700h115l156 -416l297 416h131l-123 -700h-135l78 443l-194 -266q-19 -26 -36.5 -38t-38.5 -12h-38l-122 316l-78 -443h-135z" />
    <glyph glyph-name="uni1E42" unicode="&#x1e42;" horiz-adv-x="823" 
d="M141 700h115l156 -416l297 416h131l-123 -700h-135l78 443l-194 -266q-19 -26 -36.5 -38t-38.5 -12h-38l-122 316l-78 -443h-135zM277 -211q-19 18 -19 47q0 45 27.5 72.5t71.5 27.5q31 0 50.5 -18t19.5 -47q0 -45 -27.5 -72.5t-71.5 -27.5q-32 0 -51 18z" />
    <glyph glyph-name="N" unicode="N" horiz-adv-x="718" 
d="M141 700h117l258 -476l84 476h135l-123 -700h-117l-258 476l-84 -476h-135z" />
    <glyph glyph-name="Nacute" unicode="&#x143;" horiz-adv-x="718" 
d="M141 700h117l258 -476l84 476h135l-123 -700h-117l-258 476l-84 -476h-135zM511 949h154l-150 -180h-134z" />
    <glyph glyph-name="Ncaron" unicode="&#x147;" horiz-adv-x="718" 
d="M141 700h117l258 -476l84 476h135l-123 -700h-117l-258 476l-84 -476h-135zM288 955h117l58 -97l91 97h124l-184 -186h-89z" />
    <glyph glyph-name="uni0145" unicode="&#x145;" horiz-adv-x="718" 
d="M141 700h117l258 -476l84 476h135l-123 -700h-117l-258 476l-84 -476h-135zM124 -240l35 27q31 25 48.5 52t23.5 60l7 39h136l-7 -39q-13 -70 -45 -121t-88 -90l-38 -27z" />
    <glyph glyph-name="uni1E44" unicode="&#x1e44;" horiz-adv-x="718" 
d="M141 700h117l258 -476l84 476h135l-123 -700h-117l-258 476l-84 -476h-135zM398 779q-19 18 -19 47q0 45 27.5 72.5t71.5 27.5q32 0 51 -18t19 -47q0 -45 -27.5 -72.5t-71.5 -27.5q-32 0 -51 18z" />
    <glyph glyph-name="uni1E46" unicode="&#x1e46;" horiz-adv-x="718" 
d="M141 700h117l258 -476l84 476h135l-123 -700h-117l-258 476l-84 -476h-135zM223 -211q-19 18 -19 47q0 45 27.5 72.5t71.5 27.5q31 0 50.5 -18t19.5 -47q0 -45 -27.5 -72.5t-71.5 -27.5q-32 0 -51 18z" />
    <glyph glyph-name="Eng" unicode="&#x14a;" horiz-adv-x="721" 
d="M331 -93h67q65 0 80 87l1 6l-240 470l-83 -470h-138l123 700h120l252 -498l87 498h138l-123 -700q-18 -107 -71.5 -158t-166.5 -51h-66z" />
    <glyph glyph-name="uni1E48" unicode="&#x1e48;" horiz-adv-x="718" 
d="M141 700h117l258 -476l84 476h135l-123 -700h-117l-258 476l-84 -476h-135zM140 -82h320l-19 -108h-320z" />
    <glyph glyph-name="Ntilde" unicode="&#xd1;" horiz-adv-x="718" 
d="M141 700h117l258 -476l84 476h135l-123 -700h-117l-258 476l-84 -476h-135zM482 771q-18 10 -39 28q-25 23 -39 23h-6q-13 0 -23 -14t-15 -39h-99q12 70 48 109.5t89 39.5h6q24 0 42 -10.5t42 -29.5q23 -21 34 -21h6q12 0 22 14t14 39h99q-13 -70 -48.5 -109.5
t-85.5 -39.5h-6q-23 0 -41 10z" />
    <glyph glyph-name="O" unicode="O" horiz-adv-x="724" 
d="M150.5 18.5q-53.5 26.5 -82.5 75t-29 112.5q0 22 5 54l32 180q23 127 100 197.5t198 70.5h106q112 0 176.5 -57.5t64.5 -154.5q0 -24 -5 -56l-32 -180q-22 -127 -100.5 -197.5t-200.5 -70.5h-106q-73 0 -126.5 26.5zM391 114q61 0 102 40t54 112l30 168q3 20 3 37
q0 53 -28 84t-78 31h-106q-60 0 -101 -40t-54 -112l-30 -168q-3 -19 -3 -37q0 -53 28 -84t77 -31h106z" />
    <glyph glyph-name="Oacute" unicode="&#xd3;" horiz-adv-x="724" 
d="M150.5 18.5q-53.5 26.5 -82.5 75t-29 112.5q0 22 5 54l32 180q23 127 100 197.5t198 70.5h106q112 0 176.5 -57.5t64.5 -154.5q0 -24 -5 -56l-32 -180q-22 -127 -100.5 -197.5t-200.5 -70.5h-106q-73 0 -126.5 26.5zM391 114q61 0 102 40t54 112l30 168q3 20 3 37
q0 53 -28 84t-78 31h-106q-60 0 -101 -40t-54 -112l-30 -168q-3 -19 -3 -37q0 -53 28 -84t77 -31h106zM515 949h154l-150 -180h-134z" />
    <glyph glyph-name="Obreve" unicode="&#x14e;" horiz-adv-x="724" 
d="M150.5 18.5q-53.5 26.5 -82.5 75t-29 112.5q0 22 5 54l32 180q23 127 100 197.5t198 70.5h106q112 0 176.5 -57.5t64.5 -154.5q0 -24 -5 -56l-32 -180q-22 -127 -100.5 -197.5t-200.5 -70.5h-106q-73 0 -126.5 26.5zM391 114q61 0 102 40t54 112l30 168q3 20 3 37
q0 53 -28 84t-78 31h-106q-60 0 -101 -40t-54 -112l-30 -168q-3 -19 -3 -37q0 -53 28 -84t77 -31h106zM340.5 793.5q-41.5 32.5 -41.5 87.5q0 15 3 31l4 20h106l-4 -20q-1 -5 -1 -13q0 -22 14.5 -35t40.5 -13h12q29 0 50 16.5t26 44.5l4 20h106l-4 -20q-14 -71 -64 -111
t-126 -40h-12q-72 0 -113.5 32.5z" />
    <glyph glyph-name="uni01D1" unicode="&#x1d1;" horiz-adv-x="724" 
d="M150.5 18.5q-53.5 26.5 -82.5 75t-29 112.5q0 22 5 54l32 180q23 127 100 197.5t198 70.5h106q112 0 176.5 -57.5t64.5 -154.5q0 -24 -5 -56l-32 -180q-22 -127 -100.5 -197.5t-200.5 -70.5h-106q-73 0 -126.5 26.5zM391 114q61 0 102 40t54 112l30 168q3 20 3 37
q0 53 -28 84t-78 31h-106q-60 0 -101 -40t-54 -112l-30 -168q-3 -19 -3 -37q0 -53 28 -84t77 -31h106zM292 955h117l58 -97l91 97h124l-184 -186h-89z" />
    <glyph glyph-name="Ocircumflex" unicode="&#xd4;" horiz-adv-x="724" 
d="M150.5 18.5q-53.5 26.5 -82.5 75t-29 112.5q0 22 5 54l32 180q23 127 100 197.5t198 70.5h106q112 0 176.5 -57.5t64.5 -154.5q0 -24 -5 -56l-32 -180q-22 -127 -100.5 -197.5t-200.5 -70.5h-106q-73 0 -126.5 26.5zM391 114q61 0 102 40t54 112l30 168q3 20 3 37
q0 53 -28 84t-78 31h-106q-60 0 -101 -40t-54 -112l-30 -168q-3 -19 -3 -37q0 -53 28 -84t77 -31h106zM442 955h89l118 -186h-118l-57 97l-92 -97h-123z" />
    <glyph glyph-name="uni1ED0" unicode="&#x1ed0;" horiz-adv-x="724" 
d="M150.5 18.5q-53.5 26.5 -82.5 75t-29 112.5q0 22 5 54l32 180q23 127 100 197.5t198 70.5h106q112 0 176.5 -57.5t64.5 -154.5q0 -24 -5 -56l-32 -180q-22 -127 -100.5 -197.5t-200.5 -70.5h-106q-73 0 -126.5 26.5zM391 114q61 0 102 40t54 112l30 168q3 20 3 37
q0 53 -28 84t-78 31h-106q-60 0 -101 -40t-54 -112l-30 -168q-3 -19 -3 -37q0 -53 28 -84t77 -31h106zM700 1087h130l-126 -150h-112zM442 955h89l118 -186h-118l-57 97l-92 -97h-123z" />
    <glyph glyph-name="uni1ED8" unicode="&#x1ed8;" horiz-adv-x="724" 
d="M150.5 18.5q-53.5 26.5 -82.5 75t-29 112.5q0 22 5 54l32 180q23 127 100 197.5t198 70.5h106q112 0 176.5 -57.5t64.5 -154.5q0 -24 -5 -56l-32 -180q-22 -127 -100.5 -197.5t-200.5 -70.5h-106q-73 0 -126.5 26.5zM391 114q61 0 102 40t54 112l30 168q3 20 3 37
q0 53 -28 84t-78 31h-106q-60 0 -101 -40t-54 -112l-30 -168q-3 -19 -3 -37q0 -53 28 -84t77 -31h106zM239 -211q-19 18 -19 47q0 45 27.5 72.5t71.5 27.5q31 0 50.5 -18t19.5 -47q0 -45 -27.5 -72.5t-71.5 -27.5q-32 0 -51 18zM442 955h89l118 -186h-118l-57 97l-92 -97
h-123z" />
    <glyph glyph-name="uni1ED2" unicode="&#x1ed2;" horiz-adv-x="724" 
d="M150.5 18.5q-53.5 26.5 -82.5 75t-29 112.5q0 22 5 54l32 180q23 127 100 197.5t198 70.5h106q112 0 176.5 -57.5t64.5 -154.5q0 -24 -5 -56l-32 -180q-22 -127 -100.5 -197.5t-200.5 -70.5h-106q-73 0 -126.5 26.5zM391 114q61 0 102 40t54 112l30 168q3 20 3 37
q0 53 -28 84t-78 31h-106q-60 0 -101 -40t-54 -112l-30 -168q-3 -19 -3 -37q0 -53 28 -84t77 -31h106zM562 1087h122l56 -150h-104zM442 955h89l118 -186h-118l-57 97l-92 -97h-123z" />
    <glyph glyph-name="uni1ED4" unicode="&#x1ed4;" horiz-adv-x="724" 
d="M150.5 18.5q-53.5 26.5 -82.5 75t-29 112.5q0 22 5 54l32 180q23 127 100 197.5t198 70.5h106q112 0 176.5 -57.5t64.5 -154.5q0 -24 -5 -56l-32 -180q-22 -127 -100.5 -197.5t-200.5 -70.5h-106q-73 0 -126.5 26.5zM391 114q61 0 102 40t54 112l30 168q3 20 3 37
q0 53 -28 84t-78 31h-106q-60 0 -101 -40t-54 -112l-30 -168q-3 -19 -3 -37q0 -53 28 -84t77 -31h106zM620 925q3 18 16 28.5t39 22.5q22 11 32.5 19t12.5 20l2 13v5q0 18 -21 18h-17q-29 0 -33 -31h-84q16 107 119 107h17q53 0 81 -20t28 -59q0 -6 -2 -20l-2 -13
q-4 -26 -19 -40.5t-42 -29.5q-16 -9 -24.5 -15t-9.5 -15l-2 -10h-94zM442 955h89l118 -186h-118l-57 97l-92 -97h-123z" />
    <glyph glyph-name="uni1ED6" unicode="&#x1ed6;" horiz-adv-x="724" 
d="M150.5 18.5q-53.5 26.5 -82.5 75t-29 112.5q0 22 5 54l32 180q23 127 100 197.5t198 70.5h106q112 0 176.5 -57.5t64.5 -154.5q0 -24 -5 -56l-32 -180q-22 -127 -100.5 -197.5t-200.5 -70.5h-106q-73 0 -126.5 26.5zM391 114q61 0 102 40t54 112l30 168q3 20 3 37
q0 53 -28 84t-78 31h-106q-60 0 -101 -40t-54 -112l-30 -168q-3 -19 -3 -37q0 -53 28 -84t77 -31h106zM526.5 992.5q-14.5 7.5 -32.5 22.5q-14 11 -22.5 16t-19.5 5h-5q-14 0 -23.5 -11.5t-12.5 -30.5h-90q11 59 44 92.5t82 33.5h6q22 0 37.5 -8t33.5 -23q14 -11 22 -15.5
t17 -4.5h5q12 0 21 11.5t13 30.5h90q-11 -59 -43.5 -92.5t-78.5 -33.5h-6q-23 0 -37.5 7.5zM442 955h89l118 -186h-118l-57 97l-92 -97h-123z" />
    <glyph glyph-name="Odieresis" unicode="&#xd6;" horiz-adv-x="724" 
d="M150.5 18.5q-53.5 26.5 -82.5 75t-29 112.5q0 22 5 54l32 180q23 127 100 197.5t198 70.5h106q112 0 176.5 -57.5t64.5 -154.5q0 -24 -5 -56l-32 -180q-22 -127 -100.5 -197.5t-200.5 -70.5h-106q-73 0 -126.5 26.5zM391 114q61 0 102 40t54 112l30 168q3 20 3 37
q0 53 -28 84t-78 31h-106q-60 0 -101 -40t-54 -112l-30 -168q-3 -19 -3 -37q0 -53 28 -84t77 -31h106zM286.5 786.5q-16.5 15.5 -16.5 40.5q0 39 23.5 62.5t62.5 23.5q27 0 43.5 -15.5t16.5 -40.5q0 -39 -23.5 -62.5t-61.5 -23.5q-28 0 -44.5 15.5zM535.5 786.5
q-16.5 15.5 -16.5 40.5q0 39 23.5 62.5t61.5 23.5q28 0 44.5 -15.5t16.5 -40.5q0 -39 -23.5 -62.5t-62.5 -23.5q-27 0 -43.5 15.5z" />
    <glyph glyph-name="uni1ECC" unicode="&#x1ecc;" horiz-adv-x="724" 
d="M150.5 18.5q-53.5 26.5 -82.5 75t-29 112.5q0 22 5 54l32 180q23 127 100 197.5t198 70.5h106q112 0 176.5 -57.5t64.5 -154.5q0 -24 -5 -56l-32 -180q-22 -127 -100.5 -197.5t-200.5 -70.5h-106q-73 0 -126.5 26.5zM391 114q61 0 102 40t54 112l30 168q3 20 3 37
q0 53 -28 84t-78 31h-106q-60 0 -101 -40t-54 -112l-30 -168q-3 -19 -3 -37q0 -53 28 -84t77 -31h106zM239 -211q-19 18 -19 47q0 45 27.5 72.5t71.5 27.5q31 0 50.5 -18t19.5 -47q0 -45 -27.5 -72.5t-71.5 -27.5q-32 0 -51 18z" />
    <glyph glyph-name="Ograve" unicode="&#xd2;" horiz-adv-x="724" 
d="M150.5 18.5q-53.5 26.5 -82.5 75t-29 112.5q0 22 5 54l32 180q23 127 100 197.5t198 70.5h106q112 0 176.5 -57.5t64.5 -154.5q0 -24 -5 -56l-32 -180q-22 -127 -100.5 -197.5t-200.5 -70.5h-106q-73 0 -126.5 26.5zM391 114q61 0 102 40t54 112l30 168q3 20 3 37
q0 53 -28 84t-78 31h-106q-60 0 -101 -40t-54 -112l-30 -168q-3 -19 -3 -37q0 -53 28 -84t77 -31h106zM304 949h146l66 -180h-126z" />
    <glyph glyph-name="uni1ECE" unicode="&#x1ece;" horiz-adv-x="724" 
d="M150.5 18.5q-53.5 26.5 -82.5 75t-29 112.5q0 22 5 54l32 180q23 127 100 197.5t198 70.5h106q112 0 176.5 -57.5t64.5 -154.5q0 -24 -5 -56l-32 -180q-22 -127 -100.5 -197.5t-200.5 -70.5h-106q-73 0 -126.5 26.5zM391 114q61 0 102 40t54 112l30 168q3 20 3 37
q0 53 -28 84t-78 31h-106q-60 0 -101 -40t-54 -112l-30 -168q-3 -19 -3 -37q0 -53 28 -84t77 -31h106zM399 781q4 21 20 33.5t45 26.5q24 13 36.5 22.5t15.5 23.5l2 12q5 29 -27 29h-19q-37 0 -44 -39h-92q11 63 46.5 93t96.5 30h19q118 0 118 -89q0 -6 -2 -24l-2 -12
q-5 -30 -22.5 -46.5t-47.5 -33.5q-19 -10 -28.5 -18t-10.5 -18l-2 -12h-106z" />
    <glyph glyph-name="Ohorn" unicode="&#x1a0;" horiz-adv-x="833" 
d="M941 707l-9 -48q-18 -95 -70.5 -148t-128.5 -53h-14l-3 -18l-32 -180q-22 -127 -100.5 -197.5t-200.5 -70.5h-106q-73 0 -126.5 26.5t-82.5 75t-29 112.5q0 22 5 54l32 180q23 127 100 197.5t198 70.5h106q88 0 148 -36.5t82 -101.5h19q28 0 48 23.5t28 65.5l9 48h127z
M580 471q0 53 -28 84t-78 31h-106q-60 0 -101 -40t-54 -112l-30 -168q-3 -19 -3 -37q0 -53 28 -84t77 -31h106q61 0 102 40t54 112l30 168q3 20 3 37z" />
    <glyph glyph-name="uni1EDA" unicode="&#x1eda;" horiz-adv-x="833" 
d="M941 707l-9 -48q-18 -95 -70.5 -148t-128.5 -53h-14l-3 -18l-32 -180q-22 -127 -100.5 -197.5t-200.5 -70.5h-106q-73 0 -126.5 26.5t-82.5 75t-29 112.5q0 22 5 54l32 180q23 127 100 197.5t198 70.5h106q88 0 148 -36.5t82 -101.5h19q28 0 48 23.5t28 65.5l9 48h127z
M580 471q0 53 -28 84t-78 31h-106q-60 0 -101 -40t-54 -112l-30 -168q-3 -19 -3 -37q0 -53 28 -84t77 -31h106q61 0 102 40t54 112l30 168q3 20 3 37zM515 949h154l-150 -180h-134z" />
    <glyph glyph-name="uni1EE2" unicode="&#x1ee2;" horiz-adv-x="833" 
d="M941 707l-9 -48q-18 -95 -70.5 -148t-128.5 -53h-14l-3 -18l-32 -180q-22 -127 -100.5 -197.5t-200.5 -70.5h-106q-73 0 -126.5 26.5t-82.5 75t-29 112.5q0 22 5 54l32 180q23 127 100 197.5t198 70.5h106q88 0 148 -36.5t82 -101.5h19q28 0 48 23.5t28 65.5l9 48h127z
M580 471q0 53 -28 84t-78 31h-106q-60 0 -101 -40t-54 -112l-30 -168q-3 -19 -3 -37q0 -53 28 -84t77 -31h106q61 0 102 40t54 112l30 168q3 20 3 37zM226 -211q-19 18 -19 47q0 45 27.5 72.5t71.5 27.5q31 0 50.5 -18t19.5 -47q0 -45 -27.5 -72.5t-71.5 -27.5q-32 0 -51 18
z" />
    <glyph glyph-name="uni1EDC" unicode="&#x1edc;" horiz-adv-x="833" 
d="M941 707l-9 -48q-18 -95 -70.5 -148t-128.5 -53h-14l-3 -18l-32 -180q-22 -127 -100.5 -197.5t-200.5 -70.5h-106q-73 0 -126.5 26.5t-82.5 75t-29 112.5q0 22 5 54l32 180q23 127 100 197.5t198 70.5h106q88 0 148 -36.5t82 -101.5h19q28 0 48 23.5t28 65.5l9 48h127z
M580 471q0 53 -28 84t-78 31h-106q-60 0 -101 -40t-54 -112l-30 -168q-3 -19 -3 -37q0 -53 28 -84t77 -31h106q61 0 102 40t54 112l30 168q3 20 3 37zM304 949h146l66 -180h-126z" />
    <glyph glyph-name="uni1EDE" unicode="&#x1ede;" horiz-adv-x="833" 
d="M941 707l-9 -48q-18 -95 -70.5 -148t-128.5 -53h-14l-3 -18l-32 -180q-22 -127 -100.5 -197.5t-200.5 -70.5h-106q-73 0 -126.5 26.5t-82.5 75t-29 112.5q0 22 5 54l32 180q23 127 100 197.5t198 70.5h106q88 0 148 -36.5t82 -101.5h19q28 0 48 23.5t28 65.5l9 48h127z
M580 471q0 53 -28 84t-78 31h-106q-60 0 -101 -40t-54 -112l-30 -168q-3 -19 -3 -37q0 -53 28 -84t77 -31h106q61 0 102 40t54 112l30 168q3 20 3 37zM399 781q4 21 20 33.5t45 26.5q24 13 36.5 22.5t15.5 23.5l2 12q5 29 -27 29h-19q-37 0 -44 -39h-92q11 63 46.5 93
t96.5 30h19q118 0 118 -89q0 -6 -2 -24l-2 -12q-5 -30 -22.5 -46.5t-47.5 -33.5q-19 -10 -28.5 -18t-10.5 -18l-2 -12h-106z" />
    <glyph glyph-name="uni1EE0" unicode="&#x1ee0;" horiz-adv-x="833" 
d="M941 707l-9 -48q-18 -95 -70.5 -148t-128.5 -53h-14l-3 -18l-32 -180q-22 -127 -100.5 -197.5t-200.5 -70.5h-106q-73 0 -126.5 26.5t-82.5 75t-29 112.5q0 22 5 54l32 180q23 127 100 197.5t198 70.5h106q88 0 148 -36.5t82 -101.5h19q28 0 48 23.5t28 65.5l9 48h127z
M580 471q0 53 -28 84t-78 31h-106q-60 0 -101 -40t-54 -112l-30 -168q-3 -19 -3 -37q0 -53 28 -84t77 -31h106q61 0 102 40t54 112l30 168q3 20 3 37zM486 771q-18 10 -39 28q-25 23 -39 23h-6q-13 0 -23 -14t-15 -39h-99q12 70 48 109.5t89 39.5h6q24 0 42 -10.5t42 -29.5
q23 -21 34 -21h6q12 0 22 14t14 39h99q-13 -70 -48.5 -109.5t-85.5 -39.5h-6q-23 0 -41 10z" />
    <glyph glyph-name="Ohungarumlaut" unicode="&#x150;" horiz-adv-x="724" 
d="M150.5 18.5q-53.5 26.5 -82.5 75t-29 112.5q0 22 5 54l32 180q23 127 100 197.5t198 70.5h106q112 0 176.5 -57.5t64.5 -154.5q0 -24 -5 -56l-32 -180q-22 -127 -100.5 -197.5t-200.5 -70.5h-106q-73 0 -126.5 26.5zM391 114q61 0 102 40t54 112l30 168q3 20 3 37
q0 53 -28 84t-78 31h-106q-60 0 -101 -40t-54 -112l-30 -168q-3 -19 -3 -37q0 -53 28 -84t77 -31h106zM416 949h144l-150 -180h-124zM610 949h144l-150 -180h-124z" />
    <glyph glyph-name="Omacron" unicode="&#x14c;" horiz-adv-x="724" 
d="M150.5 18.5q-53.5 26.5 -82.5 75t-29 112.5q0 22 5 54l32 180q23 127 100 197.5t198 70.5h106q112 0 176.5 -57.5t64.5 -154.5q0 -24 -5 -56l-32 -180q-22 -127 -100.5 -197.5t-200.5 -70.5h-106q-73 0 -126.5 26.5zM391 114q61 0 102 40t54 112l30 168q3 20 3 37
q0 53 -28 84t-78 31h-106q-60 0 -101 -40t-54 -112l-30 -168q-3 -19 -3 -37q0 -53 28 -84t77 -31h106zM316 890h320l-19 -106h-320z" />
    <glyph glyph-name="Oslash" unicode="&#xd8;" horiz-adv-x="724" 
d="M675 632q46 -54 46 -136q0 -24 -5 -56l-32 -180q-22 -127 -100.5 -197.5t-200.5 -70.5h-106q-67 0 -121 24l-63 -74h-111l105 125q-48 56 -48 140q0 23 5 53l32 180q23 127 100 197.5t198 70.5h106q72 0 127 -25l58 68h111zM179 230q0 -21 7 -46l333 394q-21 8 -45 8
h-106q-60 0 -101 -40t-54 -112l-30 -168q-4 -26 -4 -36zM580 471q0 22 -5 42l-331 -392q17 -7 41 -7h106q61 0 102 40t54 112l30 168q3 20 3 37z" />
    <glyph glyph-name="Oslashacute" unicode="&#x1fe;" horiz-adv-x="724" 
d="M675 632q46 -54 46 -136q0 -24 -5 -56l-32 -180q-22 -127 -100.5 -197.5t-200.5 -70.5h-106q-67 0 -121 24l-63 -74h-111l105 125q-48 56 -48 140q0 23 5 53l32 180q23 127 100 197.5t198 70.5h106q72 0 127 -25l58 68h111zM179 230q0 -21 7 -46l333 394q-21 8 -45 8
h-106q-60 0 -101 -40t-54 -112l-30 -168q-4 -26 -4 -36zM580 471q0 22 -5 42l-331 -392q17 -7 41 -7h106q61 0 102 40t54 112l30 168q3 20 3 37zM515 949h154l-150 -180h-134z" />
    <glyph glyph-name="Otilde" unicode="&#xd5;" horiz-adv-x="724" 
d="M150.5 18.5q-53.5 26.5 -82.5 75t-29 112.5q0 22 5 54l32 180q23 127 100 197.5t198 70.5h106q112 0 176.5 -57.5t64.5 -154.5q0 -24 -5 -56l-32 -180q-22 -127 -100.5 -197.5t-200.5 -70.5h-106q-73 0 -126.5 26.5zM391 114q61 0 102 40t54 112l30 168q3 20 3 37
q0 53 -28 84t-78 31h-106q-60 0 -101 -40t-54 -112l-30 -168q-3 -19 -3 -37q0 -53 28 -84t77 -31h106zM486 771q-18 10 -39 28q-25 23 -39 23h-6q-13 0 -23 -14t-15 -39h-99q12 70 48 109.5t89 39.5h6q24 0 42 -10.5t42 -29.5q23 -21 34 -21h6q12 0 22 14t14 39h99
q-13 -70 -48.5 -109.5t-85.5 -39.5h-6q-23 0 -41 10z" />
    <glyph glyph-name="OE" unicode="&#x152;" horiz-adv-x="1098" 
d="M103 49.5q-64 57.5 -64 154.5q0 32 5 56l32 180q22 126 101.5 197t198.5 71h104q53 0 98 -19.5t67 -51.5l12 63h488l-22 -120h-383l-28 -162h353l-21 -120h-353l-32 -178h383l-21 -120h-394q-32 0 -53 16t-26 44l-1 6q-32 -35 -77 -54.5t-92 -19.5h-100q-111 0 -175 57.5
zM391 114q61 0 102 40t54 112l30 168q3 20 3 37q0 53 -28 84t-78 31h-106q-61 0 -101.5 -40t-53.5 -112l-30 -168q-3 -19 -3 -37q0 -53 28 -84t77 -31h106z" />
    <glyph glyph-name="P" unicode="P" horiz-adv-x="652" 
d="M141 700h353q89 0 141 -42t52 -113q0 -17 -3 -35l-16 -93q-16 -93 -76.5 -144.5t-157.5 -51.5h-239l-39 -221h-138zM437 341q37 0 61.5 21.5t31.5 60.5l16 81q2 12 2 18q0 27 -16.5 42.5t-44.5 15.5h-229l-42 -239h221z" />
    <glyph glyph-name="Thorn" unicode="&#xde;" horiz-adv-x="666" 
d="M616.5 550.5q51.5 -41.5 51.5 -112.5q0 -16 -3 -36l-17 -93q-17 -92 -79.5 -144t-158.5 -52h-234l-20 -113h-138l104 592h1l18 108h138l-18 -108h215q89 0 140.5 -41.5zM528 413q0 27 -16 43t-44 16h-229l-42 -239h221q38 0 62.5 21.5t31.5 60.5l14 81q2 12 2 17z" />
    <glyph glyph-name="Q" unicode="Q" horiz-adv-x="728" 
d="M656.5 650.5q64.5 -57.5 64.5 -154.5q0 -24 -5 -56l-31 -172q-15 -82 -71 -150l64 -75l-101 -90l-66 78q-69 -39 -141 -39h-93q-73 0 -126.5 26.5t-82.5 75t-29 112.5q0 22 5 54l32 180q23 127 100 197.5t198 70.5h106q112 0 176.5 -57.5zM530 218q13 25 17 50l30 166
q3 20 3 37q0 53 -28 84t-78 31h-106q-60 0 -101 -40t-54 -112l-30 -168q-3 -19 -3 -37q0 -53 28 -84t77 -31h106q21 0 42 9l-77 91l101 90z" />
    <glyph glyph-name="R" unicode="R" horiz-adv-x="678" 
d="M141 700h356q87 0 138.5 -40t51.5 -107q0 -14 -3 -31l-12 -70q-9 -52 -46 -90.5t-96 -58.5v-2q29 -21 40.5 -48t18.5 -75l25 -178h-143l-24 166q-6 43 -25 64t-53 21h-169l-44 -251h-138zM429 370q42 0 70.5 22.5t34.5 58.5l11 65q1 4 1 12q0 24 -15 38t-41 14h-232
l-37 -210h208z" />
    <glyph glyph-name="Racute" unicode="&#x154;" horiz-adv-x="678" 
d="M141 700h356q87 0 138.5 -40t51.5 -107q0 -14 -3 -31l-12 -70q-9 -52 -46 -90.5t-96 -58.5v-2q29 -21 40.5 -48t18.5 -75l25 -178h-143l-24 166q-6 43 -25 64t-53 21h-169l-44 -251h-138zM429 370q42 0 70.5 22.5t34.5 58.5l11 65q1 4 1 12q0 24 -15 38t-41 14h-232
l-37 -210h208zM486 949h154l-150 -180h-134z" />
    <glyph glyph-name="Rcaron" unicode="&#x158;" horiz-adv-x="678" 
d="M141 700h356q87 0 138.5 -40t51.5 -107q0 -14 -3 -31l-12 -70q-9 -52 -46 -90.5t-96 -58.5v-2q29 -21 40.5 -48t18.5 -75l25 -178h-143l-24 166q-6 43 -25 64t-53 21h-169l-44 -251h-138zM429 370q42 0 70.5 22.5t34.5 58.5l11 65q1 4 1 12q0 24 -15 38t-41 14h-232
l-37 -210h208zM263 955h117l58 -97l91 97h124l-184 -186h-89z" />
    <glyph glyph-name="uni0156" unicode="&#x156;" horiz-adv-x="678" 
d="M141 700h356q87 0 138.5 -40t51.5 -107q0 -14 -3 -31l-12 -70q-9 -52 -46 -90.5t-96 -58.5v-2q29 -21 40.5 -48t18.5 -75l25 -178h-143l-24 166q-6 43 -25 64t-53 21h-169l-44 -251h-138zM429 370q42 0 70.5 22.5t34.5 58.5l11 65q1 4 1 12q0 24 -15 38t-41 14h-232
l-37 -210h208zM114 -240l35 27q31 25 48.5 52t23.5 60l7 39h136l-7 -39q-13 -70 -45 -121t-88 -90l-38 -27z" />
    <glyph glyph-name="uni1E5A" unicode="&#x1e5a;" horiz-adv-x="678" 
d="M141 700h356q87 0 138.5 -40t51.5 -107q0 -14 -3 -31l-12 -70q-9 -52 -46 -90.5t-96 -58.5v-2q29 -21 40.5 -48t18.5 -75l25 -178h-143l-24 166q-6 43 -25 64t-53 21h-169l-44 -251h-138zM429 370q42 0 70.5 22.5t34.5 58.5l11 65q1 4 1 12q0 24 -15 38t-41 14h-232
l-37 -210h208zM213 -211q-19 18 -19 47q0 45 27.5 72.5t71.5 27.5q31 0 50.5 -18t19.5 -47q0 -45 -27.5 -72.5t-71.5 -27.5q-32 0 -51 18z" />
    <glyph glyph-name="uni1E5C" unicode="&#x1e5c;" horiz-adv-x="678" 
d="M141 700h356q87 0 138.5 -40t51.5 -107q0 -14 -3 -31l-12 -70q-9 -52 -46 -90.5t-96 -58.5v-2q29 -21 40.5 -48t18.5 -75l25 -178h-143l-24 166q-6 43 -25 64t-53 21h-169l-44 -251h-138zM429 370q42 0 70.5 22.5t34.5 58.5l11 65q1 4 1 12q0 24 -15 38t-41 14h-232
l-37 -210h208zM213 -211q-19 18 -19 47q0 45 27.5 72.5t71.5 27.5q31 0 50.5 -18t19.5 -47q0 -45 -27.5 -72.5t-71.5 -27.5q-32 0 -51 18zM287 890h320l-19 -106h-320z" />
    <glyph glyph-name="uni1E5E" unicode="&#x1e5e;" horiz-adv-x="678" 
d="M141 700h356q87 0 138.5 -40t51.5 -107q0 -14 -3 -31l-12 -70q-9 -52 -46 -90.5t-96 -58.5v-2q29 -21 40.5 -48t18.5 -75l25 -178h-143l-24 166q-6 43 -25 64t-53 21h-169l-44 -251h-138zM429 370q42 0 70.5 22.5t34.5 58.5l11 65q1 4 1 12q0 24 -15 38t-41 14h-232
l-37 -210h208zM130 -82h320l-19 -108h-320z" />
    <glyph glyph-name="S" unicode="S" horiz-adv-x="656" 
d="M86.5 42q-56.5 50 -56.5 135q0 25 4 48h136q-2 -18 -2 -25q0 -40 22 -63t60 -23h110q44 0 75 18.5t36 49.5l6 35l1 9q0 20 -16 33.5t-46 18.5l-177 31q-157 27 -157 135q0 15 3 30l10 56q15 84 80.5 131t166.5 47h112q93 0 147 -46.5t54 -125.5q0 -23 -4 -43h-136
q2 16 2 22q0 33 -18.5 52t-50.5 19h-112q-42 0 -71 -18t-34 -48l-5 -28q-1 -4 -1 -11q0 -40 59 -51l177 -32q160 -29 160 -135q0 -7 -2 -25l-11 -66q-14 -85 -80.5 -132.5t-171.5 -47.5h-114q-99 0 -155.5 50z" />
    <glyph glyph-name="Sacute" unicode="&#x15a;" horiz-adv-x="656" 
d="M86.5 42q-56.5 50 -56.5 135q0 25 4 48h136q-2 -18 -2 -25q0 -40 22 -63t60 -23h110q44 0 75 18.5t36 49.5l6 35l1 9q0 20 -16 33.5t-46 18.5l-177 31q-157 27 -157 135q0 15 3 30l10 56q15 84 80.5 131t166.5 47h112q93 0 147 -46.5t54 -125.5q0 -23 -4 -43h-136
q2 16 2 22q0 33 -18.5 52t-50.5 19h-112q-42 0 -71 -18t-34 -48l-5 -28q-1 -4 -1 -11q0 -40 59 -51l177 -32q160 -29 160 -135q0 -7 -2 -25l-11 -66q-14 -85 -80.5 -132.5t-171.5 -47.5h-114q-99 0 -155.5 50zM465 949h154l-150 -180h-134z" />
    <glyph glyph-name="Scaron" unicode="&#x160;" horiz-adv-x="656" 
d="M86.5 42q-56.5 50 -56.5 135q0 25 4 48h136q-2 -18 -2 -25q0 -40 22 -63t60 -23h110q44 0 75 18.5t36 49.5l6 35l1 9q0 20 -16 33.5t-46 18.5l-177 31q-157 27 -157 135q0 15 3 30l10 56q15 84 80.5 131t166.5 47h112q93 0 147 -46.5t54 -125.5q0 -23 -4 -43h-136
q2 16 2 22q0 33 -18.5 52t-50.5 19h-112q-42 0 -71 -18t-34 -48l-5 -28q-1 -4 -1 -11q0 -40 59 -51l177 -32q160 -29 160 -135q0 -7 -2 -25l-11 -66q-14 -85 -80.5 -132.5t-171.5 -47.5h-114q-99 0 -155.5 50zM242 955h117l58 -97l91 97h124l-184 -186h-89z" />
    <glyph glyph-name="Scedilla" unicode="&#x15e;" horiz-adv-x="656" 
d="M515 493q2 16 2 22q0 33 -18.5 52t-50.5 19h-112q-42 0 -71 -18t-34 -48l-5 -28q-1 -4 -1 -11q0 -40 59 -51l177 -32q160 -29 160 -135q0 -7 -2 -25l-11 -66q-14 -85 -80.5 -132.5t-171.5 -47.5h-15l-24 -38h10q34 0 54 -17.5t20 -49.5q0 -10 -1 -16l-3 -20
q-7 -47 -44 -74t-95 -27h-107l14 82h86q18 0 30 6t14 17l3 15q2 9 -6 14.5t-23 5.5h-66l9 52l30 50q-99 0 -155.5 50t-56.5 135q0 25 4 48h136q-2 -18 -2 -25q0 -40 22 -63t60 -23h110q44 0 75 18.5t36 49.5l6 35l1 9q0 20 -16 33.5t-46 18.5l-177 31q-157 27 -157 135
q0 15 3 30l10 56q15 84 80.5 131t166.5 47h112q93 0 147 -46.5t54 -125.5q0 -23 -4 -43h-136z" />
    <glyph glyph-name="Scircumflex" unicode="&#x15c;" horiz-adv-x="656" 
d="M86.5 42q-56.5 50 -56.5 135q0 25 4 48h136q-2 -18 -2 -25q0 -40 22 -63t60 -23h110q44 0 75 18.5t36 49.5l6 35l1 9q0 20 -16 33.5t-46 18.5l-177 31q-157 27 -157 135q0 15 3 30l10 56q15 84 80.5 131t166.5 47h112q93 0 147 -46.5t54 -125.5q0 -23 -4 -43h-136
q2 16 2 22q0 33 -18.5 52t-50.5 19h-112q-42 0 -71 -18t-34 -48l-5 -28q-1 -4 -1 -11q0 -40 59 -51l177 -32q160 -29 160 -135q0 -7 -2 -25l-11 -66q-14 -85 -80.5 -132.5t-171.5 -47.5h-114q-99 0 -155.5 50zM392 955h89l118 -186h-118l-57 97l-92 -97h-123z" />
    <glyph glyph-name="uni0218" unicode="&#x218;" horiz-adv-x="656" 
d="M86.5 42q-56.5 50 -56.5 135q0 25 4 48h136q-2 -18 -2 -25q0 -40 22 -63t60 -23h110q44 0 75 18.5t36 49.5l6 35l1 9q0 20 -16 33.5t-46 18.5l-177 31q-157 27 -157 135q0 15 3 30l10 56q15 84 80.5 131t166.5 47h112q93 0 147 -46.5t54 -125.5q0 -23 -4 -43h-136
q2 16 2 22q0 33 -18.5 52t-50.5 19h-112q-42 0 -71 -18t-34 -48l-5 -28q-1 -4 -1 -11q0 -40 59 -51l177 -32q160 -29 160 -135q0 -7 -2 -25l-11 -66q-14 -85 -80.5 -132.5t-171.5 -47.5h-114q-99 0 -155.5 50zM112 -240l35 27q31 25 48.5 52t23.5 60l7 39h136l-7 -39
q-13 -70 -45 -121t-88 -90l-38 -27z" />
    <glyph glyph-name="uni1E60" unicode="&#x1e60;" horiz-adv-x="656" 
d="M86.5 42q-56.5 50 -56.5 135q0 25 4 48h136q-2 -18 -2 -25q0 -40 22 -63t60 -23h110q44 0 75 18.5t36 49.5l6 35l1 9q0 20 -16 33.5t-46 18.5l-177 31q-157 27 -157 135q0 15 3 30l10 56q15 84 80.5 131t166.5 47h112q93 0 147 -46.5t54 -125.5q0 -23 -4 -43h-136
q2 16 2 22q0 33 -18.5 52t-50.5 19h-112q-42 0 -71 -18t-34 -48l-5 -28q-1 -4 -1 -11q0 -40 59 -51l177 -32q160 -29 160 -135q0 -7 -2 -25l-11 -66q-14 -85 -80.5 -132.5t-171.5 -47.5h-114q-99 0 -155.5 50zM352 779q-19 18 -19 47q0 45 27.5 72.5t71.5 27.5q32 0 51 -18
t19 -47q0 -45 -27.5 -72.5t-71.5 -27.5q-32 0 -51 18z" />
    <glyph glyph-name="uni1E62" unicode="&#x1e62;" horiz-adv-x="656" 
d="M86.5 42q-56.5 50 -56.5 135q0 25 4 48h136q-2 -18 -2 -25q0 -40 22 -63t60 -23h110q44 0 75 18.5t36 49.5l6 35l1 9q0 20 -16 33.5t-46 18.5l-177 31q-157 27 -157 135q0 15 3 30l10 56q15 84 80.5 131t166.5 47h112q93 0 147 -46.5t54 -125.5q0 -23 -4 -43h-136
q2 16 2 22q0 33 -18.5 52t-50.5 19h-112q-42 0 -71 -18t-34 -48l-5 -28q-1 -4 -1 -11q0 -40 59 -51l177 -32q160 -29 160 -135q0 -7 -2 -25l-11 -66q-14 -85 -80.5 -132.5t-171.5 -47.5h-114q-99 0 -155.5 50zM211 -211q-19 18 -19 47q0 45 27.5 72.5t71.5 27.5
q31 0 50.5 -18t19.5 -47q0 -45 -27.5 -72.5t-71.5 -27.5q-32 0 -51 18z" />
    <glyph glyph-name="uni1E9E" unicode="&#x1e9e;" horiz-adv-x="681" 
d="M270 29.5q-44 37.5 -44 100.5q0 16 3 32h124q-1 -4 -1 -13q0 -19 11 -30t30 -11h53q24 0 41 18t23 50l6 32q2 14 2 19q0 19 -10.5 33t-35.5 24l-137 55l13 73l148 170h-136q-53 0 -87.5 -28t-42.5 -78l-84 -476h-136l84 476q19 106 94.5 165t191.5 59h297l-16 -94
l-169 -196l60 -26q53 -22 77.5 -54.5t24.5 -78.5q0 -23 -4 -43l-6 -32q-16 -87 -70 -135.5t-134 -48.5h-53q-73 0 -117 37.5z" />
    <glyph glyph-name="uni018F" unicode="&#x18f;" horiz-adv-x="736" 
d="M667.5 653q67.5 -55 67.5 -148q0 -25 -4 -46l-36 -204q-22 -124 -103 -193.5t-204 -69.5h-114q-72 0 -125.5 25.5t-82.5 72.5t-29 109q0 21 5 49l15 83l10 57h513l13 71q2 9 2 26q0 47 -31.5 75t-85.5 28h-106q-62 0 -102 -33t-50 -92h-136q20 116 98 180.5t196 64.5h106
q116 0 183.5 -55zM502 149.5q43 37.5 55 105.5l2 13h-375l-4 -20q-3 -16 -3 -33q0 -48 27.5 -75.5t75.5 -27.5h114q65 0 108 37.5z" />
    <glyph glyph-name="T" unicode="T" horiz-adv-x="606" 
d="M292 580h-222l21 120h582l-21 -120h-222l-102 -580h-138z" />
    <glyph glyph-name="Tbar" unicode="&#x166;" horiz-adv-x="606" 
d="M430 580l-38 -217h145l-19 -106h-145l-45 -257h-138l45 257h-145l19 106h145l38 217h-222l21 120h582l-21 -120h-222z" />
    <glyph glyph-name="Tcaron" unicode="&#x164;" horiz-adv-x="606" 
d="M292 580h-222l21 120h582l-21 -120h-222l-102 -580h-138zM228 955h117l58 -97l91 97h124l-184 -186h-89z" />
    <glyph glyph-name="uni0162" unicode="&#x162;" horiz-adv-x="606" 
d="M673 700l-21 -120h-222l-102 -580h-30l-29 -46h10q34 0 54 -17.5t20 -49.5q0 -10 -1 -16l-3 -20q-7 -47 -44 -74t-95 -27h-107l14 82h86q18 0 30 6t14 17l3 15q2 9 -6 14.5t-23 5.5h-66l9 52l35 58h-9l102 580h-222l21 120h582z" />
    <glyph glyph-name="uni021A" unicode="&#x21a;" horiz-adv-x="606" 
d="M292 580h-222l21 120h582l-21 -120h-222l-102 -580h-138zM64 -240l35 27q31 25 48.5 52t23.5 60l7 39h136l-7 -39q-13 -70 -45 -121t-88 -90l-38 -27z" />
    <glyph glyph-name="uni1E6C" unicode="&#x1e6c;" horiz-adv-x="606" 
d="M292 580h-222l21 120h582l-21 -120h-222l-102 -580h-138zM163 -211q-19 18 -19 47q0 45 27.5 72.5t71.5 27.5q31 0 50.5 -18t19.5 -47q0 -45 -27.5 -72.5t-71.5 -27.5q-32 0 -51 18z" />
    <glyph glyph-name="uni1E6E" unicode="&#x1e6e;" horiz-adv-x="606" 
d="M292 580h-222l21 120h582l-21 -120h-222l-102 -580h-138zM80 -82h320l-19 -108h-320z" />
    <glyph glyph-name="U" unicode="U" horiz-adv-x="720" 
d="M112 47.5q-60 55.5 -60 146.5q0 22 5 50l80 456h138l-79 -452q-3 -18 -3 -34q0 -46 23.5 -73t65.5 -27h106q53 0 89 35.5t47 98.5l79 452h138l-80 -456q-21 -119 -94 -185.5t-185 -66.5h-106q-104 0 -164 55.5z" />
    <glyph glyph-name="Uacute" unicode="&#xda;" horiz-adv-x="720" 
d="M112 47.5q-60 55.5 -60 146.5q0 22 5 50l80 456h138l-79 -452q-3 -18 -3 -34q0 -46 23.5 -73t65.5 -27h106q53 0 89 35.5t47 98.5l79 452h138l-80 -456q-21 -119 -94 -185.5t-185 -66.5h-106q-104 0 -164 55.5zM512 949h154l-150 -180h-134z" />
    <glyph glyph-name="Ubreve" unicode="&#x16c;" horiz-adv-x="720" 
d="M112 47.5q-60 55.5 -60 146.5q0 22 5 50l80 456h138l-79 -452q-3 -18 -3 -34q0 -46 23.5 -73t65.5 -27h106q53 0 89 35.5t47 98.5l79 452h138l-80 -456q-21 -119 -94 -185.5t-185 -66.5h-106q-104 0 -164 55.5zM337.5 793.5q-41.5 32.5 -41.5 87.5q0 15 3 31l4 20h106
l-4 -20q-1 -5 -1 -13q0 -22 14.5 -35t40.5 -13h12q29 0 50 16.5t26 44.5l4 20h106l-4 -20q-14 -71 -64 -111t-126 -40h-12q-72 0 -113.5 32.5z" />
    <glyph glyph-name="uni01D3" unicode="&#x1d3;" horiz-adv-x="720" 
d="M112 47.5q-60 55.5 -60 146.5q0 22 5 50l80 456h138l-79 -452q-3 -18 -3 -34q0 -46 23.5 -73t65.5 -27h106q53 0 89 35.5t47 98.5l79 452h138l-80 -456q-21 -119 -94 -185.5t-185 -66.5h-106q-104 0 -164 55.5zM289 955h117l58 -97l91 97h124l-184 -186h-89z" />
    <glyph glyph-name="Ucircumflex" unicode="&#xdb;" horiz-adv-x="720" 
d="M112 47.5q-60 55.5 -60 146.5q0 22 5 50l80 456h138l-79 -452q-3 -18 -3 -34q0 -46 23.5 -73t65.5 -27h106q53 0 89 35.5t47 98.5l79 452h138l-80 -456q-21 -119 -94 -185.5t-185 -66.5h-106q-104 0 -164 55.5zM439 955h89l118 -186h-118l-57 97l-92 -97h-123z" />
    <glyph glyph-name="Udieresis" unicode="&#xdc;" horiz-adv-x="720" 
d="M112 47.5q-60 55.5 -60 146.5q0 22 5 50l80 456h138l-79 -452q-3 -18 -3 -34q0 -46 23.5 -73t65.5 -27h106q53 0 89 35.5t47 98.5l79 452h138l-80 -456q-21 -119 -94 -185.5t-185 -66.5h-106q-104 0 -164 55.5zM283.5 786.5q-16.5 15.5 -16.5 40.5q0 39 23.5 62.5
t62.5 23.5q27 0 43.5 -15.5t16.5 -40.5q0 -39 -23.5 -62.5t-61.5 -23.5q-28 0 -44.5 15.5zM532.5 786.5q-16.5 15.5 -16.5 40.5q0 39 23.5 62.5t61.5 23.5q28 0 44.5 -15.5t16.5 -40.5q0 -39 -23.5 -62.5t-62.5 -23.5q-27 0 -43.5 15.5z" />
    <glyph glyph-name="uni01D7" unicode="&#x1d7;" horiz-adv-x="720" 
d="M112 47.5q-60 55.5 -60 146.5q0 22 5 50l80 456h138l-79 -452q-3 -18 -3 -34q0 -46 23.5 -73t65.5 -27h106q53 0 89 35.5t47 98.5l79 452h138l-80 -456q-21 -119 -94 -185.5t-185 -66.5h-106q-104 0 -164 55.5zM535 1107h130l-126 -150h-112zM283.5 786.5
q-16.5 15.5 -16.5 40.5q0 39 23.5 62.5t62.5 23.5q27 0 43.5 -15.5t16.5 -40.5q0 -39 -23.5 -62.5t-61.5 -23.5q-28 0 -44.5 15.5zM532.5 786.5q-16.5 15.5 -16.5 40.5q0 39 23.5 62.5t61.5 23.5q28 0 44.5 -15.5t16.5 -40.5q0 -39 -23.5 -62.5t-62.5 -23.5
q-27 0 -43.5 15.5z" />
    <glyph glyph-name="uni01D9" unicode="&#x1d9;" horiz-adv-x="720" 
d="M112 47.5q-60 55.5 -60 146.5q0 22 5 50l80 456h138l-79 -452q-3 -18 -3 -34q0 -46 23.5 -73t65.5 -27h106q53 0 89 35.5t47 98.5l79 452h138l-80 -456q-21 -119 -94 -185.5t-185 -66.5h-106q-104 0 -164 55.5zM345 1115h99l48 -88l79 88h108l-157 -168h-81zM283.5 786.5
q-16.5 15.5 -16.5 40.5q0 39 23.5 62.5t62.5 23.5q27 0 43.5 -15.5t16.5 -40.5q0 -39 -23.5 -62.5t-61.5 -23.5q-28 0 -44.5 15.5zM532.5 786.5q-16.5 15.5 -16.5 40.5q0 39 23.5 62.5t61.5 23.5q28 0 44.5 -15.5t16.5 -40.5q0 -39 -23.5 -62.5t-62.5 -23.5
q-27 0 -43.5 15.5z" />
    <glyph glyph-name="uni01DB" unicode="&#x1db;" horiz-adv-x="720" 
d="M112 47.5q-60 55.5 -60 146.5q0 22 5 50l80 456h138l-79 -452q-3 -18 -3 -34q0 -46 23.5 -73t65.5 -27h106q53 0 89 35.5t47 98.5l79 452h138l-80 -456q-21 -119 -94 -185.5t-185 -66.5h-106q-104 0 -164 55.5zM363 1107h122l56 -150h-104zM283.5 786.5
q-16.5 15.5 -16.5 40.5q0 39 23.5 62.5t62.5 23.5q27 0 43.5 -15.5t16.5 -40.5q0 -39 -23.5 -62.5t-61.5 -23.5q-28 0 -44.5 15.5zM532.5 786.5q-16.5 15.5 -16.5 40.5q0 39 23.5 62.5t61.5 23.5q28 0 44.5 -15.5t16.5 -40.5q0 -39 -23.5 -62.5t-62.5 -23.5
q-27 0 -43.5 15.5z" />
    <glyph glyph-name="uni01D5" unicode="&#x1d5;" horiz-adv-x="720" 
d="M112 47.5q-60 55.5 -60 146.5q0 22 5 50l80 456h138l-79 -452q-3 -18 -3 -34q0 -46 23.5 -73t65.5 -27h106q53 0 89 35.5t47 98.5l79 452h138l-80 -456q-21 -119 -94 -185.5t-185 -66.5h-106q-104 0 -164 55.5zM346 1079h320l-18 -100h-320zM283.5 786.5
q-16.5 15.5 -16.5 40.5q0 39 23.5 62.5t62.5 23.5q27 0 43.5 -15.5t16.5 -40.5q0 -39 -23.5 -62.5t-61.5 -23.5q-28 0 -44.5 15.5zM532.5 786.5q-16.5 15.5 -16.5 40.5q0 39 23.5 62.5t61.5 23.5q28 0 44.5 -15.5t16.5 -40.5q0 -39 -23.5 -62.5t-62.5 -23.5
q-27 0 -43.5 15.5z" />
    <glyph glyph-name="uni1EE4" unicode="&#x1ee4;" horiz-adv-x="720" 
d="M112 47.5q-60 55.5 -60 146.5q0 22 5 50l80 456h138l-79 -452q-3 -18 -3 -34q0 -46 23.5 -73t65.5 -27h106q53 0 89 35.5t47 98.5l79 452h138l-80 -456q-21 -119 -94 -185.5t-185 -66.5h-106q-104 0 -164 55.5zM234 -211q-19 18 -19 47q0 45 27.5 72.5t71.5 27.5
q31 0 50.5 -18t19.5 -47q0 -45 -27.5 -72.5t-71.5 -27.5q-32 0 -51 18z" />
    <glyph glyph-name="Ugrave" unicode="&#xd9;" horiz-adv-x="720" 
d="M112 47.5q-60 55.5 -60 146.5q0 22 5 50l80 456h138l-79 -452q-3 -18 -3 -34q0 -46 23.5 -73t65.5 -27h106q53 0 89 35.5t47 98.5l79 452h138l-80 -456q-21 -119 -94 -185.5t-185 -66.5h-106q-104 0 -164 55.5zM301 949h146l66 -180h-126z" />
    <glyph glyph-name="uni1EE6" unicode="&#x1ee6;" horiz-adv-x="720" 
d="M112 47.5q-60 55.5 -60 146.5q0 22 5 50l80 456h138l-79 -452q-3 -18 -3 -34q0 -46 23.5 -73t65.5 -27h106q53 0 89 35.5t47 98.5l79 452h138l-80 -456q-21 -119 -94 -185.5t-185 -66.5h-106q-104 0 -164 55.5zM396 781q4 21 20 33.5t45 26.5q24 13 36.5 22.5t15.5 23.5
l2 12q5 29 -27 29h-19q-37 0 -44 -39h-92q11 63 46.5 93t96.5 30h19q118 0 118 -89q0 -6 -2 -24l-2 -12q-5 -30 -22.5 -46.5t-47.5 -33.5q-19 -10 -28.5 -18t-10.5 -18l-2 -12h-106z" />
    <glyph glyph-name="Uhorn" unicode="&#x1af;" horiz-adv-x="843" 
d="M948 700l-9 -48q-18 -95 -70.5 -148t-128.5 -53h-43l-36 -207q-21 -119 -94 -185.5t-185 -66.5h-106q-104 0 -164 55.5t-60 146.5q0 22 5 50l80 456h138l-79 -452q-3 -18 -3 -34q0 -46 23.5 -73t65.5 -27h106q53 0 89 35.5t47 98.5l79 452h138l-24 -137h19q28 0 48 23.5
t28 65.5l9 48h127z" />
    <glyph glyph-name="uni1EE8" unicode="&#x1ee8;" horiz-adv-x="843" 
d="M948 700l-9 -48q-18 -95 -70.5 -148t-128.5 -53h-43l-36 -207q-21 -119 -94 -185.5t-185 -66.5h-106q-104 0 -164 55.5t-60 146.5q0 22 5 50l80 456h138l-79 -452q-3 -18 -3 -34q0 -46 23.5 -73t65.5 -27h106q53 0 89 35.5t47 98.5l79 452h138l-24 -137h19q28 0 48 23.5
t28 65.5l9 48h127zM512 949h154l-150 -180h-134z" />
    <glyph glyph-name="uni1EF0" unicode="&#x1ef0;" horiz-adv-x="843" 
d="M948 700l-9 -48q-18 -95 -70.5 -148t-128.5 -53h-43l-36 -207q-21 -119 -94 -185.5t-185 -66.5h-106q-104 0 -164 55.5t-60 146.5q0 22 5 50l80 456h138l-79 -452q-3 -18 -3 -34q0 -46 23.5 -73t65.5 -27h106q53 0 89 35.5t47 98.5l79 452h138l-24 -137h19q28 0 48 23.5
t28 65.5l9 48h127zM224 -211q-19 18 -19 47q0 45 27.5 72.5t71.5 27.5q31 0 50.5 -18t19.5 -47q0 -45 -27.5 -72.5t-71.5 -27.5q-32 0 -51 18z" />
    <glyph glyph-name="uni1EEA" unicode="&#x1eea;" horiz-adv-x="843" 
d="M948 700l-9 -48q-18 -95 -70.5 -148t-128.5 -53h-43l-36 -207q-21 -119 -94 -185.5t-185 -66.5h-106q-104 0 -164 55.5t-60 146.5q0 22 5 50l80 456h138l-79 -452q-3 -18 -3 -34q0 -46 23.5 -73t65.5 -27h106q53 0 89 35.5t47 98.5l79 452h138l-24 -137h19q28 0 48 23.5
t28 65.5l9 48h127zM301 949h146l66 -180h-126z" />
    <glyph glyph-name="uni1EEC" unicode="&#x1eec;" horiz-adv-x="843" 
d="M948 700l-9 -48q-18 -95 -70.5 -148t-128.5 -53h-43l-36 -207q-21 -119 -94 -185.5t-185 -66.5h-106q-104 0 -164 55.5t-60 146.5q0 22 5 50l80 456h138l-79 -452q-3 -18 -3 -34q0 -46 23.5 -73t65.5 -27h106q53 0 89 35.5t47 98.5l79 452h138l-24 -137h19q28 0 48 23.5
t28 65.5l9 48h127zM396 781q4 21 20 33.5t45 26.5q24 13 36.5 22.5t15.5 23.5l2 12q5 29 -27 29h-19q-37 0 -44 -39h-92q11 63 46.5 93t96.5 30h19q118 0 118 -89q0 -6 -2 -24l-2 -12q-5 -30 -22.5 -46.5t-47.5 -33.5q-19 -10 -28.5 -18t-10.5 -18l-2 -12h-106z" />
    <glyph glyph-name="uni1EEE" unicode="&#x1eee;" horiz-adv-x="843" 
d="M948 700l-9 -48q-18 -95 -70.5 -148t-128.5 -53h-43l-36 -207q-21 -119 -94 -185.5t-185 -66.5h-106q-104 0 -164 55.5t-60 146.5q0 22 5 50l80 456h138l-79 -452q-3 -18 -3 -34q0 -46 23.5 -73t65.5 -27h106q53 0 89 35.5t47 98.5l79 452h138l-24 -137h19q28 0 48 23.5
t28 65.5l9 48h127zM483 771q-18 10 -39 28q-25 23 -39 23h-6q-13 0 -23 -14t-15 -39h-99q12 70 48 109.5t89 39.5h6q24 0 42 -10.5t42 -29.5q23 -21 34 -21h6q12 0 22 14t14 39h99q-13 -70 -48.5 -109.5t-85.5 -39.5h-6q-23 0 -41 10z" />
    <glyph glyph-name="Uhungarumlaut" unicode="&#x170;" horiz-adv-x="720" 
d="M112 47.5q-60 55.5 -60 146.5q0 22 5 50l80 456h138l-79 -452q-3 -18 -3 -34q0 -46 23.5 -73t65.5 -27h106q53 0 89 35.5t47 98.5l79 452h138l-80 -456q-21 -119 -94 -185.5t-185 -66.5h-106q-104 0 -164 55.5zM413 949h144l-150 -180h-124zM607 949h144l-150 -180h-124z
" />
    <glyph glyph-name="Umacron" unicode="&#x16a;" horiz-adv-x="720" 
d="M112 47.5q-60 55.5 -60 146.5q0 22 5 50l80 456h138l-79 -452q-3 -18 -3 -34q0 -46 23.5 -73t65.5 -27h106q53 0 89 35.5t47 98.5l79 452h138l-80 -456q-21 -119 -94 -185.5t-185 -66.5h-106q-104 0 -164 55.5zM313 890h320l-19 -106h-320z" />
    <glyph glyph-name="Uogonek" unicode="&#x172;" horiz-adv-x="720" 
d="M741 700l-80 -456q-20 -108 -82.5 -173.5t-158.5 -76.5q-30 -17 -50.5 -41t-25.5 -48l-2 -9q-1 -3 -1 -9q0 -14 10 -22t29 -8h15q17 0 36 5.5t32 14.5l-15 -84q-16 -11 -39 -17.5t-47 -6.5h-15q-55 0 -87.5 24t-32.5 64q0 10 1 15l2 14q4 29 25.5 57.5t51.5 48.5h-31
q-104 0 -164 55.5t-60 146.5q0 22 5 50l80 456h138l-79 -452q-3 -18 -3 -34q0 -46 23.5 -73t65.5 -27h106q53 0 89 35.5t47 98.5l79 452h138z" />
    <glyph glyph-name="Uring" unicode="&#x16e;" horiz-adv-x="720" 
d="M112 47.5q-60 55.5 -60 146.5q0 22 5 50l80 456h138l-79 -452q-3 -18 -3 -34q0 -46 23.5 -73t65.5 -27h106q53 0 89 35.5t47 98.5l79 452h138l-80 -456q-21 -119 -94 -185.5t-185 -66.5h-106q-104 0 -164 55.5zM372 775.5q-29 27.5 -29 73.5q0 62 40 100.5t104 38.5
q48 0 77.5 -27.5t29.5 -73.5q0 -62 -40 -100.5t-105 -38.5q-48 0 -77 27.5zM498.5 838.5q14.5 14.5 14.5 38.5q0 16 -10 25.5t-27 9.5q-24 0 -38.5 -14.5t-14.5 -38.5q0 -16 10.5 -25.5t27.5 -9.5q23 0 37.5 14.5z" />
    <glyph glyph-name="Utilde" unicode="&#x168;" horiz-adv-x="720" 
d="M112 47.5q-60 55.5 -60 146.5q0 22 5 50l80 456h138l-79 -452q-3 -18 -3 -34q0 -46 23.5 -73t65.5 -27h106q53 0 89 35.5t47 98.5l79 452h138l-80 -456q-21 -119 -94 -185.5t-185 -66.5h-106q-104 0 -164 55.5zM483 771q-18 10 -39 28q-25 23 -39 23h-6q-13 0 -23 -14
t-15 -39h-99q12 70 48 109.5t89 39.5h6q24 0 42 -10.5t42 -29.5q23 -21 34 -21h6q12 0 22 14t14 39h99q-13 -70 -48.5 -109.5t-85.5 -39.5h-6q-23 0 -41 10z" />
    <glyph glyph-name="V" unicode="V" horiz-adv-x="666" 
d="M212 64l-129 636h138l91 -525h2l278 525h149l-392 -700h-65q-60 0 -72 64z" />
    <glyph glyph-name="W" unicode="W" horiz-adv-x="877" 
d="M132 15.5q-21 15.5 -22 62.5l-15 622h137l-3 -497h2l226 460h50q53 0 62 -60l53 -399h2l175 496h141l-235 -622q-15 -40 -39.5 -59t-61.5 -19h-58l-65 480h-2l-236 -480h-58q-32 0 -53 15.5z" />
    <glyph glyph-name="Wacute" unicode="&#x1e82;" horiz-adv-x="877" 
d="M132 15.5q-21 15.5 -22 62.5l-15 622h137l-3 -497h2l226 460h50q53 0 62 -60l53 -399h2l175 496h141l-235 -622q-15 -40 -39.5 -59t-61.5 -19h-58l-65 480h-2l-236 -480h-58q-32 0 -53 15.5zM592 949h154l-150 -180h-134z" />
    <glyph glyph-name="Wcircumflex" unicode="&#x174;" horiz-adv-x="877" 
d="M132 15.5q-21 15.5 -22 62.5l-15 622h137l-3 -497h2l226 460h50q53 0 62 -60l53 -399h2l175 496h141l-235 -622q-15 -40 -39.5 -59t-61.5 -19h-58l-65 480h-2l-236 -480h-58q-32 0 -53 15.5zM519 955h89l118 -186h-118l-57 97l-92 -97h-123z" />
    <glyph glyph-name="Wdieresis" unicode="&#x1e84;" horiz-adv-x="877" 
d="M132 15.5q-21 15.5 -22 62.5l-15 622h137l-3 -497h2l226 460h50q53 0 62 -60l53 -399h2l175 496h141l-235 -622q-15 -40 -39.5 -59t-61.5 -19h-58l-65 480h-2l-236 -480h-58q-32 0 -53 15.5zM363.5 786.5q-16.5 15.5 -16.5 40.5q0 39 23.5 62.5t62.5 23.5
q27 0 43.5 -15.5t16.5 -40.5q0 -39 -23.5 -62.5t-61.5 -23.5q-28 0 -44.5 15.5zM612.5 786.5q-16.5 15.5 -16.5 40.5q0 39 23.5 62.5t61.5 23.5q28 0 44.5 -15.5t16.5 -40.5q0 -39 -23.5 -62.5t-62.5 -23.5q-27 0 -43.5 15.5z" />
    <glyph glyph-name="Wgrave" unicode="&#x1e80;" horiz-adv-x="877" 
d="M132 15.5q-21 15.5 -22 62.5l-15 622h137l-3 -497h2l226 460h50q53 0 62 -60l53 -399h2l175 496h141l-235 -622q-15 -40 -39.5 -59t-61.5 -19h-58l-65 480h-2l-236 -480h-58q-32 0 -53 15.5zM381 949h146l66 -180h-126z" />
    <glyph glyph-name="X" unicode="X" horiz-adv-x="641" 
d="M262 361l-175 339h150l118 -231l196 231h161l-295 -347l182 -353h-150l-125 245l-208 -245h-162z" />
    <glyph glyph-name="Y" unicode="Y" horiz-adv-x="652" 
d="M261 272l-184 428h142l125 -301l231 301h158l-334 -428l-48 -272h-138z" />
    <glyph glyph-name="Yacute" unicode="&#xdd;" horiz-adv-x="652" 
d="M261 272l-184 428h142l125 -301l231 301h158l-334 -428l-48 -272h-138zM478 949h154l-150 -180h-134z" />
    <glyph glyph-name="Ycircumflex" unicode="&#x176;" horiz-adv-x="652" 
d="M261 272l-184 428h142l125 -301l231 301h158l-334 -428l-48 -272h-138zM405 955h89l118 -186h-118l-57 97l-92 -97h-123z" />
    <glyph glyph-name="Ydieresis" unicode="&#x178;" horiz-adv-x="652" 
d="M261 272l-184 428h142l125 -301l231 301h158l-334 -428l-48 -272h-138zM249.5 786.5q-16.5 15.5 -16.5 40.5q0 39 23.5 62.5t62.5 23.5q27 0 43.5 -15.5t16.5 -40.5q0 -39 -23.5 -62.5t-61.5 -23.5q-28 0 -44.5 15.5zM498.5 786.5q-16.5 15.5 -16.5 40.5q0 39 23.5 62.5
t61.5 23.5q28 0 44.5 -15.5t16.5 -40.5q0 -39 -23.5 -62.5t-62.5 -23.5q-27 0 -43.5 15.5z" />
    <glyph glyph-name="uni1E8E" unicode="&#x1e8e;" horiz-adv-x="652" 
d="M261 272l-184 428h142l125 -301l231 301h158l-334 -428l-48 -272h-138zM365 779q-19 18 -19 47q0 45 27.5 72.5t71.5 27.5q32 0 51 -18t19 -47q0 -45 -27.5 -72.5t-71.5 -27.5q-32 0 -51 18z" />
    <glyph glyph-name="uni1EF4" unicode="&#x1ef4;" horiz-adv-x="652" 
d="M261 272l-184 428h142l125 -301l231 301h158l-334 -428l-48 -272h-138zM190 -211q-19 18 -19 47q0 45 27.5 72.5t71.5 27.5q31 0 50.5 -18t19.5 -47q0 -45 -27.5 -72.5t-71.5 -27.5q-32 0 -51 18z" />
    <glyph glyph-name="Ygrave" unicode="&#x1ef2;" horiz-adv-x="652" 
d="M261 272l-184 428h142l125 -301l231 301h158l-334 -428l-48 -272h-138zM267 949h146l66 -180h-126z" />
    <glyph glyph-name="uni1EF6" unicode="&#x1ef6;" horiz-adv-x="652" 
d="M261 272l-184 428h142l125 -301l231 301h158l-334 -428l-48 -272h-138zM362 781q4 21 20 33.5t45 26.5q24 13 36.5 22.5t15.5 23.5l2 12q5 29 -27 29h-19q-37 0 -44 -39h-92q11 63 46.5 93t96.5 30h19q118 0 118 -89q0 -6 -2 -24l-2 -12q-5 -30 -22.5 -46.5t-47.5 -33.5
q-19 -10 -28.5 -18t-10.5 -18l-2 -12h-106z" />
    <glyph glyph-name="uni1EF8" unicode="&#x1ef8;" horiz-adv-x="652" 
d="M261 272l-184 428h142l125 -301l231 301h158l-334 -428l-48 -272h-138zM449 771q-18 10 -39 28q-25 23 -39 23h-6q-13 0 -23 -14t-15 -39h-99q12 70 48 109.5t89 39.5h6q24 0 42 -10.5t42 -29.5q23 -21 34 -21h6q12 0 22 14t14 39h99q-13 -70 -48.5 -109.5t-85.5 -39.5
h-6q-23 0 -41 10z" />
    <glyph glyph-name="Z" unicode="Z" horiz-adv-x="606" 
d="M-10 68l459 514h-350l20 118h544l-12 -68l-460 -514h360l-21 -118h-552z" />
    <glyph glyph-name="Zacute" unicode="&#x179;" horiz-adv-x="606" 
d="M-10 68l459 514h-350l20 118h544l-12 -68l-460 -514h360l-21 -118h-552zM455 949h154l-150 -180h-134z" />
    <glyph glyph-name="Zcaron" unicode="&#x17d;" horiz-adv-x="606" 
d="M-10 68l459 514h-350l20 118h544l-12 -68l-460 -514h360l-21 -118h-552zM232 955h117l58 -97l91 97h124l-184 -186h-89z" />
    <glyph glyph-name="Zdotaccent" unicode="&#x17b;" horiz-adv-x="606" 
d="M-10 68l459 514h-350l20 118h544l-12 -68l-460 -514h360l-21 -118h-552zM342 779q-19 18 -19 47q0 45 27.5 72.5t71.5 27.5q32 0 51 -18t19 -47q0 -45 -27.5 -72.5t-71.5 -27.5q-32 0 -51 18z" />
    <glyph glyph-name="uni1E92" unicode="&#x1e92;" horiz-adv-x="606" 
d="M-10 68l459 514h-350l20 118h544l-12 -68l-460 -514h360l-21 -118h-552zM167 -211q-19 18 -19 47q0 45 27.5 72.5t71.5 27.5q31 0 50.5 -18t19.5 -47q0 -45 -27.5 -72.5t-71.5 -27.5q-32 0 -51 18z" />
    <glyph glyph-name="a" unicode="a" horiz-adv-x="584" 
d="M64 24q-44 32 -44 86q0 8 2 24l7 39q12 65 62.5 101.5t129.5 36.5h60q29 0 62.5 -7t58.5 -19l9 52q1 4 1 12q0 20 -13.5 32t-37.5 12h-85q-29 0 -48 -13t-23 -35h-132q14 77 69 119.5t140 42.5h85q84 0 133.5 -38t49.5 -102q0 -15 -3 -30l-60 -337h-126l11 60
q-31 -32 -65.5 -50t-64.5 -18h-58q-76 0 -120 32zM260 96q36 0 69 19t52 51l3 17q-13 12 -41 19t-60 7h-62q-25 0 -41 -11.5t-20 -32.5l-5 -26q-4 -19 10.5 -31t41.5 -12h53z" />
    <glyph glyph-name="aacute" unicode="&#xe1;" horiz-adv-x="584" 
d="M64 24q-44 32 -44 86q0 8 2 24l7 39q12 65 62.5 101.5t129.5 36.5h60q29 0 62.5 -7t58.5 -19l9 52q1 4 1 12q0 20 -13.5 32t-37.5 12h-85q-29 0 -48 -13t-23 -35h-132q14 77 69 119.5t140 42.5h85q84 0 133.5 -38t49.5 -102q0 -15 -3 -30l-60 -337h-126l11 60
q-31 -32 -65.5 -50t-64.5 -18h-58q-76 0 -120 32zM260 96q36 0 69 19t52 51l3 17q-13 12 -41 19t-60 7h-62q-25 0 -41 -11.5t-20 -32.5l-5 -26q-4 -19 10.5 -31t41.5 -12h53zM415 748h154l-150 -180h-134z" />
    <glyph glyph-name="abreve" unicode="&#x103;" horiz-adv-x="584" 
d="M64 24q-44 32 -44 86q0 8 2 24l7 39q12 65 62.5 101.5t129.5 36.5h60q29 0 62.5 -7t58.5 -19l9 52q1 4 1 12q0 20 -13.5 32t-37.5 12h-85q-29 0 -48 -13t-23 -35h-132q14 77 69 119.5t140 42.5h85q84 0 133.5 -38t49.5 -102q0 -15 -3 -30l-60 -337h-126l11 60
q-31 -32 -65.5 -50t-64.5 -18h-58q-76 0 -120 32zM260 96q36 0 69 19t52 51l3 17q-13 12 -41 19t-60 7h-62q-25 0 -41 -11.5t-20 -32.5l-5 -26q-4 -19 10.5 -31t41.5 -12h53zM240.5 592.5q-41.5 32.5 -41.5 87.5q0 15 3 31l4 20h106l-4 -20q-1 -5 -1 -13q0 -22 14.5 -35
t40.5 -13h12q29 0 50 16.5t26 44.5l4 20h106l-4 -20q-14 -71 -64 -111t-126 -40h-12q-72 0 -113.5 32.5z" />
    <glyph glyph-name="uni1EAF" unicode="&#x1eaf;" horiz-adv-x="584" 
d="M64 24q-44 32 -44 86q0 8 2 24l7 39q12 65 62.5 101.5t129.5 36.5h60q29 0 62.5 -7t58.5 -19l9 52q1 4 1 12q0 20 -13.5 32t-37.5 12h-85q-29 0 -48 -13t-23 -35h-132q14 77 69 119.5t140 42.5h85q84 0 133.5 -38t49.5 -102q0 -15 -3 -30l-60 -337h-126l11 60
q-31 -32 -65.5 -50t-64.5 -18h-58q-76 0 -120 32zM260 96q36 0 69 19t52 51l3 17q-13 12 -41 19t-60 7h-62q-25 0 -41 -11.5t-20 -32.5l-5 -26q-4 -19 10.5 -31t41.5 -12h53zM442 928h130l-126 -150h-112zM240.5 592.5q-41.5 32.5 -41.5 87.5q0 15 3 31l4 20h106l-4 -20
q-1 -5 -1 -13q0 -22 14.5 -35t40.5 -13h12q29 0 50 16.5t26 44.5l4 20h106l-4 -20q-14 -71 -64 -111t-126 -40h-12q-72 0 -113.5 32.5z" />
    <glyph glyph-name="uni1EB7" unicode="&#x1eb7;" horiz-adv-x="584" 
d="M64 24q-44 32 -44 86q0 8 2 24l7 39q12 65 62.5 101.5t129.5 36.5h60q29 0 62.5 -7t58.5 -19l9 52q1 4 1 12q0 20 -13.5 32t-37.5 12h-85q-29 0 -48 -13t-23 -35h-132q14 77 69 119.5t140 42.5h85q84 0 133.5 -38t49.5 -102q0 -15 -3 -30l-60 -337h-126l11 60
q-31 -32 -65.5 -50t-64.5 -18h-58q-76 0 -120 32zM260 96q36 0 69 19t52 51l3 17q-13 12 -41 19t-60 7h-62q-25 0 -41 -11.5t-20 -32.5l-5 -26q-4 -19 10.5 -31t41.5 -12h53zM168 -211q-19 18 -19 47q0 45 27.5 72.5t71.5 27.5q31 0 50.5 -18t19.5 -47q0 -45 -27.5 -72.5
t-71.5 -27.5q-32 0 -51 18zM240.5 592.5q-41.5 32.5 -41.5 87.5q0 15 3 31l4 20h106l-4 -20q-1 -5 -1 -13q0 -22 14.5 -35t40.5 -13h12q29 0 50 16.5t26 44.5l4 20h106l-4 -20q-14 -71 -64 -111t-126 -40h-12q-72 0 -113.5 32.5z" />
    <glyph glyph-name="uni1EB1" unicode="&#x1eb1;" horiz-adv-x="584" 
d="M64 24q-44 32 -44 86q0 8 2 24l7 39q12 65 62.5 101.5t129.5 36.5h60q29 0 62.5 -7t58.5 -19l9 52q1 4 1 12q0 20 -13.5 32t-37.5 12h-85q-29 0 -48 -13t-23 -35h-132q14 77 69 119.5t140 42.5h85q84 0 133.5 -38t49.5 -102q0 -15 -3 -30l-60 -337h-126l11 60
q-31 -32 -65.5 -50t-64.5 -18h-58q-76 0 -120 32zM260 96q36 0 69 19t52 51l3 17q-13 12 -41 19t-60 7h-62q-25 0 -41 -11.5t-20 -32.5l-5 -26q-4 -19 10.5 -31t41.5 -12h53zM270 928h122l56 -150h-104zM240.5 592.5q-41.5 32.5 -41.5 87.5q0 15 3 31l4 20h106l-4 -20
q-1 -5 -1 -13q0 -22 14.5 -35t40.5 -13h12q29 0 50 16.5t26 44.5l4 20h106l-4 -20q-14 -71 -64 -111t-126 -40h-12q-72 0 -113.5 32.5z" />
    <glyph glyph-name="uni1EB3" unicode="&#x1eb3;" horiz-adv-x="584" 
d="M64 24q-44 32 -44 86q0 8 2 24l7 39q12 65 62.5 101.5t129.5 36.5h60q29 0 62.5 -7t58.5 -19l9 52q1 4 1 12q0 20 -13.5 32t-37.5 12h-85q-29 0 -48 -13t-23 -35h-132q14 77 69 119.5t140 42.5h85q84 0 133.5 -38t49.5 -102q0 -15 -3 -30l-60 -337h-126l11 60
q-31 -32 -65.5 -50t-64.5 -18h-58q-76 0 -120 32zM260 96q36 0 69 19t52 51l3 17q-13 12 -41 19t-60 7h-62q-25 0 -41 -11.5t-20 -32.5l-5 -26q-4 -19 10.5 -31t41.5 -12h53zM344 786q3 18 16 28.5t39 22.5q21 11 32 19t13 20l2 13v5q0 18 -21 18h-17q-29 0 -33 -31h-84
q16 107 119 107h17q53 0 81 -20t28 -59q0 -6 -2 -20l-2 -13q-4 -26 -19 -40.5t-42 -29.5q-16 -9 -24.5 -15t-9.5 -15l-2 -10h-94zM240.5 592.5q-41.5 32.5 -41.5 87.5q0 15 3 31l4 20h106l-4 -20q-1 -5 -1 -13q0 -22 14.5 -35t40.5 -13h12q29 0 50 16.5t26 44.5l4 20h106
l-4 -20q-14 -71 -64 -111t-126 -40h-12q-72 0 -113.5 32.5z" />
    <glyph glyph-name="uni1EB5" unicode="&#x1eb5;" horiz-adv-x="584" 
d="M64 24q-44 32 -44 86q0 8 2 24l7 39q12 65 62.5 101.5t129.5 36.5h60q29 0 62.5 -7t58.5 -19l9 52q1 4 1 12q0 20 -13.5 32t-37.5 12h-85q-29 0 -48 -13t-23 -35h-132q14 77 69 119.5t140 42.5h85q84 0 133.5 -38t49.5 -102q0 -15 -3 -30l-60 -337h-126l11 60
q-31 -32 -65.5 -50t-64.5 -18h-58q-76 0 -120 32zM260 96q36 0 69 19t52 51l3 17q-13 12 -41 19t-60 7h-62q-25 0 -41 -11.5t-20 -32.5l-5 -26q-4 -19 10.5 -31t41.5 -12h53zM431.5 803.5q-14.5 7.5 -32.5 22.5q-14 11 -22.5 16t-19.5 5h-5q-14 0 -23.5 -11.5t-12.5 -30.5
h-90q11 59 44 92.5t82 33.5h6q22 0 37.5 -8t33.5 -23q14 -11 22 -15.5t17 -4.5h5q12 0 21 11.5t13 30.5h90q-11 -59 -43.5 -92.5t-78.5 -33.5h-6q-23 0 -37.5 7.5zM240.5 592.5q-41.5 32.5 -41.5 87.5q0 15 3 31l4 20h106l-4 -20q-1 -5 -1 -13q0 -22 14.5 -35t40.5 -13h12
q29 0 50 16.5t26 44.5l4 20h106l-4 -20q-14 -71 -64 -111t-126 -40h-12q-72 0 -113.5 32.5z" />
    <glyph glyph-name="uni01CE" unicode="&#x1ce;" horiz-adv-x="584" 
d="M64 24q-44 32 -44 86q0 8 2 24l7 39q12 65 62.5 101.5t129.5 36.5h60q29 0 62.5 -7t58.5 -19l9 52q1 4 1 12q0 20 -13.5 32t-37.5 12h-85q-29 0 -48 -13t-23 -35h-132q14 77 69 119.5t140 42.5h85q84 0 133.5 -38t49.5 -102q0 -15 -3 -30l-60 -337h-126l11 60
q-31 -32 -65.5 -50t-64.5 -18h-58q-76 0 -120 32zM260 96q36 0 69 19t52 51l3 17q-13 12 -41 19t-60 7h-62q-25 0 -41 -11.5t-20 -32.5l-5 -26q-4 -19 10.5 -31t41.5 -12h53zM192 754h117l58 -97l91 97h124l-184 -186h-89z" />
    <glyph glyph-name="acircumflex" unicode="&#xe2;" horiz-adv-x="584" 
d="M64 24q-44 32 -44 86q0 8 2 24l7 39q12 65 62.5 101.5t129.5 36.5h60q29 0 62.5 -7t58.5 -19l9 52q1 4 1 12q0 20 -13.5 32t-37.5 12h-85q-29 0 -48 -13t-23 -35h-132q14 77 69 119.5t140 42.5h85q84 0 133.5 -38t49.5 -102q0 -15 -3 -30l-60 -337h-126l11 60
q-31 -32 -65.5 -50t-64.5 -18h-58q-76 0 -120 32zM260 96q36 0 69 19t52 51l3 17q-13 12 -41 19t-60 7h-62q-25 0 -41 -11.5t-20 -32.5l-5 -26q-4 -19 10.5 -31t41.5 -12h53zM342 754h89l118 -186h-118l-57 97l-92 -97h-123z" />
    <glyph glyph-name="uni1EA5" unicode="&#x1ea5;" horiz-adv-x="584" 
d="M64 24q-44 32 -44 86q0 8 2 24l7 39q12 65 62.5 101.5t129.5 36.5h60q29 0 62.5 -7t58.5 -19l9 52q1 4 1 12q0 20 -13.5 32t-37.5 12h-85q-29 0 -48 -13t-23 -35h-132q14 77 69 119.5t140 42.5h85q84 0 133.5 -38t49.5 -102q0 -15 -3 -30l-60 -337h-126l11 60
q-31 -32 -65.5 -50t-64.5 -18h-58q-76 0 -120 32zM260 96q36 0 69 19t52 51l3 17q-13 12 -41 19t-60 7h-62q-25 0 -41 -11.5t-20 -32.5l-5 -26q-4 -19 10.5 -31t41.5 -12h53zM600 886h130l-126 -150h-112zM342 754h89l118 -186h-118l-57 97l-92 -97h-123z" />
    <glyph glyph-name="uni1EAD" unicode="&#x1ead;" horiz-adv-x="584" 
d="M64 24q-44 32 -44 86q0 8 2 24l7 39q12 65 62.5 101.5t129.5 36.5h60q29 0 62.5 -7t58.5 -19l9 52q1 4 1 12q0 20 -13.5 32t-37.5 12h-85q-29 0 -48 -13t-23 -35h-132q14 77 69 119.5t140 42.5h85q84 0 133.5 -38t49.5 -102q0 -15 -3 -30l-60 -337h-126l11 60
q-31 -32 -65.5 -50t-64.5 -18h-58q-76 0 -120 32zM260 96q36 0 69 19t52 51l3 17q-13 12 -41 19t-60 7h-62q-25 0 -41 -11.5t-20 -32.5l-5 -26q-4 -19 10.5 -31t41.5 -12h53zM168 -211q-19 18 -19 47q0 45 27.5 72.5t71.5 27.5q31 0 50.5 -18t19.5 -47q0 -45 -27.5 -72.5
t-71.5 -27.5q-32 0 -51 18zM342 754h89l118 -186h-118l-57 97l-92 -97h-123z" />
    <glyph glyph-name="uni1EA7" unicode="&#x1ea7;" horiz-adv-x="584" 
d="M64 24q-44 32 -44 86q0 8 2 24l7 39q12 65 62.5 101.5t129.5 36.5h60q29 0 62.5 -7t58.5 -19l9 52q1 4 1 12q0 20 -13.5 32t-37.5 12h-85q-29 0 -48 -13t-23 -35h-132q14 77 69 119.5t140 42.5h85q84 0 133.5 -38t49.5 -102q0 -15 -3 -30l-60 -337h-126l11 60
q-31 -32 -65.5 -50t-64.5 -18h-58q-76 0 -120 32zM260 96q36 0 69 19t52 51l3 17q-13 12 -41 19t-60 7h-62q-25 0 -41 -11.5t-20 -32.5l-5 -26q-4 -19 10.5 -31t41.5 -12h53zM462 886h122l56 -150h-104zM342 754h89l118 -186h-118l-57 97l-92 -97h-123z" />
    <glyph glyph-name="uni1EA9" unicode="&#x1ea9;" horiz-adv-x="584" 
d="M64 24q-44 32 -44 86q0 8 2 24l7 39q12 65 62.5 101.5t129.5 36.5h60q29 0 62.5 -7t58.5 -19l9 52q1 4 1 12q0 20 -13.5 32t-37.5 12h-85q-29 0 -48 -13t-23 -35h-132q14 77 69 119.5t140 42.5h85q84 0 133.5 -38t49.5 -102q0 -15 -3 -30l-60 -337h-126l11 60
q-31 -32 -65.5 -50t-64.5 -18h-58q-76 0 -120 32zM260 96q36 0 69 19t52 51l3 17q-13 12 -41 19t-60 7h-62q-25 0 -41 -11.5t-20 -32.5l-5 -26q-4 -19 10.5 -31t41.5 -12h53zM520 724q3 18 16 28.5t39 22.5q22 11 32.5 19t12.5 20l2 13v5q0 18 -21 18h-17q-29 0 -33 -31h-84
q16 107 119 107h17q53 0 81 -20t28 -59q0 -6 -2 -20l-2 -13q-4 -26 -19 -40.5t-42 -29.5q-16 -9 -24.5 -15t-9.5 -15l-2 -10h-94zM342 754h89l118 -186h-118l-57 97l-92 -97h-123z" />
    <glyph glyph-name="uni1EAB" unicode="&#x1eab;" horiz-adv-x="584" 
d="M64 24q-44 32 -44 86q0 8 2 24l7 39q12 65 62.5 101.5t129.5 36.5h60q29 0 62.5 -7t58.5 -19l9 52q1 4 1 12q0 20 -13.5 32t-37.5 12h-85q-29 0 -48 -13t-23 -35h-132q14 77 69 119.5t140 42.5h85q84 0 133.5 -38t49.5 -102q0 -15 -3 -30l-60 -337h-126l11 60
q-31 -32 -65.5 -50t-64.5 -18h-58q-76 0 -120 32zM260 96q36 0 69 19t52 51l3 17q-13 12 -41 19t-60 7h-62q-25 0 -41 -11.5t-20 -32.5l-5 -26q-4 -19 10.5 -31t41.5 -12h53zM426.5 791.5q-14.5 7.5 -32.5 22.5q-14 11 -22.5 16t-19.5 5h-5q-14 0 -23.5 -11.5t-12.5 -30.5
h-90q11 59 44 92.5t82 33.5h6q22 0 37.5 -8t33.5 -23q14 -11 22 -15.5t17 -4.5h5q12 0 21 11.5t13 30.5h90q-11 -59 -43.5 -92.5t-78.5 -33.5h-6q-23 0 -37.5 7.5zM342 754h89l118 -186h-118l-57 97l-92 -97h-123z" />
    <glyph glyph-name="adieresis" unicode="&#xe4;" horiz-adv-x="584" 
d="M64 24q-44 32 -44 86q0 8 2 24l7 39q12 65 62.5 101.5t129.5 36.5h60q29 0 62.5 -7t58.5 -19l9 52q1 4 1 12q0 20 -13.5 32t-37.5 12h-85q-29 0 -48 -13t-23 -35h-132q14 77 69 119.5t140 42.5h85q84 0 133.5 -38t49.5 -102q0 -15 -3 -30l-60 -337h-126l11 60
q-31 -32 -65.5 -50t-64.5 -18h-58q-76 0 -120 32zM260 96q36 0 69 19t52 51l3 17q-13 12 -41 19t-60 7h-62q-25 0 -41 -11.5t-20 -32.5l-5 -26q-4 -19 10.5 -31t41.5 -12h53zM186.5 585.5q-16.5 15.5 -16.5 40.5q0 39 23.5 62.5t62.5 23.5q27 0 43.5 -15.5t16.5 -40.5
q0 -39 -23.5 -62.5t-61.5 -23.5q-28 0 -44.5 15.5zM435.5 585.5q-16.5 15.5 -16.5 40.5q0 39 23.5 62.5t61.5 23.5q28 0 44.5 -15.5t16.5 -40.5q0 -39 -23.5 -62.5t-62.5 -23.5q-27 0 -43.5 15.5z" />
    <glyph glyph-name="uni1EA1" unicode="&#x1ea1;" horiz-adv-x="584" 
d="M64 24q-44 32 -44 86q0 8 2 24l7 39q12 65 62.5 101.5t129.5 36.5h60q29 0 62.5 -7t58.5 -19l9 52q1 4 1 12q0 20 -13.5 32t-37.5 12h-85q-29 0 -48 -13t-23 -35h-132q14 77 69 119.5t140 42.5h85q84 0 133.5 -38t49.5 -102q0 -15 -3 -30l-60 -337h-126l11 60
q-31 -32 -65.5 -50t-64.5 -18h-58q-76 0 -120 32zM260 96q36 0 69 19t52 51l3 17q-13 12 -41 19t-60 7h-62q-25 0 -41 -11.5t-20 -32.5l-5 -26q-4 -19 10.5 -31t41.5 -12h53zM168 -211q-19 18 -19 47q0 45 27.5 72.5t71.5 27.5q31 0 50.5 -18t19.5 -47q0 -45 -27.5 -72.5
t-71.5 -27.5q-32 0 -51 18z" />
    <glyph glyph-name="agrave" unicode="&#xe0;" horiz-adv-x="584" 
d="M64 24q-44 32 -44 86q0 8 2 24l7 39q12 65 62.5 101.5t129.5 36.5h60q29 0 62.5 -7t58.5 -19l9 52q1 4 1 12q0 20 -13.5 32t-37.5 12h-85q-29 0 -48 -13t-23 -35h-132q14 77 69 119.5t140 42.5h85q84 0 133.5 -38t49.5 -102q0 -15 -3 -30l-60 -337h-126l11 60
q-31 -32 -65.5 -50t-64.5 -18h-58q-76 0 -120 32zM260 96q36 0 69 19t52 51l3 17q-13 12 -41 19t-60 7h-62q-25 0 -41 -11.5t-20 -32.5l-5 -26q-4 -19 10.5 -31t41.5 -12h53zM204 748h146l66 -180h-126z" />
    <glyph glyph-name="uni1EA3" unicode="&#x1ea3;" horiz-adv-x="584" 
d="M64 24q-44 32 -44 86q0 8 2 24l7 39q12 65 62.5 101.5t129.5 36.5h60q29 0 62.5 -7t58.5 -19l9 52q1 4 1 12q0 20 -13.5 32t-37.5 12h-85q-29 0 -48 -13t-23 -35h-132q14 77 69 119.5t140 42.5h85q84 0 133.5 -38t49.5 -102q0 -15 -3 -30l-60 -337h-126l11 60
q-31 -32 -65.5 -50t-64.5 -18h-58q-76 0 -120 32zM260 96q36 0 69 19t52 51l3 17q-13 12 -41 19t-60 7h-62q-25 0 -41 -11.5t-20 -32.5l-5 -26q-4 -19 10.5 -31t41.5 -12h53zM299 580q4 21 20 33.5t45 26.5q24 13 36.5 22.5t15.5 23.5l2 12q5 29 -27 29h-19q-37 0 -44 -39
h-92q11 63 46.5 93t96.5 30h19q118 0 118 -89q0 -6 -2 -24l-2 -12q-5 -30 -22.5 -46.5t-47.5 -33.5q-19 -10 -28.5 -18t-10.5 -18l-2 -12h-106z" />
    <glyph glyph-name="uni0251" unicode="&#x251;" horiz-adv-x="614" 
d="M67.5 33.5q-44.5 41.5 -44.5 112.5q0 22 4 42l20 114q17 92 83.5 148.5t159.5 56.5h58q34 0 63.5 -16t45.5 -42l9 50h126l-60 -337q-1 -6 -1 -15q0 -15 8 -22t26 -7h26l-21 -118h-52q-41 0 -68.5 16t-35.5 44h-1q-25 -28 -63 -48t-76 -20h-85q-77 0 -121.5 41.5zM293 109
q38 0 69.5 31t44.5 81l14 81q3 40 -16 64t-53 24h-70q-37 0 -65.5 -27t-35.5 -71l-16 -94q-2 -16 -2 -22q0 -31 16 -49t45 -18h69z" />
    <glyph glyph-name="amacron" unicode="&#x101;" horiz-adv-x="584" 
d="M64 24q-44 32 -44 86q0 8 2 24l7 39q12 65 62.5 101.5t129.5 36.5h60q29 0 62.5 -7t58.5 -19l9 52q1 4 1 12q0 20 -13.5 32t-37.5 12h-85q-29 0 -48 -13t-23 -35h-132q14 77 69 119.5t140 42.5h85q84 0 133.5 -38t49.5 -102q0 -15 -3 -30l-60 -337h-126l11 60
q-31 -32 -65.5 -50t-64.5 -18h-58q-76 0 -120 32zM260 96q36 0 69 19t52 51l3 17q-13 12 -41 19t-60 7h-62q-25 0 -41 -11.5t-20 -32.5l-5 -26q-4 -19 10.5 -31t41.5 -12h53zM216 689h320l-19 -106h-320z" />
    <glyph glyph-name="aogonek" unicode="&#x105;" horiz-adv-x="584" 
d="M500.5 469q49.5 -38 49.5 -102q0 -15 -3 -30l-60 -337h1q-34 -17 -57.5 -43t-29.5 -52l-2 -9q-1 -3 -1 -9q0 -14 10 -22t29 -8h15q17 0 36 5.5t32 14.5l-15 -84q-16 -11 -39 -17.5t-47 -6.5h-15q-55 0 -87.5 24t-32.5 64q0 10 1 15l2 14q5 32 30.5 63.5t60.5 50.5h-17
l11 60q-31 -32 -65.5 -50t-64.5 -18h-58q-76 0 -120 32t-44 86q0 8 2 24l7 39q12 65 62.5 101.5t129.5 36.5h60q29 0 62.5 -7t58.5 -19l9 52q1 4 1 12q0 20 -13.5 32t-37.5 12h-85q-29 0 -48 -13t-23 -35h-132q14 77 69 119.5t140 42.5h85q84 0 133.5 -38zM329 115
q33 19 52 51l3 17q-13 12 -41 19t-60 7h-62q-25 0 -41 -11.5t-20 -32.5l-5 -26q-4 -19 10.5 -31t41.5 -12h53q36 0 69 19z" />
    <glyph glyph-name="aring" unicode="&#xe5;" horiz-adv-x="584" 
d="M64 24q-44 32 -44 86q0 8 2 24l7 39q12 65 62.5 101.5t129.5 36.5h60q29 0 62.5 -7t58.5 -19l9 52q1 4 1 12q0 20 -13.5 32t-37.5 12h-85q-29 0 -48 -13t-23 -35h-132q14 77 69 119.5t140 42.5h85q84 0 133.5 -38t49.5 -102q0 -15 -3 -30l-60 -337h-126l11 60
q-31 -32 -65.5 -50t-64.5 -18h-58q-76 0 -120 32zM260 96q36 0 69 19t52 51l3 17q-13 12 -41 19t-60 7h-62q-25 0 -41 -11.5t-20 -32.5l-5 -26q-4 -19 10.5 -31t41.5 -12h53zM275 574.5q-29 27.5 -29 73.5q0 62 40 100.5t104 38.5q48 0 77.5 -27.5t29.5 -73.5
q0 -62 -40 -100.5t-105 -38.5q-48 0 -77 27.5zM401.5 637.5q14.5 14.5 14.5 38.5q0 16 -10 25.5t-27 9.5q-24 0 -38.5 -14.5t-14.5 -38.5q0 -16 10.5 -25.5t27.5 -9.5q23 0 37.5 14.5z" />
    <glyph glyph-name="aringacute" unicode="&#x1fb;" horiz-adv-x="584" 
d="M64 24q-44 32 -44 86q0 8 2 24l7 39q12 65 62.5 101.5t129.5 36.5h60q29 0 62.5 -7t58.5 -19l9 52q1 4 1 12q0 20 -13.5 32t-37.5 12h-85q-29 0 -48 -13t-23 -35h-132q14 77 69 119.5t140 42.5h85q84 0 133.5 -38t49.5 -102q0 -15 -3 -30l-60 -337h-126l11 60
q-31 -32 -65.5 -50t-64.5 -18h-58q-76 0 -120 32zM260 96q36 0 69 19t52 51l3 17q-13 12 -41 19t-60 7h-62q-25 0 -41 -11.5t-20 -32.5l-5 -26q-4 -19 10.5 -31t41.5 -12h53zM275 574.5q-29 27.5 -29 73.5q0 62 40 100.5t104 38.5q48 0 77.5 -27.5t29.5 -73.5
q0 -62 -40 -100.5t-105 -38.5q-48 0 -77 27.5zM401.5 637.5q14.5 14.5 14.5 38.5q0 16 -10 25.5t-27 9.5q-24 0 -38.5 -14.5t-14.5 -38.5q0 -16 10.5 -25.5t27.5 -9.5q23 0 37.5 14.5zM463 1022h154l-150 -180h-134z" />
    <glyph glyph-name="atilde" unicode="&#xe3;" horiz-adv-x="584" 
d="M64 24q-44 32 -44 86q0 8 2 24l7 39q12 65 62.5 101.5t129.5 36.5h60q29 0 62.5 -7t58.5 -19l9 52q1 4 1 12q0 20 -13.5 32t-37.5 12h-85q-29 0 -48 -13t-23 -35h-132q14 77 69 119.5t140 42.5h85q84 0 133.5 -38t49.5 -102q0 -15 -3 -30l-60 -337h-126l11 60
q-31 -32 -65.5 -50t-64.5 -18h-58q-76 0 -120 32zM260 96q36 0 69 19t52 51l3 17q-13 12 -41 19t-60 7h-62q-25 0 -41 -11.5t-20 -32.5l-5 -26q-4 -19 10.5 -31t41.5 -12h53zM386 570q-18 10 -39 28q-25 23 -39 23h-6q-13 0 -23 -14t-15 -39h-99q12 70 48 109.5t89 39.5h6
q24 0 42 -10.5t42 -29.5q23 -21 34 -21h6q12 0 22 14t14 39h99q-13 -70 -48.5 -109.5t-85.5 -39.5h-6q-23 0 -41 10z" />
    <glyph glyph-name="ae" unicode="&#xe6;" horiz-adv-x="930" 
d="M63.5 23.5q-44.5 31.5 -44.5 85.5q0 16 2 24l7 38q13 66 63.5 103t128.5 37h61q30 0 63.5 -7t57.5 -19l9 52q1 4 1 12q0 20 -13.5 32t-37.5 12h-86q-29 0 -47.5 -12.5t-23.5 -35.5h-132q13 76 69.5 119t143.5 43h82q47 0 84.5 -15.5t53.5 -40.5h1q25 25 64 40.5t78 15.5
h73q87 0 138 -44t51 -119q0 -11 -4 -39l-18 -102h-365l-2 -14q-1 -5 -1 -16q0 -31 18 -49t49 -18h69q37 0 60.5 15t28.5 41h134q-14 -80 -75 -125t-156 -45h-67q-53 0 -95.5 19.5t-58.5 50.5h-1q-33 -33 -75 -51.5t-85 -18.5h-80q-78 0 -122.5 31.5zM776 301l1 6q2 14 2 20
q0 31 -17 48.5t-47 17.5h-73q-34 0 -60.5 -24t-34.5 -63l-1 -5h230zM260 96q38 0 70 18.5t51 51.5l3 17q-13 12 -41 19t-60 7h-61q-26 0 -42.5 -11.5t-20.5 -32.5l-5 -26q-4 -19 10.5 -31t41.5 -12h54z" />
    <glyph glyph-name="aeacute" unicode="&#x1fd;" horiz-adv-x="930" 
d="M63.5 23.5q-44.5 31.5 -44.5 85.5q0 16 2 24l7 38q13 66 63.5 103t128.5 37h61q30 0 63.5 -7t57.5 -19l9 52q1 4 1 12q0 20 -13.5 32t-37.5 12h-86q-29 0 -47.5 -12.5t-23.5 -35.5h-132q13 76 69.5 119t143.5 43h82q47 0 84.5 -15.5t53.5 -40.5h1q25 25 64 40.5t78 15.5
h73q87 0 138 -44t51 -119q0 -11 -4 -39l-18 -102h-365l-2 -14q-1 -5 -1 -16q0 -31 18 -49t49 -18h69q37 0 60.5 15t28.5 41h134q-14 -80 -75 -125t-156 -45h-67q-53 0 -95.5 19.5t-58.5 50.5h-1q-33 -33 -75 -51.5t-85 -18.5h-80q-78 0 -122.5 31.5zM776 301l1 6q2 14 2 20
q0 31 -17 48.5t-47 17.5h-73q-34 0 -60.5 -24t-34.5 -63l-1 -5h230zM260 96q38 0 70 18.5t51 51.5l3 17q-13 12 -41 19t-60 7h-61q-26 0 -42.5 -11.5t-20.5 -32.5l-5 -26q-4 -19 10.5 -31t41.5 -12h54zM588 748h154l-150 -180h-134z" />
    <glyph glyph-name="b" unicode="b" horiz-adv-x="604" 
d="M200 12q-32 20 -49 52l-11 -64h-126l123 700h136l-42 -240q24 22 51 34.5t53 12.5h66q83 0 131 -42.5t48 -115.5q0 -12 -4 -40l-20 -114q-16 -96 -74 -149.5t-145 -53.5h-69q-36 0 -68 20zM328 111q37 0 61.5 25t32.5 69l17 94q2 8 2 23q0 30 -16.5 48t-46.5 18h-62
q-40 0 -72 -28t-44 -74l-15 -86q0 -40 21.5 -64.5t56.5 -24.5h65z" />
    <glyph glyph-name="c" unicode="c" horiz-adv-x="560" 
d="M78 36.5q-53 44.5 -53 118.5q0 17 3 36l21 117q16 94 78 146.5t155 52.5h79q86 0 135.5 -42t49.5 -114q0 -16 -3 -36h-135q2 12 2 18q0 26 -15 41.5t-41 15.5h-77q-37 0 -61.5 -24t-32.5 -68l-17 -97q-2 -16 -2 -23q0 -32 17.5 -50.5t47.5 -18.5h77q34 0 56.5 22t28.5 62
h135q-16 -94 -75.5 -147.5t-148.5 -53.5h-82q-89 0 -142 44.5z" />
    <glyph glyph-name="cacute" unicode="&#x107;" horiz-adv-x="560" 
d="M78 36.5q-53 44.5 -53 118.5q0 17 3 36l21 117q16 94 78 146.5t155 52.5h79q86 0 135.5 -42t49.5 -114q0 -16 -3 -36h-135q2 12 2 18q0 26 -15 41.5t-41 15.5h-77q-37 0 -61.5 -24t-32.5 -68l-17 -97q-2 -16 -2 -23q0 -32 17.5 -50.5t47.5 -18.5h77q34 0 56.5 22t28.5 62
h135q-16 -94 -75.5 -147.5t-148.5 -53.5h-82q-89 0 -142 44.5zM402 748h154l-150 -180h-134z" />
    <glyph glyph-name="ccaron" unicode="&#x10d;" horiz-adv-x="560" 
d="M78 36.5q-53 44.5 -53 118.5q0 17 3 36l21 117q16 94 78 146.5t155 52.5h79q86 0 135.5 -42t49.5 -114q0 -16 -3 -36h-135q2 12 2 18q0 26 -15 41.5t-41 15.5h-77q-37 0 -61.5 -24t-32.5 -68l-17 -97q-2 -16 -2 -23q0 -32 17.5 -50.5t47.5 -18.5h77q34 0 56.5 22t28.5 62
h135q-16 -94 -75.5 -147.5t-148.5 -53.5h-82q-89 0 -142 44.5zM179 754h117l58 -97l91 97h124l-184 -186h-89z" />
    <glyph glyph-name="ccedilla" unicode="&#xe7;" horiz-adv-x="560" 
d="M408 315q2 12 2 18q0 26 -15 41.5t-41 15.5h-77q-37 0 -61.5 -24t-32.5 -68l-17 -97q-2 -16 -2 -23q0 -32 17.5 -50.5t47.5 -18.5h77q34 0 56.5 22t28.5 62h135q-16 -94 -75.5 -147.5t-148.5 -53.5h-14l-24 -38h10q34 0 54 -17.5t20 -49.5q0 -10 -1 -16l-3 -20
q-7 -47 -44 -74t-95 -27h-107l14 82h86q18 0 30 6t14 17l3 15q2 9 -6 14.5t-23 5.5h-66l9 52l31 51q-76 8 -120.5 51.5t-44.5 110.5q0 18 3 36l21 117q16 94 78 146.5t155 52.5h79q86 0 135.5 -42t49.5 -114q0 -16 -3 -36h-135z" />
    <glyph glyph-name="ccircumflex" unicode="&#x109;" horiz-adv-x="560" 
d="M78 36.5q-53 44.5 -53 118.5q0 17 3 36l21 117q16 94 78 146.5t155 52.5h79q86 0 135.5 -42t49.5 -114q0 -16 -3 -36h-135q2 12 2 18q0 26 -15 41.5t-41 15.5h-77q-37 0 -61.5 -24t-32.5 -68l-17 -97q-2 -16 -2 -23q0 -32 17.5 -50.5t47.5 -18.5h77q34 0 56.5 22t28.5 62
h135q-16 -94 -75.5 -147.5t-148.5 -53.5h-82q-89 0 -142 44.5zM329 754h89l118 -186h-118l-57 97l-92 -97h-123z" />
    <glyph glyph-name="cdotaccent" unicode="&#x10b;" horiz-adv-x="560" 
d="M78 36.5q-53 44.5 -53 118.5q0 17 3 36l21 117q16 94 78 146.5t155 52.5h79q86 0 135.5 -42t49.5 -114q0 -16 -3 -36h-135q2 12 2 18q0 26 -15 41.5t-41 15.5h-77q-37 0 -61.5 -24t-32.5 -68l-17 -97q-2 -16 -2 -23q0 -32 17.5 -50.5t47.5 -18.5h77q34 0 56.5 22t28.5 62
h135q-16 -94 -75.5 -147.5t-148.5 -53.5h-82q-89 0 -142 44.5zM289 578q-19 18 -19 47q0 45 27.5 72.5t71.5 27.5q32 0 51 -18t19 -47q0 -45 -27.5 -72.5t-71.5 -27.5q-32 0 -51 18z" />
    <glyph glyph-name="d" unicode="d" horiz-adv-x="604" 
d="M71.5 34.5q-48.5 42.5 -48.5 114.5q0 13 4 39l20 114q17 97 78 151t153 54h54q35 0 65 -12t49 -34l43 239h136l-124 -700h-126l11 66q-26 -35 -59.5 -54.5t-68.5 -19.5h-58q-80 0 -128.5 42.5zM284 109q40 0 73 30t46 78l16 87q0 39 -19.5 62.5t-51.5 23.5h-60
q-42 0 -70 -26t-36 -72l-17 -94q-2 -16 -2 -22q0 -31 17.5 -49t47.5 -18h56z" />
    <glyph glyph-name="eth" unicode="&#xf0;" horiz-adv-x="615" 
d="M614 476q0 -46 -9 -99l-27 -152q-20 -110 -91.5 -171.5t-179.5 -61.5h-71q-63 0 -112 21t-76.5 59.5t-27.5 89.5q0 17 3 35l19 104q19 101 86 157.5t169 56.5h62q37 0 70 -11.5t49 -30.5h1q1 7 1 19q0 69 -46 112l-42 -44h-134l85 89q-28 7 -68 7h-54l20 114h54
q83 0 143 -22l51 53h134l-98 -102q89 -75 89 -223zM454 304q0 43 -26 68.5t-70 25.5h-65q-46 0 -77 -28.5t-40 -78.5l-15 -84q-2 -16 -2 -22q0 -35 23 -55.5t62 -20.5h67q52 0 86.5 30.5t44.5 85.5l9 52q3 15 3 27z" />
    <glyph glyph-name="dcaron" unicode="&#x10f;" horiz-adv-x="807" 
d="M71.5 34.5q-48.5 42.5 -48.5 114.5q0 13 4 39l20 114q17 97 78 151t153 54h54q35 0 65 -12t49 -34l43 239h136l-124 -700h-126l11 66q-26 -35 -59.5 -54.5t-68.5 -19.5h-58q-80 0 -128.5 42.5zM284 109q40 0 73 30t46 78l16 87q0 39 -19.5 62.5t-51.5 23.5h-60
q-42 0 -70 -26t-36 -72l-17 -94q-2 -16 -2 -22q0 -31 17.5 -49t47.5 -18h56zM636 512l35 27q31 25 48.5 52t23.5 60l9 49h136l-9 -49q-12 -68 -44.5 -119t-88.5 -92l-38 -27z" />
    <glyph glyph-name="dcroat" unicode="&#x111;" horiz-adv-x="623" 
d="M677 553h-78l-98 -553h-126l11 66q-26 -35 -59.5 -54.5t-68.5 -19.5h-58q-80 0 -128.5 42.5t-48.5 114.5q0 13 4 39l20 114q17 97 78 151t153 54h54q35 0 65 -12t49 -34l17 92h-138l16 92h138l10 55h136l-10 -55h78zM419 304q0 39 -19.5 62.5t-51.5 23.5h-60
q-42 0 -70 -26t-36 -72l-17 -94q-2 -16 -2 -22q0 -31 17.5 -49t47.5 -18h56q40 0 73 30t46 78z" />
    <glyph glyph-name="uni1E0D" unicode="&#x1e0d;" horiz-adv-x="604" 
d="M71.5 34.5q-48.5 42.5 -48.5 114.5q0 13 4 39l20 114q17 97 78 151t153 54h54q35 0 65 -12t49 -34l43 239h136l-124 -700h-126l11 66q-26 -35 -59.5 -54.5t-68.5 -19.5h-58q-80 0 -128.5 42.5zM284 109q40 0 73 30t46 78l16 87q0 39 -19.5 62.5t-51.5 23.5h-60
q-42 0 -70 -26t-36 -72l-17 -94q-2 -16 -2 -22q0 -31 17.5 -49t47.5 -18h56zM162 -211q-19 18 -19 47q0 45 27.5 72.5t71.5 27.5q31 0 50.5 -18t19.5 -47q0 -45 -27.5 -72.5t-71.5 -27.5q-32 0 -51 18z" />
    <glyph glyph-name="uni1E0F" unicode="&#x1e0f;" horiz-adv-x="604" 
d="M71.5 34.5q-48.5 42.5 -48.5 114.5q0 13 4 39l20 114q17 97 78 151t153 54h54q35 0 65 -12t49 -34l43 239h136l-124 -700h-126l11 66q-26 -35 -59.5 -54.5t-68.5 -19.5h-58q-80 0 -128.5 42.5zM284 109q40 0 73 30t46 78l16 87q0 39 -19.5 62.5t-51.5 23.5h-60
q-42 0 -70 -26t-36 -72l-17 -94q-2 -16 -2 -22q0 -31 17.5 -49t47.5 -18h56zM79 -82h320l-19 -108h-320z" />
    <glyph glyph-name="e" unicode="e" horiz-adv-x="578" 
d="M76 33.5q-53 41.5 -53 111.5q0 16 3 34l23 129q17 94 79.5 146.5t157.5 52.5h80q89 0 140.5 -44.5t51.5 -116.5q0 -18 -3 -36l-19 -107h-370l-4 -24q-1 -5 -1 -14q0 -27 17.5 -43t48.5 -16h78q37 0 60.5 15t27.5 41h134q-14 -80 -74 -125t-152 -45h-80q-92 0 -145 41.5z
M420 301l1 6q2 14 2 21q0 31 -16.5 49t-46.5 18h-82q-35 0 -61.5 -24.5t-34.5 -64.5l-1 -5h239z" />
    <glyph glyph-name="eacute" unicode="&#xe9;" horiz-adv-x="578" 
d="M76 33.5q-53 41.5 -53 111.5q0 16 3 34l23 129q17 94 79.5 146.5t157.5 52.5h80q89 0 140.5 -44.5t51.5 -116.5q0 -18 -3 -36l-19 -107h-370l-4 -24q-1 -5 -1 -14q0 -27 17.5 -43t48.5 -16h78q37 0 60.5 15t27.5 41h134q-14 -80 -74 -125t-152 -45h-80q-92 0 -145 41.5z
M420 301l1 6q2 14 2 21q0 31 -16.5 49t-46.5 18h-82q-35 0 -61.5 -24.5t-34.5 -64.5l-1 -5h239zM403 748h154l-150 -180h-134z" />
    <glyph glyph-name="ebreve" unicode="&#x115;" horiz-adv-x="578" 
d="M76 33.5q-53 41.5 -53 111.5q0 16 3 34l23 129q17 94 79.5 146.5t157.5 52.5h80q89 0 140.5 -44.5t51.5 -116.5q0 -18 -3 -36l-19 -107h-370l-4 -24q-1 -5 -1 -14q0 -27 17.5 -43t48.5 -16h78q37 0 60.5 15t27.5 41h134q-14 -80 -74 -125t-152 -45h-80q-92 0 -145 41.5z
M420 301l1 6q2 14 2 21q0 31 -16.5 49t-46.5 18h-82q-35 0 -61.5 -24.5t-34.5 -64.5l-1 -5h239zM228.5 592.5q-41.5 32.5 -41.5 87.5q0 15 3 31l4 20h106l-4 -20q-1 -5 -1 -13q0 -22 14.5 -35t40.5 -13h12q29 0 50 16.5t26 44.5l4 20h106l-4 -20q-14 -71 -64 -111t-126 -40
h-12q-72 0 -113.5 32.5z" />
    <glyph glyph-name="ecaron" unicode="&#x11b;" horiz-adv-x="578" 
d="M76 33.5q-53 41.5 -53 111.5q0 16 3 34l23 129q17 94 79.5 146.5t157.5 52.5h80q89 0 140.5 -44.5t51.5 -116.5q0 -18 -3 -36l-19 -107h-370l-4 -24q-1 -5 -1 -14q0 -27 17.5 -43t48.5 -16h78q37 0 60.5 15t27.5 41h134q-14 -80 -74 -125t-152 -45h-80q-92 0 -145 41.5z
M420 301l1 6q2 14 2 21q0 31 -16.5 49t-46.5 18h-82q-35 0 -61.5 -24.5t-34.5 -64.5l-1 -5h239zM180 754h117l58 -97l91 97h124l-184 -186h-89z" />
    <glyph glyph-name="ecircumflex" unicode="&#xea;" horiz-adv-x="578" 
d="M76 33.5q-53 41.5 -53 111.5q0 16 3 34l23 129q17 94 79.5 146.5t157.5 52.5h80q89 0 140.5 -44.5t51.5 -116.5q0 -18 -3 -36l-19 -107h-370l-4 -24q-1 -5 -1 -14q0 -27 17.5 -43t48.5 -16h78q37 0 60.5 15t27.5 41h134q-14 -80 -74 -125t-152 -45h-80q-92 0 -145 41.5z
M420 301l1 6q2 14 2 21q0 31 -16.5 49t-46.5 18h-82q-35 0 -61.5 -24.5t-34.5 -64.5l-1 -5h239zM330 754h89l118 -186h-118l-57 97l-92 -97h-123z" />
    <glyph glyph-name="uni1EBF" unicode="&#x1ebf;" horiz-adv-x="578" 
d="M76 33.5q-53 41.5 -53 111.5q0 16 3 34l23 129q17 94 79.5 146.5t157.5 52.5h80q89 0 140.5 -44.5t51.5 -116.5q0 -18 -3 -36l-19 -107h-370l-4 -24q-1 -5 -1 -14q0 -27 17.5 -43t48.5 -16h78q37 0 60.5 15t27.5 41h134q-14 -80 -74 -125t-152 -45h-80q-92 0 -145 41.5z
M420 301l1 6q2 14 2 21q0 31 -16.5 49t-46.5 18h-82q-35 0 -61.5 -24.5t-34.5 -64.5l-1 -5h239zM588 886h130l-126 -150h-112zM330 754h89l118 -186h-118l-57 97l-92 -97h-123z" />
    <glyph glyph-name="uni1EC7" unicode="&#x1ec7;" horiz-adv-x="578" 
d="M76 33.5q-53 41.5 -53 111.5q0 16 3 34l23 129q17 94 79.5 146.5t157.5 52.5h80q89 0 140.5 -44.5t51.5 -116.5q0 -18 -3 -36l-19 -107h-370l-4 -24q-1 -5 -1 -14q0 -27 17.5 -43t48.5 -16h78q37 0 60.5 15t27.5 41h134q-14 -80 -74 -125t-152 -45h-80q-92 0 -145 41.5z
M420 301l1 6q2 14 2 21q0 31 -16.5 49t-46.5 18h-82q-35 0 -61.5 -24.5t-34.5 -64.5l-1 -5h239zM168 -211q-19 18 -19 47q0 45 27.5 72.5t71.5 27.5q31 0 50.5 -18t19.5 -47q0 -45 -27.5 -72.5t-71.5 -27.5q-32 0 -51 18zM330 754h89l118 -186h-118l-57 97l-92 -97h-123z
" />
    <glyph glyph-name="uni1EC1" unicode="&#x1ec1;" horiz-adv-x="578" 
d="M76 33.5q-53 41.5 -53 111.5q0 16 3 34l23 129q17 94 79.5 146.5t157.5 52.5h80q89 0 140.5 -44.5t51.5 -116.5q0 -18 -3 -36l-19 -107h-370l-4 -24q-1 -5 -1 -14q0 -27 17.5 -43t48.5 -16h78q37 0 60.5 15t27.5 41h134q-14 -80 -74 -125t-152 -45h-80q-92 0 -145 41.5z
M420 301l1 6q2 14 2 21q0 31 -16.5 49t-46.5 18h-82q-35 0 -61.5 -24.5t-34.5 -64.5l-1 -5h239zM450 886h122l56 -150h-104zM330 754h89l118 -186h-118l-57 97l-92 -97h-123z" />
    <glyph glyph-name="uni1EC3" unicode="&#x1ec3;" horiz-adv-x="578" 
d="M76 33.5q-53 41.5 -53 111.5q0 16 3 34l23 129q17 94 79.5 146.5t157.5 52.5h80q89 0 140.5 -44.5t51.5 -116.5q0 -18 -3 -36l-19 -107h-370l-4 -24q-1 -5 -1 -14q0 -27 17.5 -43t48.5 -16h78q37 0 60.5 15t27.5 41h134q-14 -80 -74 -125t-152 -45h-80q-92 0 -145 41.5z
M420 301l1 6q2 14 2 21q0 31 -16.5 49t-46.5 18h-82q-35 0 -61.5 -24.5t-34.5 -64.5l-1 -5h239zM508 724q3 18 16 28.5t39 22.5q22 11 32.5 19t12.5 20l2 13v5q0 18 -21 18h-17q-29 0 -33 -31h-84q16 107 119 107h17q53 0 81 -20t28 -59q0 -6 -2 -20l-2 -13
q-4 -26 -19 -40.5t-42 -29.5q-16 -9 -24.5 -15t-9.5 -15l-2 -10h-94zM330 754h89l118 -186h-118l-57 97l-92 -97h-123z" />
    <glyph glyph-name="uni1EC5" unicode="&#x1ec5;" horiz-adv-x="578" 
d="M76 33.5q-53 41.5 -53 111.5q0 16 3 34l23 129q17 94 79.5 146.5t157.5 52.5h80q89 0 140.5 -44.5t51.5 -116.5q0 -18 -3 -36l-19 -107h-370l-4 -24q-1 -5 -1 -14q0 -27 17.5 -43t48.5 -16h78q37 0 60.5 15t27.5 41h134q-14 -80 -74 -125t-152 -45h-80q-92 0 -145 41.5z
M420 301l1 6q2 14 2 21q0 31 -16.5 49t-46.5 18h-82q-35 0 -61.5 -24.5t-34.5 -64.5l-1 -5h239zM414.5 791.5q-14.5 7.5 -32.5 22.5q-14 11 -22.5 16t-19.5 5h-5q-14 0 -23.5 -11.5t-12.5 -30.5h-90q11 59 44 92.5t82 33.5h6q22 0 37.5 -8t33.5 -23q14 -11 22 -15.5t17 -4.5
h5q12 0 21 11.5t13 30.5h90q-11 -59 -43.5 -92.5t-78.5 -33.5h-6q-23 0 -37.5 7.5zM330 754h89l118 -186h-118l-57 97l-92 -97h-123z" />
    <glyph glyph-name="edieresis" unicode="&#xeb;" horiz-adv-x="578" 
d="M76 33.5q-53 41.5 -53 111.5q0 16 3 34l23 129q17 94 79.5 146.5t157.5 52.5h80q89 0 140.5 -44.5t51.5 -116.5q0 -18 -3 -36l-19 -107h-370l-4 -24q-1 -5 -1 -14q0 -27 17.5 -43t48.5 -16h78q37 0 60.5 15t27.5 41h134q-14 -80 -74 -125t-152 -45h-80q-92 0 -145 41.5z
M420 301l1 6q2 14 2 21q0 31 -16.5 49t-46.5 18h-82q-35 0 -61.5 -24.5t-34.5 -64.5l-1 -5h239zM174.5 585.5q-16.5 15.5 -16.5 40.5q0 39 23.5 62.5t62.5 23.5q27 0 43.5 -15.5t16.5 -40.5q0 -39 -23.5 -62.5t-61.5 -23.5q-28 0 -44.5 15.5zM423.5 585.5
q-16.5 15.5 -16.5 40.5q0 39 23.5 62.5t61.5 23.5q28 0 44.5 -15.5t16.5 -40.5q0 -39 -23.5 -62.5t-62.5 -23.5q-27 0 -43.5 15.5z" />
    <glyph glyph-name="edotaccent" unicode="&#x117;" horiz-adv-x="578" 
d="M76 33.5q-53 41.5 -53 111.5q0 16 3 34l23 129q17 94 79.5 146.5t157.5 52.5h80q89 0 140.5 -44.5t51.5 -116.5q0 -18 -3 -36l-19 -107h-370l-4 -24q-1 -5 -1 -14q0 -27 17.5 -43t48.5 -16h78q37 0 60.5 15t27.5 41h134q-14 -80 -74 -125t-152 -45h-80q-92 0 -145 41.5z
M420 301l1 6q2 14 2 21q0 31 -16.5 49t-46.5 18h-82q-35 0 -61.5 -24.5t-34.5 -64.5l-1 -5h239zM290 578q-19 18 -19 47q0 45 27.5 72.5t71.5 27.5q32 0 51 -18t19 -47q0 -45 -27.5 -72.5t-71.5 -27.5q-32 0 -51 18z" />
    <glyph glyph-name="uni1EB9" unicode="&#x1eb9;" horiz-adv-x="578" 
d="M76 33.5q-53 41.5 -53 111.5q0 16 3 34l23 129q17 94 79.5 146.5t157.5 52.5h80q89 0 140.5 -44.5t51.5 -116.5q0 -18 -3 -36l-19 -107h-370l-4 -24q-1 -5 -1 -14q0 -27 17.5 -43t48.5 -16h78q37 0 60.5 15t27.5 41h134q-14 -80 -74 -125t-152 -45h-80q-92 0 -145 41.5z
M420 301l1 6q2 14 2 21q0 31 -16.5 49t-46.5 18h-82q-35 0 -61.5 -24.5t-34.5 -64.5l-1 -5h239zM168 -211q-19 18 -19 47q0 45 27.5 72.5t71.5 27.5q31 0 50.5 -18t19.5 -47q0 -45 -27.5 -72.5t-71.5 -27.5q-32 0 -51 18z" />
    <glyph glyph-name="egrave" unicode="&#xe8;" horiz-adv-x="578" 
d="M76 33.5q-53 41.5 -53 111.5q0 16 3 34l23 129q17 94 79.5 146.5t157.5 52.5h80q89 0 140.5 -44.5t51.5 -116.5q0 -18 -3 -36l-19 -107h-370l-4 -24q-1 -5 -1 -14q0 -27 17.5 -43t48.5 -16h78q37 0 60.5 15t27.5 41h134q-14 -80 -74 -125t-152 -45h-80q-92 0 -145 41.5z
M420 301l1 6q2 14 2 21q0 31 -16.5 49t-46.5 18h-82q-35 0 -61.5 -24.5t-34.5 -64.5l-1 -5h239zM192 748h146l66 -180h-126z" />
    <glyph glyph-name="uni1EBB" unicode="&#x1ebb;" horiz-adv-x="578" 
d="M76 33.5q-53 41.5 -53 111.5q0 16 3 34l23 129q17 94 79.5 146.5t157.5 52.5h80q89 0 140.5 -44.5t51.5 -116.5q0 -18 -3 -36l-19 -107h-370l-4 -24q-1 -5 -1 -14q0 -27 17.5 -43t48.5 -16h78q37 0 60.5 15t27.5 41h134q-14 -80 -74 -125t-152 -45h-80q-92 0 -145 41.5z
M420 301l1 6q2 14 2 21q0 31 -16.5 49t-46.5 18h-82q-35 0 -61.5 -24.5t-34.5 -64.5l-1 -5h239zM287 580q4 21 20 33.5t45 26.5q24 13 36.5 22.5t15.5 23.5l2 12q5 29 -27 29h-19q-37 0 -44 -39h-92q11 63 46.5 93t96.5 30h19q118 0 118 -89q0 -6 -2 -24l-2 -12
q-5 -30 -22.5 -46.5t-47.5 -33.5q-19 -10 -28.5 -18t-10.5 -18l-2 -12h-106z" />
    <glyph glyph-name="emacron" unicode="&#x113;" horiz-adv-x="578" 
d="M76 33.5q-53 41.5 -53 111.5q0 16 3 34l23 129q17 94 79.5 146.5t157.5 52.5h80q89 0 140.5 -44.5t51.5 -116.5q0 -18 -3 -36l-19 -107h-370l-4 -24q-1 -5 -1 -14q0 -27 17.5 -43t48.5 -16h78q37 0 60.5 15t27.5 41h134q-14 -80 -74 -125t-152 -45h-80q-92 0 -145 41.5z
M420 301l1 6q2 14 2 21q0 31 -16.5 49t-46.5 18h-82q-35 0 -61.5 -24.5t-34.5 -64.5l-1 -5h239zM204 689h320l-19 -106h-320z" />
    <glyph glyph-name="eogonek" unicode="&#x119;" horiz-adv-x="578" 
d="M506.5 462.5q51.5 -44.5 51.5 -116.5q0 -18 -3 -36l-19 -107h-370l-4 -24q-1 -5 -1 -14q0 -27 17.5 -43t48.5 -16h78q37 0 60.5 15t27.5 41h134q-13 -70 -60.5 -113.5t-121.5 -53.5q-30 -17 -51 -41.5t-26 -48.5l-2 -9q-1 -3 -1 -9q0 -14 10 -22t29 -8h15q17 0 36 5.5
t32 14.5l-15 -84q-16 -11 -39 -17.5t-47 -6.5h-15q-55 0 -87.5 24t-32.5 64q0 10 1 15l2 14q4 29 25.5 57.5t51.5 48.5h-10q-92 0 -145 41.5t-53 111.5q0 16 3 34l23 129q17 94 79.5 146.5t157.5 52.5h80q89 0 140.5 -44.5zM423 328q0 31 -16.5 49t-46.5 18h-82
q-35 0 -61.5 -24.5t-34.5 -64.5l-1 -5h239l1 6q2 14 2 21z" />
    <glyph glyph-name="uni1EBD" unicode="&#x1ebd;" horiz-adv-x="578" 
d="M76 33.5q-53 41.5 -53 111.5q0 16 3 34l23 129q17 94 79.5 146.5t157.5 52.5h80q89 0 140.5 -44.5t51.5 -116.5q0 -18 -3 -36l-19 -107h-370l-4 -24q-1 -5 -1 -14q0 -27 17.5 -43t48.5 -16h78q37 0 60.5 15t27.5 41h134q-14 -80 -74 -125t-152 -45h-80q-92 0 -145 41.5z
M420 301l1 6q2 14 2 21q0 31 -16.5 49t-46.5 18h-82q-35 0 -61.5 -24.5t-34.5 -64.5l-1 -5h239zM374 570q-18 10 -39 28q-25 23 -39 23h-6q-13 0 -23 -14t-15 -39h-99q12 70 48 109.5t89 39.5h6q24 0 42 -10.5t42 -29.5q23 -21 34 -21h6q12 0 22 14t14 39h99
q-13 -70 -48.5 -109.5t-85.5 -39.5h-6q-23 0 -41 10z" />
    <glyph glyph-name="uni0259" unicode="&#x259;" horiz-adv-x="578" 
d="M72.5 36q-51.5 44 -51.5 119q0 20 3 39l18 102h371l3 15q2 14 2 19q0 29 -18.5 46t-50.5 17h-76q-37 0 -60 -15t-28 -41h-134q14 80 75 125t155 45h74q91 0 145.5 -42.5t54.5 -112.5q0 -15 -3 -32l-23 -129q-16 -93 -79 -146t-156 -53h-80q-90 0 -141.5 44zM300 106
q37 0 62 23t33 64l1 5h-237l-1 -6q-2 -14 -2 -21q0 -30 17 -47.5t47 -17.5h80z" />
    <glyph glyph-name="f" unicode="f" horiz-adv-x="379" 
d="M128 383h-86l20 116h86l6 33q16 85 73 128.5t153 43.5h71l-21 -116h-69q-28 0 -46.5 -12.5t-24.5 -45.5l-6 -31h120l-20 -116h-120l-68 -383h-136z" />
    <glyph glyph-name="g" unicode="g" horiz-adv-x="606" 
d="M56.5 -162.5q-48.5 40.5 -48.5 107.5q0 11 1 17h134q-1 -22 12.5 -35.5t36.5 -13.5h90q34 0 57 24.5t30 67.5l8 47q-24 -22 -52 -35t-50 -13h-67q-83 0 -132.5 43t-49.5 115q0 19 3 38l18 102q17 97 77.5 151t151.5 54h58q40 0 73.5 -16t49.5 -42l9 50h126l-87 -494
q-17 -98 -77.5 -153t-151.5 -55h-90q-81 0 -129.5 40.5zM295 119q38 0 69.5 31.5t44.5 82.5l12 69q3 40 -16 64t-54 24h-70q-39 0 -66 -26t-34 -72l-14 -82q-2 -16 -2 -22q0 -32 16.5 -50.5t44.5 -18.5h69z" />
    <glyph glyph-name="gbreve" unicode="&#x11f;" horiz-adv-x="606" 
d="M56.5 -162.5q-48.5 40.5 -48.5 107.5q0 11 1 17h134q-1 -22 12.5 -35.5t36.5 -13.5h90q34 0 57 24.5t30 67.5l8 47q-24 -22 -52 -35t-50 -13h-67q-83 0 -132.5 43t-49.5 115q0 19 3 38l18 102q17 97 77.5 151t151.5 54h58q40 0 73.5 -16t49.5 -42l9 50h126l-87 -494
q-17 -98 -77.5 -153t-151.5 -55h-90q-81 0 -129.5 40.5zM295 119q38 0 69.5 31.5t44.5 82.5l12 69q3 40 -16 64t-54 24h-70q-39 0 -66 -26t-34 -72l-14 -82q-2 -16 -2 -22q0 -32 16.5 -50.5t44.5 -18.5h69zM238.5 592.5q-41.5 32.5 -41.5 87.5q0 15 3 31l4 20h106l-4 -20
q-1 -5 -1 -13q0 -22 14.5 -35t40.5 -13h12q29 0 50 16.5t26 44.5l4 20h106l-4 -20q-14 -71 -64 -111t-126 -40h-12q-72 0 -113.5 32.5z" />
    <glyph glyph-name="gcaron" unicode="&#x1e7;" horiz-adv-x="606" 
d="M56.5 -162.5q-48.5 40.5 -48.5 107.5q0 11 1 17h134q-1 -22 12.5 -35.5t36.5 -13.5h90q34 0 57 24.5t30 67.5l8 47q-24 -22 -52 -35t-50 -13h-67q-83 0 -132.5 43t-49.5 115q0 19 3 38l18 102q17 97 77.5 151t151.5 54h58q40 0 73.5 -16t49.5 -42l9 50h126l-87 -494
q-17 -98 -77.5 -153t-151.5 -55h-90q-81 0 -129.5 40.5zM295 119q38 0 69.5 31.5t44.5 82.5l12 69q3 40 -16 64t-54 24h-70q-39 0 -66 -26t-34 -72l-14 -82q-2 -16 -2 -22q0 -32 16.5 -50.5t44.5 -18.5h69zM190 754h117l58 -97l91 97h124l-184 -186h-89z" />
    <glyph glyph-name="gcircumflex" unicode="&#x11d;" horiz-adv-x="606" 
d="M56.5 -162.5q-48.5 40.5 -48.5 107.5q0 11 1 17h134q-1 -22 12.5 -35.5t36.5 -13.5h90q34 0 57 24.5t30 67.5l8 47q-24 -22 -52 -35t-50 -13h-67q-83 0 -132.5 43t-49.5 115q0 19 3 38l18 102q17 97 77.5 151t151.5 54h58q40 0 73.5 -16t49.5 -42l9 50h126l-87 -494
q-17 -98 -77.5 -153t-151.5 -55h-90q-81 0 -129.5 40.5zM295 119q38 0 69.5 31.5t44.5 82.5l12 69q3 40 -16 64t-54 24h-70q-39 0 -66 -26t-34 -72l-14 -82q-2 -16 -2 -22q0 -32 16.5 -50.5t44.5 -18.5h69zM340 754h89l118 -186h-118l-57 97l-92 -97h-123z" />
    <glyph glyph-name="uni0123" unicode="&#x123;" horiz-adv-x="606" 
d="M56.5 -162.5q-48.5 40.5 -48.5 107.5q0 11 1 17h134q-1 -22 12.5 -35.5t36.5 -13.5h90q34 0 57 24.5t30 67.5l8 47q-24 -22 -52 -35t-50 -13h-67q-83 0 -132.5 43t-49.5 115q0 19 3 38l18 102q17 97 77.5 151t151.5 54h58q40 0 73.5 -16t49.5 -42l9 50h126l-87 -494
q-17 -98 -77.5 -153t-151.5 -55h-90q-81 0 -129.5 40.5zM295 119q38 0 69.5 31.5t44.5 82.5l12 69q3 40 -16 64t-54 24h-70q-39 0 -66 -26t-34 -72l-14 -82q-2 -16 -2 -22q0 -32 16.5 -50.5t44.5 -18.5h69zM285 618q14 71 46 122t87 89l39 27l71 -99l-35 -27
q-31 -25 -48.5 -52t-23.5 -60l-9 -49h-136z" />
    <glyph glyph-name="gdotaccent" unicode="&#x121;" horiz-adv-x="606" 
d="M56.5 -162.5q-48.5 40.5 -48.5 107.5q0 11 1 17h134q-1 -22 12.5 -35.5t36.5 -13.5h90q34 0 57 24.5t30 67.5l8 47q-24 -22 -52 -35t-50 -13h-67q-83 0 -132.5 43t-49.5 115q0 19 3 38l18 102q17 97 77.5 151t151.5 54h58q40 0 73.5 -16t49.5 -42l9 50h126l-87 -494
q-17 -98 -77.5 -153t-151.5 -55h-90q-81 0 -129.5 40.5zM295 119q38 0 69.5 31.5t44.5 82.5l12 69q3 40 -16 64t-54 24h-70q-39 0 -66 -26t-34 -72l-14 -82q-2 -16 -2 -22q0 -32 16.5 -50.5t44.5 -18.5h69zM300 578q-19 18 -19 47q0 45 27.5 72.5t71.5 27.5q32 0 51 -18
t19 -47q0 -45 -27.5 -72.5t-71.5 -27.5q-32 0 -51 18z" />
    <glyph glyph-name="uni1E21" unicode="&#x1e21;" horiz-adv-x="606" 
d="M56.5 -162.5q-48.5 40.5 -48.5 107.5q0 11 1 17h134q-1 -22 12.5 -35.5t36.5 -13.5h90q34 0 57 24.5t30 67.5l8 47q-24 -22 -52 -35t-50 -13h-67q-83 0 -132.5 43t-49.5 115q0 19 3 38l18 102q17 97 77.5 151t151.5 54h58q40 0 73.5 -16t49.5 -42l9 50h126l-87 -494
q-17 -98 -77.5 -153t-151.5 -55h-90q-81 0 -129.5 40.5zM295 119q38 0 69.5 31.5t44.5 82.5l12 69q3 40 -16 64t-54 24h-70q-39 0 -66 -26t-34 -72l-14 -82q-2 -16 -2 -22q0 -32 16.5 -50.5t44.5 -18.5h69zM214 689h320l-19 -106h-320z" />
    <glyph glyph-name="h" unicode="h" horiz-adv-x="602" 
d="M137 700h136l-44 -251q27 27 59 42.5t60 15.5h56q75 0 118.5 -39.5t43.5 -105.5q0 -17 -3 -37l-57 -325h-136l56 320q1 6 1 16q0 24 -12.5 38.5t-34.5 14.5h-62q-35 0 -67.5 -25.5t-48.5 -66.5l-52 -297h-136z" />
    <glyph glyph-name="hbar" unicode="&#x127;" horiz-adv-x="627" 
d="M547.5 467.5q43.5 -39.5 43.5 -105.5q0 -17 -3 -37l-57 -325h-136l56 320q1 6 1 16q0 24 -12.5 38.5t-34.5 14.5h-62q-35 0 -67.5 -25.5t-48.5 -66.5l-52 -297h-136l97 553h-74l16 92h74l10 55h136l-10 -55h141l-16 -92h-141l-18 -104q27 27 59 42.5t60 15.5h56
q75 0 118.5 -39.5z" />
    <glyph glyph-name="uni1E2B" unicode="&#x1e2b;" horiz-adv-x="602" 
d="M137 700h136l-44 -251q27 27 59 42.5t60 15.5h56q75 0 118.5 -39.5t43.5 -105.5q0 -17 -3 -37l-57 -325h-136l56 320q1 6 1 16q0 24 -12.5 38.5t-34.5 14.5h-62q-35 0 -67.5 -25.5t-48.5 -66.5l-52 -297h-136zM106.5 -202.5q-41.5 32.5 -41.5 87.5q0 14 3 31l4 20h106
l-4 -20q-1 -5 -1 -13q0 -22 14.5 -35t40.5 -13h12q29 0 50 16.5t26 44.5l4 20h106l-4 -20q-14 -71 -64 -111t-126 -40h-12q-72 0 -113.5 32.5z" />
    <glyph glyph-name="hcircumflex" unicode="&#x125;" horiz-adv-x="602" 
d="M137 700h136l-44 -251q27 27 59 42.5t60 15.5h56q75 0 118.5 -39.5t43.5 -105.5q0 -17 -3 -37l-57 -325h-136l56 320q1 6 1 16q0 24 -12.5 38.5t-34.5 14.5h-62q-35 0 -67.5 -25.5t-48.5 -66.5l-52 -297h-136zM386 955h89l118 -186h-118l-57 97l-92 -97h-123z" />
    <glyph glyph-name="uni1E25" unicode="&#x1e25;" horiz-adv-x="602" 
d="M137 700h136l-44 -251q27 27 59 42.5t60 15.5h56q75 0 118.5 -39.5t43.5 -105.5q0 -17 -3 -37l-57 -325h-136l56 320q1 6 1 16q0 24 -12.5 38.5t-34.5 14.5h-62q-35 0 -67.5 -25.5t-48.5 -66.5l-52 -297h-136zM168 -211q-19 18 -19 47q0 45 27.5 72.5t71.5 27.5
q31 0 50.5 -18t19.5 -47q0 -45 -27.5 -72.5t-71.5 -27.5q-32 0 -51 18z" />
    <glyph glyph-name="i" unicode="i" horiz-adv-x="288" 
d="M144 564q-20 18 -20 47q0 44 27.5 71.5t73.5 27.5q33 0 53 -18t20 -47q0 -44 -27.5 -71.5t-73.5 -27.5q-33 0 -53 18zM120 499h136l-88 -499h-136z" />
    <glyph glyph-name="dotlessi" unicode="&#x131;" horiz-adv-x="264" 
d="M108 499h136l-88 -499h-136z" />
    <glyph glyph-name="iacute" unicode="&#xed;" horiz-adv-x="264" 
d="M108 499h136l-88 -499h-136zM249 748h154l-150 -180h-134z" />
    <glyph glyph-name="ibreve" unicode="&#x12d;" horiz-adv-x="264" 
d="M108 499h136l-88 -499h-136zM74.5 592.5q-41.5 32.5 -41.5 87.5q0 15 3 31l4 20h106l-4 -20q-1 -5 -1 -13q0 -22 14.5 -35t40.5 -13h12q29 0 50 16.5t26 44.5l4 20h106l-4 -20q-14 -71 -64 -111t-126 -40h-12q-72 0 -113.5 32.5z" />
    <glyph glyph-name="uni01D0" unicode="&#x1d0;" horiz-adv-x="264" 
d="M108 499h136l-88 -499h-136zM26 754h117l58 -97l91 97h124l-184 -186h-89z" />
    <glyph glyph-name="icircumflex" unicode="&#xee;" horiz-adv-x="264" 
d="M108 499h136l-88 -499h-136zM176 754h89l118 -186h-118l-57 97l-92 -97h-123z" />
    <glyph glyph-name="idieresis" unicode="&#xef;" horiz-adv-x="264" 
d="M108 499h136l-88 -499h-136zM20.5 585.5q-16.5 15.5 -16.5 40.5q0 39 23.5 62.5t62.5 23.5q27 0 43.5 -15.5t16.5 -40.5q0 -39 -23.5 -62.5t-61.5 -23.5q-28 0 -44.5 15.5zM269.5 585.5q-16.5 15.5 -16.5 40.5q0 39 23.5 62.5t61.5 23.5q28 0 44.5 -15.5t16.5 -40.5
q0 -39 -23.5 -62.5t-62.5 -23.5q-27 0 -43.5 15.5z" />
    <glyph glyph-name="uni1ECB" unicode="&#x1ecb;" horiz-adv-x="288" 
d="M144 564q-20 18 -20 47q0 44 27.5 71.5t73.5 27.5q33 0 53 -18t20 -47q0 -44 -27.5 -71.5t-73.5 -27.5q-33 0 -53 18zM120 499h136l-88 -499h-136zM8 -211q-19 18 -19 47q0 45 27.5 72.5t71.5 27.5q31 0 50.5 -18t19.5 -47q0 -45 -27.5 -72.5t-71.5 -27.5q-32 0 -51 18z
" />
    <glyph glyph-name="igrave" unicode="&#xec;" horiz-adv-x="264" 
d="M108 499h136l-88 -499h-136zM38 748h146l66 -180h-126z" />
    <glyph glyph-name="uni1EC9" unicode="&#x1ec9;" horiz-adv-x="264" 
d="M108 499h136l-88 -499h-136zM133 580q4 21 20 33.5t45 26.5q24 13 36.5 22.5t15.5 23.5l2 12q5 29 -27 29h-19q-37 0 -44 -39h-92q11 63 46.5 93t96.5 30h19q118 0 118 -89q0 -6 -2 -24l-2 -12q-5 -30 -22.5 -46.5t-47.5 -33.5q-19 -10 -28.5 -18t-10.5 -18l-2 -12h-106z
" />
    <glyph glyph-name="ij" unicode="&#x133;" horiz-adv-x="588" 
d="M144 564q-20 18 -20 47q0 44 27.5 71.5t73.5 27.5q33 0 53 -18t20 -47q0 -44 -27.5 -71.5t-73.5 -27.5q-33 0 -53 18zM120 499h136l-88 -499h-136zM444 564q-20 18 -20 47q0 44 27.5 71.5t73.5 27.5q33 0 53 -18t20 -47q0 -44 -27.5 -71.5t-73.5 -27.5q-33 0 -53 18z
M185 -83h62q36 0 57 23t30 73l86 486h136l-85 -481q-21 -116 -77.5 -166.5t-166.5 -50.5h-62z" />
    <glyph glyph-name="imacron" unicode="&#x12b;" horiz-adv-x="264" 
d="M108 499h136l-88 -499h-136zM50 689h320l-19 -106h-320z" />
    <glyph glyph-name="iogonek" unicode="&#x12f;" horiz-adv-x="288" 
d="M144 564q-20 18 -20 47q0 44 27.5 71.5t73.5 27.5q33 0 53 -18t20 -47q0 -44 -27.5 -71.5t-73.5 -27.5q-33 0 -53 18zM120 499h136l-88 -499h-136zM-3.5 -207q-32.5 24 -32.5 64q0 10 1 15l2 14q5 32 30.5 63.5t60.5 50.5h110q-34 -17 -57.5 -43t-29.5 -52l-2 -9
q-1 -3 -1 -9q0 -14 10 -22t29 -8h15q17 0 36 5.5t32 14.5l-15 -84q-16 -11 -39 -17.5t-47 -6.5h-15q-55 0 -87.5 24z" />
    <glyph glyph-name="itilde" unicode="&#x129;" horiz-adv-x="264" 
d="M108 499h136l-88 -499h-136zM220 570q-18 10 -39 28q-25 23 -39 23h-6q-13 0 -23 -14t-15 -39h-99q12 70 48 109.5t89 39.5h6q24 0 42 -10.5t42 -29.5q23 -21 34 -21h6q12 0 22 14t14 39h99q-13 -70 -48.5 -109.5t-85.5 -39.5h-6q-23 0 -41 10z" />
    <glyph glyph-name="j" unicode="j" horiz-adv-x="300" 
d="M156 564q-20 18 -20 47q0 44 27.5 71.5t73.5 27.5q33 0 53 -18t20 -47q0 -44 -27.5 -71.5t-73.5 -27.5q-33 0 -53 18zM-103 -83h62q36 0 57 23t30 73l86 486h136l-85 -481q-21 -116 -77.5 -166.5t-166.5 -50.5h-62z" />
    <glyph glyph-name="uni0237" unicode="&#x237;" horiz-adv-x="288" 
d="M-103 -83h67q35 0 54 22.5t28 73.5l86 488h136l-85 -483q-20 -116 -75.5 -166.5t-163.5 -50.5h-67z" />
    <glyph glyph-name="jcircumflex" unicode="&#x135;" horiz-adv-x="288" 
d="M-103 -83h67q35 0 54 22.5t28 73.5l86 488h136l-85 -483q-20 -116 -75.5 -166.5t-163.5 -50.5h-67zM200 754h89l118 -186h-118l-57 97l-92 -97h-123z" />
    <glyph glyph-name="k" unicode="k" horiz-adv-x="555" 
d="M341 287l172 -287h-148l-123 203l-66 -56l-26 -147h-136l123 700h136l-69 -394l225 193h164z" />
    <glyph glyph-name="uni0137" unicode="&#x137;" horiz-adv-x="555" 
d="M341 287l172 -287h-148l-123 203l-66 -56l-26 -147h-136l123 700h136l-69 -394l225 193h164zM54 -240l35 27q31 25 48.5 52t23.5 60l7 39h136l-7 -39q-13 -70 -45 -121t-88 -90l-38 -27z" />
    <glyph glyph-name="kgreenlandic" unicode="&#x138;" horiz-adv-x="577" 
d="M349 281l186 -281h-155l-131 198l-75 -62l-24 -136h-136l88 499h136l-36 -204l247 204h164z" />
    <glyph glyph-name="l" unicode="l" horiz-adv-x="296" 
d="M73.5 27q-36.5 27 -36.5 85q0 22 4 42l96 546h136l-95 -538q-1 -5 -1 -14q0 -16 9 -24t30 -8h54l-20 -116h-64q-76 0 -112.5 27z" />
    <glyph glyph-name="lacute" unicode="&#x13a;" horiz-adv-x="296" 
d="M73.5 27q-36.5 27 -36.5 85q0 22 4 42l96 546h136l-95 -538q-1 -5 -1 -14q0 -16 9 -24t30 -8h54l-20 -116h-64q-76 0 -112.5 27zM279 949h154l-150 -180h-134z" />
    <glyph glyph-name="lcaron" unicode="&#x13e;" horiz-adv-x="482" 
d="M73.5 27q-36.5 27 -36.5 85q0 22 4 42l96 546h136l-95 -538q-1 -5 -1 -14q0 -16 9 -24t30 -8h54l-20 -116h-64q-76 0 -112.5 27zM311 512l35 27q31 25 48.5 52t23.5 60l9 49h136l-9 -49q-12 -68 -44.5 -119t-88.5 -92l-38 -27z" />
    <glyph glyph-name="uni013C" unicode="&#x13c;" horiz-adv-x="296" 
d="M73.5 27q-36.5 27 -36.5 85q0 22 4 42l96 546h136l-95 -538q-1 -5 -1 -14q0 -16 9 -24t30 -8h54l-20 -116h-64q-76 0 -112.5 27zM-64 -240l35 27q31 25 48.5 52t23.5 60l7 39h136l-7 -39q-13 -70 -45 -121t-88 -90l-38 -27z" />
    <glyph glyph-name="ldot" unicode="&#x140;" horiz-adv-x="427" 
d="M73.5 27q-36.5 27 -36.5 85q0 22 4 42l96 546h136l-95 -538q-1 -5 -1 -14q0 -16 9 -24t30 -8h54l-20 -116h-64q-76 0 -112.5 27zM295 220q-19 18 -19 47q0 44 26.5 71.5t70.5 27.5q31 0 50 -18t19 -47q0 -44 -26.5 -71.5t-70.5 -27.5q-31 0 -50 18z" />
    <glyph glyph-name="uni1E37" unicode="&#x1e37;" horiz-adv-x="296" 
d="M73.5 27q-36.5 27 -36.5 85q0 22 4 42l96 546h136l-95 -538q-1 -5 -1 -14q0 -16 9 -24t30 -8h54l-20 -116h-64q-76 0 -112.5 27zM35 -211q-19 18 -19 47q0 45 27.5 72.5t71.5 27.5q31 0 50.5 -18t19.5 -47q0 -45 -27.5 -72.5t-71.5 -27.5q-32 0 -51 18z" />
    <glyph glyph-name="uni1E39" unicode="&#x1e39;" horiz-adv-x="296" 
d="M73.5 27q-36.5 27 -36.5 85q0 22 4 42l96 546h136l-95 -538q-1 -5 -1 -14q0 -16 9 -24t30 -8h54l-20 -116h-64q-76 0 -112.5 27zM35 -211q-19 18 -19 47q0 45 27.5 72.5t71.5 27.5q31 0 50.5 -18t19.5 -47q0 -45 -27.5 -72.5t-71.5 -27.5q-32 0 -51 18zM80 890h320
l-19 -106h-320z" />
    <glyph glyph-name="uni1E3B" unicode="&#x1e3b;" horiz-adv-x="296" 
d="M73.5 27q-36.5 27 -36.5 85q0 22 4 42l96 546h136l-95 -538q-1 -5 -1 -14q0 -16 9 -24t30 -8h54l-20 -116h-64q-76 0 -112.5 27zM-48 -82h320l-19 -108h-320z" />
    <glyph glyph-name="lslash" unicode="&#x142;" horiz-adv-x="332" 
d="M214 162q-1 -5 -1 -14q0 -16 9 -24t30 -8h54l-20 -116h-64q-76 0 -112.5 27t-36.5 85q0 22 4 42l14 78l-99 -52l23 132l99 52l59 336h136l-45 -257l109 58l-24 -132l-109 -57z" />
    <glyph glyph-name="m" unicode="m" horiz-adv-x="848" 
d="M772 469q41 -38 41 -103q0 -18 -3 -38l-58 -328h-136l58 328q1 6 1 16q0 21 -9.5 33t-27.5 12h-43q-29 0 -53.5 -20.5t-35.5 -54.5l-55 -314h-136l58 327q1 6 1 16q0 21 -9.5 33.5t-27.5 12.5h-39q-29 0 -56 -26t-40 -68l-52 -295h-136l88 499h126l-10 -58q23 30 53 48
t54 18h54q39 0 67 -19t41 -52q54 71 121 71h51q72 0 113 -38z" />
    <glyph glyph-name="uni1E43" unicode="&#x1e43;" horiz-adv-x="848" 
d="M772 469q41 -38 41 -103q0 -18 -3 -38l-58 -328h-136l58 328q1 6 1 16q0 21 -9.5 33t-27.5 12h-43q-29 0 -53.5 -20.5t-35.5 -54.5l-55 -314h-136l58 327q1 6 1 16q0 21 -9.5 33.5t-27.5 12.5h-39q-29 0 -56 -26t-40 -68l-52 -295h-136l88 499h126l-10 -58q23 30 53 48
t54 18h54q39 0 67 -19t41 -52q54 71 121 71h51q72 0 113 -38zM291 -211q-19 18 -19 47q0 45 27.5 72.5t71.5 27.5q31 0 50.5 -18t19.5 -47q0 -45 -27.5 -72.5t-71.5 -27.5q-32 0 -51 18z" />
    <glyph glyph-name="n" unicode="n" horiz-adv-x="600" 
d="M102 499h126l-11 -60q29 32 63 50t66 18h56q75 0 118.5 -39.5t43.5 -105.5q0 -17 -3 -37l-57 -325h-136l56 320q1 6 1 17q0 24 -12.5 38t-34.5 14h-60q-35 0 -67.5 -25.5t-48.5 -66.5l-52 -297h-136z" />
    <glyph glyph-name="nacute" unicode="&#x144;" horiz-adv-x="600" 
d="M102 499h126l-11 -60q29 32 63 50t66 18h56q75 0 118.5 -39.5t43.5 -105.5q0 -17 -3 -37l-57 -325h-136l56 320q1 6 1 17q0 24 -12.5 38t-34.5 14h-60q-35 0 -67.5 -25.5t-48.5 -66.5l-52 -297h-136zM424 748h154l-150 -180h-134z" />
    <glyph glyph-name="napostrophe" unicode="&#x149;" horiz-adv-x="786" 
d="M288 499h126l-11 -60q29 32 63 50t66 18h56q75 0 118.5 -39.5t43.5 -105.5q0 -17 -3 -37l-57 -325h-136l56 320q1 6 1 17q0 24 -12.5 38t-34.5 14h-60q-35 0 -67.5 -25.5t-48.5 -66.5l-52 -297h-136zM44 512l35 27q31 25 48.5 52t23.5 60l9 49h136l-9 -49
q-12 -68 -44.5 -119t-88.5 -92l-38 -27z" />
    <glyph glyph-name="ncaron" unicode="&#x148;" horiz-adv-x="600" 
d="M102 499h126l-11 -60q29 32 63 50t66 18h56q75 0 118.5 -39.5t43.5 -105.5q0 -17 -3 -37l-57 -325h-136l56 320q1 6 1 17q0 24 -12.5 38t-34.5 14h-60q-35 0 -67.5 -25.5t-48.5 -66.5l-52 -297h-136zM201 754h117l58 -97l91 97h124l-184 -186h-89z" />
    <glyph glyph-name="uni0146" unicode="&#x146;" horiz-adv-x="600" 
d="M102 499h126l-11 -60q29 32 63 50t66 18h56q75 0 118.5 -39.5t43.5 -105.5q0 -17 -3 -37l-57 -325h-136l56 320q1 6 1 17q0 24 -12.5 38t-34.5 14h-60q-35 0 -67.5 -25.5t-48.5 -66.5l-52 -297h-136zM68 -240l35 27q31 25 48.5 52t23.5 60l7 39h136l-7 -39
q-13 -70 -45 -121t-88 -90l-38 -27z" />
    <glyph glyph-name="uni1E45" unicode="&#x1e45;" horiz-adv-x="600" 
d="M102 499h126l-11 -60q29 32 63 50t66 18h56q75 0 118.5 -39.5t43.5 -105.5q0 -17 -3 -37l-57 -325h-136l56 320q1 6 1 17q0 24 -12.5 38t-34.5 14h-60q-35 0 -67.5 -25.5t-48.5 -66.5l-52 -297h-136zM311 578q-19 18 -19 47q0 45 27.5 72.5t71.5 27.5q32 0 51 -18t19 -47
q0 -45 -27.5 -72.5t-71.5 -27.5q-32 0 -51 18z" />
    <glyph glyph-name="uni1E47" unicode="&#x1e47;" horiz-adv-x="600" 
d="M102 499h126l-11 -60q29 32 63 50t66 18h56q75 0 118.5 -39.5t43.5 -105.5q0 -17 -3 -37l-57 -325h-136l56 320q1 6 1 17q0 24 -12.5 38t-34.5 14h-60q-35 0 -67.5 -25.5t-48.5 -66.5l-52 -297h-136zM167 -211q-19 18 -19 47q0 45 27.5 72.5t71.5 27.5q31 0 50.5 -18
t19.5 -47q0 -45 -27.5 -72.5t-71.5 -27.5q-32 0 -51 18z" />
    <glyph glyph-name="eng" unicode="&#x14b;" horiz-adv-x="600" 
d="M221 -83h67q35 0 54 22.5t28 73.5l54 307q1 6 1 17q0 24 -12.5 38t-34.5 14h-60q-35 0 -67.5 -25.5t-48.5 -66.5l-52 -297h-136l88 499h126l-11 -60q29 32 62.5 50t64.5 18h58q75 0 118.5 -39.5t43.5 -105.5q0 -17 -3 -37l-57 -325q-19 -106 -75 -152.5t-161 -46.5h-67z
" />
    <glyph glyph-name="uni1E49" unicode="&#x1e49;" horiz-adv-x="600" 
d="M102 499h126l-11 -60q29 32 63 50t66 18h56q75 0 118.5 -39.5t43.5 -105.5q0 -17 -3 -37l-57 -325h-136l56 320q1 6 1 17q0 24 -12.5 38t-34.5 14h-60q-35 0 -67.5 -25.5t-48.5 -66.5l-52 -297h-136zM84 -82h320l-19 -108h-320z" />
    <glyph glyph-name="ntilde" unicode="&#xf1;" horiz-adv-x="600" 
d="M102 499h126l-11 -60q29 32 63 50t66 18h56q75 0 118.5 -39.5t43.5 -105.5q0 -17 -3 -37l-57 -325h-136l56 320q1 6 1 17q0 24 -12.5 38t-34.5 14h-60q-35 0 -67.5 -25.5t-48.5 -66.5l-52 -297h-136zM395 570q-18 10 -39 28q-25 23 -39 23h-6q-13 0 -23 -14t-15 -39h-99
q12 70 48 109.5t89 39.5h6q24 0 42 -10.5t42 -29.5q23 -21 34 -21h6q12 0 22 14t14 39h99q-13 -70 -48.5 -109.5t-85.5 -39.5h-6q-23 0 -41 10z" />
    <glyph glyph-name="o" unicode="o" horiz-adv-x="594" 
d="M78.5 36.5q-53.5 44.5 -53.5 117.5q0 18 3 36l21 117q17 94 79 147t156 53h89q91 0 144 -43.5t53 -117.5q0 -11 -4 -39l-21 -117q-17 -94 -78 -146t-158 -52h-89q-88 0 -141.5 44.5zM314 109q38 0 64 24.5t33 67.5l17 97q2 16 2 22q0 32 -17.5 51t-48.5 19h-85
q-38 0 -63.5 -24.5t-32.5 -67.5l-17 -97q-2 -16 -2 -23q0 -32 17.5 -50.5t47.5 -18.5h85z" />
    <glyph glyph-name="oacute" unicode="&#xf3;" horiz-adv-x="594" 
d="M78.5 36.5q-53.5 44.5 -53.5 117.5q0 18 3 36l21 117q17 94 79 147t156 53h89q91 0 144 -43.5t53 -117.5q0 -11 -4 -39l-21 -117q-17 -94 -78 -146t-158 -52h-89q-88 0 -141.5 44.5zM314 109q38 0 64 24.5t33 67.5l17 97q2 16 2 22q0 32 -17.5 51t-48.5 19h-85
q-38 0 -63.5 -24.5t-32.5 -67.5l-17 -97q-2 -16 -2 -23q0 -32 17.5 -50.5t47.5 -18.5h85zM414 748h154l-150 -180h-134z" />
    <glyph glyph-name="obreve" unicode="&#x14f;" horiz-adv-x="594" 
d="M78.5 36.5q-53.5 44.5 -53.5 117.5q0 18 3 36l21 117q17 94 79 147t156 53h89q91 0 144 -43.5t53 -117.5q0 -11 -4 -39l-21 -117q-17 -94 -78 -146t-158 -52h-89q-88 0 -141.5 44.5zM314 109q38 0 64 24.5t33 67.5l17 97q2 16 2 22q0 32 -17.5 51t-48.5 19h-85
q-38 0 -63.5 -24.5t-32.5 -67.5l-17 -97q-2 -16 -2 -23q0 -32 17.5 -50.5t47.5 -18.5h85zM239.5 592.5q-41.5 32.5 -41.5 87.5q0 15 3 31l4 20h106l-4 -20q-1 -5 -1 -13q0 -22 14.5 -35t40.5 -13h12q29 0 50 16.5t26 44.5l4 20h106l-4 -20q-14 -71 -64 -111t-126 -40h-12
q-72 0 -113.5 32.5z" />
    <glyph glyph-name="uni01D2" unicode="&#x1d2;" horiz-adv-x="594" 
d="M78.5 36.5q-53.5 44.5 -53.5 117.5q0 18 3 36l21 117q17 94 79 147t156 53h89q91 0 144 -43.5t53 -117.5q0 -11 -4 -39l-21 -117q-17 -94 -78 -146t-158 -52h-89q-88 0 -141.5 44.5zM314 109q38 0 64 24.5t33 67.5l17 97q2 16 2 22q0 32 -17.5 51t-48.5 19h-85
q-38 0 -63.5 -24.5t-32.5 -67.5l-17 -97q-2 -16 -2 -23q0 -32 17.5 -50.5t47.5 -18.5h85zM191 754h117l58 -97l91 97h124l-184 -186h-89z" />
    <glyph glyph-name="ocircumflex" unicode="&#xf4;" horiz-adv-x="594" 
d="M78.5 36.5q-53.5 44.5 -53.5 117.5q0 18 3 36l21 117q17 94 79 147t156 53h89q91 0 144 -43.5t53 -117.5q0 -11 -4 -39l-21 -117q-17 -94 -78 -146t-158 -52h-89q-88 0 -141.5 44.5zM314 109q38 0 64 24.5t33 67.5l17 97q2 16 2 22q0 32 -17.5 51t-48.5 19h-85
q-38 0 -63.5 -24.5t-32.5 -67.5l-17 -97q-2 -16 -2 -23q0 -32 17.5 -50.5t47.5 -18.5h85zM341 754h89l118 -186h-118l-57 97l-92 -97h-123z" />
    <glyph glyph-name="uni1ED1" unicode="&#x1ed1;" horiz-adv-x="594" 
d="M78.5 36.5q-53.5 44.5 -53.5 117.5q0 18 3 36l21 117q17 94 79 147t156 53h89q91 0 144 -43.5t53 -117.5q0 -11 -4 -39l-21 -117q-17 -94 -78 -146t-158 -52h-89q-88 0 -141.5 44.5zM314 109q38 0 64 24.5t33 67.5l17 97q2 16 2 22q0 32 -17.5 51t-48.5 19h-85
q-38 0 -63.5 -24.5t-32.5 -67.5l-17 -97q-2 -16 -2 -23q0 -32 17.5 -50.5t47.5 -18.5h85zM599 886h130l-126 -150h-112zM341 754h89l118 -186h-118l-57 97l-92 -97h-123z" />
    <glyph glyph-name="uni1ED9" unicode="&#x1ed9;" horiz-adv-x="594" 
d="M78.5 36.5q-53.5 44.5 -53.5 117.5q0 18 3 36l21 117q17 94 79 147t156 53h89q91 0 144 -43.5t53 -117.5q0 -11 -4 -39l-21 -117q-17 -94 -78 -146t-158 -52h-89q-88 0 -141.5 44.5zM314 109q38 0 64 24.5t33 67.5l17 97q2 16 2 22q0 32 -17.5 51t-48.5 19h-85
q-38 0 -63.5 -24.5t-32.5 -67.5l-17 -97q-2 -16 -2 -23q0 -32 17.5 -50.5t47.5 -18.5h85zM175 -211q-19 18 -19 47q0 45 27.5 72.5t71.5 27.5q31 0 50.5 -18t19.5 -47q0 -45 -27.5 -72.5t-71.5 -27.5q-32 0 -51 18zM341 754h89l118 -186h-118l-57 97l-92 -97h-123z" />
    <glyph glyph-name="uni1ED3" unicode="&#x1ed3;" horiz-adv-x="594" 
d="M78.5 36.5q-53.5 44.5 -53.5 117.5q0 18 3 36l21 117q17 94 79 147t156 53h89q91 0 144 -43.5t53 -117.5q0 -11 -4 -39l-21 -117q-17 -94 -78 -146t-158 -52h-89q-88 0 -141.5 44.5zM314 109q38 0 64 24.5t33 67.5l17 97q2 16 2 22q0 32 -17.5 51t-48.5 19h-85
q-38 0 -63.5 -24.5t-32.5 -67.5l-17 -97q-2 -16 -2 -23q0 -32 17.5 -50.5t47.5 -18.5h85zM461 886h122l56 -150h-104zM341 754h89l118 -186h-118l-57 97l-92 -97h-123z" />
    <glyph glyph-name="uni1ED5" unicode="&#x1ed5;" horiz-adv-x="594" 
d="M78.5 36.5q-53.5 44.5 -53.5 117.5q0 18 3 36l21 117q17 94 79 147t156 53h89q91 0 144 -43.5t53 -117.5q0 -11 -4 -39l-21 -117q-17 -94 -78 -146t-158 -52h-89q-88 0 -141.5 44.5zM314 109q38 0 64 24.5t33 67.5l17 97q2 16 2 22q0 32 -17.5 51t-48.5 19h-85
q-38 0 -63.5 -24.5t-32.5 -67.5l-17 -97q-2 -16 -2 -23q0 -32 17.5 -50.5t47.5 -18.5h85zM519 724q3 18 16 28.5t39 22.5q22 11 32.5 19t12.5 20l2 13v5q0 18 -21 18h-17q-29 0 -33 -31h-84q16 107 119 107h17q53 0 81 -20t28 -59q0 -6 -2 -20l-2 -13q-4 -26 -19 -40.5
t-42 -29.5q-16 -9 -24.5 -15t-9.5 -15l-2 -10h-94zM341 754h89l118 -186h-118l-57 97l-92 -97h-123z" />
    <glyph glyph-name="uni1ED7" unicode="&#x1ed7;" horiz-adv-x="594" 
d="M78.5 36.5q-53.5 44.5 -53.5 117.5q0 18 3 36l21 117q17 94 79 147t156 53h89q91 0 144 -43.5t53 -117.5q0 -11 -4 -39l-21 -117q-17 -94 -78 -146t-158 -52h-89q-88 0 -141.5 44.5zM314 109q38 0 64 24.5t33 67.5l17 97q2 16 2 22q0 32 -17.5 51t-48.5 19h-85
q-38 0 -63.5 -24.5t-32.5 -67.5l-17 -97q-2 -16 -2 -23q0 -32 17.5 -50.5t47.5 -18.5h85zM425.5 791.5q-14.5 7.5 -32.5 22.5q-14 11 -22.5 16t-19.5 5h-5q-14 0 -23.5 -11.5t-12.5 -30.5h-90q11 59 44 92.5t82 33.5h6q22 0 37.5 -8t33.5 -23q14 -11 22 -15.5t17 -4.5h5
q12 0 21 11.5t13 30.5h90q-11 -59 -43.5 -92.5t-78.5 -33.5h-6q-23 0 -37.5 7.5zM341 754h89l118 -186h-118l-57 97l-92 -97h-123z" />
    <glyph glyph-name="odieresis" unicode="&#xf6;" horiz-adv-x="594" 
d="M78.5 36.5q-53.5 44.5 -53.5 117.5q0 18 3 36l21 117q17 94 79 147t156 53h89q91 0 144 -43.5t53 -117.5q0 -11 -4 -39l-21 -117q-17 -94 -78 -146t-158 -52h-89q-88 0 -141.5 44.5zM314 109q38 0 64 24.5t33 67.5l17 97q2 16 2 22q0 32 -17.5 51t-48.5 19h-85
q-38 0 -63.5 -24.5t-32.5 -67.5l-17 -97q-2 -16 -2 -23q0 -32 17.5 -50.5t47.5 -18.5h85zM185.5 585.5q-16.5 15.5 -16.5 40.5q0 39 23.5 62.5t62.5 23.5q27 0 43.5 -15.5t16.5 -40.5q0 -39 -23.5 -62.5t-61.5 -23.5q-28 0 -44.5 15.5zM434.5 585.5q-16.5 15.5 -16.5 40.5
q0 39 23.5 62.5t61.5 23.5q28 0 44.5 -15.5t16.5 -40.5q0 -39 -23.5 -62.5t-62.5 -23.5q-27 0 -43.5 15.5z" />
    <glyph glyph-name="uni1ECD" unicode="&#x1ecd;" horiz-adv-x="594" 
d="M78.5 36.5q-53.5 44.5 -53.5 117.5q0 18 3 36l21 117q17 94 79 147t156 53h89q91 0 144 -43.5t53 -117.5q0 -11 -4 -39l-21 -117q-17 -94 -78 -146t-158 -52h-89q-88 0 -141.5 44.5zM314 109q38 0 64 24.5t33 67.5l17 97q2 16 2 22q0 32 -17.5 51t-48.5 19h-85
q-38 0 -63.5 -24.5t-32.5 -67.5l-17 -97q-2 -16 -2 -23q0 -32 17.5 -50.5t47.5 -18.5h85zM175 -211q-19 18 -19 47q0 45 27.5 72.5t71.5 27.5q31 0 50.5 -18t19.5 -47q0 -45 -27.5 -72.5t-71.5 -27.5q-32 0 -51 18z" />
    <glyph glyph-name="ograve" unicode="&#xf2;" horiz-adv-x="594" 
d="M78.5 36.5q-53.5 44.5 -53.5 117.5q0 18 3 36l21 117q17 94 79 147t156 53h89q91 0 144 -43.5t53 -117.5q0 -11 -4 -39l-21 -117q-17 -94 -78 -146t-158 -52h-89q-88 0 -141.5 44.5zM314 109q38 0 64 24.5t33 67.5l17 97q2 16 2 22q0 32 -17.5 51t-48.5 19h-85
q-38 0 -63.5 -24.5t-32.5 -67.5l-17 -97q-2 -16 -2 -23q0 -32 17.5 -50.5t47.5 -18.5h85zM203 748h146l66 -180h-126z" />
    <glyph glyph-name="uni1ECF" unicode="&#x1ecf;" horiz-adv-x="594" 
d="M78.5 36.5q-53.5 44.5 -53.5 117.5q0 18 3 36l21 117q17 94 79 147t156 53h89q91 0 144 -43.5t53 -117.5q0 -11 -4 -39l-21 -117q-17 -94 -78 -146t-158 -52h-89q-88 0 -141.5 44.5zM314 109q38 0 64 24.5t33 67.5l17 97q2 16 2 22q0 32 -17.5 51t-48.5 19h-85
q-38 0 -63.5 -24.5t-32.5 -67.5l-17 -97q-2 -16 -2 -23q0 -32 17.5 -50.5t47.5 -18.5h85zM298 580q4 21 20 33.5t45 26.5q24 13 36.5 22.5t15.5 23.5l2 12q5 29 -27 29h-19q-37 0 -44 -39h-92q11 63 46.5 93t96.5 30h19q118 0 118 -89q0 -6 -2 -24l-2 -12
q-5 -30 -22.5 -46.5t-47.5 -33.5q-19 -10 -28.5 -18t-10.5 -18l-2 -12h-106z" />
    <glyph glyph-name="ohorn" unicode="&#x1a1;" horiz-adv-x="725" 
d="M764 514l-9 -48q-18 -94 -70 -147t-127 -54l-13 -75q-17 -94 -78 -146t-158 -52h-89q-88 0 -141.5 44.5t-53.5 117.5q0 18 3 36l21 117q17 94 79 147t156 53h89q80 0 131.5 -34t62.5 -94q22 5 38 28t23 59l9 48h127zM430 320q0 32 -17.5 51t-48.5 19h-85
q-38 0 -63.5 -24.5t-32.5 -67.5l-17 -97q-2 -16 -2 -23q0 -32 17.5 -50.5t47.5 -18.5h85q38 0 64 24.5t33 67.5l17 97q2 16 2 22z" />
    <glyph glyph-name="uni1EDB" unicode="&#x1edb;" horiz-adv-x="725" 
d="M764 514l-9 -48q-18 -94 -70 -147t-127 -54l-13 -75q-17 -94 -78 -146t-158 -52h-89q-88 0 -141.5 44.5t-53.5 117.5q0 18 3 36l21 117q17 94 79 147t156 53h89q80 0 131.5 -34t62.5 -94q22 5 38 28t23 59l9 48h127zM430 320q0 32 -17.5 51t-48.5 19h-85
q-38 0 -63.5 -24.5t-32.5 -67.5l-17 -97q-2 -16 -2 -23q0 -32 17.5 -50.5t47.5 -18.5h85q38 0 64 24.5t33 67.5l17 97q2 16 2 22zM414 748h154l-150 -180h-134z" />
    <glyph glyph-name="uni1EE3" unicode="&#x1ee3;" horiz-adv-x="725" 
d="M764 514l-9 -48q-18 -94 -70 -147t-127 -54l-13 -75q-17 -94 -78 -146t-158 -52h-89q-88 0 -141.5 44.5t-53.5 117.5q0 18 3 36l21 117q17 94 79 147t156 53h89q80 0 131.5 -34t62.5 -94q22 5 38 28t23 59l9 48h127zM430 320q0 32 -17.5 51t-48.5 19h-85
q-38 0 -63.5 -24.5t-32.5 -67.5l-17 -97q-2 -16 -2 -23q0 -32 17.5 -50.5t47.5 -18.5h85q38 0 64 24.5t33 67.5l17 97q2 16 2 22zM161 -211q-19 18 -19 47q0 45 27.5 72.5t71.5 27.5q31 0 50.5 -18t19.5 -47q0 -45 -27.5 -72.5t-71.5 -27.5q-32 0 -51 18z" />
    <glyph glyph-name="uni1EDD" unicode="&#x1edd;" horiz-adv-x="725" 
d="M764 514l-9 -48q-18 -94 -70 -147t-127 -54l-13 -75q-17 -94 -78 -146t-158 -52h-89q-88 0 -141.5 44.5t-53.5 117.5q0 18 3 36l21 117q17 94 79 147t156 53h89q80 0 131.5 -34t62.5 -94q22 5 38 28t23 59l9 48h127zM430 320q0 32 -17.5 51t-48.5 19h-85
q-38 0 -63.5 -24.5t-32.5 -67.5l-17 -97q-2 -16 -2 -23q0 -32 17.5 -50.5t47.5 -18.5h85q38 0 64 24.5t33 67.5l17 97q2 16 2 22zM203 748h146l66 -180h-126z" />
    <glyph glyph-name="uni1EDF" unicode="&#x1edf;" horiz-adv-x="725" 
d="M764 514l-9 -48q-18 -94 -70 -147t-127 -54l-13 -75q-17 -94 -78 -146t-158 -52h-89q-88 0 -141.5 44.5t-53.5 117.5q0 18 3 36l21 117q17 94 79 147t156 53h89q80 0 131.5 -34t62.5 -94q22 5 38 28t23 59l9 48h127zM430 320q0 32 -17.5 51t-48.5 19h-85
q-38 0 -63.5 -24.5t-32.5 -67.5l-17 -97q-2 -16 -2 -23q0 -32 17.5 -50.5t47.5 -18.5h85q38 0 64 24.5t33 67.5l17 97q2 16 2 22zM298 580q4 21 20 33.5t45 26.5q24 13 36.5 22.5t15.5 23.5l2 12q5 29 -27 29h-19q-37 0 -44 -39h-92q11 63 46.5 93t96.5 30h19q118 0 118 -89
q0 -6 -2 -24l-2 -12q-5 -30 -22.5 -46.5t-47.5 -33.5q-19 -10 -28.5 -18t-10.5 -18l-2 -12h-106z" />
    <glyph glyph-name="uni1EE1" unicode="&#x1ee1;" horiz-adv-x="725" 
d="M764 514l-9 -48q-18 -94 -70 -147t-127 -54l-13 -75q-17 -94 -78 -146t-158 -52h-89q-88 0 -141.5 44.5t-53.5 117.5q0 18 3 36l21 117q17 94 79 147t156 53h89q80 0 131.5 -34t62.5 -94q22 5 38 28t23 59l9 48h127zM430 320q0 32 -17.5 51t-48.5 19h-85
q-38 0 -63.5 -24.5t-32.5 -67.5l-17 -97q-2 -16 -2 -23q0 -32 17.5 -50.5t47.5 -18.5h85q38 0 64 24.5t33 67.5l17 97q2 16 2 22zM385 570q-18 10 -39 28q-25 23 -39 23h-6q-13 0 -23 -14t-15 -39h-99q12 70 48 109.5t89 39.5h6q24 0 42 -10.5t42 -29.5q23 -21 34 -21h6
q12 0 22 14t14 39h99q-13 -70 -48.5 -109.5t-85.5 -39.5h-6q-23 0 -41 10z" />
    <glyph glyph-name="ohungarumlaut" unicode="&#x151;" horiz-adv-x="594" 
d="M78.5 36.5q-53.5 44.5 -53.5 117.5q0 18 3 36l21 117q17 94 79 147t156 53h89q91 0 144 -43.5t53 -117.5q0 -11 -4 -39l-21 -117q-17 -94 -78 -146t-158 -52h-89q-88 0 -141.5 44.5zM314 109q38 0 64 24.5t33 67.5l17 97q2 16 2 22q0 32 -17.5 51t-48.5 19h-85
q-38 0 -63.5 -24.5t-32.5 -67.5l-17 -97q-2 -16 -2 -23q0 -32 17.5 -50.5t47.5 -18.5h85zM315 748h144l-150 -180h-124zM509 748h144l-150 -180h-124z" />
    <glyph glyph-name="omacron" unicode="&#x14d;" horiz-adv-x="594" 
d="M78.5 36.5q-53.5 44.5 -53.5 117.5q0 18 3 36l21 117q17 94 79 147t156 53h89q91 0 144 -43.5t53 -117.5q0 -11 -4 -39l-21 -117q-17 -94 -78 -146t-158 -52h-89q-88 0 -141.5 44.5zM314 109q38 0 64 24.5t33 67.5l17 97q2 16 2 22q0 32 -17.5 51t-48.5 19h-85
q-38 0 -63.5 -24.5t-32.5 -67.5l-17 -97q-2 -16 -2 -23q0 -32 17.5 -50.5t47.5 -18.5h85zM215 689h320l-19 -106h-320z" />
    <glyph glyph-name="oslash" unicode="&#xf8;" horiz-adv-x="594" 
d="M528 453q42 -42 42 -107q0 -11 -4 -39l-21 -117q-17 -94 -78 -146t-158 -52h-89q-43 0 -84 13l-44 -50h-106l81 92q-42 42 -42 107q0 18 3 36l21 117q17 94 79 147t156 53h89q47 0 85 -12l44 50h106zM164 177q0 -12 1 -17l201 230h-2h-85q-38 0 -63.5 -24.5t-32.5 -67.5
l-17 -97q-2 -8 -2 -24zM430 320q0 13 -2 19l-201 -230h2h85q38 0 64 24.5t33 67.5l17 97q2 8 2 22z" />
    <glyph glyph-name="oslashacute" unicode="&#x1ff;" horiz-adv-x="594" 
d="M528 453q42 -42 42 -107q0 -11 -4 -39l-21 -117q-17 -94 -78 -146t-158 -52h-89q-43 0 -84 13l-44 -50h-106l81 92q-42 42 -42 107q0 18 3 36l21 117q17 94 79 147t156 53h89q47 0 85 -12l44 50h106zM164 177q0 -12 1 -17l201 230h-2h-85q-38 0 -63.5 -24.5t-32.5 -67.5
l-17 -97q-2 -8 -2 -24zM430 320q0 13 -2 19l-201 -230h2h85q38 0 64 24.5t33 67.5l17 97q2 8 2 22zM414 748h154l-150 -180h-134z" />
    <glyph glyph-name="otilde" unicode="&#xf5;" horiz-adv-x="594" 
d="M78.5 36.5q-53.5 44.5 -53.5 117.5q0 18 3 36l21 117q17 94 79 147t156 53h89q91 0 144 -43.5t53 -117.5q0 -11 -4 -39l-21 -117q-17 -94 -78 -146t-158 -52h-89q-88 0 -141.5 44.5zM314 109q38 0 64 24.5t33 67.5l17 97q2 16 2 22q0 32 -17.5 51t-48.5 19h-85
q-38 0 -63.5 -24.5t-32.5 -67.5l-17 -97q-2 -16 -2 -23q0 -32 17.5 -50.5t47.5 -18.5h85zM385 570q-18 10 -39 28q-25 23 -39 23h-6q-13 0 -23 -14t-15 -39h-99q12 70 48 109.5t89 39.5h6q24 0 42 -10.5t42 -29.5q23 -21 34 -21h6q12 0 22 14t14 39h99q-13 -70 -48.5 -109.5
t-85.5 -39.5h-6q-23 0 -41 10z" />
    <glyph glyph-name="oe" unicode="&#x153;" horiz-adv-x="960" 
d="M887 463q52 -44 52 -119q0 -19 -3 -39l-18 -102h-370l-2 -14q-1 -5 -1 -16q0 -31 18 -49t49 -18h74q37 0 60.5 15t28.5 41h134q-14 -80 -75 -125t-156 -45h-72q-48 0 -89 16.5t-64 45.5q-32 -29 -70 -45.5t-77 -16.5h-84q-91 0 -144 44t-53 118q0 18 3 37l21 117
q16 94 78.5 146.5t157.5 52.5h90q46 0 84.5 -16.5t62.5 -44.5q29 30 67 45.5t78 15.5h78q90 0 142 -44zM803 327q0 31 -17 48.5t-47 17.5h-73q-35 0 -61.5 -24t-33.5 -63l-1 -5h230l1 6q2 14 2 20zM431 320q0 32 -17.5 51t-48.5 19h-86q-37 0 -62.5 -24t-33.5 -68l-17 -97
q-2 -16 -2 -22q0 -32 17.5 -51t48.5 -19h84q38 0 64 24t34 68l17 97q2 16 2 22z" />
    <glyph glyph-name="p" unicode="p" horiz-adv-x="604" 
d="M102 499h126l-9 -54q26 30 57 46t59 16h60q86 0 136 -42t50 -114q0 -12 -4 -38l-20 -112q-17 -98 -76 -153.5t-146 -55.5h-65q-34 0 -65 13t-48 35l-42 -240h-136zM323 109q38 0 65 27t35 75l16 92q2 14 2 19q0 31 -18.5 49.5t-50.5 18.5h-60q-29 0 -59 -23.5t-49 -60.5
l-17 -99q-4 -44 16.5 -71t57.5 -27h62z" />
    <glyph glyph-name="thorn" unicode="&#xfe;" horiz-adv-x="604" 
d="M138 700h136l-44 -246q23 25 51 39t56 14h58q86 0 136 -42t50 -114q0 -12 -4 -38l-20 -112q-17 -98 -76 -153.5t-146 -55.5h-65q-34 0 -65 13t-48 35l-42 -240h-136zM323 109q38 0 65 27t35 75l16 92q2 14 2 19q0 31 -18.5 49.5t-50.5 18.5h-60q-29 0 -59 -23.5
t-49 -60.5l-17 -99q-4 -44 16.5 -71t57.5 -27h62z" />
    <glyph glyph-name="q" unicode="q" horiz-adv-x="604" 
d="M374 42q-24 -23 -50.5 -36.5t-48.5 -13.5h-69q-83 0 -132.5 43t-49.5 116q0 11 4 39l20 112q17 97 77.5 151t150.5 54h67q36 0 67 -16t46 -42l8 50h126l-123 -699h-136zM292 109q38 0 69.5 31.5t44.5 82.5l14 79q3 40 -16 64t-54 24h-69q-39 0 -65.5 -26t-33.5 -72
l-16 -92q-2 -9 -2 -24q0 -31 16 -49t44 -18h68z" />
    <glyph glyph-name="r" unicode="r" horiz-adv-x="383" 
d="M102 499h125l-10 -64q26 30 63.5 48t75.5 18h69l-21 -118h-68q-53 0 -91.5 -32t-47.5 -82l-47 -269h-136z" />
    <glyph glyph-name="racute" unicode="&#x155;" horiz-adv-x="383" 
d="M102 499h125l-10 -64q26 30 63.5 48t75.5 18h69l-21 -118h-68q-53 0 -91.5 -32t-47.5 -82l-47 -269h-136zM333 748h154l-150 -180h-134z" />
    <glyph glyph-name="rcaron" unicode="&#x159;" horiz-adv-x="383" 
d="M102 499h125l-10 -64q26 30 63.5 48t75.5 18h69l-21 -118h-68q-53 0 -91.5 -32t-47.5 -82l-47 -269h-136zM110 754h117l58 -97l91 97h124l-184 -186h-89z" />
    <glyph glyph-name="uni0157" unicode="&#x157;" horiz-adv-x="383" 
d="M102 499h125l-10 -64q26 30 63.5 48t75.5 18h69l-21 -118h-68q-53 0 -91.5 -32t-47.5 -82l-47 -269h-136zM-109 -240l35 27q31 25 48.5 52t23.5 60l7 39h136l-7 -39q-13 -70 -45 -121t-88 -90l-38 -27z" />
    <glyph glyph-name="uni1E5B" unicode="&#x1e5b;" horiz-adv-x="383" 
d="M102 499h125l-10 -64q26 30 63.5 48t75.5 18h69l-21 -118h-68q-53 0 -91.5 -32t-47.5 -82l-47 -269h-136zM-10 -211q-19 18 -19 47q0 45 27.5 72.5t71.5 27.5q31 0 50.5 -18t19.5 -47q0 -45 -27.5 -72.5t-71.5 -27.5q-32 0 -51 18z" />
    <glyph glyph-name="uni1E5D" unicode="&#x1e5d;" horiz-adv-x="383" 
d="M102 499h125l-10 -64q26 30 63.5 48t75.5 18h69l-21 -118h-68q-53 0 -91.5 -32t-47.5 -82l-47 -269h-136zM-10 -211q-19 18 -19 47q0 45 27.5 72.5t71.5 27.5q31 0 50.5 -18t19.5 -47q0 -45 -27.5 -72.5t-71.5 -27.5q-32 0 -51 18zM134 689h320l-19 -106h-320z" />
    <glyph glyph-name="uni1E5F" unicode="&#x1e5f;" horiz-adv-x="383" 
d="M102 499h125l-10 -64q26 30 63.5 48t75.5 18h69l-21 -118h-68q-53 0 -91.5 -32t-47.5 -82l-47 -269h-136zM-93 -82h320l-19 -108h-320z" />
    <glyph glyph-name="s" unicode="s" horiz-adv-x="549" 
d="M66.5 31q-50.5 39 -50.5 105q0 15 3 30h134q-1 -4 -1 -11q0 -23 15 -36t42 -13h90q29 0 46 8.5t20 24.5l3 17q2 10 -6.5 18.5t-24.5 11.5l-168 30q-53 10 -83 37.5t-30 66.5q0 6 2 18l6 33q11 64 66.5 100t142.5 36h78q81 0 128.5 -36.5t47.5 -97.5q0 -13 -3 -28h-134
q1 3 1 9q0 18 -12.5 28.5t-33.5 10.5h-76q-30 0 -48.5 -8t-21.5 -22l-3 -16q-2 -10 5 -18t23 -11l176 -33q50 -10 78.5 -37.5t28.5 -63.5q0 -10 -1 -15l-6 -36q-11 -67 -65.5 -104t-141.5 -37h-90q-86 0 -136.5 39z" />
    <glyph glyph-name="sacute" unicode="&#x15b;" horiz-adv-x="549" 
d="M66.5 31q-50.5 39 -50.5 105q0 15 3 30h134q-1 -4 -1 -11q0 -23 15 -36t42 -13h90q29 0 46 8.5t20 24.5l3 17q2 10 -6.5 18.5t-24.5 11.5l-168 30q-53 10 -83 37.5t-30 66.5q0 6 2 18l6 33q11 64 66.5 100t142.5 36h78q81 0 128.5 -36.5t47.5 -97.5q0 -13 -3 -28h-134
q1 3 1 9q0 18 -12.5 28.5t-33.5 10.5h-76q-30 0 -48.5 -8t-21.5 -22l-3 -16q-2 -10 5 -18t23 -11l176 -33q50 -10 78.5 -37.5t28.5 -63.5q0 -10 -1 -15l-6 -36q-11 -67 -65.5 -104t-141.5 -37h-90q-86 0 -136.5 39zM377 748h154l-150 -180h-134z" />
    <glyph glyph-name="scaron" unicode="&#x161;" horiz-adv-x="549" 
d="M66.5 31q-50.5 39 -50.5 105q0 15 3 30h134q-1 -4 -1 -11q0 -23 15 -36t42 -13h90q29 0 46 8.5t20 24.5l3 17q2 10 -6.5 18.5t-24.5 11.5l-168 30q-53 10 -83 37.5t-30 66.5q0 6 2 18l6 33q11 64 66.5 100t142.5 36h78q81 0 128.5 -36.5t47.5 -97.5q0 -13 -3 -28h-134
q1 3 1 9q0 18 -12.5 28.5t-33.5 10.5h-76q-30 0 -48.5 -8t-21.5 -22l-3 -16q-2 -10 5 -18t23 -11l176 -33q50 -10 78.5 -37.5t28.5 -63.5q0 -10 -1 -15l-6 -36q-11 -67 -65.5 -104t-141.5 -37h-90q-86 0 -136.5 39zM154 754h117l58 -97l91 97h124l-184 -186h-89z" />
    <glyph glyph-name="scedilla" unicode="&#x15f;" horiz-adv-x="549" 
d="M390 345q1 3 1 9q0 18 -12.5 28.5t-33.5 10.5h-76q-30 0 -48.5 -8t-21.5 -22l-3 -16q-2 -10 5 -18t23 -11l176 -33q50 -10 78.5 -37.5t28.5 -63.5q0 -10 -1 -15l-6 -36q-11 -67 -65.5 -104t-141.5 -37h-1l-24 -38h10q34 0 54 -17.5t20 -49.5q0 -10 -1 -16l-3 -20
q-7 -47 -44 -74t-95 -27h-107l14 82h86q18 0 30 6t14 17l3 15q2 9 -6 14.5t-23 5.5h-66l9 52l30 50q-82 3 -129.5 41.5t-47.5 101.5q0 15 3 31h134q-1 -4 -1 -11q0 -23 15 -36t42 -13h90q29 0 46 8.5t20 24.5l3 17q2 10 -6.5 18.5t-24.5 11.5l-168 30q-53 10 -83 37.5
t-30 66.5q0 6 2 18l6 33q11 64 66.5 100t142.5 36h78q81 0 128.5 -36.5t47.5 -97.5q0 -13 -3 -28h-134z" />
    <glyph glyph-name="scircumflex" unicode="&#x15d;" horiz-adv-x="549" 
d="M66.5 31q-50.5 39 -50.5 105q0 15 3 30h134q-1 -4 -1 -11q0 -23 15 -36t42 -13h90q29 0 46 8.5t20 24.5l3 17q2 10 -6.5 18.5t-24.5 11.5l-168 30q-53 10 -83 37.5t-30 66.5q0 6 2 18l6 33q11 64 66.5 100t142.5 36h78q81 0 128.5 -36.5t47.5 -97.5q0 -13 -3 -28h-134
q1 3 1 9q0 18 -12.5 28.5t-33.5 10.5h-76q-30 0 -48.5 -8t-21.5 -22l-3 -16q-2 -10 5 -18t23 -11l176 -33q50 -10 78.5 -37.5t28.5 -63.5q0 -10 -1 -15l-6 -36q-11 -67 -65.5 -104t-141.5 -37h-90q-86 0 -136.5 39zM304 754h89l118 -186h-118l-57 97l-92 -97h-123z" />
    <glyph glyph-name="uni0219" unicode="&#x219;" horiz-adv-x="549" 
d="M66.5 31q-50.5 39 -50.5 105q0 15 3 30h134q-1 -4 -1 -11q0 -23 15 -36t42 -13h90q29 0 46 8.5t20 24.5l3 17q2 10 -6.5 18.5t-24.5 11.5l-168 30q-53 10 -83 37.5t-30 66.5q0 6 2 18l6 33q11 64 66.5 100t142.5 36h78q81 0 128.5 -36.5t47.5 -97.5q0 -13 -3 -28h-134
q1 3 1 9q0 18 -12.5 28.5t-33.5 10.5h-76q-30 0 -48.5 -8t-21.5 -22l-3 -16q-2 -10 5 -18t23 -11l176 -33q50 -10 78.5 -37.5t28.5 -63.5q0 -10 -1 -15l-6 -36q-11 -67 -65.5 -104t-141.5 -37h-90q-86 0 -136.5 39zM63 -240l35 27q31 25 48.5 52t23.5 60l7 39h136l-7 -39
q-13 -70 -45 -121t-88 -90l-38 -27z" />
    <glyph glyph-name="uni1E61" unicode="&#x1e61;" horiz-adv-x="549" 
d="M66.5 31q-50.5 39 -50.5 105q0 15 3 30h134q-1 -4 -1 -11q0 -23 15 -36t42 -13h90q29 0 46 8.5t20 24.5l3 17q2 10 -6.5 18.5t-24.5 11.5l-168 30q-53 10 -83 37.5t-30 66.5q0 6 2 18l6 33q11 64 66.5 100t142.5 36h78q81 0 128.5 -36.5t47.5 -97.5q0 -13 -3 -28h-134
q1 3 1 9q0 18 -12.5 28.5t-33.5 10.5h-76q-30 0 -48.5 -8t-21.5 -22l-3 -16q-2 -10 5 -18t23 -11l176 -33q50 -10 78.5 -37.5t28.5 -63.5q0 -10 -1 -15l-6 -36q-11 -67 -65.5 -104t-141.5 -37h-90q-86 0 -136.5 39zM264 578q-19 18 -19 47q0 45 27.5 72.5t71.5 27.5
q32 0 51 -18t19 -47q0 -45 -27.5 -72.5t-71.5 -27.5q-32 0 -51 18z" />
    <glyph glyph-name="uni1E63" unicode="&#x1e63;" horiz-adv-x="549" 
d="M66.5 31q-50.5 39 -50.5 105q0 15 3 30h134q-1 -4 -1 -11q0 -23 15 -36t42 -13h90q29 0 46 8.5t20 24.5l3 17q2 10 -6.5 18.5t-24.5 11.5l-168 30q-53 10 -83 37.5t-30 66.5q0 6 2 18l6 33q11 64 66.5 100t142.5 36h78q81 0 128.5 -36.5t47.5 -97.5q0 -13 -3 -28h-134
q1 3 1 9q0 18 -12.5 28.5t-33.5 10.5h-76q-30 0 -48.5 -8t-21.5 -22l-3 -16q-2 -10 5 -18t23 -11l176 -33q50 -10 78.5 -37.5t28.5 -63.5q0 -10 -1 -15l-6 -36q-11 -67 -65.5 -104t-141.5 -37h-90q-86 0 -136.5 39zM162 -211q-19 18 -19 47q0 45 27.5 72.5t71.5 27.5
q31 0 50.5 -18t19.5 -47q0 -45 -27.5 -72.5t-71.5 -27.5q-32 0 -51 18z" />
    <glyph glyph-name="germandbls" unicode="&#xdf;" horiz-adv-x="707" 
d="M302 28.5q-45 36.5 -45 99.5q0 16 3 34h124q-1 -5 -1 -13q0 -21 13 -31t35 -10h44q26 0 42.5 12.5t20.5 35.5l3 19l1 9q0 22 -15.5 37.5t-48.5 37.5q-38 25 -57 45.5t-19 51.5q0 4 2 16l4 21q8 42 42 71t91 39q2 12 2 17q0 31 -21 49.5t-56 18.5h-73q-53 0 -87 -28
t-43 -78l-85 -482h-136l63 356h-86l20 116h86l2 10q21 105 93 163.5t179 58.5h73q92 0 149 -45.5t57 -121.5q0 -18 -3 -36l-14 -78h-28q-44 0 -66.5 -8.5t-25.5 -26.5l-2 -12q-2 -10 8 -19t34 -26q44 -29 70 -58t26 -75q0 -7 -2 -23l-3 -19q-12 -78 -64.5 -121t-138.5 -43
h-44q-78 0 -123 36.5z" />
    <glyph glyph-name="t" unicode="t" horiz-adv-x="410" 
d="M122 28.5q-36 28.5 -36 88.5q0 19 5 47l39 219h-88l20 116h92l27 151h132l-27 -151h129l-20 -116h-129l-38 -213q-2 -14 -2 -19q0 -35 37 -35h85l-21 -116h-95q-74 0 -110 28.5z" />
    <glyph glyph-name="tbar" unicode="&#x167;" horiz-adv-x="396" 
d="M266 383l-15 -82h129l-16 -92h-129l-7 -39q-2 -14 -2 -19q0 -35 37 -35h85l-21 -116h-95q-74 0 -110 28.5t-36 88.5q0 19 5 47l8 45h-88l16 92h88l15 82h-88l20 116h92l27 151h132l-27 -151h129l-20 -116h-129z" />
    <glyph glyph-name="tcaron" unicode="&#x165;" horiz-adv-x="625" 
d="M122 28.5q-36 28.5 -36 88.5q0 19 5 47l39 219h-88l20 116h92l27 151h132l-27 -151h129l-20 -116h-129l-38 -213q-2 -14 -2 -19q0 -35 37 -35h85l-21 -116h-95q-74 0 -110 28.5zM454 512l35 27q31 25 48.5 52t23.5 60l9 49h136l-9 -49q-12 -68 -44.5 -119t-88.5 -92
l-38 -27z" />
    <glyph glyph-name="uni0163" unicode="&#x163;" horiz-adv-x="410" 
d="M228 170q-2 -14 -2 -19q0 -35 37 -35h85l-21 -116h-83l-29 -46h10q34 0 54 -17.5t20 -49.5q0 -10 -1 -16l-3 -20q-7 -47 -44 -74t-95 -27h-107l14 82h86q18 0 30 6t14 17l3 15q2 9 -6 14.5t-23 5.5h-66l9 52l42 70q-65 25 -65 105q0 24 4 47l39 219h-88l20 116h92l27 151
h132l-27 -151h129l-20 -116h-129z" />
    <glyph glyph-name="uni021B" unicode="&#x21b;" horiz-adv-x="410" 
d="M122 28.5q-36 28.5 -36 88.5q0 19 5 47l39 219h-88l20 116h92l27 151h132l-27 -151h129l-20 -116h-129l-38 -213q-2 -14 -2 -19q0 -35 37 -35h85l-21 -116h-95q-74 0 -110 28.5zM10 -240l35 27q31 25 48.5 52t23.5 60l7 39h136l-7 -39q-13 -70 -45 -121t-88 -90l-38 -27z
" />
    <glyph glyph-name="uni1E97" unicode="&#x1e97;" horiz-adv-x="410" 
d="M122 28.5q-36 28.5 -36 88.5q0 19 5 47l39 219h-88l20 116h92l27 151h132l-27 -151h129l-20 -116h-129l-38 -213q-2 -14 -2 -19q0 -35 37 -35h85l-21 -116h-95q-74 0 -110 28.5zM103.5 736.5q-16.5 15.5 -16.5 40.5q0 39 23.5 62.5t62.5 23.5q27 0 43.5 -15.5t16.5 -40.5
q0 -39 -23.5 -62.5t-61.5 -23.5q-28 0 -44.5 15.5zM352.5 736.5q-16.5 15.5 -16.5 40.5q0 39 23.5 62.5t61.5 23.5q28 0 44.5 -15.5t16.5 -40.5q0 -39 -23.5 -62.5t-62.5 -23.5q-27 0 -43.5 15.5z" />
    <glyph glyph-name="uni1E6D" unicode="&#x1e6d;" horiz-adv-x="410" 
d="M122 28.5q-36 28.5 -36 88.5q0 19 5 47l39 219h-88l20 116h92l27 151h132l-27 -151h129l-20 -116h-129l-38 -213q-2 -14 -2 -19q0 -35 37 -35h85l-21 -116h-95q-74 0 -110 28.5zM109 -211q-19 18 -19 47q0 45 27.5 72.5t71.5 27.5q31 0 50.5 -18t19.5 -47
q0 -45 -27.5 -72.5t-71.5 -27.5q-32 0 -51 18z" />
    <glyph glyph-name="uni1E6F" unicode="&#x1e6f;" horiz-adv-x="410" 
d="M122 28.5q-36 28.5 -36 88.5q0 19 5 47l39 219h-88l20 116h92l27 151h132l-27 -151h129l-20 -116h-129l-38 -213q-2 -14 -2 -19q0 -35 37 -35h85l-21 -116h-95q-74 0 -110 28.5zM26 -82h320l-19 -108h-320z" />
    <glyph glyph-name="u" unicode="u" horiz-adv-x="598" 
d="M79.5 33.5q-42.5 41.5 -42.5 110.5q0 14 4 42l55 313h136l-55 -315q-2 -14 -2 -19q0 -25 13 -40t36 -15h58q34 0 64.5 27t50.5 73l51 289h136l-88 -499h-126l11 64q-30 -33 -62.5 -52.5t-59.5 -19.5h-64q-73 0 -115.5 41.5z" />
    <glyph glyph-name="uacute" unicode="&#xfa;" horiz-adv-x="598" 
d="M79.5 33.5q-42.5 41.5 -42.5 110.5q0 14 4 42l55 313h136l-55 -315q-2 -14 -2 -19q0 -25 13 -40t36 -15h58q34 0 64.5 27t50.5 73l51 289h136l-88 -499h-126l11 64q-30 -33 -62.5 -52.5t-59.5 -19.5h-64q-73 0 -115.5 41.5zM416 748h154l-150 -180h-134z" />
    <glyph glyph-name="ubreve" unicode="&#x16d;" horiz-adv-x="598" 
d="M79.5 33.5q-42.5 41.5 -42.5 110.5q0 14 4 42l55 313h136l-55 -315q-2 -14 -2 -19q0 -25 13 -40t36 -15h58q34 0 64.5 27t50.5 73l51 289h136l-88 -499h-126l11 64q-30 -33 -62.5 -52.5t-59.5 -19.5h-64q-73 0 -115.5 41.5zM241.5 592.5q-41.5 32.5 -41.5 87.5q0 15 3 31
l4 20h106l-4 -20q-1 -5 -1 -13q0 -22 14.5 -35t40.5 -13h12q29 0 50 16.5t26 44.5l4 20h106l-4 -20q-14 -71 -64 -111t-126 -40h-12q-72 0 -113.5 32.5z" />
    <glyph glyph-name="uni01D4" unicode="&#x1d4;" horiz-adv-x="598" 
d="M79.5 33.5q-42.5 41.5 -42.5 110.5q0 14 4 42l55 313h136l-55 -315q-2 -14 -2 -19q0 -25 13 -40t36 -15h58q34 0 64.5 27t50.5 73l51 289h136l-88 -499h-126l11 64q-30 -33 -62.5 -52.5t-59.5 -19.5h-64q-73 0 -115.5 41.5zM193 754h117l58 -97l91 97h124l-184 -186h-89z
" />
    <glyph glyph-name="ucircumflex" unicode="&#xfb;" horiz-adv-x="598" 
d="M79.5 33.5q-42.5 41.5 -42.5 110.5q0 14 4 42l55 313h136l-55 -315q-2 -14 -2 -19q0 -25 13 -40t36 -15h58q34 0 64.5 27t50.5 73l51 289h136l-88 -499h-126l11 64q-30 -33 -62.5 -52.5t-59.5 -19.5h-64q-73 0 -115.5 41.5zM343 754h89l118 -186h-118l-57 97l-92 -97
h-123z" />
    <glyph glyph-name="udieresis" unicode="&#xfc;" horiz-adv-x="598" 
d="M79.5 33.5q-42.5 41.5 -42.5 110.5q0 14 4 42l55 313h136l-55 -315q-2 -14 -2 -19q0 -25 13 -40t36 -15h58q34 0 64.5 27t50.5 73l51 289h136l-88 -499h-126l11 64q-30 -33 -62.5 -52.5t-59.5 -19.5h-64q-73 0 -115.5 41.5zM187.5 585.5q-16.5 15.5 -16.5 40.5
q0 39 23.5 62.5t62.5 23.5q27 0 43.5 -15.5t16.5 -40.5q0 -39 -23.5 -62.5t-61.5 -23.5q-28 0 -44.5 15.5zM436.5 585.5q-16.5 15.5 -16.5 40.5q0 39 23.5 62.5t61.5 23.5q28 0 44.5 -15.5t16.5 -40.5q0 -39 -23.5 -62.5t-62.5 -23.5q-27 0 -43.5 15.5z" />
    <glyph glyph-name="uni01D8" unicode="&#x1d8;" horiz-adv-x="598" 
d="M79.5 33.5q-42.5 41.5 -42.5 110.5q0 14 4 42l55 313h136l-55 -315q-2 -14 -2 -19q0 -25 13 -40t36 -15h58q34 0 64.5 27t50.5 73l51 289h136l-88 -499h-126l11 64q-30 -33 -62.5 -52.5t-59.5 -19.5h-64q-73 0 -115.5 41.5zM439 906h130l-126 -150h-112zM187.5 585.5
q-16.5 15.5 -16.5 40.5q0 39 23.5 62.5t62.5 23.5q27 0 43.5 -15.5t16.5 -40.5q0 -39 -23.5 -62.5t-61.5 -23.5q-28 0 -44.5 15.5zM436.5 585.5q-16.5 15.5 -16.5 40.5q0 39 23.5 62.5t61.5 23.5q28 0 44.5 -15.5t16.5 -40.5q0 -39 -23.5 -62.5t-62.5 -23.5
q-27 0 -43.5 15.5z" />
    <glyph glyph-name="uni01DA" unicode="&#x1da;" horiz-adv-x="598" 
d="M79.5 33.5q-42.5 41.5 -42.5 110.5q0 14 4 42l55 313h136l-55 -315q-2 -14 -2 -19q0 -25 13 -40t36 -15h58q34 0 64.5 27t50.5 73l51 289h136l-88 -499h-126l11 64q-30 -33 -62.5 -52.5t-59.5 -19.5h-64q-73 0 -115.5 41.5zM249 914h99l48 -88l79 88h108l-157 -168h-81z
M187.5 585.5q-16.5 15.5 -16.5 40.5q0 39 23.5 62.5t62.5 23.5q27 0 43.5 -15.5t16.5 -40.5q0 -39 -23.5 -62.5t-61.5 -23.5q-28 0 -44.5 15.5zM436.5 585.5q-16.5 15.5 -16.5 40.5q0 39 23.5 62.5t61.5 23.5q28 0 44.5 -15.5t16.5 -40.5q0 -39 -23.5 -62.5t-62.5 -23.5
q-27 0 -43.5 15.5z" />
    <glyph glyph-name="uni01DC" unicode="&#x1dc;" horiz-adv-x="598" 
d="M79.5 33.5q-42.5 41.5 -42.5 110.5q0 14 4 42l55 313h136l-55 -315q-2 -14 -2 -19q0 -25 13 -40t36 -15h58q34 0 64.5 27t50.5 73l51 289h136l-88 -499h-126l11 64q-30 -33 -62.5 -52.5t-59.5 -19.5h-64q-73 0 -115.5 41.5zM267 906h122l56 -150h-104zM187.5 585.5
q-16.5 15.5 -16.5 40.5q0 39 23.5 62.5t62.5 23.5q27 0 43.5 -15.5t16.5 -40.5q0 -39 -23.5 -62.5t-61.5 -23.5q-28 0 -44.5 15.5zM436.5 585.5q-16.5 15.5 -16.5 40.5q0 39 23.5 62.5t61.5 23.5q28 0 44.5 -15.5t16.5 -40.5q0 -39 -23.5 -62.5t-62.5 -23.5
q-27 0 -43.5 15.5z" />
    <glyph glyph-name="uni01D6" unicode="&#x1d6;" horiz-adv-x="598" 
d="M79.5 33.5q-42.5 41.5 -42.5 110.5q0 14 4 42l55 313h136l-55 -315q-2 -14 -2 -19q0 -25 13 -40t36 -15h58q34 0 64.5 27t50.5 73l51 289h136l-88 -499h-126l11 64q-30 -33 -62.5 -52.5t-59.5 -19.5h-64q-73 0 -115.5 41.5zM250 878h320l-18 -100h-320zM187.5 585.5
q-16.5 15.5 -16.5 40.5q0 39 23.5 62.5t62.5 23.5q27 0 43.5 -15.5t16.5 -40.5q0 -39 -23.5 -62.5t-61.5 -23.5q-28 0 -44.5 15.5zM436.5 585.5q-16.5 15.5 -16.5 40.5q0 39 23.5 62.5t61.5 23.5q28 0 44.5 -15.5t16.5 -40.5q0 -39 -23.5 -62.5t-62.5 -23.5
q-27 0 -43.5 15.5z" />
    <glyph glyph-name="uni1EE5" unicode="&#x1ee5;" horiz-adv-x="598" 
d="M79.5 33.5q-42.5 41.5 -42.5 110.5q0 14 4 42l55 313h136l-55 -315q-2 -14 -2 -19q0 -25 13 -40t36 -15h58q34 0 64.5 27t50.5 73l51 289h136l-88 -499h-126l11 64q-30 -33 -62.5 -52.5t-59.5 -19.5h-64q-73 0 -115.5 41.5zM163 -211q-19 18 -19 47q0 45 27.5 72.5
t71.5 27.5q31 0 50.5 -18t19.5 -47q0 -45 -27.5 -72.5t-71.5 -27.5q-32 0 -51 18z" />
    <glyph glyph-name="ugrave" unicode="&#xf9;" horiz-adv-x="598" 
d="M79.5 33.5q-42.5 41.5 -42.5 110.5q0 14 4 42l55 313h136l-55 -315q-2 -14 -2 -19q0 -25 13 -40t36 -15h58q34 0 64.5 27t50.5 73l51 289h136l-88 -499h-126l11 64q-30 -33 -62.5 -52.5t-59.5 -19.5h-64q-73 0 -115.5 41.5zM205 748h146l66 -180h-126z" />
    <glyph glyph-name="uni1EE7" unicode="&#x1ee7;" horiz-adv-x="598" 
d="M79.5 33.5q-42.5 41.5 -42.5 110.5q0 14 4 42l55 313h136l-55 -315q-2 -14 -2 -19q0 -25 13 -40t36 -15h58q34 0 64.5 27t50.5 73l51 289h136l-88 -499h-126l11 64q-30 -33 -62.5 -52.5t-59.5 -19.5h-64q-73 0 -115.5 41.5zM300 580q4 21 20 33.5t45 26.5
q24 13 36.5 22.5t15.5 23.5l2 12q5 29 -27 29h-19q-37 0 -44 -39h-92q11 63 46.5 93t96.5 30h19q118 0 118 -89q0 -6 -2 -24l-2 -12q-5 -30 -22.5 -46.5t-47.5 -33.5q-19 -10 -28.5 -18t-10.5 -18l-2 -12h-106z" />
    <glyph glyph-name="uhorn" unicode="&#x1b0;" horiz-adv-x="726" 
d="M786 499l-9 -48q-18 -95 -70.5 -148t-128.5 -53h-38l-44 -250h-126l11 64q-30 -33 -62.5 -52.5t-59.5 -19.5h-64q-73 0 -115.5 41.5t-42.5 110.5q0 14 4 42l55 313h136l-55 -315q-2 -14 -2 -19q0 -25 13 -40t36 -15h58q34 0 64.5 27t50.5 73l51 289h136l-24 -137h14
q28 0 48 23.5t28 65.5l9 48h127z" />
    <glyph glyph-name="uni1EE9" unicode="&#x1ee9;" horiz-adv-x="726" 
d="M786 499l-9 -48q-18 -95 -70.5 -148t-128.5 -53h-38l-44 -250h-126l11 64q-30 -33 -62.5 -52.5t-59.5 -19.5h-64q-73 0 -115.5 41.5t-42.5 110.5q0 14 4 42l55 313h136l-55 -315q-2 -14 -2 -19q0 -25 13 -40t36 -15h58q34 0 64.5 27t50.5 73l51 289h136l-24 -137h14
q28 0 48 23.5t28 65.5l9 48h127zM416 748h154l-150 -180h-134z" />
    <glyph glyph-name="uni1EF1" unicode="&#x1ef1;" horiz-adv-x="726" 
d="M786 499l-9 -48q-18 -95 -70.5 -148t-128.5 -53h-38l-44 -250h-126l11 64q-30 -33 -62.5 -52.5t-59.5 -19.5h-64q-73 0 -115.5 41.5t-42.5 110.5q0 14 4 42l55 313h136l-55 -315q-2 -14 -2 -19q0 -25 13 -40t36 -15h58q34 0 64.5 27t50.5 73l51 289h136l-24 -137h14
q28 0 48 23.5t28 65.5l9 48h127zM163 -211q-19 18 -19 47q0 45 27.5 72.5t71.5 27.5q31 0 50.5 -18t19.5 -47q0 -45 -27.5 -72.5t-71.5 -27.5q-32 0 -51 18z" />
    <glyph glyph-name="uni1EEB" unicode="&#x1eeb;" horiz-adv-x="726" 
d="M786 499l-9 -48q-18 -95 -70.5 -148t-128.5 -53h-38l-44 -250h-126l11 64q-30 -33 -62.5 -52.5t-59.5 -19.5h-64q-73 0 -115.5 41.5t-42.5 110.5q0 14 4 42l55 313h136l-55 -315q-2 -14 -2 -19q0 -25 13 -40t36 -15h58q34 0 64.5 27t50.5 73l51 289h136l-24 -137h14
q28 0 48 23.5t28 65.5l9 48h127zM205 748h146l66 -180h-126z" />
    <glyph glyph-name="uni1EED" unicode="&#x1eed;" horiz-adv-x="726" 
d="M786 499l-9 -48q-18 -95 -70.5 -148t-128.5 -53h-38l-44 -250h-126l11 64q-30 -33 -62.5 -52.5t-59.5 -19.5h-64q-73 0 -115.5 41.5t-42.5 110.5q0 14 4 42l55 313h136l-55 -315q-2 -14 -2 -19q0 -25 13 -40t36 -15h58q34 0 64.5 27t50.5 73l51 289h136l-24 -137h14
q28 0 48 23.5t28 65.5l9 48h127zM300 580q4 21 20 33.5t45 26.5q24 13 36.5 22.5t15.5 23.5l2 12q5 29 -27 29h-19q-37 0 -44 -39h-92q11 63 46.5 93t96.5 30h19q118 0 118 -89q0 -6 -2 -24l-2 -12q-5 -30 -22.5 -46.5t-47.5 -33.5q-19 -10 -28.5 -18t-10.5 -18l-2 -12h-106
z" />
    <glyph glyph-name="uni1EEF" unicode="&#x1eef;" horiz-adv-x="726" 
d="M786 499l-9 -48q-18 -95 -70.5 -148t-128.5 -53h-38l-44 -250h-126l11 64q-30 -33 -62.5 -52.5t-59.5 -19.5h-64q-73 0 -115.5 41.5t-42.5 110.5q0 14 4 42l55 313h136l-55 -315q-2 -14 -2 -19q0 -25 13 -40t36 -15h58q34 0 64.5 27t50.5 73l51 289h136l-24 -137h14
q28 0 48 23.5t28 65.5l9 48h127zM387 570q-18 10 -39 28q-25 23 -39 23h-6q-13 0 -23 -14t-15 -39h-99q12 70 48 109.5t89 39.5h6q24 0 42 -10.5t42 -29.5q23 -21 34 -21h6q12 0 22 14t14 39h99q-13 -70 -48.5 -109.5t-85.5 -39.5h-6q-23 0 -41 10z" />
    <glyph glyph-name="uhungarumlaut" unicode="&#x171;" horiz-adv-x="598" 
d="M79.5 33.5q-42.5 41.5 -42.5 110.5q0 14 4 42l55 313h136l-55 -315q-2 -14 -2 -19q0 -25 13 -40t36 -15h58q34 0 64.5 27t50.5 73l51 289h136l-88 -499h-126l11 64q-30 -33 -62.5 -52.5t-59.5 -19.5h-64q-73 0 -115.5 41.5zM317 748h144l-150 -180h-124zM511 748h144
l-150 -180h-124z" />
    <glyph glyph-name="umacron" unicode="&#x16b;" horiz-adv-x="598" 
d="M79.5 33.5q-42.5 41.5 -42.5 110.5q0 14 4 42l55 313h136l-55 -315q-2 -14 -2 -19q0 -25 13 -40t36 -15h58q34 0 64.5 27t50.5 73l51 289h136l-88 -499h-126l11 64q-30 -33 -62.5 -52.5t-59.5 -19.5h-64q-73 0 -115.5 41.5zM217 689h320l-19 -106h-320z" />
    <glyph glyph-name="uogonek" unicode="&#x173;" horiz-adv-x="598" 
d="M460 -143q17 0 36 5.5t32 14.5l-15 -84q-16 -11 -39 -17.5t-47 -6.5h-15q-55 0 -87.5 24t-32.5 64q0 10 1 15l2 14q5 32 30.5 63.5t60.5 50.5h-16l11 64q-30 -33 -62.5 -52.5t-59.5 -19.5h-64q-73 0 -115.5 41.5t-42.5 110.5q0 14 4 42l55 313h136l-55 -315
q-2 -14 -2 -19q0 -25 13 -40t36 -15h58q34 0 64.5 27t50.5 73l51 289h136l-88 -499q-34 -17 -57.5 -43t-29.5 -52l-2 -9q-1 -3 -1 -9q0 -14 10 -22t29 -8h15z" />
    <glyph glyph-name="uring" unicode="&#x16f;" horiz-adv-x="598" 
d="M79.5 33.5q-42.5 41.5 -42.5 110.5q0 14 4 42l55 313h136l-55 -315q-2 -14 -2 -19q0 -25 13 -40t36 -15h58q34 0 64.5 27t50.5 73l51 289h136l-88 -499h-126l11 64q-30 -33 -62.5 -52.5t-59.5 -19.5h-64q-73 0 -115.5 41.5zM276 574.5q-29 27.5 -29 73.5q0 62 40 100.5
t104 38.5q48 0 77.5 -27.5t29.5 -73.5q0 -62 -40 -100.5t-105 -38.5q-48 0 -77 27.5zM402.5 637.5q14.5 14.5 14.5 38.5q0 16 -10 25.5t-27 9.5q-24 0 -38.5 -14.5t-14.5 -38.5q0 -16 10.5 -25.5t27.5 -9.5q23 0 37.5 14.5z" />
    <glyph glyph-name="utilde" unicode="&#x169;" horiz-adv-x="598" 
d="M79.5 33.5q-42.5 41.5 -42.5 110.5q0 14 4 42l55 313h136l-55 -315q-2 -14 -2 -19q0 -25 13 -40t36 -15h58q34 0 64.5 27t50.5 73l51 289h136l-88 -499h-126l11 64q-30 -33 -62.5 -52.5t-59.5 -19.5h-64q-73 0 -115.5 41.5zM387 570q-18 10 -39 28q-25 23 -39 23h-6
q-13 0 -23 -14t-15 -39h-99q12 70 48 109.5t89 39.5h6q24 0 42 -10.5t42 -29.5q23 -21 34 -21h6q12 0 22 14t14 39h99q-13 -70 -48.5 -109.5t-85.5 -39.5h-6q-23 0 -41 10z" />
    <glyph glyph-name="v" unicode="v" horiz-adv-x="521" 
d="M162 15.5q-17 15.5 -24 49.5l-96 434h137l58 -343h2l179 343h149l-289 -499h-70q-29 0 -46 15.5z" />
    <glyph glyph-name="w" unicode="w" horiz-adv-x="749" 
d="M85 78l-27 421h139l5 -317h2l163 305h53q23 0 35.5 -10t16.5 -31l46 -264h2l116 317h143l-173 -421q-33 -78 -100 -78h-62l-55 316l-171 -316h-61q-68 0 -72 78z" />
    <glyph glyph-name="wacute" unicode="&#x1e83;" horiz-adv-x="749" 
d="M85 78l-27 421h139l5 -317h2l163 305h53q23 0 35.5 -10t16.5 -31l46 -264h2l116 317h143l-173 -421q-33 -78 -100 -78h-62l-55 316l-171 -316h-61q-68 0 -72 78zM494 748h154l-150 -180h-134z" />
    <glyph glyph-name="wcircumflex" unicode="&#x175;" horiz-adv-x="749" 
d="M85 78l-27 421h139l5 -317h2l163 305h53q23 0 35.5 -10t16.5 -31l46 -264h2l116 317h143l-173 -421q-33 -78 -100 -78h-62l-55 316l-171 -316h-61q-68 0 -72 78zM421 754h89l118 -186h-118l-57 97l-92 -97h-123z" />
    <glyph glyph-name="wdieresis" unicode="&#x1e85;" horiz-adv-x="749" 
d="M85 78l-27 421h139l5 -317h2l163 305h53q23 0 35.5 -10t16.5 -31l46 -264h2l116 317h143l-173 -421q-33 -78 -100 -78h-62l-55 316l-171 -316h-61q-68 0 -72 78zM265.5 585.5q-16.5 15.5 -16.5 40.5q0 39 23.5 62.5t62.5 23.5q27 0 43.5 -15.5t16.5 -40.5
q0 -39 -23.5 -62.5t-61.5 -23.5q-28 0 -44.5 15.5zM514.5 585.5q-16.5 15.5 -16.5 40.5q0 39 23.5 62.5t61.5 23.5q28 0 44.5 -15.5t16.5 -40.5q0 -39 -23.5 -62.5t-62.5 -23.5q-27 0 -43.5 15.5z" />
    <glyph glyph-name="wgrave" unicode="&#x1e81;" horiz-adv-x="749" 
d="M85 78l-27 421h139l5 -317h2l163 305h53q23 0 35.5 -10t16.5 -31l46 -264h2l116 317h143l-173 -421q-33 -78 -100 -78h-62l-55 316l-171 -316h-61q-68 0 -72 78zM283 748h146l66 -180h-126z" />
    <glyph glyph-name="x" unicode="x" horiz-adv-x="532" 
d="M188 253l-140 246h148l84 -148l136 148h156l-226 -246l144 -253h-148l-88 156l-144 -156h-156z" />
    <glyph glyph-name="y" unicode="y" horiz-adv-x="598" 
d="M56.5 -162.5q-48.5 40.5 -48.5 107.5q0 11 1 17h134q-1 -22 12.5 -35.5t36.5 -13.5h82q34 0 57 24.5t30 67.5l11 65q-28 -31 -58 -48.5t-55 -17.5h-63q-74 0 -115.5 40.5t-41.5 109.5q0 22 4 42l53 303h136l-53 -305q-2 -14 -2 -19q0 -25 13 -40t36 -15h57q32 0 64 27.5
t51 72.5l50 279h136l-87 -494q-17 -98 -77.5 -153t-151.5 -55h-82q-81 0 -129.5 40.5z" />
    <glyph glyph-name="yacute" unicode="&#xfd;" horiz-adv-x="598" 
d="M56.5 -162.5q-48.5 40.5 -48.5 107.5q0 11 1 17h134q-1 -22 12.5 -35.5t36.5 -13.5h82q34 0 57 24.5t30 67.5l11 65q-28 -31 -58 -48.5t-55 -17.5h-63q-74 0 -115.5 40.5t-41.5 109.5q0 22 4 42l53 303h136l-53 -305q-2 -14 -2 -19q0 -25 13 -40t36 -15h57q32 0 64 27.5
t51 72.5l50 279h136l-87 -494q-17 -98 -77.5 -153t-151.5 -55h-82q-81 0 -129.5 40.5zM416 748h154l-150 -180h-134z" />
    <glyph glyph-name="ycircumflex" unicode="&#x177;" horiz-adv-x="598" 
d="M56.5 -162.5q-48.5 40.5 -48.5 107.5q0 11 1 17h134q-1 -22 12.5 -35.5t36.5 -13.5h82q34 0 57 24.5t30 67.5l11 65q-28 -31 -58 -48.5t-55 -17.5h-63q-74 0 -115.5 40.5t-41.5 109.5q0 22 4 42l53 303h136l-53 -305q-2 -14 -2 -19q0 -25 13 -40t36 -15h57q32 0 64 27.5
t51 72.5l50 279h136l-87 -494q-17 -98 -77.5 -153t-151.5 -55h-82q-81 0 -129.5 40.5zM343 754h89l118 -186h-118l-57 97l-92 -97h-123z" />
    <glyph glyph-name="ydieresis" unicode="&#xff;" horiz-adv-x="598" 
d="M56.5 -162.5q-48.5 40.5 -48.5 107.5q0 11 1 17h134q-1 -22 12.5 -35.5t36.5 -13.5h82q34 0 57 24.5t30 67.5l11 65q-28 -31 -58 -48.5t-55 -17.5h-63q-74 0 -115.5 40.5t-41.5 109.5q0 22 4 42l53 303h136l-53 -305q-2 -14 -2 -19q0 -25 13 -40t36 -15h57q32 0 64 27.5
t51 72.5l50 279h136l-87 -494q-17 -98 -77.5 -153t-151.5 -55h-82q-81 0 -129.5 40.5zM187.5 585.5q-16.5 15.5 -16.5 40.5q0 39 23.5 62.5t62.5 23.5q27 0 43.5 -15.5t16.5 -40.5q0 -39 -23.5 -62.5t-61.5 -23.5q-28 0 -44.5 15.5zM436.5 585.5q-16.5 15.5 -16.5 40.5
q0 39 23.5 62.5t61.5 23.5q28 0 44.5 -15.5t16.5 -40.5q0 -39 -23.5 -62.5t-62.5 -23.5q-27 0 -43.5 15.5z" />
    <glyph glyph-name="uni1E8F" unicode="&#x1e8f;" horiz-adv-x="598" 
d="M56.5 -162.5q-48.5 40.5 -48.5 107.5q0 11 1 17h134q-1 -22 12.5 -35.5t36.5 -13.5h82q34 0 57 24.5t30 67.5l11 65q-28 -31 -58 -48.5t-55 -17.5h-63q-74 0 -115.5 40.5t-41.5 109.5q0 22 4 42l53 303h136l-53 -305q-2 -14 -2 -19q0 -25 13 -40t36 -15h57q32 0 64 27.5
t51 72.5l50 279h136l-87 -494q-17 -98 -77.5 -153t-151.5 -55h-82q-81 0 -129.5 40.5zM303 578q-19 18 -19 47q0 45 27.5 72.5t71.5 27.5q32 0 51 -18t19 -47q0 -45 -27.5 -72.5t-71.5 -27.5q-32 0 -51 18z" />
    <glyph glyph-name="uni1EF5" unicode="&#x1ef5;" horiz-adv-x="598" 
d="M56.5 -162.5q-48.5 40.5 -48.5 107.5q0 11 1 17h134q-1 -22 12.5 -35.5t36.5 -13.5h82q34 0 57 24.5t30 67.5l11 65q-28 -31 -58 -48.5t-55 -17.5h-63q-74 0 -115.5 40.5t-41.5 109.5q0 22 4 42l53 303h136l-53 -305q-2 -14 -2 -19q0 -25 13 -40t36 -15h57q32 0 64 27.5
t51 72.5l50 279h136l-87 -494q-17 -98 -77.5 -153t-151.5 -55h-82q-81 0 -129.5 40.5zM133 -414q-19 18 -19 47q0 45 27.5 72.5t71.5 27.5q31 0 50.5 -18t19.5 -47q0 -45 -27.5 -72.5t-71.5 -27.5q-32 0 -51 18z" />
    <glyph glyph-name="ygrave" unicode="&#x1ef3;" horiz-adv-x="598" 
d="M56.5 -162.5q-48.5 40.5 -48.5 107.5q0 11 1 17h134q-1 -22 12.5 -35.5t36.5 -13.5h82q34 0 57 24.5t30 67.5l11 65q-28 -31 -58 -48.5t-55 -17.5h-63q-74 0 -115.5 40.5t-41.5 109.5q0 22 4 42l53 303h136l-53 -305q-2 -14 -2 -19q0 -25 13 -40t36 -15h57q32 0 64 27.5
t51 72.5l50 279h136l-87 -494q-17 -98 -77.5 -153t-151.5 -55h-82q-81 0 -129.5 40.5zM205 748h146l66 -180h-126z" />
    <glyph glyph-name="uni1EF7" unicode="&#x1ef7;" horiz-adv-x="598" 
d="M56.5 -162.5q-48.5 40.5 -48.5 107.5q0 11 1 17h134q-1 -22 12.5 -35.5t36.5 -13.5h82q34 0 57 24.5t30 67.5l11 65q-28 -31 -58 -48.5t-55 -17.5h-63q-74 0 -115.5 40.5t-41.5 109.5q0 22 4 42l53 303h136l-53 -305q-2 -14 -2 -19q0 -25 13 -40t36 -15h57q32 0 64 27.5
t51 72.5l50 279h136l-87 -494q-17 -98 -77.5 -153t-151.5 -55h-82q-81 0 -129.5 40.5zM300 580q4 21 20 33.5t45 26.5q24 13 36.5 22.5t15.5 23.5l2 12q5 29 -27 29h-19q-37 0 -44 -39h-92q11 63 46.5 93t96.5 30h19q118 0 118 -89q0 -6 -2 -24l-2 -12q-5 -30 -22.5 -46.5
t-47.5 -33.5q-19 -10 -28.5 -18t-10.5 -18l-2 -12h-106z" />
    <glyph glyph-name="uni1EF9" unicode="&#x1ef9;" horiz-adv-x="598" 
d="M56.5 -162.5q-48.5 40.5 -48.5 107.5q0 11 1 17h134q-1 -22 12.5 -35.5t36.5 -13.5h82q34 0 57 24.5t30 67.5l11 65q-28 -31 -58 -48.5t-55 -17.5h-63q-74 0 -115.5 40.5t-41.5 109.5q0 22 4 42l53 303h136l-53 -305q-2 -14 -2 -19q0 -25 13 -40t36 -15h57q32 0 64 27.5
t51 72.5l50 279h136l-87 -494q-17 -98 -77.5 -153t-151.5 -55h-82q-81 0 -129.5 40.5zM387 570q-18 10 -39 28q-25 23 -39 23h-6q-13 0 -23 -14t-15 -39h-99q12 70 48 109.5t89 39.5h6q24 0 42 -10.5t42 -29.5q23 -21 34 -21h6q12 0 22 14t14 39h99q-13 -70 -48.5 -109.5
t-85.5 -39.5h-6q-23 0 -41 10z" />
    <glyph glyph-name="z" unicode="z" horiz-adv-x="500" 
d="M-14 68l322 316h-254l20 115h452l-12 -68l-322 -316h261l-20 -115h-459z" />
    <glyph glyph-name="zacute" unicode="&#x17a;" horiz-adv-x="500" 
d="M-14 68l322 316h-254l20 115h452l-12 -68l-322 -316h261l-20 -115h-459zM373 748h154l-150 -180h-134z" />
    <glyph glyph-name="zcaron" unicode="&#x17e;" horiz-adv-x="500" 
d="M-14 68l322 316h-254l20 115h452l-12 -68l-322 -316h261l-20 -115h-459zM150 754h117l58 -97l91 97h124l-184 -186h-89z" />
    <glyph glyph-name="zdotaccent" unicode="&#x17c;" horiz-adv-x="500" 
d="M-14 68l322 316h-254l20 115h452l-12 -68l-322 -316h261l-20 -115h-459zM260 578q-19 18 -19 47q0 45 27.5 72.5t71.5 27.5q32 0 51 -18t19 -47q0 -45 -27.5 -72.5t-71.5 -27.5q-32 0 -51 18z" />
    <glyph glyph-name="uni1E93" unicode="&#x1e93;" horiz-adv-x="500" 
d="M-14 68l322 316h-254l20 115h452l-12 -68l-322 -316h261l-20 -115h-459zM113 -211q-19 18 -19 47q0 45 27.5 72.5t71.5 27.5q31 0 50.5 -18t19.5 -47q0 -45 -27.5 -72.5t-71.5 -27.5q-32 0 -51 18z" />
    <glyph glyph-name="ordfeminine" unicode="&#xaa;" horiz-adv-x="441" 
d="M108.5 365q-28.5 22 -28.5 59q0 5 2 17l5 28q8 43 47.5 70.5t97.5 27.5h41q37 0 60 -17l7 36q2 14 -6.5 22t-24.5 8h-42q-15 0 -25 -6.5t-12 -17.5h-112q9 51 51.5 82.5t103.5 31.5h61q56 0 88 -26t32 -71q0 -7 -2 -23l-42 -237h-104l6 36q-19 -19 -42.5 -30.5
t-41.5 -11.5h-41q-50 0 -78.5 22zM251 425q20 0 38.5 11t28.5 30l2 11q-7 5 -23 8.5t-33 3.5h-26q-16 0 -27.5 -6.5t-12.5 -16.5l-3 -18q-1 -10 7.5 -16.5t25.5 -6.5h23z" />
    <glyph glyph-name="ordmasculine" unicode="&#xba;" horiz-adv-x="453" 
d="M120 373.5q-37 30.5 -37 82.5q0 18 2 27l15 82q12 67 55.5 104t109.5 37h63q64 0 101 -30.5t37 -83.5q0 -18 -2 -27l-14 -82q-11 -66 -55 -103t-111 -37h-63q-64 0 -101 30.5zM284 437q20 0 34.5 13.5t18.5 37.5l13 72q1 5 1 14q0 17 -9.5 27.5t-25.5 10.5h-51
q-20 0 -34 -13.5t-18 -38.5l-13 -72q-1 -5 -1 -14q0 -17 9 -27t25 -10h51z" />
    <glyph glyph-name="uni207F" unicode="&#x207f;" horiz-adv-x="443" 
d="M130 700h104l-8 -44q19 23 41.5 36.5t42.5 13.5h35q51 0 80.5 -27.5t29.5 -74.5q0 -17 -2 -26l-40 -229h-114l38 216q1 5 1 13q0 15 -6.5 23.5t-18.5 8.5h-29q-19 0 -37.5 -16.5t-29.5 -44.5l-35 -200h-114z" />
    <glyph glyph-name="uni0394" unicode="&#x394;" horiz-adv-x="733" 
d="M11 97l386 603h104l167 -603l-17 -97h-657zM531 118l-107 409l-258 -409h365z" />
    <glyph glyph-name="uni03A9" unicode="&#x3a9;" horiz-adv-x="792" 
d="M15 118h189l8 47q-60 12 -93 53.5t-33 103.5q0 20 5 48l18 100q20 112 98.5 175t197.5 63h114q111 0 176 -54t65 -145q0 -21 -5 -49l-16 -90q-15 -82 -65 -136.5t-124 -69.5l-8 -46h189l-21 -118h-323l47 265h45q48 0 81 29t42 80l15 86q2 9 2 27q0 47 -28.5 74t-78.5 27
h-114q-61 0 -101 -31t-50 -87l-17 -96q-2 -9 -2 -26q0 -40 23.5 -61.5t67.5 -21.5h45l-47 -265h-323z" />
    <glyph glyph-name="uni03BC" unicode="&#x3bc;" horiz-adv-x="598" 
d="M584 499l-88 -499h-126l12 64q-31 -34 -64 -53t-61 -19h-44q-19 0 -37 6.5t-31 17.5l-35 -199h-134l120 682h136l-55 -315q-2 -14 -2 -19q0 -25 13.5 -40t35.5 -15h58q32 0 64 27.5t51 72.5l51 289h136z" />
    <glyph glyph-name="pi" unicode="&#x3c0;" horiz-adv-x="749" 
d="M577 170q-2 -14 -2 -18q0 -36 37 -36h75l-21 -116h-85q-74 0 -109.5 28t-35.5 89q0 24 4 47l39 219h-166l-68 -383h-136l68 383h-115l20 116h673l-20 -116h-120z" />
    <glyph glyph-name="uni0E01" unicode="&#xe01;" horiz-adv-x="636" 
d="M108 249q1 5 1 13q0 27 -17.5 46t-48.5 24q37 106 106.5 166t156.5 60h124q79 0 124.5 -39.5t45.5 -105.5q0 -17 -3 -35l-68 -378h-136l66 370q1 5 1 15q0 25 -15 40t-42 15h-104q-27 0 -56 -19.5t-48 -52.5q23 -14 37 -40t14 -56q0 -7 -2 -23l-44 -249h-136z" />
    <glyph glyph-name="uni0E02" unicode="&#xe02;" horiz-adv-x="618" 
d="M179 19q-21 19 -21 51q0 6 2 18l22 124q3 13 12.5 24t28.5 26q33 26 53 53t27 71l3 19q1 6 1 16q0 28 -15.5 44t-44.5 16h-16q-19 0 -36.5 -5.5t-26.5 -14.5v-1q12 2 22 2q35 0 55 -20.5t20 -54.5q0 -51 -37 -86t-91 -35q-44 0 -69.5 24.5t-25.5 63.5q0 7 2 23l5 27
q14 73 63 113.5t124 40.5h34q66 0 104.5 -32.5t38.5 -88.5q0 -9 -2 -27l-4 -26q-7 -43 -23 -70.5t-40 -53.5q-12 -13 -18.5 -22t-7.5 -18l-19 -108h62q18 0 28 11.5t15 35.5l69 391h136l-70 -398q-14 -75 -56 -113.5t-111 -38.5h-135q-37 0 -58 19zM180 344.5
q14 14.5 14 35.5q0 14 -9.5 22.5t-25.5 8.5q-21 0 -35 -14t-14 -35q0 -14 9.5 -23t25.5 -9q21 0 35 14.5z" />
    <glyph glyph-name="uni0E03" unicode="&#xe03;" horiz-adv-x="630" 
d="M191 19q-21 19 -21 51q0 6 2 18l21 116q3 17 15.5 34t36.5 43q32 34 51.5 62t26.5 63l4 20q3 15 3 27q0 25 -13 25h-8l-56 -44l-43 46h-8q-32 0 -46 -39v-2q14 2 24 2q32 0 52.5 -19.5t20.5 -50.5q0 -32 -15.5 -59.5t-43.5 -44.5t-64 -17q-43 0 -68 23t-25 62q0 16 2 24
l8 45q12 73 54.5 113.5t105.5 40.5h21l37 -42l48 42h34q43 0 64 -20.5t21 -62.5q0 -26 -5 -49l-4 -20q-8 -42 -22.5 -69t-36.5 -55q-16 -22 -24 -36t-11 -32l-18 -102h62q18 0 28 11.5t15 35.5l69 391h136l-70 -398q-14 -75 -56 -113.5t-111 -38.5h-135q-37 0 -58 19z
M172 325.5q14 14.5 14 35.5q0 14 -9.5 22.5t-25.5 8.5q-21 0 -35 -14t-14 -35q0 -14 9.5 -23t25.5 -9q21 0 35 14.5z" />
    <glyph glyph-name="uni0E04" unicode="&#xe04;" horiz-adv-x="654" 
d="M563 514.5q51 -43.5 51 -117.5q0 -19 -3 -39l-63 -358h-134l63 358q2 14 2 20q0 29 -16.5 45.5t-45.5 16.5h-112q-40 0 -65.5 -21.5t-32.5 -60.5l-30 -169h2l53 88q42 69 106 69q44 0 71.5 -25t27.5 -64q0 -54 -35 -89.5t-90 -35.5q-19 0 -35.5 6t-26.5 17l-100 -155
h-132l63 358q17 95 77.5 147.5t152.5 52.5h112q89 0 140 -43.5zM297 267q-15 -15 -15 -37q0 -16 10 -25t27 -9q22 0 36.5 15t14.5 37q0 16 -9.5 25t-26.5 9q-22 0 -37 -15z" />
    <glyph glyph-name="uni0E05" unicode="&#xe05;" horiz-adv-x="660" 
d="M583 521.5q41 -36.5 41 -102.5q0 -23 -4 -43l-66 -376h-134l66 374q2 14 2 19q0 23 -10 35t-29 12h-10l-86 -54l-68 54h-10q-25 0 -42 -18.5t-23 -50.5l-33 -182h2l50 83q45 74 114 74q45 0 70.5 -23t25.5 -62q0 -54 -37 -91.5t-92 -37.5q-39 0 -60 21l-100 -153h-132
l66 373q16 87 68.5 136t131.5 49h22l60 -53l78 53h22q76 0 117 -36.5zM298 267q-15 -15 -15 -37q0 -16 10 -25t27 -9q22 0 36.5 15t14.5 37q0 16 -9.5 25t-26.5 9q-22 0 -37 -15z" />
    <glyph glyph-name="uni0E06" unicode="&#xe06;" horiz-adv-x="675" 
d="M86 18.5q-32 28.5 -32 74.5q0 72 55.5 114.5t143.5 42.5v1q0 13 7.5 26.5t24.5 36.5q20 27 32 47.5t17 44.5l4 20q3 15 3 27q0 25 -13 25h-8l-56 -44l-43 46h-13q-32 0 -46 -39v-2q14 2 24 2q32 0 52.5 -19.5t20.5 -50.5q0 -32 -15.5 -59.5t-43.5 -44.5t-64 -17
q-43 0 -68 23t-25 62q0 16 2 24l8 45q13 73 53.5 113.5t103.5 40.5h29l37 -42l48 42h34q45 0 70 -22.5t25 -67.5q0 -17 -5 -42l-4 -20q-7 -35 -19.5 -60.5t-29.5 -51.5q-14 -23 -20.5 -36t-9.5 -29l-2 -10q52 -22 97 -72l72 403h134l-97 -550h-122q-25 46 -60.5 82t-70.5 49
l-18 -100q-17 -18 -51.5 -29.5t-73.5 -11.5q-55 0 -87 28.5zM178 325.5q14 14.5 14 35.5q0 14 -9.5 22.5t-25.5 8.5q-21 0 -35 -14t-14 -35q0 -14 9.5 -23t25.5 -9q21 0 35 14.5zM202 71l17 99h-8q-33 0 -51.5 -20t-18.5 -50q0 -34 35 -34q18 0 26 5z" />
    <glyph glyph-name="uni0E07" unicode="&#xe07;" horiz-adv-x="542" 
d="M484 533q31 -27 31 -73q0 -7 -2 -23l-55 -311q-11 -59 -46.5 -92.5t-88.5 -33.5h-81q-32 0 -54.5 13.5t-31.5 38.5l-121 318h144l96 -256h30q8 0 12.5 5.5t6.5 17.5l32 180h-1q-47 0 -74.5 27t-27.5 71q0 63 42 104t107 41q51 0 82 -27zM415.5 408q15.5 16 15.5 39
q0 17 -10 26.5t-29 9.5q-23 0 -39 -16t-16 -40q0 -16 10.5 -25.5t28.5 -9.5q24 0 39.5 16z" />
    <glyph glyph-name="uni0E08" unicode="&#xe08;" horiz-adv-x="607" 
d="M523.5 518q46.5 -40 46.5 -109q0 -17 -3 -35l-38 -218q-13 -77 -56 -116.5t-114 -39.5h-120q-36 0 -57.5 19.5t-21.5 51.5q0 11 1 17l7 41q-43 1 -69.5 27.5t-26.5 65.5q0 58 39.5 96t101.5 38q49 0 78 -25t29 -68q0 -6 -2 -22l-23 -129h57q20 0 30 11.5t14 36.5l38 216
q1 5 1 16q0 22 -12 35t-34 13h-125q-35 0 -57.5 -16.5t-27.5 -45.5h-134q15 85 75 132.5t151 47.5h125q81 0 127.5 -40zM161.5 206.5q10.5 -9.5 27.5 -9.5q23 0 38.5 15.5t15.5 38.5q0 16 -10 25.5t-28 9.5q-22 0 -38 -15.5t-16 -38.5q0 -16 10.5 -25.5z" />
    <glyph glyph-name="uni0E09" unicode="&#xe09;" horiz-adv-x="634" 
d="M564 237l-33 -21q22 -13 34 -35t12 -49q0 -61 -41.5 -101.5t-104.5 -40.5q-43 0 -72 22t-36 58l-117 -70h-114l22 123q-41 3 -65.5 28.5t-24.5 63.5q0 59 38 97t97 38q47 0 75.5 -25t28.5 -68q0 -6 -2 -22l-21 -118l187 105l27 154q2 12 2 16q0 22 -12 35t-33 13h-133
q-35 0 -57.5 -17t-27.5 -47h-134q15 86 75 134t151 48h133q80 0 126.5 -40.5t46.5 -108.5q0 -17 -3 -35zM108.5 200.5q10.5 -9.5 27.5 -9.5q23 0 38.5 15.5t15.5 38.5q0 16 -10.5 25.5t-27.5 9.5q-22 0 -38 -15.5t-16 -38.5q0 -16 10.5 -25.5zM478.5 83q15.5 16 15.5 39
q0 17 -10 26.5t-27 9.5q-23 0 -38.5 -16.5t-15.5 -39.5q0 -16 10 -25.5t28 -9.5q22 0 37.5 16z" />
    <glyph glyph-name="uni0E0A" unicode="&#xe0a;" horiz-adv-x="619" 
d="M651 590l-6 -22q-20 -74 -50.5 -113.5t-80.5 -65.5q25 -12 38.5 -32.5t13.5 -43.5q0 -10 -1 -15l-26 -146q-13 -72 -60.5 -112t-120.5 -40h-121q-37 0 -57.5 19t-20.5 51q0 6 2 18l21 124q2 13 11.5 23.5t29.5 26.5q32 26 52.5 53t27.5 71l3 19q1 6 1 16q0 28 -15.5 44
t-44.5 16h-16q-19 0 -36.5 -5.5t-26.5 -14.5v-1q12 2 22 2q35 0 55 -20.5t20 -54.5q0 -51 -37 -86t-91 -35q-44 0 -69.5 24.5t-25.5 63.5q0 7 2 23l5 27q14 73 63 113.5t124 40.5h34q70 0 108.5 -35.5t34.5 -95.5q38 7 62.5 38t47.5 103l7 22h121zM184.5 402.5
q-9.5 8.5 -25.5 8.5q-21 0 -35 -14t-14 -35q0 -14 9.5 -23t25.5 -9q21 0 35 14.5t14 35.5q0 14 -9.5 22.5zM438 314q0 32 -37 42q-9 -32 -22.5 -52.5t-34.5 -43.5q-2 -3 -9.5 -11.5t-11.5 -15t-5 -13.5l-19 -108h70q18 0 28 11.5t15 35.5l25 142q1 5 1 13z" />
    <glyph glyph-name="uni0E0B" unicode="&#xe0b;" horiz-adv-x="631" 
d="M663 590l-7 -22q-23 -74 -52 -114t-78 -65q25 -12 38.5 -32.5t13.5 -43.5q0 -10 -1 -15l-26 -146q-14 -75 -56 -113.5t-111 -38.5h-135q-37 0 -58 18.5t-21 50.5q0 5 2 19l21 116q3 17 15.5 34t36.5 43q32 34 51.5 62t26.5 63l4 20q3 15 3 27q0 25 -13 25h-8l-56 -44
l-43 46h-8q-32 0 -46 -39v-2q14 2 24 2q32 0 52.5 -19.5t20.5 -50.5q0 -32 -15.5 -59.5t-43.5 -44.5t-64 -17q-43 0 -68 23t-25 62q0 16 2 24l8 45q13 73 55 113.5t105 40.5h21l37 -42l48 42h34q42 0 62.5 -19.5t20.5 -60.5q0 -22 -6 -51q37 7 60 37t50 104l8 22h121z
M176.5 383.5q-9.5 8.5 -25.5 8.5q-21 0 -35 -14t-14 -35q0 -14 9.5 -23t25.5 -9q21 0 35 14.5t14 35.5q0 14 -9.5 22.5zM450 314q0 36 -44 43q-8 -22 -18 -38.5t-25 -36.5t-23 -35t-11 -33l-18 -102h70q18 0 28 11.5t15 35.5l25 142q1 4 1 13z" />
    <glyph glyph-name="uni0E0C" unicode="&#xe0c;" horiz-adv-x="933" 
d="M924 550l-97 -550h-122q-21 41 -54.5 75.5t-67.5 50.5l-18 -100q-43 -36 -109 -36q-49 0 -78 28.5t-29 75.5q0 50 27 91t73 60l22 125q1 5 1 15q0 25 -15 40t-42 15h-116q-27 0 -56 -19.5t-48 -52.5q23 -14 36 -40t13 -56q0 -7 -2 -23l-5 -28q44 -1 69 -26.5t25 -66.5
q0 -60 -40.5 -99t-102.5 -39q-50 0 -79 25.5t-29 69.5q0 7 2 23l24 141q1 5 1 14q0 27 -17 45.5t-47 23.5q37 106 106.5 166t156.5 60h134q78 0 123.5 -39t45.5 -105q0 -18 -3 -36l-23 -133q38 -14 74 -37t62 -49l69 391h136zM511 177h-10q-30 0 -48.5 -20t-18.5 -52
q0 -36 33 -36q16 0 26 5zM240.5 142.5q-10.5 9.5 -27.5 9.5q-23 0 -38.5 -15.5t-15.5 -38.5q0 -16 10.5 -25.5t27.5 -9.5q23 0 38.5 16t15.5 38q0 16 -10.5 25.5z" />
    <glyph glyph-name="uni0E0D" unicode="&#xe0d;" horiz-adv-x="936" 
d="M927 550l-70 -394q-14 -77 -56 -116.5t-112 -39.5h-210q-35 0 -57 18.5t-22 51.5q0 6 2 18l50 282q1 5 1 15q0 25 -15 40t-42 15h-97q-27 0 -56 -19.5t-48 -52.5q23 -14 36 -40t13 -56q0 -7 -2 -23l-5 -28q44 -1 69 -26.5t25 -66.5q0 -60 -40.5 -99t-102.5 -39
q-50 0 -79 25.5t-29 69.5q0 7 2 23l24 141q1 5 1 14q0 27 -17 45.5t-47 23.5q37 106 106.5 166t156.5 60h115q78 0 123.5 -39t45.5 -105q0 -18 -3 -36l-46 -260h135q38 0 46 44l69 388h136zM240.5 142.5q-10.5 9.5 -27.5 9.5q-23 0 -38.5 -15.5t-15.5 -38.5
q0 -16 10.5 -25.5t27.5 -9.5q23 0 38.5 16t15.5 38q0 16 -10.5 25.5zM643 -136q34 30 52 84h126q-32 -106 -104.5 -160.5t-181.5 -54.5q-91 0 -141.5 29.5t-50.5 83.5t37 88.5t94 34.5q47 0 74.5 -23.5t27.5 -61.5q0 -29 -12 -50h2q43 0 77 30zM489.5 -163q14.5 15 14.5 36
q0 14 -9.5 23t-25.5 9q-22 0 -36 -14.5t-14 -35.5q0 -15 9.5 -24t25.5 -9q21 0 35.5 15z" />
    <glyph glyph-name="yoYingthai.less" horiz-adv-x="936" 
d="M927 550l-70 -394q-14 -77 -56 -116.5t-112 -39.5h-210q-35 0 -57 18.5t-22 51.5q0 6 2 18l50 282q1 5 1 15q0 25 -15 40t-42 15h-97q-27 0 -56 -19.5t-48 -52.5q23 -14 36 -40t13 -56q0 -7 -2 -23l-5 -28q44 -1 69 -26.5t25 -66.5q0 -60 -40.5 -99t-102.5 -39
q-50 0 -79 25.5t-29 69.5q0 7 2 23l24 141q1 5 1 14q0 27 -17 45.5t-47 23.5q37 106 106.5 166t156.5 60h115q78 0 123.5 -39t45.5 -105q0 -18 -3 -36l-46 -260h135q38 0 46 44l69 388h136zM240.5 142.5q-10.5 9.5 -27.5 9.5q-23 0 -38.5 -15.5t-15.5 -38.5
q0 -16 10.5 -25.5t27.5 -9.5q23 0 38.5 16t15.5 38q0 16 -10.5 25.5z" />
    <glyph glyph-name="uni0E0E" unicode="&#xe0e;" horiz-adv-x="650" 
d="M568.5 518.5q45.5 -39.5 45.5 -105.5q0 -17 -3 -35l-80 -451q-14 -75 -61.5 -124t-120.5 -61l-105 71q-16 -33 -48 -53.5t-69 -20.5q-46 0 -75 26t-29 66q0 56 38 92.5t97 36.5q28 0 49 -8.5t53 -29.5l92 -60q16 7 27.5 24.5t15.5 40.5l78 443q1 5 1 15q0 25 -15 40
t-42 15h-91q-27 0 -56 -19.5t-48 -52.5q27 -17 44.5 -40.5t17.5 -52.5q0 -10 -1 -16l-27 -152q-9 -53 -46.5 -85t-93.5 -32q-50 0 -80 27t-30 70q0 58 36.5 95t93.5 37h4l7 40q1 3 1 10q0 25 -22 41t-56 22q37 106 106.5 166t156.5 60h111q79 0 124.5 -39.5zM160.5 78
q15.5 16 15.5 38q0 16 -10.5 25.5t-27.5 9.5q-22 0 -38 -15.5t-16 -38.5q0 -16 10.5 -25.5t27.5 -9.5q23 0 38.5 16zM172.5 -179q15.5 16 15.5 38q0 16 -10 25.5t-28 9.5q-22 0 -37.5 -15.5t-15.5 -38.5q0 -16 10 -25.5t28 -9.5q22 0 37.5 16z" />
    <glyph glyph-name="doChadathai.short" horiz-adv-x="650" 
d="M568.5 518.5q45.5 -39.5 45.5 -105.5q0 -17 -3 -35l-74 -418q-14 -75 -61.5 -124t-119.5 -61l-105 72q-17 -34 -49 -54.5t-69 -20.5q-46 0 -75 26t-29 66q0 56 38 92.5t97 36.5q25 0 48.5 -9.5t53.5 -28.5l92 -60q16 7 27.5 24.5t15.5 40.5l72 410q1 5 1 15q0 25 -15 40
t-42 15h-91q-27 0 -56 -19.5t-48 -52.5q27 -17 44.5 -40.5t17.5 -52.5q0 -10 -1 -16l-25 -140q-10 -53 -47 -85t-93 -32q-50 0 -80 27t-30 70q0 58 36.5 95t93.5 37h4l5 28q1 3 1 10q0 25 -22 41t-56 22q37 106 106.5 166t156.5 60h111q79 0 124.5 -39.5zM162.5 90
q15.5 16 15.5 38q0 16 -10.5 25.5t-27.5 9.5q-22 0 -38 -15.5t-16 -38.5q0 -16 10.5 -25.5t27.5 -9.5q23 0 38.5 16zM178.5 -146.5q15.5 15.5 15.5 38.5q0 16 -10 25.5t-28 9.5q-22 0 -37.5 -15.5t-15.5 -38.5q0 -16 10 -25.5t28 -9.5q22 0 37.5 15.5z" />
    <glyph glyph-name="uni0E0F" unicode="&#xe0f;" horiz-adv-x="650" 
d="M568.5 518.5q45.5 -39.5 45.5 -105.5q0 -17 -3 -35l-82 -462q-14 -74 -60.5 -121t-113.5 -52l-60 67l-57 -67l-55 61q-18 -31 -46 -48t-60 -17q-44 0 -71 25t-27 64q0 56 36 92t92 36q29 0 48.5 -10t38.5 -31l56 -62l52 62l52 -56q18 13 27.5 29t15.5 51l76 431q1 5 1 15
q0 25 -15 40t-42 15h-91q-27 0 -56 -19.5t-48 -52.5q27 -17 44.5 -40.5t17.5 -52.5q0 -10 -1 -16l-27 -152q-9 -53 -46.5 -85t-93.5 -32q-50 0 -80 27t-30 70q0 58 36.5 95t93.5 37h4l7 40q1 3 1 10q0 25 -22 41t-56 22q37 106 106.5 166t156.5 60h111q79 0 124.5 -39.5z
M160.5 78q15.5 16 15.5 38q0 16 -10.5 25.5t-27.5 9.5q-22 0 -38 -15.5t-16 -38.5q0 -16 10.5 -25.5t27.5 -9.5q23 0 38.5 16zM122.5 -181.5q15.5 15.5 15.5 38.5q0 16 -10.5 25.5t-27.5 9.5q-23 0 -38.5 -15.5t-15.5 -38.5q0 -16 10.5 -25.5t27.5 -9.5q23 0 38.5 15.5z" />
    <glyph glyph-name="toPatakthai.short" horiz-adv-x="650" 
d="M568.5 518.5q45.5 -39.5 45.5 -105.5q0 -17 -3 -35l-76 -429q-14 -74 -60.5 -121t-113.5 -52l-60 67l-57 -67l-55 61q-18 -31 -46 -48t-60 -17q-44 0 -71 25.5t-27 64.5q0 56 36 91.5t92 35.5q29 0 48.5 -10t38.5 -31l56 -62l52 62l52 -56q18 12 27.5 28.5t15.5 51.5
l70 398q1 5 1 15q0 25 -15 40t-42 15h-91q-27 0 -56 -19.5t-48 -52.5q27 -17 44.5 -40.5t17.5 -52.5q0 -10 -1 -16l-25 -140q-10 -53 -47 -85t-93 -32q-50 0 -80 27t-30 70q0 58 36.5 95t93.5 37h4l5 28q1 3 1 10q0 25 -22 41t-56 22q37 106 106.5 166t156.5 60h111
q79 0 124.5 -39.5zM162.5 90q15.5 16 15.5 38q0 16 -10.5 25.5t-27.5 9.5q-22 0 -38 -15.5t-16 -38.5q0 -16 10.5 -25.5t27.5 -9.5q23 0 38.5 16zM128.5 -148.5q15.5 15.5 15.5 38.5q0 16 -10.5 25.5t-27.5 9.5q-23 0 -38.5 -15.5t-15.5 -38.5q0 -16 10.5 -25.5t27.5 -9.5
q23 0 38.5 15.5z" />
    <glyph glyph-name="uni0E10" unicode="&#xe10;" horiz-adv-x="567" 
d="M222 453q-20 -8 -27 -25q90 -14 184.5 -38.5t136.5 -50.5l-33 -187q-13 -72 -57 -112t-110 -40h-115q-35 0 -55 18t-20 48q0 6 2 18l2 12q-40 2 -63.5 26.5t-23.5 61.5q0 55 37 91t94 36q45 0 73 -24.5t28 -64.5q0 -7 -2 -21l-17 -95h52q18 0 28.5 12.5t15.5 41.5l24 134
q-46 19 -136 36t-191 26q18 98 72.5 151t146.5 53q53 0 111 -20q18 -5 37 -9.5t35 -4.5q39 0 75 9t56 25l-17 -97q-41 -34 -114 -34q-22 0 -43 4t-49 12q-30 8 -48.5 12t-38.5 4q-30 0 -50 -8zM188 173.5q15 14.5 15 36.5q0 16 -10 25t-27 9q-22 0 -36.5 -15t-14.5 -37
q0 -15 10 -24t26 -9q22 0 37 14.5zM465.5 -21q19.5 -17 19.5 -45q0 -9 -1 -14l-13 -77q-9 -51 -51 -85.5t-100 -39.5l-53 67l-58 -67l-47 62q-17 -30 -45.5 -47.5t-60.5 -17.5q-43 0 -70 24.5t-27 64.5q0 55 36 90.5t91 35.5q52 0 83 -41l51 -68l54 62l67 -81
q14 2 25.5 12.5t13.5 22.5l1 9q-27 1 -44 18t-17 43q0 39 26.5 64t66.5 25q33 0 52.5 -17zM423.5 -99.5q10.5 10.5 10.5 25.5q0 11 -7 17.5t-19 6.5q-14 0 -24.5 -10.5t-10.5 -25.5q0 -11 6.5 -17.5t18.5 -6.5q15 0 25.5 10.5zM100.5 -205.5q15.5 15.5 15.5 37.5
q0 16 -10 25t-27 9q-22 0 -37.5 -15t-15.5 -37q0 -16 10 -25.5t27 -9.5q22 0 37.5 15.5z" />
    <glyph glyph-name="thoThanthai.less" horiz-adv-x="567" 
d="M222 453q-20 -8 -27 -25q90 -14 184.5 -38.5t136.5 -50.5l-33 -187q-13 -72 -57 -112t-110 -40h-115q-35 0 -55 18t-20 48q0 6 2 18l2 12q-40 2 -63.5 26.5t-23.5 61.5q0 55 37 91t94 36q45 0 73 -24.5t28 -64.5q0 -7 -2 -21l-17 -95h52q18 0 28.5 12.5t15.5 41.5l24 134
q-46 19 -136 36t-191 26q18 98 72.5 151t146.5 53q53 0 111 -20q18 -5 37 -9.5t35 -4.5q39 0 75 9t56 25l-17 -97q-41 -34 -114 -34q-22 0 -43 4t-49 12q-30 8 -48.5 12t-38.5 4q-30 0 -50 -8zM188 173.5q15 14.5 15 36.5q0 16 -10 25t-27 9q-22 0 -36.5 -15t-14.5 -37
q0 -15 10 -24t26 -9q22 0 37 14.5z" />
    <glyph glyph-name="uni0E11" unicode="&#xe11;" horiz-adv-x="683" 
d="M157 139q5 31 21.5 57.5t47.5 64.5q41 51 61 81t27 68l3 16q3 15 3 27q0 25 -13 25h-8l-54 -44l-43 46h-8q-32 0 -46 -39v-2q14 2 24 2q32 0 52.5 -19.5t20.5 -50.5q0 -32 -15.5 -59.5t-43.5 -44.5t-64 -17q-43 0 -68 23t-25 62q0 16 2 24l8 45q13 73 55 113.5t105 40.5
h21l37 -42l46 42h34q35 0 55 -19.5t20 -53.5q0 -11 -3 -25l-1 -4l-4 -21h2q8 11 15.5 19.5t12.5 14.5l74 89h14q128 0 128 -117q0 -24 -4 -47l-69 -394h-136l70 396q2 12 2 16q0 20 -13 20h-5l-99 -117q-58 -68 -76.5 -100.5t-24.5 -65.5l-26 -149h-136zM164 325.5
q14 14.5 14 35.5q0 14 -9.5 22.5t-25.5 8.5q-21 0 -35 -14t-14 -35q0 -14 9.5 -23t25.5 -9q21 0 35 14.5z" />
    <glyph glyph-name="uni0E12" unicode="&#xe12;" horiz-adv-x="948" 
d="M939 550l-97 -550h-120q-23 42 -52 75t-59 49l-17 -98q-44 -36 -107 -36q-47 0 -74 26t-27 71q0 46 25.5 87.5t65.5 58.5l25 141q2 12 2 18q0 22 -11 35t-30 13h-10l-93 -54l-75 54h-16q-23 0 -39 -18t-22 -51l-50 -281h5q32 3 64 18t53 39q-36 3 -56.5 25t-20.5 57
q0 53 33.5 86t87.5 33q44 0 70.5 -21t26.5 -58q0 -61 -37.5 -117.5t-103 -96.5t-148.5 -55h-114l66 373q16 87 68.5 136t131.5 49h22l67 -53l85 53h22q76 0 117 -36.5t41 -102.5q0 -23 -4 -43l-23 -133q34 -13 68 -36t55 -48l69 391h136zM278.5 215.5q9.5 -8.5 25.5 -8.5
q22 0 36.5 14.5t14.5 35.5q0 15 -10 24t-26 9q-21 0 -35.5 -15t-14.5 -36q0 -15 9.5 -23.5zM544 171h-10q-30 0 -48.5 -20.5t-18.5 -51.5q0 -17 8.5 -26.5t24.5 -9.5q18 0 26 5z" />
    <glyph glyph-name="uni0E13" unicode="&#xe13;" horiz-adv-x="927" 
d="M875.5 178.5q10.5 -20.5 10.5 -46.5q0 -62 -41 -102t-104 -40q-49 0 -79.5 27.5t-30.5 71.5q0 7 2 21q-68 -42 -134 -110h-114l66 370q1 5 1 15q0 25 -15 40t-42 15h-96q-27 0 -56 -19.5t-48 -52.5q23 -14 36 -40t13 -56q0 -7 -2 -23l-5 -28q44 -1 69 -26.5t25 -66.5
q0 -60 -40.5 -99t-102.5 -39q-50 0 -79 25.5t-29 69.5q0 7 2 23l24 141q1 5 1 14q0 27 -17 45.5t-47 23.5q37 106 106.5 166t156.5 60h114q78 0 123.5 -39t45.5 -105q0 -18 -3 -36l-40 -229q37 29 83 53.5t85 35.5l56 312h136l-60 -338q19 -13 29.5 -33.5zM788.5 83
q15.5 16 15.5 39q0 17 -10 26.5t-28 9.5q-22 0 -38 -16.5t-16 -39.5q0 -16 10.5 -25.5t27.5 -9.5q23 0 38.5 16zM240.5 142.5q-10.5 9.5 -27.5 9.5q-23 0 -38.5 -15.5t-15.5 -38.5q0 -16 10.5 -25.5t27.5 -9.5q23 0 38.5 16t15.5 38q0 16 -10.5 25.5z" />
    <glyph glyph-name="uni0E14" unicode="&#xe14;" horiz-adv-x="658" 
d="M566 514.5q52 -43.5 52 -118.5q0 -18 -3 -38l-63 -358h-134l63 358q2 14 2 20q0 29 -16.5 45.5t-46.5 16.5h-111q-40 0 -66 -23t-33 -63l-45 -258h5q33 0 65 12t56 33q-37 3 -58.5 26.5t-21.5 58.5q0 55 37 91t93 36q45 0 72.5 -25.5t27.5 -64.5q0 -66 -41.5 -125
t-112.5 -96t-155 -42h-114l62 354q17 96 79 150t156 54h109q90 0 142 -43.5zM297 272q-15 -15 -15 -37q0 -16 9.5 -25t26.5 -9q22 0 37 15t15 37q0 16 -9.5 25t-26.5 9q-22 0 -37 -15z" />
    <glyph glyph-name="uni0E15" unicode="&#xe15;" horiz-adv-x="662" 
d="M585 521.5q41 -36.5 41 -102.5q0 -23 -4 -43l-66 -376h-134l66 374q2 14 2 19q0 23 -10 35t-29 12h-10l-87 -54l-69 54h-10q-23 0 -39 -18t-22 -51l-49 -275h5q33 0 65 12t56 33q-37 3 -58.5 26.5t-21.5 58.5q0 55 37 91t93 36q45 0 72.5 -25.5t27.5 -64.5
q0 -66 -41.5 -125t-112.5 -96t-155 -42h-114l66 373q16 87 68.5 136t131.5 49h22l61 -53l79 53h22q76 0 117 -36.5zM297 272q-15 -15 -15 -37q0 -16 9.5 -25t26.5 -9q22 0 37 15t15 37q0 16 -9.5 25t-26.5 9q-22 0 -37 -15z" />
    <glyph glyph-name="uni0E16" unicode="&#xe16;" horiz-adv-x="636" 
d="M554.5 519q45.5 -39 45.5 -105q0 -18 -3 -36l-67 -378h-136l66 370q1 5 1 15q0 25 -15 40t-42 15h-105q-27 0 -56 -19.5t-48 -52.5q23 -14 36 -40t13 -56q0 -7 -2 -23l-5 -28q44 -1 69 -26.5t25 -66.5q0 -60 -40.5 -99t-102.5 -39q-50 0 -79 25.5t-29 69.5q0 7 2 23
l24 141q1 5 1 14q0 27 -17 45.5t-47 23.5q37 106 106.5 166t156.5 60h125q78 0 123.5 -39zM240.5 142.5q-10.5 9.5 -27.5 9.5q-23 0 -38.5 -15.5t-15.5 -38.5q0 -16 10.5 -25.5t27.5 -9.5q23 0 38.5 16t15.5 38q0 16 -10.5 25.5z" />
    <glyph glyph-name="uni0E17" unicode="&#xe17;" horiz-adv-x="680" 
d="M609.5 525q37.5 -33 37.5 -93q0 -12 -4 -38l-70 -394h-136l71 398q2 14 2 18q0 18 -13 18h-4l-228 -434h-167l56 317q-47 0 -74.5 27.5t-27.5 71.5q0 63 41.5 103.5t106.5 40.5q50 0 80 -26.5t30 -71.5q0 -7 -2 -25l-46 -259h1l198 380h42q69 0 106.5 -33zM143.5 401.5
q10.5 -9.5 28.5 -9.5q24 0 39.5 16t15.5 39q0 17 -10 26.5t-29 9.5q-23 0 -39 -16t-16 -40q0 -16 10.5 -25.5z" />
    <glyph glyph-name="uni0E18" unicode="&#xe18;" horiz-adv-x="591" 
d="M78 19q-21 19 -21 51q0 6 2 18l28 162h132l-24 -138h143q40 0 47 42l18 104q-30 13 -126 29.5t-226 31.5q21 121 78 181t157 60q28 0 50.5 -4.5t57.5 -14.5q53 -17 87 -17t64.5 9.5t52.5 26.5l-18 -105q-16 -17 -47 -27t-69 -10q-23 0 -45 4.5t-51 13.5q-31 8 -48.5 12
t-36.5 4q-63 0 -83 -57q117 -16 211 -38.5t135 -45.5l-28 -159q-13 -75 -55.5 -113.5t-113.5 -38.5h-214q-36 0 -57 19z" />
    <glyph glyph-name="uni0E19" unicode="&#xe19;" horiz-adv-x="663" 
d="M611.5 178.5q10.5 -20.5 10.5 -46.5q0 -61 -41.5 -101.5t-104.5 -40.5q-49 0 -79.5 28.5t-30.5 72.5q0 8 2 24q-86 -48 -154 -115h-116l56 317q-46 0 -74 27.5t-28 70.5q0 63 41.5 104t106.5 41q51 0 82 -27t31 -73q0 -7 -2 -23l-51 -288q41 31 94.5 58.5t96.5 38.5
l54 304h136l-59 -338q19 -13 29.5 -33.5zM213.5 408q15.5 16 15.5 39q0 17 -10 26.5t-29 9.5q-23 0 -39 -16t-16 -40q0 -16 10.5 -25.5t28.5 -9.5q24 0 39.5 16zM524.5 83q15.5 16 15.5 39q0 16 -10.5 26t-27.5 10q-23 0 -38.5 -16t-15.5 -40q0 -16 10 -25.5t28 -9.5
q23 0 38.5 16z" />
    <glyph glyph-name="uni0E1A" unicode="&#xe1a;" horiz-adv-x="675" 
d="M666 550l-70 -394q-14 -77 -56 -116.5t-112 -39.5h-238q-35 0 -57 18.5t-22 51.5q0 6 2 18l41 229q-47 0 -74.5 27.5t-27.5 71.5q0 63 41.5 103.5t106.5 40.5q51 0 82 -27t31 -73q0 -7 -2 -23l-56 -319h160q38 0 46 44l69 388h136zM145.5 401.5q10.5 -9.5 28.5 -9.5
q24 0 39.5 16t15.5 39q0 17 -10 26.5t-29 9.5q-23 0 -39 -16t-16 -40q0 -16 10.5 -25.5z" />
    <glyph glyph-name="uni0E1B" unicode="&#xe1b;" horiz-adv-x="677" 
d="M705 762l-107 -606q-27 -156 -168 -156h-240q-35 0 -57 18.5t-22 51.5q0 6 2 18l41 229q-47 0 -74.5 27.5t-27.5 71.5q0 63 41.5 103.5t106.5 40.5q51 0 82 -27t31 -73q0 -7 -2 -23l-56 -319h162q38 0 46 44l106 600h136zM145.5 401.5q10.5 -9.5 28.5 -9.5q24 0 39.5 16
t15.5 39q0 17 -10 26.5t-29 9.5q-23 0 -39 -16t-16 -40q0 -16 10.5 -25.5z" />
    <glyph glyph-name="uni0E1C" unicode="&#xe1c;" horiz-adv-x="649" 
d="M640 550l-82 -462q-7 -39 -36.5 -63.5t-69.5 -24.5h-52l-84 179l-152 -179h-56q-35 0 -55.5 19t-20.5 51q0 6 2 18l63 354q10 54 48 86t94 32q48 0 78 -27.5t30 -70.5q0 -59 -38 -97t-97 -38h-6l-33 -186l133 152h23q18 0 28.5 -7.5t19.5 -24.5l58 -120l73 409h132z
M190 471q-16 -16 -16 -40q0 -16 10.5 -25.5t28.5 -9.5q23 0 39 16t16 39q0 17 -10.5 26.5t-28.5 9.5q-23 0 -39 -16z" />
    <glyph glyph-name="uni0E1D" unicode="&#xe1d;" horiz-adv-x="651" 
d="M679 762l-119 -674q-7 -39 -36.5 -63.5t-69.5 -24.5h-52l-85 179l-153 -179h-56q-35 0 -55.5 19t-20.5 51q0 6 2 18l63 354q10 54 48 86t94 32q48 0 78 -27.5t30 -70.5q0 -59 -38 -97t-97 -38h-6l-33 -186l134 152h23q18 0 28.5 -7.5t19.5 -24.5l59 -120l110 621h132z
M190 471q-16 -16 -16 -40q0 -16 10.5 -25.5t28.5 -9.5q23 0 39 16t16 39q0 17 -10.5 26.5t-28.5 9.5q-23 0 -39 -16z" />
    <glyph glyph-name="uni0E1E" unicode="&#xe1e;" horiz-adv-x="733" 
d="M724 550l-80 -454q-7 -43 -38.5 -69.5t-74.5 -26.5h-66l-37 334l-157 -334h-68q-39 0 -61.5 20.5t-22.5 55.5q0 6 2 20l39 221h-5q-47 0 -75 27.5t-28 71.5q0 63 41.5 103.5t105.5 40.5q50 0 79 -26.5t29 -71.5q0 -16 -2 -25l-51 -288h2l167 349h31q15 0 25 -11t12 -29
l36 -308h2l71 400h124zM143.5 401.5q10.5 -9.5 28.5 -9.5q24 0 39.5 16t15.5 39q0 17 -10 26.5t-29 9.5q-23 0 -39 -16t-16 -40q0 -16 10.5 -25.5z" />
    <glyph glyph-name="uni0E1F" unicode="&#xe1f;" horiz-adv-x="735" 
d="M763 762l-117 -666q-7 -43 -38.5 -69.5t-74.5 -26.5h-66l-38 334l-158 -334h-68q-39 0 -61.5 20.5t-22.5 55.5q0 6 2 20l39 221h-5q-47 0 -75 27.5t-28 71.5q0 63 41.5 103.5t105.5 40.5q50 0 79 -26.5t29 -71.5q0 -16 -2 -25l-51 -288h2l168 349h31q15 0 25 -11t12 -29
l37 -308h2l108 612h124zM143.5 401.5q10.5 -9.5 28.5 -9.5q24 0 39.5 16t15.5 39q0 17 -10 26.5t-29 9.5q-23 0 -39 -16t-16 -40q0 -16 10.5 -25.5z" />
    <glyph glyph-name="uni0E20" unicode="&#xe20;" horiz-adv-x="648" 
d="M566.5 518.5q45.5 -39.5 45.5 -105.5q0 -17 -3 -35l-67 -378h-136l65 370q1 5 1 15q0 25 -15 40t-42 15h-89q-27 0 -56 -19.5t-48 -52.5q27 -17 44.5 -40.5t17.5 -52.5q0 -10 -1 -16l-27 -152q-9 -53 -46.5 -85t-93.5 -32q-50 0 -80 27t-30 70q0 58 36.5 95t93.5 37h4
l7 40q1 3 1 10q0 25 -22 41t-56 22q37 106 106.5 166t156.5 60h109q79 0 124.5 -39.5zM160.5 78q15.5 16 15.5 38q0 16 -10.5 25.5t-27.5 9.5q-22 0 -38 -15.5t-16 -38.5q0 -16 10.5 -25.5t27.5 -9.5q23 0 38.5 16z" />
    <glyph glyph-name="uni0E21" unicode="&#xe21;" horiz-adv-x="645" 
d="M636 550l-97 -550h-122q-23 42 -64 78t-86 53l-18 -107q-24 -16 -56 -25t-67 -9q-53 0 -84.5 28t-31.5 78q0 63 41 107t106 52l11 62h-1q-47 0 -75 27.5t-28 70.5q0 63 41.5 104t106.5 41q51 0 82.5 -27t31.5 -73q0 -7 -2 -23l-35 -192q39 -14 78 -37.5t64 -48.5l69 391
h136zM225.5 408q15.5 16 15.5 39q0 17 -10 26.5t-29 9.5q-23 0 -39 -16t-16 -40q0 -16 10.5 -25.5t28.5 -9.5q24 0 39.5 16zM175 176h-10q-29 0 -49 -20.5t-20 -50.5q0 -17 9 -26t25 -9q17 0 28 5z" />
    <glyph glyph-name="uni0E22" unicode="&#xe22;" horiz-adv-x="623" 
d="M614 550l-70 -394q-13 -77 -56 -116.5t-114 -39.5h-267q-35 0 -56.5 19t-21.5 50q0 7 2 19l10 55q6 34 29 64t54 44v1q-24 15 -37.5 43t-13.5 63q0 56 25 102t67.5 73t93.5 27q48 0 78.5 -26.5t30.5 -67.5q0 -55 -36 -91t-90 -36q-31 0 -49 12q-1 -2 -1 -8q0 -50 83 -50
h47l-16 -94h-47q-35 0 -56.5 -13.5t-25.5 -39.5l-5 -30h190q19 0 31 11.5t16 32.5l69 390h136zM211 476.5q-16 -16.5 -16 -39.5q0 -16 10.5 -25.5t28.5 -9.5q23 0 39 16t16 39q0 16 -10.5 26t-27.5 10q-24 0 -40 -16.5z" />
    <glyph glyph-name="uni0E23" unicode="&#xe23;" horiz-adv-x="529" 
d="M184 394q194 -32 277 -82l-35 -199q-10 -56 -50 -89.5t-97 -33.5q-51 0 -82 28t-31 73q0 62 40 101t103 39h2l5 34q-80 32 -281 58q21 118 76 177.5t157 59.5q28 0 49.5 -5t49.5 -14q24 -9 41 -13t38 -4q32 0 63 9.5t53 26.5l-20 -110q-21 -18 -46.5 -26t-60.5 -8
q-22 0 -41.5 4t-47.5 12q-51 15 -82 15q-63 0 -80 -53zM328 83q16 16 16 40q0 16 -10.5 25.5t-28.5 9.5q-23 0 -39 -16t-16 -39q0 -17 10.5 -26.5t28.5 -9.5q23 0 39 16z" />
    <glyph glyph-name="uni0E24" unicode="&#xe24;" horiz-adv-x="638" 
d="M556.5 519q45.5 -39 45.5 -105q0 -18 -3 -36l-102 -578h-136l101 570q1 5 1 15q0 25 -15 40t-42 15h-107q-27 0 -56 -19.5t-48 -52.5q23 -14 36 -40t13 -56q0 -7 -2 -23l-5 -28q44 -1 69 -26.5t25 -66.5q0 -60 -40.5 -99t-102.5 -39q-50 0 -79 25.5t-29 69.5q0 7 2 23
l24 141q1 5 1 14q0 27 -17 45.5t-47 23.5q37 106 106.5 166t156.5 60h127q78 0 123.5 -39zM240.5 142.5q-10.5 9.5 -27.5 9.5q-23 0 -38.5 -15.5t-15.5 -38.5q0 -16 10.5 -25.5t27.5 -9.5q23 0 38.5 16t15.5 38q0 16 -10.5 25.5z" />
    <glyph glyph-name="uni0E24.short" horiz-adv-x="638" 
d="M556.5 518.5q45.5 -39.5 45.5 -105.5q0 -17 -3 -35l-85 -478h-136l84 470q1 5 1 15q0 25 -15 40t-42 15h-107q-27 0 -56 -19.5t-48 -52.5q23 -14 36 -40t13 -56q0 -7 -2 -23l-5 -28q44 -1 69 -26.5t25 -66.5q0 -60 -40.5 -99t-102.5 -39q-50 0 -79 25.5t-29 69.5
q0 7 2 23l24 141q1 5 1 14q0 27 -17 45.5t-47 23.5q37 106 106.5 166t156.5 60h127q78 0 123.5 -39.5zM240.5 142.5q-10.5 9.5 -27.5 9.5q-23 0 -38.5 -15.5t-15.5 -38.5q0 -16 10.5 -25.5t27.5 -9.5q23 0 38.5 16t15.5 38q0 16 -10.5 25.5z" />
    <glyph glyph-name="uni0E25" unicode="&#xe25;" horiz-adv-x="611" 
d="M527.5 518q46.5 -40 46.5 -109q0 -17 -3 -35l-66 -374h-136l14 74q2 20 2 30q0 62 -31.5 98.5t-86.5 36.5q-53 0 -75 -28q41 -1 64.5 -25.5t23.5 -62.5q0 -58 -39.5 -95.5t-100.5 -37.5q-50 0 -79 26t-29 67q0 8 2 22l13 72q15 82 74.5 128t154.5 46q50 0 88 -17.5
t57 -48.5l17 91q1 5 1 16q0 22 -12 35t-34 13h-112q-35 0 -57.5 -15.5t-26.5 -43.5h-134q14 83 73.5 130t151.5 47h112q81 0 127.5 -40zM185.5 76q15.5 16 15.5 38q0 16 -10.5 25.5t-27.5 9.5q-22 0 -38 -15.5t-16 -38.5q0 -16 10.5 -25.5t27.5 -9.5q23 0 38.5 16z" />
    <glyph glyph-name="uni0E26" unicode="&#xe26;" horiz-adv-x="650" 
d="M568.5 518.5q45.5 -39.5 45.5 -105.5q0 -17 -3 -35l-102 -578h-136l100 570q1 5 1 15q0 25 -15 40t-42 15h-91q-27 0 -56 -19.5t-48 -52.5q27 -17 44.5 -40.5t17.5 -52.5q0 -10 -1 -16l-27 -152q-9 -53 -46.5 -85t-93.5 -32q-50 0 -80 27t-30 70q0 58 36.5 95t93.5 37h4
l7 40q1 3 1 10q0 25 -22 41t-56 22q37 106 106.5 166t156.5 60h111q79 0 124.5 -39.5zM160.5 78q15.5 16 15.5 38q0 16 -10.5 25.5t-27.5 9.5q-22 0 -38 -15.5t-16 -38.5q0 -16 10.5 -25.5t27.5 -9.5q23 0 38.5 16z" />
    <glyph glyph-name="uni0E26.short" horiz-adv-x="650" 
d="M568.5 518.5q45.5 -39.5 45.5 -105.5q0 -17 -3 -35l-85 -478h-136l83 470q1 5 1 15q0 25 -15 40t-42 15h-91q-27 0 -56 -19.5t-48 -52.5q27 -17 44.5 -40.5t17.5 -52.5q0 -10 -1 -16l-27 -152q-9 -53 -46.5 -85t-93.5 -32q-50 0 -80 27t-30 70q0 58 36.5 95t93.5 37h4
l7 40q1 3 1 10q0 25 -22 41t-56 22q37 106 106.5 166t156.5 60h111q79 0 124.5 -39.5zM160.5 78q15.5 16 15.5 38q0 16 -10.5 25.5t-27.5 9.5q-22 0 -38 -15.5t-16 -38.5q0 -16 10.5 -25.5t27.5 -9.5q23 0 38.5 16z" />
    </font>
</defs>
</svg>
